<svg xmlns="http://www.w3.org/2000/svg" viewBox="0 0 256.30554 48.02979"><defs><style>.a{opacity:0.3;}.b{fill:#4db3e4;}</style></defs><g class="a"><path class="b" d="M1.10583,43.32324c.79138.96436,2.15662,1.05762,3.4491,1.21875A4.23662,4.23662,0,0,0,1.10583,43.32324Z"/><path class="b" d="M4.58032,44.563a.13563.13563,0,0,1,.02-.01319.24139.24139,0,0,1-.04541-.00781A.30678.30678,0,0,1,4.58032,44.563Z"/><path class="b" d="M255.34777,1.36328c-.32287.01856-.69079.0376-1.064.06006A3.13727,3.13727,0,0,0,255.34777,1.36328Z"/><path class="b" d="M67.18334,47.3374l.1969-1.59863c3.06629-.023.8927,1.82861,3.72766,1.43408,1.109-2.26123,4.70911.23438,5.68909-.96728-.02221.17968,1.36585.248,1.27808.956.425-1.228,1.42773-.28564,2.30322-.59863.31726-.3418-.23279-.36719-.47009-.73779l2.00549-.4336c.78418.395.97742,1.11768.125,1.251,5.24109.44043,30.40418,1.61621,36.05042,1.00342-.72583-.92725-2.46875-.30079-3.131-1.75879,1.49244-.81739,2.19764.28564,2.8556-.57325.57287,2.16846,3.28039.51905,4.41052,2.71583l.42822-1.22852.74182.752c6.5647-1.27881,1.5-.624,7.31958-.33447,3.36817-.189,4.96851-1.89355,6.84265-1.26514-.27844-.01318-1.02111-.76562-.14868-1.07861.14868,1.07861,2.32263-.77441,2.74768.31494.85462-.13574,3.62329.00293,2.68628-1.47217.47009.73584,2.94019,1.0376,1.46961,1.67725a4.50846,4.50846,0,0,0,2.24047-.06543l-1.06994-.41162c2.81433-.21436,4.34814.92822,6.181-.40674L150.623,43.9248c1.6825-.09326,3.08972-.20361,3.75049,1.25538l-1.72754.44921a19.86384,19.86384,0,0,0,6.7992-.91064l-.8302-.03955c2.96313-1.458,18.46386-2.66162,21.19421-4.48779l-1.25745-1.13282,2.3479-.95361c-.27783-.01318-1.133,3.67822-1.36584,3.30859,5.031-.105,31.20154-.98437,35.84814-.2207,1.87476.62793.33728,1.79834.31592,1.97754,2.28149-.42285.98438-1.20117,2.92407-1.104.52954.20459-.10962.88818-.40759,1.0498.85022-.13379,1.63855.25879,1.70349-.271-1.063-.41064-.61291-1.81542-1.063-2.728l2.49524.12158-.11072.88721c.5564.02685,1.41089-2.42578,3.86207-1.94873,4.13525.38379,8.62683.07275,12.78491.27832-.0647.53222-.93775.84619-1.81287,1.1582.55762.02783,1.40711-.10889,1.92066.27344-1.00428-.93994,1.74511-.626.96-1.022,3.04553-2.16845,6.98608-.188,9.67443-1.65966.23511-1.9502,5.75684-33.501,5.75684-35.82032a5.26075,5.26075,0,0,1,1.92017.27491c-.21546-.54541-1.85608-.80518-2.72815-.49317l-.15027,1.24219c-2.00635.436-.47009-.73779-2.42835-.65381-.10437-1.0166,1.69788-1.23437,3.285-1.332-1.42908-.11816-2.85242-.85938-3.43445.25391C249.50622,1.25439,250.99877.43457,249.381,0c-1.15223.29883-2.66565,1.294-3.98938.69238l.02343-.1792c-3.21777-1.0498-4.92346,1.542-7.86352.5044l.31665-.34033c-1.03931-.58838-3.08533.20214-4.96008-.4253.53479.20508.99963.94092-.12757,1.062-2.15576-.64111-3.62634,0-5.202-.792l-1.51246.99561c-7.505-.19434-37.15,1.22119-44.68933,1.38037l.29529-.15918c-11.48706.498-35.06763.42041-46.93982,1.79248-1.83593-.98-4.36865-.74951-6.28406-1.02344,1.06519.40821.70044,1.104-.13134,1.064C122.48,4.459,127.923,5.249,122.01989,5.668c-6.79712.91162-32.80969-.126-38.8435-.96143-3.241,1.44483-7.28675.352-10.46216,1.26563l.3197-.34082c-3.41.54443-22.71411-.79492-26.67773-.27832l.53259.20654c-3.45606.89746-2.98523-.68359-5.70862-1.17578.35779,1.62109-2.60376,2.541-3.73328,2.66357l.04273-.35449c-1.70313.27295-5.5614,1.68115-8.37415,1.89893l.11-.88721c-2.34583.95264-6.75647.55664-8.44238.65039-3.85584-.36719-9.80176-1.91162-14.95752-.73975L2.49487,5.0874l-.48767.251S-3.35669,35.86523,3.45251,42.36719l-.1084.88476,1.34619-.11377c1.61536.436,2.36243-.59082,2.25269.293L4.73,43.32324c1.6228.25635.48986.72559-.12964,1.22656a5.8626,5.8626,0,0,1,1.87475.46338c.3197-.34033-.2351-.36718-.48767-.55957.87305-.312,2.08862-1.144,3.15161-.73584,1.66187.0835.106,1.4336,2.04517,1.52979,10.227.68506,20.13672,1.71142,30.47351,1.51123.23511.36719-.045.354-.34351.519,3.11438-.38183,5.88221-.24365,8.71778-.63965a2.81,2.81,0,0,1,1.23559,1.30909C50.79968,47.2124,66.92773,47.145,67.18334,47.3374Z"/></g></svg>