<svg xmlns="http://www.w3.org/2000/svg" viewBox="0 0 256.30554 48.02979"><defs><style>.a{opacity:0.3;}.b{fill:#87d21d;}</style></defs><g class="a"><path class="b" d="M1.10583,43.3233c.79138.96436,2.15662,1.05762,3.4491,1.21875A4.235,4.235,0,0,0,1.10583,43.3233Z"/><path class="b" d="M4.58032,44.56256a.13244.13244,0,0,1,.02-.01269.29.29,0,0,1-.04541-.00782A.30765.30765,0,0,1,4.58032,44.56256Z"/><path class="b" d="M255.34778,1.36334c-.32288.01856-.6908.0376-1.064.06006A3.13735,3.13735,0,0,0,255.34778,1.36334Z"/><path class="b" d="M67.18335,47.337l.1969-1.59814c3.06628-.02344.8927,1.82861,3.72766,1.43408,1.109-2.26123,4.7091.23438,5.68908-.96728-.02221.17968,1.36585.248,1.27808.95556.425-1.22754,1.42773-.28515,2.30322-.59863.31726-.34131-.23278-.36719-.47009-.7373l2.00549-.4336c.78418.395.97742,1.11768.125,1.251,5.24109.43994,30.40418,1.61621,36.05042,1.00342-.72583-.92725-2.46875-.30078-3.131-1.75879,1.49243-.81738,2.19763.28564,2.85559-.57324.57287,2.16845,3.28027.519,4.41052,2.71582l.42822-1.22852.7417.752c6.56482-1.27881,1.5-.624,7.3197-.33447,3.36817-.189,4.96851-1.89355,6.84266-1.26562-.27845-.0127-1.02112-.76514-.14869-1.07862.14869,1.07862,2.32264-.77441,2.74768.31543.85462-.13623,3.6233.00293,2.68616-1.47217.47022.73584,2.94031,1.0376,1.46973,1.67676a4.49714,4.49714,0,0,0,2.24048-.06543l-1.07-.41113c2.81433-.21436,4.34815.92773,6.181-.40674l-1.03992-.58642c1.6825-.09327,3.08973-.20362,3.75049,1.25537L152.646,45.629a19.86433,19.86433,0,0,0,6.7992-.91016l-.8302-.04c2.96313-1.45752,18.46386-2.66162,21.19421-4.4873l-1.25744-1.13282,2.3479-.95361c-.27784-.01367-1.13306,3.67822-1.36585,3.3086,5.031-.10547,31.20154-.98438,35.84815-.22071,1.87475.62744.33728,1.79834.31591,1.97754,2.2815-.42285.98438-1.20117,2.92408-1.104.52954.2041-.10975.88818-.4076,1.0498.85022-.13428,1.63855.2583,1.70349-.271-1.063-.41065-.61291-1.81543-1.063-2.728l2.49523.12158-.11071.88721c.55639.02685,1.41089-2.42578,3.86206-1.94873,4.13525.38379,8.62683.07275,12.78491.27832-.0647.53174-.93774.84619-1.81287,1.1582.55762.02734,1.40711-.10889,1.92066.27344-1.00427-.93994,1.74512-.626.96-1.022,3.04553-2.16846,6.98608-.188,9.67444-1.65967.2351-1.9502,5.75683-33.50147,5.75683-35.82032a5.26075,5.26075,0,0,1,1.92017.27491c-.21545-.54541-1.85608-.80567-2.72815-.49366l-.15027,1.24268c-2.00635.436-.47009-.73779-2.42834-.65381-.10437-1.0166,1.69787-1.23437,3.285-1.332-1.42908-.11816-2.85242-.85937-3.43445.25391-1.34314-.42334.14942-1.24268-1.4685-1.67774-1.1521.29932-2.66553,1.29444-3.98926.69287l.02344-.1792c-3.21778-1.0498-4.92347,1.542-7.86353.50391l.31665-.33984c-1.03931-.58838-3.08533.20215-4.96008-.4253.53479.20508.99963.94092-.12757,1.062-2.15576-.64112-3.62634,0-5.202-.792l-1.51245.99561c-7.505-.19434-37.15,1.22119-44.68933,1.38037l.29528-.15918c-11.48706.49756-35.06762.42041-46.93982,1.79248-1.83593-.98-4.36865-.74951-6.28405-1.02392,1.06518.40869.70044,1.104-.13135,1.064-5.83679-.11279-.3938.67773-6.29688,1.09668-6.79711.91162-32.80969-.126-38.8435-.96143-3.241,1.44483-7.28674.35205-10.46216,1.26563l.3197-.34082c-3.41.54394-22.71411-.79492-26.67773-.27832l.53259.20654c-3.456.89746-2.98523-.68359-5.70862-1.17627.35779,1.62158-2.60376,2.54151-3.73327,2.66406l.04272-.35449c-1.70312.273-5.5614,1.68115-8.37414,1.89844l.11-.88721c-2.34582.95313-6.75647.55713-8.44238.65039-3.85584-.36718-9.80176-1.91113-14.95752-.73925L2.49487,5.08746l-.48767.251S-3.35669,35.8653,3.45251,42.36725l-.1084.88476,1.34619-.11425c1.61536.436,2.36243-.59034,2.25269.29345L4.73,43.3233c1.6228.25635.48987.72559-.12964,1.22657a5.84948,5.84948,0,0,1,1.87475.46337c.31971-.34033-.2351-.36718-.48767-.55957.87305-.312,2.08863-1.144,3.15162-.73584,1.66186.0835.106,1.4336,2.04516,1.52979,10.227.68457,20.13672,1.71094,30.47351,1.51123.23511.36719-.045.354-.3435.519,3.11438-.38232,5.8822-.24414,8.71777-.64013a2.81056,2.81056,0,0,1,1.2356,1.30957C50.79968,47.21246,66.92773,47.14508,67.18335,47.337Z"/></g></svg>