<svg xmlns="http://www.w3.org/2000/svg" viewBox="0 0 256.30554 48.02979"><defs><style>.a{opacity:0.3;}.b{fill:#55db1d;}</style></defs><g class="a"><path class="b" d="M1.10586,43.3233c.79138.96436,2.15661,1.05762,3.44909,1.21875A4.235,4.235,0,0,0,1.10586,43.3233Z"/><path class="b" d="M4.58022,44.56256a.14623.14623,0,0,1,.02-.01269.286.286,0,0,1-.04529-.00782A.28437.28437,0,0,1,4.58022,44.56256Z"/><path class="b" d="M255.3478,1.36334c-.32288.01856-.6908.0376-1.064.06006A3.13727,3.13727,0,0,0,255.3478,1.36334Z"/><path class="b" d="M67.18337,47.337l.1969-1.59814c3.06629-.02344.8927,1.82861,3.72766,1.43408,1.109-2.26123,4.70917.23438,5.689-.96728-.02222.17968,1.3659.248,1.27807.95556.42511-1.22754,1.4278-.28515,2.30329-.59863.31726-.34131-.23285-.36719-.47009-.7373l2.00543-.4336c.78424.395.97741,1.11768.125,1.251,5.24115.43994,30.40423,1.61621,36.05041,1.00342-.72583-.92725-2.46869-.30078-3.131-1.75879,1.49249-.81738,2.19763.28564,2.85559-.57324.57294,2.16845,3.2804.519,4.41059,2.71582l.42822-1.22852.74176.752c6.56476-1.27881,1.5-.624,7.31964-.33447,3.36822-.189,4.96851-1.89355,6.84265-1.26562-.2785-.0127-1.02112-.76514-.14874-1.07862.14874,1.07862,2.32263-.77441,2.74774.31543.85455-.13623,3.62329.00293,2.68622-1.47217.47009.73584,2.94024,1.0376,1.46966,1.67676a4.49717,4.49717,0,0,0,2.24048-.06543L145.482,44.918c2.81433-.21436,4.34808.92773,6.181-.40674l-1.03986-.58642c1.68249-.09327,3.08966-.20362,3.75043,1.25537L152.646,45.629a19.86438,19.86438,0,0,0,6.79925-.91016l-.8302-.04c2.96314-1.45752,18.46387-2.66162,21.19416-4.4873l-1.25745-1.13282,2.348-.95361c-.27783-.01367-1.13306,3.67822-1.36591,3.3086,5.03107-.10547,31.20154-.98438,35.84815-.22071,1.87476.62744.33728,1.79834.316,1.97754,2.28143-.42285.98431-1.20117,2.92407-1.104.52948.2041-.10968.88818-.40759,1.0498.85022-.13428,1.63849.2583,1.70349-.271-1.06305-.41065-.61292-1.81543-1.06305-2.728l2.49524.12158-.11066.88721c.55634.02685,1.41089-2.42578,3.86206-1.94873,4.13526.38379,8.62683.07275,12.78485.27832-.06469.53174-.93768.84619-1.81286,1.1582.55761.02734,1.40716-.10889,1.92071.27344-1.00427-.93994,1.74506-.626.9599-1.022,3.0456-2.16846,6.98615-.188,9.6745-1.65967.23505-1.9502,5.75684-33.50147,5.75684-35.82032a5.26,5.26,0,0,1,1.9201.27491c-.21539-.54541-1.856-.80567-2.72809-.49366l-.15032,1.24268c-2.00635.436-.4701-.73779-2.42835-.65381-.10437-1.0166,1.69788-1.23437,3.2851-1.332-1.42908-.11816-2.85248-.85937-3.43451.25391-1.34308-.42334.14941-1.24268-1.46839-1.67774-1.15216.29932-2.66559,1.29444-3.98932.69287l.02344-.1792c-3.21783-1.0498-4.92352,1.542-7.86352.50391l.31665-.33984c-1.03925-.58838-3.08533.20215-4.96009-.4253.53479.20508.99958.94092-.12756,1.062-2.15576-.64112-3.62634,0-5.202-.792l-1.51245.99561C218.561,1.3233,188.916,2.73883,181.37667,2.898l.29535-.15918c-11.48706.49756-35.06763.42041-46.93982,1.79248-1.836-.98-4.36871-.74951-6.28412-1.02392,1.06525.40869.70044,1.104-.13129,1.064-5.83685-.11279-.39379.67773-6.29693,1.09668-6.79706.91162-32.80969-.126-38.84345-.96143-3.241,1.44483-7.2868.35205-10.46215,1.26563l.3197-.34082c-3.41.54394-22.71411-.79492-26.67774-.27832l.5326.20654c-3.45606.89746-2.98536-.68359-5.70874-1.17627.35791,1.62158-2.60364,2.54151-3.73328,2.66406l.04285-.35449c-1.70313.273-5.56141,1.68115-8.37427,1.89844l.11011-.88721c-2.34583.95313-6.75647.55713-8.44239.65039-3.85583-.36718-9.80175-1.91113-14.95752-.73925L2.4949,5.08746l-.48768.251S-3.35667,35.8653,3.45254,42.36725l-.1084.88476,1.34619-.11425c1.61536.436,2.3623-.59034,2.25269.29345L4.73,43.3233c1.62281.25635.48975.72559-.12976,1.22657a5.84789,5.84789,0,0,1,1.87476.46337c.31982-.34033-.235-.36718-.48755-.55957.87305-.312,2.0885-1.144,3.15161-.73584,1.66187.0835.106,1.4336,2.045,1.52979,10.22718.68457,20.13672,1.71094,30.47364,1.51123.235.36719-.045.354-.34351.519,3.11438-.38232,5.8822-.24414,8.71777-.64013a2.81119,2.81119,0,0,1,1.2356,1.30957C50.7997,47.21246,66.92776,47.14508,67.18337,47.337Z"/></g></svg>