<svg xmlns="http://www.w3.org/2000/svg" viewBox="0 0 256.30554 48.02979"><defs><style>.a{opacity:0.3;}.b{fill:#af1dec;}</style></defs><g class="a"><path class="b" d="M1.10556,43.3233c.7915.96436,2.15674,1.05762,3.44922,1.21875A4.23442,4.23442,0,0,0,1.10556,43.3233Z"/><path class="b" d="M4.58017,44.56256a.172.172,0,0,1,.02-.01269.29232.29232,0,0,1-.04541-.00782A.24369.24369,0,0,1,4.58017,44.56256Z"/><path class="b" d="M255.34774,1.36334c-.32275.01856-.69091.0376-1.064.06006A3.13726,3.13726,0,0,0,255.34774,1.36334Z"/><path class="b" d="M67.18319,47.337l.19727-1.59814c3.06592-.02344.89258,1.82861,3.72754,1.43408,1.10889-2.26123,4.709.23438,5.689-.96728-.022.17968,1.36573.248,1.27832.95556.42481-1.22754,1.42774-.28515,2.30323-.59863.31689-.34131-.23291-.36719-.47022-.7373l2.00537-.4336c.78418.395.97754,1.11768.125,1.251,5.24121.43994,30.4043,1.61621,36.0503,1.00342-.72559-.92725-2.46875-.30078-3.13086-1.75879,1.49267-.81738,2.19775.28564,2.85547-.57324.57324,2.16845,3.28027.519,4.41064,2.71582l.42822-1.22852.7417.752c6.56494-1.27881,1.5-.624,7.31983-.33447,3.36816-.189,4.96826-1.89355,6.84277-1.26562-.27881-.0127-1.02149-.76514-.14893-1.07862.14893,1.07862,2.32276-.77441,2.74756.31543.85449-.13623,3.62354.00293,2.68653-1.47217.46972.73584,2.93994,1.0376,1.46972,1.67676a4.49624,4.49624,0,0,0,2.24024-.06543L145.482,44.918c2.81446-.21436,4.34815.92773,6.18115-.40674l-1.04-.58642c1.68261-.09327,3.08984-.20362,3.75048,1.25537l-1.72754.44873a19.86627,19.86627,0,0,0,6.79932-.91016l-.83057-.04c2.96338-1.45752,18.46387-2.66162,21.19434-4.4873l-1.25732-1.13282,2.34765-.95361c-.27783-.01367-1.13281,3.67822-1.36572,3.3086,5.03125-.10547,31.20166-.98438,35.84814-.22071,1.875.62744.33741,1.79834.31592,1.97754,2.28174-.42285.98438-1.20117,2.92432-1.104.5293.2041-.10986.88818-.40772,1.0498.8501-.13428,1.63819.2583,1.70362-.271-1.063-.41065-.61328-1.81543-1.063-2.728l2.49512.12158-.11084.88721c.55664.02685,1.41113-2.42578,3.8623-1.94873,4.13526.38379,8.62647.07275,12.78467.27832-.06494.53174-.9375.84619-1.813,1.1582.55762.02734,1.40723-.10889,1.9209.27344-1.0044-.93994,1.74512-.626.96-1.022,3.04541-2.16846,6.98584-.188,9.67432-1.65967.23535-1.9502,5.75683-33.50147,5.75683-35.82032a5.25763,5.25763,0,0,1,1.91992.27491c-.21533-.54541-1.85595-.80567-2.728-.49366l-.15039,1.24268c-2.00635.436-.46973-.73779-2.42823-.65381-.10449-1.0166,1.69776-1.23437,3.28516-1.332-1.4292-.11816-2.85254-.85937-3.43457.25391-1.34277-.42334.14941-1.24268-1.46826-1.67774-1.15235.29932-2.66553,1.29444-3.98926.69287l.02344-.1792c-3.21778-1.0498-4.92334,1.542-7.86377.50391l.31689-.33984c-1.03955-.58838-3.08545.20215-4.96-.4253.53467.20508.99951.94092-.12793,1.062-2.15576-.64112-3.626,0-5.20166-.792l-1.51269.99561C218.56112,1.3233,188.9161,2.73883,181.37655,2.898l.29541-.15918c-11.48681.49756-35.06738.42041-46.93994,1.79248-1.83594-.98-4.36865-.74951-6.28369-1.02392,1.06494.40869.7002,1.104-.13135,1.064-5.83691-.11279-.394.67773-6.29687,1.09668-6.79737.91162-32.81006-.126-38.84375-.96143-3.24072,1.44483-7.28662.35205-10.46192,1.26563l.31934-.34082c-3.40967.54394-22.71387-.79492-26.67773-.27832l.53271.20654c-3.456.89746-2.98535-.68359-5.7085-1.17627.35791,1.62158-2.604,2.54151-3.73339,2.66406l.043-.35449c-1.70312.273-5.56152,1.68115-8.37451,1.89844l.11035-.88721c-2.34619.95313-6.75683.55713-8.44287.65039-3.85547-.36718-9.80127-1.91113-14.957-.73925l-3.331-2.52784-.48731.251S-3.35684,35.8653,3.45273,42.36725l-.10889.88476,1.34668-.11425c1.61523.436,2.3623-.59034,2.25244.29345L4.73007,43.3233c1.62256.25635.48975.72559-.12988,1.22657a5.85023,5.85023,0,0,1,1.875.46337c.31982-.34033-.23536-.36718-.4878-.55957.873-.312,2.08838-1.144,3.15186-.73584,1.66162.0835.106,1.4336,2.04492,1.52979,10.22705.68457,20.13672,1.71094,30.47363,1.51123.23487.36719-.04492.354-.34375.519,3.11475-.38232,5.88233-.24414,8.71778-.64013a2.812,2.812,0,0,1,1.23584,1.30957C50.79941,47.21246,66.92782,47.14508,67.18319,47.337Z"/></g></svg>