<svg xmlns="http://www.w3.org/2000/svg" viewBox="0 0 256.30554 48.02979"><defs><style>.a{opacity:0.3;}.b{fill:#f3651d;}</style></defs><g class="a"><path class="b" d="M1.10584,43.3233c.79126.96436,2.15674,1.05762,3.44922,1.21875A4.23526,4.23526,0,0,0,1.10584,43.3233Z"/><path class="b" d="M4.58021,44.56256a.15325.15325,0,0,1,.02-.01269.28417.28417,0,0,1-.04517-.00782A.2666.2666,0,0,1,4.58021,44.56256Z"/><path class="b" d="M255.34778,1.36334c-.32275.01856-.69067.0376-1.064.06006A3.13693,3.13693,0,0,0,255.34778,1.36334Z"/><path class="b" d="M67.18348,47.337l.19677-1.59814c3.06641-.02344.89283,1.82861,3.72779,1.43408,1.10888-2.26123,4.709.23438,5.689-.96728-.02221.17968,1.366.248,1.27808.95556.425-1.22754,1.42773-.28515,2.30322-.59863.31738-.34131-.23291-.36719-.47-.7373l2.00537-.4336c.78418.395.9773,1.11768.125,1.251,5.241.43994,30.40405,1.61621,36.05029,1.00342-.72583-.92725-2.4685-.30078-3.13085-1.75879,1.49243-.81738,2.19751.28564,2.85546-.57324.573,2.16845,3.28052.519,4.41065,2.71582l.42822-1.22852.7417.752c6.56494-1.27881,1.5-.624,7.31982-.33447,3.36817-.189,4.96851-1.89355,6.84253-1.26562-.27856-.0127-1.021-.76514-.14868-1.07862.14868,1.07862,2.32251-.77441,2.74781.31543.85449-.13623,3.623.00293,2.686-1.47217.47022.73584,2.94043,1.0376,1.46973,1.67676a4.49721,4.49721,0,0,0,2.24048-.06543l-1.06983-.41113c2.81421-.21436,4.3479.92773,6.18091-.40674l-1.04-.58642c1.68262-.09327,3.08984-.20362,3.75049,1.25537l-1.72754.44873a19.8638,19.8638,0,0,0,6.79932-.91016l-.83008-.04c2.96313-1.45752,18.46386-2.66162,21.19409-4.4873l-1.25757-1.13282,2.34815-.95361c-.27808-.01367-1.13306,3.67822-1.366,3.3086,5.031-.10547,31.20141-.98438,35.84814-.22071,1.87476.62744.33716,1.79834.31592,1.97754,2.2815-.42285.98438-1.20117,2.92407-1.104.52954.2041-.10962.88818-.40747,1.0498.8501-.13428,1.63843.2583,1.70337-.271-1.063-.41065-.613-1.81543-1.063-2.728l2.49512.12158-.11059.88721c.55639.02685,1.41088-2.42578,3.86206-1.94873,4.13525.38379,8.6267.07275,12.78491.27832-.0647.53174-.93775.84619-1.813,1.1582.55762.02734,1.40723-.10889,1.9209.27344-1.0044-.93994,1.74487-.626.95971-1.022,3.04566-2.16846,6.98633-.188,9.67457-1.65967.2351-1.9502,5.75683-33.50147,5.75683-35.82032a5.26026,5.26026,0,0,1,1.92017.27491c-.21533-.54541-1.856-.80567-2.728-.49366l-.15039,1.24268c-2.00635.436-.47022-.73779-2.42847-.65381-.10425-1.0166,1.698-1.23437,3.28516-1.332-1.429-.11816-2.85254-.85937-3.43457.25391-1.343-.42334.14941-1.24268-1.46826-1.67774-1.1521.29932-2.66553,1.29444-3.98926.69287l.02344-.1792c-3.218-1.0498-4.92359,1.542-7.86353.50391l.31665-.33984c-1.03931-.58838-3.08545.20215-4.9602-.4253.53491.20508.99951.94092-.12744,1.062-2.15577-.64112-3.62647,0-5.20215-.792l-1.51245.99561c-7.50513-.19434-37.14991,1.22119-44.68946,1.38037l.29541-.15918c-11.48706.49756-35.06762.42041-46.93969,1.79248-1.83619-.98-4.3689-.74951-6.28418-1.02392,1.06518.40869.70044,1.104-.13135,1.064-5.83692-.11279-.3938.67773-6.29688,1.09668-6.79712.91162-32.80981-.126-38.8435-.96143-3.241,1.44483-7.28687.35205-10.46216,1.26563l.31982-.34082c-3.41015.54394-22.71411-.79492-26.67773-.27832l.53247.20654c-3.45606.89746-2.98535-.68359-5.70874-1.17627.35791,1.62158-2.60352,2.54151-3.73316,2.66406l.04273-.35449c-1.70313.273-5.56152,1.68115-8.37427,1.89844l.11011-.88721c-2.346.95313-6.75635.55713-8.44238.65039-3.856-.36718-9.80176-1.91113-14.95752-.73925L2.49476,5.08746l-.48755.251s-5.364,30.52686,1.44531,37.02881l-.1084.88476,1.34619-.11425c1.61524.436,2.36231-.59034,2.25269.29345L4.73011,43.3233c1.6228.25635.48974.72559-.12988,1.22657a5.8471,5.8471,0,0,1,1.87475.46337c.31983-.34033-.23486-.36718-.48755-.55957.87305-.312,2.08863-1.144,3.15161-.73584,1.66187.0835.106,1.4336,2.04517,1.52979,10.227.68457,20.13672,1.71094,30.47363,1.51123.23487.36719-.04516.354-.3435.519,3.11425-.38232,5.88208-.24414,8.71753-.64013a2.80857,2.80857,0,0,1,1.23559,1.30957C50.79969,47.21246,66.92762,47.14508,67.18348,47.337Z"/></g></svg>