<svg xmlns="http://www.w3.org/2000/svg" viewBox="0 0 256.30554 48.02979"><defs><style>.a{opacity:0.3;}.b{fill:#1dd1e3;}</style></defs><g class="a"><path class="b" d="M1.1058,43.3233c.79141.96436,2.15671,1.05762,3.44916,1.21875A4.23512,4.23512,0,0,0,1.1058,43.3233Z"/><path class="b" d="M4.58029,44.56256a.14052.14052,0,0,1,.02-.01269.28747.28747,0,0,1-.04531-.00782A.29638.29638,0,0,1,4.58029,44.56256Z"/><path class="b" d="M255.34777,1.36334c-.32287.01856-.69073.0376-1.064.06006A3.13719,3.13719,0,0,0,255.34777,1.36334Z"/><path class="b" d="M67.18337,47.337l.19693-1.59814c3.06626-.02344.8927,1.82861,3.72767,1.43408,1.109-2.26123,4.7091.23438,5.689-.96728-.02219.17968,1.36591.248,1.27808.95556.42511-1.22754,1.42779-.28515,2.30331-.59863.31723-.34131-.23288-.36719-.47012-.7373l2.00543-.4336c.78424.395.97739,1.11768.125,1.251,5.24109.43994,30.40418,1.61621,36.05035,1.00342-.72576-.92725-2.46862-.30078-3.13095-1.75879,1.4925-.81738,2.19764.28564,2.85559-.57324.57294,2.16845,3.28037.519,4.41062,2.71582l.42819-1.22852.74173.752c6.56482-1.27881,1.5-.624,7.31967-.33447,3.3682-.189,4.96854-1.89355,6.84268-1.26562-.2785-.0127-1.02114-.76514-.1488-1.07862.1488,1.07862,2.32269-.77441,2.74777.31543.85456-.13623,3.62326.00293,2.68619-1.47217.47009.73584,2.94031,1.0376,1.4697,1.67676a4.497,4.497,0,0,0,2.24044-.06543L145.482,44.918c2.81436-.21436,4.34811.92773,6.181-.40674l-1.03992-.58642c1.68256-.09327,3.08972-.20362,3.75049,1.25537L152.646,45.629a19.86448,19.86448,0,0,0,6.79926-.91016l-.83017-.04c2.9631-1.45752,18.46386-2.66162,21.19409-4.4873l-1.25745-1.13282,2.348-.95361c-.27789-.01367-1.133,3.67822-1.3659,3.3086,5.031-.10547,31.20154-.98438,35.84808-.22071,1.87482.62744.33728,1.79834.316,1.97754,2.28143-.42285.98425-1.20117,2.92407-1.104.52948.2041-.10974.88818-.40759,1.0498.85016-.13428,1.63843.2583,1.70343-.271-1.063-.41065-.61291-1.81543-1.063-2.728l2.49518.12158-.11066.88721c.5564.02685,1.41095-2.42578,3.86206-1.94873,4.13526.38379,8.62684.07275,12.78492.27832-.0647.53174-.93775.84619-1.81293,1.1582.55762.02734,1.40716-.10889,1.92071.27344-1.00427-.93994,1.74506-.626.9599-1.022,3.04566-2.16846,6.98615-.188,9.67457-1.65967.235-1.9502,5.75683-33.50147,5.75683-35.82032a5.25973,5.25973,0,0,1,1.92.27491c-.21534-.54541-1.856-.80567-2.728-.49366l-.15039,1.24268c-2.00635.436-.4701-.73779-2.42829-.65381-.10443-1.0166,1.69782-1.23437,3.285-1.332-1.429-.11816-2.85248-.85937-3.43445.25391-1.34308-.42334.14941-1.24268-1.46845-1.67774-1.1521.29932-2.66552,1.29444-3.98925.69287l.02343-.1792c-3.21789-1.0498-4.92352,1.542-7.86352.50391l.31665-.33984c-1.03931-.58838-3.08539.20215-4.96014-.4253.53479.20508.99957.94092-.12751,1.062-2.15576-.64112-3.6264,0-5.202-.792l-1.51252.99561c-7.505-.19434-37.15,1.22119-44.68933,1.38037l.29535-.15918c-11.48712.49756-35.06766.42041-46.93982,1.79248-1.836-.98-4.36874-.74951-6.28415-1.02392,1.06522.40869.70047,1.104-.13125,1.064-5.83686-.11279-.39386.67773-6.297,1.09668-6.797.91162-32.80966-.126-38.84344-.96143-3.241,1.44483-7.28684.35205-10.46219,1.26563l.31976-.34082c-3.41009.54394-22.71414-.79492-26.67776-.27832l.53259.20654c-3.456.89746-2.98532-.68359-5.70868-1.17627.35788,1.62158-2.60367,2.54151-3.73328,2.66406l.04282-.35449c-1.70319.273-5.56149,1.68115-8.37427,1.89844l.11-.88721c-2.3458.95313-6.75641.55713-8.44239.65039-3.8558-.36718-9.80172-1.91113-14.95751-.73925L2.49484,5.08746l-.48761.251S-3.3567,35.8653,3.45254,42.36725l-.10846.88476,1.34622-.11425c1.61533.436,2.36237-.59034,2.25266.29345L4.73,43.3233c1.62283.25635.48977.72559-.12974,1.22657a5.84907,5.84907,0,0,1,1.87479.46337c.31973-.34033-.23505-.36718-.48761-.55957.873-.312,2.08856-1.144,3.15158-.73584,1.66193.0835.106,1.4336,2.04514,1.52979,10.22714.68457,20.13672,1.71094,30.47357,1.51123.23505.36719-.045.354-.34351.519,3.11438-.38232,5.88214-.24414,8.71775-.64013a2.81043,2.81043,0,0,1,1.23556,1.30957C50.79965,47.21246,66.9277,47.14508,67.18337,47.337Z"/></g></svg>