<svg xmlns="http://www.w3.org/2000/svg" viewBox="0 0 256.30554 48.02979"><defs><style>.a{opacity:0.3;}.b{fill:#1ddf26;}</style></defs><g class="a"><path class="b" d="M1.10578,43.3233c.79144.96436,2.15674,1.05762,3.44916,1.21875A4.23508,4.23508,0,0,0,1.10578,43.3233Z"/><path class="b" d="M4.58026,44.56256a.14266.14266,0,0,1,.02-.01269.28767.28767,0,0,1-.04534-.00782A.29613.29613,0,0,1,4.58026,44.56256Z"/><path class="b" d="M255.34778,1.36334c-.32287.01856-.69076.0376-1.064.06006A3.13723,3.13723,0,0,0,255.34778,1.36334Z"/><path class="b" d="M67.18341,47.337l.1969-1.59814c3.06629-.02344.8927,1.82861,3.72766,1.43408,1.109-2.26123,4.70911.23438,5.689-.96728-.02216.17968,1.36591.248,1.27808.95556.42511-1.22754,1.42785-.28515,2.30334-.59863.31726-.34131-.23291-.36719-.47009-.7373l2.00537-.4336c.78424.395.97742,1.11768.12506,1.251,5.24109.43994,30.40417,1.61621,36.05035,1.00342-.72577-.92725-2.46865-.30078-3.131-1.75879,1.4925-.81738,2.19766.28564,2.85559-.57324.57294,2.16845,3.2804.519,4.41062,2.71582l.42822-1.22852.74173.752c6.56479-1.27881,1.5-.624,7.31964-.33447,3.36823-.189,4.96854-1.89355,6.84268-1.26562-.27847-.0127-1.02115-.76514-.14877-1.07862.14877,1.07862,2.32266-.77441,2.74777.31543.85455-.13623,3.62326.00293,2.68619-1.47217.47009.73584,2.94031,1.0376,1.46966,1.67676a4.49715,4.49715,0,0,0,2.24048-.06543L145.482,44.918c2.81433-.21436,4.34811.92773,6.181-.40674l-1.03992-.58642c1.68253-.09327,3.08972-.20362,3.75046,1.25537L152.646,45.629a19.8641,19.8641,0,0,0,6.79922-.91016l-.83017-.04c2.96314-1.45752,18.46387-2.66162,21.19413-4.4873l-1.25745-1.13282,2.348-.95361c-.27786-.01367-1.133,3.67822-1.3659,3.3086,5.03106-.10547,31.20153-.98438,35.84814-.22071,1.87476.62744.33725,1.79834.316,1.97754,2.28143-.42285.98428-1.20117,2.92407-1.104.52948.2041-.10971.88818-.40759,1.0498.85019-.13428,1.63846.2583,1.70349-.271-1.06305-.41065-.61294-1.81543-1.06305-2.728l2.49521.12158-.11066.88721c.55637.02685,1.41095-2.42578,3.86206-1.94873,4.13526.38379,8.62684.07275,12.78489.27832-.0647.53174-.93772.84619-1.8129,1.1582.55762.02734,1.40719-.10889,1.92071.27344-1.00427-.93994,1.74506-.626.9599-1.022,3.04563-2.16846,6.98615-.188,9.67453-1.65967.23505-1.9502,5.75684-33.50147,5.75684-35.82032a5.2597,5.2597,0,0,1,1.92007.27491c-.21536-.54541-1.856-.80567-2.728-.49366l-.15036,1.24268c-2.00635.436-.4701-.73779-2.42832-.65381-.1044-1.0166,1.69785-1.23437,3.28507-1.332-1.429-.11816-2.85248-.85937-3.43448.25391-1.34308-.42334.14941-1.24268-1.46842-1.67774-1.15213.29932-2.66555,1.29444-3.98928.69287l.02343-.1792c-3.21783-1.0498-4.92352,1.542-7.86349.50391l.31662-.33984c-1.03928-.58838-3.08533.20215-4.96012-.4253.53483.20508.99961.94092-.12753,1.062-2.15576-.64112-3.62637,0-5.202-.792l-1.51249.99561c-7.505-.19434-37.15,1.22119-44.68936,1.38037l.29538-.15918c-11.48709.49756-35.06766.42041-46.93985,1.79248-1.836-.98-4.36871-.74951-6.28412-1.02392,1.06522.40869.70047,1.104-.13128,1.064-5.83686-.11279-.39383.67773-6.29694,1.09668-6.79706.91162-32.80966-.126-38.84347-.96143-3.241,1.44483-7.28681.35205-10.46216,1.26563l.31976-.34082c-3.4101.54394-22.71417-.79492-26.6778-.27832l.5326.20654c-3.456.89746-2.98529-.68359-5.70868-1.17627.35791,1.62158-2.60364,2.54151-3.73328,2.66406l.04285-.35449c-1.70319.273-5.56152,1.68115-8.37427,1.89844l.11005-.88721c-2.34583.95313-6.75647.55713-8.44245.65039-3.85577-.36718-9.80169-1.91113-14.95745-.73925L2.49482,5.08746l-.48755.251s-5.364,30.52686,1.44525,37.02881l-.10846.88476,1.34625-.11425c1.61536.436,2.36237-.59034,2.25263.29345L4.73,43.3233c1.62287.25635.48981.72559-.1297,1.22657a5.84908,5.84908,0,0,1,1.87476.46337c.31976-.34033-.23505-.36718-.48761-.55957.873-.312,2.08856-1.144,3.15161-.73584,1.66193.0835.106,1.4336,2.04511,1.52979,10.22717.68457,20.13672,1.71094,30.47357,1.51123.235.36719-.045.354-.34351.519,3.11438-.38232,5.8822-.24414,8.71778-.64013a2.8109,2.8109,0,0,1,1.23559,1.30957C50.79963,47.21246,66.92774,47.14508,67.18341,47.337Z"/></g></svg>