<svg xmlns="http://www.w3.org/2000/svg" viewBox="0 0 256.30554 48.02979"><defs><style>.a{opacity:0.3;}.b{fill:#ef1da9;}</style></defs><g class="a"><path class="b" d="M1.10566,43.3233c.79151.96436,2.15674,1.05762,3.44922,1.21875A4.235,4.235,0,0,0,1.10566,43.3233Z"/><path class="b" d="M4.58027,44.56256a.13927.13927,0,0,1,.02-.01269.28283.28283,0,0,1-.04541-.00782A.2416.2416,0,0,1,4.58027,44.56256Z"/><path class="b" d="M255.34785,1.36334c-.323.01856-.69092.0376-1.064.06006A3.13762,3.13762,0,0,0,255.34785,1.36334Z"/><path class="b" d="M67.1833,47.337l.19678-1.59814c3.0664-.02344.89306,1.82861,3.728,1.43408,1.10889-2.26123,4.709.23438,5.689-.96728-.02246.17968,1.36572.248,1.27783.95556.42529-1.22754,1.42774-.28515,2.30322-.59863.31739-.34131-.23242-.36719-.46972-.7373l2.00537-.4336c.78418.395.97705,1.11768.125,1.251,5.24121.43994,30.4043,1.61621,36.05029,1.00342-.72558-.92725-2.46875-.30078-3.13086-1.75879,1.49219-.81738,2.19776.28564,2.85547-.57324.57275,2.16845,3.28027.519,4.41065,2.71582l.42822-1.22852.7417.752c6.56494-1.27881,1.5-.624,7.31982-.33447,3.36792-.189,4.96826-1.89355,6.84253-1.26562-.27856-.0127-1.02124-.76514-.14893-1.07862.14893,1.07862,2.32276-.77441,2.74781.31543.85473-.13623,3.62329.00293,2.68628-1.47217.47.73584,2.94018,1.0376,1.46972,1.67676a4.4972,4.4972,0,0,0,2.24048-.06543l-1.07007-.41113c2.81446-.21436,4.34815.92773,6.18116-.40674l-1.04-.58642c1.68261-.09327,3.08984-.20362,3.75049,1.25537L152.646,45.629a19.86542,19.86542,0,0,0,6.79931-.91016l-.83032-.04c2.96314-1.45752,18.46387-2.66162,21.19434-4.4873l-1.25757-1.13282,2.3479-.95361c-.27783-.01367-1.13306,3.67822-1.36572,3.3086,5.031-.10547,31.20141-.98438,35.84814-.22071,1.87476.62744.33716,1.79834.31592,1.97754,2.28149-.42285.98413-1.20117,2.92407-1.104.52954.2041-.10986.88818-.40771,1.0498.85034-.13428,1.63867.2583,1.70361-.271-1.063-.41065-.613-1.81543-1.063-2.728l2.49512.12158-.1106.88721c.5564.02685,1.41089-2.42578,3.86206-1.94873,4.13526.38379,8.62671.07275,12.78491.27832-.06469.53174-.93774.84619-1.813,1.1582.55761.02734,1.40722-.10889,1.92065.27344-1.00415-.93994,1.74512-.626.96-1.022,3.04566-2.16846,6.98609-.188,9.67456-1.65967.23511-1.9502,5.75684-33.50147,5.75684-35.82032a5.25865,5.25865,0,0,1,1.91992.27491c-.21533-.54541-1.856-.80567-2.728-.49366l-.15014,1.24268c-2.0066.436-.47022-.73779-2.42847-.65381-.10449-1.0166,1.698-1.23437,3.28516-1.332-1.4292-.11816-2.85254-.85937-3.43457.25391-1.343-.42334.14941-1.24268-1.46851-1.67774-1.1521.29932-2.66553,1.29444-3.98926.69287l.02344-.1792c-3.21777-1.0498-4.92334,1.542-7.86353.50391l.31665-.33984c-1.0393-.58838-3.0852.20215-4.96-.4253.53467.20508.99951.94092-.12768,1.062-2.15576-.64112-3.62622,0-5.20191-.792l-1.51245.99561C218.561,1.3233,188.916,2.73883,181.37666,2.898l.29541-.15918c-11.48706.49756-35.06763.42041-46.93994,1.79248-1.83594-.98-4.36865-.74951-6.28418-1.02392,1.06543.40869.70068,1.104-.13135,1.064-5.83643-.11279-.39355.67773-6.29687,1.09668-6.79688.91162-32.80957-.126-38.84327-.96143-3.24121,1.44483-7.28711.35205-10.4624,1.26563l.31983-.34082c-3.41016.54394-22.71387-.79492-26.67774-.27832l.53272.20654c-3.45606.89746-2.98536-.68359-5.7085-1.17627.35742,1.62158-2.604,2.54151-3.7334,2.66406l.04248-.35449c-1.70312.273-5.561,1.68115-8.374,1.89844l.10986-.88721c-2.3457.95313-6.75635.55713-8.44238.65039-3.85547-.36718-9.80176-1.91113-14.95752-.73925L2.49482,5.08746l-.48779.251S-3.35674,35.8653,3.45234,42.36725l-.1084.88476,1.3462-.11425c1.61572.436,2.3623-.59034,2.25293.29345l-2.2129-.10791c1.62256.25635.48975.72559-.12988,1.22657a5.85016,5.85016,0,0,1,1.875.46337c.31934-.34033-.23535-.36718-.48779-.55957.87305-.312,2.08838-1.144,3.15137-.73584,1.66211.0835.106,1.4336,2.04541,1.52979,10.22705.68457,20.13672,1.71094,30.47363,1.51123.23486.36719-.04541.354-.34375.519,3.11426-.38232,5.88232-.24414,8.71777-.64013a2.812,2.812,0,0,1,1.23584,1.30957C50.79951,47.21246,66.92793,47.14508,67.1833,47.337Z"/></g></svg>