<svg xmlns="http://www.w3.org/2000/svg" viewBox="0 0 256.30554 48.02979"><defs><style>.a{opacity:0.3;}.b{fill:#1de1a5;}</style></defs><g class="a"><path class="b" d="M1.1058,43.3233c.79141.96436,2.15671,1.05762,3.44916,1.21875A4.23508,4.23508,0,0,0,1.1058,43.3233Z"/><path class="b" d="M4.58027,44.56256a.142.142,0,0,1,.02-.01269.2874.2874,0,0,1-.04532-.00782A.29279.29279,0,0,1,4.58027,44.56256Z"/><path class="b" d="M255.34779,1.36334c-.32288.01856-.69077.0376-1.064.06006A3.1373,3.1373,0,0,0,255.34779,1.36334Z"/><path class="b" d="M67.18339,47.337l.19692-1.59814c3.06626-.02344.89268,1.82861,3.72765,1.43408,1.109-2.26123,4.70911.23438,5.689-.96728-.02219.17968,1.36592.248,1.27809.95556.42508-1.22754,1.42779-.28515,2.30329-.59863.31725-.34131-.23287-.36719-.4701-.7373l2.00542-.4336c.78423.395.97739,1.11768.125,1.251,5.2411.43994,30.40419,1.61621,36.05037,1.00342-.72578-.92725-2.46864-.30078-3.131-1.75879,1.4925-.81738,2.19765.28564,2.8556-.57324.57293,2.16845,3.28037.519,4.41061,2.71582l.42821-1.22852.74172.752c6.56481-1.27881,1.5-.624,7.31966-.33447,3.3682-.189,4.96854-1.89355,6.84268-1.26562-.27849-.0127-1.02115-.76514-.14878-1.07862.14878,1.07862,2.32268-.77441,2.74776.31543.85456-.13623,3.62326.00293,2.68619-1.47217.4701.73584,2.9403,1.0376,1.46968,1.67676a4.49711,4.49711,0,0,0,2.24047-.06543L145.482,44.918c2.81434-.21436,4.3481.92773,6.181-.40674l-1.0399-.58642c1.68254-.09327,3.08971-.20362,3.75047,1.25537L152.646,45.629a19.86432,19.86432,0,0,0,6.79924-.91016l-.83018-.04c2.96312-1.45752,18.46387-2.66162,21.19413-4.4873l-1.25745-1.13282,2.348-.95361c-.27787-.01367-1.133,3.67822-1.36591,3.3086,5.031-.10547,31.20153-.98438,35.84813-.22071,1.87477.62744.33726,1.79834.316,1.97754,2.28141-.42285.98426-1.20117,2.924-1.104.52949.2041-.10971.88818-.40758,1.0498.85018-.13428,1.63847.2583,1.70348-.271-1.063-.41065-.61294-1.81543-1.063-2.728l2.49521.12158-.11065.88721c.55636.02685,1.41092-2.42578,3.86206-1.94873,4.13524.38379,8.6268.07275,12.78486.27832-.0647.53174-.93769.84619-1.81288,1.1582.55762.02734,1.40717-.10889,1.92072.27344-1.00427-.93994,1.74505-.626.95988-1.022,3.04564-2.16846,6.98616-.188,9.67453-1.65967.23505-1.9502,5.75683-33.50147,5.75683-35.82032a5.25987,5.25987,0,0,1,1.92009.27491c-.21536-.54541-1.856-.80567-2.72807-.49366l-.15035,1.24268c-2.00635.436-.4701-.73779-2.42832-.65381-.10439-1.0166,1.69786-1.23437,3.28507-1.332-1.429-.11816-2.85247-.85937-3.43447.25391-1.3431-.42334.1494-1.24268-1.46843-1.67774-1.15212.29932-2.66556,1.29444-3.98928.69287l.02345-.1792c-3.21787-1.0498-4.92353,1.542-7.86353.50391l.31663-.33984c-1.03928-.58838-3.08533.20215-4.9601-.4253.5348.20508.99958.94092-.12752,1.062-2.15577-.64112-3.62639,0-5.202-.792l-1.51251.99561c-7.505-.19434-37.15,1.22119-44.68935,1.38037l.29537-.15918c-11.48709.49756-35.06766.42041-46.93983,1.79248-1.836-.98-4.36873-.74951-6.28413-1.02392,1.06522.40869.70046,1.104-.13128,1.064-5.83684-.11279-.39383.67773-6.29694,1.09668-6.797.91162-32.80968-.126-38.84344-.96143-3.241,1.44483-7.28685.35205-10.46219,1.26563l.31975-.34082c-3.41009.54394-22.71413-.79492-26.67778-.27832l.53262.20654c-3.456.89746-2.98532-.68359-5.7087-1.17627.35789,1.62158-2.60367,2.54151-3.73328,2.66406l.04282-.35449c-1.70317.273-5.56148,1.68115-8.37426,1.89844l.11-.88721c-2.34581.95313-6.75642.55713-8.44239.65039C16.92724,7.98737,10.9813,6.44342,5.82554,7.6153L2.49484,5.08746l-.4876.251S-3.35669,35.8653,3.45254,42.36725l-.10846.88476,1.34622-.11425c1.61534.436,2.36237-.59034,2.25266.29345L4.73,43.3233c1.62285.25635.48979.72559-.12971,1.22657a5.849,5.849,0,0,1,1.87477.46337c.31976-.34033-.23505-.36718-.4876-.55957.873-.312,2.08857-1.144,3.1516-.73584,1.66191.0835.106,1.4336,2.0451,1.52979,10.22715.68457,20.13672,1.71094,30.47358,1.51123.23505.36719-.045.354-.34351.519,3.1144-.38232,5.88217-.24414,8.71777-.64013a2.81054,2.81054,0,0,1,1.23556,1.30957C50.79964,47.21246,66.92771,47.14508,67.18339,47.337Z"/></g></svg>