<svg xmlns="http://www.w3.org/2000/svg" viewBox="0 0 256.30554 48.02979"><defs><style>.a{opacity:0.3;}.b{fill:#f5a21d;}</style></defs><g class="a"><path class="b" d="M1.10578,43.3233c.79151.96436,2.15674,1.05762,3.44922,1.21875A4.23525,4.23525,0,0,0,1.10578,43.3233Z"/><path class="b" d="M4.58039,44.56256a.1362.1362,0,0,1,.01978-.01269.28437.28437,0,0,1-.04517-.00782A.306.306,0,0,1,4.58039,44.56256Z"/><path class="b" d="M255.34773,1.36334c-.32276.01856-.69068.0376-1.064.06006A3.137,3.137,0,0,0,255.34773,1.36334Z"/><path class="b" d="M67.18342,47.337l.19678-1.59814c3.0664-.02344.89282,1.82861,3.72778,1.43408,1.10889-2.26123,4.709.23438,5.689-.96728-.02222.17968,1.366.248,1.27807.95556.425-1.22754,1.42774-.28515,2.30323-.59863.31738-.34131-.23267-.36719-.47-.7373l2.00538-.4336c.78418.395.97729,1.11768.125,1.251,5.24121.43994,30.40429,1.61621,36.05029,1.00342-.72559-.92725-2.46851-.30078-3.13086-1.75879,1.49243-.81738,2.19775.28564,2.85571-.57324.57276,2.16845,3.28028.519,4.4104,2.71582l.42823-1.22852.74169.752c6.56495-1.27881,1.5-.624,7.31983-.33447,3.36816-.189,4.9685-1.89355,6.84253-1.26562-.27832-.0127-1.021-.76514-.14868-1.07862.14868,1.07862,2.32275-.77441,2.7478.31543.85449-.13623,3.62329.00293,2.686-1.47217.47022.73584,2.94043,1.0376,1.46973,1.67676a4.4972,4.4972,0,0,0,2.24048-.06543L145.482,44.918c2.8142-.21436,4.34814.92773,6.1809-.40674l-1.03979-.58642c1.68237-.09327,3.0896-.20362,3.75049,1.25537l-1.72754.44873a19.86312,19.86312,0,0,0,6.79907-.91016l-.83008-.04c2.96314-1.45752,18.46387-2.66162,21.19409-4.4873l-1.25732-1.13282,2.3479-.95361c-.27783-.01367-1.13306,3.67822-1.366,3.3086,5.031-.10547,31.20166-.98438,35.84815-.22071,1.87475.62744.33716,1.79834.31592,1.97754,2.28149-.42285.98437-1.20117,2.92407-1.104.52954.2041-.10962.88818-.40747,1.0498.85009-.13428,1.63842.2583,1.70337-.271-1.063-.41065-.6128-1.81543-1.063-2.728l2.49512.12158-.1106.88721c.5564.02685,1.41089-2.42578,3.86206-1.94873,4.13525.38379,8.62695.07275,12.78491.27832-.0647.53174-.93774.84619-1.81274,1.1582.55762.02734,1.407-.10889,1.92065.27344-1.00439-.93994,1.74512-.626.95972-1.022,3.04565-2.16846,6.98633-.188,9.67456-1.65967.23511-1.9502,5.75684-33.50147,5.75684-35.82032a5.2602,5.2602,0,0,1,1.92016.27491c-.21533-.54541-1.856-.80567-2.728-.49366l-.15039,1.24268c-2.00634.436-.47021-.73779-2.42822-.65381-.10449-1.0166,1.69775-1.23437,3.28491-1.332-1.429-.11816-2.85254-.85937-3.43432.25391-1.34326-.42334.14941-1.24268-1.46851-1.67774-1.1521.29932-2.66553,1.29444-3.98926.69287l.02344-.1792c-3.21777-1.0498-4.92358,1.542-7.86352.50391l.31665-.33984C236.82893.08893,234.78279.87946,232.908.252c.53491.20508.99976.94092-.12744,1.062-2.15576-.64112-3.62647,0-5.20215-.792l-1.51245.99561c-7.50488-.19434-37.1499,1.22119-44.68921,1.38037l.29517-.15918c-11.48706.49756-35.06763.42041-46.9397,1.79248-1.83594-.98-4.36865-.74951-6.28418-1.02392,1.06519.40869.70044,1.104-.13135,1.064-5.83667-.11279-.3938.67773-6.29687,1.09668-6.79712.91162-32.80957-.126-38.84351-.96143-3.241,1.44483-7.28686.35205-10.46216,1.26563l.31983-.34082c-3.41016.54394-22.71411-.79492-26.67774-.27832l.53247.20654c-3.456.89746-2.98535-.68359-5.70849-1.17627.35766,1.62158-2.60376,2.54151-3.7334,2.66406l.04272-.35449c-1.70312.273-5.56128,1.68115-8.37426,1.89844l.1101-.88721c-2.3457.95313-6.75634.55713-8.44238.65039-3.85571-.36718-9.80176-1.91113-14.95752-.73925L2.49494,5.08746l-.48779.251S-3.35662,35.8653,3.45246,42.36725l-.10839.88476,1.34619-.11425c1.61548.436,2.3623-.59034,2.25268.29345L4.73005,43.3233c1.6228.25635.48975.72559-.12988,1.22657a5.85023,5.85023,0,0,1,1.875.46337c.31958-.34033-.23511-.36718-.48779-.55957.873-.312,2.08862-1.144,3.15161-.73584,1.66186.0835.106,1.4336,2.04516,1.52979,10.22705.68457,20.13672,1.71094,30.47364,1.51123.2351.36719-.04517.354-.34351.519,3.11426-.38232,5.88208-.24414,8.71777-.64013a2.81119,2.81119,0,0,1,1.2356,1.30957C50.79963,47.21246,66.92781,47.14508,67.18342,47.337Z"/></g></svg>