<svg xmlns="http://www.w3.org/2000/svg" viewBox="0 0 256.30554 48.02979"><defs><style>.a{opacity:0.3;}.b{fill:#f8d81d;}</style></defs><g class="a"><path class="b" d="M1.10579,43.3233c.79151.96436,2.15674,1.05762,3.44922,1.21875A4.23525,4.23525,0,0,0,1.10579,43.3233Z"/><path class="b" d="M4.58016,44.56256a.15325.15325,0,0,1,.02-.01269.28417.28417,0,0,1-.04517-.00782A.2666.2666,0,0,1,4.58016,44.56256Z"/><path class="b" d="M255.34773,1.36334c-.32275.01856-.69067.0376-1.064.06006A3.13691,3.13691,0,0,0,255.34773,1.36334Z"/><path class="b" d="M67.18343,47.337l.19678-1.59814c3.0664-.02344.89282,1.82861,3.72778,1.43408,1.10889-2.26123,4.709.23438,5.689-.96728-.02221.17968,1.366.248,1.27808.95556.425-1.22754,1.42773-.28515,2.30322-.59863.31739-.34131-.23266-.36719-.47-.7373l2.00537-.4336c.78418.395.9773,1.11768.125,1.251,5.24121.43994,30.4043,1.61621,36.0503,1.00342-.72559-.92725-2.46851-.30078-3.13086-1.75879,1.49243-.81738,2.19775.28564,2.85571-.57324.57275,2.16845,3.28027.519,4.4104,2.71582l.42822-1.22852.7417.752c6.56494-1.27881,1.5-.624,7.31983-.33447,3.36816-.189,4.9685-1.89355,6.84253-1.26562-.27833-.0127-1.021-.76514-.14869-1.07862.14869,1.07862,2.32276-.77441,2.74781.31543.85449-.13623,3.62329.00293,2.686-1.47217.47022.73584,2.94043,1.0376,1.46973,1.67676a4.49721,4.49721,0,0,0,2.24048-.06543L145.482,44.918c2.81421-.21436,4.34815.92773,6.18091-.40674l-1.03979-.58642c1.68237-.09327,3.0896-.20362,3.75048,1.25537l-1.72754.44873a19.86321,19.86321,0,0,0,6.79908-.91016l-.83008-.04c2.96313-1.45752,18.46387-2.66162,21.19409-4.4873l-1.25757-1.13282,2.34815-.95361c-.27784-.01367-1.13306,3.67822-1.366,3.3086,5.031-.10547,31.20166-.98438,35.84814-.22071,1.87476.62744.33716,1.79834.31592,1.97754,2.2815-.42285.98438-1.20117,2.92407-1.104.52955.2041-.10961.88818-.40747,1.0498.8501-.13428,1.63843.2583,1.70337-.271-1.063-.41065-.61279-1.81543-1.063-2.728l2.49512.12158-.11059.88721c.55639.02685,1.41089-2.42578,3.86206-1.94873,4.13525.38379,8.62695.07275,12.78491.27832-.0647.53174-.93775.84619-1.813,1.1582.55762.02734,1.40723-.10889,1.9209.27344-1.0044-.93994,1.74487-.626.95972-1.022,3.04565-2.16846,6.98632-.188,9.67456-1.65967.2351-1.9502,5.75683-33.50147,5.75683-35.82032a5.26026,5.26026,0,0,1,1.92017.27491c-.21533-.54541-1.856-.80567-2.728-.49366l-.15039,1.24268c-2.00635.436-.47021-.73779-2.42822-.65381-.10449-1.0166,1.69775-1.23437,3.28491-1.332-1.429-.11816-2.85254-.85937-3.43433.25391-1.34326-.42334.14942-1.24268-1.4685-1.67774-1.1521.29932-2.66553,1.29444-3.98926.69287l.02344-.1792c-3.21778-1.0498-4.92359,1.542-7.86353.50391l.31665-.33984c-1.0393-.58838-3.08545.20215-4.9602-.4253.53491.20508.99975.94092-.12744,1.062-2.15577-.64112-3.62647,0-5.20215-.792l-1.51245.99561c-7.50489-.19434-37.14991,1.22119-44.68921,1.38037l.29516-.15918c-11.48706.49756-35.06762.42041-46.93969,1.79248-1.83594-.98-4.36866-.74951-6.28418-1.02392,1.06518.40869.70044,1.104-.13135,1.064-5.83667-.11279-.3938.67773-6.29688,1.09668-6.79712.91162-32.80957-.126-38.8435-.96143-3.241,1.44483-7.28687.35205-10.46216,1.26563l.31982-.34082c-3.41015.54394-22.71411-.79492-26.67773-.27832l.53247.20654C43.4327,6.45709,43.9034,4.876,41.18,4.38336c.35791,1.62158-2.60352,2.54151-3.73315,2.66406l.04272-.35449c-1.70312.273-5.56128,1.68115-8.37427,1.89844l.11011-.88721c-2.3457.95313-6.75635.55713-8.44238.65039-3.85572-.36718-9.80176-1.91113-14.95752-.73925L2.49495,5.08746l-.48779.251S-3.35661,35.8653,3.45247,42.36725l-.1084.88476,1.34619-.11425c1.61548.436,2.36231-.59034,2.25269.29345L4.73006,43.3233c1.6228.25635.48975.72559-.12988,1.22657a5.847,5.847,0,0,1,1.87475.46337c.31983-.34033-.23486-.36718-.48755-.55957.87305-.312,2.08863-1.144,3.15161-.73584,1.66187.0835.106,1.4336,2.04517,1.52979,10.22705.68457,20.13672,1.71094,30.47363,1.51123.23511.36719-.04516.354-.3435.519,3.11426-.38232,5.88208-.24414,8.71777-.64013a2.81119,2.81119,0,0,1,1.2356,1.30957C50.79964,47.21246,66.92781,47.14508,67.18343,47.337Z"/></g></svg>