<svg xmlns="http://www.w3.org/2000/svg" viewBox="0 0 256.30554 48.02979"><defs><style>.a{opacity:0.3;}.b{fill:#f11d1d;}</style></defs><g class="a"><path class="b" d="M1.1057,43.3233c.7915.96436,2.15674,1.05762,3.44922,1.21875A4.235,4.235,0,0,0,1.1057,43.3233Z"/><path class="b" d="M4.58031,44.56256a.13872.13872,0,0,1,.02-.01269.2872.2872,0,0,1-.04541-.00782A.30765.30765,0,0,1,4.58031,44.56256Z"/><path class="b" d="M255.34789,1.36334c-.323.01856-.69092.0376-1.064.06006A3.13769,3.13769,0,0,0,255.34789,1.36334Z"/><path class="b" d="M67.18333,47.337l.197-1.59814c3.06616-.02344.89257,1.82861,3.72753,1.43408,1.10914-2.26123,4.70923.23438,5.689-.96728-.022.17968,1.366.248,1.27808.95556.42529-1.22754,1.428-.28515,2.30346-.59863.31714-.34131-.23291-.36719-.47021-.7373l2.00537-.4336c.78442.395.97754,1.11768.12524,1.251,5.241.43994,30.40406,1.61621,36.0503,1.00342-.72583-.92725-2.46875-.30078-3.13111-1.75879,1.49268-.81738,2.19776.28564,2.85572-.57324.573,2.16845,3.28027.519,4.41064,2.71582l.42822-1.22852.7417.752c6.5647-1.27881,1.5-.624,7.31958-.33447,3.36817-.189,4.96851-1.89355,6.84278-1.26562-.27857-.0127-1.02124-.76514-.14893-1.07862.14893,1.07862,2.32275-.77441,2.7478.31543.85449-.13623,3.62329.00293,2.68628-1.47217.47.73584,2.94019,1.0376,1.46973,1.67676a4.49721,4.49721,0,0,0,2.24048-.06543l-1.07007-.41113c2.81445-.21436,4.34814.92773,6.18115-.40674l-1.04-.58642c1.68262-.09327,3.08985-.20362,3.75049,1.25537L152.646,45.629a19.86545,19.86545,0,0,0,6.79932-.91016l-.83033-.04c2.96314-1.45752,18.46387-2.66162,21.1941-4.4873l-1.25733-1.13282,2.3479-.95361c-.27783-.01367-1.133,3.67822-1.366,3.3086,5.03125-.10547,31.20166-.98438,35.84814-.22071,1.87476.62744.3374,1.79834.31616,1.97754,2.28125-.42285.98413-1.20117,2.92407-1.104.5293.2041-.10986.88818-.40771,1.0498.85034-.13428,1.63843.2583,1.70361-.271-1.06323-.41065-.613-1.81543-1.06323-2.728l2.49536.12158-.11059.88721c.55639.02685,1.41089-2.42578,3.86206-1.94873,4.13525.38379,8.62671.07275,12.78467.27832-.0647.53174-.9375.84619-1.81275,1.1582.55762.02734,1.40723-.10889,1.92066.27344-1.00416-.93994,1.74511-.626.96-1.022,3.04565-2.16846,6.98608-.188,9.67456-1.65967.23486-1.9502,5.75683-33.50147,5.75683-35.82032a5.25861,5.25861,0,0,1,1.91992.27491c-.21533-.54541-1.856-.80567-2.728-.49366L253.427,3.40924c-2.00635.436-.47-.73779-2.42823-.65381-.10449-1.0166,1.69776-1.23437,3.28516-1.332-1.4292-.11816-2.85254-.85937-3.43457.25391-1.343-.42334.14941-1.24268-1.46851-1.67774-1.1521.29932-2.66552,1.29444-3.98925.69287l.02343-.1792c-3.21777-1.0498-4.92358,1.542-7.86352.50391l.31665-.33984c-1.03931-.58838-3.08521.20215-4.96-.4253.53467.20508.99951.94092-.12769,1.062-2.15576-.64112-3.62622,0-5.2019-.792l-1.51245.99561C218.561,1.3233,188.916,2.73883,181.37669,2.898l.29541-.15918c-11.48706.49756-35.06762.42041-46.93994,1.79248-1.83594-.98-4.36865-.74951-6.28418-1.02392,1.06543.40869.70069,1.104-.1311,1.064-5.83691-.11279-.3938.67773-6.29712,1.09668-6.79687.91162-32.80957-.126-38.84326-.96143-3.241,1.44483-7.28687.35205-10.46216,1.26563l.31958-.34082c-3.40991.54394-22.71411-.79492-26.67773-.27832l.53271.20654c-3.456.89746-2.98535-.68359-5.70874-1.17627.35791,1.62158-2.60376,2.54151-3.7334,2.66406l.043-.35449c-1.70312.273-5.56152,1.68115-8.37427,1.89844l.10987-.88721c-2.34571.95313-6.75635.55713-8.44239.65039-3.85571-.36718-9.80175-1.91113-14.95752-.73925L2.49486,5.08746l-.48755.251S-3.3567,35.8653,3.45262,42.36725L3.344,43.252l1.34643-.11425c1.61524.436,2.36231-.59034,2.25245.29345L4.73,43.3233c1.6228.25635.48974.72559-.12964,1.22657a5.85028,5.85028,0,0,1,1.87475.46337c.31983-.34033-.23511-.36718-.48755-.55957.87281-.312,2.08838-1.144,3.15161-.73584,1.66187.0835.106,1.4336,2.04493,1.52979,10.22729.68457,20.13672,1.71094,30.47363,1.51123.23511.36719-.04492.354-.34351.519,3.11451-.38232,5.88208-.24414,8.71778-.64013a2.81122,2.81122,0,0,1,1.23559,1.30957C50.79955,47.21246,66.92772,47.14508,67.18333,47.337Z"/></g></svg>