<svg xmlns="http://www.w3.org/2000/svg" viewBox="0 0 256.30554 48.02979"><defs><style>.a{opacity:0.3;}.b{fill:#1d6de1;}</style></defs><g class="a"><path class="b" d="M1.10581,43.3233c.79139.96436,2.15674,1.05762,3.4491,1.21875A4.235,4.235,0,0,0,1.10581,43.3233Z"/><path class="b" d="M4.5803,44.56256a.13927.13927,0,0,1,.02-.01269.29.29,0,0,1-.04541-.00782A.30765.30765,0,0,1,4.5803,44.56256Z"/><path class="b" d="M255.34776,1.36334c-.32288.01856-.6908.0376-1.064.06006A3.13733,3.13733,0,0,0,255.34776,1.36334Z"/><path class="b" d="M67.18333,47.337l.197-1.59814c3.06616-.02344.8927,1.82861,3.72766,1.43408,1.10889-2.26123,4.70911.23438,5.689-.96728-.02222.17968,1.36584.248,1.27807.95556.425-1.22754,1.42774-.28515,2.30335-.59863.31714-.34131-.23291-.36719-.47022-.7373l2.00549-.4336c.78418.395.97742,1.11768.125,1.251,5.24109.43994,30.40418,1.61621,36.05042,1.00342-.72583-.92725-2.46863-.30078-3.131-1.75879,1.49243-.81738,2.19763.28564,2.85559-.57324.57288,2.16845,3.28039.519,4.41064,2.71582l.4281-1.22852.74183.752c6.56482-1.27881,1.5-.624,7.31958-.33447,3.36828-.189,4.96862-1.89355,6.84277-1.26562-.27857-.0127-1.02124-.76514-.1488-1.07862.1488,1.07862,2.32263-.77441,2.74768.31543.85461-.13623,3.62329.00293,2.68628-1.47217.47009.73584,2.9403,1.0376,1.4696,1.67676a4.49707,4.49707,0,0,0,2.24048-.06543l-1.07-.41113c2.81446-.21436,4.34815.92773,6.181-.40674l-1.03991-.58642c1.68261-.09327,3.08972-.20362,3.75048,1.25537L152.646,45.629a19.86433,19.86433,0,0,0,6.7992-.91016l-.83008-.04c2.963-1.45752,18.46387-2.66162,21.19409-4.4873l-1.25744-1.13282,2.348-.95361c-.278-.01367-1.13306,3.67822-1.366,3.3086,5.031-.10547,31.20154-.98438,35.84815-.22071,1.87475.62744.33728,1.79834.316,1.97754,2.28137-.42285.98425-1.20117,2.92395-1.104.52954.2041-.10962.88818-.4076,1.0498.85022-.13428,1.63855.2583,1.7035-.271-1.063-.41065-.61292-1.81543-1.063-2.728l2.49524.12158-.11072.88721c.5564.02685,1.411-2.42578,3.86206-1.94873,4.13525.38379,8.62683.07275,12.78491.27832-.0647.53174-.93774.84619-1.81287,1.1582.55762.02734,1.40711-.10889,1.92066.27344-1.00427-.93994,1.74512-.626.96-1.022,3.04565-2.16846,6.98608-.188,9.67444-1.65967.23511-1.9502,5.75683-33.50147,5.75683-35.82032a5.26022,5.26022,0,0,1,1.92017.27491c-.21533-.54541-1.85608-.80567-2.72815-.49366l-.15027,1.24268c-2.00634.436-.47009-.73779-2.42834-.65381-.10437-1.0166,1.69787-1.23437,3.285-1.332-1.42908-.11816-2.85241-.85937-3.43445.25391C249.5062,1.254,250.99876.43463,249.381-.00043c-1.1521.29932-2.66565,1.29444-3.98926.69287l.02344-.1792c-3.2179-1.0498-4.92358,1.542-7.86353.50391l.31653-.33984C236.829.08893,234.78282.87946,232.90806.252c.53479.20508.99963.94092-.12744,1.062-2.15576-.64112-3.62647,0-5.202-.792l-1.51257.99561c-7.505-.19434-37.1499,1.22119-44.68933,1.38037l.29541-.15918c-11.48718.49756-35.06775.42041-46.93982,1.79248-1.83606-.98-4.36878-.74951-6.28418-1.02392,1.06518.40869.70044,1.104-.13123,1.064-5.83691-.11279-.39392.67773-6.297,1.09668-6.797.91162-32.8097-.126-38.84351-.96143-3.241,1.44483-7.28674.35205-10.46216,1.26563l.31983-.34082c-3.41016.54394-22.71424-.79492-26.67786-.27832l.53259.20654c-3.45593.89746-2.98523-.68359-5.70862-1.17627.35791,1.62158-2.60363,2.54151-3.73327,2.66406l.04284-.35449c-1.70324.273-5.56152,1.68115-8.37426,1.89844l.11-.88721c-2.34582.95313-6.75647.55713-8.44238.65039C16.92722,7.98737,10.9813,6.44342,5.82554,7.6153L2.49485,5.08746l-.48767.251S-3.35671,35.8653,3.45249,42.36725l-.1084.88476,1.3462-.11425c1.61535.436,2.36242-.59034,2.25268.29345L4.73,43.3233c1.62292.25635.48987.72559-.12964,1.22657a5.84955,5.84955,0,0,1,1.87476.46337c.3197-.34033-.23511-.36718-.48767-.55957.873-.312,2.08862-1.144,3.15161-.73584,1.662.0835.106,1.4336,2.04516,1.52979,10.22718.68457,20.13672,1.71094,30.47351,1.51123.23511.36719-.04492.354-.3435.519,3.11438-.38232,5.8822-.24414,8.71777-.64013a2.81056,2.81056,0,0,1,1.2356,1.30957C50.79966,47.21246,66.92771,47.14508,67.18333,47.337Z"/></g></svg>