<svg xmlns="http://www.w3.org/2000/svg" viewBox="0 0 256.30554 48.02979"><defs><style>.a{opacity:0.3;}.b{fill:#3f1de8;}</style></defs><g class="a"><path class="b" d="M1.10582,43.3233c.7915.96436,2.15673,1.05762,3.44921,1.21875A4.23552,4.23552,0,0,0,1.10582,43.3233Z"/><path class="b" d="M4.58042,44.56256a.11661.11661,0,0,1,.02-.01269.28283.28283,0,0,1-.04541-.00782C4.5648,44.55133,4.57261,44.55377,4.58042,44.56256Z"/><path class="b" d="M255.348,1.36334c-.32324.01856-.69092.0376-1.064.06006A3.138,3.138,0,0,0,255.348,1.36334Z"/><path class="b" d="M67.18345,47.337l.19678-1.59814c3.06641-.02344.89258,1.82861,3.72754,1.43408,1.10937-2.26123,4.70947.23438,5.689-.96728-.022.17968,1.36621.248,1.27832.95556.4253-1.22754,1.42774-.28515,2.30323-.59863.31738-.34131-.23291-.36719-.47022-.7373l2.00537-.4336c.78467.395.97754,1.11768.12549,1.251,5.24072.43994,30.40381,1.61621,36.05029,1.00342-.72607-.92725-2.46875-.30078-3.13134-1.75879,1.49267-.81738,2.19775.28564,2.856-.57324.57276,2.16845,3.28028.519,4.41065,2.71582l.42822-1.22852.7417.752c6.56445-1.27881,1.5-.624,7.31934-.33447,3.36816-.189,4.96875-1.89355,6.84277-1.26562-.27832-.0127-1.021-.76514-.14893-1.07862.14893,1.07862,2.32276-.77441,2.74805.31543.85449-.13623,3.62305.00293,2.686-1.47217.47021.73584,2.94042,1.0376,1.46972,1.67676a4.49816,4.49816,0,0,0,2.24072-.06543l-1.07031-.41113c2.81445-.21436,4.34815.92773,6.18115-.40674l-1.04-.58642c1.68261-.09327,3.08984-.20362,3.75048,1.25537l-1.72754.44873a19.86459,19.86459,0,0,0,6.79932-.91016l-.83008-.04c2.96289-1.45752,18.46387-2.66162,21.19385-4.4873l-1.25732-1.13282,2.34814-.95361c-.27783-.01367-1.1333,3.67822-1.36621,3.3086,5.03125-.10547,31.20166-.98438,35.84814-.22071,1.875.62744.33741,1.79834.31641,1.97754,2.28125-.42285.98389-1.20117,2.92383-1.104.5293.2041-.10986.88818-.40772,1.0498.85059-.13428,1.63868.2583,1.70362-.271-1.063-.41065-.6128-1.81543-1.063-2.728l2.49512.12158-.11036.88721c.55616.02685,1.41065-2.42578,3.86182-1.94873,4.13525.38379,8.627.07275,12.78467.27832-.06445.53174-.9375.84619-1.8125,1.1582.55762.02734,1.40723-.10889,1.92041.27344-1.00391-.93994,1.74512-.626.96-1.022,3.0459-2.16846,6.98633-.188,9.6748-1.65967.23487-1.9502,5.75684-33.50147,5.75684-35.82032a5.25962,5.25962,0,0,1,1.91992.27491c-.21533-.54541-1.856-.80567-2.728-.49366l-.15039,1.24268c-2.00634.436-.47021-.73779-2.42822-.65381-.10449-1.0166,1.69776-1.23437,3.28516-1.332-1.4292-.11816-2.85254-.85937-3.43457.25391-1.34326-.42334.14941-1.24268-1.46875-1.67774-1.15186.29932-2.66553,1.29444-3.98926.69287l.02344-.1792c-3.21778-1.0498-4.92334,1.542-7.86328.50391l.3164-.33984c-1.03906-.58838-3.085.20215-4.96-.4253.53467.20508.99951.94092-.12744,1.062-2.15576-.64112-3.62646,0-5.20215-.792l-1.51221.99561c-7.50537-.19434-37.15039,1.22119-44.68945,1.38037l.29541-.15918c-11.4873.49756-35.06787.42041-46.93994,1.79248-1.83594-.98-4.36865-.74951-6.28418-1.02392,1.06543.40869.70068,1.104-.13135,1.064-5.83691-.11279-.39355.67773-6.29687,1.09668-6.79688.91162-32.80957-.126-38.84326-.96143-3.24121,1.44483-7.28711.35205-10.46241,1.26563l.31983-.34082c-3.41016.54394-22.71436-.79492-26.67774-.27832l.53272.20654C43.433,6.45709,43.90367,4.876,41.18,4.38336c.35791,1.62158-2.60351,2.54151-3.73339,2.66406l.043-.35449c-1.70312.273-5.56152,1.68115-8.374,1.89844l.10986-.88721c-2.3457.95313-6.75634.55713-8.44238.65039-3.856-.36718-9.80176-1.91113-14.95752-.73925L2.495,5.08746l-.4878.251S-3.35659,35.8653,3.45249,42.36725L3.3441,43.252l1.34619-.11425c1.61523.436,2.3623-.59034,2.25244.29345L4.72984,43.3233c1.62305.25635.48974.72559-.1294,1.22657a5.85046,5.85046,0,0,1,1.87452.46337c.31982-.34033-.23487-.36718-.48731-.55957.87256-.312,2.08838-1.144,3.15137-.73584,1.66211.0835.106,1.4336,2.04492,1.52979,10.22754.68457,20.13672,1.71094,30.47363,1.51123.23535.36719-.04492.354-.34326.519,3.11426-.38232,5.88184-.24414,8.71777-.64013a2.81042,2.81042,0,0,1,1.23536,1.30957C50.79966,47.21246,66.92759,47.14508,67.18345,47.337Z"/></g></svg>