<svg xmlns="http://www.w3.org/2000/svg" viewBox="0 0 256.30554 48.02979"><defs><style>.a{opacity:0.3;}.b{fill:#fafa1d;}</style></defs><g class="a"><path class="b" d="M1.10579,43.3233c.79138.96436,2.15674,1.05762,3.44922,1.21875A4.23525,4.23525,0,0,0,1.10579,43.3233Z"/><path class="b" d="M4.58028,44.56256a.13872.13872,0,0,1,.02-.01269.286.286,0,0,1-.04529-.00782A.28583.28583,0,0,1,4.58028,44.56256Z"/><path class="b" d="M255.34774,1.36334c-.32288.01856-.69068.0376-1.064.06006A3.13717,3.13717,0,0,0,255.34774,1.36334Z"/><path class="b" d="M67.18343,47.337l.1969-1.59814c3.06628-.02344.8927,1.82861,3.72766,1.43408,1.109-2.26123,4.70911.23438,5.689-.96728-.02221.17968,1.366.248,1.27808.95556.425-1.22754,1.42786-.28515,2.30335-.59863.31726-.34131-.23292-.36719-.4701-.7373l2.00537-.4336c.78418.395.97742,1.11768.125,1.251,5.24109.43994,30.40418,1.61621,36.05042,1.00342-.72583-.92725-2.46863-.30078-3.131-1.75879,1.49243-.81738,2.19763.28564,2.85559-.57324.57287,2.16845,3.28039.519,4.41064,2.71582l.42823-1.22852.74169.752c6.56482-1.27881,1.5-.624,7.31958-.33447,3.36829-.189,4.96863-1.89355,6.84278-1.26562-.27857-.0127-1.02124-.76514-.14881-1.07862.14881,1.07862,2.32264-.77441,2.74781.31543.85449-.13623,3.62317.00293,2.68615-1.47217.4701.73584,2.94031,1.0376,1.46961,1.67676a4.49707,4.49707,0,0,0,2.24048-.06543L145.482,44.918c2.81433-.21436,4.348.92773,6.18091-.40674l-1.03992-.58642c1.68262-.09327,3.08973-.20362,3.75049,1.25537L152.646,45.629a19.86351,19.86351,0,0,0,6.7992-.91016l-.83008-.04c2.96313-1.45752,18.46387-2.66162,21.19409-4.4873l-1.25745-1.13282,2.348-.95361c-.278-.01367-1.13306,3.67822-1.366,3.3086,5.03113-.10547,31.20154-.98438,35.84815-.22071,1.87475.62744.33728,1.79834.316,1.97754,2.28137-.42285.98425-1.20117,2.92407-1.104.52942.2041-.10974.88818-.4076,1.0498.8501-.13428,1.63843.2583,1.7035-.271-1.06311-.41065-.613-1.81543-1.06311-2.728l2.49523.12158-.11059.88721c.55627.02685,1.41089-2.42578,3.86194-1.94873,4.13525.38379,8.62683.07275,12.78491.27832-.0647.53174-.93774.84619-1.81287,1.1582.55762.02734,1.40723-.10889,1.92066.27344-1.00427-.93994,1.74511-.626.96-1.022,3.04565-2.16846,6.98608-.188,9.67456-1.65967.235-1.9502,5.75684-33.50147,5.75684-35.82032a5.25946,5.25946,0,0,1,1.92.27491c-.21533-.54541-1.85608-.80567-2.728-.49366l-.15039,1.24268c-2.00635.436-.47009-.73779-2.42834-.65381-.10437-1.0166,1.69787-1.23437,3.285-1.332-1.429-.11816-2.85242-.85937-3.43445.25391-1.343-.42334.14942-1.24268-1.46838-1.67774-1.1521.29932-2.66553,1.29444-3.98926.69287l.02344-.1792c-3.2179-1.0498-4.92359,1.542-7.86353.50391l.31665-.33984c-1.0393-.58838-3.08532.20215-4.9602-.4253.53491.20508.99963.94092-.12744,1.062-2.15576-.64112-3.62647,0-5.202-.792l-1.51257.99561c-7.505-.19434-37.14991,1.22119-44.68933,1.38037l.29541-.15918c-11.48706.49756-35.06763.42041-46.93982,1.79248-1.83606-.98-4.36878-.74951-6.28418-1.02392,1.06518.40869.70044,1.104-.13123,1.064-5.83691-.11279-.39392.67773-6.297,1.09668-6.797.91162-32.80969-.126-38.84338-.96143-3.24109,1.44483-7.28686.35205-10.46228,1.26563l.31982-.34082c-3.41015.54394-22.71411-.79492-26.67785-.27832l.53271.20654c-3.456.89746-2.98535-.68359-5.70874-1.17627.35791,1.62158-2.60363,2.54151-3.73327,2.66406l.04284-.35449c-1.70324.273-5.56152,1.68115-8.37426,1.89844l.11-.88721c-2.34582.95313-6.75635.55713-8.44238.65039C16.9272,7.98737,10.98128,6.44342,5.82552,7.6153L2.49483,5.08746l-.48755.251s-5.364,30.52686,1.44531,37.02881l-.10852.88476,1.34619-.11425c1.61536.436,2.36243-.59034,2.25269.29345l-2.213-.10791c1.62292.25635.48987.72559-.12964,1.22657a5.84948,5.84948,0,0,1,1.87475.46337c.31971-.34033-.2351-.36718-.48754-.55957.87292-.312,2.0885-1.144,3.15149-.73584,1.662.0835.106,1.4336,2.04516,1.52979,10.22717.68457,20.13672,1.71094,30.47351,1.51123.23511.36719-.04492.354-.3435.519,3.1145-.38232,5.8822-.24414,8.71777-.64013a2.80992,2.80992,0,0,1,1.2356,1.30957C50.79964,47.21246,66.92769,47.14508,67.18343,47.337Z"/></g></svg>