<svg xmlns="http://www.w3.org/2000/svg" xmlns:xlink="http://www.w3.org/1999/xlink" viewBox="0 0 689.34725 617.57916"><defs><style>.a{fill:url(#a);}.b{fill:url(#b);}.c{fill:url(#c);}</style><radialGradient id="a" cx="332.86994" cy="349.97752" r="74.47567" gradientUnits="userSpaceOnUse"><stop offset="0" stop-color="#e0ddff"/><stop offset="1" stop-color="#cdcfff"/></radialGradient><radialGradient id="b" cx="332.12777" cy="339.42924" r="84.80978" gradientUnits="userSpaceOnUse"><stop offset="0" stop-color="#fff"/><stop offset="1" stop-color="#eafbff"/></radialGradient><radialGradient id="c" cx="331.38696" cy="347.62968" r="40.11026" xlink:href="#a"/></defs><path class="a" d="M372.53923,284.44686c5.33536,5.04328-6.66034,16.22238-7.71781,21.05407a48.79306,48.79306,0,0,0,3.364,31.44309,45.14735,45.14735,0,0,0,20.9242,20.73409c6.66085,3.28665,14.36152,1.69155,21.33079,3.73754,4.54966,1.33858,4.84638,4.065.34963,6.1957-13.79847,6.53811-29.65336,7.06067-43.2135,14.194a160.40136,160.40136,0,0,0-43.66644,33.62016,5.18147,5.18147,0,0,1-8.92522-4.40364c1.95373-10.804,1.24587-21.42829-4.65708-30.6511-4.03037-6.29709-10.07269-11.02221-16.2601-15.219a175.81,175.81,0,0,0-38.88213-19.80022,5.18486,5.18486,0,0,1,.5712-9.94337q2.96-.67768,5.87664-1.52946c2.25984-.6602,4.73111-1.59365,5.75055-3.71579.86661-1.804.41508-3.93414-.053-5.88l-6.99779-29.091a5.19042,5.19042,0,0,1,8.03324-5.453,65.5455,65.5455,0,0,0,39.08038,11.64095c11.69324-.39317,24.5912-.457,35.63068-4.81746,6.30632-2.49093,20.88543-17.58641,28.55675-12.80661A5.69509,5.69509,0,0,1,372.53923,284.44686Z"/><path class="b" d="M312.94947,259.35776c9.61944-2.77526,20.273.84006,27.84491,7.39s12.46866,15.666,16.12966,24.98449a15.09253,15.09253,0,0,0,2.97451,5.39265c3.8142,3.7967,10.10772,2.19338,15.42264,1.34806a42.13142,42.13142,0,0,1,39.33828,15.80569c6.64221,8.756,8.84145,22.73629.48076,29.86969-2.54949,2.17524-5.78661,3.44508-8.2592,5.70736-8.22272,7.52327-4.3361,20.79611-4.16293,31.93984.20856,13.421-6.696,26.96892-18.207,33.8729s-27.29982,6.39032-37.78512-1.98973c-9.1497-7.31261-15.99056-20.52032-27.67976-19.776-6.98993.44506-12.383,6.04909-18.5864,9.301-9.63478,5.05065-21.44991,4.29963-31.70935.68272-8.30273-2.92708-16.20293-7.85835-20.95307-15.27045s-5.768-17.5672-1.01834-24.97962c4.22906-6.6,12.545-10.80775,13.98967-18.51213.72421-3.86229-.50725-7.78667-.927-11.69382-1.17628-10.948,4.958-22.23144,14.43142-27.69408,5.19088-2.99322,8.628-2.7123,12.444-7.42442C297.2421,285.31046,292.80075,265.1708,312.94947,259.35776Z"/><path class="c" d="M378.02372,340.64234c-.52066-4.63347-4.12363-9.02389-8.75751-9.54094-4.7797-.53332-9.61566,2.86269-14.19966,1.40772-5.43629-1.7255-6.74786-8.792-10.70535-12.89914-5.95709-6.18239-16.16449-4.33516-24.27246-1.51213-4.06843,1.41655-8.25718,3.07546-11.12006,6.29457s-3.92011,8.45151-1.24234,11.82616a59.70147,59.70147,0,0,0-18.94019,11.75068c-1.81791,1.672-3.61521,3.61435-4.03939,6.04756-.53663,3.07824,1.37,6.19833,3.99721,7.88988s5.83851,2.19981,8.95836,2.37309a49.78328,49.78328,0,0,0,23.04706-4.27219,20.30154,20.30154,0,0,0,28.83217,17.94263c4.66584-2.1623,8.31623-5.98839,11.84839-9.72806C368.08379,361.17739,379.258,351.6263,378.02372,340.64234Z"/></svg>