<svg xmlns="http://www.w3.org/2000/svg" xmlns:xlink="http://www.w3.org/1999/xlink" viewBox="0 0 689.34725 617.57916"><defs><style>.a{fill:url(#a);}.b{fill:url(#b);}.c{fill:url(#c);}.d{fill:url(#d);}.e{fill:url(#e);}.f{fill:url(#f);}.g{fill:url(#g);}.h{fill:url(#h);}.i{fill:url(#i);}.j{fill:url(#j);}.k{fill:url(#k);}.l{fill:url(#l);}.m{fill:url(#m);}.n{fill:url(#n);}.o{fill:url(#o);}.p{fill:url(#p);}.q{fill:url(#q);}.r{fill:url(#r);}.s{fill:url(#s);}</style><radialGradient id="a" cx="336.74341" cy="310.57088" r="227.74649" gradientUnits="userSpaceOnUse"><stop offset="0" stop-color="#fff"/><stop offset="1" stop-color="#eafbff"/></radialGradient><radialGradient id="b" cx="173.75466" cy="124.83479" r="39.9711" gradientUnits="userSpaceOnUse"><stop offset="0" stop-color="#e0ddff"/><stop offset="1" stop-color="#cdcfff"/></radialGradient><radialGradient id="c" cx="1896.70597" cy="-1678.7748" r="39.9711" gradientTransform="translate(2175.28624 2288.74437) rotate(-96.44576)" xlink:href="#b"/><radialGradient id="d" cx="582.55717" cy="94.97675" r="22.70405" xlink:href="#b"/><radialGradient id="e" cx="537.05408" cy="483.86055" r="29.80326" xlink:href="#b"/><radialGradient id="f" cx="648.65114" cy="321.92341" r="30.27389" xlink:href="#b"/><radialGradient id="g" cx="44.90053" cy="363.4606" r="27.1491" xlink:href="#b"/><radialGradient id="h" cx="78.10437" cy="253.79846" r="14.82358" xlink:href="#a"/><radialGradient id="i" cx="306.31357" cy="24.51094" r="19.00143" xlink:href="#a"/><radialGradient id="j" cx="655.41557" cy="210.33234" r="16.01341" xlink:href="#a"/><radialGradient id="k" cx="483.26635" cy="585.55186" r="22.61605" xlink:href="#a"/><radialGradient id="l" cx="60.70065" cy="552.01014" r="19.54342" xlink:href="#a"/><radialGradient id="m" cx="599.95081" cy="200.08628" r="28.777" xlink:href="#a"/><radialGradient id="n" cx="162.61633" cy="556.74807" r="30.76757" xlink:href="#a"/><radialGradient id="o" cx="414.02268" cy="50.36079" r="28.30823" xlink:href="#a"/><radialGradient id="p" cx="593.40056" cy="394.32015" r="19.69231" xlink:href="#b"/><radialGradient id="q" cx="74.78273" cy="426.88801" r="31.44389" xlink:href="#b"/><radialGradient id="r" cx="181.70518" cy="270.86112" r="20.7273" xlink:href="#b"/><radialGradient id="s" cx="514.95341" cy="225.9184" r="16.82766" xlink:href="#b"/></defs><path class="a" d="M556.85571,263.20554c23.4569-57.36362-42.755-97.97033-92.43352-105.54839C461.644,79.54453,356.07646,54.0505,308.10083,110.84428c-10.71656,11.41308-20.20362,26.06792-35.48182,29.50158C189.44828,131.86257,185.79009,165,180.13367,233.6963c-45.6023,27.44546-69.87159,59.56035-39.73565,115.39383C103.033,389.37839,102.102,458.21,138.35473,499.49991s104.62622,49.272,149.41479,17.443c41.567,37.08972,114.25513,30.45025,148.41455-13.55652,21.54712-27.75855,30.68287-68.21576,62.77149-82.53827C586.70641,408.55013,530.47471,314.929,556.85571,263.20554ZM459.17809,375.03019c-36.09088,21.4667-60.58232,47.76792-71.41108,90.06607-30.25516,66.59875-103.98065,10.1231-107.46068-44.036-23.8955,26.74478-73.49692,41.11049-96.71653,6.91219-26.442-53.66193,41.49954-106.338,89.53774-117.10481-14.12877,3.40607-15.66075-29.10687-13.729-35.74939,5.49353-18.88941,23.81226-22.00714,37.22058-33.20056,24.542-20.48773,30.79529-61.27893,66.76612-67.12763,38.99957-7.20723,67.13717,42.19565,40.90016,72.02148,18.19041-6.87811,41.58861-4.40075,53.12132,11.25483,11.53272,15.65564,1.63245,43.74573-17.812,43.637C468.31249,310.75962,479.55663,352.86173,459.17809,375.03019Z"/><path class="b" d="M161.17,72.89529c-4.93515,23.44174,11.55537,49.292,34.893,54.69783-7.05776-1.63483-21.27779,29.77984-23.09791,34.9121C153.684,219.45034,142.15568,88.62131,161.17,72.89529Z"/><path class="c" d="M243.9961,610.82793c23.84758,2.27232,47.68316-17.016,50.43486-40.813-.83216,7.19667,31.98029,17.80012,37.28444,19.03257C390.46511,601.814,261.7573,627.95664,243.9961,610.82793Z"/><path class="d" d="M560.62348,95.19828a267.11345,267.11345,0,0,0,43.86737-23.67065c-22.20439,22.67889-22.21049,77.919-36.71542,24.00592"/><path class="e" d="M561.952,517.86884c-22.78857-11.774-24.41978-48.19459-39.58341-68.01658C491.52752,480.563,538.13642,507.7172,561.952,517.86884Z"/><path class="f" d="M689.34725,317.47879c-27.59172,4.01583-84.68356-31.96274-81.24346,17.74287C634.59072,329.41753,661.74018,317.98343,689.34725,317.47879Z"/><path class="g" d="M36.27658,358.40561c-62.44389-5.36449-9.07981.15085,22.75217-2.533,16.567-1.02225,35.01007-1.36073,14.071,15.57579C62.55416,362.46367,49.80512,359.78789,36.27658,358.40561Z"/><path class="h" d="M63.887,245.855c-18.53565,24.80957,17.3652,11.824,33.61787,15.88684a69.45524,69.45524,0,0,0-32.46346-13.81736"/><path class="i" d="M294.38945,12.89321l10.24,35.69934c.05132-22.4167,33.74479-60.00653-5.09367-44.529"/><path class="j" d="M672.55093,204.06161l-37.863,14.69126c18.3271-1.67109,57.2536,8.82738,34.53075-17.54331"/><path class="k" d="M470.72049,556.13123c3.96006,11.15406,30.00593,50.72881,24.27046,56.57539C477.4403,627.35041,479.71823,566.62559,470.72049,556.13123Z"/><path class="l" d="M44.74778,565.244c23.80864,29.58178,15.23739-19.21242,31.92247-35.79182a182.9965,182.9965,0,0,0-31.93919,37.11944"/><path class="m" d="M617.2672,232.99068c32.8304-38.13266-68.72162-93.64849-33.87817-49.56726C599.13559,198.23457,612.80545,210.45219,617.2672,232.99068Z"/><path class="n" d="M131.759,539.70041c14.641,22.00622,46.01325,30.97741,70.07512,20.03859-15.02749,37.79963-86.79877-1.18544-77.62945-21.8391"/><path class="o" d="M445.514,72.74692c11.47895-34.88078-38.01142-52.07345-64.6813-41.84354C399.71318,47.3727,430.00883,49.22088,445.514,72.74692Z"/><path class="p" d="M597.76622,375.09907A50.91206,50.91206,0,0,1,579.2698,418.318c21.38769-4.338,42.31719-37.04522,15.8656-47.99566"/><path class="q" d="M79.32337,389.06948a121.498,121.498,0,0,0,6.74374,80.83132c-21.90844-7.52648-33.61883-104.089-8.03512-83.02814-1.3163,4.68605-10.15085,2.80107-9.43929-2.00416"/><path class="r" d="M191.03853,249.8188c-17.46643,2.79963-46.96745,36.47366-16.65083,41.98568,19.14583,2.23743,42.79518-34.17679,15.01291-37.03208"/><path class="s" d="M531.85609,228.98676c-3.20561-12.85354-39.12758-18.68337-38.67582-4.0906,4.8239,21.7591,64.44508,4.04691,35.79977-.32878"/></svg>