<svg xmlns="http://www.w3.org/2000/svg" xmlns:xlink="http://www.w3.org/1999/xlink" viewBox="0 0 689.34725 617.57916"><defs><style>.a{fill:url(#a);}.b{fill:url(#b);}.c{fill:url(#c);}.d{fill:url(#d);}.e{fill:url(#e);}.f{fill:url(#f);}</style><radialGradient id="a" cx="330.26664" cy="342.13135" r="242.9572" gradientUnits="userSpaceOnUse"><stop offset="0" stop-color="#e0ddff"/><stop offset="1" stop-color="#cdcfff"/></radialGradient><radialGradient id="b" cx="322.89488" cy="322.27875" r="231.81983" gradientUnits="userSpaceOnUse"><stop offset="0" stop-color="#fff"/><stop offset="1" stop-color="#eafbff"/></radialGradient><radialGradient id="c" cx="324.54365" cy="337.43045" r="108.8187" xlink:href="#a"/><radialGradient id="d" cx="245.58745" cy="287.5202" r="4.83038" xlink:href="#a"/><radialGradient id="e" cx="414.70794" cy="398.17572" r="4.57461" xlink:href="#a"/><radialGradient id="f" cx="434.84883" cy="361.99981" r="6.44307" xlink:href="#a"/></defs><path class="a" d="M577.72215,291.34514a90.09131,90.09131,0,0,1-13.43154,2.11811c-1.306.10575-2.83305.09212-3.65-.93167-3.805-4.76848,9.37493-7.3972.07682-9.99439-2.2382-.62518-7.29365,1.773-9.50319,2.32112-10.25626,2.54408-20.4981,4.9283-31.04955,5.88806-31.20977,2.83883-60.92167-6.9683-82.05442-30.7007A143.92782,143.92782,0,0,1,403.00345,182.091c-1.75612-13.76262-.98519-27.64773.45946-41.401.6763-6.43651,2.41484-12.687,3.61907-19.031.41466-2.18449.535-4.40521.79961-6.60926.16732-1.3935.75693-2.78654.71789-4.19418a2.85124,2.85124,0,0,0-1.0208-2.23015,5.15108,5.15108,0,0,0-4.41778-.3887c-5.42223,2.06547-9.38473,9.09382-13.2252,13.19078-6.05133,6.45547-17.35905,19.95825-27.07628,13.09849a21.831,21.831,0,0,0-5.26769-3.21075c-5.05513-1.7318-8.8337,2.27545-11.25994,6.20829a66.90939,66.90939,0,0,0-7.35423,16.27317c-3.50828,12.1564-6.61928,25.8621-18.41682,32.74055-27.52019,16.04539-55.2451,32.39182-85.4441,42.94125-15.08993,5.27137-30.84769,9.08561-46.86518,9.7843-8.5315.37215-17.2409.47541-25.65765-1.17648-8.79211-1.72558-13.39252-5.26729-20.03058-11.0034-1.62929-1.40791-3.78272-2.90836-5.75116-2.03541-2.52666,1.12051-2.14039,4.75-3.04515,7.36171-1.11792,3.227-4.64564,5.11665-8.053,5.35047-6.69457.45931-13.616-3.22268-19.428-6.06136-4.764-2.32678-12.07086-9.90125-14.61485-.847-2.29311,8.199,8.05133,17.91167,12.30375,23.73475,2.99353,4.09921,5.27083,6.50533,5.95453,11.90469.75141,5.93407-2.25454,12.13368.96514,17.734,5.77353,10.04253,20.65836,8.89853,27.33151,18.44118,6.0101,8.5945,23.3345,31.39392,22.39758,42.287-3.50551,40.75631-109.51611,20.65855-53.41328,43.64186-105.439,31.39066,113.84449-4.85852,160.81074,22.99626,20.90289,4.92081-34.18452,17.57859-16.9306,30.35737,22.07905,16.35244,38.01132,39.10565,48.03481,64.52674,4.72358,11.97979,6.69738,24.717,8.60854,37.38007,1.35328,8.96659.74871,19.37071,4.2799,27.86392,2.43635,5.847,6.3048,6.21664,9.72011.72488,8.569-13.77887,5.81768-32.23472,13.76153-46.38326.81239-1.44693,2.08294-3.01511,3.73248-2.83446a4.5817,4.5817,0,0,1,2.323,1.28625c15.18956,12.8857,20.06118-13.75948,19.59649-23.76539-.3915-8.42977-1.57611-17.15178,1.251-25.104,2.87283-8.07917,11.67306-14.07683,17.11781-20.3518,7.79562-8.9843,7.069-15.73013,8.9568-27.1828A176.92492,176.92492,0,0,1,415.188,359.7349c-4.74993-4.5981-12.57962-3.467-18.669-.89335s-12.05892,6.34575-18.66583,6.1151-13.33763-7.27327-10.15255-13.06634c1.43911-2.61748,4.34258-4.01713,7.0817-5.20853a278.50983,278.50983,0,0,1,75.91785-20.865c5.61608-.71227,13.02059-.15,14.60111,5.286a9.08137,9.08137,0,0,1-.70021,6.03313c-4.21465,9.79288-16.096,13.19655-24.53339,19.71379-7.647,5.90669-12.56936,14.59948-16.93663,23.21877a360.84042,360.84042,0,0,0-14.92981,33.61384c6.62384-.143,12.13819-4.86107,17.08785-9.26521,43.33479-38.55876,90.64626-70.41361,139.32412-101.67133,5.92561-3.80648,11.88592-7.63962,17.0518-12.42665Q579.70554,290.87672,577.72215,291.34514Zm-297.083-.33651c-13.5497-.72978,3.06148,18.4436-10.3259,20.92947-14.80262-5.8081-79.82024,31.57164-68.375,8.52848,9.91393-16.6362,38.78645-16.11942,45.63289-33.6466-2.054-20.81378-59.08481-1.0548-45.73214-24.05393C236.00484,223.60282,393.25983,304.78376,280.63914,291.00863Z"/><path class="b" d="M557.65912,427.84911c.41-21.92261,2.49871-44.88925-4.65723-66.04452-7.18745-21.24842-30.25149-29.72431-30.28757-54.118-.01812-13.89373,3.98194-27.2528,9.18106-40.00487,4.13663-10.14605,18.65446-26.74123,19.33544-37.05482,1.20927-18.31495-18.60663-6.739-22.674-25.66082-1.72058-8.00433,3.92123-17.2475,1.43187-25.83325-3.65516-12.60086-16.81593-21.729-29.19-24.69471-18.40191-4.41043-15.90921,5.02313-29.45849,14.93311-5.43695,3.9766-12.93521,4.06581-19.36639,2.06236s-12.1064-5.82843-17.87736-9.30258c-5.97447-3.59667-12.73278-6.97178-19.61735-5.8614-3.88872.6272-7.40382,2.64226-10.705,4.79118-13.7856,8.97389-25.78917,21.02682-41.07361,27.10623-9.22671,3.66993-21.65569,4.03935-27.15974-4.2254-3.87011-5.81126-2.67557-13.43548-2.71049-20.42026-.10125-20.04958-51.63147-89.63416-71.9885-63.78074-3.40675,4.32656-4.47442,10.01766-7.07167,14.87352s-8.12722,9.16538-13.26822,7.19176l-.03-.0116c-17.74722-6.89908-12.40824-18.22952-30.85884-.72482-13.13631,12.46285-24.56578,27.69726-35.47217,42.09656-4.65334,6.14362-9.22833,14.8095-4.57333,20.95185,3.43934,4.53826,10.5968,5.27778,13.44458,10.2088,2.64885,4.58655.2159,10.4358-2.92716,14.6989s-7.1464,8.32369-7.90361,13.56578c-.79887,5.53048,2.23255,10.77943,4.37232,15.94138s3.18417,11.79219-.73484,15.77537c-3.35079,3.40566-8.73944,3.29376-13.5112,3.55992-18.62794,1.039-25.4642,28.25656-49.4037,29.25885-.59245,30.04519-1.01068,61.07576,10.3919,88.87946,3.05833,7.45733,6.95674,14.64588,8.72867,22.50879s1.0621,16.83534-4.25061,22.89671c-6.57636,7.50306-17.7236,8.32745-26.9571,12.10724s-17.489,15.5718-10.92312,23.084c3.73431,4.27256,10.38272,4.56349,14.80278,8.122,6.70529,5.39828,5.85821,15.63036,4.78747,24.17267-3.18855,25.43832,21.07625,40.09151,41.3714,49.26451,12.08552,5.46241,24.69293,10.267,37.90091,11.47,29.47309,2.68435,57.7237-32.9967,82.50856.86821q-2.6018-15.79139-3.70182-31.78178c-.22578-3.2853-.341-6.82631,1.44763-9.59126,4.259-6.58383,14.93307-3.72228,21.4708-8.05177,6.70105-4.43764,8.78274-16.10132,16.81978-16.04812,4.11781.02726,7.27515,3.45822,10.8285,5.53928,12.81739,7.50668,29.39552-2.99052,43.79566.65252,11.77377,2.9786,20.10746,14.9635,32.16631,16.40488,8.08684.96661,17.39311-2.84094,23.82789,2.15153,4.66861,3.62218,5.43051,10.22918,7.8581,15.6172,7.96618,17.67929,35.99644,17.26708,44.96588.86821,3.0282-5.53647,4.45356-12.94049,10.30613-15.30054,5.75927-2.32243,12.22093,1.90013,18.36919,1.02725,6.24655-.88685,10.59195-6.81485,12.61659-12.79036,3.96725-11.70895,3.36268-22.6949,15.24932-29.85862,6.52791-3.93419,14.04-6.11467,20.316-10.45675C556.26714,452.88125,557.42644,440.29812,557.65912,427.84911Zm-277.02-136.84048c-1.48767-.11737-3.1101-.19958-4.33361.65436-3.48157,2.42975.23449,7.68445.40393,11.92664.149,3.73724-2.91773,6.97143-6.39453,8.3501s-7.32349,1.34368-11.06031,1.50341a98.53926,98.53926,0,0,0-44.8728,13.06354c-2.56616,1.48248-5.21,3.12769-8.17029,3.26532s-6.26379-1.91888-6.27478-4.88251a7.4367,7.4367,0,0,1,2.00293-4.43029c9.79614-12.34882,25.97046-17.22956,39.61743-25.11762,2.19873-1.27087,4.4668-2.76684,5.48609-5.093,1.60717-3.66827-.63843-8.10534-3.98694-10.3023-3.34851-2.197-7.49256-2.70581-11.4718-3.15729q-11.67518-1.3245-23.35-2.64893c-4.78332-.54266-11.19238-3.462-9.56091-7.99109a7.55989,7.55989,0,0,1,3.17029-3.38317c13.88806-9.3924,31.53552-12.2616,48.15637-10.06128,20.70727,2.74151,52.80481,15.27038,69.25854,28.26971C342.12974,299.04349,291.72093,291.88272,280.63914,291.00863Zm173.89917,58.12079c-9.70507,6.54157-23.89428,9.37116-27.23877,20.5871-.907,3.0415-.801,6.30518-1.61645,9.37244-1.60449,6.036-6.49414,10.53509-9.91284,15.7619-5.90161,9.02313-7.3584,20.1513-8.61768,30.85931-.50122,4.264-1.04248,8.67365-3.24219,12.36072-2.1997,3.687-6.54492,6.46173-10.7185,5.45422-5.47217-1.3211-7.709-8.08355-7.21143-13.69085,1.10523-12.45734,10.478-22.53,14.4021-34.40473,4.17871-12.645,3.38941-29.11877,14.92505-35.77368-2.59106-4.41748-9.05786-4.70685-13.79809-2.75323-9.06617,3.73938-18.139,12.61322-28.58326,6.45727-6.83715-4.02984-8.608-7.38293-4.55981-13.41705,5.23547-7.80377,43.62964-13.44446,52.4585-16.83112,15.38427-5.90124,32.36157-10.852,48.116-6.02466A34.31312,34.31312,0,0,1,454.53831,349.12942Z"/><path class="c" d="M392.99884,408.37422c9.205-15.28689,14.98261-33.23334,20.04633-50.23842a45.61741,45.61741,0,0,0-20.39274,2.81282c-3.63081,1.39012-7.11793,3.25693-10.93588,4.00152-7.23368,1.40976-15.18438-3.68259-12.45253-11.89613,1.46282-4.39806,5.47678-7.46942,9.65428-9.47721,9.5988-4.61338,20.59572-4.93947,31.16471-6.24961s21.75482-4.10937,28.7842-12.11c11.26846-12.82554,8.32421-34.10253,1.44948-48.28055-3.51643-7.252-13.08733-12.17555-19.91038-7.8856-1.84231,1.15834-3.32842,2.86866-5.30257,3.78441-7.68023,3.5626-17.24436-6.53525-24.46121-2.10861-2.03919,1.25079-3.30211,3.42-4.48192,5.50105q-5.3975,9.52069-10.90239,18.97439c-1.45,2.48832-17.52766-20.84725-18.82373-22.16511-9.19283-9.34735-22.52946-1.5966-31.15959-10.89118-4.30521-4.63668-4.929-12.10442-9.91937-15.99411-3.44929-2.6885-8.1917-2.97928-12.54165-2.52805a45.7502,45.7502,0,0,0-15.30786,4.3805,9.51832,9.51832,0,0,0-3.81982,2.8519c-7.43657,10.71109,30.05305,27.27834,36.45836,31.30847,1.94577,1.22425,4.10042,2.78863,4.25588,5.08225.26386,3.8931-4.93917,5.403-8.84018,5.49246a284.35063,284.35063,0,0,1-34.05288-1.26226c-6.41667-.62453-7.07032,14.93142-14.24746,18.75615-6.16918,3.28758-14.28916,2.97652-19.1574,7.99322-4.33441,4.46659-4.39319,11.40276-4.60645,17.62305-.21325,6.2198-1.41784,13.37107-6.78982,16.51274-11.09677,6.48968-22.73857-.28874-30.63155,14.29337-4.5969,8.49268-4.28,19.109-.52148,28.00479,8.05157,19.05627,47.22062,43.58785,65.07,22.16722,4.8699-5.84424,6.2053-13.61318,11.1834-19.34586,3.44108-3.96268,8.74815-6.72793,13.89738-5.71338,6.53229,1.28706,10.51332,7.87165,12.93152,14.07485s4.392,13.09238,9.654,17.17407c13.33533,10.342,43.02541,10.80151,57.284,3.16685C383.03678,422.18809,388.5847,415.70487,392.99884,408.37422Z"/><path class="d" d="M247.0432,290.24856c1.3844-3.16-.093-6.88684-2.6687-9.2644-.63916,4.026-.26331,9.09967-.77332,13.07208A9.41915,9.41915,0,0,0,247.0432,290.24856Z"/><path class="e" d="M415.77025,394.85086a41.22406,41.22406,0,0,0-4.32715,8.91009c2.50073-.41345,4.52637-1.22949,5.58447-2.86419,1.31958-2.03839,1.08985-5.01258.32984-8.30628C416.80736,393.3334,416.272,394.08377,415.77025,394.85086Z"/><path class="f" d="M427.94945,367.95169c5.61035-1.42017,11.20117-3.01758,13.09765-6.63477a8.43357,8.43357,0,0,0,.52466-5.269C435.71971,359.0314,430.375,362.36477,427.94945,367.95169Z"/></svg>