<svg xmlns="http://www.w3.org/2000/svg" xmlns:xlink="http://www.w3.org/1999/xlink" viewBox="0 0 689.34725 617.57916"><defs><style>.a{fill:url(#a);}.b{fill:url(#b);}.c{fill:url(#c);}</style><radialGradient id="a" cx="519.00224" cy="965.15768" r="133.14068" gradientTransform="translate(-13.97349 -703.42586) rotate(10.38824)" gradientUnits="userSpaceOnUse"><stop offset="0" stop-color="#e0ddff"/><stop offset="1" stop-color="#cdcfff"/></radialGradient><radialGradient id="b" cx="322.93818" cy="328.72854" r="160.00381" gradientUnits="userSpaceOnUse"><stop offset="0" stop-color="#fff"/><stop offset="1" stop-color="#eafbff"/></radialGradient><radialGradient id="c" cx="323.92599" cy="339.3881" r="73.30031" gradientTransform="matrix(1, 0, 0, 1, 0, 0)" xlink:href="#a"/></defs><path class="a" d="M424.03544,239.27344a14.21689,14.21689,0,0,1,1.8565,2.45813c6.62675,11.0387-3.23357,30.18644-6.93083,40.72888-5.4001,15.39793-8.21076,31.17228-3.823,47.17051,5.99676,21.70076,38.00835,30.4246,45.733,52.03135,1.21264,3.3919.96382,7.55669-1.5586,10.12824-1.6742,1.70682-4.05994,2.473-6.35226,3.15235-29.31788,8.68831-59.70042,12.16728-90.051,14.98581-19.90041,1.84806-38.70948,8.24011-56.66511,16.817-11.19893,5.3494-30.82347,32.657-44.53388,21.978,3.273-10.02074,10.31846-18.8449,15.85419-27.76805,8.16671-13.16413,11.77542-26.40015,5.66329-41.35388-5.17622-12.66385-1.06026-14.074-10.81246-23.66965a322.21038,322.21038,0,0,0-87.1723-61.01593,3.0839,3.0839,0,0,1,1.61252-5.85452,189.03866,189.03866,0,0,0,37.498-.12312c4.28553-.44266,9.04179-1.30739,11.577-4.79082,2.15519-2.96124,2.04533-6.94441,1.84489-10.6014-.74848-13.65624-2.03479-27.5453-3.01173-41.43164-.966-13.7316,15.04322-22.02737,25.54724-13.13042,16.02383,13.57225,34.65246,23.21779,57.242,26.57605,24.09155,3.58157,47.45913-5.45151,71.04158-8.63837C398.83469,235.53731,415.82106,230.5822,424.03544,239.27344Z"/><path class="b" d="M334.3768,174.68187c18.04862-.22358,34.83842,11.15606,44.868,26.16308,10.02964,15.00709,14.18159,33.19526,16.08877,51.14433.39409,3.70885.74077,7.55835,2.59144,10.79655,4.81434,8.42392,16.52107,8.64686,26.1642,9.71939,26.59411,2.95784,50.88465,21.4443,60.82181,46.28878,7.35838,18.39711,4.495,43.75065-13.44985,52.15191-5.47208,2.56187-11.70643,3.221-17.08646,5.97094-17.89151,9.145-17.48336,34.07576-22.512,53.52954-6.05623,23.42923-24.53782,43.67716-47.849,50.173s-50.51107-1.9483-64.72962-21.52992c-12.40743-17.08735-17.982-43.31782-38.65714-47.61456-12.36334-2.56937-24.41818,4.59272-36.75674,7.27857-19.16352,4.17152-39.34238-2.7847-55.44636-13.97861-13.03259-9.059-24.40692-21.40929-29.11908-36.56545s-1.62467-33.29539,10.17665-43.90869c10.50781-9.45,26.97577-12.78712,33.17166-25.48859,3.10607-6.36739,2.84233-13.778,3.98126-20.77055,3.19133-19.59337,19.25092-36.2733,38.33093-41.23815,10.45477-2.72046,16.29513-.58829,25.18194-6.95427C294.66075,212.28277,296.57246,175.1502,334.3768,174.68187Z"/><path class="c" d="M408.61892,347.10008c1.311-8.3033-2.85224-17.65826-10.65994-20.77325-8.05341-3.213-18.08388.37737-25.3563-4.34415-8.62458-5.59938-7.52482-18.51018-12.43977-27.54233-7.39829-13.59578-26.02511-15.2666-41.46921-14.2371-7.74956.51658-15.8242,1.3969-22.34027,5.62342s-10.8563,12.81629-7.81556,19.96307a107.63432,107.63432,0,0,0-38.54332,11.36762c-3.95972,2.037-8.01287,4.55374-9.91394,8.58049-2.405,5.09419-.58294,11.42968,3.17486,15.62655s9.09691,6.61623,14.43721,8.40955a89.75308,89.75308,0,0,0,42.10556,3.59628,36.60114,36.60114,0,0,0,41.53719,44.97871c9.1447-1.52719,17.32-6.43217,25.24842-11.24349C381.51937,378.04192,405.51118,366.78361,408.61892,347.10008Z"/></svg>