<svg xmlns="http://www.w3.org/2000/svg" xmlns:xlink="http://www.w3.org/1999/xlink" viewBox="0 0 689.34725 617.57916"><defs><style>.a{fill:url(#a);}.b{fill:url(#b);}.c{fill:url(#c);}.d{fill:url(#d);}.e{fill:url(#e);}.f{fill:url(#f);}.g{fill:url(#g);}.h{fill:url(#h);}.i{fill:url(#i);}.j{fill:url(#j);}.k{fill:url(#k);}.l{fill:url(#l);}.m{fill:url(#m);}.n{fill:url(#n);}.o{fill:url(#o);}.p{fill:url(#p);}.q{fill:url(#q);}.r{fill:url(#r);}</style><radialGradient id="a" cx="204.39439" cy="326.32564" r="49.65956" gradientUnits="userSpaceOnUse"><stop offset="0" stop-color="#fff"/><stop offset="1" stop-color="#eafbff"/></radialGradient><radialGradient id="b" cx="300.56923" cy="199.96354" r="70.63681" xlink:href="#a"/><radialGradient id="c" cx="481.06552" cy="293.68035" r="60.59482" xlink:href="#a"/><radialGradient id="d" cx="314.09261" cy="449.20188" r="65.19128" xlink:href="#a"/><radialGradient id="e" cx="488.64571" cy="448.11829" r="44.81618" xlink:href="#a"/><radialGradient id="f" cx="425.0681" cy="491.37587" r="11.60326" xlink:href="#a"/><radialGradient id="g" cx="550.14705" cy="359.51671" r="6.97972" xlink:href="#a"/><radialGradient id="h" cx="179.14586" cy="230.24178" r="11.45828" xlink:href="#a"/><radialGradient id="i" cx="237.55906" cy="101.73056" r="6.31715" xlink:href="#a"/><radialGradient id="j" cx="151.66773" cy="435.1175" r="21.74993" gradientUnits="userSpaceOnUse"><stop offset="0" stop-color="#e0ddff"/><stop offset="1" stop-color="#cdcfff"/></radialGradient><radialGradient id="k" cx="497.50026" cy="169.18618" r="18.68917" xlink:href="#j"/><radialGradient id="l" cx="533.26054" cy="212.59497" r="8.27696" xlink:href="#j"/><radialGradient id="m" cx="176.86248" cy="185.63112" r="4.92819" xlink:href="#j"/><radialGradient id="n" cx="165.19985" cy="251.85074" r="4.13864" xlink:href="#j"/><radialGradient id="o" cx="388.48461" cy="309.01515" r="13.31128" xlink:href="#j"/><radialGradient id="p" cx="418.62353" cy="423.0758" r="8.39792" xlink:href="#j"/><radialGradient id="q" cx="588.44882" cy="479.2746" r="16.23547" xlink:href="#j"/><radialGradient id="r" cx="370.22145" cy="563.94594" r="14.37961" xlink:href="#j"/></defs><path class="a" d="M173.00963,362.14606c50.058,43.46678,115.50309-28.12228,60.4938-72.32987C180.94505,247.57823,124.19774,319.76135,173.00963,362.14606Z"/><path class="b" d="M250.76344,146.59215c-14.558,8.85116-21.392,26.34844-24.54886,43.091-3.29851,17.49393-3.15936,37.15218,7.78482,51.19293,6.62607,8.50087,16.49283,13.91791,26.64576,17.53559a105.71872,105.71872,0,0,0,46.46873,5.51805c12.30952-1.30852,24.60021-4.91533,34.66786-12.11805,13.53954-9.68663,21.91942-24.92192,28.78545-40.08793,3.2726-7.22866,6.36128-14.8305,6.2373-22.76445C375.93611,133.38918,287.076,124.51469,250.76344,146.59215Z"/><path class="c" d="M416.52062,257.278c-2.6896,7.11189-1.46486,15.04917.10935,22.4879.90969,4.29862,2.01932,8.76539,4.92106,12.06471,6.1508,6.99351,17.20081,5.88506,25.86124,9.31123,14.107,5.58088,19.92953,22.06982,30.32251,33.12146,13.24248,14.08175,36.4666,18.57611,52.88534,8.374s22.19322-35.20117,10.17834-50.34384C523.9283,271.03154,434.90766,208.65889,416.52062,257.278Z"/><path class="d" d="M246.5101,423.9108c1.89235,1.11522,4.06566,1.65865,6.03194,2.63764,10.32119,5.13883,11.19709,19.06887,13.956,30.26365,5.126,20.79985,21.87743,38.0821,42.20634,44.83819s43.58849,3.178,61.54558-8.50325c4.79822-3.12129,9.33087-6.88416,12.27945-11.79041,2.88187-4.79525,4.09123-10.41916,4.61656-15.98905,2.01922-21.40884-6.09346-43.74129-22.00817-58.20281-27.39447-24.89305-50.96061-9.02858-81.8207-6.508-8.06014.65834-22.66511-4.73409-29.56784-2.15486C244.5417,401.94234,233.89983,416.47918,246.5101,423.9108Z"/><path class="e" d="M442.68383,444.37364c-2.23528,21.19648,13.73374,42.902,34.731,46.563,13.26931,2.31358,27.37793-2.19,37.42383-11.16307C584.30849,417.72159,450.95442,365.946,442.68383,444.37364Z"/><path class="f" d="M436.646,489.70035c-.45192-4.95546-3.75752-9.522-9.56189-9.8814a12.05292,12.05292,0,0,0-7.15536,2.075c-6.44768,4.15063-9.50742,13.5804-2.44305,18.91925,4.33182,3.27341,10.88164,2.61893,15.08773-.81465A11.84453,11.84453,0,0,0,436.646,489.70035Z"/><path class="g" d="M556.74106,362.22766c1.51041-5.78347-6.684-13.3749-11.683-8.12253-3.00445,3.15671-1.77112,9.60077,1.90983,11.742C550.44183,367.86786,555.72528,366.11645,556.74106,362.22766Z"/><path class="h" d="M167.82538,234.23072c3.17129,7.94216,16.06878,8.77681,20.8441,1.68343C202.60563,215.21307,159.784,214.07617,167.82538,234.23072Z"/><path class="i" d="M237.14769,97.171c-1.71321-1.99831-5.23189-.02351-5.89115,2.52476-1.07031,4.1371,2.97032,8.7017,7.20671,8.14125s6.95105-6.01874,4.84176-9.73519c-1.45928-2.57116-5.73094-3.59477-7.2701-1.07062"/><path class="j" d="M164.43014,454.56854c13.12685-6.43471,13.86746-32.97606-.00368-38.68129-11.84328-4.87117-34.60166,4.301-35.60584,18.27437-.92223,12.83307,14.44941,20.40548,27.2791,21.38693C158.92184,455.76444,161.8877,455.8145,164.43014,454.56854Z"/><path class="k" d="M479.67918,159.6359c-4.26683,7.47738-1.58983,17.81836,5.2,23.11135,9.46945,7.38194,25.37816,3.70629,30.65134-7.07985C525.99653,154.25939,489.01269,143.28383,479.67918,159.6359Z"/><path class="l" d="M538.33039,218.41167a8.17116,8.17116,0,0,0,3.867-4.5764c2.24215-8.24008-8.76618-10.10234-14.38819-7.06011C517.95119,212.10959,529.47464,223.77508,538.33039,218.41167Z"/><path class="m" d="M180.97145,188.27474a5.19143,5.19143,0,0,0-1.587-6.93695c-4.03431-2.43393-6.97188,1.61194-7.32435,5.43053C171.60886,191.65683,178.83711,191.6908,180.97145,188.27474Z"/><path class="n" d="M167.56168,247.49249c-2.80918.80371-6.19008,2.30043-6.26749,5.2213-.0799,3.01418,4.43527,4.64768,6.60123,2.55s1.25922-6.21374-1.392-7.64995"/><path class="o" d="M388.28824,299.74006c-5.32053-2.79844-12.27192,2.546-12.43442,8.55543s4.67424,11.23924,10.25124,13.48345c3.95484,1.59145,8.883,1.86427,12.12242-.907,6.34083-5.42451,1.05435-15.6253-4.382-21.956-1.47005-1.71188-3.148-3.54077-5.38561-3.83155s-4.75049,2.08187-3.6765,4.06634"/><path class="p" d="M421.14943,414.939c-4.74241-1.38669-10.29377,2.287-10.84441,7.19718s4.08089,9.73124,9.00723,9.35111,8.76595-5.88781,7.393-10.63421-7.59321-7.349-11.92449-4.97126"/><path class="q" d="M580.2578,467.03808c-10.26409,5.05844-9.86622,22.625.4178,27.64273s24.13583-4.67874,23.43861-16.10035S589.27,459.13423,578.8775,463.92329"/><path class="r" d="M375.756,548.2523c-7.13258.534-14.19641,4.61785-17.14812,11.13292s-.85573,15.25262,5.34209,18.82275c7.70252,4.4369,19.09946-2.062,19.20349-10.9504s-11.13769-15.65226-18.94195-11.39686"/></svg>