<svg xmlns="http://www.w3.org/2000/svg" xmlns:xlink="http://www.w3.org/1999/xlink" viewBox="0 0 303.95444 341.11501"><defs><style>.a,.i{opacity:0.72;}.a{fill:url(#a);}.ai,.b,.l{opacity:0.8;}.b{fill:url(#b);}.c{isolation:isolate;}.d{fill:#683c11;fill-opacity:0.51;}.e,.g{mix-blend-mode:multiply;}.e{fill:url(#c);}.f{clip-path:url(#e);}.g{fill:url(#f);}.h{opacity:0.42;fill:url(#g);}.i{fill:url(#h);}.j{opacity:0.54;}.k{fill:url(#i);}.bf,.l{mix-blend-mode:hard-light;}.m{fill:url(#j);}.n,.o,.v,.y{opacity:0.5;}.n{fill:url(#k);}.o{fill:url(#l);}.p{opacity:0.25;fill:url(#m);}.aa,.ab,.ac,.ad,.p,.q,.r,.s,.u,.v,.w,.x,.y,.z{mix-blend-mode:screen;}.q{fill:url(#n);}.r{fill:url(#o);}.s{opacity:0.2;fill:url(#p);}.ap,.aw,.bd,.bl,.bs,.t,.x{fill:none;}.u{opacity:0.15;fill:url(#q);}.v{fill:url(#r);}.w{fill:url(#s);}.x{stroke:#fff;stroke-width:1.69256px;opacity:0.03;}.ai,.x{stroke-miterlimit:10;}.y{fill:url(#t);}.z{fill:url(#u);}.aa{fill:url(#v);}.ab{fill:url(#w);}.ac{fill:url(#x);}.ad{fill:url(#y);}.ae{fill:url(#z);}.af{clip-path:url(#ab);}.ag,.ah,.aj{opacity:0.3;}.ag{fill:url(#ac);}.ah{fill:url(#ad);}.ai,.ap{stroke-width:0.84628px;}.ai{fill:url(#ae);stroke:url(#af);}.ak{fill:url(#ag);}.al,.ao,.ap,.as,.av,.aw,.az,.bc,.bd,.bh,.bk,.bl,.bo,.br,.bs{mix-blend-mode:soft-light;}.al{fill:url(#ah);}.am{fill:url(#ai);}.an{fill:url(#aj);}.ao{fill:url(#ak);}.ap,.aw,.bd,.bl,.bs{stroke-linecap:round;stroke-linejoin:round;}.ap{stroke:url(#al);}.aq{fill:url(#am);}.ar{fill:url(#an);}.as{fill:url(#ao);}.at{fill:url(#ap);}.au{fill:url(#aq);}.av{fill:url(#ar);}.aw{stroke-width:0.47827px;stroke:url(#as);}.ax{fill:url(#at);}.ay{fill:url(#au);}.az{fill:url(#av);}.ba{fill:url(#aw);}.bb{fill:url(#ax);}.bc{fill:url(#ay);}.bd{stroke-width:0.25444px;stroke:url(#az);}.be{fill:url(#ba);}.bf{opacity:0.2;}.bg{fill:url(#bb);}.bh{fill:url(#bc);}.bi{fill:url(#bd);}.bj{fill:url(#be);}.bk{fill:url(#bf);}.bl{stroke-width:0.55849px;stroke:url(#bg);}.bm{fill:url(#bh);}.bn{fill:url(#bi);}.bo{fill:url(#bj);}.bp{fill:url(#bk);}.bq{fill:url(#bl);}.br{fill:url(#bm);}.bs{stroke-width:0.29712px;stroke:url(#bn);}.bt{fill:url(#bo);}.bu{fill:#fff;}.bv{fill:#c6c6c6;}.bw{fill:#3c3c3b;}</style><linearGradient id="a" x1="105.03724" y1="165.56347" x2="199.41782" y2="165.56347" gradientUnits="userSpaceOnUse"><stop offset="0" stop-color="#f5fbff"/><stop offset="0.62567" stop-color="#e9f1f5"/><stop offset="1" stop-color="#c5d9e0"/></linearGradient><linearGradient id="b" x1="219.10156" y1="270.68209" x2="101.00144" y2="114.15705" gradientUnits="userSpaceOnUse"><stop offset="0" stop-color="#0756bb"/><stop offset="1" stop-color="#3991f0"/></linearGradient><linearGradient id="c" x1="171.33174" y1="61.71976" x2="149.03418" y2="243.33184" gradientUnits="userSpaceOnUse"><stop offset="0" stop-color="#bfc4c7"/><stop offset="1" stop-color="#b1c3c9"/></linearGradient><clipPath id="e"><path class="a" d="M246.48648,260.32927V56.21441c0,4.92526-63.58119,8.918-87.37871,8.918q-1.79724,0-3.59432-.02924c-4.79889-.07261-9.59628-.249-14.3905-.4687q-8.51441-.3902-17.01852-.97514-8.76555-.597-17.51591-1.397c-5.3029-.49123-10.60164-1.04461-15.88269-1.73435-3.878-.50649-7.72017-1.49-11.65365-1.44118-3.9553.04913-7.63229,1.67156-11.44574,2.505q-.47635.10416-.95439.20048a19.75525,19.75525,0,0,1-3.84673.58949q-.67953.07353-1.36172.11872c-.22315.015-.86315-.06053-1.01577.13972-.13737.18024.24046.6185.36578.75686a5.19749,5.19749,0,0,0,.75974.60652c.32625.24652.66943.46711,1.00291.70321l3.44455,2.439,5.56351,3.93934.16453.1165V260.32927a11.53455,11.53455,0,0,0,11.12438,14.58326H235.3621A11.53455,11.53455,0,0,0,246.48648,260.32927Z"/></clipPath><linearGradient id="f" x1="120.45122" y1="163.94125" x2="171.6284" y2="296.11187" gradientUnits="userSpaceOnUse"><stop offset="0" stop-color="#f5f5f5"/><stop offset="1" stop-color="#c3d1d6"/></linearGradient><linearGradient id="g" x1="99.01016" y1="207.6583" x2="213.10844" y2="207.6583" xlink:href="#b"/><linearGradient id="h" x1="153.48097" y1="38.3778" x2="153.48097" y2="64.94849" xlink:href="#a"/><radialGradient id="i" cx="226.33329" cy="128.1371" r="64.69946" gradientTransform="translate(240.01181 -98.27014) rotate(89.70298) scale(1 0.11591)" gradientUnits="userSpaceOnUse"><stop offset="0" stop-color="#e6f3ff"/><stop offset="1" stop-color="#b9cbf0" stop-opacity="0"/></radialGradient><radialGradient id="j" cx="-1611.58387" cy="-9.55066" r="54.27899" gradientTransform="matrix(0.00636, -0.99998, 0.15751, 0.001, 101.80431, -1459.66529)" xlink:href="#i"/><radialGradient id="k" cx="227.30151" cy="197.4173" r="3.82592" gradientTransform="matrix(1, 0, 0, 1, 0, 0)" xlink:href="#i"/><radialGradient id="l" cx="227.30151" cy="124.23495" r="3.82592" gradientTransform="matrix(1, 0, 0, 1, 0, 0)" xlink:href="#i"/><radialGradient id="m" cx="-1960.14547" cy="-88.91789" r="13.58164" gradientTransform="translate(2052.57633 243.81162)" gradientUnits="userSpaceOnUse"><stop offset="0.1"/><stop offset="0.11244" stop-color="#080602"/><stop offset="0.16172" stop-color="#231b08"/><stop offset="0.21838" stop-color="#392c0d"/><stop offset="0.28458" stop-color="#4a3910"/><stop offset="0.36644" stop-color="#554213"/><stop offset="0.48125" stop-color="#5c4815"/><stop offset="0.8" stop-color="#5e4915"/><stop offset="1"/></radialGradient><radialGradient id="n" cx="-1975.10952" cy="-41.43917" r="0.45271" gradientTransform="translate(2067.36554 246.11363)" gradientUnits="userSpaceOnUse"><stop offset="0" stop-color="#d4e194"/><stop offset="0.05952" stop-color="#afba7a"/><stop offset="0.13651" stop-color="#868f5e"/><stop offset="0.21955" stop-color="#626845"/><stop offset="0.30759" stop-color="#44482f"/><stop offset="0.40211" stop-color="#2b2e1e"/><stop offset="0.50556" stop-color="#181911"/><stop offset="0.62249" stop-color="#0a0b07"/><stop offset="0.76429" stop-color="#020302"/><stop offset="1"/></radialGradient><radialGradient id="o" cx="-1976.2715" cy="-37.7525" r="0.45271" gradientTransform="translate(2068.51392 246.2922)" xlink:href="#n"/><radialGradient id="p" cx="-1975.62646" cy="-39.79909" r="3.39543" gradientTransform="translate(2067.87642 246.19316)" gradientUnits="userSpaceOnUse"><stop offset="0.05"/><stop offset="0.09242" stop-color="#040a03"/><stop offset="0.29802" stop-color="#183411"/><stop offset="0.48337" stop-color="#25531c"/><stop offset="0.64031" stop-color="#2e6622"/><stop offset="0.75" stop-color="#316d24"/><stop offset="0.78593" stop-color="#4f6e16"/><stop offset="0.83397" stop-color="#716f06"/><stop offset="0.86" stop-color="#7e6f00"/><stop offset="0.88764" stop-color="#7a6c00"/><stop offset="0.91229" stop-color="#706200"/><stop offset="0.93581" stop-color="#5d5200"/><stop offset="0.95863" stop-color="#443c00"/><stop offset="0.98074" stop-color="#231f00"/><stop offset="1"/></radialGradient><radialGradient id="q" cx="-1963.37068" cy="-78.68483" r="9.05439" gradientTransform="translate(2055.76384 244.30778)" gradientUnits="userSpaceOnUse"><stop offset="0" stop-color="#200"/><stop offset="0.73" stop-color="#984023"/><stop offset="1" stop-color="#200"/></radialGradient><radialGradient id="r" cx="-1963.37068" cy="-78.68483" r="4.52725" gradientTransform="translate(2055.76384 244.30775)" gradientUnits="userSpaceOnUse"><stop offset="0.15" stop-color="#fff"/><stop offset="0.20939" stop-color="#e5d3d3"/><stop offset="0.29044" stop-color="#c49c9e"/><stop offset="0.36051" stop-color="#ad7477"/><stop offset="0.41599" stop-color="#9e5c5f"/><stop offset="0.45" stop-color="#995356"/><stop offset="0.57175" stop-color="#6b3335"/><stop offset="0.69355" stop-color="#431718"/><stop offset="0.79053" stop-color="#2b0606"/><stop offset="0.85" stop-color="#200"/><stop offset="0.85727" stop-color="#260201"/><stop offset="0.8648" stop-color="#330704"/><stop offset="0.87246" stop-color="#471009"/><stop offset="0.8802" stop-color="#641d0f"/><stop offset="0.88801" stop-color="#8a2e18"/><stop offset="0.89577" stop-color="#b74223"/><stop offset="0.9" stop-color="#d34e29"/><stop offset="0.90254" stop-color="#c84927"/><stop offset="0.91417" stop-color="#9c361c"/><stop offset="0.92635" stop-color="#772514"/><stop offset="0.93893" stop-color="#58180c"/><stop offset="0.95205" stop-color="#400d07"/><stop offset="0.96594" stop-color="#2f0603"/><stop offset="0.98111" stop-color="#250101"/><stop offset="1" stop-color="#200"/></radialGradient><radialGradient id="s" cx="-1963.37068" cy="-78.68483" r="3.7727" gradientTransform="translate(2055.76384 244.30774)" gradientUnits="userSpaceOnUse"><stop offset="0.15" stop-color="#fff"/><stop offset="0.28237" stop-color="#c2c2c2"/><stop offset="0.42528" stop-color="#888"/><stop offset="0.5636" stop-color="#575757"/><stop offset="0.69361" stop-color="#313131"/><stop offset="0.81336" stop-color="#161616"/><stop offset="0.91921" stop-color="#060606"/><stop offset="1"/></radialGradient><radialGradient id="t" cx="-1976.2715" cy="-37.7525" r="6.79086" gradientTransform="translate(2068.51392 246.2923)" gradientUnits="userSpaceOnUse"><stop offset="0.64"/><stop offset="0.71799" stop-color="#000200"/><stop offset="0.74608" stop-color="#020902"/><stop offset="0.76609" stop-color="#051405"/><stop offset="0.78228" stop-color="#082509"/><stop offset="0.79598" stop-color="#0d3b0e"/><stop offset="0.8" stop-color="#0f4310"/><stop offset="0.8131" stop-color="#1e2c0a"/><stop offset="0.82975" stop-color="#2d1605"/><stop offset="0.84569" stop-color="#360901"/><stop offset="0.86" stop-color="#390400"/><stop offset="0.8715" stop-color="#250300"/><stop offset="0.88602" stop-color="#140100"/><stop offset="0.90412" stop-color="#090100"/><stop offset="0.92951" stop-color="#020000"/><stop offset="1"/></radialGradient><radialGradient id="u" cx="-1973.78018" cy="-45.65679" r="1.93017" gradientTransform="translate(1990.41009 -342.85276) rotate(-17.29226)" gradientUnits="userSpaceOnUse"><stop offset="0.1"/><stop offset="0.24639" stop-color="#1b1103"/><stop offset="0.42619" stop-color="#362207"/><stop offset="0.61009" stop-color="#492e09"/><stop offset="0.79889" stop-color="#54350b"/><stop offset="1" stop-color="#58370b"/></radialGradient><radialGradient id="v" cx="-1967.0556" cy="-66.99299" r="1.07807" gradientTransform="translate(2059.40575 244.87459)" gradientUnits="userSpaceOnUse"><stop offset="0.1" stop-color="#192f1b"/><stop offset="0.2285" stop-color="#122214"/><stop offset="0.47516" stop-color="#080f09"/><stop offset="0.72928" stop-color="#020402"/><stop offset="1"/></radialGradient><radialGradient id="w" cx="-1971.15808" cy="-53.97641" r="0.714" gradientTransform="translate(2063.4603 245.50565)" xlink:href="#u"/><radialGradient id="x" cx="-1971.80725" cy="-51.91681" r="1.00408" gradientTransform="translate(2064.10185 245.60558)" gradientUnits="userSpaceOnUse"><stop offset="0.1"/><stop offset="0.29001" stop-color="#14160e"/><stop offset="0.51699" stop-color="#25291a"/><stop offset="0.75084" stop-color="#303422"/><stop offset="1" stop-color="#333824"/></radialGradient><radialGradient id="y" cx="-1973.65332" cy="-46.05963" r="1.86428" gradientTransform="translate(2065.92631 245.88961)" xlink:href="#v"/><radialGradient id="z" cx="99.27368" cy="62.70216" r="6.99971" gradientUnits="userSpaceOnUse"><stop offset="0" stop-color="#fff"/><stop offset="1" stop-color="#b9cbf0" stop-opacity="0"/></radialGradient><clipPath id="ab"><path class="b" d="M236.39034,255.07313V121.99453h0c0,4.74736-55.69483,8.59581-77.27169,8.59581s-77.29359-3.84845-77.29359-8.59581h0V255.07318c.07619,5.90272,2.7717,11.8329,8.94029,11.8329h136.6847C233.61844,266.90608,236.46333,260.85758,236.39034,255.07313Z"/></clipPath><linearGradient id="ac" x1="315.76543" y1="217.33703" x2="68.73132" y2="194.35711" xlink:href="#b"/><linearGradient id="ad" x1="35.49924" y1="242.44061" x2="270.00822" y2="242.44061" xlink:href="#b"/><linearGradient id="ae" x1="296.36055" y1="121.99452" x2="113.21437" y2="121.99452" xlink:href="#b"/><linearGradient id="af" x1="81.40192" y1="121.99452" x2="236.81348" y2="121.99452" gradientUnits="userSpaceOnUse"><stop offset="0" stop-color="#2685ff"/><stop offset="1" stop-color="#3991f0"/></linearGradient><radialGradient id="ag" cx="129.47837" cy="130.59035" r="14.16583" gradientTransform="matrix(0.2537, -0.96728, 0.95587, 0.2507, -28.19776, 223.09305)" gradientUnits="userSpaceOnUse"><stop offset="0" stop-color="#3582c7" stop-opacity="0.8"/><stop offset="0.29921" stop-color="#3985ca" stop-opacity="0.80046"/><stop offset="0.52418" stop-color="#448fd2" stop-opacity="0.80193"/><stop offset="0.72493" stop-color="#58a0e0" stop-opacity="0.8044"/><stop offset="0.91041" stop-color="#74b8f3" stop-opacity="0.80787"/><stop offset="1" stop-color="#85c7ff" stop-opacity="0.81"/></radialGradient><radialGradient id="ah" cx="-66.29042" cy="692.47664" r="9.1779" gradientTransform="translate(210.90474 -411.5798) scale(1.24415 0.77108)" gradientUnits="userSpaceOnUse"><stop offset="0" stop-color="#527deb"/><stop offset="0.37881" stop-color="#527deb" stop-opacity="0.99203"/><stop offset="0.51527" stop-color="#537eea" stop-opacity="0.96313"/><stop offset="0.61253" stop-color="#557fea" stop-opacity="0.91281"/><stop offset="0.69121" stop-color="#5781e9" stop-opacity="0.8409"/><stop offset="0.75863" stop-color="#5a83e7" stop-opacity="0.74715"/><stop offset="0.81834" stop-color="#5e86e5" stop-opacity="0.63133"/><stop offset="0.87231" stop-color="#6289e3" stop-opacity="0.49335"/><stop offset="0.92196" stop-color="#678de1" stop-opacity="0.33264"/><stop offset="0.96609" stop-color="#6d91de" stop-opacity="0.15775"/><stop offset="1" stop-color="#7295dc" stop-opacity="0"/></radialGradient><radialGradient id="ai" cx="137.41054" cy="123.10411" r="1.16008" gradientTransform="matrix(0.2537, -0.96728, 0.95587, 0.2507, -15.12206, 225.15631)" gradientUnits="userSpaceOnUse"><stop offset="0" stop-color="#c1cdeb"/><stop offset="0.37881" stop-color="#c0cdeb" stop-opacity="0.99203"/><stop offset="0.51527" stop-color="#becbea" stop-opacity="0.96313"/><stop offset="0.61253" stop-color="#bac8ea" stop-opacity="0.91281"/><stop offset="0.69121" stop-color="#b4c4e9" stop-opacity="0.8409"/><stop offset="0.75863" stop-color="#adbfe7" stop-opacity="0.74715"/><stop offset="0.81834" stop-color="#a4b8e5" stop-opacity="0.63133"/><stop offset="0.87231" stop-color="#99b1e3" stop-opacity="0.49335"/><stop offset="0.92196" stop-color="#8ca8e1" stop-opacity="0.33264"/><stop offset="0.96609" stop-color="#7e9ede" stop-opacity="0.15775"/><stop offset="1" stop-color="#7295dc" stop-opacity="0"/></radialGradient><radialGradient id="aj" cx="139.31817" cy="124.70762" r="0.4206" gradientTransform="matrix(0.2537, -0.96728, 0.95587, 0.2507, -15.23115, 228.20303)" gradientUnits="userSpaceOnUse"><stop offset="0" stop-color="#c1cdeb"/><stop offset="0.22496" stop-color="#c0cceb" stop-opacity="0.98901"/><stop offset="0.3644" stop-color="#bdcaea" stop-opacity="0.95275"/><stop offset="0.48062" stop-color="#b8c7e9" stop-opacity="0.89088"/><stop offset="0.58411" stop-color="#b1c2e8" stop-opacity="0.80322"/><stop offset="0.67914" stop-color="#a8bce6" stop-opacity="0.68961"/><stop offset="0.7679" stop-color="#9db4e4" stop-opacity="0.55"/><stop offset="0.85188" stop-color="#90abe2" stop-opacity="0.38414"/><stop offset="0.92991" stop-color="#82a0df" stop-opacity="0.19725"/><stop offset="1" stop-color="#7295dc" stop-opacity="0"/></radialGradient><radialGradient id="ak" cx="122.93352" cy="140.68513" r="0.4206" gradientTransform="matrix(0.2537, -0.96728, 0.95587, 0.2507, -42.73153, 224.3263)" xlink:href="#aj"/><radialGradient id="al" cx="119.7844" cy="135.8027" r="3.70417" gradientTransform="matrix(1, 0, 0, 1, 0, 0)" xlink:href="#ai"/><radialGradient id="am" cx="136.18951" cy="138.69966" r="1.68884" gradientTransform="translate(0 20.14894) scale(1 0.85473)" gradientUnits="userSpaceOnUse"><stop offset="0" stop-color="#527deb"/><stop offset="0.09168" stop-color="#537eeb" stop-opacity="0.96822"/><stop offset="0.22975" stop-color="#5680e9" stop-opacity="0.88033"/><stop offset="0.39704" stop-color="#5a83e7" stop-opacity="0.73641"/><stop offset="0.58721" stop-color="#6188e4" stop-opacity="0.53628"/><stop offset="0.79369" stop-color="#698ee0" stop-opacity="0.2836"/><stop offset="1" stop-color="#7295dc" stop-opacity="0"/></radialGradient><radialGradient id="an" cx="173.69654" cy="112.31353" r="8.00568" gradientTransform="matrix(0.2537, -0.96728, 0.95587, 0.2507, 22.27271, 252.16983)" xlink:href="#ag"/><radialGradient id="ao" cx="-29.59069" cy="679.97783" r="5.1868" gradientTransform="translate(209.91905 -416.64532) scale(1.24415 0.77108)" xlink:href="#ah"/><radialGradient id="ap" cx="178.17934" cy="108.08275" r="0.65561" gradientTransform="matrix(0.2537, -0.96728, 0.95587, 0.2507, 29.66231, 253.33587)" xlink:href="#ai"/><radialGradient id="aq" cx="179.25741" cy="108.98896" r="0.2377" gradientTransform="matrix(0.2537, -0.96728, 0.95587, 0.2507, 29.60066, 255.05769)" xlink:href="#aj"/><radialGradient id="ar" cx="169.99779" cy="118.0185" r="0.2377" gradientTransform="matrix(0.2537, -0.96728, 0.95587, 0.2507, 14.05909, 252.86679)" xlink:href="#aj"/><radialGradient id="as" cx="168.21809" cy="115.25924" r="2.09337" gradientTransform="matrix(1, 0, 0, 1, 0, 0)" xlink:href="#ai"/><radialGradient id="at" cx="177.48928" cy="116.89643" r="0.95443" gradientTransform="translate(0 16.98157) scale(1 0.85473)" xlink:href="#am"/><radialGradient id="au" cx="155.84129" cy="93.33985" r="4.25901" gradientTransform="matrix(0.2537, -0.96728, 0.95587, 0.2507, 27.08371, 220.68185)" xlink:href="#ag"/><radialGradient id="av" cx="-42.65522" cy="659.93218" r="2.75937" gradientTransform="translate(208.59547 -417.98867) scale(1.24415 0.77108)" xlink:href="#ah"/><radialGradient id="aw" cx="158.22613" cy="91.08908" r="0.34878" gradientTransform="matrix(0.2537, -0.96728, 0.95587, 0.2507, 31.01497, 221.30217)" xlink:href="#ai"/><radialGradient id="ax" cx="158.79966" cy="91.57118" r="0.12646" gradientTransform="matrix(0.2537, -0.96728, 0.95587, 0.2507, 30.98217, 222.21818)" xlink:href="#aj"/><radialGradient id="ay" cx="153.87356" cy="96.37488" r="0.12646" gradientTransform="matrix(0.2537, -0.96728, 0.95587, 0.2507, 22.71408, 221.05263)" xlink:href="#aj"/><radialGradient id="az" cx="152.92676" cy="94.90696" r="1.11367" gradientTransform="matrix(1, 0, 0, 1, 0, 0)" xlink:href="#ai"/><radialGradient id="ba" cx="157.85902" cy="95.77794" r="0.50776" gradientTransform="translate(0 13.91369) scale(1 0.85473)" xlink:href="#am"/><radialGradient id="bb" cx="201.24766" cy="164.49202" r="9.34859" gradientTransform="matrix(0.2537, -0.96728, 0.95587, 0.2507, -7.04184, 317.91668)" xlink:href="#ag"/><radialGradient id="bc" cx="-10.72008" cy="739.09561" r="6.05686" gradientTransform="translate(213.89282 -410.83019) scale(1.24415 0.77108)" xlink:href="#ah"/><radialGradient id="bd" cx="206.48242" cy="159.55155" r="0.76558" gradientTransform="matrix(0.2537, -0.96728, 0.95587, 0.2507, 1.58733, 319.27831)" xlink:href="#ai"/><radialGradient id="be" cx="207.74134" cy="160.60977" r="0.27757" gradientTransform="matrix(0.2537, -0.96728, 0.95587, 0.2507, 1.51534, 321.28896)" xlink:href="#aj"/><radialGradient id="bf" cx="196.92846" cy="171.15397" r="0.27757" gradientTransform="matrix(0.2537, -0.96728, 0.95587, 0.2507, -16.63326, 318.73055)" xlink:href="#aj"/><radialGradient id="bg" cx="194.85023" cy="167.93186" r="2.44453" gradientTransform="matrix(1, 0, 0, 1, 0, 0)" xlink:href="#ai"/><radialGradient id="bh" cx="205.67661" cy="169.84368" r="1.11454" gradientTransform="translate(0 24.67324) scale(1 0.85473)" xlink:href="#am"/><radialGradient id="bi" cx="184.30346" cy="184.93134" r="4.97343" gradientTransform="matrix(0.2537, -0.96728, 0.95587, 0.2507, -39.22475, 316.84192)" xlink:href="#ag"/><radialGradient id="bj" cx="-25.43983" cy="763.0967" r="3.22224" gradientTransform="translate(215.58619 -406.35931) scale(1.24415 0.77108)" xlink:href="#ah"/><radialGradient id="bk" cx="187.08834" cy="182.30302" r="0.40729" gradientTransform="matrix(0.2537, -0.96728, 0.95587, 0.2507, -34.63404, 317.5663)" xlink:href="#ai"/><radialGradient id="bl" cx="187.75808" cy="182.86599" r="0.14767" gradientTransform="matrix(0.2537, -0.96728, 0.95587, 0.2507, -34.67234, 318.63596)" xlink:href="#aj"/><radialGradient id="bm" cx="182.00565" cy="188.47548" r="0.14767" gradientTransform="matrix(0.2537, -0.96728, 0.95587, 0.2507, -44.32736, 317.2749)" xlink:href="#aj"/><radialGradient id="bn" cx="180.90003" cy="186.76133" r="1.30048" gradientTransform="matrix(1, 0, 0, 1, 0, 0)" xlink:href="#ai"/><radialGradient id="bo" cx="186.65965" cy="187.77841" r="0.59293" gradientTransform="translate(0 27.27862) scale(1 0.85473)" xlink:href="#am"/></defs><g class="c"><polygon class="d" points="42.407 293.266 30.809 299.703 241.865 299.703 259.814 286.572 259.768 284.079 42.407 293.266"/><path class="e" d="M240.68173,258.59864l-.86747-199.38445c-12.06243,5.91817-64.2222,5.9182-80.70649,5.9182q-.37368,0-.74734-.0023c-1.07381-.00638-2.14755-.02454-3.2211-.04871q-1.89675-.04269-3.79291-.1081-2.14153-.07191-4.28241-.16232-2.34514-.09783-4.68961-.21138-2.5076-.12069-5.01451-.25528-2.6289-.14064-5.2571-.294-2.70906-.15778-5.4174-.32758-2.74806-.17213-5.49539-.356-2.74593-.18372-5.49107-.3792-2.70267-.19255-5.40446-.39728-2.61828-.19861-5.23555-.41018-2.49274-.20185-4.98433-.41792-2.32611-.20225-4.6508-.42049-2.11839-.19966-4.235-.4179-.9682-.10042-1.93583-.20636a25.61586,25.61586,0,0,1-2.82683-.5885q-.26058-.05868-.52166-.11522a26.37132,26.37132,0,0,0-7.35363-.70634l-1.23823.08427.221,199.207a9.81,9.81,0,0,0,9.43678,12.48993H231.245A9.80991,9.80991,0,0,0,240.68173,258.59864Z"/><path class="a" d="M246.48648,260.32927V56.21441c0,4.92526-63.58119,8.918-87.37871,8.918q-1.79724,0-3.59432-.02924c-4.79889-.07261-9.59628-.249-14.3905-.4687q-8.51441-.3902-17.01852-.97514-8.76555-.597-17.51591-1.397c-5.3029-.49123-10.60164-1.04461-15.88269-1.73435-3.878-.50649-7.72017-1.49-11.65365-1.44118-3.9553.04913-7.63229,1.67156-11.44574,2.505q-.47635.10416-.95439.20048a19.75525,19.75525,0,0,1-3.84673.58949q-.67953.07353-1.36172.11872c-.22315.015-.86315-.06053-1.01577.13972-.13737.18024.24046.6185.36578.75686a5.19749,5.19749,0,0,0,.75974.60652c.32625.24652.66943.46711,1.00291.70321l3.44455,2.439,5.56351,3.93934.16453.1165V260.32927a11.53455,11.53455,0,0,0,11.12438,14.58326H235.3621A11.53455,11.53455,0,0,0,246.48648,260.32927Z"/><g class="f"><path class="g" d="M241.72527,263.90226c0-8.62279-36.85435-11.59375-82.31649-11.59375S77.0923,255.60684,77.0923,264.22963s8.02531,6.88124,82.31648,7.56925C229.92165,272.4519,241.72527,272.525,241.72527,263.90226Z"/><rect class="h" x="45.04528" y="119.9831" width="225.4691" height="175.35041"/></g><path class="i" d="M246.48648,56.2144c0,4.92525-63.58129,8.918-87.37874,8.918-4.58538,0-9.171-.12348-13.75326-.2835q-9.63721-.33654-19.26389-.92134-10.14446-.604-20.27177-1.46531-3.79275-.32859-7.58111-.70568-3.86516-.38983-7.72152-.86128c-1.244-.1538-2.48349-.35229-3.70836-.61993q-1.85295-.40488-3.73487-.65741a21.88928,21.88928,0,0,0-7.12486-.013c-2.33431.451-4.57211,1.27661-6.88071,1.83049a41.21427,41.21427,0,0,1-8.59192,1.12378,7.22525,7.22525,0,0,1,1.60056-1.3976,37.21621,37.21621,0,0,1,4.44277-2.5362c2.1411-1.07576,4.26248-2.36985,6.4599-3.40579a29.54972,29.54972,0,0,1,7.4349-2.19134c4.44284-.81727,8.93355-1.37894,13.42117-1.88319,5.61074-.63045,11.23527-1.1373,16.86353-1.58239q9.00363-.712,18.02235-1.214,8.44439-.47675,16.89766-.778c4.49441-.15507,8.992-.27435,13.48943-.27435C182.90519,47.29643,246.48648,51.28914,246.48648,56.2144Z"/><g class="j"><path class="k" d="M226.26712,188.34458a4.23235,4.23235,0,0,1-4.13637-3.36033l.00085-65.07106a4.23151,4.23151,0,0,1-.09091-.8719V79.8603a4.23141,4.23141,0,1,1,8.46281,0v38.74049l-.09176,64.63966a4.23535,4.23535,0,0,1-4.14462,5.10413Z"/></g><g class="l"><path class="m" d="M90.85894,210.25063a4.6591,4.6591,0,0,1-5.81061-4.54055l.70409-107.72836a4.6546,4.6546,0,0,1,9.309.06116l-.7041,107.72837A4.65534,4.65534,0,0,1,90.85894,210.25063Z"/></g><circle class="n" cx="227.19828" cy="197.39903" r="4.23358"/><circle class="o" cx="227.19828" cy="124.21667" r="4.23358"/><circle class="p" cx="92.43086" cy="154.89365" r="13.58161" transform="translate(-41.86373 34.47575) rotate(-17.29227)"/><circle class="q" cx="92.25602" cy="204.67438" r="0.45269" transform="translate(-56.66875 36.67382) rotate(-17.29227)"/><circle class="r" cx="92.24241" cy="208.53981" r="0.45269" transform="translate(-57.81833 36.84448) rotate(-17.29226)"/><circle class="s" cx="92.24996" cy="206.39399" r="3.39545" transform="translate(-57.18017 36.74974) rotate(-17.29227)"/><line class="t" x1="92.39316" y1="165.62286" x2="92.24241" y2="208.53981"/><circle class="u" cx="92.39316" cy="165.62286" r="9.05434" transform="translate(-45.05465 34.94949) rotate(-17.29227)"/><circle class="v" cx="92.39316" cy="165.62286" r="4.52727" transform="translate(-45.05465 34.94949) rotate(-17.29226)"/><circle class="w" cx="92.39316" cy="165.62286" r="3.77273" transform="translate(-45.05464 34.94949) rotate(-17.29226)"/><polyline class="x" points="92.393 165.623 94.428 180.354 92.393 165.623 90.359 150.891 92.393 165.623 77.662 167.657 92.393 165.623 107.125 163.588 92.393 165.623 99.987 183.285 92.393 165.623 84.799 147.961 92.393 165.623 74.731 173.217 92.393 165.623 110.055 158.029 92.393 165.623 106.051 177.802 92.393 165.623 78.736 153.444 92.393 165.623 80.214 179.28 92.393 165.623 104.572 151.965 92.393 165.623 93.307 178.37 92.393 165.623 91.479 152.876 92.393 165.623 79.646 166.537 92.393 165.623 105.14 164.709 92.393 165.623 92.734 167.096 92.393 165.623 92.052 164.15 92.393 165.623 90.92 165.964 92.393 165.623 93.867 165.282 92.393 165.623 88.128 184.442 92.393 165.623 96.659 146.804 92.393 165.623 73.574 161.358 92.393 165.623 111.212 169.888 92.393 165.623 90.01 171.891 92.393 165.623 94.776 159.355 92.393 165.623 86.125 163.24 92.393 165.623 98.661 168.006 92.393 165.623 95.783 169.324 92.393 165.623 89.003 161.922 92.393 165.623 88.692 169.013 92.393 165.623 96.094 162.233 92.393 165.623 113.039 174.794 92.393 165.623 71.747 156.452 92.393 165.623 83.222 186.269 92.393 165.623 101.564 144.977 92.393 165.623 101.46 182.103 92.393 165.623 83.327 149.143 92.393 165.623 75.913 174.689 92.393 165.623 108.873 156.556 92.393 165.623 102.064 185.216 92.393 165.623 82.722 146.03 92.393 165.623 72.8 175.294 92.393 165.623 111.986 155.952 92.393 165.623 95.258 168.852 92.393 165.623 89.528 162.393 92.393 165.623 89.164 168.488 92.393 165.623 95.623 162.758 92.393 165.623 106.609 172.135 92.393 165.623 78.178 159.111 92.393 165.623 85.881 179.838 92.393 165.623 98.905 151.407 92.393 165.623 91.565 182.324 92.393 165.623 93.221 148.922 92.393 165.623 75.692 164.795 92.393 165.623 109.094 166.451 92.393 165.623 97.271 178.402 92.393 165.623 87.515 152.844 92.393 165.623 79.614 170.501 92.393 165.623 105.172 160.745"/><circle class="y" cx="92.24241" cy="208.53981" r="6.79091" transform="translate(-57.81834 36.84448) rotate(-17.29226)"/><circle class="z" cx="92.27161" cy="200.25225" r="1.93017"/><circle class="aa" cx="92.35015" cy="177.88157" r="1.0781" transform="translate(-48.70044 35.49079) rotate(-17.29226)"/><circle class="ab" cx="92.30223" cy="191.52926" r="0.71405" transform="translate(-52.75932 36.0934) rotate(-17.29226)"/><circle class="ac" cx="92.2946" cy="193.68873" r="1.00413" transform="translate(-53.40157 36.18875) rotate(-17.29226)"/><circle class="ad" cx="92.27299" cy="199.82991" r="1.86426" transform="translate(-55.22798 36.4599) rotate(-17.29227)"/><circle class="ae" cx="99.27368" cy="62.70216" r="6.99971"/><path class="b" d="M236.39034,255.07313V121.99453h0c0,4.74736-55.69483,8.59581-77.27169,8.59581s-77.29359-3.84845-77.29359-8.59581h0V255.07318c.07619,5.90272,2.7717,11.8329,8.94029,11.8329h136.6847C233.61844,266.90608,236.46333,260.85758,236.39034,255.07313Z"/><g class="af"><path class="ag" d="M163.73569,156.26561c-18.67792,1.50493-37.416,2.26908-56.09287,3.8-19.9941,1.63886-41.801,7.14928-57.53907,20.1983q-.22448.18612-.44662.375c-8.76135,7.42889-15.9763,17.98992-15.41066,29.46293.44337,8.99281,5.68342,17.23709,12.52839,23.08634s15.20215,9.61118,23.5767,12.91789c48.69347,19.22676,104.26913,25.27834,153.42829,7.27559,9.885-3.62,19.52717-8.23322,27.684-14.88789s14.78233-15.49629,17.51362-25.66283c2.8151-10.47851,1.31454-21.88724-3.2578-31.72684-4.33138-9.32105-11.14834-16.47991-13.97464-26.61155-.52426-1.87938-1.108-3.95817-2.75385-5.00613a7.51487,7.51487,0,0,0-3.74218-.85011c-21.64114-1.0035-42.5259,3.5073-63.88286,5.93934C175.49783,155.2439,169.61975,155.79151,163.73569,156.26561Z"/><path class="ah" d="M158.866,196.16526c-18.41325,3.47587-36.96487,6.22152-55.37429,9.7231-19.70782,3.74853-40.80793,11.53894-55.0745,26.18234q-.20349.20886-.40436.42023c-7.92473,8.31554-13.97983,19.58172-12.2015,30.93017,1.39389,8.89519,7.47813,16.53772,14.90443,21.62863s16.13511,7.946,24.81293,10.34657c50.45684,13.95813,106.36086,14.08593,153.33532-9.02515,9.44573-4.64722,18.54468-10.25627,25.95034-17.7379s13.05684-16.9756,14.69534-27.37434c1.68877-10.71784-1.01239-21.90329-6.60174-31.20292-5.29481-8.80954-12.832-15.20565-16.71614-24.98072-.72049-1.81324-1.52127-3.81845-3.26888-4.68609a7.51484,7.51484,0,0,0-3.8112-.44874c-21.62561,1.2956-41.91472,7.99429-62.89368,12.676C170.45365,193.9028,164.6667,195.07026,158.866,196.16526Z"/></g><path class="ai" d="M236.39034,121.99452c0,4.74735-55.69476,8.59583-77.27164,8.59583s-77.29364-3.84848-77.29364-8.59583,55.71675-8.59582,77.29364-8.59582S236.39034,117.24718,236.39034,121.99452Z"/><g class="aj"><circle class="ak" cx="129.47837" cy="130.59035" r="14.91016"/><ellipse class="al" cx="128.42943" cy="122.37212" rx="9.96443" ry="6.00743" transform="matrix(0.99712, -0.07578, 0.07578, 0.99712, -8.90363, 10.08371)"/><circle class="am" cx="137.41054" cy="123.10411" r="1.22104"/><circle class="an" cx="139.31817" cy="124.70762" r="0.4427"/><circle class="ao" cx="122.93352" cy="140.68513" r="0.4427"/><path class="ap" d="M117.61509,131.67873c-.1463,2.87815,1.58571,7.02963,4.34722,8.24794"/><circle class="aq" cx="136.18951" cy="138.69966" r="1.35526"/></g><g class="aj"><circle class="ar" cx="173.69654" cy="112.31353" r="8.42633"/><ellipse class="as" cx="173.10375" cy="107.66908" rx="5.6313" ry="3.39504" transform="translate(-7.66104 13.42669) rotate(-4.34581)"/><circle class="at" cx="178.17934" cy="108.08275" r="0.69006"/><circle class="au" cx="179.25741" cy="108.98896" r="0.25019"/><circle class="av" cx="169.99779" cy="118.0185" r="0.25019"/><path class="aw" d="M166.99213,112.92861c-.08268,1.62656.89615,3.97273,2.45679,4.66125"/><circle class="ax" cx="177.48928" cy="116.89643" r="0.76591"/></g><g class="aj"><circle class="ay" cx="155.84129" cy="93.33985" r="4.48279"/><ellipse class="az" cx="155.52592" cy="90.86901" rx="2.99584" ry="1.80616" transform="translate(-6.43854 12.0464) rotate(-4.34581)"/><circle class="ba" cx="158.22613" cy="91.08908" r="0.36711"/><circle class="bb" cx="158.79966" cy="91.57118" r="0.1331"/><circle class="bc" cx="153.87356" cy="96.37488" r="0.1331"/><path class="bd" d="M152.27455,93.66707a2.79181,2.79181,0,0,0,1.307,2.47978"/><circle class="be" cx="157.85902" cy="95.77794" r="0.40746"/></g><g class="bf"><circle class="bg" cx="201.24766" cy="164.49202" r="9.8398"/><ellipse class="bh" cx="200.55542" cy="159.06849" rx="6.57592" ry="3.96454" transform="translate(-11.47696 15.65465) rotate(-4.34581)"/><circle class="bi" cx="206.48242" cy="159.55155" r="0.80581"/><circle class="bj" cx="207.74134" cy="160.60977" r="0.29216"/><circle class="bk" cx="196.92846" cy="171.15397" r="0.29216"/><path class="bl" d="M193.41861,165.21028c-.09655,1.89941,1.04647,4.63914,2.86891,5.44315"/><circle class="bm" cx="205.67661" cy="169.84368" r="0.89439"/></g><g class="bf"><circle class="bn" cx="184.30346" cy="184.93134" r="5.23476"/><ellipse class="bo" cx="183.93519" cy="182.04603" rx="3.49838" ry="2.10913" transform="translate(-13.26589 14.46129) rotate(-4.34581)"/><circle class="bp" cx="187.08834" cy="182.30302" r="0.42869"/><circle class="bq" cx="187.75808" cy="182.86599" r="0.15543"/><circle class="br" cx="182.00565" cy="188.47548" r="0.15543"/><path class="bs" d="M180.13842,185.31345a3.26012,3.26012,0,0,0,1.52625,2.89575"/><circle class="bt" cx="186.65965" cy="187.77841" r="0.47582"/></g><polygon class="bu" points="253.145 214.109 57.584 214.109 42.407 293.266 237.968 293.266 253.145 214.109"/><polygon class="bv" points="253.145 214.109 259.768 284.079 257.16 286.124 242.169 286.285 241.061 290.841 237.968 293.266 253.145 214.109"/><path class="bw" d="M114.61781,231.39713a3.42937,3.42937,0,0,1,1.27637-1.26855,3.90059,3.90059,0,0,1,1.58984-.47852,1.93483,1.93483,0,0,1,2.00488,1.17285,2.55418,2.55418,0,0,1-.39843,2.53711,43.29553,43.29553,0,0,0-3.7461,6.77344,3.63181,3.63181,0,0,1-1.59082,1.72266,3.26778,3.26778,0,0,1-2.09277.47851,1.916,1.916,0,0,1-1.40528-1.17187A2.42394,2.42394,0,0,1,110.32,239.152,57.27916,57.27916,0,0,1,114.61781,231.39713Z"/><path class="bw" d="M123.82191,230.46354a3.4767,3.4767,0,0,1,1.97949-.76563l12.78223-.0957a1.862,1.862,0,0,1,1.82715,1.0293,2.51749,2.51749,0,0,1-.39453,2.3457,62.59224,62.59224,0,0,0-6.43946,14.168,3.068,3.068,0,0,1-1.30761,1.65234,2.773,2.773,0,0,1-1.94629.64649,1.642,1.642,0,0,1-1.43653-.88672,2.10875,2.10875,0,0,1-.14257-1.77051,78.14126,78.14126,0,0,1,5.09472-12.20606l-9.3291.07227a1.798,1.798,0,0,1-1.584-.69531,2.14311,2.14311,0,0,1-.28711-1.77051A3.14578,3.14578,0,0,1,123.82191,230.46354Z"/><path class="bw" d="M146.23793,237.14127a30.48859,30.48859,0,0,1-1.02832-4.16406,2.46912,2.46912,0,0,1,.7998-2.25,2.83578,2.83578,0,0,1,2.21875-1.125,1.57186,1.57186,0,0,1,1.85547,1.46,24.22794,24.22794,0,0,0,2.28125,6.96484,20.02949,20.02949,0,0,0,5.4873-6.48535,3.84566,3.84566,0,0,1,1.26758-1.41308,2.65728,2.65728,0,0,1,1.60254-.52637,1.6894,1.6894,0,0,1,1.63281.86133,2.11388,2.11388,0,0,1-.06445,2.01074q-2.04931,4.30811-7.64551,9.07129a43.14094,43.14094,0,0,0,3.00293,3.23047,1.7229,1.7229,0,0,1,.51953,1.53222,2.93414,2.93414,0,0,1-.92187,1.81934,3.25141,3.25141,0,0,1-1.833.93359,2.11182,2.11182,0,0,1-1.64746-.45507,28.32342,28.32342,0,0,1-5.69629-7.34766q-3.27539,3.35155-3.94922,5.83984a3.05031,3.05031,0,0,1-1.16406,1.65039,3.09787,3.09787,0,0,1-1.86328.69532,1.85754,1.85754,0,0,1-1.52246-.74219,1.94043,1.94043,0,0,1-.22266-1.65235Q140.60414,242.57584,146.23793,237.14127Z"/><path class="bw" d="M161.98109,245.92545a65.90705,65.90705,0,0,1,6.10938-7.37207,30.9708,30.9708,0,0,0-.09571-5.57617,2.56808,2.56808,0,0,1,.8125-2.29785,3.28444,3.28444,0,0,1,2.34961-1.07715,1.65042,1.65042,0,0,1,1.87793,1.55566,26.01164,26.01164,0,0,1,.16309,2.84864,26.73863,26.73863,0,0,1,7.93457-4.11719c.13476-.03125.27148-.06348.4082-.0957a8.52615,8.52615,0,0,1,1.67871-.19141h.335a6.98991,6.98991,0,0,1,1.14746.0957,2.91233,2.91233,0,0,1,2.31934,1.60352q.75439,1.72266-.80469,5.09765-3.83349,8.42578-4.03418,10.05274a3.28925,3.28925,0,0,1-1.16406,1.91406,2.99947,2.99947,0,0,1-2.02148.83789H175.9098c-.00781.03223-.06055.04883-.15723.04883l-.17968.04687H171.5514a1.653,1.653,0,0,1-1.51172-.69335,1.9004,1.9004,0,0,1-.31054-1.77149,3.12991,3.12991,0,0,1,1.23535-1.65137,2.94608,2.94608,0,0,1,1.91308-.79h3.49512a.187.187,0,0,0,.10938-.04785h1.26758q.22411-.74121,3.91894-8.83105a4.96245,4.96245,0,0,0,.36133-.98145,6.21607,6.21607,0,0,0-.75391.04785q-7.62744,2.53712-15.2959,13.28321a3.48259,3.48259,0,0,1-1.77636,1.43554,2.30893,2.30893,0,0,1-1.90137-.04687,1.65694,1.65694,0,0,1-.92773-1.43652A2.78049,2.78049,0,0,1,161.98109,245.92545Zm14.542,3.13574c.04-.03222.19239-.15234.45508-.35937a4.0488,4.0488,0,0,1-.59863.35937Q176.59632,248.96451,176.52308,249.06119Z"/><path class="bw" d="M115.484,263.25846a3.418,3.418,0,0,1,1.27734-1.26856,3.90954,3.90954,0,0,1,1.58887-.47949,1.9368,1.9368,0,0,1,2.00488,1.17383,2.55448,2.55448,0,0,1-.39843,2.53711,43.29508,43.29508,0,0,0-3.7461,6.77344,3.63179,3.63179,0,0,1-1.59082,1.72265,3.26773,3.26773,0,0,1-2.09277.47852,1.92063,1.92063,0,0,1-1.40527-1.17285,2.42421,2.42421,0,0,1,.06543-2.01074A57.26187,57.26187,0,0,1,115.484,263.25846Z"/><path class="bw" d="M124.6891,262.32487a3.4645,3.4645,0,0,1,1.97851-.76563l12.78223-.0957a1.86053,1.86053,0,0,1,1.82715,1.02929,2.51525,2.51525,0,0,1-.39453,2.34473,62.66631,62.66631,0,0,0-6.43946,14.16895,3.06352,3.06352,0,0,1-1.30761,1.65234,2.76581,2.76581,0,0,1-1.94629.64551,1.63843,1.63843,0,0,1-1.43555-.88574,2.10912,2.10912,0,0,1-.14355-1.77051,78.10157,78.10157,0,0,1,5.09472-12.20606l-9.3291.07129a1.79313,1.79313,0,0,1-1.583-.69433,2.14119,2.14119,0,0,1-.28711-1.77149A3.13861,3.13861,0,0,1,124.6891,262.32487Z"/><path class="bw" d="M146.83754,263.25846a3.418,3.418,0,0,1,1.27734-1.26856,3.90954,3.90954,0,0,1,1.58887-.47949,1.93681,1.93681,0,0,1,2.00488,1.17383,2.55446,2.55446,0,0,1-.39844,2.53711,43.295,43.295,0,0,0-3.74609,6.77344,3.63184,3.63184,0,0,1-1.59082,1.72265,3.26776,3.26776,0,0,1-2.09278.47852,1.92067,1.92067,0,0,1-1.40527-1.17285,2.42421,2.42421,0,0,1,.06543-2.01074A57.263,57.263,0,0,1,146.83754,263.25846Z"/><path class="bw" d="M154.43715,273.4069a3.67186,3.67186,0,0,1,1.209-1.55664,3.07066,3.07066,0,0,1,1.83789-.69336,1.77683,1.77683,0,0,1,1.63672.83789,2.10007,2.10007,0,0,1,.06738,1.96191l-7.09961,19.00293a3.45739,3.45739,0,0,1-1.373,1.62793,2.98576,2.98576,0,0,1-1.9795.59863,1.89585,1.89585,0,0,1-1.374-.93359,2.14186,2.14186,0,0,1-.082-1.81836Zm2.34765-11.082a3.26778,3.26778,0,0,1,1.917-.71778l12.81934-.14355a1.732,1.732,0,0,1,1.7666,1.07617,2.35149,2.35149,0,0,1-.35742,2.29785,62.48256,62.48256,0,0,0-6.42578,14.12207,3.09268,3.09268,0,0,1-1.28418,1.65039,2.9244,2.9244,0,0,1-1.99414.64649,1.75346,1.75346,0,0,1-1.42578-.83789,2.14189,2.14189,0,0,1-.167-1.77051,79.497,79.497,0,0,1,5.11914-12.20606l-9.28222.07129a1.84736,1.84736,0,0,1-1.63086-.69433,2.09029,2.09029,0,0,1-.31055-1.77149A3.3512,3.3512,0,0,1,156.7848,262.32487Z"/></g></svg>