<svg xmlns="http://www.w3.org/2000/svg" xmlns:xlink="http://www.w3.org/1999/xlink" viewBox="0 0 303.95444 341.11501"><defs><style>.a,.d{opacity:0.72;}.a{fill:url(#a);}.ad,.b,.j{opacity:0.8;}.b{fill:url(#b);}.c{isolation:isolate;}.d{fill:url(#c);}.e{fill:#683c11;fill-opacity:0.51;}.f,.h{mix-blend-mode:multiply;}.f{fill:url(#d);}.g{clip-path:url(#f);}.h{fill:url(#g);}.i{opacity:0.42;fill:url(#h);}.ba,.j{mix-blend-mode:hard-light;}.k{fill:url(#i);}.l{opacity:0.25;fill:url(#j);}.l,.m,.n,.o,.q,.r,.s,.t,.u,.v,.w,.x,.y,.z{mix-blend-mode:screen;}.m{fill:url(#k);}.n{fill:url(#l);}.o{opacity:0.2;fill:url(#m);}.ak,.ar,.ay,.bg,.bn,.p,.t{fill:none;}.q{opacity:0.15;fill:url(#n);}.bu,.r,.u{opacity:0.5;}.r{fill:url(#o);}.s{fill:url(#p);}.t{stroke:#fff;stroke-width:1.69256px;opacity:0.03;}.ad,.t{stroke-miterlimit:10;}.u{fill:url(#q);}.v{fill:url(#r);}.w{fill:url(#s);}.x{fill:url(#t);}.y{fill:url(#u);}.z{fill:url(#v);}.aa{clip-path:url(#x);}.ab,.ac,.ae{opacity:0.3;}.ab{fill:url(#y);}.ac{fill:url(#z);}.ad,.ak{stroke-width:0.84628px;}.ad{fill:url(#aa);stroke:url(#ab);}.af{fill:url(#ac);}.ag,.aj,.ak,.an,.aq,.ar,.au,.ax,.ay,.bc,.bf,.bg,.bj,.bm,.bn{mix-blend-mode:soft-light;}.ag{fill:url(#ad);}.ah{fill:url(#ae);}.ai{fill:url(#af);}.aj{fill:url(#ag);}.ak,.ar,.ay,.bg,.bn{stroke-linecap:round;stroke-linejoin:round;}.ak{stroke:url(#ah);}.al{fill:url(#ai);}.am{fill:url(#aj);}.an{fill:url(#ak);}.ao{fill:url(#al);}.ap{fill:url(#am);}.aq{fill:url(#an);}.ar{stroke-width:0.47827px;stroke:url(#ao);}.as{fill:url(#ap);}.at{fill:url(#aq);}.au{fill:url(#ar);}.av{fill:url(#as);}.aw{fill:url(#at);}.ax{fill:url(#au);}.ay{stroke-width:0.25444px;stroke:url(#av);}.az{fill:url(#aw);}.ba{opacity:0.2;}.bb{fill:url(#ax);}.bc{fill:url(#ay);}.bd{fill:url(#az);}.be{fill:url(#ba);}.bf{fill:url(#bb);}.bg{stroke-width:0.55849px;stroke:url(#bc);}.bh{fill:url(#bd);}.bi{fill:url(#be);}.bj{fill:url(#bf);}.bk{fill:url(#bg);}.bl{fill:url(#bh);}.bm{fill:url(#bi);}.bn{stroke-width:0.29712px;stroke:url(#bj);}.bo{fill:url(#bk);}.bp{fill:#fff;}.bq{fill:#c6c6c6;}.br{fill:#3c3c3b;}.bs{opacity:0.54;}.bt{fill:url(#bl);}.bu{fill:url(#bm);}</style><linearGradient id="a" x1="99.17782" y1="165.56347" x2="193.5584" y2="165.56347" gradientUnits="userSpaceOnUse"><stop offset="0" stop-color="#f5fbff"/><stop offset="0.62567" stop-color="#e9f1f5"/><stop offset="1" stop-color="#c5d9e0"/></linearGradient><linearGradient id="b" x1="213.24214" y1="270.68209" x2="95.14203" y2="114.15705" gradientUnits="userSpaceOnUse"><stop offset="0" stop-color="#9407bb"/><stop offset="1" stop-color="#b939f0"/></linearGradient><linearGradient id="c" x1="147.61909" y1="38.3778" x2="147.61909" y2="64.94849" xlink:href="#a"/><linearGradient id="d" x1="165.47233" y1="61.71976" x2="143.17476" y2="243.33184" gradientUnits="userSpaceOnUse"><stop offset="0" stop-color="#bfc4c7"/><stop offset="1" stop-color="#b1c3c9"/></linearGradient><clipPath id="f"><path class="a" d="M240.62706,260.32927V56.21441c0,4.92526-63.58119,8.918-87.37871,8.918q-1.79724,0-3.59431-.02924c-4.7989-.07261-9.59629-.249-14.39051-.4687q-8.51439-.3902-17.01851-.97514-8.76556-.597-17.51592-1.397c-5.3029-.49123-10.60164-1.04461-15.88269-1.73435-3.878-.50649-7.72017-1.49-11.65365-1.44118-3.9553.04913-7.63229,1.67156-11.44574,2.505q-.47635.10416-.95438.20048a19.75535,19.75535,0,0,1-3.84674.58949q-.67953.07353-1.36172.11872c-.22315.015-.86315-.06053-1.01577.13972-.13737.18024.24046.6185.36578.75686a5.19749,5.19749,0,0,0,.75974.60652c.32625.24652.66943.46711,1.00291.70321l3.44455,2.439,5.56351,3.93934.16453.1165V260.32927a11.53455,11.53455,0,0,0,11.12438,14.58326H229.50268A11.53455,11.53455,0,0,0,240.62706,260.32927Z"/></clipPath><linearGradient id="g" x1="114.5918" y1="163.94125" x2="165.76898" y2="296.11187" gradientUnits="userSpaceOnUse"><stop offset="0" stop-color="#f5f5f5"/><stop offset="1" stop-color="#c3d1d6"/></linearGradient><linearGradient id="h" x1="93.15075" y1="207.6583" x2="207.24902" y2="207.6583" xlink:href="#b"/><radialGradient id="i" cx="-1421.28502" cy="-1569.73008" r="54.27899" gradientTransform="matrix(0.00636, -0.99998, 0.15751, 0.001, 340.47256, -1267.80806)" gradientUnits="userSpaceOnUse"><stop offset="0" stop-color="#e6f3ff"/><stop offset="1" stop-color="#b9cbf0" stop-opacity="0"/></radialGradient><radialGradient id="j" cx="-1681.13061" cy="-1962.35812" r="13.58164" gradientTransform="translate(1767.70195 2117.25186)" gradientUnits="userSpaceOnUse"><stop offset="0.1"/><stop offset="0.11244" stop-color="#080602"/><stop offset="0.16172" stop-color="#231b08"/><stop offset="0.21838" stop-color="#392c0d"/><stop offset="0.28458" stop-color="#4a3910"/><stop offset="0.36644" stop-color="#554213"/><stop offset="0.48125" stop-color="#5c4815"/><stop offset="0.8" stop-color="#5e4915"/><stop offset="1"/></radialGradient><radialGradient id="k" cx="-1696.09466" cy="-1914.87941" r="0.45271" gradientTransform="translate(1782.49117 2119.55387)" gradientUnits="userSpaceOnUse"><stop offset="0" stop-color="#d4e194"/><stop offset="0.05952" stop-color="#afba7a"/><stop offset="0.13651" stop-color="#868f5e"/><stop offset="0.21955" stop-color="#626845"/><stop offset="0.30759" stop-color="#44482f"/><stop offset="0.40211" stop-color="#2b2e1e"/><stop offset="0.50556" stop-color="#181911"/><stop offset="0.62249" stop-color="#0a0b07"/><stop offset="0.76429" stop-color="#020302"/><stop offset="1"/></radialGradient><radialGradient id="l" cx="-1697.25664" cy="-1911.19274" r="0.45271" gradientTransform="translate(1783.63974 2119.73245)" xlink:href="#k"/><radialGradient id="m" cx="-1696.6116" cy="-1913.23933" r="3.39543" gradientTransform="translate(1783.00206 2119.63338)" gradientUnits="userSpaceOnUse"><stop offset="0.05"/><stop offset="0.09242" stop-color="#040a03"/><stop offset="0.29802" stop-color="#183411"/><stop offset="0.48337" stop-color="#25531c"/><stop offset="0.64031" stop-color="#2e6622"/><stop offset="0.75" stop-color="#316d24"/><stop offset="0.78593" stop-color="#4f6e16"/><stop offset="0.83397" stop-color="#716f06"/><stop offset="0.86" stop-color="#7e6f00"/><stop offset="0.88764" stop-color="#7a6c00"/><stop offset="0.91229" stop-color="#706200"/><stop offset="0.93581" stop-color="#5d5200"/><stop offset="0.95863" stop-color="#443c00"/><stop offset="0.98074" stop-color="#231f00"/><stop offset="1"/></radialGradient><radialGradient id="n" cx="-1684.35582" cy="-1952.12507" r="9.05439" gradientTransform="translate(1770.88947 2117.74801)" gradientUnits="userSpaceOnUse"><stop offset="0" stop-color="#200"/><stop offset="0.73" stop-color="#984023"/><stop offset="1" stop-color="#200"/></radialGradient><radialGradient id="o" cx="-1684.35582" cy="-1952.12507" r="4.52725" gradientTransform="translate(1770.88951 2117.74798)" gradientUnits="userSpaceOnUse"><stop offset="0.15" stop-color="#fff"/><stop offset="0.20939" stop-color="#e5d3d3"/><stop offset="0.29044" stop-color="#c49c9e"/><stop offset="0.36051" stop-color="#ad7477"/><stop offset="0.41599" stop-color="#9e5c5f"/><stop offset="0.45" stop-color="#995356"/><stop offset="0.57175" stop-color="#6b3335"/><stop offset="0.69355" stop-color="#431718"/><stop offset="0.79053" stop-color="#2b0606"/><stop offset="0.85" stop-color="#200"/><stop offset="0.85727" stop-color="#260201"/><stop offset="0.8648" stop-color="#330704"/><stop offset="0.87246" stop-color="#471009"/><stop offset="0.8802" stop-color="#641d0f"/><stop offset="0.88801" stop-color="#8a2e18"/><stop offset="0.89577" stop-color="#b74223"/><stop offset="0.9" stop-color="#d34e29"/><stop offset="0.90254" stop-color="#c84927"/><stop offset="0.91417" stop-color="#9c361c"/><stop offset="0.92635" stop-color="#772514"/><stop offset="0.93893" stop-color="#58180c"/><stop offset="0.95205" stop-color="#400d07"/><stop offset="0.96594" stop-color="#2f0603"/><stop offset="0.98111" stop-color="#250101"/><stop offset="1" stop-color="#200"/></radialGradient><radialGradient id="p" cx="-1684.35582" cy="-1952.12507" r="3.7727" gradientTransform="translate(1770.8895 2117.74798)" gradientUnits="userSpaceOnUse"><stop offset="0.15" stop-color="#fff"/><stop offset="0.28237" stop-color="#c2c2c2"/><stop offset="0.42528" stop-color="#888"/><stop offset="0.5636" stop-color="#575757"/><stop offset="0.69361" stop-color="#313131"/><stop offset="0.81336" stop-color="#161616"/><stop offset="0.91921" stop-color="#060606"/><stop offset="1"/></radialGradient><radialGradient id="q" cx="-1697.25664" cy="-1911.19274" r="6.79086" gradientTransform="translate(1783.63963 2119.73255)" gradientUnits="userSpaceOnUse"><stop offset="0.64"/><stop offset="0.71799" stop-color="#000200"/><stop offset="0.74608" stop-color="#020902"/><stop offset="0.76609" stop-color="#051405"/><stop offset="0.78228" stop-color="#082509"/><stop offset="0.79598" stop-color="#0d3b0e"/><stop offset="0.8" stop-color="#0f4310"/><stop offset="0.8131" stop-color="#1e2c0a"/><stop offset="0.82975" stop-color="#2d1605"/><stop offset="0.84569" stop-color="#360901"/><stop offset="0.86" stop-color="#390400"/><stop offset="0.8715" stop-color="#250300"/><stop offset="0.88602" stop-color="#140100"/><stop offset="0.90412" stop-color="#090100"/><stop offset="0.92951" stop-color="#020000"/><stop offset="1"/></radialGradient><radialGradient id="r" cx="-1694.76532" cy="-1919.09702" r="1.93017" gradientTransform="translate(2275.01953 1528.84579) rotate(-17.29226)" gradientUnits="userSpaceOnUse"><stop offset="0.1"/><stop offset="0.24639" stop-color="#1b1103"/><stop offset="0.42619" stop-color="#362207"/><stop offset="0.61009" stop-color="#492e09"/><stop offset="0.79889" stop-color="#54350b"/><stop offset="1" stop-color="#58370b"/></radialGradient><radialGradient id="s" cx="-1688.04073" cy="-1940.43323" r="1.07807" gradientTransform="translate(1774.53143 2118.31483)" gradientUnits="userSpaceOnUse"><stop offset="0.1" stop-color="#192f1b"/><stop offset="0.2285" stop-color="#122214"/><stop offset="0.47516" stop-color="#080f09"/><stop offset="0.72928" stop-color="#020402"/><stop offset="1"/></radialGradient><radialGradient id="t" cx="-1692.14321" cy="-1927.41665" r="0.714" gradientTransform="translate(1778.58604 2118.94588)" xlink:href="#r"/><radialGradient id="u" cx="-1692.79239" cy="-1925.35704" r="1.00408" gradientTransform="translate(1779.22755 2119.0458)" gradientUnits="userSpaceOnUse"><stop offset="0.1"/><stop offset="0.29001" stop-color="#14160e"/><stop offset="0.51699" stop-color="#25291a"/><stop offset="0.75084" stop-color="#303422"/><stop offset="1" stop-color="#333824"/></radialGradient><radialGradient id="v" cx="-1694.63846" cy="-1919.49986" r="1.86428" gradientTransform="translate(1781.05193 2119.32987)" xlink:href="#s"/><clipPath id="x"><path class="b" d="M230.53092,255.07313V121.99453h0c0,4.74736-55.69483,8.59581-77.27169,8.59581s-77.29358-3.84845-77.29358-8.59581h0V255.07318c.07618,5.90272,2.77169,11.8329,8.94028,11.8329h136.6847C227.759,266.90608,230.60391,260.85758,230.53092,255.07313Z"/></clipPath><linearGradient id="y" x1="309.90602" y1="217.33703" x2="62.8719" y2="194.35711" xlink:href="#b"/><linearGradient id="z" x1="29.63982" y1="242.44061" x2="264.1488" y2="242.44061" xlink:href="#b"/><linearGradient id="aa" x1="290.50114" y1="121.99452" x2="107.35495" y2="121.99452" xlink:href="#b"/><linearGradient id="ab" x1="75.54251" y1="121.99452" x2="230.95406" y2="121.99452" gradientUnits="userSpaceOnUse"><stop offset="0" stop-color="#c926ff"/><stop offset="1" stop-color="#b939f0"/></linearGradient><radialGradient id="ac" cx="123.61895" cy="130.59035" r="14.16583" gradientTransform="matrix(0.2537, -0.96728, 0.95587, 0.2507, -32.57066, 217.42533)" gradientUnits="userSpaceOnUse"><stop offset="0" stop-color="#9b35c7" stop-opacity="0.8"/><stop offset="0.29921" stop-color="#9e39ca" stop-opacity="0.80046"/><stop offset="0.52418" stop-color="#a644d2" stop-opacity="0.80193"/><stop offset="0.72493" stop-color="#b558e0" stop-opacity="0.8044"/><stop offset="0.91041" stop-color="#c974f3" stop-opacity="0.80787"/><stop offset="1" stop-color="#d585ff" stop-opacity="0.81"/></radialGradient><radialGradient id="ad" cx="1179.24472" cy="163.07194" r="9.1779" gradientTransform="translate(-1344.58894 -3.36869) scale(1.24415 0.77108)" gradientUnits="userSpaceOnUse"><stop offset="0" stop-color="#db52eb"/><stop offset="0.37881" stop-color="#db52eb" stop-opacity="0.99203"/><stop offset="0.51527" stop-color="#da53ea" stop-opacity="0.96313"/><stop offset="0.61253" stop-color="#da55ea" stop-opacity="0.91281"/><stop offset="0.69121" stop-color="#d957e9" stop-opacity="0.8409"/><stop offset="0.75863" stop-color="#d75ae7" stop-opacity="0.74715"/><stop offset="0.81834" stop-color="#d65ee5" stop-opacity="0.63133"/><stop offset="0.87231" stop-color="#d462e3" stop-opacity="0.49335"/><stop offset="0.92196" stop-color="#d267e1" stop-opacity="0.33264"/><stop offset="0.96609" stop-color="#cf6dde" stop-opacity="0.15775"/><stop offset="1" stop-color="#cd72dc" stop-opacity="0"/></radialGradient><radialGradient id="ae" cx="131.55113" cy="123.10411" r="1.16008" gradientTransform="matrix(0.2537, -0.96728, 0.95587, 0.2507, -19.49496, 219.48859)" gradientUnits="userSpaceOnUse"><stop offset="0" stop-color="#e9c1eb"/><stop offset="0.37881" stop-color="#e9c0eb" stop-opacity="0.99203"/><stop offset="0.51527" stop-color="#e8beea" stop-opacity="0.96313"/><stop offset="0.61253" stop-color="#e7baea" stop-opacity="0.91281"/><stop offset="0.69121" stop-color="#e5b4e9" stop-opacity="0.8409"/><stop offset="0.75863" stop-color="#e2ade7" stop-opacity="0.74715"/><stop offset="0.81834" stop-color="#dfa4e5" stop-opacity="0.63133"/><stop offset="0.87231" stop-color="#db99e3" stop-opacity="0.49335"/><stop offset="0.92196" stop-color="#d68ce1" stop-opacity="0.33264"/><stop offset="0.96609" stop-color="#d17ede" stop-opacity="0.15775"/><stop offset="1" stop-color="#cd72dc" stop-opacity="0"/></radialGradient><radialGradient id="af" cx="133.45875" cy="124.70762" r="0.4206" gradientTransform="matrix(0.2537, -0.96728, 0.95587, 0.2507, -19.60405, 222.53531)" gradientUnits="userSpaceOnUse"><stop offset="0" stop-color="#e9c1eb"/><stop offset="0.22496" stop-color="#e9c0eb" stop-opacity="0.98901"/><stop offset="0.3644" stop-color="#e8bdea" stop-opacity="0.95275"/><stop offset="0.48062" stop-color="#e6b8e9" stop-opacity="0.89088"/><stop offset="0.58411" stop-color="#e3b1e8" stop-opacity="0.80322"/><stop offset="0.67914" stop-color="#e0a8e6" stop-opacity="0.68961"/><stop offset="0.7679" stop-color="#dc9de4" stop-opacity="0.55"/><stop offset="0.85188" stop-color="#d890e2" stop-opacity="0.38414"/><stop offset="0.92991" stop-color="#d382df" stop-opacity="0.19725"/><stop offset="1" stop-color="#cd72dc" stop-opacity="0"/></radialGradient><radialGradient id="ag" cx="117.0741" cy="140.68513" r="0.4206" gradientTransform="matrix(0.2537, -0.96728, 0.95587, 0.2507, -47.10443, 218.65859)" xlink:href="#af"/><radialGradient id="ah" cx="113.92498" cy="135.8027" r="3.70417" gradientTransform="matrix(1, 0, 0, 1, 0, 0)" xlink:href="#ae"/><radialGradient id="ai" cx="130.33009" cy="138.69966" r="1.68884" gradientTransform="translate(0 20.14894) scale(1 0.85473)" gradientUnits="userSpaceOnUse"><stop offset="0" stop-color="#db52eb"/><stop offset="0.09168" stop-color="#db53eb" stop-opacity="0.96822"/><stop offset="0.22975" stop-color="#d956e9" stop-opacity="0.88033"/><stop offset="0.39704" stop-color="#d75ae7" stop-opacity="0.73641"/><stop offset="0.58721" stop-color="#d561e4" stop-opacity="0.53628"/><stop offset="0.79369" stop-color="#d169e0" stop-opacity="0.2836"/><stop offset="1" stop-color="#cd72dc" stop-opacity="0"/></radialGradient><radialGradient id="aj" cx="167.83713" cy="112.31353" r="8.00568" gradientTransform="matrix(0.2537, -0.96728, 0.95587, 0.2507, 17.89981, 246.50211)" xlink:href="#ac"/><radialGradient id="ak" cx="1215.94445" cy="150.57313" r="5.1868" gradientTransform="translate(-1345.57464 -8.43421) scale(1.24415 0.77108)" xlink:href="#ad"/><radialGradient id="al" cx="172.31992" cy="108.08275" r="0.65561" gradientTransform="matrix(0.2537, -0.96728, 0.95587, 0.2507, 25.28941, 247.66815)" xlink:href="#ae"/><radialGradient id="am" cx="173.398" cy="108.98896" r="0.2377" gradientTransform="matrix(0.2537, -0.96728, 0.95587, 0.2507, 25.22776, 249.38997)" xlink:href="#af"/><radialGradient id="an" cx="164.13837" cy="118.0185" r="0.2377" gradientTransform="matrix(0.2537, -0.96728, 0.95587, 0.2507, 9.68619, 247.19908)" xlink:href="#af"/><radialGradient id="ao" cx="162.35868" cy="115.25924" r="2.09337" gradientTransform="matrix(1, 0, 0, 1, 0, 0)" xlink:href="#ae"/><radialGradient id="ap" cx="171.62986" cy="116.89643" r="0.95443" gradientTransform="translate(0 16.98157) scale(1 0.85473)" xlink:href="#ai"/><radialGradient id="aq" cx="149.98187" cy="93.33985" r="4.25901" gradientTransform="matrix(0.2537, -0.96728, 0.95587, 0.2507, 22.71081, 215.01413)" xlink:href="#ac"/><radialGradient id="ar" cx="1202.87992" cy="130.52748" r="2.75937" gradientTransform="translate(-1346.89822 -9.77756) scale(1.24415 0.77108)" xlink:href="#ad"/><radialGradient id="as" cx="152.36671" cy="91.08908" r="0.34878" gradientTransform="matrix(0.2537, -0.96728, 0.95587, 0.2507, 26.64207, 215.63445)" xlink:href="#ae"/><radialGradient id="at" cx="152.94024" cy="91.57118" r="0.12646" gradientTransform="matrix(0.2537, -0.96728, 0.95587, 0.2507, 26.60927, 216.55046)" xlink:href="#af"/><radialGradient id="au" cx="148.01414" cy="96.37488" r="0.12646" gradientTransform="matrix(0.2537, -0.96728, 0.95587, 0.2507, 18.34118, 215.38491)" xlink:href="#af"/><radialGradient id="av" cx="147.06734" cy="94.90696" r="1.11367" gradientTransform="matrix(1, 0, 0, 1, 0, 0)" xlink:href="#ae"/><radialGradient id="aw" cx="151.9996" cy="95.77794" r="0.50776" gradientTransform="translate(0 13.91369) scale(1 0.85473)" xlink:href="#ai"/><radialGradient id="ax" cx="195.38824" cy="164.49202" r="9.34859" gradientTransform="matrix(0.2537, -0.96728, 0.95587, 0.2507, -11.41474, 312.24896)" xlink:href="#ac"/><radialGradient id="ay" cx="1234.81507" cy="209.69091" r="6.05686" gradientTransform="translate(-1341.60086 -2.61908) scale(1.24415 0.77108)" xlink:href="#ad"/><radialGradient id="az" cx="200.623" cy="159.55155" r="0.76558" gradientTransform="matrix(0.2537, -0.96728, 0.95587, 0.2507, -2.78557, 313.61059)" xlink:href="#ae"/><radialGradient id="ba" cx="201.88192" cy="160.60977" r="0.27757" gradientTransform="matrix(0.2537, -0.96728, 0.95587, 0.2507, -2.85756, 315.62124)" xlink:href="#af"/><radialGradient id="bb" cx="191.06904" cy="171.15397" r="0.27757" gradientTransform="matrix(0.2537, -0.96728, 0.95587, 0.2507, -21.00616, 313.06283)" xlink:href="#af"/><radialGradient id="bc" cx="188.99081" cy="167.93186" r="2.44453" gradientTransform="matrix(1, 0, 0, 1, 0, 0)" xlink:href="#ae"/><radialGradient id="bd" cx="199.81719" cy="169.84368" r="1.11454" gradientTransform="translate(0 24.67324) scale(1 0.85473)" xlink:href="#ai"/><radialGradient id="be" cx="178.44404" cy="184.93134" r="4.97343" gradientTransform="matrix(0.2537, -0.96728, 0.95587, 0.2507, -43.59765, 311.1742)" xlink:href="#ac"/><radialGradient id="bf" cx="1220.09531" cy="233.692" r="3.22224" gradientTransform="translate(-1339.9075 1.8518) scale(1.24415 0.77108)" xlink:href="#ad"/><radialGradient id="bg" cx="181.22892" cy="182.30302" r="0.40729" gradientTransform="matrix(0.2537, -0.96728, 0.95587, 0.2507, -39.00694, 311.89858)" xlink:href="#ae"/><radialGradient id="bh" cx="181.89866" cy="182.86599" r="0.14767" gradientTransform="matrix(0.2537, -0.96728, 0.95587, 0.2507, -39.04524, 312.96824)" xlink:href="#af"/><radialGradient id="bi" cx="176.14623" cy="188.47548" r="0.14767" gradientTransform="matrix(0.2537, -0.96728, 0.95587, 0.2507, -48.70026, 311.60718)" xlink:href="#af"/><radialGradient id="bj" cx="175.04061" cy="186.76133" r="1.30048" gradientTransform="matrix(1, 0, 0, 1, 0, 0)" xlink:href="#ae"/><radialGradient id="bk" cx="180.80023" cy="187.77841" r="0.59293" gradientTransform="translate(0 27.27862) scale(1 0.85473)" xlink:href="#ai"/><radialGradient id="bl" cx="214.53102" cy="128.1371" r="64.69946" gradientTransform="translate(228.27072 -86.46803) rotate(89.70298) scale(1 0.11591)" xlink:href="#i"/><radialGradient id="bm" cx="215.49923" cy="197.4173" r="3.82592" gradientTransform="matrix(1, 0, 0, 1, 0, 0)" xlink:href="#i"/></defs><g class="c"><path class="d" d="M240.62459,56.2144c0,4.92525-63.58129,8.918-87.37873,8.918-4.58538,0-9.171-.12348-13.75326-.2835q-9.63723-.33654-19.26389-.92134-10.14446-.604-20.27177-1.46531-3.79277-.32859-7.58112-.70568-3.86516-.38983-7.72152-.86128c-1.244-.1538-2.48349-.35229-3.70836-.61993q-1.85293-.40488-3.73487-.65741a21.88928,21.88928,0,0,0-7.12486-.013c-2.3343.451-4.57211,1.27661-6.88071,1.83049a41.21418,41.21418,0,0,1-8.59192,1.12378,7.2253,7.2253,0,0,1,1.60057-1.3976,37.21543,37.21543,0,0,1,4.44277-2.5362c2.14109-1.07576,4.26248-2.36985,6.45989-3.40579a29.54984,29.54984,0,0,1,7.4349-2.19134c4.44285-.81727,8.93355-1.37894,13.42118-1.88319,5.61074-.63045,11.23526-1.1373,16.86352-1.58239q9.00365-.712,18.02236-1.214,8.44437-.47675,16.89765-.778c4.49442-.15507,8.992-.27435,13.48944-.27435C177.0433,47.29643,240.62459,51.28914,240.62459,56.2144Z"/><polygon class="e" points="36.547 293.266 24.95 299.703 236.006 299.703 253.955 286.572 253.909 284.079 36.547 293.266"/><path class="f" d="M234.82231,258.59864l-.86747-199.38445c-12.06243,5.91817-64.2222,5.9182-80.70649,5.9182q-.37366,0-.74734-.0023c-1.07381-.00638-2.14755-.02454-3.2211-.04871q-1.89675-.04269-3.7929-.1081-2.14155-.07191-4.28241-.16232-2.34516-.09783-4.68961-.21138-2.50761-.12069-5.01451-.25528-2.6289-.14064-5.25711-.294-2.70906-.15778-5.41739-.32758-2.74807-.17213-5.49539-.356-2.74595-.18372-5.49108-.3792-2.70267-.19255-5.40446-.39728-2.61828-.19861-5.23555-.41018-2.49274-.20185-4.98433-.41792-2.32611-.20225-4.6508-.42049-2.11839-.19966-4.235-.4179-.96822-.10042-1.93584-.20636a25.61586,25.61586,0,0,1-2.82683-.5885q-.26058-.05868-.52165-.11522a26.37142,26.37142,0,0,0-7.35364-.70634l-1.23823.08427.221,199.207A9.81,9.81,0,0,0,81.111,271.08857H225.38553A9.80991,9.80991,0,0,0,234.82231,258.59864Z"/><path class="a" d="M240.62706,260.32927V56.21441c0,4.92526-63.58119,8.918-87.37871,8.918q-1.79724,0-3.59431-.02924c-4.7989-.07261-9.59629-.249-14.39051-.4687q-8.51439-.3902-17.01851-.97514-8.76556-.597-17.51592-1.397c-5.3029-.49123-10.60164-1.04461-15.88269-1.73435-3.878-.50649-7.72017-1.49-11.65365-1.44118-3.9553.04913-7.63229,1.67156-11.44574,2.505q-.47635.10416-.95438.20048a19.75535,19.75535,0,0,1-3.84674.58949q-.67953.07353-1.36172.11872c-.22315.015-.86315-.06053-1.01577.13972-.13737.18024.24046.6185.36578.75686a5.19749,5.19749,0,0,0,.75974.60652c.32625.24652.66943.46711,1.00291.70321l3.44455,2.439,5.56351,3.93934.16453.1165V260.32927a11.53455,11.53455,0,0,0,11.12438,14.58326H229.50268A11.53455,11.53455,0,0,0,240.62706,260.32927Z"/><g class="g"><path class="h" d="M235.86585,263.90226c0-8.62279-36.85435-11.59375-82.31649-11.59375s-82.31648,3.29833-82.31648,11.92112,8.02531,6.88124,82.31648,7.56925C224.06223,272.4519,235.86585,272.525,235.86585,263.90226Z"/><rect class="i" x="39.18586" y="119.9831" width="225.4691" height="175.35041"/></g><g class="j"><path class="k" d="M84.99952,210.25063a4.6591,4.6591,0,0,1-5.81061-4.54055L79.893,97.98172a4.6546,4.6546,0,0,1,9.309.06116l-.70409,107.72837A4.65536,4.65536,0,0,1,84.99952,210.25063Z"/></g><circle class="l" cx="86.57144" cy="154.89365" r="13.58161" transform="translate(-42.12857 32.73406) rotate(-17.29227)"/><circle class="m" cx="86.39661" cy="204.67438" r="0.45269" transform="translate(-56.93359 34.93214) rotate(-17.29227)"/><circle class="n" cx="86.38299" cy="208.53981" r="0.45269" transform="translate(-58.08317 35.10279) rotate(-17.29226)"/><circle class="o" cx="86.39054" cy="206.39399" r="3.39545" transform="translate(-57.44501 35.00806) rotate(-17.29227)"/><line class="p" x1="86.53374" y1="165.62286" x2="86.38299" y2="208.53981"/><circle class="q" cx="86.53374" cy="165.62286" r="9.05434" transform="translate(-45.31949 33.20781) rotate(-17.29227)"/><circle class="r" cx="86.53374" cy="165.62286" r="4.52727" transform="translate(-45.31948 33.2078) rotate(-17.29226)"/><circle class="s" cx="86.53374" cy="165.62286" r="3.77273" transform="translate(-45.31949 33.2078) rotate(-17.29226)"/><polyline class="t" points="86.534 165.623 88.568 180.354 86.534 165.623 84.499 150.891 86.534 165.623 71.802 167.657 86.534 165.623 101.265 163.588 86.534 165.623 94.128 183.285 86.534 165.623 78.94 147.961 86.534 165.623 68.872 173.217 86.534 165.623 104.196 158.029 86.534 165.623 100.191 177.802 86.534 165.623 72.876 153.444 86.534 165.623 74.354 179.28 86.534 165.623 98.713 151.965 86.534 165.623 87.448 178.37 86.534 165.623 85.619 152.876 86.534 165.623 73.787 166.537 86.534 165.623 99.28 164.709 86.534 165.623 86.874 167.096 86.534 165.623 86.193 164.15 86.534 165.623 85.06 165.964 86.534 165.623 88.007 165.282 86.534 165.623 82.268 184.442 86.534 165.623 90.799 146.804 86.534 165.623 67.714 161.358 86.534 165.623 105.353 169.888 86.534 165.623 84.151 171.891 86.534 165.623 88.917 159.355 86.534 165.623 80.266 163.24 86.534 165.623 92.802 168.006 86.534 165.623 89.924 169.324 86.534 165.623 83.144 161.922 86.534 165.623 82.833 169.013 86.534 165.623 90.235 162.233 86.534 165.623 107.179 174.794 86.534 165.623 65.888 156.452 86.534 165.623 77.362 186.269 86.534 165.623 95.705 144.977 86.534 165.623 95.6 182.103 86.534 165.623 77.467 149.143 86.534 165.623 70.053 174.689 86.534 165.623 103.014 156.556 86.534 165.623 96.205 185.216 86.534 165.623 76.863 146.03 86.534 165.623 66.941 175.294 86.534 165.623 106.127 155.952 86.534 165.623 89.399 168.852 86.534 165.623 83.669 162.393 86.534 165.623 83.304 168.488 86.534 165.623 89.763 162.758 86.534 165.623 100.749 172.135 86.534 165.623 72.318 159.111 86.534 165.623 80.022 179.838 86.534 165.623 93.046 151.407 86.534 165.623 85.706 182.324 86.534 165.623 87.362 148.922 86.534 165.623 69.833 164.795 86.534 165.623 103.235 166.451 86.534 165.623 91.412 178.402 86.534 165.623 81.656 152.844 86.534 165.623 73.755 170.501 86.534 165.623 99.313 160.745"/><circle class="u" cx="86.38299" cy="208.53981" r="6.79091" transform="translate(-58.08318 35.1028) rotate(-17.29226)"/><circle class="v" cx="86.41219" cy="200.25225" r="1.93017"/><circle class="w" cx="86.49073" cy="177.88157" r="1.0781" transform="translate(-48.96528 33.7491) rotate(-17.29226)"/><circle class="x" cx="86.44281" cy="191.52926" r="0.71405" transform="translate(-53.02416 34.35171) rotate(-17.29226)"/><circle class="y" cx="86.43519" cy="193.68873" r="1.00413" transform="translate(-53.6664 34.44706) rotate(-17.29226)"/><circle class="z" cx="86.41358" cy="199.82991" r="1.86426" transform="translate(-55.49283 34.71822) rotate(-17.29227)"/><path class="b" d="M230.53092,255.07313V121.99453h0c0,4.74736-55.69483,8.59581-77.27169,8.59581s-77.29358-3.84845-77.29358-8.59581h0V255.07318c.07618,5.90272,2.77169,11.8329,8.94028,11.8329h136.6847C227.759,266.90608,230.60391,260.85758,230.53092,255.07313Z"/><g class="aa"><path class="ab" d="M157.87627,156.26561c-18.67792,1.50493-37.416,2.26908-56.09287,3.8-19.9941,1.63886-41.801,7.14928-57.53907,20.1983q-.22448.18612-.44661.375c-8.76136,7.42889-15.9763,17.98992-15.41066,29.46293.44336,8.99281,5.68341,17.23709,12.52838,23.08634s15.20216,9.61118,23.5767,12.91789c48.69347,19.22676,104.26913,25.27834,153.42829,7.27559,9.885-3.62,19.52717-8.23322,27.684-14.88789s14.78233-15.49629,17.51362-25.66283c2.8151-10.47851,1.31454-21.88724-3.2578-31.72684-4.33138-9.32105-11.14834-16.47991-13.97464-26.61155-.52426-1.87938-1.108-3.95817-2.75385-5.00613a7.51487,7.51487,0,0,0-3.74218-.85011c-21.64114-1.0035-42.5259,3.5073-63.88286,5.93934C169.63841,155.2439,163.76033,155.79151,157.87627,156.26561Z"/><path class="ac" d="M153.0066,196.16526c-18.41325,3.47587-36.96487,6.22152-55.37429,9.7231-19.70781,3.74853-40.80793,11.53894-55.0745,26.18234q-.20348.20886-.40436.42023c-7.92473,8.31554-13.97982,19.58172-12.2015,30.93017,1.39389,8.89519,7.47813,16.53772,14.90444,21.62863s16.1351,7.946,24.81292,10.34657c50.45684,13.95813,106.36086,14.08593,153.33532-9.02515,9.44573-4.64722,18.54468-10.25627,25.95034-17.7379s13.05684-16.9756,14.69534-27.37434c1.68877-10.71784-1.01239-21.90329-6.60174-31.20292-5.2948-8.80954-12.832-15.20565-16.71614-24.98072-.72048-1.81324-1.52127-3.81845-3.26887-4.68609a7.51488,7.51488,0,0,0-3.81121-.44874c-21.62561,1.2956-41.91472,7.99429-62.89368,12.676C164.59423,193.9028,158.80728,195.07026,153.0066,196.16526Z"/></g><path class="ad" d="M230.53092,121.99452c0,4.74735-55.69476,8.59583-77.27164,8.59583s-77.29363-3.84848-77.29363-8.59583,55.71675-8.59582,77.29363-8.59582S230.53092,117.24718,230.53092,121.99452Z"/><g class="ae"><circle class="af" cx="123.61895" cy="130.59035" r="14.91016"/><ellipse class="ag" cx="122.57001" cy="122.37212" rx="9.96443" ry="6.00743" transform="translate(-8.92047 9.63971) rotate(-4.34581)"/><circle class="ah" cx="131.55113" cy="123.10411" r="1.22104"/><circle class="ai" cx="133.45875" cy="124.70762" r="0.4427"/><circle class="aj" cx="117.0741" cy="140.68513" r="0.4427"/><path class="ak" d="M111.75567,131.67873c-.1463,2.87815,1.58571,7.02963,4.34722,8.24794"/><circle class="al" cx="130.33009" cy="138.69966" r="1.35526"/></g><g class="ae"><circle class="am" cx="167.83713" cy="112.31353" r="8.42633"/><ellipse class="an" cx="167.24433" cy="107.66908" rx="5.6313" ry="3.39504" transform="matrix(0.99712, -0.07578, 0.07578, 0.99712, -7.67789, 12.98268)"/><circle class="ao" cx="172.31992" cy="108.08275" r="0.69006"/><circle class="ap" cx="173.398" cy="108.98896" r="0.25019"/><circle class="aq" cx="164.13837" cy="118.0185" r="0.25019"/><path class="ar" d="M161.13271,112.92861c-.08268,1.62656.89615,3.97273,2.45679,4.66125"/><circle class="as" cx="171.62986" cy="116.89643" r="0.76591"/></g><g class="ae"><circle class="at" cx="149.98187" cy="93.33985" r="4.48279"/><ellipse class="au" cx="149.6665" cy="90.86901" rx="2.99584" ry="1.80616" transform="translate(-6.45538 11.6024) rotate(-4.34581)"/><circle class="av" cx="152.36671" cy="91.08908" r="0.36711"/><circle class="aw" cx="152.94024" cy="91.57118" r="0.1331"/><circle class="ax" cx="148.01414" cy="96.37488" r="0.1331"/><path class="ay" d="M146.41513,93.66707a2.79183,2.79183,0,0,0,1.307,2.47978"/><circle class="az" cx="151.9996" cy="95.77794" r="0.40746"/></g><g class="ba"><circle class="bb" cx="195.38824" cy="164.49202" r="9.8398"/><ellipse class="bc" cx="194.69601" cy="159.06849" rx="6.57592" ry="3.96454" transform="translate(-11.49381 15.21064) rotate(-4.34581)"/><circle class="bd" cx="200.623" cy="159.55155" r="0.80581"/><circle class="be" cx="201.88192" cy="160.60977" r="0.29216"/><circle class="bf" cx="191.06904" cy="171.15397" r="0.29216"/><path class="bg" d="M187.55919,165.21028c-.09655,1.89941,1.04648,4.63914,2.86891,5.44315"/><circle class="bh" cx="199.81719" cy="169.84368" r="0.89439"/></g><g class="ba"><circle class="bi" cx="178.44404" cy="184.93134" r="5.23476"/><ellipse class="bj" cx="178.07577" cy="182.04603" rx="3.49838" ry="2.10913" transform="translate(-13.28274 14.01729) rotate(-4.34581)"/><circle class="bk" cx="181.22892" cy="182.30302" r="0.42869"/><circle class="bl" cx="181.89866" cy="182.86599" r="0.15543"/><circle class="bm" cx="176.14623" cy="188.47548" r="0.15543"/><path class="bn" d="M174.279,185.31345a3.26012,3.26012,0,0,0,1.52625,2.89575"/><circle class="bo" cx="180.80023" cy="187.77841" r="0.47582"/></g><polygon class="bp" points="247.286 214.109 51.724 214.109 36.547 293.266 232.109 293.266 247.286 214.109"/><polygon class="bq" points="247.286 214.109 253.909 284.079 251.3 286.124 236.31 286.285 235.201 290.841 232.109 293.266 247.286 214.109"/><path class="br" d="M114.32551,231.39908a3.43207,3.43207,0,0,1,1.27637-1.26953,3.91559,3.91559,0,0,1,1.58985-.47851,1.9368,1.9368,0,0,1,2.00488,1.17383,2.55473,2.55473,0,0,1-.39844,2.5371,43.20687,43.20687,0,0,0-3.74609,6.77344,3.63182,3.63182,0,0,1-1.59082,1.72266,3.27385,3.27385,0,0,1-2.09278.47851,1.91723,1.91723,0,0,1-1.40527-1.17285,2.424,2.424,0,0,1,.06445-2.01074A57.26857,57.26857,0,0,1,114.32551,231.39908Z"/><path class="br" d="M118.91536,245.23307a3.28106,3.28106,0,0,1,1.97168-.74219h3.18359a58.27951,58.27951,0,0,1,6.332-13.332,3.002,3.002,0,0,1,2.58789-1.60352,1.78573,1.78573,0,0,1,1.88672,1.07715,2.49439,2.49439,0,0,1-.39453,2.34571,53.63811,53.63811,0,0,0-5.5039,11.417h4.9541a58.60659,58.60659,0,0,1,6.33105-13.23633,3.13018,3.13018,0,0,1,2.63477-1.60352,1.72812,1.72812,0,0,1,1.81543,1.07715,2.26346,2.26346,0,0,1-.39453,2.34571,60.71716,60.71716,0,0,0-6.3418,14.07324,3.32242,3.32242,0,0,1-1.39356,1.69922,2.746,2.746,0,0,1-2.01464.55078q-3.42334,0-7.31348.04785-3.86572.04835-7.69629.04785a1.90023,1.90023,0,0,1-1.56934-.74219,1.80354,1.80354,0,0,1-.29589-1.65039A3.33874,3.33874,0,0,1,118.91536,245.23307Z"/><path class="br" d="M150.98665,231.15885a3.15711,3.15711,0,0,1,2.62207-1.55469,1.79519,1.79519,0,0,1,1.876,1.02832,2.384,2.384,0,0,1-.40722,2.39356,62.6567,62.6567,0,0,0-6.40332,14.12109,3.251,3.251,0,0,1-1.28418,1.65234,2.8633,2.8633,0,0,1-1.94629.64551,1.67605,1.67605,0,0,1-1.4834-.88574,2.11132,2.11132,0,0,1-.14355-1.77148A68.04741,68.04741,0,0,1,150.98665,231.15885Z"/><path class="br" d="M159.67024,230.46549a3.46983,3.46983,0,0,1,1.97949-.76562l12.78223-.09571a1.86133,1.86133,0,0,1,1.82715,1.02832,2.51677,2.51677,0,0,1-.39453,2.34571,62.623,62.623,0,0,0-6.43946,14.16894,3.068,3.068,0,0,1-1.30761,1.65234,2.77172,2.77172,0,0,1-1.94629.64551,1.64109,1.64109,0,0,1-1.43653-.88574,2.11134,2.11134,0,0,1-.14257-1.77148,78.12562,78.12562,0,0,1,5.09472-12.20508l-9.3291.07129a1.79727,1.79727,0,0,1-1.584-.69434,2.14467,2.14467,0,0,1-.28711-1.77148A3.14035,3.14035,0,0,1,159.67024,230.46549Z"/><path class="br" d="M104.44368,263.66666a3.24225,3.24225,0,0,1,1.17969-1.53125,3.09757,3.09757,0,0,1,1.85644-.6709,1.61975,1.61975,0,0,1,1.61231.76661,2.23819,2.23819,0,0,1,.09179,1.96191L98.72005,292.62662a3.26738,3.26738,0,0,1-1.37305,1.62793,2.85765,2.85765,0,0,1-1.92676.57422,1.60407,1.60407,0,0,1-1.38769-.88574,2.069,2.069,0,0,1-.08887-1.79492Z"/><path class="br" d="M114.62923,263.25944a3.43209,3.43209,0,0,1,1.27734-1.26856,3.892,3.892,0,0,1,1.58887-.47851,1.93735,1.93735,0,0,1,2.00488,1.17285,2.55446,2.55446,0,0,1-.39844,2.53711,43.29494,43.29494,0,0,0-3.74609,6.77343,3.62935,3.62935,0,0,1-1.59082,1.72364,3.27385,3.27385,0,0,1-2.09278.47851,1.92187,1.92187,0,0,1-1.40527-1.17383,2.42187,2.42187,0,0,1,.06543-2.00976A57.27516,57.27516,0,0,1,114.62923,263.25944Z"/><path class="br" d="M125.25618,263.25944a3.43216,3.43216,0,0,1,1.27734-1.26856,3.892,3.892,0,0,1,1.58887-.47851,1.93734,1.93734,0,0,1,2.00488,1.17285,2.55448,2.55448,0,0,1-.39843,2.53711,43.295,43.295,0,0,0-3.7461,6.77343,3.6293,3.6293,0,0,1-1.59082,1.72364,3.27382,3.27382,0,0,1-2.09277.47851,1.92186,1.92186,0,0,1-1.40528-1.17383,2.422,2.422,0,0,1,.06543-2.00976A57.27516,57.27516,0,0,1,125.25618,263.25944Z"/><path class="br" d="M135.17122,262.08658a58.432,58.432,0,0,1,3.58789-6.36621,3.04383,3.04383,0,0,1,2.6289-1.5791,1.67709,1.67709,0,0,1,1.88477,1.041,2.54535,2.54535,0,0,1-.375,2.40429q-1.21,1.81933-2.33008,3.92579l8.3418-.04786a1.437,1.437,0,0,1,.373-.04785.7703.7703,0,0,1,.46484.04785,1.59494,1.59494,0,0,1,1.85156,1.65137,2.86444,2.86444,0,0,1-1.51074,2.752,66.145,66.145,0,0,0-5.75391,13.14063,3.45057,3.45057,0,0,1-1.33007,1.6875,2.97527,2.97527,0,0,1-1.95411.63476,1.68515,1.68515,0,0,1-1.42382-.88671,2.15622,2.15622,0,0,1-.14942-1.79493,79.18952,79.18952,0,0,1,5.05957-12.2539l-8.93554.11914a1.69217,1.69217,0,0,1-1.96387-1.67578A2.916,2.916,0,0,1,135.17122,262.08658Z"/><path class="br" d="M154.15657,273.40787a3.6695,3.6695,0,0,1,1.209-1.55566,3.07227,3.07227,0,0,1,1.83789-.69434,1.77755,1.77755,0,0,1,1.63672.83887,2.09807,2.09807,0,0,1,.06739,1.96094l-7.09961,19.0039a3.45991,3.45991,0,0,1-1.37305,1.627,2.99241,2.99241,0,0,1-1.97949.59961,1.89714,1.89714,0,0,1-1.374-.93457,2.1419,2.1419,0,0,1-.082-1.81836Zm2.34766-11.08105a3.26293,3.26293,0,0,1,1.917-.71875l12.81933-.14356a1.73144,1.73144,0,0,1,1.76661,1.07715,2.34971,2.34971,0,0,1-.35743,2.29688,62.48256,62.48256,0,0,0-6.42578,14.12207,3.09828,3.09828,0,0,1-1.28418,1.65136,2.93431,2.93431,0,0,1-1.99414.64649,1.75822,1.75822,0,0,1-1.42578-.83789,2.14378,2.14378,0,0,1-.167-1.77149A79.58075,79.58075,0,0,1,166.472,266.443l-9.28223.07129a1.84671,1.84671,0,0,1-1.63086-.69336,2.09158,2.09158,0,0,1-.31054-1.77149A3.34352,3.34352,0,0,1,156.50423,262.32682Z"/><g class="bs"><path class="bt" d="M214.46484,188.34458a4.23234,4.23234,0,0,1-4.13636-3.36033l.00084-65.07106a4.2322,4.2322,0,0,1-.09091-.8719V79.8603a4.23141,4.23141,0,1,1,8.46281,0v38.74049l-.09175,64.63966a4.23535,4.23535,0,0,1-4.14463,5.10413Z"/></g><circle class="bu" cx="215.39601" cy="197.39903" r="4.23358"/></g></svg>