<svg xmlns="http://www.w3.org/2000/svg" xmlns:xlink="http://www.w3.org/1999/xlink" viewBox="0 0 303.95444 341.11501"><defs><style>.a,.d{opacity:0.72;}.a{fill:url(#a);}.ag,.b,.l{opacity:0.8;}.b{fill:url(#b);}.c{isolation:isolate;}.d{fill:url(#c);}.e{fill:#683c11;fill-opacity:0.51;}.f,.h{mix-blend-mode:multiply;}.f{fill:url(#d);}.g{clip-path:url(#f);}.h{fill:url(#g);}.i{opacity:0.42;fill:url(#h);}.j{opacity:0.54;}.k{fill:url(#i);}.bd,.l{mix-blend-mode:hard-light;}.m{fill:url(#j);}.n,.u,.x{opacity:0.5;}.n{fill:url(#k);}.o{opacity:0.25;fill:url(#l);}.aa,.ab,.ac,.o,.p,.q,.r,.t,.u,.v,.w,.x,.y,.z{mix-blend-mode:screen;}.p{fill:url(#m);}.q{fill:url(#n);}.r{opacity:0.2;fill:url(#o);}.an,.au,.bb,.bj,.bq,.s,.w{fill:none;}.t{opacity:0.15;fill:url(#p);}.u{fill:url(#q);}.v{fill:url(#r);}.w{stroke:#fff;stroke-width:1.69256px;opacity:0.03;}.ag,.w{stroke-miterlimit:10;}.x{fill:url(#s);}.y{fill:url(#t);}.z{fill:url(#u);}.aa{fill:url(#v);}.ab{fill:url(#w);}.ac{fill:url(#x);}.ad{clip-path:url(#z);}.ae,.af,.ah{opacity:0.3;}.ae{fill:url(#aa);}.af{fill:url(#ab);}.ag,.an{stroke-width:0.84628px;}.ag{fill:url(#ac);stroke:url(#ad);}.ai{fill:url(#ae);}.aj,.am,.an,.aq,.at,.au,.ax,.ba,.bb,.bf,.bi,.bj,.bm,.bp,.bq{mix-blend-mode:soft-light;}.aj{fill:url(#af);}.ak{fill:url(#ag);}.al{fill:url(#ah);}.am{fill:url(#ai);}.an,.au,.bb,.bj,.bq{stroke-linecap:round;stroke-linejoin:round;}.an{stroke:url(#aj);}.ao{fill:url(#ak);}.ap{fill:url(#al);}.aq{fill:url(#am);}.ar{fill:url(#an);}.as{fill:url(#ao);}.at{fill:url(#ap);}.au{stroke-width:0.47827px;stroke:url(#aq);}.av{fill:url(#ar);}.aw{fill:url(#as);}.ax{fill:url(#at);}.ay{fill:url(#au);}.az{fill:url(#av);}.ba{fill:url(#aw);}.bb{stroke-width:0.25444px;stroke:url(#ax);}.bc{fill:url(#ay);}.bd{opacity:0.2;}.be{fill:url(#az);}.bf{fill:url(#ba);}.bg{fill:url(#bb);}.bh{fill:url(#bc);}.bi{fill:url(#bd);}.bj{stroke-width:0.55849px;stroke:url(#be);}.bk{fill:url(#bf);}.bl{fill:url(#bg);}.bm{fill:url(#bh);}.bn{fill:url(#bi);}.bo{fill:url(#bj);}.bp{fill:url(#bk);}.bq{stroke-width:0.29712px;stroke:url(#bl);}.br{fill:url(#bm);}.bs{fill:#fff;}.bt{fill:#c6c6c6;}.bu{fill:#3c3c3b;}</style><linearGradient id="a" x1="100.88059" y1="165.56347" x2="195.26118" y2="165.56347" gradientUnits="userSpaceOnUse"><stop offset="0" stop-color="#f5fbff"/><stop offset="0.62567" stop-color="#e9f1f5"/><stop offset="1" stop-color="#c5d9e0"/></linearGradient><linearGradient id="b" x1="214.94492" y1="270.68209" x2="96.8448" y2="114.15705" gradientUnits="userSpaceOnUse"><stop offset="0" stop-color="#cdcc00"/><stop offset="1" stop-color="#f7f200"/></linearGradient><linearGradient id="c" x1="149.31803" y1="38.3778" x2="149.31803" y2="64.94849" xlink:href="#a"/><linearGradient id="d" x1="167.1751" y1="61.71976" x2="144.87753" y2="243.33184" gradientUnits="userSpaceOnUse"><stop offset="0" stop-color="#bfc4c7"/><stop offset="1" stop-color="#b1c3c9"/></linearGradient><clipPath id="f"><path class="a" d="M242.32984,260.32927V56.21441c0,4.92526-63.5812,8.918-87.37871,8.918q-1.79724,0-3.59432-.02924c-4.7989-.07261-9.59628-.249-14.3905-.4687q-8.5144-.3902-17.01852-.97514-8.76555-.597-17.51591-1.397c-5.3029-.49123-10.60164-1.04461-15.88269-1.73435-3.878-.50649-7.72018-1.49-11.65365-1.44118-3.95531.04913-7.6323,1.67156-11.44574,2.505q-.47637.10416-.95439.20048a19.75524,19.75524,0,0,1-3.84674.58949q-.67952.07353-1.36171.11872c-.22315.015-.86315-.06053-1.01577.13972-.13737.18024.24046.6185.36578.75686a5.197,5.197,0,0,0,.75974.60652c.32624.24652.66942.46711,1.00291.70321l3.44455,2.439,5.5635,3.93934.16454.1165V260.32927a11.53455,11.53455,0,0,0,11.12438,14.58326H231.20546A11.53455,11.53455,0,0,0,242.32984,260.32927Z"/></clipPath><linearGradient id="g" x1="116.29458" y1="163.94125" x2="167.47176" y2="296.11187" gradientUnits="userSpaceOnUse"><stop offset="0" stop-color="#f5f5f5"/><stop offset="1" stop-color="#c3d1d6"/></linearGradient><linearGradient id="h" x1="94.85352" y1="207.6583" x2="208.9518" y2="207.6583" xlink:href="#b"/><radialGradient id="i" cx="222.17665" cy="128.1371" r="64.69946" gradientTransform="translate(235.87671 -94.11356) rotate(89.70298) scale(1 0.11591)" gradientUnits="userSpaceOnUse"><stop offset="0" stop-color="#e6f3ff"/><stop offset="1" stop-color="#b9cbf0" stop-opacity="0"/></radialGradient><radialGradient id="j" cx="-1509.44011" cy="-855.02973" r="54.27899" gradientTransform="matrix(0.00636, -0.99998, 0.15751, 0.001, 230.16624, -1356.677)" xlink:href="#i"/><radialGradient id="k" cx="223.14487" cy="197.4173" r="3.82592" gradientTransform="matrix(1, 0, 0, 1, 0, 0)" xlink:href="#i"/><radialGradient id="l" cx="-1809.92548" cy="-1104.15658" r="13.58164" gradientTransform="translate(1898.19963 1259.05034)" gradientUnits="userSpaceOnUse"><stop offset="0.1"/><stop offset="0.11244" stop-color="#080602"/><stop offset="0.16172" stop-color="#231b08"/><stop offset="0.21838" stop-color="#392c0d"/><stop offset="0.28458" stop-color="#4a3910"/><stop offset="0.36644" stop-color="#554213"/><stop offset="0.48125" stop-color="#5c4815"/><stop offset="0.8" stop-color="#5e4915"/><stop offset="1"/></radialGradient><radialGradient id="m" cx="-1824.88953" cy="-1056.67786" r="0.45271" gradientTransform="translate(1912.98897 1261.35214)" gradientUnits="userSpaceOnUse"><stop offset="0" stop-color="#d4e194"/><stop offset="0.05952" stop-color="#afba7a"/><stop offset="0.13651" stop-color="#868f5e"/><stop offset="0.21955" stop-color="#626845"/><stop offset="0.30759" stop-color="#44482f"/><stop offset="0.40211" stop-color="#2b2e1e"/><stop offset="0.50556" stop-color="#181911"/><stop offset="0.62249" stop-color="#0a0b07"/><stop offset="0.76429" stop-color="#020302"/><stop offset="1"/></radialGradient><radialGradient id="n" cx="-1826.05152" cy="-1052.99119" r="0.45271" gradientTransform="translate(1914.13725 1261.53106)" xlink:href="#m"/><radialGradient id="o" cx="-1825.40647" cy="-1055.03778" r="3.39543" gradientTransform="translate(1913.49983 1261.4317)" gradientUnits="userSpaceOnUse"><stop offset="0.05"/><stop offset="0.09242" stop-color="#040a03"/><stop offset="0.29802" stop-color="#183411"/><stop offset="0.48337" stop-color="#25531c"/><stop offset="0.64031" stop-color="#2e6622"/><stop offset="0.75" stop-color="#316d24"/><stop offset="0.78593" stop-color="#4f6e16"/><stop offset="0.83397" stop-color="#716f06"/><stop offset="0.86" stop-color="#7e6f00"/><stop offset="0.88764" stop-color="#7a6c00"/><stop offset="0.91229" stop-color="#706200"/><stop offset="0.93581" stop-color="#5d5200"/><stop offset="0.95863" stop-color="#443c00"/><stop offset="0.98074" stop-color="#231f00"/><stop offset="1"/></radialGradient><radialGradient id="p" cx="-1813.15069" cy="-1093.92352" r="9.05439" gradientTransform="translate(1901.38721 1259.54639)" gradientUnits="userSpaceOnUse"><stop offset="0" stop-color="#200"/><stop offset="0.73" stop-color="#984023"/><stop offset="1" stop-color="#200"/></radialGradient><radialGradient id="q" cx="-1813.15069" cy="-1093.92352" r="4.52725" gradientTransform="translate(1901.38729 1259.54625)" gradientUnits="userSpaceOnUse"><stop offset="0.15" stop-color="#fff"/><stop offset="0.20939" stop-color="#e5d3d3"/><stop offset="0.29044" stop-color="#c49c9e"/><stop offset="0.36051" stop-color="#ad7477"/><stop offset="0.41599" stop-color="#9e5c5f"/><stop offset="0.45" stop-color="#995356"/><stop offset="0.57175" stop-color="#6b3335"/><stop offset="0.69355" stop-color="#431718"/><stop offset="0.79053" stop-color="#2b0606"/><stop offset="0.85" stop-color="#200"/><stop offset="0.85727" stop-color="#260201"/><stop offset="0.8648" stop-color="#330704"/><stop offset="0.87246" stop-color="#471009"/><stop offset="0.8802" stop-color="#641d0f"/><stop offset="0.88801" stop-color="#8a2e18"/><stop offset="0.89577" stop-color="#b74223"/><stop offset="0.9" stop-color="#d34e29"/><stop offset="0.90254" stop-color="#c84927"/><stop offset="0.91417" stop-color="#9c361c"/><stop offset="0.92635" stop-color="#772514"/><stop offset="0.93893" stop-color="#58180c"/><stop offset="0.95205" stop-color="#400d07"/><stop offset="0.96594" stop-color="#2f0603"/><stop offset="0.98111" stop-color="#250101"/><stop offset="1" stop-color="#200"/></radialGradient><radialGradient id="r" cx="-1813.15069" cy="-1093.92352" r="3.7727" gradientTransform="translate(1901.38725 1259.54631)" gradientUnits="userSpaceOnUse"><stop offset="0.15" stop-color="#fff"/><stop offset="0.28237" stop-color="#c2c2c2"/><stop offset="0.42528" stop-color="#888"/><stop offset="0.5636" stop-color="#575757"/><stop offset="0.69361" stop-color="#313131"/><stop offset="0.81336" stop-color="#161616"/><stop offset="0.91921" stop-color="#060606"/><stop offset="1"/></radialGradient><radialGradient id="s" cx="-1826.05152" cy="-1052.99119" r="6.79086" gradientTransform="translate(1914.13728 1261.53101)" gradientUnits="userSpaceOnUse"><stop offset="0.64"/><stop offset="0.71799" stop-color="#000200"/><stop offset="0.74608" stop-color="#020902"/><stop offset="0.76609" stop-color="#051405"/><stop offset="0.78228" stop-color="#082509"/><stop offset="0.79598" stop-color="#0d3b0e"/><stop offset="0.8" stop-color="#0f4310"/><stop offset="0.8131" stop-color="#1e2c0a"/><stop offset="0.82975" stop-color="#2d1605"/><stop offset="0.84569" stop-color="#360901"/><stop offset="0.86" stop-color="#390400"/><stop offset="0.8715" stop-color="#250300"/><stop offset="0.88602" stop-color="#140100"/><stop offset="0.90412" stop-color="#090100"/><stop offset="0.92951" stop-color="#020000"/><stop offset="1"/></radialGradient><radialGradient id="t" cx="-1823.56019" cy="-1060.89548" r="1.93017" gradientTransform="translate(2144.59885 671.15039) rotate(-17.29226)" gradientUnits="userSpaceOnUse"><stop offset="0.1"/><stop offset="0.24639" stop-color="#1b1103"/><stop offset="0.42619" stop-color="#362207"/><stop offset="0.61009" stop-color="#492e09"/><stop offset="0.79889" stop-color="#54350b"/><stop offset="1" stop-color="#58370b"/></radialGradient><radialGradient id="u" cx="-1816.83561" cy="-1082.23168" r="1.07807" gradientTransform="translate(1905.0291 1260.11328)" gradientUnits="userSpaceOnUse"><stop offset="0.1" stop-color="#192f1b"/><stop offset="0.2285" stop-color="#122214"/><stop offset="0.47516" stop-color="#080f09"/><stop offset="0.72928" stop-color="#020402"/><stop offset="1"/></radialGradient><radialGradient id="v" cx="-1820.93809" cy="-1069.2151" r="0.714" gradientTransform="translate(1909.08365 1260.74439)" xlink:href="#t"/><radialGradient id="w" cx="-1821.58726" cy="-1067.1555" r="1.00408" gradientTransform="translate(1909.72525 1260.84419)" gradientUnits="userSpaceOnUse"><stop offset="0.1"/><stop offset="0.29001" stop-color="#14160e"/><stop offset="0.51699" stop-color="#25291a"/><stop offset="0.75084" stop-color="#303422"/><stop offset="1" stop-color="#333824"/></radialGradient><radialGradient id="x" cx="-1823.43333" cy="-1061.29832" r="1.86428" gradientTransform="translate(1911.54973 1261.12816)" xlink:href="#u"/><clipPath id="z"><path class="b" d="M232.2337,255.07313V121.99453h0c0,4.74736-55.69483,8.59581-77.27169,8.59581s-77.29359-3.84845-77.29359-8.59581h0V255.07318c.07618,5.90272,2.7717,11.8329,8.94029,11.8329h136.6847C229.4618,266.90608,232.30669,260.85758,232.2337,255.07313Z"/></clipPath><linearGradient id="aa" x1="311.60879" y1="217.33703" x2="64.57467" y2="194.35711" xlink:href="#b"/><linearGradient id="ab" x1="31.3426" y1="242.44061" x2="265.85158" y2="242.44061" xlink:href="#b"/><linearGradient id="ac" x1="292.20391" y1="121.99452" x2="109.05773" y2="121.99452" xlink:href="#b"/><linearGradient id="ad" x1="77.24528" y1="121.99452" x2="232.65684" y2="121.99452" gradientUnits="userSpaceOnUse"><stop offset="0" stop-color="#fffe00"/><stop offset="1" stop-color="#f7f200"/></linearGradient><radialGradient id="ae" cx="125.32172" cy="130.59035" r="14.16583" gradientTransform="matrix(0.2537, -0.96728, 0.95587, 0.2507, -31.29987, 219.0724)" gradientUnits="userSpaceOnUse"><stop offset="0" stop-color="#d9d300" stop-opacity="0.8"/><stop offset="0.51007" stop-color="#dcd600" stop-opacity="0.8018"/><stop offset="0.89318" stop-color="#e6e000" stop-opacity="0.8075"/><stop offset="1" stop-color="#ebe400" stop-opacity="0.81"/></radialGradient><radialGradient id="af" cx="607.69796" cy="405.58618" r="9.1779" gradientTransform="translate(-631.79547 -190.36553) scale(1.24415 0.77108)" gradientUnits="userSpaceOnUse"><stop offset="0" stop-color="#daf500"/><stop offset="0.37565" stop-color="#daf500" stop-opacity="0.99235"/><stop offset="0.51098" stop-color="#daf500" stop-opacity="0.96463"/><stop offset="0.60743" stop-color="#daf400" stop-opacity="0.91636"/><stop offset="0.68546" stop-color="#daf400" stop-opacity="0.84737"/><stop offset="0.75234" stop-color="#daf300" stop-opacity="0.75741"/><stop offset="0.81149" stop-color="#dbf200" stop-opacity="0.64643"/><stop offset="0.86508" stop-color="#dbf100" stop-opacity="0.51392"/><stop offset="0.91432" stop-color="#dbf000" stop-opacity="0.35972"/><stop offset="0.95807" stop-color="#dcef00" stop-opacity="0.19202"/><stop offset="0.99887" stop-color="#dced00" stop-opacity="0.00559"/><stop offset="1" stop-color="#dced00" stop-opacity="0"/></radialGradient><radialGradient id="ag" cx="133.2539" cy="123.10411" r="1.16008" gradientTransform="matrix(0.2537, -0.96728, 0.95587, 0.2507, -18.22417, 221.13566)" gradientUnits="userSpaceOnUse"><stop offset="0" stop-color="#dff513"/><stop offset="0.37565" stop-color="#dff513" stop-opacity="0.99235"/><stop offset="0.51098" stop-color="#dff512" stop-opacity="0.96463"/><stop offset="0.60743" stop-color="#dff411" stop-opacity="0.91636"/><stop offset="0.68546" stop-color="#dff410" stop-opacity="0.84737"/><stop offset="0.75234" stop-color="#def30e" stop-opacity="0.75741"/><stop offset="0.81149" stop-color="#def20c" stop-opacity="0.64643"/><stop offset="0.86508" stop-color="#def10a" stop-opacity="0.51392"/><stop offset="0.91432" stop-color="#ddf007" stop-opacity="0.35972"/><stop offset="0.95807" stop-color="#ddef04" stop-opacity="0.19202"/><stop offset="0.99887" stop-color="#dced00" stop-opacity="0.00559"/><stop offset="1" stop-color="#dced00" stop-opacity="0"/></radialGradient><radialGradient id="ah" cx="135.16153" cy="124.70762" r="0.4206" gradientTransform="matrix(0.2537, -0.96728, 0.95587, 0.2507, -18.33326, 224.18238)" gradientUnits="userSpaceOnUse"><stop offset="0" stop-color="#dff513"/><stop offset="0.22189" stop-color="#dff513" stop-opacity="0.98946"/><stop offset="0.35942" stop-color="#dff512" stop-opacity="0.95468"/><stop offset="0.47406" stop-color="#dff411" stop-opacity="0.89532"/><stop offset="0.57607" stop-color="#def30f" stop-opacity="0.8113"/><stop offset="0.66973" stop-color="#def30d" stop-opacity="0.70243"/><stop offset="0.75734" stop-color="#def20b" stop-opacity="0.56845"/><stop offset="0.84023" stop-color="#ddf008" stop-opacity="0.40925"/><stop offset="0.91926" stop-color="#ddef04" stop-opacity="0.22473"/><stop offset="0.99277" stop-color="#dced00" stop-opacity="0.0217"/><stop offset="1" stop-color="#dced00" stop-opacity="0"/></radialGradient><radialGradient id="ai" cx="118.77688" cy="140.68513" r="0.4206" gradientTransform="matrix(0.2537, -0.96728, 0.95587, 0.2507, -45.83364, 220.30565)" xlink:href="#ah"/><radialGradient id="aj" cx="115.62776" cy="135.8027" r="3.70417" gradientTransform="matrix(1, 0, 0, 1, 0, 0)" xlink:href="#ag"/><radialGradient id="ak" cx="132.03287" cy="138.69966" r="1.68884" gradientTransform="translate(0 20.14894) scale(1 0.85473)" gradientUnits="userSpaceOnUse"><stop offset="0" stop-color="#daf500"/><stop offset="0.08908" stop-color="#daf500" stop-opacity="0.96952"/><stop offset="0.22315" stop-color="#daf400" stop-opacity="0.88526"/><stop offset="0.38563" stop-color="#dbf300" stop-opacity="0.74727"/><stop offset="0.5704" stop-color="#dbf100" stop-opacity="0.55531"/><stop offset="0.77384" stop-color="#dbef00" stop-opacity="0.30932"/><stop offset="0.99008" stop-color="#dced00" stop-opacity="0.01428"/><stop offset="1" stop-color="#dced00" stop-opacity="0"/></radialGradient><radialGradient id="al" cx="169.5399" cy="112.31353" r="8.00568" gradientTransform="matrix(0.2537, -0.96728, 0.95587, 0.2507, 19.17059, 248.14918)" xlink:href="#ae"/><radialGradient id="am" cx="644.39769" cy="393.08737" r="5.1868" gradientTransform="translate(-632.78117 -195.43105) scale(1.24415 0.77108)" xlink:href="#af"/><radialGradient id="an" cx="174.0227" cy="108.08275" r="0.65561" gradientTransform="matrix(0.2537, -0.96728, 0.95587, 0.2507, 26.5602, 249.31521)" xlink:href="#ag"/><radialGradient id="ao" cx="175.10077" cy="108.98896" r="0.2377" gradientTransform="matrix(0.2537, -0.96728, 0.95587, 0.2507, 26.49855, 251.03704)" xlink:href="#ah"/><radialGradient id="ap" cx="165.84115" cy="118.0185" r="0.2377" gradientTransform="matrix(0.2537, -0.96728, 0.95587, 0.2507, 10.95697, 248.84614)" xlink:href="#ah"/><radialGradient id="aq" cx="164.06145" cy="115.25924" r="2.09337" gradientTransform="matrix(1, 0, 0, 1, 0, 0)" xlink:href="#ag"/><radialGradient id="ar" cx="173.33264" cy="116.89643" r="0.95443" gradientTransform="translate(0 16.98157) scale(1 0.85473)" xlink:href="#ak"/><radialGradient id="as" cx="151.68465" cy="93.33985" r="4.25901" gradientTransform="matrix(0.2537, -0.96728, 0.95587, 0.2507, 23.9816, 216.66119)" xlink:href="#ae"/><radialGradient id="at" cx="631.33316" cy="373.04172" r="2.75937" gradientTransform="translate(-634.10475 -196.7744) scale(1.24415 0.77108)" xlink:href="#af"/><radialGradient id="au" cx="154.06948" cy="91.08908" r="0.34878" gradientTransform="matrix(0.2537, -0.96728, 0.95587, 0.2507, 27.91286, 217.28152)" xlink:href="#ag"/><radialGradient id="av" cx="154.64302" cy="91.57118" r="0.12646" gradientTransform="matrix(0.2537, -0.96728, 0.95587, 0.2507, 27.88006, 218.19753)" xlink:href="#ah"/><radialGradient id="aw" cx="149.71691" cy="96.37488" r="0.12646" gradientTransform="matrix(0.2537, -0.96728, 0.95587, 0.2507, 19.61197, 217.03198)" xlink:href="#ah"/><radialGradient id="ax" cx="148.77012" cy="94.90696" r="1.11367" gradientTransform="matrix(1, 0, 0, 1, 0, 0)" xlink:href="#ag"/><radialGradient id="ay" cx="153.70237" cy="95.77794" r="0.50776" gradientTransform="translate(0 13.91369) scale(1 0.85473)" xlink:href="#ak"/><radialGradient id="az" cx="197.09102" cy="164.49202" r="9.34859" gradientTransform="matrix(0.2537, -0.96728, 0.95587, 0.2507, -10.14396, 313.89603)" xlink:href="#ae"/><radialGradient id="ba" cx="663.2683" cy="452.20514" r="6.05686" gradientTransform="translate(-628.80739 -189.61592) scale(1.24415 0.77108)" xlink:href="#af"/><radialGradient id="bb" cx="202.32578" cy="159.55155" r="0.76558" gradientTransform="matrix(0.2537, -0.96728, 0.95587, 0.2507, -1.51478, 315.25766)" xlink:href="#ag"/><radialGradient id="bc" cx="203.5847" cy="160.60977" r="0.27757" gradientTransform="matrix(0.2537, -0.96728, 0.95587, 0.2507, -1.58677, 317.26831)" xlink:href="#ah"/><radialGradient id="bd" cx="192.77181" cy="171.15397" r="0.27757" gradientTransform="matrix(0.2537, -0.96728, 0.95587, 0.2507, -19.73537, 314.7099)" xlink:href="#ah"/><radialGradient id="be" cx="190.69359" cy="167.93186" r="2.44453" gradientTransform="matrix(1, 0, 0, 1, 0, 0)" xlink:href="#ag"/><radialGradient id="bf" cx="201.51997" cy="169.84368" r="1.11454" gradientTransform="translate(0 24.67324) scale(1 0.85473)" xlink:href="#ak"/><radialGradient id="bg" cx="180.14681" cy="184.93134" r="4.97343" gradientTransform="matrix(0.2537, -0.96728, 0.95587, 0.2507, -42.32686, 312.82127)" xlink:href="#ae"/><radialGradient id="bh" cx="648.54855" cy="476.20624" r="3.22224" gradientTransform="translate(-627.11403 -185.14504) scale(1.24415 0.77108)" xlink:href="#af"/><radialGradient id="bi" cx="182.9317" cy="182.30302" r="0.40729" gradientTransform="matrix(0.2537, -0.96728, 0.95587, 0.2507, -37.73615, 313.54565)" xlink:href="#ag"/><radialGradient id="bj" cx="183.60144" cy="182.86599" r="0.14767" gradientTransform="matrix(0.2537, -0.96728, 0.95587, 0.2507, -37.77445, 314.61531)" xlink:href="#ah"/><radialGradient id="bk" cx="177.849" cy="188.47548" r="0.14767" gradientTransform="matrix(0.2537, -0.96728, 0.95587, 0.2507, -47.42947, 313.25424)" xlink:href="#ah"/><radialGradient id="bl" cx="176.74339" cy="186.76133" r="1.30048" gradientTransform="matrix(1, 0, 0, 1, 0, 0)" xlink:href="#ag"/><radialGradient id="bm" cx="182.50301" cy="187.77841" r="0.59293" gradientTransform="translate(0 27.27862) scale(1 0.85473)" xlink:href="#ak"/></defs><g class="c"><path class="d" d="M242.32353,56.2144c0,4.92525-63.58129,8.918-87.37873,8.918-4.58538,0-9.171-.12348-13.75326-.2835q-9.63723-.33654-19.26389-.92134-10.14445-.604-20.27177-1.46531-3.79277-.32859-7.58111-.70568-3.86517-.38983-7.72153-.86128c-1.244-.1538-2.48349-.35229-3.70836-.61993q-1.85294-.40488-3.73487-.65741a21.88928,21.88928,0,0,0-7.12486-.013c-2.3343.451-4.5721,1.27661-6.8807,1.83049a41.21436,41.21436,0,0,1-8.59193,1.12378,7.2253,7.2253,0,0,1,1.60057-1.3976,37.21543,37.21543,0,0,1,4.44277-2.5362c2.14109-1.07576,4.26248-2.36985,6.45989-3.40579a29.55,29.55,0,0,1,7.4349-2.19134c4.44285-.81727,8.93356-1.37894,13.42118-1.88319,5.61074-.63045,11.23526-1.1373,16.86352-1.58239q9.00365-.712,18.02236-1.214,8.44437-.47675,16.89765-.778c4.49442-.15507,8.992-.27435,13.48944-.27435C178.74224,47.29643,242.32353,51.28914,242.32353,56.2144Z"/><polygon class="e" points="38.25 293.266 26.653 299.703 237.708 299.703 255.657 286.572 255.611 284.079 38.25 293.266"/><path class="f" d="M236.52508,258.59864l-.86746-199.38445c-12.06243,5.91817-64.2222,5.9182-80.70649,5.9182q-.37368,0-.74734-.0023c-1.07381-.00638-2.14755-.02454-3.2211-.04871q-1.89675-.04269-3.79291-.1081-2.14154-.07191-4.28241-.16232-2.34514-.09783-4.68961-.21138-2.50759-.12069-5.01451-.25528-2.6289-.14064-5.2571-.294-2.70906-.15778-5.4174-.32758-2.74806-.17213-5.49539-.356-2.74593-.18372-5.49107-.3792-2.70268-.19255-5.40447-.39728-2.61827-.19861-5.23554-.41018-2.49276-.20185-4.98433-.41792-2.32611-.20225-4.6508-.42049-2.11841-.19966-4.235-.4179-.96821-.10042-1.93583-.20636a25.61538,25.61538,0,0,1-2.82683-.5885q-.26059-.05868-.52166-.11522a26.37135,26.37135,0,0,0-7.35364-.70634l-1.23822.08427.221,199.207a9.81,9.81,0,0,0,9.43678,12.48993H227.08831A9.8099,9.8099,0,0,0,236.52508,258.59864Z"/><path class="a" d="M242.32984,260.32927V56.21441c0,4.92526-63.5812,8.918-87.37871,8.918q-1.79724,0-3.59432-.02924c-4.7989-.07261-9.59628-.249-14.3905-.4687q-8.5144-.3902-17.01852-.97514-8.76555-.597-17.51591-1.397c-5.3029-.49123-10.60164-1.04461-15.88269-1.73435-3.878-.50649-7.72018-1.49-11.65365-1.44118-3.95531.04913-7.6323,1.67156-11.44574,2.505q-.47637.10416-.95439.20048a19.75524,19.75524,0,0,1-3.84674.58949q-.67952.07353-1.36171.11872c-.22315.015-.86315-.06053-1.01577.13972-.13737.18024.24046.6185.36578.75686a5.197,5.197,0,0,0,.75974.60652c.32624.24652.66942.46711,1.00291.70321l3.44455,2.439,5.5635,3.93934.16454.1165V260.32927a11.53455,11.53455,0,0,0,11.12438,14.58326H231.20546A11.53455,11.53455,0,0,0,242.32984,260.32927Z"/><g class="g"><path class="h" d="M237.56863,263.90226c0-8.62279-36.85435-11.59375-82.31649-11.59375s-82.31649,3.29833-82.31649,11.92112,8.02532,6.88124,82.31649,7.56925C225.765,272.4519,237.56863,272.525,237.56863,263.90226Z"/><rect class="i" x="40.88863" y="119.9831" width="225.4691" height="175.35041"/></g><g class="j"><path class="k" d="M222.11048,188.34458a4.23235,4.23235,0,0,1-4.13637-3.36033l.00084-65.07106a4.2322,4.2322,0,0,1-.09091-.8719V79.8603a4.23141,4.23141,0,1,1,8.46281,0v38.74049l-.09175,64.63966a4.23535,4.23535,0,0,1-4.14462,5.10413Z"/></g><g class="l"><path class="m" d="M86.70229,210.25063a4.65909,4.65909,0,0,1-5.8106-4.54055l.70409-107.72836a4.6546,4.6546,0,0,1,9.309.06116l-.7041,107.72837A4.65535,4.65535,0,0,1,86.70229,210.25063Z"/></g><circle class="n" cx="223.04164" cy="197.39903" r="4.23358"/><circle class="o" cx="88.27422" cy="154.89365" r="13.58161" transform="translate(-42.05161 33.24021) rotate(-17.29227)"/><circle class="p" cx="88.09938" cy="204.67438" r="0.45269" transform="translate(-56.85661 35.43826) rotate(-17.29226)"/><circle class="q" cx="88.08577" cy="208.53981" r="0.45269" transform="translate(-58.00623 35.60894) rotate(-17.29227)"/><circle class="r" cx="88.09331" cy="206.39399" r="3.39545" transform="translate(-57.36804 35.51419) rotate(-17.29226)"/><line class="s" x1="88.23652" y1="165.62286" x2="88.08577" y2="208.53981"/><circle class="t" cx="88.23652" cy="165.62286" r="9.05434" transform="translate(-45.24252 33.71394) rotate(-17.29226)"/><circle class="u" cx="88.23652" cy="165.62286" r="4.52727" transform="translate(-45.24251 33.71393) rotate(-17.29226)"/><circle class="v" cx="88.23652" cy="165.62286" r="3.77273" transform="translate(-45.24251 33.71394) rotate(-17.29226)"/><polyline class="w" points="88.237 165.623 90.271 180.354 88.237 165.623 86.202 150.891 88.237 165.623 73.505 167.657 88.237 165.623 102.968 163.588 88.237 165.623 95.831 183.285 88.237 165.623 80.642 147.961 88.237 165.623 70.574 173.217 88.237 165.623 105.899 158.029 88.237 165.623 101.894 177.802 88.237 165.623 74.579 153.444 88.237 165.623 76.057 179.28 88.237 165.623 100.416 151.965 88.237 165.623 89.151 178.37 88.237 165.623 87.322 152.876 88.237 165.623 75.49 166.537 88.237 165.623 100.983 164.709 88.237 165.623 88.577 167.096 88.237 165.623 87.896 164.15 88.237 165.623 86.763 165.964 88.237 165.623 89.71 165.282 88.237 165.623 83.971 184.442 88.237 165.623 92.502 146.804 88.237 165.623 69.417 161.358 88.237 165.623 107.056 169.888 88.237 165.623 85.853 171.891 88.237 165.623 90.62 159.355 88.237 165.623 81.969 163.24 88.237 165.623 94.504 168.006 88.237 165.623 91.626 169.324 88.237 165.623 84.847 161.922 88.237 165.623 84.536 169.013 88.237 165.623 91.938 162.233 88.237 165.623 108.882 174.794 88.237 165.623 67.591 156.452 88.237 165.623 79.065 186.269 88.237 165.623 97.408 144.977 88.237 165.623 97.303 182.103 88.237 165.623 79.17 149.143 88.237 165.623 71.756 174.689 88.237 165.623 104.717 156.556 88.237 165.623 97.908 185.216 88.237 165.623 78.565 146.03 88.237 165.623 68.643 175.294 88.237 165.623 107.83 155.952 88.237 165.623 91.101 168.852 88.237 165.623 85.372 162.393 88.237 165.623 85.007 168.488 88.237 165.623 91.466 162.758 88.237 165.623 102.452 172.135 88.237 165.623 74.021 159.111 88.237 165.623 81.725 179.838 88.237 165.623 94.748 151.407 88.237 165.623 87.409 182.324 88.237 165.623 89.064 148.922 88.237 165.623 71.536 164.795 88.237 165.623 104.937 166.451 88.237 165.623 93.115 178.402 88.237 165.623 83.358 152.844 88.237 165.623 75.458 170.501 88.237 165.623 101.015 160.745"/><circle class="x" cx="88.08577" cy="208.53981" r="6.79091" transform="translate(-58.00622 35.60894) rotate(-17.29226)"/><circle class="y" cx="88.11497" cy="200.25225" r="1.93017"/><circle class="z" cx="88.19351" cy="177.88157" r="1.0781" transform="translate(-48.88831 34.25524) rotate(-17.29226)"/><circle class="aa" cx="88.14558" cy="191.52926" r="0.71405" transform="translate(-52.9472 34.85786) rotate(-17.29226)"/><circle class="ab" cx="88.13796" cy="193.68873" r="1.00413" transform="translate(-53.58943 34.9532) rotate(-17.29226)"/><circle class="ac" cx="88.11635" cy="199.82991" r="1.86426" transform="translate(-55.41585 35.22435) rotate(-17.29226)"/><path class="b" d="M232.2337,255.07313V121.99453h0c0,4.74736-55.69483,8.59581-77.27169,8.59581s-77.29359-3.84845-77.29359-8.59581h0V255.07318c.07618,5.90272,2.7717,11.8329,8.94029,11.8329h136.6847C229.4618,266.90608,232.30669,260.85758,232.2337,255.07313Z"/><g class="ad"><path class="ae" d="M159.579,156.26561c-18.67791,1.50493-37.416,2.26908-56.09287,3.8-19.99409,1.63886-41.801,7.14928-57.53906,20.1983q-.22448.18612-.44662.375c-8.76135,7.42889-15.9763,17.98992-15.41066,29.46293.44337,8.99281,5.68342,17.23709,12.52839,23.08634s15.20215,9.61118,23.5767,12.91789c48.69347,19.22676,104.26913,25.27834,153.42829,7.27559,9.885-3.62,19.52717-8.23322,27.684-14.88789s14.78232-15.49629,17.51361-25.66283c2.8151-10.47851,1.31455-21.88724-3.25779-31.72684-4.33138-9.32105-11.14834-16.47991-13.97464-26.61155-.52427-1.87938-1.108-3.95817-2.75385-5.00613a7.51489,7.51489,0,0,0-3.74218-.85011c-21.64114-1.0035-42.5259,3.5073-63.88286,5.93934C171.34119,155.2439,165.4631,155.79151,159.579,156.26561Z"/><path class="af" d="M154.70937,196.16526c-18.41324,3.47587-36.96486,6.22152-55.37428,9.7231-19.70782,3.74853-40.80793,11.53894-55.0745,26.18234q-.20349.20886-.40436.42023c-7.92473,8.31554-13.97983,19.58172-12.20151,30.93017,1.3939,8.89519,7.47814,16.53772,14.90444,21.62863s16.13511,7.946,24.81292,10.34657c50.45685,13.95813,106.36087,14.08593,153.33533-9.02515,9.44573-4.64722,18.54468-10.25627,25.95033-17.7379s13.05685-16.9756,14.69535-27.37434c1.68877-10.71784-1.01239-21.90329-6.60175-31.20292-5.2948-8.80954-12.832-15.20565-16.71613-24.98072-.72049-1.81324-1.52127-3.81845-3.26888-4.68609a7.51486,7.51486,0,0,0-3.8112-.44874c-21.62561,1.2956-41.91473,7.99429-62.89368,12.676C166.297,193.9028,160.51006,195.07026,154.70937,196.16526Z"/></g><path class="ag" d="M232.2337,121.99452c0,4.74735-55.69477,8.59583-77.27165,8.59583s-77.29363-3.84848-77.29363-8.59583,55.71675-8.59582,77.29363-8.59582S232.2337,117.24718,232.2337,121.99452Z"/><g class="ah"><circle class="ai" cx="125.32172" cy="130.59035" r="14.91016"/><ellipse class="aj" cx="124.27279" cy="122.37212" rx="9.96443" ry="6.00743" transform="translate(-8.91558 9.76874) rotate(-4.34581)"/><circle class="ak" cx="133.2539" cy="123.10411" r="1.22104"/><circle class="al" cx="135.16153" cy="124.70762" r="0.4427"/><circle class="am" cx="118.77688" cy="140.68513" r="0.4427"/><path class="an" d="M113.45845,131.67873c-.1463,2.87815,1.58571,7.02963,4.34722,8.24794"/><circle class="ao" cx="132.03287" cy="138.69966" r="1.35526"/></g><g class="ah"><circle class="ap" cx="169.5399" cy="112.31353" r="8.42633"/><ellipse class="aq" cx="168.94711" cy="107.66908" rx="5.6313" ry="3.39504" transform="translate(-7.67299 13.11171) rotate(-4.34581)"/><circle class="ar" cx="174.0227" cy="108.08275" r="0.69006"/><circle class="as" cx="175.10077" cy="108.98896" r="0.25019"/><circle class="at" cx="165.84115" cy="118.0185" r="0.25019"/><path class="au" d="M162.83549,112.92861c-.08268,1.62656.89614,3.97273,2.45679,4.66125"/><circle class="av" cx="173.33264" cy="116.89643" r="0.76591"/></g><g class="ah"><circle class="aw" cx="151.68465" cy="93.33985" r="4.48279"/><ellipse class="ax" cx="151.36928" cy="90.86901" rx="2.99584" ry="1.80616" transform="translate(-6.45049 11.73143) rotate(-4.34581)"/><circle class="ay" cx="154.06948" cy="91.08908" r="0.36711"/><circle class="az" cx="154.64302" cy="91.57118" r="0.1331"/><circle class="ba" cx="149.71691" cy="96.37488" r="0.1331"/><path class="bb" d="M148.11791,93.66707a2.79181,2.79181,0,0,0,1.307,2.47978"/><circle class="bc" cx="153.70237" cy="95.77794" r="0.40746"/></g><g class="bd"><circle class="be" cx="197.09102" cy="164.49202" r="9.8398"/><ellipse class="bf" cx="196.39878" cy="159.06849" rx="6.57592" ry="3.96454" transform="translate(-11.48891 15.33967) rotate(-4.34581)"/><circle class="bg" cx="202.32578" cy="159.55155" r="0.80581"/><circle class="bh" cx="203.5847" cy="160.60977" r="0.29216"/><circle class="bi" cx="192.77181" cy="171.15397" r="0.29216"/><path class="bj" d="M189.262,165.21028c-.09655,1.89941,1.04647,4.63914,2.8689,5.44315"/><circle class="bk" cx="201.51997" cy="169.84368" r="0.89439"/></g><g class="bd"><circle class="bl" cx="180.14681" cy="184.93134" r="5.23476"/><ellipse class="bm" cx="179.77855" cy="182.04603" rx="3.49838" ry="2.10913" transform="translate(-13.27784 14.14632) rotate(-4.34581)"/><circle class="bn" cx="182.9317" cy="182.30302" r="0.42869"/><circle class="bo" cx="183.60144" cy="182.86599" r="0.15543"/><circle class="bp" cx="177.849" cy="188.47548" r="0.15543"/><path class="bq" d="M175.98177,185.31345a3.26015,3.26015,0,0,0,1.52626,2.89575"/><circle class="br" cx="182.50301" cy="187.77841" r="0.47582"/></g><polygon class="bs" points="248.989 214.109 53.427 214.109 38.25 293.266 233.812 293.266 248.989 214.109"/><polygon class="bt" points="248.989 214.109 255.611 284.079 253.003 286.124 238.013 286.285 236.904 290.841 233.812 293.266 248.989 214.109"/><path class="bu" d="M115.77206,231.8483l.01367-.04883a3.48423,3.48423,0,0,1,1.23828-1.48339,3.22466,3.22466,0,0,1,1.73535-.57422l12.03614-.14356h.665a1.67147,1.67147,0,0,1,1.83106,1.31641,2.61191,2.61191,0,0,1-.83008,2.53711l-10.03125,27.26172a3.30278,3.30278,0,0,1-1.38281,1.67578,3.18429,3.18429,0,0,1-1.91992.57422,1.70307,1.70307,0,0,1-1.36914-.9336,1.93907,1.93907,0,0,1-.10059-1.74414l9.5-25.7539-7.71582.12011-1.21,2.44043,2.44824.24024a1.62253,1.62253,0,0,1,1.41211.88476,1.95179,1.95179,0,0,1,.11914,1.77149,3.46437,3.46437,0,0,1-1.37988,1.65234,2.90925,2.90925,0,0,1-1.9336.59766l-5.09179-.55078a1.75648,1.75648,0,0,1-1.50586-.98145,2.25089,2.25089,0,0,1,.1416-1.94043Z"/><path class="bu" d="M140.01327,231.1569a3.244,3.244,0,0,1,2.62207-1.55469,1.79521,1.79521,0,0,1,1.876,1.02832,2.46515,2.46515,0,0,1-.3711,2.3457,51.138,51.138,0,0,0-5.543,11.56055q1.53223,0,3.47266-.0957,1.90429-.04834,3.4834-.04786,1.0122-2.94434,2.10254-5.38574A12.30874,12.30874,0,0,0,146.523,240.276a3.46774,3.46774,0,0,1-1.8623,1.2207,1.9907,1.9907,0,0,1-1.82617-.23926,1.541,1.541,0,0,1-.78809-1.50781,2.90641,2.90641,0,0,1,.87695-1.915q5.0127-5.8872,10.02247-7.94531a2.08356,2.08356,0,0,1,1.1416-.24024h.07129a1.0442,1.0442,0,0,1,.2998-.04687,1.79444,1.79444,0,0,1,1.876,1.02832,2.284,2.284,0,0,1-.39453,2.3457,57.43868,57.43868,0,0,0-6.01661,13.044,2.65218,2.65218,0,0,1-.84472,2.15429,3.09679,3.09679,0,0,1-2.14649,1.125,2.31157,2.31157,0,0,1-.80371.04786q-2.94434,0-5.39843.04785-2.40675.04833-6.23536.04785a1.75491,1.75491,0,0,1-1.82519-1.125,2.42847,2.42847,0,0,1,.50293-2.39356A63.93347,63.93347,0,0,1,140.01327,231.1569Z"/><path class="bu" d="M159.67831,233.4069a2.63173,2.63173,0,0,1,.67285-2.48828,3.29343,3.29343,0,0,1,2.50781-1.22071l12.75879-.0957a1.71322,1.71322,0,0,1,1.76367.9082,2.467,2.467,0,0,1-.21875,2.22656,1.76722,1.76722,0,0,1-.23828.52735L168.565,247.7194a3.41447,3.41447,0,0,1-1.26953,1.24414,3.07068,3.07068,0,0,1-1.58985.47949h-6.24707a1.97011,1.97011,0,0,1-1.47656-.64551,1.82784,1.82784,0,0,1-.36914-1.55664l2.00683-13.61914Zm3.333,11.12988h2.20117l5.84082-10.00488-6.56641.12011Z"/><path class="bu" d="M69.66073,262.32487a3.46846,3.46846,0,0,1,1.97852-.76661l12.78222-.0957a1.86285,1.86285,0,0,1,1.82813,1.0293,2.51809,2.51809,0,0,1-.39551,2.34472,62.63752,62.63752,0,0,0-6.43848,14.16993,3.06471,3.06471,0,0,1-1.30859,1.65136,2.7612,2.7612,0,0,1-1.94629.64551,1.63829,1.63829,0,0,1-1.43652-.88476,2.11525,2.11525,0,0,1-.14258-1.77149,78.18332,78.18332,0,0,1,5.09472-12.20605l-9.3291.07129a1.79417,1.79417,0,0,1-1.584-.69336,2.14584,2.14584,0,0,1-.28613-1.77149A3.13521,3.13521,0,0,1,69.66073,262.32487Z"/><path class="bu" d="M85.91952,277.7858a65.99639,65.99639,0,0,1,6.10937-7.37207,30.89088,30.89088,0,0,0-.0957-5.57715,2.56971,2.56971,0,0,1,.8125-2.29687,3.28446,3.28446,0,0,1,2.34961-1.07715,1.65051,1.65051,0,0,1,1.87793,1.55566,25.76913,25.76913,0,0,1,.16309,2.84766,26.76955,26.76955,0,0,1,7.93457-4.11621c.13574-.03223.27246-.06348.4082-.0957a8.53414,8.53414,0,0,1,1.67871-.19141h.335a6.98116,6.98116,0,0,1,1.14746.0957,2.91084,2.91084,0,0,1,2.31934,1.60352q.7544,1.72411-.80371,5.09863-3.83351,8.42286-4.03418,10.05176a3.29821,3.29821,0,0,1-1.165,1.915,2.9972,2.9972,0,0,1-2.02051.83789H99.84921q-.01319.04688-.15821.04687l-.17968.04883H95.48983a1.65587,1.65587,0,0,1-1.51172-.69433,1.90018,1.90018,0,0,1-.30957-1.77149,3.11775,3.11775,0,0,1,1.23535-1.65136,2.94037,2.94037,0,0,1,1.91211-.78907h3.4961a.18087.18087,0,0,0,.1084-.04883h1.26855q.22266-.74121,3.919-8.83105a5.00617,5.00617,0,0,0,.36035-.98145,6.21413,6.21413,0,0,0-.75391.04786q-7.62744,2.5371-15.29492,13.2832a3.49657,3.49657,0,0,1-1.77735,1.43652,2.31239,2.31239,0,0,1-1.90136-.04883,1.65731,1.65731,0,0,1-.92774-1.43554A2.78056,2.78056,0,0,1,85.91952,277.7858Zm14.542,3.13477q.06006-.04687.45606-.3584a3.90528,3.90528,0,0,1-.59961.3584Q100.53476,280.82682,100.46151,280.92057Z"/><path class="bu" d="M117.17928,263.25748a3.43224,3.43224,0,0,1,1.27735-1.26855,3.89213,3.89213,0,0,1,1.58887-.47852,1.93737,1.93737,0,0,1,2.00488,1.17285,2.55446,2.55446,0,0,1-.39844,2.53711,43.2955,43.2955,0,0,0-3.74609,6.77344,3.62938,3.62938,0,0,1-1.59082,1.72363,3.27386,3.27386,0,0,1-2.09278.47852,1.92185,1.92185,0,0,1-1.40527-1.17383,2.42187,2.42187,0,0,1,.06543-2.00976A57.27585,57.27585,0,0,1,117.17928,263.25748Z"/><path class="bu" d="M127.80624,263.25748a3.43221,3.43221,0,0,1,1.27734-1.26855,3.89218,3.89218,0,0,1,1.58887-.47852,1.93736,1.93736,0,0,1,2.00488,1.17285,2.55446,2.55446,0,0,1-.39844,2.53711,43.29632,43.29632,0,0,0-3.74609,6.77344,3.62933,3.62933,0,0,1-1.59082,1.72363,3.27385,3.27385,0,0,1-2.09277.47852,1.92188,1.92188,0,0,1-1.40528-1.17383,2.42191,2.42191,0,0,1,.06543-2.00976A57.27589,57.27589,0,0,1,127.80624,263.25748Z"/><path class="bu" d="M134.28475,272.23307a3.55009,3.55009,0,0,1,1.25782-1.55567,2.90355,2.90355,0,0,1,1.83691-.59863,1.73,1.73,0,0,1,1.62793.88574,2.26638,2.26638,0,0,1-.00391,1.96192q-.87012,2.15625-2.21875,6.08008a3.23974,3.23974,0,0,1-1.28418,1.65136,2.852,2.852,0,0,1-1.94629.64551,1.67181,1.67181,0,0,1-1.48242-.88476,2.10815,2.10815,0,0,1-.14355-1.77149Q133.31551,274.57779,134.28475,272.23307Zm4.01856-9.9082a3.14693,3.14693,0,0,1,1.9541-.76661l12.78223-.0957a1.806,1.806,0,0,1,1.8291,1.0293,2.51809,2.51809,0,0,1-.39551,2.34472,63.51613,63.51613,0,0,0-6.415,14.16993,3.18948,3.18948,0,0,1-1.332,1.65136,2.76118,2.76118,0,0,1-1.94629.64551,1.63829,1.63829,0,0,1-1.43652-.88476,2.00775,2.00775,0,0,1-.09473-1.77149,76.91054,76.91054,0,0,1,5.07129-12.20605l-9.35449.07129a1.77151,1.77151,0,0,1-1.55957-.69336,2.09471,2.09471,0,0,1-.30957-1.77149A3.27657,3.27657,0,0,1,138.30331,262.32487Z"/><path class="bu" d="M161.523,263.01822a3.24515,3.24515,0,0,1,2.62207-1.55566,1.79711,1.79711,0,0,1,1.876,1.0293,2.4607,2.4607,0,0,1-.37109,2.34472,51.22174,51.22174,0,0,0-5.542,11.56055q1.53222,0,3.47167-.0957,1.90431-.04687,3.48438-.04688,1.01074-2.94434,2.10156-5.38574a12.20448,12.20448,0,0,0-1.13281,1.26856,3.4642,3.4642,0,0,1-1.8623,1.2207,1.98875,1.98875,0,0,1-1.8252-.24024,1.54,1.54,0,0,1-.78906-1.50781,2.90877,2.90877,0,0,1,.87695-1.91406q5.01415-5.88867,10.02246-7.94629a2.08271,2.08271,0,0,1,1.1416-.23926h.07129a1.04676,1.04676,0,0,1,.29981-.04785,1.79845,1.79845,0,0,1,1.877,1.0293,2.28275,2.28275,0,0,1-.39551,2.34472,57.40851,57.40851,0,0,0-6.01562,13.04493,2.65848,2.65848,0,0,1-.84473,2.15429,3.10457,3.10457,0,0,1-2.14746,1.125,2.30556,2.30556,0,0,1-.80273.04688q-2.94435,0-5.39844.04883-2.40673.04688-6.23633.04687a1.75493,1.75493,0,0,1-1.8252-1.125,2.42672,2.42672,0,0,1,.50293-2.39258A63.936,63.936,0,0,1,161.523,263.01822Z"/><path class="bu" d="M182.03085,262.32487a3.46589,3.46589,0,0,1,1.97851-.76661l12.78223-.0957a1.86052,1.86052,0,0,1,1.82715,1.0293,2.51488,2.51488,0,0,1-.39453,2.34472,62.67655,62.67655,0,0,0-6.43946,14.16993,3.05818,3.05818,0,0,1-1.30761,1.65136,2.76121,2.76121,0,0,1-1.94629.64551,1.63564,1.63564,0,0,1-1.43555-.88476,2.11168,2.11168,0,0,1-.14355-1.77149,78.18138,78.18138,0,0,1,5.09472-12.20605l-9.3291.07129a1.79242,1.79242,0,0,1-1.583-.69336,2.14248,2.14248,0,0,1-.28711-1.77149A3.13528,3.13528,0,0,1,182.03085,262.32487Z"/><path class="bu" d="M204.84432,263.01822a3.15821,3.15821,0,0,1,2.62207-1.55566,1.79922,1.79922,0,0,1,1.877,1.0293,2.387,2.387,0,0,1-.40821,2.39355,62.61828,62.61828,0,0,0-6.40234,14.1211,3.24709,3.24709,0,0,1-1.28516,1.65136,2.852,2.852,0,0,1-1.94629.64551,1.67447,1.67447,0,0,1-1.48339-.88476,2.11166,2.11166,0,0,1-.14258-1.77149A67.97043,67.97043,0,0,1,204.84432,263.01822Z"/></g></svg>