<svg xmlns="http://www.w3.org/2000/svg" xmlns:xlink="http://www.w3.org/1999/xlink" viewBox="0 0 303.95444 341.11501"><defs><style>.a,.d{opacity:0.72;}.a{fill:url(#a);}.ah,.b,.l{opacity:0.8;}.b{fill:url(#b);}.c{isolation:isolate;}.d{fill:url(#c);}.e{fill:#683c11;fill-opacity:0.51;}.f,.h{mix-blend-mode:multiply;}.f{fill:url(#d);}.g{clip-path:url(#f);}.h{fill:url(#g);}.i{opacity:0.42;fill:url(#h);}.j{opacity:0.54;}.k{fill:url(#i);}.be,.l{mix-blend-mode:hard-light;}.m{fill:url(#j);}.n,.o,.v,.y{opacity:0.5;}.n{fill:url(#k);}.o{fill:url(#l);}.p{opacity:0.25;fill:url(#m);}.aa,.ab,.ac,.ad,.p,.q,.r,.s,.u,.v,.w,.x,.y,.z{mix-blend-mode:screen;}.q{fill:url(#n);}.r{fill:url(#o);}.s{opacity:0.2;fill:url(#p);}.ao,.av,.bc,.bk,.br,.t,.x{fill:none;}.u{opacity:0.15;fill:url(#q);}.v{fill:url(#r);}.w{fill:url(#s);}.x{stroke:#fff;stroke-width:1.69256px;opacity:0.03;}.ah,.x{stroke-miterlimit:10;}.y{fill:url(#t);}.z{fill:url(#u);}.aa{fill:url(#v);}.ab{fill:url(#w);}.ac{fill:url(#x);}.ad{fill:url(#y);}.ae{clip-path:url(#aa);}.af,.ag,.ai{opacity:0.3;}.af{fill:url(#ab);}.ag{fill:url(#ac);}.ah,.ao{stroke-width:0.84628px;}.ah{fill:url(#ad);stroke:url(#ae);}.aj{fill:url(#af);}.ak,.an,.ao,.ar,.au,.av,.ay,.bb,.bc,.bg,.bj,.bk,.bn,.bq,.br{mix-blend-mode:soft-light;}.ak{fill:url(#ag);}.al{fill:url(#ah);}.am{fill:url(#ai);}.an{fill:url(#aj);}.ao,.av,.bc,.bk,.br{stroke-linecap:round;stroke-linejoin:round;}.ao{stroke:url(#ak);}.ap{fill:url(#al);}.aq{fill:url(#am);}.ar{fill:url(#an);}.as{fill:url(#ao);}.at{fill:url(#ap);}.au{fill:url(#aq);}.av{stroke-width:0.47827px;stroke:url(#ar);}.aw{fill:url(#as);}.ax{fill:url(#at);}.ay{fill:url(#au);}.az{fill:url(#av);}.ba{fill:url(#aw);}.bb{fill:url(#ax);}.bc{stroke-width:0.25444px;stroke:url(#ay);}.bd{fill:url(#az);}.be{opacity:0.2;}.bf{fill:url(#ba);}.bg{fill:url(#bb);}.bh{fill:url(#bc);}.bi{fill:url(#bd);}.bj{fill:url(#be);}.bk{stroke-width:0.55849px;stroke:url(#bf);}.bl{fill:url(#bg);}.bm{fill:url(#bh);}.bn{fill:url(#bi);}.bo{fill:url(#bj);}.bp{fill:url(#bk);}.bq{fill:url(#bl);}.br{stroke-width:0.29712px;stroke:url(#bm);}.bs{fill:url(#bn);}.bt{fill:#fff;}.bu{fill:#c6c6c6;}.bv{fill:#3c3c3b;}</style><linearGradient id="a" x1="101.84792" y1="165.56347" x2="196.2285" y2="165.56347" gradientUnits="userSpaceOnUse"><stop offset="0" stop-color="#f5fbff"/><stop offset="0.62567" stop-color="#e9f1f5"/><stop offset="1" stop-color="#c5d9e0"/></linearGradient><linearGradient id="b" x1="215.91224" y1="270.68209" x2="97.81213" y2="114.15705" gradientUnits="userSpaceOnUse"><stop offset="0" stop-color="#48bb07"/><stop offset="1" stop-color="#82f039"/></linearGradient><linearGradient id="c" x1="150.27363" y1="38.3778" x2="150.27363" y2="64.94849" xlink:href="#a"/><linearGradient id="d" x1="168.14243" y1="61.71976" x2="145.84486" y2="243.33184" gradientUnits="userSpaceOnUse"><stop offset="0" stop-color="#bfc4c7"/><stop offset="1" stop-color="#b1c3c9"/></linearGradient><clipPath id="f"><path class="a" d="M243.29716,260.32927V56.21441c0,4.92526-63.58119,8.918-87.37871,8.918q-1.79724,0-3.59431-.02924c-4.7989-.07261-9.59629-.249-14.3905-.4687q-8.5144-.3902-17.01852-.97514-8.76557-.597-17.51592-1.397c-5.3029-.49123-10.60163-1.04461-15.88269-1.73435-3.878-.50649-7.72017-1.49-11.65365-1.44118-3.9553.04913-7.63229,1.67156-11.44574,2.505q-.47636.10416-.95438.20048a19.75535,19.75535,0,0,1-3.84674.58949q-.67953.07353-1.36172.11872c-.22315.015-.86315-.06053-1.01577.13972-.13737.18024.24046.6185.36578.75686a5.19749,5.19749,0,0,0,.75974.60652c.32625.24652.66943.46711,1.00291.70321l3.44455,2.439L68.375,71.08505l.16453.1165V260.32927a11.53455,11.53455,0,0,0,11.12438,14.58326H232.17278A11.53455,11.53455,0,0,0,243.29716,260.32927Z"/></clipPath><linearGradient id="g" x1="117.2619" y1="163.94125" x2="168.43908" y2="296.11187" gradientUnits="userSpaceOnUse"><stop offset="0" stop-color="#f5f5f5"/><stop offset="1" stop-color="#c3d1d6"/></linearGradient><linearGradient id="h" x1="95.82085" y1="207.6583" x2="209.91913" y2="207.6583" xlink:href="#b"/><radialGradient id="i" cx="223.14398" cy="128.1371" r="64.69946" gradientTransform="translate(236.83902 -95.08087) rotate(89.70298) scale(1 0.11591)" gradientUnits="userSpaceOnUse"><stop offset="0" stop-color="#e6f3ff"/><stop offset="1" stop-color="#b9cbf0" stop-opacity="0"/></radialGradient><radialGradient id="j" cx="-1534.03072" cy="-651.75018" r="54.27899" gradientTransform="matrix(0.00636, -0.99998, 0.15751, 0.001, 199.27217, -1381.47066)" xlink:href="#i"/><radialGradient id="k" cx="224.11219" cy="197.4173" r="3.82592" gradientTransform="matrix(1, 0, 0, 1, 0, 0)" xlink:href="#i"/><radialGradient id="l" cx="224.11219" cy="124.23495" r="3.82592" gradientTransform="matrix(1, 0, 0, 1, 0, 0)" xlink:href="#i"/><radialGradient id="m" cx="-1846.07512" cy="-860.06152" r="13.58164" gradientTransform="translate(1935.31661 1014.95527)" gradientUnits="userSpaceOnUse"><stop offset="0.1"/><stop offset="0.11244" stop-color="#080602"/><stop offset="0.16172" stop-color="#231b08"/><stop offset="0.21838" stop-color="#392c0d"/><stop offset="0.28458" stop-color="#4a3910"/><stop offset="0.36644" stop-color="#554213"/><stop offset="0.48125" stop-color="#5c4815"/><stop offset="0.8" stop-color="#5e4915"/><stop offset="1"/></radialGradient><radialGradient id="n" cx="-1861.03917" cy="-812.58281" r="0.45271" gradientTransform="translate(1950.1059 1017.25712)" gradientUnits="userSpaceOnUse"><stop offset="0" stop-color="#d4e194"/><stop offset="0.05952" stop-color="#afba7a"/><stop offset="0.13651" stop-color="#868f5e"/><stop offset="0.21955" stop-color="#626845"/><stop offset="0.30759" stop-color="#44482f"/><stop offset="0.40211" stop-color="#2b2e1e"/><stop offset="0.50556" stop-color="#181911"/><stop offset="0.62249" stop-color="#0a0b07"/><stop offset="0.76429" stop-color="#020302"/><stop offset="1"/></radialGradient><radialGradient id="o" cx="-1862.20115" cy="-808.89613" r="0.45271" gradientTransform="translate(1951.25421 1017.43601)" xlink:href="#n"/><radialGradient id="p" cx="-1861.55611" cy="-810.94272" r="3.39543" gradientTransform="translate(1950.61677 1017.33666)" gradientUnits="userSpaceOnUse"><stop offset="0.05"/><stop offset="0.09242" stop-color="#040a03"/><stop offset="0.29802" stop-color="#183411"/><stop offset="0.48337" stop-color="#25531c"/><stop offset="0.64031" stop-color="#2e6622"/><stop offset="0.75" stop-color="#316d24"/><stop offset="0.78593" stop-color="#4f6e16"/><stop offset="0.83397" stop-color="#716f06"/><stop offset="0.86" stop-color="#7e6f00"/><stop offset="0.88764" stop-color="#7a6c00"/><stop offset="0.91229" stop-color="#706200"/><stop offset="0.93581" stop-color="#5d5200"/><stop offset="0.95863" stop-color="#443c00"/><stop offset="0.98074" stop-color="#231f00"/><stop offset="1"/></radialGradient><radialGradient id="q" cx="-1849.30032" cy="-849.82846" r="9.05439" gradientTransform="translate(1938.50416 1015.45134)" gradientUnits="userSpaceOnUse"><stop offset="0" stop-color="#200"/><stop offset="0.73" stop-color="#984023"/><stop offset="1" stop-color="#200"/></radialGradient><radialGradient id="r" cx="-1849.30032" cy="-849.82846" r="4.52725" gradientTransform="translate(1938.50423 1015.4512)" gradientUnits="userSpaceOnUse"><stop offset="0.15" stop-color="#fff"/><stop offset="0.20939" stop-color="#e5d3d3"/><stop offset="0.29044" stop-color="#c49c9e"/><stop offset="0.36051" stop-color="#ad7477"/><stop offset="0.41599" stop-color="#9e5c5f"/><stop offset="0.45" stop-color="#995356"/><stop offset="0.57175" stop-color="#6b3335"/><stop offset="0.69355" stop-color="#431718"/><stop offset="0.79053" stop-color="#2b0606"/><stop offset="0.85" stop-color="#200"/><stop offset="0.85727" stop-color="#260201"/><stop offset="0.8648" stop-color="#330704"/><stop offset="0.87246" stop-color="#471009"/><stop offset="0.8802" stop-color="#641d0f"/><stop offset="0.88801" stop-color="#8a2e18"/><stop offset="0.89577" stop-color="#b74223"/><stop offset="0.9" stop-color="#d34e29"/><stop offset="0.90254" stop-color="#c84927"/><stop offset="0.91417" stop-color="#9c361c"/><stop offset="0.92635" stop-color="#772514"/><stop offset="0.93893" stop-color="#58180c"/><stop offset="0.95205" stop-color="#400d07"/><stop offset="0.96594" stop-color="#2f0603"/><stop offset="0.98111" stop-color="#250101"/><stop offset="1" stop-color="#200"/></radialGradient><radialGradient id="s" cx="-1849.30032" cy="-849.82846" r="3.7727" gradientTransform="translate(1938.50423 1015.4512)" gradientUnits="userSpaceOnUse"><stop offset="0.15" stop-color="#fff"/><stop offset="0.28237" stop-color="#c2c2c2"/><stop offset="0.42528" stop-color="#888"/><stop offset="0.5636" stop-color="#575757"/><stop offset="0.69361" stop-color="#313131"/><stop offset="0.81336" stop-color="#161616"/><stop offset="0.91921" stop-color="#060606"/><stop offset="1"/></radialGradient><radialGradient id="t" cx="-1862.20115" cy="-808.89613" r="6.79086" gradientTransform="translate(1951.25424 1017.43596)" gradientUnits="userSpaceOnUse"><stop offset="0.64"/><stop offset="0.71799" stop-color="#000200"/><stop offset="0.74608" stop-color="#020902"/><stop offset="0.76609" stop-color="#051405"/><stop offset="0.78228" stop-color="#082509"/><stop offset="0.79598" stop-color="#0d3b0e"/><stop offset="0.8" stop-color="#0f4310"/><stop offset="0.8131" stop-color="#1e2c0a"/><stop offset="0.82975" stop-color="#2d1605"/><stop offset="0.84569" stop-color="#360901"/><stop offset="0.86" stop-color="#390400"/><stop offset="0.8715" stop-color="#250300"/><stop offset="0.88602" stop-color="#140100"/><stop offset="0.90412" stop-color="#090100"/><stop offset="0.92951" stop-color="#020000"/><stop offset="1"/></radialGradient><radialGradient id="u" cx="-1859.70983" cy="-816.80042" r="1.93017" gradientTransform="translate(2107.52561 427.34287) rotate(-17.29226)" gradientUnits="userSpaceOnUse"><stop offset="0.1"/><stop offset="0.24639" stop-color="#1b1103"/><stop offset="0.42619" stop-color="#362207"/><stop offset="0.61009" stop-color="#492e09"/><stop offset="0.79889" stop-color="#54350b"/><stop offset="1" stop-color="#58370b"/></radialGradient><radialGradient id="v" cx="-1852.98524" cy="-838.13663" r="1.07807" gradientTransform="translate(1942.14606 1016.01823)" gradientUnits="userSpaceOnUse"><stop offset="0.1" stop-color="#192f1b"/><stop offset="0.2285" stop-color="#122214"/><stop offset="0.47516" stop-color="#080f09"/><stop offset="0.72928" stop-color="#020402"/><stop offset="1"/></radialGradient><radialGradient id="w" cx="-1857.08772" cy="-825.12005" r="0.714" gradientTransform="translate(1946.20061 1016.64934)" xlink:href="#u"/><radialGradient id="x" cx="-1857.73689" cy="-823.06044" r="1.00408" gradientTransform="translate(1946.84216 1016.74921)" gradientUnits="userSpaceOnUse"><stop offset="0.1"/><stop offset="0.29001" stop-color="#14160e"/><stop offset="0.51699" stop-color="#25291a"/><stop offset="0.75084" stop-color="#303422"/><stop offset="1" stop-color="#333824"/></radialGradient><radialGradient id="y" cx="-1859.58297" cy="-817.20326" r="1.86428" gradientTransform="translate(1948.66667 1017.03311)" xlink:href="#v"/><clipPath id="aa"><path class="b" d="M233.201,255.07313V121.99453h0c0,4.74736-55.69483,8.59581-77.27168,8.59581s-77.29359-3.84845-77.29359-8.59581h0V255.07318c.07618,5.90272,2.77169,11.8329,8.94029,11.8329H224.26073C230.42912,266.90608,233.274,260.85758,233.201,255.07313Z"/></clipPath><linearGradient id="ab" x1="312.57612" y1="217.33703" x2="65.542" y2="194.35711" xlink:href="#b"/><linearGradient id="ac" x1="32.30993" y1="242.44061" x2="266.81891" y2="242.44061" xlink:href="#b"/><linearGradient id="ad" x1="293.17124" y1="121.99452" x2="110.02505" y2="121.99452" xlink:href="#b"/><linearGradient id="ae" x1="78.21261" y1="121.99452" x2="233.62416" y2="121.99452" gradientUnits="userSpaceOnUse"><stop offset="0" stop-color="#74ff26"/><stop offset="1" stop-color="#82f039"/></linearGradient><radialGradient id="af" cx="126.28905" cy="130.59035" r="14.16583" gradientTransform="matrix(0.2537, -0.96728, 0.95587, 0.2507, -30.57796, 220.00808)" gradientUnits="userSpaceOnUse"><stop offset="0" stop-color="#74c735" stop-opacity="0.8"/><stop offset="0.29921" stop-color="#77ca39" stop-opacity="0.80046"/><stop offset="0.52418" stop-color="#82d244" stop-opacity="0.80193"/><stop offset="0.72493" stop-color="#93e058" stop-opacity="0.8044"/><stop offset="0.91041" stop-color="#acf374" stop-opacity="0.80787"/><stop offset="1" stop-color="#bbff85" stop-opacity="0.81"/></radialGradient><radialGradient id="ag" cx="445.61807" cy="474.5636" r="9.1779" gradientTransform="translate(-429.17622 -243.55234) scale(1.24415 0.77108)" gradientUnits="userSpaceOnUse"><stop offset="0" stop-color="#75eb52"/><stop offset="0.37881" stop-color="#75eb52" stop-opacity="0.99203"/><stop offset="0.51527" stop-color="#76ea53" stop-opacity="0.96313"/><stop offset="0.61253" stop-color="#77ea55" stop-opacity="0.91281"/><stop offset="0.69121" stop-color="#79e957" stop-opacity="0.8409"/><stop offset="0.75863" stop-color="#7ce75a" stop-opacity="0.74715"/><stop offset="0.81834" stop-color="#7fe55e" stop-opacity="0.63133"/><stop offset="0.87231" stop-color="#82e362" stop-opacity="0.49335"/><stop offset="0.92196" stop-color="#86e167" stop-opacity="0.33264"/><stop offset="0.96609" stop-color="#8bde6d" stop-opacity="0.15775"/><stop offset="1" stop-color="#8fdc72" stop-opacity="0"/></radialGradient><radialGradient id="ah" cx="134.22123" cy="123.10411" r="1.16008" gradientTransform="matrix(0.2537, -0.96728, 0.95587, 0.2507, -17.50225, 222.07134)" gradientUnits="userSpaceOnUse"><stop offset="0" stop-color="#cbebc1"/><stop offset="0.37881" stop-color="#cbebc0" stop-opacity="0.99203"/><stop offset="0.51527" stop-color="#c9eabe" stop-opacity="0.96313"/><stop offset="0.61253" stop-color="#c6eaba" stop-opacity="0.91281"/><stop offset="0.69121" stop-color="#c1e9b4" stop-opacity="0.8409"/><stop offset="0.75863" stop-color="#bce7ad" stop-opacity="0.74715"/><stop offset="0.81834" stop-color="#b5e5a4" stop-opacity="0.63133"/><stop offset="0.87231" stop-color="#ade399" stop-opacity="0.49335"/><stop offset="0.92196" stop-color="#a3e18c" stop-opacity="0.33264"/><stop offset="0.96609" stop-color="#98de7e" stop-opacity="0.15775"/><stop offset="1" stop-color="#8fdc72" stop-opacity="0"/></radialGradient><radialGradient id="ai" cx="136.12885" cy="124.70762" r="0.4206" gradientTransform="matrix(0.2537, -0.96728, 0.95587, 0.2507, -17.61134, 225.11806)" gradientUnits="userSpaceOnUse"><stop offset="0" stop-color="#cbebc1"/><stop offset="0.22496" stop-color="#caebc0" stop-opacity="0.98901"/><stop offset="0.3644" stop-color="#c8eabd" stop-opacity="0.95275"/><stop offset="0.48062" stop-color="#c4e9b8" stop-opacity="0.89088"/><stop offset="0.58411" stop-color="#bfe8b1" stop-opacity="0.80322"/><stop offset="0.67914" stop-color="#b8e6a8" stop-opacity="0.68961"/><stop offset="0.7679" stop-color="#b0e49d" stop-opacity="0.55"/><stop offset="0.85188" stop-color="#a6e290" stop-opacity="0.38414"/><stop offset="0.92991" stop-color="#9bdf82" stop-opacity="0.19725"/><stop offset="1" stop-color="#8fdc72" stop-opacity="0"/></radialGradient><radialGradient id="aj" cx="119.7442" cy="140.68513" r="0.4206" gradientTransform="matrix(0.2537, -0.96728, 0.95587, 0.2507, -45.11173, 221.24133)" xlink:href="#ai"/><radialGradient id="ak" cx="116.59508" cy="135.8027" r="3.70417" gradientTransform="matrix(1, 0, 0, 1, 0, 0)" xlink:href="#ah"/><radialGradient id="al" cx="133.00019" cy="138.69966" r="1.68884" gradientTransform="translate(0 20.14894) scale(1 0.85473)" gradientUnits="userSpaceOnUse"><stop offset="0" stop-color="#75eb52"/><stop offset="0.09168" stop-color="#76eb53" stop-opacity="0.96822"/><stop offset="0.22975" stop-color="#78e956" stop-opacity="0.88033"/><stop offset="0.39704" stop-color="#7ce75a" stop-opacity="0.73641"/><stop offset="0.58721" stop-color="#81e461" stop-opacity="0.53628"/><stop offset="0.79369" stop-color="#88e069" stop-opacity="0.2836"/><stop offset="1" stop-color="#8fdc72" stop-opacity="0"/></radialGradient><radialGradient id="am" cx="170.50723" cy="112.31353" r="8.00568" gradientTransform="matrix(0.2537, -0.96728, 0.95587, 0.2507, 19.89251, 249.08486)" xlink:href="#af"/><radialGradient id="an" cx="482.31779" cy="462.06478" r="5.1868" gradientTransform="translate(-430.16192 -248.61786) scale(1.24415 0.77108)" xlink:href="#ag"/><radialGradient id="ao" cx="174.99002" cy="108.08275" r="0.65561" gradientTransform="matrix(0.2537, -0.96728, 0.95587, 0.2507, 27.28212, 250.25089)" xlink:href="#ah"/><radialGradient id="ap" cx="176.0681" cy="108.98896" r="0.2377" gradientTransform="matrix(0.2537, -0.96728, 0.95587, 0.2507, 27.22047, 251.97272)" xlink:href="#ai"/><radialGradient id="aq" cx="166.80847" cy="118.0185" r="0.2377" gradientTransform="matrix(0.2537, -0.96728, 0.95587, 0.2507, 11.67889, 249.78182)" xlink:href="#ai"/><radialGradient id="ar" cx="165.02878" cy="115.25924" r="2.09337" gradientTransform="matrix(1, 0, 0, 1, 0, 0)" xlink:href="#ah"/><radialGradient id="as" cx="174.29996" cy="116.89643" r="0.95443" gradientTransform="translate(0 16.98157) scale(1 0.85473)" xlink:href="#al"/><radialGradient id="at" cx="152.65197" cy="93.33985" r="4.25901" gradientTransform="matrix(0.2537, -0.96728, 0.95587, 0.2507, 24.70352, 217.59687)" xlink:href="#af"/><radialGradient id="au" cx="469.25327" cy="442.01913" r="2.75937" gradientTransform="translate(-431.4855 -249.96121) scale(1.24415 0.77108)" xlink:href="#ag"/><radialGradient id="av" cx="155.03681" cy="91.08908" r="0.34878" gradientTransform="matrix(0.2537, -0.96728, 0.95587, 0.2507, 28.63477, 218.2172)" xlink:href="#ah"/><radialGradient id="aw" cx="155.61034" cy="91.57118" r="0.12646" gradientTransform="matrix(0.2537, -0.96728, 0.95587, 0.2507, 28.60198, 219.13321)" xlink:href="#ai"/><radialGradient id="ax" cx="150.68424" cy="96.37488" r="0.12646" gradientTransform="matrix(0.2537, -0.96728, 0.95587, 0.2507, 20.33389, 217.96765)" xlink:href="#ai"/><radialGradient id="ay" cx="149.73744" cy="94.90696" r="1.11367" gradientTransform="matrix(1, 0, 0, 1, 0, 0)" xlink:href="#ah"/><radialGradient id="az" cx="154.6697" cy="95.77794" r="0.50776" gradientTransform="translate(0 13.91369) scale(1 0.85473)" xlink:href="#al"/><radialGradient id="ba" cx="198.05834" cy="164.49202" r="9.34859" gradientTransform="matrix(0.2537, -0.96728, 0.95587, 0.2507, -9.42204, 314.83171)" xlink:href="#af"/><radialGradient id="bb" cx="501.18841" cy="521.18256" r="6.05686" gradientTransform="translate(-426.18814 -242.80273) scale(1.24415 0.77108)" xlink:href="#ag"/><radialGradient id="bc" cx="203.2931" cy="159.55155" r="0.76558" gradientTransform="matrix(0.2537, -0.96728, 0.95587, 0.2507, -0.79286, 316.19333)" xlink:href="#ah"/><radialGradient id="bd" cx="204.55202" cy="160.60977" r="0.27757" gradientTransform="matrix(0.2537, -0.96728, 0.95587, 0.2507, -0.86486, 318.20399)" xlink:href="#ai"/><radialGradient id="be" cx="193.73914" cy="171.15397" r="0.27757" gradientTransform="matrix(0.2537, -0.96728, 0.95587, 0.2507, -19.01345, 315.64558)" xlink:href="#ai"/><radialGradient id="bf" cx="191.66091" cy="167.93186" r="2.44453" gradientTransform="matrix(1, 0, 0, 1, 0, 0)" xlink:href="#ah"/><radialGradient id="bg" cx="202.48729" cy="169.84368" r="1.11454" gradientTransform="translate(0 24.67324) scale(1 0.85473)" xlink:href="#al"/><radialGradient id="bh" cx="181.11414" cy="184.93134" r="4.97343" gradientTransform="matrix(0.2537, -0.96728, 0.95587, 0.2507, -41.60494, 313.75694)" xlink:href="#af"/><radialGradient id="bi" cx="486.46866" cy="545.18366" r="3.22224" gradientTransform="translate(-424.49478 -238.33185) scale(1.24415 0.77108)" xlink:href="#ag"/><radialGradient id="bj" cx="183.89902" cy="182.30302" r="0.40729" gradientTransform="matrix(0.2537, -0.96728, 0.95587, 0.2507, -37.01424, 314.48133)" xlink:href="#ah"/><radialGradient id="bk" cx="184.56876" cy="182.86599" r="0.14767" gradientTransform="matrix(0.2537, -0.96728, 0.95587, 0.2507, -37.05254, 315.55099)" xlink:href="#ai"/><radialGradient id="bl" cx="178.81633" cy="188.47548" r="0.14767" gradientTransform="matrix(0.2537, -0.96728, 0.95587, 0.2507, -46.70756, 314.18992)" xlink:href="#ai"/><radialGradient id="bm" cx="177.71072" cy="186.76133" r="1.30048" gradientTransform="matrix(1, 0, 0, 1, 0, 0)" xlink:href="#ah"/><radialGradient id="bn" cx="183.47033" cy="187.77841" r="0.59293" gradientTransform="translate(0 27.27862) scale(1 0.85473)" xlink:href="#al"/></defs><g class="c"><path class="d" d="M243.27914,56.2144c0,4.92525-63.58129,8.918-87.37874,8.918-4.58538,0-9.171-.12348-13.75326-.2835q-9.63721-.33654-19.26389-.92134-10.14444-.604-20.27177-1.46531-3.79275-.32859-7.58111-.70568-3.86516-.38983-7.72152-.86128c-1.244-.1538-2.48349-.35229-3.70836-.61993q-1.85293-.40488-3.73487-.65741a21.88928,21.88928,0,0,0-7.12486-.013c-2.3343.451-4.57211,1.27661-6.88071,1.83049a41.21427,41.21427,0,0,1-8.59192,1.12378,7.22508,7.22508,0,0,1,1.60057-1.3976,37.21464,37.21464,0,0,1,4.44277-2.5362c2.14109-1.07576,4.26248-2.36985,6.45989-3.40579a29.54972,29.54972,0,0,1,7.4349-2.19134c4.44285-.81727,8.93355-1.37894,13.42117-1.88319,5.61075-.63045,11.23527-1.1373,16.86353-1.58239q9.00363-.712,18.02235-1.214,8.44438-.47675,16.89766-.778c4.49441-.15507,8.992-.27435,13.48943-.27435C179.69785,47.29643,243.27914,51.28914,243.27914,56.2144Z"/><polygon class="e" points="39.217 293.266 27.62 299.703 238.676 299.703 256.625 286.572 256.579 284.079 39.217 293.266"/><path class="f" d="M237.49241,258.59864l-.86747-199.38445c-12.06243,5.91817-64.22219,5.9182-80.70649,5.9182q-.37367,0-.74733-.0023c-1.07382-.00638-2.14755-.02454-3.22111-.04871q-1.89675-.04269-3.7929-.1081-2.14155-.07191-4.28241-.16232-2.34516-.09783-4.68961-.21138-2.50761-.12069-5.01451-.25528-2.6289-.14064-5.25711-.294-2.709-.15778-5.41739-.32758-2.74808-.17213-5.49539-.356-2.74594-.18372-5.49108-.3792-2.70267-.19255-5.40446-.39728-2.61828-.19861-5.23555-.41018-2.49275-.20185-4.98432-.41792-2.32612-.20225-4.65081-.42049-2.11839-.19966-4.235-.4179-.9682-.10042-1.93584-.20636a25.61569,25.61569,0,0,1-2.82682-.5885q-.26059-.05868-.52166-.11522a26.37139,26.37139,0,0,0-7.35364-.70634l-1.23823.08427.221,199.207a9.81,9.81,0,0,0,9.43678,12.48993H228.05563A9.80991,9.80991,0,0,0,237.49241,258.59864Z"/><path class="a" d="M243.29716,260.32927V56.21441c0,4.92526-63.58119,8.918-87.37871,8.918q-1.79724,0-3.59431-.02924c-4.7989-.07261-9.59629-.249-14.3905-.4687q-8.5144-.3902-17.01852-.97514-8.76557-.597-17.51592-1.397c-5.3029-.49123-10.60163-1.04461-15.88269-1.73435-3.878-.50649-7.72017-1.49-11.65365-1.44118-3.9553.04913-7.63229,1.67156-11.44574,2.505q-.47636.10416-.95438.20048a19.75535,19.75535,0,0,1-3.84674.58949q-.67953.07353-1.36172.11872c-.22315.015-.86315-.06053-1.01577.13972-.13737.18024.24046.6185.36578.75686a5.19749,5.19749,0,0,0,.75974.60652c.32625.24652.66943.46711,1.00291.70321l3.44455,2.439L68.375,71.08505l.16453.1165V260.32927a11.53455,11.53455,0,0,0,11.12438,14.58326H232.17278A11.53455,11.53455,0,0,0,243.29716,260.32927Z"/><g class="g"><path class="h" d="M238.536,263.90226c0-8.62279-36.85435-11.59375-82.31649-11.59375S73.903,255.60684,73.903,264.22963s8.02531,6.88124,82.31648,7.56925C226.73233,272.4519,238.536,272.525,238.536,263.90226Z"/><rect class="i" x="41.85596" y="119.9831" width="225.4691" height="175.35041"/></g><g class="j"><path class="k" d="M223.0778,188.34458a4.23233,4.23233,0,0,1-4.13636-3.36033l.00084-65.07106a4.2322,4.2322,0,0,1-.09091-.8719V79.8603a4.23141,4.23141,0,1,1,8.46281,0v38.74049l-.09175,64.63966a4.23536,4.23536,0,0,1-4.14463,5.10413Z"/></g><g class="l"><path class="m" d="M87.66962,210.25063a4.6591,4.6591,0,0,1-5.81061-4.54055l.7041-107.72836a4.6546,4.6546,0,0,1,9.309.06116L91.168,205.77125A4.65536,4.65536,0,0,1,87.66962,210.25063Z"/></g><circle class="n" cx="224.00897" cy="197.39903" r="4.23358"/><circle class="o" cx="224.00897" cy="124.21667" r="4.23358"/><circle class="p" cx="89.24154" cy="154.89365" r="13.58161" transform="translate(-42.00788 33.52774) rotate(-17.29227)"/><circle class="q" cx="89.06671" cy="204.67438" r="0.45269" transform="translate(-56.81289 35.7258) rotate(-17.29226)"/><circle class="r" cx="89.05309" cy="208.53981" r="0.45269" transform="translate(-57.9625 35.89648) rotate(-17.29227)"/><circle class="s" cx="89.06064" cy="206.39399" r="3.39545" transform="translate(-57.32431 35.80172) rotate(-17.29226)"/><line class="t" x1="89.20384" y1="165.62286" x2="89.05309" y2="208.53981"/><circle class="u" cx="89.20384" cy="165.62286" r="9.05434" transform="translate(-45.1988 34.00148) rotate(-17.29226)"/><circle class="v" cx="89.20384" cy="165.62286" r="4.52727" transform="translate(-45.19879 34.00147) rotate(-17.29226)"/><circle class="w" cx="89.20384" cy="165.62286" r="3.77273" transform="translate(-45.19879 34.00147) rotate(-17.29226)"/><polyline class="x" points="89.204 165.623 91.238 180.354 89.204 165.623 87.169 150.891 89.204 165.623 74.472 167.657 89.204 165.623 103.935 163.588 89.204 165.623 96.798 183.285 89.204 165.623 81.61 147.961 89.204 165.623 71.542 173.217 89.204 165.623 106.866 158.029 89.204 165.623 102.861 177.802 89.204 165.623 75.546 153.444 89.204 165.623 77.025 179.28 89.204 165.623 101.383 151.965 89.204 165.623 90.118 178.37 89.204 165.623 88.29 152.876 89.204 165.623 76.457 166.537 89.204 165.623 101.951 164.709 89.204 165.623 89.545 167.096 89.204 165.623 88.863 164.15 89.204 165.623 87.73 165.964 89.204 165.623 90.677 165.282 89.204 165.623 84.939 184.442 89.204 165.623 93.469 146.804 89.204 165.623 70.385 161.358 89.204 165.623 108.023 169.888 89.204 165.623 86.821 171.891 89.204 165.623 91.587 159.355 89.204 165.623 82.936 163.24 89.204 165.623 95.472 168.006 89.204 165.623 92.594 169.324 89.204 165.623 85.814 161.922 89.204 165.623 85.503 169.013 89.204 165.623 92.905 162.233 89.204 165.623 109.85 174.794 89.204 165.623 68.558 156.452 89.204 165.623 80.033 186.269 89.204 165.623 98.375 144.977 89.204 165.623 98.27 182.103 89.204 165.623 80.137 149.143 89.204 165.623 72.724 174.689 89.204 165.623 105.684 156.556 89.204 165.623 98.875 185.216 89.204 165.623 79.533 146.03 89.204 165.623 69.611 175.294 89.204 165.623 108.797 155.952 89.204 165.623 92.069 168.852 89.204 165.623 86.339 162.393 89.204 165.623 85.974 168.488 89.204 165.623 92.433 162.758 89.204 165.623 103.419 172.135 89.204 165.623 74.988 159.111 89.204 165.623 82.692 179.838 89.204 165.623 95.716 151.407 89.204 165.623 88.376 182.324 89.204 165.623 90.032 148.922 89.204 165.623 72.503 164.795 89.204 165.623 105.905 166.451 89.204 165.623 94.082 178.402 89.204 165.623 84.326 152.844 89.204 165.623 76.425 170.501 89.204 165.623 101.983 160.745"/><circle class="y" cx="89.05309" cy="208.53981" r="6.79091" transform="matrix(0.9548, -0.29725, 0.29725, 0.9548, -57.9625, 35.89647)"/><circle class="z" cx="89.08229" cy="200.25225" r="1.93017"/><circle class="aa" cx="89.16083" cy="177.88157" r="1.0781" transform="translate(-48.84459 34.54278) rotate(-17.29226)"/><circle class="ab" cx="89.11291" cy="191.52926" r="0.71405" transform="translate(-52.90348 35.14539) rotate(-17.29226)"/><circle class="ac" cx="89.10529" cy="193.68873" r="1.00413" transform="translate(-53.54572 35.24074) rotate(-17.29226)"/><circle class="ad" cx="89.08368" cy="199.82991" r="1.86426" transform="translate(-55.37213 35.51188) rotate(-17.29226)"/><path class="b" d="M233.201,255.07313V121.99453h0c0,4.74736-55.69483,8.59581-77.27168,8.59581s-77.29359-3.84845-77.29359-8.59581h0V255.07318c.07618,5.90272,2.77169,11.8329,8.94029,11.8329H224.26073C230.42912,266.90608,233.274,260.85758,233.201,255.07313Z"/><g class="ae"><path class="af" d="M160.54637,156.26561c-18.67792,1.50493-37.416,2.26908-56.09287,3.8-19.99409,1.63886-41.801,7.14928-57.53906,20.1983q-.22449.18612-.44662.375c-8.76136,7.42889-15.9763,17.98992-15.41066,29.46293.44336,8.99281,5.68341,17.23709,12.52838,23.08634s15.20216,9.61118,23.5767,12.91789c48.69348,19.22676,104.26913,25.27834,153.42829,7.27559,9.885-3.62,19.52717-8.23322,27.684-14.88789s14.78233-15.49629,17.51362-25.66283c2.8151-10.47851,1.31454-21.88724-3.2578-31.72684-4.33138-9.32105-11.14834-16.47991-13.97463-26.61155-.52427-1.87938-1.108-3.95817-2.75386-5.00613a7.51487,7.51487,0,0,0-3.74218-.85011c-21.64114-1.0035-42.52589,3.5073-63.88286,5.93934C172.30851,155.2439,166.43043,155.79151,160.54637,156.26561Z"/><path class="ag" d="M155.6767,196.16526c-18.41325,3.47587-36.96486,6.22152-55.37428,9.7231-19.70782,3.74853-40.80793,11.53894-55.0745,26.18234q-.20349.20886-.40437.42023c-7.92473,8.31554-13.97982,19.58172-12.2015,30.93017,1.39389,8.89519,7.47813,16.53772,14.90444,21.62863s16.1351,7.946,24.81292,10.34657c50.45684,13.95813,106.36086,14.08593,153.33532-9.02515,9.44573-4.64722,18.54468-10.25627,25.95034-17.7379s13.05684-16.9756,14.69534-27.37434c1.68877-10.71784-1.01239-21.90329-6.60174-31.20292-5.2948-8.80954-12.832-15.20565-16.71614-24.98072-.72048-1.81324-1.52127-3.81845-3.26887-4.68609a7.51486,7.51486,0,0,0-3.8112-.44874c-21.62562,1.2956-41.91473,7.99429-62.89369,12.676C167.26433,193.9028,161.47738,195.07026,155.6767,196.16526Z"/></g><path class="ah" d="M233.201,121.99452c0,4.74735-55.69476,8.59583-77.27164,8.59583s-77.29363-3.84848-77.29363-8.59583,55.71675-8.59582,77.29363-8.59582S233.201,117.24718,233.201,121.99452Z"/><g class="ai"><circle class="aj" cx="126.28905" cy="130.59035" r="14.91016"/><ellipse class="ak" cx="125.24011" cy="122.37212" rx="9.96443" ry="6.00743" transform="translate(-8.9128 9.84204) rotate(-4.34581)"/><circle class="al" cx="134.22123" cy="123.10411" r="1.22104"/><circle class="am" cx="136.12885" cy="124.70762" r="0.4427"/><circle class="an" cx="119.7442" cy="140.68513" r="0.4427"/><path class="ao" d="M114.42577,131.67873c-.1463,2.87815,1.58571,7.02963,4.34722,8.24794"/><circle class="ap" cx="133.00019" cy="138.69966" r="1.35526"/></g><g class="ai"><circle class="aq" cx="170.50723" cy="112.31353" r="8.42633"/><ellipse class="ar" cx="169.91443" cy="107.66908" rx="5.6313" ry="3.39504" transform="translate(-7.67021 13.18501) rotate(-4.34581)"/><circle class="as" cx="174.99002" cy="108.08275" r="0.69006"/><circle class="at" cx="176.0681" cy="108.98896" r="0.25019"/><circle class="au" cx="166.80847" cy="118.0185" r="0.25019"/><path class="av" d="M163.80281,112.92861c-.08268,1.62656.89615,3.97273,2.45679,4.66125"/><circle class="aw" cx="174.29996" cy="116.89643" r="0.76591"/></g><g class="ai"><circle class="ax" cx="152.65197" cy="93.33985" r="4.48279"/><ellipse class="ay" cx="152.3366" cy="90.86901" rx="2.99584" ry="1.80616" transform="translate(-6.44771 11.80473) rotate(-4.34581)"/><circle class="az" cx="155.03681" cy="91.08908" r="0.36711"/><circle class="ba" cx="155.61034" cy="91.57118" r="0.1331"/><circle class="bb" cx="150.68424" cy="96.37488" r="0.1331"/><path class="bc" d="M149.08523,93.66707a2.79183,2.79183,0,0,0,1.307,2.47978"/><circle class="bd" cx="154.6697" cy="95.77794" r="0.40746"/></g><g class="be"><circle class="bf" cx="198.05834" cy="164.49202" r="9.8398"/><ellipse class="bg" cx="197.36611" cy="159.06849" rx="6.57592" ry="3.96454" transform="translate(-11.48613 15.41297) rotate(-4.34581)"/><circle class="bh" cx="203.2931" cy="159.55155" r="0.80581"/><circle class="bi" cx="204.55202" cy="160.60977" r="0.29216"/><circle class="bj" cx="193.73914" cy="171.15397" r="0.29216"/><path class="bk" d="M190.2293,165.21028c-.09656,1.89941,1.04647,4.63914,2.8689,5.44315"/><circle class="bl" cx="202.48729" cy="169.84368" r="0.89439"/></g><g class="be"><circle class="bm" cx="181.11414" cy="184.93134" r="5.23476"/><ellipse class="bn" cx="180.74587" cy="182.04603" rx="3.49838" ry="2.10913" transform="translate(-13.27506 14.21962) rotate(-4.34581)"/><circle class="bo" cx="183.89902" cy="182.30302" r="0.42869"/><circle class="bp" cx="184.56876" cy="182.86599" r="0.15543"/><circle class="bq" cx="178.81633" cy="188.47548" r="0.15543"/><path class="br" d="M176.9491,185.31345a3.26012,3.26012,0,0,0,1.52625,2.89575"/><circle class="bs" cx="183.47033" cy="187.77841" r="0.47582"/></g><polygon class="bt" points="249.956 214.109 54.394 214.109 39.217 293.266 234.779 293.266 249.956 214.109"/><polygon class="bu" points="249.956 214.109 256.579 284.079 253.971 286.124 238.98 286.285 237.871 290.841 234.779 293.266 249.956 214.109"/><path class="bv" d="M112.53393,245.278a2.95739,2.95739,0,0,1,1.97168-.74121q3.78077,0,9.33594-.0957a69.42768,69.42768,0,0,1,4.30664-9.90918l-9.29492.12011a1.82413,1.82413,0,0,1-1.57129-.74218,1.84694,1.84694,0,0,1-.32227-1.72364,3.20185,3.20185,0,0,1,1.25391-1.72265,3.12912,3.12912,0,0,1,1.918-.71875l12.72461-.14258a1.76423,1.76423,0,0,1,1.77929,1.02832,2.51946,2.51946,0,0,1-.39453,2.3457,53.00587,53.00587,0,0,0-5.43164,11.417h.93262a1.91825,1.91825,0,0,1,1.85351,2.44141,3.27349,3.27349,0,0,1-1.26855,1.77149,3.09234,3.09234,0,0,1-1.92383.74121H124.6687q-12.2798.0952-11.48926.0957a1.83681,1.83681,0,0,1-1.8291-2.44043A3.14288,3.14288,0,0,1,112.53393,245.278Z"/><path class="bv" d="M139.37182,230.46354a3.46987,3.46987,0,0,1,1.97949-.76563l12.78223-.0957a1.86132,1.86132,0,0,1,1.82715,1.02832,2.51675,2.51675,0,0,1-.39453,2.3457,62.62311,62.62311,0,0,0-6.43946,14.169,3.068,3.068,0,0,1-1.30761,1.65234,2.77177,2.77177,0,0,1-1.94629.64551,1.64111,1.64111,0,0,1-1.43653-.88574,2.11135,2.11135,0,0,1-.14257-1.77149,78.12562,78.12562,0,0,1,5.09472-12.20508l-9.3291.07129a1.79724,1.79724,0,0,1-1.584-.69433,2.1447,2.1447,0,0,1-.28711-1.77149A3.14037,3.14037,0,0,1,139.37182,230.46354Z"/><path class="bv" d="M157.37182,240.37174a3.54516,3.54516,0,0,1,1.25879-1.55469,2.89725,2.89725,0,0,1,1.83691-.59961,1.73176,1.73176,0,0,1,1.62793.88575,2.26551,2.26551,0,0,1-.00488,1.96289q-.86865,2.15478-2.21777,6.0791a3.251,3.251,0,0,1-1.28418,1.65234,2.86335,2.86335,0,0,1-1.94629.64551,1.67722,1.67722,0,0,1-1.4834-.88574,2.10778,2.10778,0,0,1-.14258-1.77149Q156.4021,242.71794,157.37182,240.37174Zm4.01953-9.9082a3.15115,3.15115,0,0,1,1.9541-.76563l12.78223-.0957a1.80454,1.80454,0,0,1,1.82813,1.02832,2.51944,2.51944,0,0,1-.39454,2.3457,63.50134,63.50134,0,0,0-6.416,14.169,3.19306,3.19306,0,0,1-1.33106,1.65234,2.77174,2.77174,0,0,1-1.94628.64551,1.64,1.64,0,0,1-1.43653-.88574,2.0043,2.0043,0,0,1-.09472-1.77149,76.85661,76.85661,0,0,1,5.07128-12.20508l-9.35449.07129a1.77357,1.77357,0,0,1-1.55957-.69433,2.09341,2.09341,0,0,1-.30957-1.77149A3.27127,3.27127,0,0,1,161.39135,230.46354Z"/><path class="bv" d="M114.1726,273.40592a3.66945,3.66945,0,0,1,1.209-1.55566,3.07223,3.07223,0,0,1,1.83789-.69434,1.77755,1.77755,0,0,1,1.63672.83887,2.09808,2.09808,0,0,1,.06738,1.96093L111.824,292.95963a3.45989,3.45989,0,0,1-1.37305,1.627,2.99241,2.99241,0,0,1-1.97949.59961,1.89707,1.89707,0,0,1-1.374-.93457,2.14186,2.14186,0,0,1-.082-1.81836Zm2.34766-11.08105a3.26287,3.26287,0,0,1,1.917-.71875l12.81934-.14356a1.73143,1.73143,0,0,1,1.7666,1.07715,2.34969,2.34969,0,0,1-.35742,2.29687A62.48254,62.48254,0,0,0,126.24,278.95865a3.09836,3.09836,0,0,1-1.28418,1.65137,2.93443,2.93443,0,0,1-1.99414.64649,1.75824,1.75824,0,0,1-1.42579-.83789,2.14381,2.14381,0,0,1-.167-1.77149,79.57989,79.57989,0,0,1,5.11914-12.20605l-9.28222.07129a1.84669,1.84669,0,0,1-1.63086-.69336,2.09155,2.09155,0,0,1-.31055-1.77149A3.34357,3.34357,0,0,1,116.52026,262.32487Z"/><path class="bv" d="M139.26147,263.01822a3.1582,3.1582,0,0,1,2.62207-1.55566,1.7992,1.7992,0,0,1,1.87695,1.0293,2.387,2.387,0,0,1-.4082,2.39355,62.61828,62.61828,0,0,0-6.40234,14.1211,3.24709,3.24709,0,0,1-1.28516,1.65136,2.852,2.852,0,0,1-1.94629.64551,1.67447,1.67447,0,0,1-1.4834-.88476,2.11173,2.11173,0,0,1-.14258-1.77149A67.97082,67.97082,0,0,1,139.26147,263.01822Z"/><path class="bv" d="M146.3396,273.40592a3.66444,3.66444,0,0,1,1.21-1.55566,3.06743,3.06743,0,0,1,1.83691-.69434,1.77754,1.77754,0,0,1,1.63672.83887,2.09808,2.09808,0,0,1,.06738,1.96093L143.991,292.95963a3.45992,3.45992,0,0,1-1.373,1.627,2.99245,2.99245,0,0,1-1.9795.59961,1.89707,1.89707,0,0,1-1.374-.93457,2.14186,2.14186,0,0,1-.082-1.81836Zm2.34765-11.08105a3.26058,3.26058,0,0,1,1.917-.71875l12.81934-.14356a1.73143,1.73143,0,0,1,1.7666,1.07715,2.35213,2.35213,0,0,1-.35742,2.29687,62.483,62.483,0,0,0-6.42578,14.12207A3.09832,3.09832,0,0,1,157.1228,280.61a2.93294,2.93294,0,0,1-1.99414.64649,1.75522,1.75522,0,0,1-1.42481-.83789,2.14031,2.14031,0,0,1-.168-1.77149,79.58089,79.58089,0,0,1,5.11914-12.20605l-9.28222.07129a1.84489,1.84489,0,0,1-1.62988-.69336,2.08844,2.08844,0,0,1-.31153-1.77149A3.34357,3.34357,0,0,1,148.68725,262.32487Z"/></g></svg>