<svg xmlns="http://www.w3.org/2000/svg" xmlns:xlink="http://www.w3.org/1999/xlink" viewBox="0 0 303.95444 341.11501"><defs><style>.a,.d{opacity:0.72;}.a{fill:url(#a);}.ah,.b,.l{opacity:0.8;}.b{fill:url(#b);}.c{isolation:isolate;}.d{fill:url(#c);}.e{fill:#683c11;fill-opacity:0.51;}.f,.h{mix-blend-mode:multiply;}.f{fill:url(#d);}.g{clip-path:url(#f);}.h{fill:url(#g);}.i{opacity:0.42;fill:url(#h);}.j{opacity:0.54;}.k{fill:url(#i);}.be,.l{mix-blend-mode:hard-light;}.m{fill:url(#j);}.n,.o,.v,.y{opacity:0.5;}.n{fill:url(#k);}.o{fill:url(#l);}.p{opacity:0.25;fill:url(#m);}.aa,.ab,.ac,.ad,.p,.q,.r,.s,.u,.v,.w,.x,.y,.z{mix-blend-mode:screen;}.q{fill:url(#n);}.r{fill:url(#o);}.s{opacity:0.2;fill:url(#p);}.ao,.av,.bc,.bk,.br,.t,.x{fill:none;}.u{opacity:0.15;fill:url(#q);}.v{fill:url(#r);}.w{fill:url(#s);}.x{stroke:#fff;stroke-width:1.69256px;opacity:0.03;}.ah,.x{stroke-miterlimit:10;}.y{fill:url(#t);}.z{fill:url(#u);}.aa{fill:url(#v);}.ab{fill:url(#w);}.ac{fill:url(#x);}.ad{fill:url(#y);}.ae{clip-path:url(#aa);}.af,.ag,.ai{opacity:0.3;}.af{fill:url(#ab);}.ag{fill:url(#ac);}.ah,.ao{stroke-width:0.84628px;}.ah{fill:url(#ad);stroke:url(#ae);}.aj{fill:url(#af);}.ak,.an,.ao,.ar,.au,.av,.ay,.bb,.bc,.bg,.bj,.bk,.bn,.bq,.br{mix-blend-mode:soft-light;}.ak{fill:url(#ag);}.al{fill:url(#ah);}.am{fill:url(#ai);}.an{fill:url(#aj);}.ao,.av,.bc,.bk,.br{stroke-linecap:round;stroke-linejoin:round;}.ao{stroke:url(#ak);}.ap{fill:url(#al);}.aq{fill:url(#am);}.ar{fill:url(#an);}.as{fill:url(#ao);}.at{fill:url(#ap);}.au{fill:url(#aq);}.av{stroke-width:0.47827px;stroke:url(#ar);}.aw{fill:url(#as);}.ax{fill:url(#at);}.ay{fill:url(#au);}.az{fill:url(#av);}.ba{fill:url(#aw);}.bb{fill:url(#ax);}.bc{stroke-width:0.25444px;stroke:url(#ay);}.bd{fill:url(#az);}.be{opacity:0.2;}.bf{fill:url(#ba);}.bg{fill:url(#bb);}.bh{fill:url(#bc);}.bi{fill:url(#bd);}.bj{fill:url(#be);}.bk{stroke-width:0.55849px;stroke:url(#bf);}.bl{fill:url(#bg);}.bm{fill:url(#bh);}.bn{fill:url(#bi);}.bo{fill:url(#bj);}.bp{fill:url(#bk);}.bq{fill:url(#bl);}.br{stroke-width:0.29712px;stroke:url(#bm);}.bs{fill:url(#bn);}.bt{fill:#fff;}.bu{fill:#c6c6c6;}.bv{fill:#3c3c3b;}</style><linearGradient id="a" x1="103.57198" y1="165.56347" x2="197.95256" y2="165.56347" gradientUnits="userSpaceOnUse"><stop offset="0" stop-color="#f5fbff"/><stop offset="0.62567" stop-color="#e9f1f5"/><stop offset="1" stop-color="#c5d9e0"/></linearGradient><linearGradient id="b" x1="217.6363" y1="270.68209" x2="99.53618" y2="114.15705" gradientUnits="userSpaceOnUse"><stop offset="0" stop-color="#07bb4d"/><stop offset="1" stop-color="#39f078"/></linearGradient><linearGradient id="c" x1="151.97722" y1="38.3778" x2="151.97722" y2="64.94849" xlink:href="#a"/><linearGradient id="d" x1="169.86648" y1="61.71976" x2="147.56892" y2="243.33184" gradientUnits="userSpaceOnUse"><stop offset="0" stop-color="#bfc4c7"/><stop offset="1" stop-color="#b1c3c9"/></linearGradient><clipPath id="f"><path class="a" d="M245.02122,260.32927V56.21441c0,4.92526-63.58119,8.918-87.37871,8.918q-1.79724,0-3.59432-.02924c-4.79889-.07261-9.59628-.249-14.3905-.4687q-8.5144-.3902-17.01851-.97514-8.76556-.597-17.51592-1.397c-5.3029-.49123-10.60164-1.04461-15.88269-1.73435-3.878-.50649-7.72017-1.49-11.65365-1.44118-3.9553.04913-7.63229,1.67156-11.44574,2.505q-.47635.10416-.95438.20048a19.75547,19.75547,0,0,1-3.84674.58949q-.67953.07353-1.36172.11872c-.22315.015-.86315-.06053-1.01577.13972-.13737.18024.24046.6185.36578.75686a5.19749,5.19749,0,0,0,.75974.60652c.32625.24652.66943.46711,1.00291.70321l3.44455,2.439,5.56351,3.93934.16453.1165V260.32927A11.53455,11.53455,0,0,0,81.388,274.91253H233.89684A11.53455,11.53455,0,0,0,245.02122,260.32927Z"/></clipPath><linearGradient id="g" x1="118.98596" y1="163.94125" x2="170.16314" y2="296.11187" gradientUnits="userSpaceOnUse"><stop offset="0" stop-color="#f5f5f5"/><stop offset="1" stop-color="#c3d1d6"/></linearGradient><linearGradient id="h" x1="97.5449" y1="207.6583" x2="211.64318" y2="207.6583" xlink:href="#b"/><radialGradient id="i" cx="224.86804" cy="128.1371" r="64.69946" gradientTransform="translate(238.55414 -96.8049) rotate(89.70298) scale(1 0.11591)" gradientUnits="userSpaceOnUse"><stop offset="0" stop-color="#e6f3ff"/><stop offset="1" stop-color="#b9cbf0" stop-opacity="0"/></radialGradient><radialGradient id="j" cx="-1546.92101" cy="-535.51237" r="54.27899" gradientTransform="matrix(0.00636, -0.99998, 0.15751, 0.001, 182.77004, -1394.47708)" xlink:href="#i"/><radialGradient id="k" cx="225.83625" cy="197.4173" r="3.82592" gradientTransform="matrix(1, 0, 0, 1, 0, 0)" xlink:href="#i"/><radialGradient id="l" cx="225.83625" cy="124.23495" r="3.82592" gradientTransform="matrix(1, 0, 0, 1, 0, 0)" xlink:href="#i"/><radialGradient id="m" cx="-1865.57501" cy="-720.48489" r="13.58164" gradientTransform="translate(1956.54057 875.37863)" gradientUnits="userSpaceOnUse"><stop offset="0.1"/><stop offset="0.11244" stop-color="#080602"/><stop offset="0.16172" stop-color="#231b08"/><stop offset="0.21838" stop-color="#392c0d"/><stop offset="0.28458" stop-color="#4a3910"/><stop offset="0.36644" stop-color="#554213"/><stop offset="0.48125" stop-color="#5c4815"/><stop offset="0.8" stop-color="#5e4915"/><stop offset="1"/></radialGradient><radialGradient id="n" cx="-1880.53905" cy="-673.00617" r="0.45271" gradientTransform="translate(1971.3298 877.6806)" gradientUnits="userSpaceOnUse"><stop offset="0" stop-color="#d4e194"/><stop offset="0.05952" stop-color="#afba7a"/><stop offset="0.13651" stop-color="#868f5e"/><stop offset="0.21955" stop-color="#626845"/><stop offset="0.30759" stop-color="#44482f"/><stop offset="0.40211" stop-color="#2b2e1e"/><stop offset="0.50556" stop-color="#181911"/><stop offset="0.62249" stop-color="#0a0b07"/><stop offset="0.76429" stop-color="#020302"/><stop offset="1"/></radialGradient><radialGradient id="o" cx="-1881.70104" cy="-669.3195" r="0.45271" gradientTransform="translate(1972.47818 877.85934)" xlink:href="#n"/><radialGradient id="p" cx="-1881.056" cy="-671.36609" r="3.39543" gradientTransform="translate(1971.8407 877.76006)" gradientUnits="userSpaceOnUse"><stop offset="0.05"/><stop offset="0.09242" stop-color="#040a03"/><stop offset="0.29802" stop-color="#183411"/><stop offset="0.48337" stop-color="#25531c"/><stop offset="0.64031" stop-color="#2e6622"/><stop offset="0.75" stop-color="#316d24"/><stop offset="0.78593" stop-color="#4f6e16"/><stop offset="0.83397" stop-color="#716f06"/><stop offset="0.86" stop-color="#7e6f00"/><stop offset="0.88764" stop-color="#7a6c00"/><stop offset="0.91229" stop-color="#706200"/><stop offset="0.93581" stop-color="#5d5200"/><stop offset="0.95863" stop-color="#443c00"/><stop offset="0.98074" stop-color="#231f00"/><stop offset="1"/></radialGradient><radialGradient id="q" cx="-1868.80021" cy="-710.25183" r="9.05439" gradientTransform="translate(1959.72811 875.87471)" gradientUnits="userSpaceOnUse"><stop offset="0" stop-color="#200"/><stop offset="0.73" stop-color="#984023"/><stop offset="1" stop-color="#200"/></radialGradient><radialGradient id="r" cx="-1868.80021" cy="-710.25183" r="4.52725" gradientTransform="translate(1959.72814 875.87462)" gradientUnits="userSpaceOnUse"><stop offset="0.15" stop-color="#fff"/><stop offset="0.20939" stop-color="#e5d3d3"/><stop offset="0.29044" stop-color="#c49c9e"/><stop offset="0.36051" stop-color="#ad7477"/><stop offset="0.41599" stop-color="#9e5c5f"/><stop offset="0.45" stop-color="#995356"/><stop offset="0.57175" stop-color="#6b3335"/><stop offset="0.69355" stop-color="#431718"/><stop offset="0.79053" stop-color="#2b0606"/><stop offset="0.85" stop-color="#200"/><stop offset="0.85727" stop-color="#260201"/><stop offset="0.8648" stop-color="#330704"/><stop offset="0.87246" stop-color="#471009"/><stop offset="0.8802" stop-color="#641d0f"/><stop offset="0.88801" stop-color="#8a2e18"/><stop offset="0.89577" stop-color="#b74223"/><stop offset="0.9" stop-color="#d34e29"/><stop offset="0.90254" stop-color="#c84927"/><stop offset="0.91417" stop-color="#9c361c"/><stop offset="0.92635" stop-color="#772514"/><stop offset="0.93893" stop-color="#58180c"/><stop offset="0.95205" stop-color="#400d07"/><stop offset="0.96594" stop-color="#2f0603"/><stop offset="0.98111" stop-color="#250101"/><stop offset="1" stop-color="#200"/></radialGradient><radialGradient id="s" cx="-1868.80021" cy="-710.25183" r="3.7727" gradientTransform="translate(1959.72813 875.87466)" gradientUnits="userSpaceOnUse"><stop offset="0.15" stop-color="#fff"/><stop offset="0.28237" stop-color="#c2c2c2"/><stop offset="0.42528" stop-color="#888"/><stop offset="0.5636" stop-color="#575757"/><stop offset="0.69361" stop-color="#313131"/><stop offset="0.81336" stop-color="#161616"/><stop offset="0.91921" stop-color="#060606"/><stop offset="1"/></radialGradient><radialGradient id="t" cx="-1881.70104" cy="-669.3195" r="6.79086" gradientTransform="translate(1972.47819 877.85929)" gradientUnits="userSpaceOnUse"><stop offset="0.64"/><stop offset="0.71799" stop-color="#000200"/><stop offset="0.74608" stop-color="#020902"/><stop offset="0.76609" stop-color="#051405"/><stop offset="0.78228" stop-color="#082509"/><stop offset="0.79598" stop-color="#0d3b0e"/><stop offset="0.8" stop-color="#0f4310"/><stop offset="0.8131" stop-color="#1e2c0a"/><stop offset="0.82975" stop-color="#2d1605"/><stop offset="0.84569" stop-color="#360901"/><stop offset="0.86" stop-color="#390400"/><stop offset="0.8715" stop-color="#250300"/><stop offset="0.88602" stop-color="#140100"/><stop offset="0.90412" stop-color="#090100"/><stop offset="0.92951" stop-color="#020000"/><stop offset="1"/></radialGradient><radialGradient id="u" cx="-1879.20972" cy="-677.22379" r="1.93017" gradientTransform="translate(2086.37959 288.2787) rotate(-17.29226)" gradientUnits="userSpaceOnUse"><stop offset="0.1"/><stop offset="0.24639" stop-color="#1b1103"/><stop offset="0.42619" stop-color="#362207"/><stop offset="0.61009" stop-color="#492e09"/><stop offset="0.79889" stop-color="#54350b"/><stop offset="1" stop-color="#58370b"/></radialGradient><radialGradient id="v" cx="-1872.48513" cy="-698.55999" r="1.07807" gradientTransform="translate(1963.37 876.44162)" gradientUnits="userSpaceOnUse"><stop offset="0.1" stop-color="#192f1b"/><stop offset="0.2285" stop-color="#122214"/><stop offset="0.47516" stop-color="#080f09"/><stop offset="0.72928" stop-color="#020402"/><stop offset="1"/></radialGradient><radialGradient id="w" cx="-1876.58761" cy="-685.54341" r="0.714" gradientTransform="translate(1967.42457 877.07269)" xlink:href="#u"/><radialGradient id="x" cx="-1877.23678" cy="-683.48381" r="1.00408" gradientTransform="translate(1968.06612 877.17255)" gradientUnits="userSpaceOnUse"><stop offset="0.1"/><stop offset="0.29001" stop-color="#14160e"/><stop offset="0.51699" stop-color="#25291a"/><stop offset="0.75084" stop-color="#303422"/><stop offset="1" stop-color="#333824"/></radialGradient><radialGradient id="y" cx="-1879.08286" cy="-677.62663" r="1.86428" gradientTransform="translate(1969.89059 877.45654)" xlink:href="#v"/><clipPath id="aa"><path class="b" d="M234.92508,255.07313V121.99453h0c0,4.74736-55.69483,8.59581-77.27169,8.59581s-77.29359-3.84845-77.29359-8.59581h0V255.07318c.07619,5.90272,2.7717,11.8329,8.94029,11.8329h136.6847C232.15318,266.90608,234.99807,260.85758,234.92508,255.07313Z"/></clipPath><linearGradient id="ab" x1="314.30017" y1="217.33703" x2="67.26606" y2="194.35711" xlink:href="#b"/><linearGradient id="ac" x1="34.03398" y1="242.44061" x2="268.54296" y2="242.44061" xlink:href="#b"/><linearGradient id="ad" x1="294.89529" y1="121.99452" x2="111.74911" y2="121.99452" xlink:href="#b"/><linearGradient id="ae" x1="79.93666" y1="121.99452" x2="235.34822" y2="121.99452" gradientUnits="userSpaceOnUse"><stop offset="0" stop-color="#26ff7b"/><stop offset="1" stop-color="#39f078"/></linearGradient><radialGradient id="af" cx="128.01311" cy="130.59035" r="14.16583" gradientTransform="matrix(0.2537, -0.96728, 0.95587, 0.2507, -29.29129, 221.67573)" gradientUnits="userSpaceOnUse"><stop offset="0" stop-color="#35c761" stop-opacity="0.8"/><stop offset="0.29921" stop-color="#39ca64" stop-opacity="0.80046"/><stop offset="0.52418" stop-color="#44d26f" stop-opacity="0.80193"/><stop offset="0.72493" stop-color="#58e080" stop-opacity="0.8044"/><stop offset="0.91041" stop-color="#74f399" stop-opacity="0.80787"/><stop offset="1" stop-color="#85ffa8" stop-opacity="0.81"/></radialGradient><radialGradient id="ag" cx="354.10967" cy="514.00575" r="9.1779" gradientTransform="translate(-313.60186 -273.96523) scale(1.24415 0.77108)" gradientUnits="userSpaceOnUse"><stop offset="0" stop-color="#52eba6"/><stop offset="0.37881" stop-color="#52eba6" stop-opacity="0.99203"/><stop offset="0.51527" stop-color="#53eaa6" stop-opacity="0.96313"/><stop offset="0.61253" stop-color="#55eaa6" stop-opacity="0.91281"/><stop offset="0.69121" stop-color="#57e9a6" stop-opacity="0.8409"/><stop offset="0.75863" stop-color="#5ae7a6" stop-opacity="0.74715"/><stop offset="0.81834" stop-color="#5ee5a6" stop-opacity="0.63133"/><stop offset="0.87231" stop-color="#62e3a6" stop-opacity="0.49335"/><stop offset="0.92196" stop-color="#67e1a6" stop-opacity="0.33264"/><stop offset="0.96609" stop-color="#6ddea6" stop-opacity="0.15775"/><stop offset="1" stop-color="#72dca6" stop-opacity="0"/></radialGradient><radialGradient id="ah" cx="135.94528" cy="123.10411" r="1.16008" gradientTransform="matrix(0.2537, -0.96728, 0.95587, 0.2507, -16.21559, 223.73899)" gradientUnits="userSpaceOnUse"><stop offset="0" stop-color="#c1ebd7"/><stop offset="0.37881" stop-color="#c0ebd7" stop-opacity="0.99203"/><stop offset="0.51527" stop-color="#beead5" stop-opacity="0.96313"/><stop offset="0.61253" stop-color="#baead3" stop-opacity="0.91281"/><stop offset="0.69121" stop-color="#b4e9cf" stop-opacity="0.8409"/><stop offset="0.75863" stop-color="#ade7cb" stop-opacity="0.74715"/><stop offset="0.81834" stop-color="#a4e5c5" stop-opacity="0.63133"/><stop offset="0.87231" stop-color="#99e3be" stop-opacity="0.49335"/><stop offset="0.92196" stop-color="#8ce1b6" stop-opacity="0.33264"/><stop offset="0.96609" stop-color="#7edeae" stop-opacity="0.15775"/><stop offset="1" stop-color="#72dca6" stop-opacity="0"/></radialGradient><radialGradient id="ai" cx="137.85291" cy="124.70762" r="0.4206" gradientTransform="matrix(0.2537, -0.96728, 0.95587, 0.2507, -16.32467, 226.78571)" gradientUnits="userSpaceOnUse"><stop offset="0" stop-color="#c1ebd7"/><stop offset="0.22496" stop-color="#c0ebd6" stop-opacity="0.98901"/><stop offset="0.3644" stop-color="#bdead5" stop-opacity="0.95275"/><stop offset="0.48062" stop-color="#b8e9d2" stop-opacity="0.89088"/><stop offset="0.58411" stop-color="#b1e8cd" stop-opacity="0.80322"/><stop offset="0.67914" stop-color="#a8e6c8" stop-opacity="0.68961"/><stop offset="0.7679" stop-color="#9de4c1" stop-opacity="0.55"/><stop offset="0.85188" stop-color="#90e2b9" stop-opacity="0.38414"/><stop offset="0.92991" stop-color="#82dfb0" stop-opacity="0.19725"/><stop offset="1" stop-color="#72dca6" stop-opacity="0"/></radialGradient><radialGradient id="aj" cx="121.46826" cy="140.68513" r="0.4206" gradientTransform="matrix(0.2537, -0.96728, 0.95587, 0.2507, -43.82506, 222.90898)" xlink:href="#ai"/><radialGradient id="ak" cx="118.31914" cy="135.8027" r="3.70417" gradientTransform="matrix(1, 0, 0, 1, 0, 0)" xlink:href="#ah"/><radialGradient id="al" cx="134.72425" cy="138.69966" r="1.68884" gradientTransform="translate(0 20.14894) scale(1 0.85473)" gradientUnits="userSpaceOnUse"><stop offset="0" stop-color="#52eba6"/><stop offset="0.09168" stop-color="#53eba6" stop-opacity="0.96822"/><stop offset="0.22975" stop-color="#56e9a6" stop-opacity="0.88033"/><stop offset="0.39704" stop-color="#5ae7a6" stop-opacity="0.73641"/><stop offset="0.58721" stop-color="#61e4a6" stop-opacity="0.53628"/><stop offset="0.79369" stop-color="#69e0a6" stop-opacity="0.2836"/><stop offset="1" stop-color="#72dca6" stop-opacity="0"/></radialGradient><radialGradient id="am" cx="172.23128" cy="112.31353" r="8.00568" gradientTransform="matrix(0.2537, -0.96728, 0.95587, 0.2507, 21.17918, 250.75251)" xlink:href="#af"/><radialGradient id="an" cx="390.80939" cy="501.50694" r="5.1868" gradientTransform="translate(-314.58755 -279.03075) scale(1.24415 0.77108)" xlink:href="#ag"/><radialGradient id="ao" cx="176.71408" cy="108.08275" r="0.65561" gradientTransform="matrix(0.2537, -0.96728, 0.95587, 0.2507, 28.56879, 251.91854)" xlink:href="#ah"/><radialGradient id="ap" cx="177.79215" cy="108.98896" r="0.2377" gradientTransform="matrix(0.2537, -0.96728, 0.95587, 0.2507, 28.50714, 253.64037)" xlink:href="#ai"/><radialGradient id="aq" cx="168.53253" cy="118.0185" r="0.2377" gradientTransform="matrix(0.2537, -0.96728, 0.95587, 0.2507, 12.96556, 251.44947)" xlink:href="#ai"/><radialGradient id="ar" cx="166.75283" cy="115.25924" r="2.09337" gradientTransform="matrix(1, 0, 0, 1, 0, 0)" xlink:href="#ah"/><radialGradient id="as" cx="176.02402" cy="116.89643" r="0.95443" gradientTransform="translate(0 16.98157) scale(1 0.85473)" xlink:href="#al"/><radialGradient id="at" cx="154.37603" cy="93.33985" r="4.25901" gradientTransform="matrix(0.2537, -0.96728, 0.95587, 0.2507, 25.99019, 219.26452)" xlink:href="#af"/><radialGradient id="au" cx="377.74487" cy="481.46129" r="2.75937" gradientTransform="translate(-315.91114 -280.3741) scale(1.24415 0.77108)" xlink:href="#ag"/><radialGradient id="av" cx="156.76087" cy="91.08908" r="0.34878" gradientTransform="matrix(0.2537, -0.96728, 0.95587, 0.2507, 29.92144, 219.88485)" xlink:href="#ah"/><radialGradient id="aw" cx="157.3344" cy="91.57118" r="0.12646" gradientTransform="matrix(0.2537, -0.96728, 0.95587, 0.2507, 29.88865, 220.80086)" xlink:href="#ai"/><radialGradient id="ax" cx="152.4083" cy="96.37488" r="0.12646" gradientTransform="matrix(0.2537, -0.96728, 0.95587, 0.2507, 21.62055, 219.63531)" xlink:href="#ai"/><radialGradient id="ay" cx="151.4615" cy="94.90696" r="1.11367" gradientTransform="matrix(1, 0, 0, 1, 0, 0)" xlink:href="#ah"/><radialGradient id="az" cx="156.39376" cy="95.77794" r="0.50776" gradientTransform="translate(0 13.91369) scale(1 0.85473)" xlink:href="#al"/><radialGradient id="ba" cx="199.7824" cy="164.49202" r="9.34859" gradientTransform="matrix(0.2537, -0.96728, 0.95587, 0.2507, -8.13537, 316.49936)" xlink:href="#af"/><radialGradient id="bb" cx="409.68001" cy="560.62472" r="6.05686" gradientTransform="translate(-310.61378 -273.21562) scale(1.24415 0.77108)" xlink:href="#ag"/><radialGradient id="bc" cx="205.01716" cy="159.55155" r="0.76558" gradientTransform="matrix(0.2537, -0.96728, 0.95587, 0.2507, 0.4938, 317.86099)" xlink:href="#ah"/><radialGradient id="bd" cx="206.27608" cy="160.60977" r="0.27757" gradientTransform="matrix(0.2537, -0.96728, 0.95587, 0.2507, 0.42181, 319.87164)" xlink:href="#ai"/><radialGradient id="be" cx="195.4632" cy="171.15397" r="0.27757" gradientTransform="matrix(0.2537, -0.96728, 0.95587, 0.2507, -17.72678, 317.31323)" xlink:href="#ai"/><radialGradient id="bf" cx="193.38497" cy="167.93186" r="2.44453" gradientTransform="matrix(1, 0, 0, 1, 0, 0)" xlink:href="#ah"/><radialGradient id="bg" cx="204.21135" cy="169.84368" r="1.11454" gradientTransform="translate(0 24.67324) scale(1 0.85473)" xlink:href="#al"/><radialGradient id="bh" cx="182.8382" cy="184.93134" r="4.97343" gradientTransform="matrix(0.2537, -0.96728, 0.95587, 0.2507, -40.31827, 315.4246)" xlink:href="#af"/><radialGradient id="bi" cx="394.96025" cy="584.62582" r="3.22224" gradientTransform="translate(-308.92042 -268.74474) scale(1.24415 0.77108)" xlink:href="#ag"/><radialGradient id="bj" cx="185.62308" cy="182.30302" r="0.40729" gradientTransform="matrix(0.2537, -0.96728, 0.95587, 0.2507, -35.72757, 316.14898)" xlink:href="#ah"/><radialGradient id="bk" cx="186.29282" cy="182.86599" r="0.14767" gradientTransform="matrix(0.2537, -0.96728, 0.95587, 0.2507, -35.76587, 317.21864)" xlink:href="#ai"/><radialGradient id="bl" cx="180.54039" cy="188.47548" r="0.14767" gradientTransform="matrix(0.2537, -0.96728, 0.95587, 0.2507, -45.42089, 315.85757)" xlink:href="#ai"/><radialGradient id="bm" cx="179.43477" cy="186.76133" r="1.30048" gradientTransform="matrix(1, 0, 0, 1, 0, 0)" xlink:href="#ah"/><radialGradient id="bn" cx="185.19439" cy="187.77841" r="0.59293" gradientTransform="translate(0 27.27862) scale(1 0.85473)" xlink:href="#al"/></defs><g class="c"><path class="d" d="M244.98272,56.2144c0,4.92525-63.58129,8.918-87.37873,8.918-4.58538,0-9.171-.12348-13.75326-.2835q-9.63722-.33654-19.26389-.92134-10.14445-.604-20.27177-1.46531-3.79275-.32859-7.58111-.70568-3.86515-.38983-7.72152-.86128c-1.244-.1538-2.4835-.35229-3.70837-.61993q-1.85293-.40488-3.73486-.65741a21.88934,21.88934,0,0,0-7.12487-.013c-2.3343.451-4.5721,1.27661-6.8807,1.83049a41.21428,41.21428,0,0,1-8.59193,1.12378,7.2253,7.2253,0,0,1,1.60057-1.3976,37.21543,37.21543,0,0,1,4.44277-2.5362c2.14109-1.07576,4.26248-2.36985,6.4599-3.40579a29.54972,29.54972,0,0,1,7.4349-2.19134C83.35269,52.211,87.8434,51.64935,92.331,51.1451c5.61074-.63045,11.23526-1.1373,16.86352-1.58239q9.00364-.712,18.02236-1.214,8.44437-.47675,16.89766-.778c4.49441-.15507,8.992-.27435,13.48943-.27435C181.40143,47.29643,244.98272,51.28914,244.98272,56.2144Z"/><polygon class="e" points="40.941 293.266 29.344 299.703 240.4 299.703 258.349 286.572 258.303 284.079 40.941 293.266"/><path class="f" d="M239.21647,258.59864,238.349,59.21419c-12.06243,5.91817-64.2222,5.9182-80.70649,5.9182q-.37368,0-.74734-.0023c-1.07381-.00638-2.14755-.02454-3.2211-.04871q-1.89675-.04269-3.79291-.1081-2.14153-.07191-4.28241-.16232-2.34514-.09783-4.68961-.21138-2.5076-.12069-5.0145-.25528-2.62892-.14064-5.25711-.294-2.70906-.15778-5.4174-.32758-2.74806-.17213-5.49538-.356-2.74595-.18372-5.49108-.3792-2.70267-.19255-5.40446-.39728-2.61828-.19861-5.23555-.41018-2.49274-.20185-4.98433-.41792-2.32611-.20225-4.6508-.42049-2.11839-.19966-4.235-.4179-.96822-.10042-1.93584-.20636a25.61586,25.61586,0,0,1-2.82683-.5885q-.26058-.05868-.52166-.11522a26.37132,26.37132,0,0,0-7.35363-.70634l-1.23823.08427.221,199.207a9.81,9.81,0,0,0,9.43678,12.48993H229.77969A9.80991,9.80991,0,0,0,239.21647,258.59864Z"/><path class="a" d="M245.02122,260.32927V56.21441c0,4.92526-63.58119,8.918-87.37871,8.918q-1.79724,0-3.59432-.02924c-4.79889-.07261-9.59628-.249-14.3905-.4687q-8.5144-.3902-17.01851-.97514-8.76556-.597-17.51592-1.397c-5.3029-.49123-10.60164-1.04461-15.88269-1.73435-3.878-.50649-7.72017-1.49-11.65365-1.44118-3.9553.04913-7.63229,1.67156-11.44574,2.505q-.47635.10416-.95438.20048a19.75547,19.75547,0,0,1-3.84674.58949q-.67953.07353-1.36172.11872c-.22315.015-.86315-.06053-1.01577.13972-.13737.18024.24046.6185.36578.75686a5.19749,5.19749,0,0,0,.75974.60652c.32625.24652.66943.46711,1.00291.70321l3.44455,2.439,5.56351,3.93934.16453.1165V260.32927A11.53455,11.53455,0,0,0,81.388,274.91253H233.89684A11.53455,11.53455,0,0,0,245.02122,260.32927Z"/><g class="g"><path class="h" d="M240.26,263.90226c0-8.62279-36.85435-11.59375-82.31649-11.59375S75.627,255.60684,75.627,264.22963s8.02531,6.88124,82.31648,7.56925C228.45639,272.4519,240.26,272.525,240.26,263.90226Z"/><rect class="i" x="43.58002" y="119.9831" width="225.4691" height="175.35041"/></g><g class="j"><path class="k" d="M224.80186,188.34458a4.23235,4.23235,0,0,1-4.13637-3.36033l.00085-65.07106a4.2322,4.2322,0,0,1-.09091-.8719V79.8603a4.23141,4.23141,0,1,1,8.46281,0v38.74049l-.09175,64.63966a4.23536,4.23536,0,0,1-4.14463,5.10413Z"/></g><g class="l"><path class="m" d="M89.39368,210.25063a4.6591,4.6591,0,0,1-5.81061-4.54055l.70409-107.72836a4.6546,4.6546,0,0,1,9.309.06116l-.7041,107.72837A4.65534,4.65534,0,0,1,89.39368,210.25063Z"/></g><circle class="n" cx="225.73302" cy="197.39903" r="4.23358"/><circle class="o" cx="225.73302" cy="124.21667" r="4.23358"/><circle class="p" cx="90.9656" cy="154.89365" r="13.58161" transform="translate(-41.92996 34.04021) rotate(-17.29227)"/><circle class="q" cx="90.79077" cy="204.67438" r="0.45269" transform="translate(-56.73498 36.23828) rotate(-17.29226)"/><circle class="r" cx="90.77715" cy="208.53981" r="0.45269" transform="translate(-57.88457 36.40894) rotate(-17.29226)"/><circle class="s" cx="90.7847" cy="206.39399" r="3.39545" transform="matrix(0.9548, -0.29725, 0.29725, 0.9548, -57.24639, 36.31419)"/><line class="t" x1="90.9279" y1="165.62286" x2="90.77715" y2="208.53981"/><circle class="u" cx="90.9279" cy="165.62286" r="9.05434" transform="translate(-45.12087 34.51395) rotate(-17.29226)"/><circle class="v" cx="90.9279" cy="165.62286" r="4.52727" transform="translate(-45.12086 34.51394) rotate(-17.29226)"/><circle class="w" cx="90.9279" cy="165.62286" r="3.77273" transform="translate(-45.12087 34.51394) rotate(-17.29226)"/><polyline class="x" points="90.928 165.623 92.962 180.354 90.928 165.623 88.893 150.891 90.928 165.623 76.197 167.657 90.928 165.623 105.659 163.588 90.928 165.623 98.522 183.285 90.928 165.623 83.334 147.961 90.928 165.623 73.266 173.217 90.928 165.623 108.59 158.029 90.928 165.623 104.585 177.802 90.928 165.623 77.271 153.444 90.928 165.623 78.749 179.28 90.928 165.623 103.107 151.965 90.928 165.623 91.842 178.37 90.928 165.623 90.014 152.876 90.928 165.623 78.181 166.537 90.928 165.623 103.675 164.709 90.928 165.623 91.269 167.096 90.928 165.623 90.587 164.15 90.928 165.623 89.455 165.964 90.928 165.623 92.401 165.282 90.928 165.623 86.663 184.442 90.928 165.623 95.193 146.804 90.928 165.623 72.109 161.358 90.928 165.623 109.747 169.888 90.928 165.623 88.545 171.891 90.928 165.623 93.311 159.355 90.928 165.623 84.66 163.24 90.928 165.623 97.196 168.006 90.928 165.623 94.318 169.324 90.928 165.623 87.538 161.922 90.928 165.623 87.227 169.013 90.928 165.623 94.629 162.233 90.928 165.623 111.574 174.794 90.928 165.623 70.282 156.452 90.928 165.623 81.757 186.269 90.928 165.623 100.099 144.977 90.928 165.623 99.994 182.103 90.928 165.623 81.861 149.143 90.928 165.623 74.448 174.689 90.928 165.623 107.408 156.556 90.928 165.623 100.599 185.216 90.928 165.623 81.257 146.03 90.928 165.623 71.335 175.294 90.928 165.623 110.521 155.952 90.928 165.623 93.793 168.852 90.928 165.623 88.063 162.393 90.928 165.623 87.699 168.488 90.928 165.623 94.157 162.758 90.928 165.623 105.143 172.135 90.928 165.623 76.712 159.111 90.928 165.623 84.416 179.838 90.928 165.623 97.44 151.407 90.928 165.623 90.1 182.324 90.928 165.623 91.756 148.922 90.928 165.623 74.227 164.795 90.928 165.623 107.629 166.451 90.928 165.623 95.806 178.402 90.928 165.623 86.05 152.844 90.928 165.623 78.149 170.501 90.928 165.623 103.707 160.745"/><circle class="y" cx="90.77715" cy="208.53981" r="6.79091" transform="translate(-57.88457 36.40894) rotate(-17.29226)"/><circle class="z" cx="90.80635" cy="200.25225" r="1.93017"/><circle class="aa" cx="90.88489" cy="177.88157" r="1.0781" transform="translate(-48.76667 35.05525) rotate(-17.29226)"/><circle class="ab" cx="90.83697" cy="191.52926" r="0.71405" transform="translate(-52.82555 35.65786) rotate(-17.29226)"/><circle class="ac" cx="90.82934" cy="193.68873" r="1.00413" transform="translate(-53.46779 35.7532) rotate(-17.29226)"/><circle class="ad" cx="90.80773" cy="199.82991" r="1.86426" transform="translate(-55.29421 36.02435) rotate(-17.29226)"/><path class="b" d="M234.92508,255.07313V121.99453h0c0,4.74736-55.69483,8.59581-77.27169,8.59581s-77.29359-3.84845-77.29359-8.59581h0V255.07318c.07619,5.90272,2.7717,11.8329,8.94029,11.8329h136.6847C232.15318,266.90608,234.99807,260.85758,234.92508,255.07313Z"/><g class="ae"><path class="af" d="M162.27043,156.26561c-18.67792,1.50493-37.416,2.26908-56.09287,3.8-19.9941,1.63886-41.801,7.14928-57.53907,20.1983q-.22447.18612-.44662.375c-8.76135,7.42889-15.9763,17.98992-15.41066,29.46293.44337,8.99281,5.68342,17.23709,12.52839,23.08634s15.20216,9.61118,23.5767,12.91789c48.69347,19.22676,104.26913,25.27834,153.42829,7.27559,9.885-3.62,19.52717-8.23322,27.684-14.88789s14.78233-15.49629,17.51362-25.66283c2.8151-10.47851,1.31454-21.88724-3.2578-31.72684-4.33138-9.32105-11.14834-16.47991-13.97464-26.61155-.52426-1.87938-1.108-3.95817-2.75385-5.00613a7.51487,7.51487,0,0,0-3.74218-.85011c-21.64114-1.0035-42.5259,3.5073-63.88286,5.93934C174.03257,155.2439,168.15449,155.79151,162.27043,156.26561Z"/><path class="ag" d="M157.40076,196.16526c-18.41325,3.47587-36.96487,6.22152-55.37429,9.7231C82.31865,209.63689,61.21854,217.4273,46.952,232.0707q-.20349.20886-.40436.42023c-7.92473,8.31554-13.97983,19.58172-12.2015,30.93017,1.39389,8.89519,7.47813,16.53772,14.90443,21.62863s16.13511,7.946,24.81293,10.34657c50.45684,13.95813,106.36086,14.08593,153.33532-9.02515,9.44573-4.64722,18.54468-10.25627,25.95034-17.7379s13.05684-16.9756,14.69534-27.37434c1.68877-10.71784-1.01239-21.90329-6.60174-31.20292-5.2948-8.80954-12.832-15.20565-16.71614-24.98072-.72048-1.81324-1.52127-3.81845-3.26888-4.68609a7.51483,7.51483,0,0,0-3.8112-.44874c-21.62561,1.2956-41.91472,7.99429-62.89368,12.676C168.98839,193.9028,163.20144,195.07026,157.40076,196.16526Z"/></g><path class="ah" d="M234.92508,121.99452c0,4.74735-55.69476,8.59583-77.27164,8.59583s-77.29364-3.84848-77.29364-8.59583,55.71676-8.59582,77.29364-8.59582S234.92508,117.24718,234.92508,121.99452Z"/><g class="ai"><circle class="aj" cx="128.01311" cy="130.59035" r="14.91016"/><ellipse class="ak" cx="126.96417" cy="122.37212" rx="9.96443" ry="6.00743" transform="translate(-8.90784 9.97268) rotate(-4.34581)"/><circle class="al" cx="135.94528" cy="123.10411" r="1.22104"/><circle class="am" cx="137.85291" cy="124.70762" r="0.4427"/><circle class="an" cx="121.46826" cy="140.68513" r="0.4427"/><path class="ao" d="M116.14983,131.67873c-.1463,2.87815,1.58571,7.02963,4.34722,8.24794"/><circle class="ap" cx="134.72425" cy="138.69966" r="1.35526"/></g><g class="ai"><circle class="aq" cx="172.23128" cy="112.31353" r="8.42633"/><ellipse class="ar" cx="171.63849" cy="107.66908" rx="5.6313" ry="3.39504" transform="translate(-7.66526 13.31565) rotate(-4.34581)"/><circle class="as" cx="176.71408" cy="108.08275" r="0.69006"/><circle class="at" cx="177.79215" cy="108.98896" r="0.25019"/><circle class="au" cx="168.53253" cy="118.0185" r="0.25019"/><path class="av" d="M165.52687,112.92861c-.08268,1.62656.89615,3.97273,2.45679,4.66125"/><circle class="aw" cx="176.02402" cy="116.89643" r="0.76591"/></g><g class="ai"><circle class="ax" cx="154.37603" cy="93.33985" r="4.48279"/><ellipse class="ay" cx="154.06066" cy="90.86901" rx="2.99584" ry="1.80616" transform="translate(-6.44275 11.93537) rotate(-4.34581)"/><circle class="az" cx="156.76087" cy="91.08908" r="0.36711"/><circle class="ba" cx="157.3344" cy="91.57118" r="0.1331"/><circle class="bb" cx="152.4083" cy="96.37488" r="0.1331"/><path class="bc" d="M150.80929,93.66707a2.79181,2.79181,0,0,0,1.307,2.47978"/><circle class="bd" cx="156.39376" cy="95.77794" r="0.40746"/></g><g class="be"><circle class="bf" cx="199.7824" cy="164.49202" r="9.8398"/><ellipse class="bg" cx="199.09016" cy="159.06849" rx="6.57592" ry="3.96454" transform="translate(-11.48117 15.54362) rotate(-4.34581)"/><circle class="bh" cx="205.01716" cy="159.55155" r="0.80581"/><circle class="bi" cx="206.27608" cy="160.60977" r="0.29216"/><circle class="bj" cx="195.4632" cy="171.15397" r="0.29216"/><path class="bk" d="M191.95335,165.21028c-.09655,1.89941,1.04647,4.63914,2.86891,5.44315"/><circle class="bl" cx="204.21135" cy="169.84368" r="0.89439"/></g><g class="be"><circle class="bm" cx="182.8382" cy="184.93134" r="5.23476"/><ellipse class="bn" cx="182.46993" cy="182.04603" rx="3.49838" ry="2.10913" transform="translate(-13.27011 14.35026) rotate(-4.34581)"/><circle class="bo" cx="185.62308" cy="182.30302" r="0.42869"/><circle class="bp" cx="186.29282" cy="182.86599" r="0.15543"/><circle class="bq" cx="180.54039" cy="188.47548" r="0.15543"/><path class="br" d="M178.67316,185.31345a3.26012,3.26012,0,0,0,1.52625,2.89575"/><circle class="bs" cx="185.19439" cy="187.77841" r="0.47582"/></g><polygon class="bt" points="251.68 214.109 56.118 214.109 40.941 293.266 236.503 293.266 251.68 214.109"/><polygon class="bu" points="251.68 214.109 258.303 284.079 255.695 286.124 240.704 286.285 239.596 290.841 236.503 293.266 251.68 214.109"/><path class="bv" d="M124.27045,231.41471a3.4224,3.4224,0,0,1,1.27637-1.26856,3.918,3.918,0,0,1,1.58984-.47949,1.93756,1.93756,0,0,1,2.00488,1.17383,2.55418,2.55418,0,0,1-.39843,2.53711,43.29508,43.29508,0,0,0-3.7461,6.77344,3.63417,3.63417,0,0,1-1.59179,1.72265,3.26632,3.26632,0,0,1-2.0918.47852,1.918,1.918,0,0,1-1.40527-1.17188,2.42387,2.42387,0,0,1,.06445-2.01074A57.278,57.278,0,0,1,124.27045,231.41471Z"/><path class="bv" d="M133.47553,230.48112a3.31878,3.31878,0,0,1,1.96484-.71778l7.03809-.09668a3.97035,3.97035,0,0,1,.61133-.04687,1.27323,1.27323,0,0,1,.60937.04687l4.53711-.04687a1.75021,1.75021,0,0,1,1.55273.71777,1.85039,1.85039,0,0,1,.32325,1.72363,3.50114,3.50114,0,0,1-1.21973,1.77149,3.22518,3.22518,0,0,1-1.94141.71679l-3.41211.04883a68.68288,68.68288,0,0,0-5.45507,12.56446,2.82992,2.82992,0,0,1-1.26075,1.65234,2.8639,2.8639,0,0,1-1.94531.64648,1.64082,1.64082,0,0,1-1.43652-.88671,1.90374,1.90374,0,0,1-.14356-1.77051,75.21789,75.21789,0,0,1,4.98047-12.13477l-4.17676.04785a1.8554,1.8554,0,0,1-1.52343-.74218,2.0905,2.0905,0,0,1-.29981-1.72266A3.34239,3.34239,0,0,1,133.47553,230.48112Z"/><path class="bv" d="M149.29975,245.24869a3.28728,3.28728,0,0,1,1.97168-.74218H154.455a58.2796,58.2796,0,0,1,6.332-13.332,3.00391,3.00391,0,0,1,2.58789-1.60351,1.78517,1.78517,0,0,1,1.88672,1.07812,2.49507,2.49507,0,0,1-.39453,2.34571,53.62862,53.62862,0,0,0-5.50391,11.416h4.9541a58.62826,58.62826,0,0,1,6.33008-13.23633,3.13631,3.13631,0,0,1,2.63575-1.60351,1.72761,1.72761,0,0,1,1.81542,1.07812,2.26393,2.26393,0,0,1-.39453,2.34571,60.68773,60.68773,0,0,0-6.34179,14.07226,3.32329,3.32329,0,0,1-1.39356,1.69922,2.7416,2.7416,0,0,1-2.01465.55078q-3.42333,0-7.31347.04883-3.86572.04688-7.69629.04688a1.90023,1.90023,0,0,1-1.56934-.74219,1.80355,1.80355,0,0,1-.2959-1.65039A3.34246,3.34246,0,0,1,149.29975,245.24869Z"/><path class="bv" d="M71.39545,262.34244a3.46455,3.46455,0,0,1,1.97852-.76562l12.78222-.0957a1.86131,1.86131,0,0,1,1.82715,1.02832,2.51675,2.51675,0,0,1-.39453,2.3457,62.666,62.666,0,0,0-6.43945,14.16894,3.05819,3.05819,0,0,1-1.30762,1.65137,2.7684,2.7684,0,0,1-1.94629.64649,1.63844,1.63844,0,0,1-1.43555-.88575,2.11135,2.11135,0,0,1-.14355-1.77148,78.12659,78.12659,0,0,1,5.09472-12.20508l-9.3291.07129a1.79724,1.79724,0,0,1-1.584-.69434,2.14517,2.14517,0,0,1-.28613-1.77148A3.13523,3.13523,0,0,1,71.39545,262.34244Z"/><path class="bv" d="M92.833,262.10221a58.52341,58.52341,0,0,1,3.58789-6.36621,3.04585,3.04585,0,0,1,2.62891-1.5791,1.67771,1.67771,0,0,1,1.88476,1.041,2.54758,2.54758,0,0,1-.375,2.40528q-1.21,1.81934-2.33008,3.9248l8.3418-.04687a1.39639,1.39639,0,0,1,.37305-.04883.763.763,0,0,1,.46484.04883,1.59471,1.59471,0,0,1,1.85156,1.65039,2.86671,2.86671,0,0,1-1.51074,2.75293,66.18347,66.18347,0,0,0-5.75488,13.13964,3.44844,3.44844,0,0,1-1.3291,1.6875,2.97689,2.97689,0,0,1-1.9541.63477,1.68517,1.68517,0,0,1-1.42383-.88672,2.15585,2.15585,0,0,1-.14942-1.79492,79.13367,79.13367,0,0,1,5.05957-12.25391l-8.93554.12012a1.69318,1.69318,0,0,1-1.96387-1.67578A2.91739,2.91739,0,0,1,92.833,262.10221Z"/><path class="bv" d="M115.50971,263.0358a3.15487,3.15487,0,0,1,2.62207-1.55468,1.79727,1.79727,0,0,1,1.87695,1.02832,2.38671,2.38671,0,0,1-.4082,2.39355,62.65691,62.65691,0,0,0-6.40332,14.12109,3.23972,3.23972,0,0,1-1.28418,1.65137,2.85837,2.85837,0,0,1-1.94629.64649,1.67721,1.67721,0,0,1-1.4834-.88575,2.11133,2.11133,0,0,1-.14258-1.77148A68.00926,68.00926,0,0,1,115.50971,263.0358Z"/><path class="bv" d="M124.42572,261.48112a2.96524,2.96524,0,0,1,2.06446-.74219,1.671,1.671,0,0,1,1.43652.69336,1.75852,1.75852,0,0,1,.30664,1.60351L125.50482,276.32h2.37793q.85987-4.95409,5.45411-13.09277a3.34985,3.34985,0,0,1,1.1914-1.21973,2.82722,2.82722,0,0,1,1.57813-.52636,1.75779,1.75779,0,0,1,1.8125.90918,2.48187,2.48187,0,0,1-.2793,2.27441q-4.27589,7.49121-4.79,11.60742H136.08a58.00326,58.00326,0,0,1,6.30762-13.23633,3.06054,3.06054,0,0,1,2.59863-1.55468,1.70582,1.70582,0,0,1,1.82715,1.02929,2.28036,2.28036,0,0,1-.39453,2.34571,55.95892,55.95892,0,0,0-5.69239,12.20507,2.179,2.179,0,0,1-.28125,2.63282,3.21863,3.21863,0,0,1-2.69921,1.48437h-7.65821q-3.68262.09375-7.46191.09473h-.19141a1.97538,1.97538,0,0,1-1.91992-.50293,1.58664,1.58664,0,0,1-.44727-1.79492l3.19141-15.65235A3.18755,3.18755,0,0,1,124.42572,261.48112Z"/><path class="bv" d="M153.51654,263.0358a3.2416,3.2416,0,0,1,2.62207-1.55468,1.79518,1.79518,0,0,1,1.876,1.02832,2.46256,2.46256,0,0,1-.37109,2.3457,51.1391,51.1391,0,0,0-5.542,11.56055q1.53224,0,3.47168-.09571,1.90431-.04833,3.4834-.04785,1.01222-2.94434,2.10254-5.38574a12.2043,12.2043,0,0,0-1.13281,1.26855,3.46415,3.46415,0,0,1-1.86231,1.22071,1.98869,1.98869,0,0,1-1.82519-.23926,1.54172,1.54172,0,0,1-.78906-1.50781,2.911,2.911,0,0,1,.877-1.915q5.01415-5.88722,10.02246-7.94532a2.08367,2.08367,0,0,1,1.1416-.24023h.07129a1.04421,1.04421,0,0,1,.29981-.04687,1.79651,1.79651,0,0,1,1.87695,1.02832,2.28445,2.28445,0,0,1-.39551,2.3457,57.39828,57.39828,0,0,0-6.01562,13.04394,2.65641,2.65641,0,0,1-.84571,2.1543,3.09681,3.09681,0,0,1-2.14648,1.125,2.30732,2.30732,0,0,1-.80274.04785q-2.94433,0-5.39843.04785-2.40675.04834-6.23633.04786a1.7561,1.7561,0,0,1-1.8252-1.125,2.42846,2.42846,0,0,1,.50293-2.39356A63.95549,63.95549,0,0,1,153.51654,263.0358Z"/><path class="bv" d="M174.73529,262.10221a58.52341,58.52341,0,0,1,3.58789-6.36621,3.04585,3.04585,0,0,1,2.62891-1.5791,1.67772,1.67772,0,0,1,1.88477,1.041,2.54758,2.54758,0,0,1-.375,2.40528q-1.21,1.81934-2.33008,3.9248l8.34179-.04687a1.39639,1.39639,0,0,1,.37305-.04883.76305.76305,0,0,1,.46485.04883,1.59472,1.59472,0,0,1,1.85156,1.65039,2.86671,2.86671,0,0,1-1.51074,2.75293,66.18282,66.18282,0,0,0-5.75489,13.13964,3.44844,3.44844,0,0,1-1.3291,1.6875,2.97689,2.97689,0,0,1-1.9541.63477,1.68519,1.68519,0,0,1-1.42383-.88672,2.15585,2.15585,0,0,1-.14941-1.79492,79.13267,79.13267,0,0,1,5.05957-12.25391l-8.93555.12012a1.69319,1.69319,0,0,1-1.96387-1.67578A2.91739,2.91739,0,0,1,174.73529,262.10221Z"/><path class="bv" d="M197.01459,269.02018a30.57454,30.57454,0,0,1-1.02832-4.165,2.47083,2.47083,0,0,1,.7998-2.25,2.839,2.839,0,0,1,2.21875-1.124,1.57066,1.57066,0,0,1,1.85547,1.459,24.20853,24.20853,0,0,0,2.28125,6.96484,20.02621,20.02621,0,0,0,5.48828-6.48632,3.84109,3.84109,0,0,1,1.26758-1.41211,2.65321,2.65321,0,0,1,1.60157-.52539,1.6909,1.6909,0,0,1,1.63378.86132,2.11494,2.11494,0,0,1-.06543,2.00977q-2.04931,4.30957-7.6455,9.07226a43.53966,43.53966,0,0,0,3.00293,3.23047,1.71754,1.71754,0,0,1,.51953,1.53125,2.92684,2.92684,0,0,1-.92188,1.81934,3.24535,3.24535,0,0,1-1.833.93359,2.11369,2.11369,0,0,1-1.64747-.4541,28.28621,28.28621,0,0,1-5.69531-7.34863q-3.27686,3.35156-3.94922,5.83984a3.05745,3.05745,0,0,1-1.16406,1.65137,3.10739,3.10739,0,0,1-1.86426.69434,1.85305,1.85305,0,0,1-1.52148-.74219,1.93891,1.93891,0,0,1-.22363-1.65137Q191.38081,274.45328,197.01459,269.02018Z"/></g></svg>