<svg xmlns="http://www.w3.org/2000/svg" xmlns:xlink="http://www.w3.org/1999/xlink" viewBox="0 0 303.95444 341.11501"><defs><style>.a,.i{opacity:0.72;}.a{fill:url(#a);}.ai,.b,.l{opacity:0.8;}.b{fill:url(#b);}.c{isolation:isolate;}.d{fill:#683c11;fill-opacity:0.51;}.e,.g{mix-blend-mode:multiply;}.e{fill:url(#c);}.f{clip-path:url(#e);}.g{fill:url(#f);}.h{opacity:0.42;fill:url(#g);}.i{fill:url(#h);}.j{opacity:0.54;}.k{fill:url(#i);}.bf,.l{mix-blend-mode:hard-light;}.m{fill:url(#j);}.n,.o,.v,.y{opacity:0.5;}.n{fill:url(#k);}.o{fill:url(#l);}.p{opacity:0.25;fill:url(#m);}.aa,.ab,.ac,.ad,.p,.q,.r,.s,.u,.v,.w,.x,.y,.z{mix-blend-mode:screen;}.q{fill:url(#n);}.r{fill:url(#o);}.s{opacity:0.2;fill:url(#p);}.ap,.aw,.bd,.bl,.bs,.t,.x{fill:none;}.u{opacity:0.15;fill:url(#q);}.v{fill:url(#r);}.w{fill:url(#s);}.x{stroke:#fff;stroke-width:1.69256px;opacity:0.03;}.ai,.x{stroke-miterlimit:10;}.y{fill:url(#t);}.z{fill:url(#u);}.aa{fill:url(#v);}.ab{fill:url(#w);}.ac{fill:url(#x);}.ad{fill:url(#y);}.ae{fill:url(#z);}.af{clip-path:url(#ab);}.ag,.ah,.aj{opacity:0.3;}.ag{fill:url(#ac);}.ah{fill:url(#ad);}.ai,.ap{stroke-width:0.84628px;}.ai{fill:url(#ae);stroke:url(#af);}.ak{fill:url(#ag);}.al,.ao,.ap,.as,.av,.aw,.az,.bc,.bd,.bh,.bk,.bl,.bo,.br,.bs{mix-blend-mode:soft-light;}.al{fill:url(#ah);}.am{fill:url(#ai);}.an{fill:url(#aj);}.ao{fill:url(#ak);}.ap,.aw,.bd,.bl,.bs{stroke-linecap:round;stroke-linejoin:round;}.ap{stroke:url(#al);}.aq{fill:url(#am);}.ar{fill:url(#an);}.as{fill:url(#ao);}.at{fill:url(#ap);}.au{fill:url(#aq);}.av{fill:url(#ar);}.aw{stroke-width:0.47827px;stroke:url(#as);}.ax{fill:url(#at);}.ay{fill:url(#au);}.az{fill:url(#av);}.ba{fill:url(#aw);}.bb{fill:url(#ax);}.bc{fill:url(#ay);}.bd{stroke-width:0.25444px;stroke:url(#az);}.be{fill:url(#ba);}.bf{opacity:0.2;}.bg{fill:url(#bb);}.bh{fill:url(#bc);}.bi{fill:url(#bd);}.bj{fill:url(#be);}.bk{fill:url(#bf);}.bl{stroke-width:0.55849px;stroke:url(#bg);}.bm{fill:url(#bh);}.bn{fill:url(#bi);}.bo{fill:url(#bj);}.bp{fill:url(#bk);}.bq{fill:url(#bl);}.br{fill:url(#bm);}.bs{stroke-width:0.29712px;stroke:url(#bn);}.bt{fill:url(#bo);}.bu{fill:#fff;}.bv{fill:#c6c6c6;}.bw{fill:#3c3c3b;}</style><linearGradient id="a" x1="104.17871" y1="165.56347" x2="198.55929" y2="165.56347" gradientUnits="userSpaceOnUse"><stop offset="0" stop-color="#f5fbff"/><stop offset="0.62567" stop-color="#e9f1f5"/><stop offset="1" stop-color="#c5d9e0"/></linearGradient><linearGradient id="b" x1="218.24303" y1="270.68209" x2="100.14291" y2="114.15705" gradientUnits="userSpaceOnUse"><stop offset="0" stop-color="#07adbb"/><stop offset="1" stop-color="#39eaf0"/></linearGradient><linearGradient id="c" x1="170.47321" y1="61.71976" x2="148.17564" y2="243.33184" gradientUnits="userSpaceOnUse"><stop offset="0" stop-color="#bfc4c7"/><stop offset="1" stop-color="#b1c3c9"/></linearGradient><clipPath id="e"><path class="a" d="M245.628,260.32927V56.21441c0,4.92526-63.58119,8.918-87.37871,8.918q-1.79724,0-3.59432-.02924c-4.79889-.07261-9.59628-.249-14.3905-.4687q-8.5144-.3902-17.01852-.97514-8.76555-.597-17.51591-1.397c-5.3029-.49123-10.60164-1.04461-15.88269-1.73435-3.878-.50649-7.72018-1.49-11.65365-1.44118-3.9553.04913-7.63229,1.67156-11.44574,2.505q-.47635.10416-.95439.20048a19.75525,19.75525,0,0,1-3.84673.58949q-.67953.07353-1.36172.11872c-.22315.015-.86315-.06053-1.01577.13972-.13737.18024.24046.6185.36578.75686a5.19749,5.19749,0,0,0,.75974.60652c.32625.24652.66943.46711,1.00291.70321l3.44455,2.439,5.56351,3.93934.16453.1165V260.32927A11.53455,11.53455,0,0,0,81.9947,274.91253H234.50357A11.53455,11.53455,0,0,0,245.628,260.32927Z"/></clipPath><linearGradient id="f" x1="119.59269" y1="163.94125" x2="170.76987" y2="296.11187" gradientUnits="userSpaceOnUse"><stop offset="0" stop-color="#f5f5f5"/><stop offset="1" stop-color="#c3d1d6"/></linearGradient><linearGradient id="g" x1="98.15163" y1="207.6583" x2="212.24991" y2="207.6583" xlink:href="#b"/><linearGradient id="h" x1="152.62244" y1="38.3778" x2="152.62244" y2="64.94849" xlink:href="#a"/><radialGradient id="i" cx="225.47476" cy="128.1371" r="64.69946" gradientTransform="translate(239.15773 -97.41163) rotate(89.70298) scale(1 0.11591)" gradientUnits="userSpaceOnUse"><stop offset="0" stop-color="#e6f3ff"/><stop offset="1" stop-color="#b9cbf0" stop-opacity="0"/></radialGradient><radialGradient id="j" cx="-1575.95869" cy="-299.73036" r="54.27899" gradientTransform="matrix(0.00636, -0.99998, 0.15751, 0.001, 146.42431, -1423.75026)" xlink:href="#i"/><radialGradient id="k" cx="226.44298" cy="197.4173" r="3.82592" gradientTransform="matrix(1, 0, 0, 1, 0, 0)" xlink:href="#i"/><radialGradient id="l" cx="226.44298" cy="124.23495" r="3.82592" gradientTransform="matrix(1, 0, 0, 1, 0, 0)" xlink:href="#i"/><radialGradient id="m" cx="-1908.01988" cy="-437.36136" r="13.58164" gradientTransform="translate(1999.59219 592.25511)" gradientUnits="userSpaceOnUse"><stop offset="0.1"/><stop offset="0.11244" stop-color="#080602"/><stop offset="0.16172" stop-color="#231b08"/><stop offset="0.21838" stop-color="#392c0d"/><stop offset="0.28458" stop-color="#4a3910"/><stop offset="0.36644" stop-color="#554213"/><stop offset="0.48125" stop-color="#5c4815"/><stop offset="0.8" stop-color="#5e4915"/><stop offset="1"/></radialGradient><radialGradient id="n" cx="-1922.98393" cy="-389.88265" r="0.45271" gradientTransform="translate(2014.38141 594.55708)" gradientUnits="userSpaceOnUse"><stop offset="0" stop-color="#d4e194"/><stop offset="0.05952" stop-color="#afba7a"/><stop offset="0.13651" stop-color="#868f5e"/><stop offset="0.21955" stop-color="#626845"/><stop offset="0.30759" stop-color="#44482f"/><stop offset="0.40211" stop-color="#2b2e1e"/><stop offset="0.50556" stop-color="#181911"/><stop offset="0.62249" stop-color="#0a0b07"/><stop offset="0.76429" stop-color="#020302"/><stop offset="1"/></radialGradient><radialGradient id="o" cx="-1924.14591" cy="-386.19597" r="0.45271" gradientTransform="translate(2015.52979 594.73582)" xlink:href="#n"/><radialGradient id="p" cx="-1923.50087" cy="-388.24256" r="3.39543" gradientTransform="translate(2014.8923 594.63653)" gradientUnits="userSpaceOnUse"><stop offset="0.05"/><stop offset="0.09242" stop-color="#040a03"/><stop offset="0.29802" stop-color="#183411"/><stop offset="0.48337" stop-color="#25531c"/><stop offset="0.64031" stop-color="#2e6622"/><stop offset="0.75" stop-color="#316d24"/><stop offset="0.78593" stop-color="#4f6e16"/><stop offset="0.83397" stop-color="#716f06"/><stop offset="0.86" stop-color="#7e6f00"/><stop offset="0.88764" stop-color="#7a6c00"/><stop offset="0.91229" stop-color="#706200"/><stop offset="0.93581" stop-color="#5d5200"/><stop offset="0.95863" stop-color="#443c00"/><stop offset="0.98074" stop-color="#231f00"/><stop offset="1"/></radialGradient><radialGradient id="q" cx="-1911.24509" cy="-427.1283" r="9.05439" gradientTransform="translate(2002.77972 592.75119)" gradientUnits="userSpaceOnUse"><stop offset="0" stop-color="#200"/><stop offset="0.73" stop-color="#984023"/><stop offset="1" stop-color="#200"/></radialGradient><radialGradient id="r" cx="-1911.24509" cy="-427.1283" r="4.52725" gradientTransform="translate(2002.77974 592.7511)" gradientUnits="userSpaceOnUse"><stop offset="0.15" stop-color="#fff"/><stop offset="0.20939" stop-color="#e5d3d3"/><stop offset="0.29044" stop-color="#c49c9e"/><stop offset="0.36051" stop-color="#ad7477"/><stop offset="0.41599" stop-color="#9e5c5f"/><stop offset="0.45" stop-color="#995356"/><stop offset="0.57175" stop-color="#6b3335"/><stop offset="0.69355" stop-color="#431718"/><stop offset="0.79053" stop-color="#2b0606"/><stop offset="0.85" stop-color="#200"/><stop offset="0.85727" stop-color="#260201"/><stop offset="0.8648" stop-color="#330704"/><stop offset="0.87246" stop-color="#471009"/><stop offset="0.8802" stop-color="#641d0f"/><stop offset="0.88801" stop-color="#8a2e18"/><stop offset="0.89577" stop-color="#b74223"/><stop offset="0.9" stop-color="#d34e29"/><stop offset="0.90254" stop-color="#c84927"/><stop offset="0.91417" stop-color="#9c361c"/><stop offset="0.92635" stop-color="#772514"/><stop offset="0.93893" stop-color="#58180c"/><stop offset="0.95205" stop-color="#400d07"/><stop offset="0.96594" stop-color="#2f0603"/><stop offset="0.98111" stop-color="#250101"/><stop offset="1" stop-color="#200"/></radialGradient><radialGradient id="s" cx="-1911.24509" cy="-427.1283" r="3.7727" gradientTransform="translate(2002.77973 592.75114)" gradientUnits="userSpaceOnUse"><stop offset="0.15" stop-color="#fff"/><stop offset="0.28237" stop-color="#c2c2c2"/><stop offset="0.42528" stop-color="#888"/><stop offset="0.5636" stop-color="#575757"/><stop offset="0.69361" stop-color="#313131"/><stop offset="0.81336" stop-color="#161616"/><stop offset="0.91921" stop-color="#060606"/><stop offset="1"/></radialGradient><radialGradient id="t" cx="-1924.14591" cy="-386.19597" r="6.79086" gradientTransform="translate(2015.5298 594.73577)" gradientUnits="userSpaceOnUse"><stop offset="0.64"/><stop offset="0.71799" stop-color="#000200"/><stop offset="0.74608" stop-color="#020902"/><stop offset="0.76609" stop-color="#051405"/><stop offset="0.78228" stop-color="#082509"/><stop offset="0.79598" stop-color="#0d3b0e"/><stop offset="0.8" stop-color="#0f4310"/><stop offset="0.8131" stop-color="#1e2c0a"/><stop offset="0.82975" stop-color="#2d1605"/><stop offset="0.84569" stop-color="#360901"/><stop offset="0.86" stop-color="#390400"/><stop offset="0.8715" stop-color="#250300"/><stop offset="0.88602" stop-color="#140100"/><stop offset="0.90412" stop-color="#090100"/><stop offset="0.92951" stop-color="#020000"/><stop offset="1"/></radialGradient><radialGradient id="u" cx="-1921.65459" cy="-394.10026" r="1.93017" gradientTransform="translate(2043.35541 5.33552) rotate(-17.29226)" gradientUnits="userSpaceOnUse"><stop offset="0.1"/><stop offset="0.24639" stop-color="#1b1103"/><stop offset="0.42619" stop-color="#362207"/><stop offset="0.61009" stop-color="#492e09"/><stop offset="0.79889" stop-color="#54350b"/><stop offset="1" stop-color="#58370b"/></radialGradient><radialGradient id="v" cx="-1914.93001" cy="-415.43647" r="1.07807" gradientTransform="translate(2006.42161 593.31809)" gradientUnits="userSpaceOnUse"><stop offset="0.1" stop-color="#192f1b"/><stop offset="0.2285" stop-color="#122214"/><stop offset="0.47516" stop-color="#080f09"/><stop offset="0.72928" stop-color="#020402"/><stop offset="1"/></radialGradient><radialGradient id="w" cx="-1919.03248" cy="-402.41989" r="0.714" gradientTransform="translate(2010.47618 593.94916)" xlink:href="#u"/><radialGradient id="x" cx="-1919.68166" cy="-400.36028" r="1.00408" gradientTransform="translate(2011.11773 594.04903)" gradientUnits="userSpaceOnUse"><stop offset="0.1"/><stop offset="0.29001" stop-color="#14160e"/><stop offset="0.51699" stop-color="#25291a"/><stop offset="0.75084" stop-color="#303422"/><stop offset="1" stop-color="#333824"/></radialGradient><radialGradient id="y" cx="-1921.52773" cy="-394.5031" r="1.86428" gradientTransform="translate(2012.94219 594.33302)" xlink:href="#v"/><radialGradient id="z" cx="98.41515" cy="62.70216" r="6.99971" gradientUnits="userSpaceOnUse"><stop offset="0" stop-color="#fff"/><stop offset="1" stop-color="#b9cbf0" stop-opacity="0"/></radialGradient><clipPath id="ab"><path class="b" d="M235.53181,255.07313V121.99453h0c0,4.74736-55.69483,8.59581-77.27169,8.59581s-77.29359-3.84845-77.29359-8.59581h0V255.07318c.07619,5.90272,2.7717,11.8329,8.94029,11.8329h136.6847C232.75991,266.90608,235.6048,260.85758,235.53181,255.07313Z"/></clipPath><linearGradient id="ac" x1="314.9069" y1="217.33703" x2="67.87279" y2="194.35711" xlink:href="#b"/><linearGradient id="ad" x1="34.64071" y1="242.44061" x2="269.14969" y2="242.44061" xlink:href="#b"/><linearGradient id="ae" x1="295.50202" y1="121.99452" x2="112.35584" y2="121.99452" xlink:href="#b"/><linearGradient id="af" x1="80.54339" y1="121.99452" x2="235.95495" y2="121.99452" gradientUnits="userSpaceOnUse"><stop offset="0" stop-color="#26edff"/><stop offset="1" stop-color="#39eaf0"/></linearGradient><radialGradient id="ag" cx="128.61984" cy="130.59035" r="14.16583" gradientTransform="matrix(0.2537, -0.96728, 0.95587, 0.2507, -28.83848, 222.26261)" gradientUnits="userSpaceOnUse"><stop offset="0" stop-color="#35c7c5" stop-opacity="0.8"/><stop offset="0.29921" stop-color="#39cac8" stop-opacity="0.80046"/><stop offset="0.52418" stop-color="#44d2d0" stop-opacity="0.80193"/><stop offset="0.72493" stop-color="#58e0dd" stop-opacity="0.8044"/><stop offset="0.91041" stop-color="#74f3f0" stop-opacity="0.80787"/><stop offset="1" stop-color="#85fffc" stop-opacity="0.81"/></radialGradient><radialGradient id="ah" cx="165.59948" cy="594.012" r="9.1779" gradientTransform="translate(-78.45992 -335.65611) scale(1.24415 0.77108)" gradientUnits="userSpaceOnUse"><stop offset="0" stop-color="#52c6eb"/><stop offset="0.37881" stop-color="#52c6eb" stop-opacity="0.99203"/><stop offset="0.51527" stop-color="#53c6ea" stop-opacity="0.96313"/><stop offset="0.61253" stop-color="#55c6ea" stop-opacity="0.91281"/><stop offset="0.69121" stop-color="#57c6e9" stop-opacity="0.8409"/><stop offset="0.75863" stop-color="#5ac7e7" stop-opacity="0.74715"/><stop offset="0.81834" stop-color="#5ec7e5" stop-opacity="0.63133"/><stop offset="0.87231" stop-color="#62c7e3" stop-opacity="0.49335"/><stop offset="0.92196" stop-color="#67c7e1" stop-opacity="0.33264"/><stop offset="0.96609" stop-color="#6dc8de" stop-opacity="0.15775"/><stop offset="1" stop-color="#72c8dc" stop-opacity="0"/></radialGradient><radialGradient id="ai" cx="136.55201" cy="123.10411" r="1.16008" gradientTransform="matrix(0.2537, -0.96728, 0.95587, 0.2507, -15.76278, 224.32587)" gradientUnits="userSpaceOnUse"><stop offset="0" stop-color="#c1e2eb"/><stop offset="0.37881" stop-color="#c0e2eb" stop-opacity="0.99203"/><stop offset="0.51527" stop-color="#bee1ea" stop-opacity="0.96313"/><stop offset="0.61253" stop-color="#bae0ea" stop-opacity="0.91281"/><stop offset="0.69121" stop-color="#b4dee9" stop-opacity="0.8409"/><stop offset="0.75863" stop-color="#addbe7" stop-opacity="0.74715"/><stop offset="0.81834" stop-color="#a4d8e5" stop-opacity="0.63133"/><stop offset="0.87231" stop-color="#99d5e3" stop-opacity="0.49335"/><stop offset="0.92196" stop-color="#8cd1e1" stop-opacity="0.33264"/><stop offset="0.96609" stop-color="#7eccde" stop-opacity="0.15775"/><stop offset="1" stop-color="#72c8dc" stop-opacity="0"/></radialGradient><radialGradient id="aj" cx="138.45964" cy="124.70762" r="0.4206" gradientTransform="matrix(0.2537, -0.96728, 0.95587, 0.2507, -15.87187, 227.37259)" gradientUnits="userSpaceOnUse"><stop offset="0" stop-color="#c1e2eb"/><stop offset="0.22496" stop-color="#c0e2eb" stop-opacity="0.98901"/><stop offset="0.3644" stop-color="#bde1ea" stop-opacity="0.95275"/><stop offset="0.48062" stop-color="#b8dfe9" stop-opacity="0.89088"/><stop offset="0.58411" stop-color="#b1dde8" stop-opacity="0.80322"/><stop offset="0.67914" stop-color="#a8dae6" stop-opacity="0.68961"/><stop offset="0.7679" stop-color="#9dd6e4" stop-opacity="0.55"/><stop offset="0.85188" stop-color="#90d2e2" stop-opacity="0.38414"/><stop offset="0.92991" stop-color="#82cddf" stop-opacity="0.19725"/><stop offset="1" stop-color="#72c8dc" stop-opacity="0"/></radialGradient><radialGradient id="ak" cx="122.07499" cy="140.68513" r="0.4206" gradientTransform="matrix(0.2537, -0.96728, 0.95587, 0.2507, -43.37225, 223.49586)" xlink:href="#aj"/><radialGradient id="al" cx="118.92587" cy="135.8027" r="3.70417" gradientTransform="matrix(1, 0, 0, 1, 0, 0)" xlink:href="#ai"/><radialGradient id="am" cx="135.33098" cy="138.69966" r="1.68884" gradientTransform="translate(0 20.14894) scale(1 0.85473)" gradientUnits="userSpaceOnUse"><stop offset="0" stop-color="#52c6eb"/><stop offset="0.09168" stop-color="#53c6eb" stop-opacity="0.96822"/><stop offset="0.22975" stop-color="#56c6e9" stop-opacity="0.88033"/><stop offset="0.39704" stop-color="#5ac7e7" stop-opacity="0.73641"/><stop offset="0.58721" stop-color="#61c7e4" stop-opacity="0.53628"/><stop offset="0.79369" stop-color="#69c7e0" stop-opacity="0.2836"/><stop offset="1" stop-color="#72c8dc" stop-opacity="0"/></radialGradient><radialGradient id="an" cx="172.83801" cy="112.31353" r="8.00568" gradientTransform="matrix(0.2537, -0.96728, 0.95587, 0.2507, 21.63198, 251.33939)" xlink:href="#ag"/><radialGradient id="ao" cx="202.2992" cy="581.51319" r="5.1868" gradientTransform="translate(-79.44561 -340.72163) scale(1.24415 0.77108)" xlink:href="#ah"/><radialGradient id="ap" cx="177.32081" cy="108.08275" r="0.65561" gradientTransform="matrix(0.2537, -0.96728, 0.95587, 0.2507, 29.02159, 252.50542)" xlink:href="#ai"/><radialGradient id="aq" cx="178.39888" cy="108.98896" r="0.2377" gradientTransform="matrix(0.2537, -0.96728, 0.95587, 0.2507, 28.95994, 254.22725)" xlink:href="#aj"/><radialGradient id="ar" cx="169.13926" cy="118.0185" r="0.2377" gradientTransform="matrix(0.2537, -0.96728, 0.95587, 0.2507, 13.41836, 252.03635)" xlink:href="#aj"/><radialGradient id="as" cx="167.35956" cy="115.25924" r="2.09337" gradientTransform="matrix(1, 0, 0, 1, 0, 0)" xlink:href="#ai"/><radialGradient id="at" cx="176.63075" cy="116.89643" r="0.95443" gradientTransform="translate(0 16.98157) scale(1 0.85473)" xlink:href="#am"/><radialGradient id="au" cx="154.98276" cy="93.33985" r="4.25901" gradientTransform="matrix(0.2537, -0.96728, 0.95587, 0.2507, 26.44299, 219.8514)" xlink:href="#ag"/><radialGradient id="av" cx="189.23468" cy="561.46754" r="2.75937" gradientTransform="translate(-80.7692 -342.06498) scale(1.24415 0.77108)" xlink:href="#ah"/><radialGradient id="aw" cx="157.3676" cy="91.08908" r="0.34878" gradientTransform="matrix(0.2537, -0.96728, 0.95587, 0.2507, 30.37425, 220.47173)" xlink:href="#ai"/><radialGradient id="ax" cx="157.94113" cy="91.57118" r="0.12646" gradientTransform="matrix(0.2537, -0.96728, 0.95587, 0.2507, 30.34145, 221.38774)" xlink:href="#aj"/><radialGradient id="ay" cx="153.01503" cy="96.37488" r="0.12646" gradientTransform="matrix(0.2537, -0.96728, 0.95587, 0.2507, 22.07336, 220.22219)" xlink:href="#aj"/><radialGradient id="az" cx="152.06823" cy="94.90696" r="1.11367" gradientTransform="matrix(1, 0, 0, 1, 0, 0)" xlink:href="#ai"/><radialGradient id="ba" cx="157.00049" cy="95.77794" r="0.50776" gradientTransform="translate(0 13.91369) scale(1 0.85473)" xlink:href="#am"/><radialGradient id="bb" cx="200.38913" cy="164.49202" r="9.34859" gradientTransform="matrix(0.2537, -0.96728, 0.95587, 0.2507, -7.68257, 317.08624)" xlink:href="#ag"/><radialGradient id="bc" cx="221.16982" cy="640.63097" r="6.05686" gradientTransform="translate(-75.47184 -334.9065) scale(1.24415 0.77108)" xlink:href="#ah"/><radialGradient id="bd" cx="205.62389" cy="159.55155" r="0.76558" gradientTransform="matrix(0.2537, -0.96728, 0.95587, 0.2507, 0.94661, 318.44787)" xlink:href="#ai"/><radialGradient id="be" cx="206.88281" cy="160.60977" r="0.27757" gradientTransform="matrix(0.2537, -0.96728, 0.95587, 0.2507, 0.87462, 320.45852)" xlink:href="#aj"/><radialGradient id="bf" cx="196.06993" cy="171.15397" r="0.27757" gradientTransform="matrix(0.2537, -0.96728, 0.95587, 0.2507, -17.27398, 317.90011)" xlink:href="#aj"/><radialGradient id="bg" cx="193.9917" cy="167.93186" r="2.44453" gradientTransform="matrix(1, 0, 0, 1, 0, 0)" xlink:href="#ai"/><radialGradient id="bh" cx="204.81808" cy="169.84368" r="1.11454" gradientTransform="translate(0 24.67324) scale(1 0.85473)" xlink:href="#am"/><radialGradient id="bi" cx="183.44493" cy="184.93134" r="4.97343" gradientTransform="matrix(0.2537, -0.96728, 0.95587, 0.2507, -39.86547, 316.01147)" xlink:href="#ag"/><radialGradient id="bj" cx="206.45007" cy="664.63206" r="3.22224" gradientTransform="translate(-73.77848 -330.43562) scale(1.24415 0.77108)" xlink:href="#ah"/><radialGradient id="bk" cx="186.22981" cy="182.30302" r="0.40729" gradientTransform="matrix(0.2537, -0.96728, 0.95587, 0.2507, -35.27476, 316.73586)" xlink:href="#ai"/><radialGradient id="bl" cx="186.89955" cy="182.86599" r="0.14767" gradientTransform="matrix(0.2537, -0.96728, 0.95587, 0.2507, -35.31306, 317.80552)" xlink:href="#aj"/><radialGradient id="bm" cx="181.14712" cy="188.47548" r="0.14767" gradientTransform="matrix(0.2537, -0.96728, 0.95587, 0.2507, -44.96809, 316.44445)" xlink:href="#aj"/><radialGradient id="bn" cx="180.0415" cy="186.76133" r="1.30048" gradientTransform="matrix(1, 0, 0, 1, 0, 0)" xlink:href="#ai"/><radialGradient id="bo" cx="185.80112" cy="187.77841" r="0.59293" gradientTransform="translate(0 27.27862) scale(1 0.85473)" xlink:href="#am"/></defs><g class="c"><polygon class="d" points="41.548 293.266 29.951 299.703 241.006 299.703 258.956 286.572 258.91 284.079 41.548 293.266"/><path class="e" d="M239.8232,258.59864l-.86747-199.38445c-12.06243,5.91817-64.2222,5.9182-80.70649,5.9182q-.37368,0-.74734-.0023c-1.07381-.00638-2.14755-.02454-3.2211-.04871q-1.89675-.04269-3.79291-.1081-2.14153-.07191-4.28241-.16232-2.34514-.09783-4.68961-.21138-2.50759-.12069-5.01451-.25528-2.6289-.14064-5.2571-.294-2.70906-.15778-5.4174-.32758-2.74806-.17213-5.49539-.356-2.74593-.18372-5.49107-.3792-2.70267-.19255-5.40446-.39728-2.61828-.19861-5.23555-.41018-2.49274-.20185-4.98433-.41792-2.32611-.20225-4.6508-.42049-2.11839-.19966-4.235-.4179-.9682-.10042-1.93583-.20636a25.61586,25.61586,0,0,1-2.82683-.5885q-.26058-.05868-.52166-.11522a26.37132,26.37132,0,0,0-7.35363-.70634l-1.23823.08427.221,199.207a9.81,9.81,0,0,0,9.43678,12.48993H230.38642A9.80992,9.80992,0,0,0,239.8232,258.59864Z"/><path class="a" d="M245.628,260.32927V56.21441c0,4.92526-63.58119,8.918-87.37871,8.918q-1.79724,0-3.59432-.02924c-4.79889-.07261-9.59628-.249-14.3905-.4687q-8.5144-.3902-17.01852-.97514-8.76555-.597-17.51591-1.397c-5.3029-.49123-10.60164-1.04461-15.88269-1.73435-3.878-.50649-7.72018-1.49-11.65365-1.44118-3.9553.04913-7.63229,1.67156-11.44574,2.505q-.47635.10416-.95439.20048a19.75525,19.75525,0,0,1-3.84673.58949q-.67953.07353-1.36172.11872c-.22315.015-.86315-.06053-1.01577.13972-.13737.18024.24046.6185.36578.75686a5.19749,5.19749,0,0,0,.75974.60652c.32625.24652.66943.46711,1.00291.70321l3.44455,2.439,5.56351,3.93934.16453.1165V260.32927A11.53455,11.53455,0,0,0,81.9947,274.91253H234.50357A11.53455,11.53455,0,0,0,245.628,260.32927Z"/><g class="f"><path class="g" d="M240.86674,263.90226c0-8.62279-36.85435-11.59375-82.31649-11.59375s-82.31648,3.29833-82.31648,11.92112,8.02531,6.88124,82.31648,7.56925C229.06312,272.4519,240.86674,272.525,240.86674,263.90226Z"/><rect class="h" x="44.18675" y="119.9831" width="225.4691" height="175.35041"/></g><path class="i" d="M245.628,56.2144c0,4.92525-63.58129,8.918-87.37874,8.918-4.58538,0-9.171-.12348-13.75326-.2835q-9.63721-.33654-19.26389-.92134-10.14446-.604-20.27177-1.46531-3.79275-.32859-7.58111-.70568-3.86516-.38983-7.72152-.86128c-1.244-.1538-2.48349-.35229-3.70836-.61993q-1.85295-.40488-3.73487-.65741a21.88928,21.88928,0,0,0-7.12486-.013c-2.33431.451-4.57211,1.27661-6.88071,1.83049a41.21427,41.21427,0,0,1-8.59192,1.12378,7.22525,7.22525,0,0,1,1.60056-1.3976,37.21621,37.21621,0,0,1,4.44277-2.5362c2.1411-1.07576,4.26248-2.36985,6.4599-3.40579a29.54972,29.54972,0,0,1,7.4349-2.19134c4.44284-.81727,8.93355-1.37894,13.42117-1.88319,5.61074-.63045,11.23527-1.1373,16.86353-1.58239q9.00363-.712,18.02235-1.214,8.44439-.47675,16.89766-.778c4.49441-.15507,8.992-.27435,13.48943-.27435C182.04666,47.29643,245.628,51.28914,245.628,56.2144Z"/><g class="j"><path class="k" d="M225.40859,188.34458a4.23235,4.23235,0,0,1-4.13637-3.36033l.00085-65.07106a4.23151,4.23151,0,0,1-.09091-.8719V79.8603a4.23141,4.23141,0,1,1,8.46281,0v38.74049l-.09176,64.63966a4.23535,4.23535,0,0,1-4.14462,5.10413Z"/></g><g class="l"><path class="m" d="M90.00041,210.25063a4.6591,4.6591,0,0,1-5.81061-4.54055l.70409-107.72836a4.6546,4.6546,0,0,1,9.309.06116l-.7041,107.72837A4.65534,4.65534,0,0,1,90.00041,210.25063Z"/></g><circle class="n" cx="226.33975" cy="197.39903" r="4.23358"/><circle class="o" cx="226.33975" cy="124.21667" r="4.23358"/><circle class="p" cx="91.57233" cy="154.89365" r="13.58161" transform="translate(-41.90253 34.22056) rotate(-17.29227)"/><circle class="q" cx="91.39749" cy="204.67438" r="0.45269" transform="translate(-56.70755 36.41863) rotate(-17.29226)"/><circle class="r" cx="91.38388" cy="208.53981" r="0.45269" transform="translate(-57.85715 36.58929) rotate(-17.29226)"/><circle class="s" cx="91.39143" cy="206.39399" r="3.39545" transform="translate(-57.21897 36.49454) rotate(-17.29226)"/><line class="t" x1="91.53463" y1="165.62286" x2="91.38388" y2="208.53981"/><circle class="u" cx="91.53463" cy="165.62286" r="9.05434" transform="translate(-45.09345 34.6943) rotate(-17.29226)"/><circle class="v" cx="91.53463" cy="165.62286" r="4.52727" transform="translate(-45.09344 34.69429) rotate(-17.29226)"/><circle class="w" cx="91.53463" cy="165.62286" r="3.77273" transform="translate(-45.09344 34.69429) rotate(-17.29226)"/><polyline class="x" points="91.535 165.623 93.569 180.354 91.535 165.623 89.5 150.891 91.535 165.623 76.803 167.657 91.535 165.623 106.266 163.588 91.535 165.623 99.129 183.285 91.535 165.623 83.941 147.961 91.535 165.623 73.873 173.217 91.535 165.623 109.197 158.029 91.535 165.623 105.192 177.802 91.535 165.623 77.877 153.444 91.535 165.623 79.355 179.28 91.535 165.623 103.714 151.965 91.535 165.623 92.449 178.37 91.535 165.623 90.62 152.876 91.535 165.623 78.788 166.537 91.535 165.623 104.281 164.709 91.535 165.623 91.875 167.096 91.535 165.623 91.194 164.15 91.535 165.623 90.061 165.964 91.535 165.623 93.008 165.282 91.535 165.623 87.269 184.442 91.535 165.623 95.8 146.804 91.535 165.623 72.715 161.358 91.535 165.623 110.354 169.888 91.535 165.623 89.151 171.891 91.535 165.623 93.918 159.355 91.535 165.623 85.267 163.24 91.535 165.623 97.803 168.006 91.535 165.623 94.925 169.324 91.535 165.623 88.145 161.922 91.535 165.623 87.834 169.013 91.535 165.623 95.236 162.233 91.535 165.623 112.18 174.794 91.535 165.623 70.889 156.452 91.535 165.623 82.363 186.269 91.535 165.623 100.706 144.977 91.535 165.623 100.601 182.103 91.535 165.623 82.468 149.143 91.535 165.623 75.054 174.689 91.535 165.623 108.015 156.556 91.535 165.623 101.206 185.216 91.535 165.623 81.863 146.03 91.535 165.623 71.942 175.294 91.535 165.623 111.128 155.952 91.535 165.623 94.399 168.852 91.535 165.623 88.67 162.393 91.535 165.623 88.305 168.488 91.535 165.623 94.764 162.758 91.535 165.623 105.75 172.135 91.535 165.623 77.319 159.111 91.535 165.623 85.023 179.838 91.535 165.623 98.046 151.407 91.535 165.623 90.707 182.324 91.535 165.623 92.363 148.922 91.535 165.623 74.834 164.795 91.535 165.623 108.235 166.451 91.535 165.623 96.413 178.402 91.535 165.623 86.657 152.844 91.535 165.623 78.756 170.501 91.535 165.623 104.314 160.745"/><circle class="y" cx="91.38388" cy="208.53981" r="6.79091" transform="translate(-57.85715 36.58929) rotate(-17.29226)"/><circle class="z" cx="91.41308" cy="200.25225" r="1.93017"/><circle class="aa" cx="91.49162" cy="177.88157" r="1.0781" transform="translate(-48.73924 35.2356) rotate(-17.29226)"/><circle class="ab" cx="91.44369" cy="191.52926" r="0.71405" transform="translate(-52.79813 35.83821) rotate(-17.29226)"/><circle class="ac" cx="91.43607" cy="193.68873" r="1.00413" transform="translate(-53.44037 35.93355) rotate(-17.29226)"/><circle class="ad" cx="91.41446" cy="199.82991" r="1.86426" transform="translate(-55.26678 36.2047) rotate(-17.29226)"/><circle class="ae" cx="98.41515" cy="62.70216" r="6.99971"/><path class="b" d="M235.53181,255.07313V121.99453h0c0,4.74736-55.69483,8.59581-77.27169,8.59581s-77.29359-3.84845-77.29359-8.59581h0V255.07318c.07619,5.90272,2.7717,11.8329,8.94029,11.8329h136.6847C232.75991,266.90608,235.6048,260.85758,235.53181,255.07313Z"/><g class="af"><path class="ag" d="M162.87716,156.26561c-18.67792,1.50493-37.416,2.26908-56.09287,3.8-19.9941,1.63886-41.801,7.14928-57.53907,20.1983q-.22447.18612-.44662.375c-8.76135,7.42889-15.9763,17.98992-15.41066,29.46293.44337,8.99281,5.68342,17.23709,12.52839,23.08634s15.20215,9.61118,23.5767,12.91789c48.69347,19.22676,104.26913,25.27834,153.42829,7.27559,9.885-3.62,19.52717-8.23322,27.684-14.88789s14.78233-15.49629,17.51362-25.66283c2.8151-10.47851,1.31454-21.88724-3.2578-31.72684-4.33138-9.32105-11.14834-16.47991-13.97464-26.61155-.52426-1.87938-1.108-3.95817-2.75385-5.00613a7.51487,7.51487,0,0,0-3.74218-.85011c-21.64114-1.0035-42.5259,3.5073-63.88286,5.93934C174.6393,155.2439,168.76122,155.79151,162.87716,156.26561Z"/><path class="ah" d="M158.00749,196.16526c-18.41325,3.47587-36.96487,6.22152-55.37429,9.7231-19.70782,3.74853-40.80793,11.53894-55.0745,26.18234q-.20349.20886-.40436.42023c-7.92473,8.31554-13.97983,19.58172-12.2015,30.93017,1.39389,8.89519,7.47813,16.53772,14.90443,21.62863s16.13511,7.946,24.81293,10.34657c50.45684,13.95813,106.36086,14.08593,153.33532-9.02515,9.44573-4.64722,18.54468-10.25627,25.95034-17.7379s13.05684-16.9756,14.69534-27.37434c1.68877-10.71784-1.01239-21.90329-6.60174-31.20292-5.29481-8.80954-12.83205-15.20565-16.71614-24.98072-.72049-1.81324-1.52127-3.81845-3.26888-4.68609a7.51484,7.51484,0,0,0-3.8112-.44874c-21.62561,1.2956-41.91472,7.99429-62.89368,12.676C169.59512,193.9028,163.80817,195.07026,158.00749,196.16526Z"/></g><path class="ai" d="M235.53181,121.99452c0,4.74735-55.69476,8.59583-77.27164,8.59583s-77.29364-3.84848-77.29364-8.59583,55.71675-8.59582,77.29364-8.59582S235.53181,117.24718,235.53181,121.99452Z"/><g class="aj"><circle class="ak" cx="128.61984" cy="130.59035" r="14.91016"/><ellipse class="al" cx="127.5709" cy="122.37212" rx="9.96443" ry="6.00743" transform="translate(-8.90609 10.01866) rotate(-4.34581)"/><circle class="am" cx="136.55201" cy="123.10411" r="1.22104"/><circle class="an" cx="138.45964" cy="124.70762" r="0.4427"/><circle class="ao" cx="122.07499" cy="140.68513" r="0.4427"/><path class="ap" d="M116.75656,131.67873c-.1463,2.87815,1.58571,7.02963,4.34722,8.24794"/><circle class="aq" cx="135.33098" cy="138.69966" r="1.35526"/></g><g class="aj"><circle class="ar" cx="172.83801" cy="112.31353" r="8.42633"/><ellipse class="as" cx="172.24522" cy="107.66908" rx="5.6313" ry="3.39504" transform="translate(-7.66351 13.36163) rotate(-4.34581)"/><circle class="at" cx="177.32081" cy="108.08275" r="0.69006"/><circle class="au" cx="178.39888" cy="108.98896" r="0.25019"/><circle class="av" cx="169.13926" cy="118.0185" r="0.25019"/><path class="aw" d="M166.1336,112.92861c-.08268,1.62656.89615,3.97273,2.45679,4.66125"/><circle class="ax" cx="176.63075" cy="116.89643" r="0.76591"/></g><g class="aj"><circle class="ay" cx="154.98276" cy="93.33985" r="4.48279"/><ellipse class="az" cx="154.66739" cy="90.86901" rx="2.99584" ry="1.80616" transform="translate(-6.44101 11.98135) rotate(-4.34581)"/><circle class="ba" cx="157.3676" cy="91.08908" r="0.36711"/><circle class="bb" cx="157.94113" cy="91.57118" r="0.1331"/><circle class="bc" cx="153.01503" cy="96.37488" r="0.1331"/><path class="bd" d="M151.416,93.66707a2.79181,2.79181,0,0,0,1.307,2.47978"/><circle class="be" cx="157.00049" cy="95.77794" r="0.40746"/></g><g class="bf"><circle class="bg" cx="200.38913" cy="164.49202" r="9.8398"/><ellipse class="bh" cx="199.69689" cy="159.06849" rx="6.57592" ry="3.96454" transform="translate(-11.47943 15.58959) rotate(-4.34581)"/><circle class="bi" cx="205.62389" cy="159.55155" r="0.80581"/><circle class="bj" cx="206.88281" cy="160.60977" r="0.29216"/><circle class="bk" cx="196.06993" cy="171.15397" r="0.29216"/><path class="bl" d="M192.56008,165.21028c-.09655,1.89941,1.04647,4.63914,2.86891,5.44315"/><circle class="bm" cx="204.81808" cy="169.84368" r="0.89439"/></g><g class="bf"><circle class="bn" cx="183.44493" cy="184.93134" r="5.23476"/><ellipse class="bo" cx="183.07666" cy="182.04603" rx="3.49838" ry="2.10913" transform="translate(-13.26836 14.39624) rotate(-4.34581)"/><circle class="bp" cx="186.22981" cy="182.30302" r="0.42869"/><circle class="bq" cx="186.89955" cy="182.86599" r="0.15543"/><circle class="br" cx="181.14712" cy="188.47548" r="0.15543"/><path class="bs" d="M179.27989,185.31345a3.26012,3.26012,0,0,0,1.52625,2.89575"/><circle class="bt" cx="185.80112" cy="187.77841" r="0.47582"/></g><polygon class="bu" points="252.287 214.109 56.725 214.109 41.548 293.266 237.11 293.266 252.287 214.109"/><polygon class="bv" points="252.287 214.109 258.91 284.079 256.301 286.124 241.311 286.285 240.202 290.841 237.11 293.266 252.287 214.109"/><path class="bw" d="M115.87586,231.80533a3.23612,3.23612,0,0,1,1.17968-1.53125,3.09543,3.09543,0,0,1,1.85645-.67089,1.62055,1.62055,0,0,1,1.6123.7666,2.2428,2.2428,0,0,1,.0918,1.96093L110.15222,260.7653a3.26458,3.26458,0,0,1-1.374,1.62792,2.8548,2.8548,0,0,1-1.92676.57422,1.60523,1.60523,0,0,1-1.38769-.88574,2.07233,2.07233,0,0,1-.08887-1.79492Z"/><path class="bw" d="M126.72546,231.15885a3.15819,3.15819,0,0,1,2.62207-1.55566,1.79777,1.79777,0,0,1,1.876,1.02832,2.38576,2.38576,0,0,1-.40723,2.39453,62.65759,62.65759,0,0,0-6.40332,14.12109,3.245,3.245,0,0,1-1.28418,1.65137,2.85342,2.85342,0,0,1-1.94628.64551,1.67334,1.67334,0,0,1-1.4834-.88477,2.1117,2.1117,0,0,1-.14356-1.77148A68.00892,68.00892,0,0,1,126.72546,231.15885Z"/><path class="bw" d="M136.121,230.22526a58.53453,58.53453,0,0,1,3.58692-6.36719,3.04742,3.04742,0,0,1,2.62988-1.57813,1.67651,1.67651,0,0,1,1.88379,1.041,2.54042,2.54042,0,0,1-.375,2.4043q-1.20851,1.81934-2.3291,3.92578l8.34179-.04785a1.42918,1.42918,0,0,1,.37207-.04786.77257.77257,0,0,1,.46582.04786,1.59536,1.59536,0,0,1,1.85157,1.65136,2.86446,2.86446,0,0,1-1.51075,2.752,66.19591,66.19591,0,0,0-5.75488,13.14062,3.44844,3.44844,0,0,1-1.3291,1.6875,2.97114,2.97114,0,0,1-1.95508.63379,1.68064,1.68064,0,0,1-1.42285-.88574,2.1526,2.1526,0,0,1-.14941-1.79492,78.99316,78.99316,0,0,1,5.05957-12.25391l-8.93555.11914a1.69319,1.69319,0,0,1-1.96387-1.67578A2.916,2.916,0,0,1,136.121,230.22526Z"/><path class="bw" d="M158.13269,231.39811a3.43672,3.43672,0,0,1,1.27637-1.26856,3.90041,3.90041,0,0,1,1.58984-.47851,1.93734,1.93734,0,0,1,2.00488,1.17285,2.55445,2.55445,0,0,1-.39843,2.53711,43.2069,43.2069,0,0,0-3.7461,6.77344,3.62933,3.62933,0,0,1-1.59082,1.72363,3.27382,3.27382,0,0,1-2.09277.47851,1.91843,1.91843,0,0,1-1.40527-1.17382,2.42164,2.42164,0,0,1,.06445-2.00977A57.278,57.278,0,0,1,158.13269,231.39811Z"/><path class="bw" d="M169.02625,237.14322a30.55073,30.55073,0,0,1-1.02832-4.166,2.4699,2.4699,0,0,1,.7998-2.25,2.83761,2.83761,0,0,1,2.21875-1.124,1.57185,1.57185,0,0,1,1.85547,1.46,24.20822,24.20822,0,0,0,2.28125,6.96484,20.02147,20.02147,0,0,0,5.4873-6.48633,3.84321,3.84321,0,0,1,1.26758-1.41211,2.65089,2.65089,0,0,1,1.60254-.52636,1.68845,1.68845,0,0,1,1.63281.8623,2.112,2.112,0,0,1-.06445,2.00977q-2.04931,4.30811-7.64551,9.07129a43.14087,43.14087,0,0,0,3.00293,3.23046,1.722,1.722,0,0,1,.51953,1.53223,2.92941,2.92941,0,0,1-.92187,1.81836,3.23338,3.23338,0,0,1-1.833.93359,2.10765,2.10765,0,0,1-1.64746-.4541,28.31143,28.31143,0,0,1-5.69629-7.34863q-3.27539,3.35155-3.94922,5.84082a3.0524,3.0524,0,0,1-1.16406,1.65137,3.1011,3.1011,0,0,1-1.86328.69336,1.854,1.854,0,0,1-1.52246-.74121,1.93978,1.93978,0,0,1-.22266-1.65137Q163.39246,242.57486,169.02625,237.14322Z"/><path class="bw" d="M98.44617,273.4069a3.667,3.667,0,0,1,1.209-1.55469,3.07385,3.07385,0,0,1,1.83789-.69531,1.77754,1.77754,0,0,1,1.63672.83886,2.09988,2.09988,0,0,1,.06738,1.96192l-7.09961,19.00293a3.46184,3.46184,0,0,1-1.373,1.62793,2.98575,2.98575,0,0,1-1.97949.59863,1.89439,1.89439,0,0,1-1.374-.93457,2.14166,2.14166,0,0,1-.082-1.81836Zm2.34765-11.08106a3.26128,3.26128,0,0,1,1.917-.71777l12.81933-.14453a1.73087,1.73087,0,0,1,1.7666,1.07812,2.35028,2.35028,0,0,1-.35742,2.29688,62.45167,62.45167,0,0,0-6.42578,14.12109,3.09482,3.09482,0,0,1-1.28418,1.65137,2.92933,2.92933,0,0,1-1.99414.64648,1.75819,1.75819,0,0,1-1.42578-.83789,2.14153,2.14153,0,0,1-.167-1.77051,79.59779,79.59779,0,0,1,5.11914-12.207l-9.28223.07227a1.84734,1.84734,0,0,1-1.63086-.69434,2.09006,2.09006,0,0,1-.31055-1.77051A3.34566,3.34566,0,0,1,100.79382,262.32584Z"/><path class="bw" d="M120.60535,265.2692a2.63349,2.63349,0,0,1,.67285-2.48926,3.29667,3.29667,0,0,1,2.50781-1.2207l12.75879-.0957a1.71655,1.71655,0,0,1,1.76465.91015,2.4679,2.4679,0,0,1-.21973,2.22657,1.73246,1.73246,0,0,1-.2373.52539l-8.35938,14.457a3.43919,3.43919,0,0,1-1.27051,1.24414,3.07823,3.07823,0,0,1-1.58984.47851h-6.24707a1.96409,1.96409,0,0,1-1.47656-.64648,1.82806,1.82806,0,0,1-.36914-1.55566l2.00683-13.61817C120.56824,265.40494,120.58777,265.33365,120.60535,265.2692Zm3.334,11.12988h2.20117l5.83985-10.0039-6.56641.11914Z"/><path class="bw" d="M144.15125,269.00358a30.53784,30.53784,0,0,1-1.02832-4.165,2.47235,2.47235,0,0,1,.7998-2.25,2.84012,2.84012,0,0,1,2.21875-1.125,1.572,1.572,0,0,1,1.85547,1.46093,24.21809,24.21809,0,0,0,2.28125,6.96485,20.02646,20.02646,0,0,0,5.48828-6.48633,3.81847,3.81847,0,0,1,1.26758-1.41211,2.64942,2.64942,0,0,1,1.60156-.52734,1.69,1.69,0,0,1,1.63379.8623,2.11689,2.11689,0,0,1-.06543,2.01074q-2.04931,4.30665-7.64551,9.07032a43.15794,43.15794,0,0,0,3.00293,3.23047,1.72217,1.72217,0,0,1,.51953,1.5332,2.927,2.927,0,0,1-.92187,1.81836,3.23934,3.23934,0,0,1-1.833.93359,2.11029,2.11029,0,0,1-1.64746-.45508,28.29808,28.29808,0,0,1-5.69531-7.34765q-3.27686,3.35155-3.94922,5.83984A3.05067,3.05067,0,0,1,140.87,280.611a3.10117,3.10117,0,0,1-1.86426.69433,1.85309,1.85309,0,0,1-1.52149-.74218,1.93891,1.93891,0,0,1-.22363-1.65137Q138.51746,274.43668,144.15125,269.00358Z"/><path class="bw" d="M159.89441,277.78776a66.10152,66.10152,0,0,1,6.10937-7.373,30.8799,30.8799,0,0,0-.0957-5.57617,2.57233,2.57233,0,0,1,.8125-2.29688,3.28185,3.28185,0,0,1,2.34961-1.07812,1.65063,1.65063,0,0,1,1.87793,1.55664,25.75535,25.75535,0,0,1,.16309,2.84765,26.77345,26.77345,0,0,1,7.93457-4.11718c.13574-.03125.27148-.0625.4082-.09571a8.53482,8.53482,0,0,1,1.67871-.1914h.335a7.098,7.098,0,0,1,1.14746.0957,2.91082,2.91082,0,0,1,2.31934,1.60352q.75439,1.72411-.80469,5.09863-3.832,8.42431-4.0332,10.05176a3.29563,3.29563,0,0,1-1.16406,1.915,3.00133,3.00133,0,0,1-2.02149.83789H173.8241c-.00879.03222-.06153.04785-.15821.04785l-.17968.04785h-4.02149a1.65374,1.65374,0,0,1-1.51172-.69434,1.89916,1.89916,0,0,1-.30957-1.77148,3.12443,3.12443,0,0,1,1.23535-1.65039,2.941,2.941,0,0,1,1.91309-.79H174.286a.187.187,0,0,0,.10938-.04785h1.26855q.22413-.74121,3.91895-8.832a4.99413,4.99413,0,0,0,.36035-.98047,6.41034,6.41034,0,0,0-.75391.04687q-7.62744,2.53712-15.29492,13.28321a3.48672,3.48672,0,0,1-1.77734,1.43652,2.31258,2.31258,0,0,1-1.90137-.04785,1.65732,1.65732,0,0,1-.92774-1.43555A2.7825,2.7825,0,0,1,159.89441,277.78776Zm14.542,3.13476q.06006-.04687.45606-.35937a4.0114,4.0114,0,0,1-.59961.35937Q174.50964,280.82732,174.4364,280.92252Z"/></g></svg>