<svg xmlns="http://www.w3.org/2000/svg" xmlns:xlink="http://www.w3.org/1999/xlink" viewBox="0 0 303.95444 341.11501"><defs><style>.a,.d{opacity:0.72;}.a{fill:url(#a);}.ag,.b,.l{opacity:0.8;}.b{fill:url(#b);}.c{isolation:isolate;}.d{fill:url(#c);}.e{fill:#683c11;fill-opacity:0.51;}.f,.h{mix-blend-mode:multiply;}.f{fill:url(#d);}.g{clip-path:url(#f);}.h{fill:url(#g);}.i{opacity:0.42;fill:url(#h);}.j{opacity:0.54;}.k{fill:url(#i);}.bd,.l{mix-blend-mode:hard-light;}.m{fill:url(#j);}.n,.u,.x{opacity:0.5;}.n{fill:url(#k);}.o{opacity:0.25;fill:url(#l);}.aa,.ab,.ac,.o,.p,.q,.r,.t,.u,.v,.w,.x,.y,.z{mix-blend-mode:screen;}.p{fill:url(#m);}.q{fill:url(#n);}.r{opacity:0.2;fill:url(#o);}.an,.au,.bb,.bj,.bq,.s,.w{fill:none;}.t{opacity:0.15;fill:url(#p);}.u{fill:url(#q);}.v{fill:url(#r);}.w{stroke:#fff;stroke-width:1.69256px;opacity:0.03;}.ag,.w{stroke-miterlimit:10;}.x{fill:url(#s);}.y{fill:url(#t);}.z{fill:url(#u);}.aa{fill:url(#v);}.ab{fill:url(#w);}.ac{fill:url(#x);}.ad{clip-path:url(#z);}.ae,.af,.ah{opacity:0.3;}.ae{fill:url(#aa);}.af{fill:url(#ab);}.ag,.an{stroke-width:0.84628px;}.ag{fill:url(#ac);stroke:url(#ad);}.ai{fill:url(#ae);}.aj,.am,.an,.aq,.at,.au,.ax,.ba,.bb,.bf,.bi,.bj,.bm,.bp,.bq{mix-blend-mode:soft-light;}.aj{fill:url(#af);}.ak{fill:url(#ag);}.al{fill:url(#ah);}.am{fill:url(#ai);}.an,.au,.bb,.bj,.bq{stroke-linecap:round;stroke-linejoin:round;}.an{stroke:url(#aj);}.ao{fill:url(#ak);}.ap{fill:url(#al);}.aq{fill:url(#am);}.ar{fill:url(#an);}.as{fill:url(#ao);}.at{fill:url(#ap);}.au{stroke-width:0.47827px;stroke:url(#aq);}.av{fill:url(#ar);}.aw{fill:url(#as);}.ax{fill:url(#at);}.ay{fill:url(#au);}.az{fill:url(#av);}.ba{fill:url(#aw);}.bb{stroke-width:0.25444px;stroke:url(#ax);}.bc{fill:url(#ay);}.bd{opacity:0.2;}.be{fill:url(#az);}.bf{fill:url(#ba);}.bg{fill:url(#bb);}.bh{fill:url(#bc);}.bi{fill:url(#bd);}.bj{stroke-width:0.55849px;stroke:url(#be);}.bk{fill:url(#bf);}.bl{fill:url(#bg);}.bm{fill:url(#bh);}.bn{fill:url(#bi);}.bo{fill:url(#bj);}.bp{fill:url(#bk);}.bq{stroke-width:0.29712px;stroke:url(#bl);}.br{fill:url(#bm);}.bs{fill:#fff;}.bt{fill:#c6c6c6;}.bu{fill:#3c3c3b;}</style><linearGradient id="a" x1="100.33332" y1="165.56347" x2="194.71391" y2="165.56347" gradientUnits="userSpaceOnUse"><stop offset="0" stop-color="#f5fbff"/><stop offset="0.62567" stop-color="#e9f1f5"/><stop offset="1" stop-color="#c5d9e0"/></linearGradient><linearGradient id="b" x1="214.39765" y1="270.68209" x2="96.29753" y2="114.15705" gradientUnits="userSpaceOnUse"><stop offset="0" stop-color="#bb6a07"/><stop offset="1" stop-color="#f09839"/></linearGradient><linearGradient id="c" x1="148.78108" y1="38.3778" x2="148.78108" y2="64.94849" xlink:href="#a"/><linearGradient id="d" x1="166.62783" y1="61.71976" x2="144.33026" y2="243.33184" gradientUnits="userSpaceOnUse"><stop offset="0" stop-color="#bfc4c7"/><stop offset="1" stop-color="#b1c3c9"/></linearGradient><clipPath id="f"><path class="a" d="M241.78256,260.32927V56.21441c0,4.92526-63.58119,8.918-87.37871,8.918q-1.79722,0-3.59431-.02924c-4.7989-.07261-9.59629-.249-14.3905-.4687q-8.5144-.3902-17.01852-.97514-8.76555-.597-17.51591-1.397c-5.3029-.49123-10.60164-1.04461-15.88269-1.73435-3.878-.50649-7.72018-1.49-11.65365-1.44118-3.95531.04913-7.6323,1.67156-11.44575,2.505q-.47636.10416-.95438.20048a19.75524,19.75524,0,0,1-3.84674.58949q-.67953.07353-1.36171.11872c-.22315.015-.86315-.06053-1.01578.13972-.13736.18024.24047.6185.36578.75686a5.19749,5.19749,0,0,0,.75974.60652c.32625.24652.66943.46711,1.00292.70321l3.44455,2.439,5.5635,3.93934.16454.1165V260.32927a11.53455,11.53455,0,0,0,11.12438,14.58326H230.65819A11.53454,11.53454,0,0,0,241.78256,260.32927Z"/></clipPath><linearGradient id="g" x1="115.74731" y1="163.94125" x2="166.92448" y2="296.11187" gradientUnits="userSpaceOnUse"><stop offset="0" stop-color="#f5f5f5"/><stop offset="1" stop-color="#c3d1d6"/></linearGradient><linearGradient id="h" x1="94.30625" y1="207.6583" x2="208.40453" y2="207.6583" xlink:href="#b"/><radialGradient id="i" cx="214.62118" cy="128.1371" r="64.69946" gradientTransform="translate(228.36041 -86.55818) rotate(89.70298) scale(1 0.11591)" gradientUnits="userSpaceOnUse"><stop offset="0" stop-color="#e6f3ff"/><stop offset="1" stop-color="#b9cbf0" stop-opacity="0"/></radialGradient><radialGradient id="j" cx="-1481.39216" cy="-1082.46686" r="54.27899" gradientTransform="matrix(0.00636, -0.99998, 0.15751, 0.001, 265.26335, -1328.40188)" xlink:href="#i"/><radialGradient id="k" cx="215.58939" cy="197.4173" r="3.82592" gradientTransform="matrix(1, 0, 0, 1, 0, 0)" xlink:href="#i"/><radialGradient id="l" cx="-1768.94485" cy="-1377.25971" r="13.58164" gradientTransform="translate(1856.67172 1532.15345)" gradientUnits="userSpaceOnUse"><stop offset="0.1"/><stop offset="0.11244" stop-color="#080602"/><stop offset="0.16172" stop-color="#231b08"/><stop offset="0.21838" stop-color="#392c0d"/><stop offset="0.28458" stop-color="#4a3910"/><stop offset="0.36644" stop-color="#554213"/><stop offset="0.48125" stop-color="#5c4815"/><stop offset="0.8" stop-color="#5e4915"/><stop offset="1"/></radialGradient><radialGradient id="m" cx="-1783.90889" cy="-1329.78099" r="0.45271" gradientTransform="translate(1871.46095 1534.45545)" gradientUnits="userSpaceOnUse"><stop offset="0" stop-color="#d4e194"/><stop offset="0.05952" stop-color="#afba7a"/><stop offset="0.13651" stop-color="#868f5e"/><stop offset="0.21955" stop-color="#626845"/><stop offset="0.30759" stop-color="#44482f"/><stop offset="0.40211" stop-color="#2b2e1e"/><stop offset="0.50556" stop-color="#181911"/><stop offset="0.62249" stop-color="#0a0b07"/><stop offset="0.76429" stop-color="#020302"/><stop offset="1"/></radialGradient><radialGradient id="n" cx="-1785.07088" cy="-1326.09432" r="0.45271" gradientTransform="translate(1872.60932 1534.63421)" xlink:href="#m"/><radialGradient id="o" cx="-1784.42584" cy="-1328.14091" r="3.39543" gradientTransform="translate(1871.97191 1534.53485)" gradientUnits="userSpaceOnUse"><stop offset="0.05"/><stop offset="0.09242" stop-color="#040a03"/><stop offset="0.29802" stop-color="#183411"/><stop offset="0.48337" stop-color="#25531c"/><stop offset="0.64031" stop-color="#2e6622"/><stop offset="0.75" stop-color="#316d24"/><stop offset="0.78593" stop-color="#4f6e16"/><stop offset="0.83397" stop-color="#716f06"/><stop offset="0.86" stop-color="#7e6f00"/><stop offset="0.88764" stop-color="#7a6c00"/><stop offset="0.91229" stop-color="#706200"/><stop offset="0.93581" stop-color="#5d5200"/><stop offset="0.95863" stop-color="#443c00"/><stop offset="0.98074" stop-color="#231f00"/><stop offset="1"/></radialGradient><radialGradient id="p" cx="-1772.17005" cy="-1367.02665" r="9.05439" gradientTransform="translate(1859.85929 1532.64953)" gradientUnits="userSpaceOnUse"><stop offset="0" stop-color="#200"/><stop offset="0.73" stop-color="#984023"/><stop offset="1" stop-color="#200"/></radialGradient><radialGradient id="q" cx="-1772.17005" cy="-1367.02665" r="4.52725" gradientTransform="translate(1859.85939 1532.64939)" gradientUnits="userSpaceOnUse"><stop offset="0.15" stop-color="#fff"/><stop offset="0.20939" stop-color="#e5d3d3"/><stop offset="0.29044" stop-color="#c49c9e"/><stop offset="0.36051" stop-color="#ad7477"/><stop offset="0.41599" stop-color="#9e5c5f"/><stop offset="0.45" stop-color="#995356"/><stop offset="0.57175" stop-color="#6b3335"/><stop offset="0.69355" stop-color="#431718"/><stop offset="0.79053" stop-color="#2b0606"/><stop offset="0.85" stop-color="#200"/><stop offset="0.85727" stop-color="#260201"/><stop offset="0.8648" stop-color="#330704"/><stop offset="0.87246" stop-color="#471009"/><stop offset="0.8802" stop-color="#641d0f"/><stop offset="0.88801" stop-color="#8a2e18"/><stop offset="0.89577" stop-color="#b74223"/><stop offset="0.9" stop-color="#d34e29"/><stop offset="0.90254" stop-color="#c84927"/><stop offset="0.91417" stop-color="#9c361c"/><stop offset="0.92635" stop-color="#772514"/><stop offset="0.93893" stop-color="#58180c"/><stop offset="0.95205" stop-color="#400d07"/><stop offset="0.96594" stop-color="#2f0603"/><stop offset="0.98111" stop-color="#250101"/><stop offset="1" stop-color="#200"/></radialGradient><radialGradient id="r" cx="-1772.17005" cy="-1367.02665" r="3.7727" gradientTransform="translate(1859.85938 1532.6494)" gradientUnits="userSpaceOnUse"><stop offset="0.15" stop-color="#fff"/><stop offset="0.28237" stop-color="#c2c2c2"/><stop offset="0.42528" stop-color="#888"/><stop offset="0.5636" stop-color="#575757"/><stop offset="0.69361" stop-color="#313131"/><stop offset="0.81336" stop-color="#161616"/><stop offset="0.91921" stop-color="#060606"/><stop offset="1"/></radialGradient><radialGradient id="s" cx="-1785.07088" cy="-1326.09432" r="6.79086" gradientTransform="translate(1872.60936 1534.63414)" gradientUnits="userSpaceOnUse"><stop offset="0.64"/><stop offset="0.71799" stop-color="#000200"/><stop offset="0.74608" stop-color="#020902"/><stop offset="0.76609" stop-color="#051405"/><stop offset="0.78228" stop-color="#082509"/><stop offset="0.79598" stop-color="#0d3b0e"/><stop offset="0.8" stop-color="#0f4310"/><stop offset="0.8131" stop-color="#1e2c0a"/><stop offset="0.82975" stop-color="#2d1605"/><stop offset="0.84569" stop-color="#360901"/><stop offset="0.86" stop-color="#390400"/><stop offset="0.8715" stop-color="#250300"/><stop offset="0.88602" stop-color="#140100"/><stop offset="0.90412" stop-color="#090100"/><stop offset="0.92951" stop-color="#020000"/><stop offset="1"/></radialGradient><radialGradient id="t" cx="-1782.57956" cy="-1333.9986" r="1.93017" gradientTransform="translate(2186.10202 944.09084) rotate(-17.29226)" gradientUnits="userSpaceOnUse"><stop offset="0.1"/><stop offset="0.24639" stop-color="#1b1103"/><stop offset="0.42619" stop-color="#362207"/><stop offset="0.61009" stop-color="#492e09"/><stop offset="0.79889" stop-color="#54350b"/><stop offset="1" stop-color="#58370b"/></radialGradient><radialGradient id="u" cx="-1775.85497" cy="-1355.33481" r="1.07807" gradientTransform="translate(1863.50118 1533.21641)" gradientUnits="userSpaceOnUse"><stop offset="0.1" stop-color="#192f1b"/><stop offset="0.2285" stop-color="#122214"/><stop offset="0.47516" stop-color="#080f09"/><stop offset="0.72928" stop-color="#020402"/><stop offset="1"/></radialGradient><radialGradient id="v" cx="-1779.95745" cy="-1342.31823" r="0.714" gradientTransform="translate(1867.55573 1533.84752)" xlink:href="#t"/><radialGradient id="w" cx="-1780.60662" cy="-1340.25862" r="1.00408" gradientTransform="translate(1868.19728 1533.9474)" gradientUnits="userSpaceOnUse"><stop offset="0.1"/><stop offset="0.29001" stop-color="#14160e"/><stop offset="0.51699" stop-color="#25291a"/><stop offset="0.75084" stop-color="#303422"/><stop offset="1" stop-color="#333824"/></radialGradient><radialGradient id="x" cx="-1782.4527" cy="-1334.40145" r="1.86428" gradientTransform="translate(1870.02182 1534.2313)" xlink:href="#u"/><clipPath id="z"><path class="b" d="M231.68643,255.07313V121.99453h0c0,4.74736-55.69483,8.59581-77.27169,8.59581s-77.29359-3.84845-77.29359-8.59581h0V255.07318c.07618,5.90272,2.7717,11.8329,8.94029,11.8329h136.6847C228.91453,266.90608,231.75942,260.85758,231.68643,255.07313Z"/></clipPath><linearGradient id="aa" x1="311.06152" y1="217.33703" x2="64.0274" y2="194.35711" xlink:href="#b"/><linearGradient id="ab" x1="30.79533" y1="242.44061" x2="265.30431" y2="242.44061" xlink:href="#b"/><linearGradient id="ac" x1="291.65664" y1="121.99452" x2="108.51046" y2="121.99452" xlink:href="#b"/><linearGradient id="ad" x1="76.69801" y1="121.99452" x2="232.10957" y2="121.99452" gradientUnits="userSpaceOnUse"><stop offset="0" stop-color="#ff9a26"/><stop offset="1" stop-color="#f09839"/></linearGradient><radialGradient id="ae" cx="124.77445" cy="130.59035" r="14.16583" gradientTransform="matrix(0.2537, -0.96728, 0.95587, 0.2507, -31.7083, 218.54303)" gradientUnits="userSpaceOnUse"><stop offset="0" stop-color="#c78035" stop-opacity="0.8"/><stop offset="0.29921" stop-color="#ca8339" stop-opacity="0.80046"/><stop offset="0.52418" stop-color="#d28d44" stop-opacity="0.80193"/><stop offset="0.72493" stop-color="#e09d58" stop-opacity="0.8044"/><stop offset="0.91041" stop-color="#f3b474" stop-opacity="0.80787"/><stop offset="1" stop-color="#ffc285" stop-opacity="0.81"/></radialGradient><radialGradient id="af" cx="789.57432" cy="328.41154" r="9.1779" gradientTransform="translate(-858.62447 -130.85804) scale(1.24415 0.77108)" gradientUnits="userSpaceOnUse"><stop offset="0" stop-color="#ebad52"/><stop offset="0.37881" stop-color="#ebad52" stop-opacity="0.99203"/><stop offset="0.51527" stop-color="#eaad53" stop-opacity="0.96313"/><stop offset="0.61253" stop-color="#eaad55" stop-opacity="0.91281"/><stop offset="0.69121" stop-color="#e9ad57" stop-opacity="0.8409"/><stop offset="0.75863" stop-color="#e7ae5a" stop-opacity="0.74715"/><stop offset="0.81834" stop-color="#e5ae5e" stop-opacity="0.63133"/><stop offset="0.87231" stop-color="#e3ae62" stop-opacity="0.49335"/><stop offset="0.92196" stop-color="#e1ae67" stop-opacity="0.33264"/><stop offset="0.96609" stop-color="#deaf6d" stop-opacity="0.15775"/><stop offset="1" stop-color="#dcaf72" stop-opacity="0"/></radialGradient><radialGradient id="ag" cx="132.70663" cy="123.10411" r="1.16008" gradientTransform="matrix(0.2537, -0.96728, 0.95587, 0.2507, -18.6326, 220.60629)" gradientUnits="userSpaceOnUse"><stop offset="0" stop-color="#ebdac1"/><stop offset="0.37881" stop-color="#ebdac0" stop-opacity="0.99203"/><stop offset="0.51527" stop-color="#ead8be" stop-opacity="0.96313"/><stop offset="0.61253" stop-color="#ead6ba" stop-opacity="0.91281"/><stop offset="0.69121" stop-color="#e9d3b4" stop-opacity="0.8409"/><stop offset="0.75863" stop-color="#e7cfad" stop-opacity="0.74715"/><stop offset="0.81834" stop-color="#e5caa4" stop-opacity="0.63133"/><stop offset="0.87231" stop-color="#e3c499" stop-opacity="0.49335"/><stop offset="0.92196" stop-color="#e1bd8c" stop-opacity="0.33264"/><stop offset="0.96609" stop-color="#deb67e" stop-opacity="0.15775"/><stop offset="1" stop-color="#dcaf72" stop-opacity="0"/></radialGradient><radialGradient id="ah" cx="134.61426" cy="124.70762" r="0.4206" gradientTransform="matrix(0.2537, -0.96728, 0.95587, 0.2507, -18.74169, 223.65301)" gradientUnits="userSpaceOnUse"><stop offset="0" stop-color="#ebdac1"/><stop offset="0.22496" stop-color="#ebdac0" stop-opacity="0.98901"/><stop offset="0.3644" stop-color="#ead8bd" stop-opacity="0.95275"/><stop offset="0.48062" stop-color="#e9d5b8" stop-opacity="0.89088"/><stop offset="0.58411" stop-color="#e8d2b1" stop-opacity="0.80322"/><stop offset="0.67914" stop-color="#e6cda8" stop-opacity="0.68961"/><stop offset="0.7679" stop-color="#e4c79d" stop-opacity="0.55"/><stop offset="0.85188" stop-color="#e2c090" stop-opacity="0.38414"/><stop offset="0.92991" stop-color="#dfb782" stop-opacity="0.19725"/><stop offset="1" stop-color="#dcaf72" stop-opacity="0"/></radialGradient><radialGradient id="ai" cx="118.22961" cy="140.68513" r="0.4206" gradientTransform="matrix(0.2537, -0.96728, 0.95587, 0.2507, -46.24207, 219.77629)" xlink:href="#ah"/><radialGradient id="aj" cx="115.08049" cy="135.8027" r="3.70417" gradientTransform="matrix(1, 0, 0, 1, 0, 0)" xlink:href="#ag"/><radialGradient id="ak" cx="131.48559" cy="138.69966" r="1.68884" gradientTransform="translate(0 20.14894) scale(1 0.85473)" gradientUnits="userSpaceOnUse"><stop offset="0" stop-color="#ebad52"/><stop offset="0.09168" stop-color="#ebad53" stop-opacity="0.96822"/><stop offset="0.22975" stop-color="#e9ad56" stop-opacity="0.88033"/><stop offset="0.39704" stop-color="#e7ae5a" stop-opacity="0.73641"/><stop offset="0.58721" stop-color="#e4ae61" stop-opacity="0.53628"/><stop offset="0.79369" stop-color="#e0ae69" stop-opacity="0.2836"/><stop offset="1" stop-color="#dcaf72" stop-opacity="0"/></radialGradient><radialGradient id="al" cx="168.99263" cy="112.31353" r="8.00568" gradientTransform="matrix(0.2537, -0.96728, 0.95587, 0.2507, 18.76216, 247.61982)" xlink:href="#ae"/><radialGradient id="am" cx="826.27405" cy="315.91273" r="5.1868" gradientTransform="translate(-859.61016 -135.92356) scale(1.24415 0.77108)" xlink:href="#af"/><radialGradient id="an" cx="173.47542" cy="108.08275" r="0.65561" gradientTransform="matrix(0.2537, -0.96728, 0.95587, 0.2507, 26.15177, 248.78585)" xlink:href="#ag"/><radialGradient id="ao" cx="174.5535" cy="108.98896" r="0.2377" gradientTransform="matrix(0.2537, -0.96728, 0.95587, 0.2507, 26.09012, 250.50767)" xlink:href="#ah"/><radialGradient id="ap" cx="165.29387" cy="118.0185" r="0.2377" gradientTransform="matrix(0.2537, -0.96728, 0.95587, 0.2507, 10.54854, 248.31678)" xlink:href="#ah"/><radialGradient id="aq" cx="163.51418" cy="115.25924" r="2.09337" gradientTransform="matrix(1, 0, 0, 1, 0, 0)" xlink:href="#ag"/><radialGradient id="ar" cx="172.78537" cy="116.89643" r="0.95443" gradientTransform="translate(0 16.98157) scale(1 0.85473)" xlink:href="#ak"/><radialGradient id="as" cx="151.13737" cy="93.33985" r="4.25901" gradientTransform="matrix(0.2537, -0.96728, 0.95587, 0.2507, 23.57317, 216.13183)" xlink:href="#ae"/><radialGradient id="at" cx="813.20952" cy="295.86707" r="2.75937" gradientTransform="translate(-860.93374 -137.26691) scale(1.24415 0.77108)" xlink:href="#af"/><radialGradient id="au" cx="153.52221" cy="91.08908" r="0.34878" gradientTransform="matrix(0.2537, -0.96728, 0.95587, 0.2507, 27.50443, 216.75215)" xlink:href="#ag"/><radialGradient id="av" cx="154.09575" cy="91.57118" r="0.12646" gradientTransform="matrix(0.2537, -0.96728, 0.95587, 0.2507, 27.47163, 217.66816)" xlink:href="#ah"/><radialGradient id="aw" cx="149.16964" cy="96.37488" r="0.12646" gradientTransform="matrix(0.2537, -0.96728, 0.95587, 0.2507, 19.20354, 216.50261)" xlink:href="#ah"/><radialGradient id="ax" cx="148.22285" cy="94.90696" r="1.11367" gradientTransform="matrix(1, 0, 0, 1, 0, 0)" xlink:href="#ag"/><radialGradient id="ay" cx="153.1551" cy="95.77794" r="0.50776" gradientTransform="translate(0 13.91369) scale(1 0.85473)" xlink:href="#ak"/><radialGradient id="az" cx="196.54375" cy="164.49202" r="9.34859" gradientTransform="matrix(0.2537, -0.96728, 0.95587, 0.2507, -10.55239, 313.36666)" xlink:href="#ae"/><radialGradient id="ba" cx="845.14466" cy="375.0305" r="6.05686" gradientTransform="translate(-855.63639 -130.10843) scale(1.24415 0.77108)" xlink:href="#af"/><radialGradient id="bb" cx="201.77851" cy="159.55155" r="0.76558" gradientTransform="matrix(0.2537, -0.96728, 0.95587, 0.2507, -1.92321, 314.72829)" xlink:href="#ag"/><radialGradient id="bc" cx="203.03742" cy="160.60977" r="0.27757" gradientTransform="matrix(0.2537, -0.96728, 0.95587, 0.2507, -1.9952, 316.73894)" xlink:href="#ah"/><radialGradient id="bd" cx="192.22454" cy="171.15397" r="0.27757" gradientTransform="matrix(0.2537, -0.96728, 0.95587, 0.2507, -20.1438, 314.18053)" xlink:href="#ah"/><radialGradient id="be" cx="190.14631" cy="167.93186" r="2.44453" gradientTransform="matrix(1, 0, 0, 1, 0, 0)" xlink:href="#ag"/><radialGradient id="bf" cx="200.97269" cy="169.84368" r="1.11454" gradientTransform="translate(0 24.67324) scale(1 0.85473)" xlink:href="#ak"/><radialGradient id="bg" cx="179.59954" cy="184.93134" r="4.97343" gradientTransform="matrix(0.2537, -0.96728, 0.95587, 0.2507, -42.73529, 312.2919)" xlink:href="#ae"/><radialGradient id="bh" cx="830.42491" cy="399.0316" r="3.22224" gradientTransform="translate(-853.94303 -125.63755) scale(1.24415 0.77108)" xlink:href="#af"/><radialGradient id="bi" cx="182.38443" cy="182.30302" r="0.40729" gradientTransform="matrix(0.2537, -0.96728, 0.95587, 0.2507, -38.14458, 313.01628)" xlink:href="#ag"/><radialGradient id="bj" cx="183.05417" cy="182.86599" r="0.14767" gradientTransform="matrix(0.2537, -0.96728, 0.95587, 0.2507, -38.18288, 314.08595)" xlink:href="#ah"/><radialGradient id="bk" cx="177.30173" cy="188.47548" r="0.14767" gradientTransform="matrix(0.2537, -0.96728, 0.95587, 0.2507, -47.8379, 312.72488)" xlink:href="#ah"/><radialGradient id="bl" cx="176.19612" cy="186.76133" r="1.30048" gradientTransform="matrix(1, 0, 0, 1, 0, 0)" xlink:href="#ag"/><radialGradient id="bm" cx="181.95574" cy="187.77841" r="0.59293" gradientTransform="translate(0 27.27862) scale(1 0.85473)" xlink:href="#ak"/></defs><g class="c"><path class="d" d="M241.78658,56.2144c0,4.92525-63.58129,8.918-87.37873,8.918-4.58538,0-9.171-.12348-13.75326-.2835q-9.63723-.33654-19.26389-.92134-10.14445-.604-20.27177-1.46531-3.79277-.32859-7.58111-.70568-3.86517-.38983-7.72153-.86128c-1.244-.1538-2.48349-.35229-3.70836-.61993q-1.85293-.40488-3.73487-.65741a21.88928,21.88928,0,0,0-7.12486-.013c-2.3343.451-4.5721,1.27661-6.88071,1.83049a41.21418,41.21418,0,0,1-8.59192,1.12378,7.2253,7.2253,0,0,1,1.60057-1.3976,37.21543,37.21543,0,0,1,4.44277-2.5362c2.14109-1.07576,4.26248-2.36985,6.45989-3.40579a29.54984,29.54984,0,0,1,7.4349-2.19134c4.44285-.81727,8.93355-1.37894,13.42118-1.88319,5.61074-.63045,11.23526-1.1373,16.86352-1.58239q9.00364-.712,18.02236-1.214,8.44437-.47675,16.89765-.778c4.49442-.15507,8.992-.27435,13.48944-.27435C178.20529,47.29643,241.78658,51.28914,241.78658,56.2144Z"/><polygon class="e" points="37.703 293.266 26.105 299.703 237.161 299.703 255.11 286.572 255.064 284.079 37.703 293.266"/><path class="f" d="M235.97781,258.59864l-.86746-199.38445c-12.06243,5.91817-64.2222,5.9182-80.7065,5.9182q-.37366,0-.74733-.0023c-1.07382-.00638-2.14755-.02454-3.2211-.04871q-1.89675-.04269-3.79291-.1081-2.14153-.07191-4.28241-.16232-2.34514-.09783-4.68961-.21138-2.5076-.12069-5.01451-.25528-2.6289-.14064-5.2571-.294-2.70906-.15778-5.4174-.32758-2.74808-.17213-5.49539-.356-2.74594-.18372-5.49108-.3792-2.70267-.19255-5.40446-.39728-2.61826-.19861-5.23554-.41018-2.49276-.20185-4.98433-.41792-2.32611-.20225-4.65081-.42049-2.11839-.19966-4.235-.4179-.9682-.10042-1.93584-.20636a25.61569,25.61569,0,0,1-2.82682-.5885q-.26059-.05868-.52166-.11522a26.37135,26.37135,0,0,0-7.35364-.70634l-1.23823.08427.221,199.207a9.81,9.81,0,0,0,9.43677,12.48993H226.541A9.80991,9.80991,0,0,0,235.97781,258.59864Z"/><path class="a" d="M241.78256,260.32927V56.21441c0,4.92526-63.58119,8.918-87.37871,8.918q-1.79722,0-3.59431-.02924c-4.7989-.07261-9.59629-.249-14.3905-.4687q-8.5144-.3902-17.01852-.97514-8.76555-.597-17.51591-1.397c-5.3029-.49123-10.60164-1.04461-15.88269-1.73435-3.878-.50649-7.72018-1.49-11.65365-1.44118-3.95531.04913-7.6323,1.67156-11.44575,2.505q-.47636.10416-.95438.20048a19.75524,19.75524,0,0,1-3.84674.58949q-.67953.07353-1.36171.11872c-.22315.015-.86315-.06053-1.01578.13972-.13736.18024.24047.6185.36578.75686a5.19749,5.19749,0,0,0,.75974.60652c.32625.24652.66943.46711,1.00292.70321l3.44455,2.439,5.5635,3.93934.16454.1165V260.32927a11.53455,11.53455,0,0,0,11.12438,14.58326H230.65819A11.53454,11.53454,0,0,0,241.78256,260.32927Z"/><g class="g"><path class="h" d="M237.02135,263.90226c0-8.62279-36.85434-11.59375-82.31648-11.59375s-82.31649,3.29833-82.31649,11.92112,8.02532,6.88124,82.31649,7.56925C225.21774,272.4519,237.02135,272.525,237.02135,263.90226Z"/><rect class="i" x="40.34136" y="119.9831" width="225.4691" height="175.35041"/></g><g class="j"><path class="k" d="M214.555,188.34458a4.23233,4.23233,0,0,1-4.13636-3.36033l.00084-65.07106a4.2322,4.2322,0,0,1-.09091-.8719V79.8603a4.23141,4.23141,0,1,1,8.46281,0v38.74049l-.09175,64.63966a4.23536,4.23536,0,0,1-4.14463,5.10413Z"/></g><g class="l"><path class="m" d="M86.155,210.25063a4.6591,4.6591,0,0,1-5.81061-4.54055l.7041-107.72836a4.6546,4.6546,0,0,1,9.309.06116l-.7041,107.72837A4.65535,4.65535,0,0,1,86.155,210.25063Z"/></g><circle class="n" cx="215.48617" cy="197.39903" r="4.23358"/><circle class="o" cx="87.72694" cy="154.89365" r="13.58161" transform="translate(-42.07634 33.07753) rotate(-17.29227)"/><circle class="p" cx="87.55211" cy="204.67438" r="0.45269" transform="translate(-56.88136 35.2756) rotate(-17.29227)"/><circle class="q" cx="87.5385" cy="208.53981" r="0.45269" transform="translate(-58.03096 35.44627) rotate(-17.29227)"/><circle class="r" cx="87.54604" cy="206.39399" r="3.39545" transform="translate(-57.39277 35.35152) rotate(-17.29226)"/><line class="s" x1="87.68925" y1="165.62286" x2="87.5385" y2="208.53981"/><circle class="t" cx="87.68925" cy="165.62286" r="9.05434" transform="translate(-45.26725 33.55127) rotate(-17.29226)"/><circle class="u" cx="87.68925" cy="165.62286" r="4.52727" transform="translate(-45.26724 33.55126) rotate(-17.29226)"/><circle class="v" cx="87.68925" cy="165.62286" r="3.77273" transform="matrix(0.9548, -0.29725, 0.29725, 0.9548, -45.26725, 33.55126)"/><polyline class="w" points="87.689 165.623 89.724 180.354 87.689 165.623 85.655 150.891 87.689 165.623 72.958 167.657 87.689 165.623 102.421 163.588 87.689 165.623 95.283 183.285 87.689 165.623 80.095 147.961 87.689 165.623 70.027 173.217 87.689 165.623 105.351 158.029 87.689 165.623 101.347 177.802 87.689 165.623 74.032 153.444 87.689 165.623 75.51 179.28 87.689 165.623 99.869 151.965 87.689 165.623 88.604 178.37 87.689 165.623 86.775 152.876 87.689 165.623 74.943 166.537 87.689 165.623 100.436 164.709 87.689 165.623 88.03 167.096 87.689 165.623 87.349 164.15 87.689 165.623 86.216 165.964 87.689 165.623 89.163 165.282 87.689 165.623 83.424 184.442 87.689 165.623 91.955 146.804 87.689 165.623 68.87 161.358 87.689 165.623 106.509 169.888 87.689 165.623 85.306 171.891 87.689 165.623 90.072 159.355 87.689 165.623 81.421 163.24 87.689 165.623 93.957 168.006 87.689 165.623 91.079 169.324 87.689 165.623 84.299 161.922 87.689 165.623 83.988 169.013 87.689 165.623 91.39 162.233 87.689 165.623 108.335 174.794 87.689 165.623 67.044 156.452 87.689 165.623 78.518 186.269 87.689 165.623 96.861 144.977 87.689 165.623 96.756 182.103 87.689 165.623 78.623 149.143 87.689 165.623 71.209 174.689 87.689 165.623 104.17 156.556 87.689 165.623 97.36 185.216 87.689 165.623 78.018 146.03 87.689 165.623 68.096 175.294 87.689 165.623 107.282 155.952 87.689 165.623 90.554 168.852 87.689 165.623 84.824 162.393 87.689 165.623 84.46 168.488 87.689 165.623 90.919 162.758 87.689 165.623 101.905 172.135 87.689 165.623 73.474 159.111 87.689 165.623 81.177 179.838 87.689 165.623 94.201 151.407 87.689 165.623 86.861 182.324 87.689 165.623 88.517 148.922 87.689 165.623 70.988 164.795 87.689 165.623 104.39 166.451 87.689 165.623 92.567 178.402 87.689 165.623 82.811 152.844 87.689 165.623 74.91 170.501 87.689 165.623 100.468 160.745"/><circle class="x" cx="87.5385" cy="208.53981" r="6.79091" transform="translate(-58.03096 35.44627) rotate(-17.29226)"/><circle class="y" cx="87.5677" cy="200.25225" r="1.93017"/><circle class="z" cx="87.64624" cy="177.88157" r="1.0781" transform="translate(-48.91305 34.09257) rotate(-17.29226)"/><circle class="aa" cx="87.59831" cy="191.52926" r="0.71405" transform="translate(-52.97194 34.69519) rotate(-17.29226)"/><circle class="ab" cx="87.59069" cy="193.68873" r="1.00413" transform="translate(-53.61418 34.79053) rotate(-17.29226)"/><circle class="ac" cx="87.56908" cy="199.82991" r="1.86426" transform="translate(-55.44059 35.06167) rotate(-17.29226)"/><path class="b" d="M231.68643,255.07313V121.99453h0c0,4.74736-55.69483,8.59581-77.27169,8.59581s-77.29359-3.84845-77.29359-8.59581h0V255.07318c.07618,5.90272,2.7717,11.8329,8.94029,11.8329h136.6847C228.91453,266.90608,231.75942,260.85758,231.68643,255.07313Z"/><g class="ad"><path class="ae" d="M159.03177,156.26561c-18.67791,1.50493-37.416,2.26908-56.09287,3.8-19.99409,1.63886-41.801,7.14928-57.53906,20.1983q-.22447.18612-.44662.375c-8.76136,7.42889-15.9763,17.98992-15.41066,29.46293.44336,8.99281,5.68342,17.23709,12.52838,23.08634s15.20216,9.61118,23.57671,12.91789c48.69347,19.22676,104.26913,25.27834,153.42829,7.27559,9.885-3.62,19.52717-8.23322,27.684-14.88789s14.78232-15.49629,17.51361-25.66283c2.8151-10.47851,1.31455-21.88724-3.25779-31.72684-4.33138-9.32105-11.14835-16.47991-13.97464-26.61155-.52427-1.87938-1.108-3.95817-2.75385-5.00613a7.51491,7.51491,0,0,0-3.74219-.85011c-21.64113-1.0035-42.52589,3.5073-63.88285,5.93934C170.79392,155.2439,164.91583,155.79151,159.03177,156.26561Z"/><path class="af" d="M154.1621,196.16526c-18.41324,3.47587-36.96486,6.22152-55.37428,9.7231C79.08,209.63689,57.97989,217.4273,43.71332,232.0707q-.20349.20886-.40436.42023c-7.92473,8.31554-13.97983,19.58172-12.20151,30.93017,1.3939,8.89519,7.47814,16.53772,14.90444,21.62863s16.13511,7.946,24.81292,10.34657c50.45685,13.95813,106.36086,14.08593,153.33533-9.02515,9.44573-4.64722,18.54468-10.25627,25.95033-17.7379s13.05685-16.9756,14.69534-27.37434c1.68878-10.71784-1.01238-21.90329-6.60174-31.20292-5.2948-8.80954-12.832-15.20565-16.71613-24.98072-.72049-1.81324-1.52127-3.81845-3.26888-4.68609a7.51486,7.51486,0,0,0-3.8112-.44874c-21.62562,1.2956-41.91473,7.99429-62.89368,12.676C165.74973,193.9028,159.96278,195.07026,154.1621,196.16526Z"/></g><path class="ag" d="M231.68643,121.99452c0,4.74735-55.69477,8.59583-77.27165,8.59583s-77.29363-3.84848-77.29363-8.59583,55.71675-8.59582,77.29363-8.59582S231.68643,117.24718,231.68643,121.99452Z"/><g class="ah"><circle class="ai" cx="124.77445" cy="130.59035" r="14.91016"/><ellipse class="aj" cx="123.72552" cy="122.37212" rx="9.96443" ry="6.00743" transform="translate(-8.91715 9.72727) rotate(-4.34581)"/><circle class="ak" cx="132.70663" cy="123.10411" r="1.22104"/><circle class="al" cx="134.61426" cy="124.70762" r="0.4427"/><circle class="am" cx="118.22961" cy="140.68513" r="0.4427"/><path class="an" d="M112.91118,131.67873c-.14631,2.87815,1.58571,7.02963,4.34722,8.24794"/><circle class="ao" cx="131.48559" cy="138.69966" r="1.35526"/></g><g class="ah"><circle class="ap" cx="168.99263" cy="112.31353" r="8.42633"/><ellipse class="aq" cx="168.39983" cy="107.66908" rx="5.6313" ry="3.39504" transform="translate(-7.67457 13.07024) rotate(-4.34581)"/><circle class="ar" cx="173.47542" cy="108.08275" r="0.69006"/><circle class="as" cx="174.5535" cy="108.98896" r="0.25019"/><circle class="at" cx="165.29387" cy="118.0185" r="0.25019"/><path class="au" d="M162.28822,112.92861c-.08269,1.62656.89614,3.97273,2.45679,4.66125"/><circle class="av" cx="172.78537" cy="116.89643" r="0.76591"/></g><g class="ah"><circle class="aw" cx="151.13737" cy="93.33985" r="4.48279"/><ellipse class="ax" cx="150.82201" cy="90.86901" rx="2.99584" ry="1.80616" transform="translate(-6.45206 11.68996) rotate(-4.34581)"/><circle class="ay" cx="153.52221" cy="91.08908" r="0.36711"/><circle class="az" cx="154.09575" cy="91.57118" r="0.1331"/><circle class="ba" cx="149.16964" cy="96.37488" r="0.1331"/><path class="bb" d="M147.57064,93.66707a2.79182,2.79182,0,0,0,1.307,2.47978"/><circle class="bc" cx="153.1551" cy="95.77794" r="0.40746"/></g><g class="bd"><circle class="be" cx="196.54375" cy="164.49202" r="9.8398"/><ellipse class="bf" cx="195.85151" cy="159.06849" rx="6.57592" ry="3.96454" transform="translate(-11.49048 15.2982) rotate(-4.34581)"/><circle class="bg" cx="201.77851" cy="159.55155" r="0.80581"/><circle class="bh" cx="203.03742" cy="160.60977" r="0.29216"/><circle class="bi" cx="192.22454" cy="171.15397" r="0.29216"/><path class="bj" d="M188.7147,165.21028c-.09655,1.89941,1.04647,4.63914,2.8689,5.44315"/><circle class="bk" cx="200.97269" cy="169.84368" r="0.89439"/></g><g class="bd"><circle class="bl" cx="179.59954" cy="184.93134" r="5.23476"/><ellipse class="bm" cx="179.23127" cy="182.04603" rx="3.49838" ry="2.10913" transform="translate(-13.27942 14.10485) rotate(-4.34581)"/><circle class="bn" cx="182.38443" cy="182.30302" r="0.42869"/><circle class="bo" cx="183.05417" cy="182.86599" r="0.15543"/><circle class="bp" cx="177.30173" cy="188.47548" r="0.15543"/><path class="bq" d="M175.4345,185.31345a3.26014,3.26014,0,0,0,1.52625,2.89575"/><circle class="br" cx="181.95574" cy="187.77841" r="0.47582"/></g><polygon class="bs" points="248.441 214.109 52.88 214.109 37.703 293.266 233.264 293.266 248.441 214.109"/><polygon class="bt" points="248.441 214.109 255.064 284.079 252.456 286.124 237.465 286.285 236.357 290.841 233.264 293.266 248.441 214.109"/><path class="bu" d="M110.2492,230.46256a3.31235,3.31235,0,0,1,1.96484-.71777l7.03809-.09571a3.8535,3.8535,0,0,1,.61133-.04882,1.26,1.26,0,0,1,.60937.04882l4.53711-.04882a1.75319,1.75319,0,0,1,1.55273.71875,1.84846,1.84846,0,0,1,.32325,1.72265,3.49111,3.49111,0,0,1-1.21973,1.77149,3.22813,3.22813,0,0,1-1.94141.71875l-3.41211.04687a68.76525,68.76525,0,0,0-5.45507,12.56543,2.82527,2.82527,0,0,1-1.26075,1.65137,2.85392,2.85392,0,0,1-1.94531.64648,1.638,1.638,0,0,1-1.43652-.88574,1.904,1.904,0,0,1-.14356-1.77051,75.21772,75.21772,0,0,1,4.98047-12.13476l-4.17676.04687a1.85448,1.85448,0,0,1-1.52343-.74121,2.09337,2.09337,0,0,1-.29981-1.72363A3.34023,3.34023,0,0,1,110.2492,230.46256Z"/><path class="bu" d="M132.77459,231.1569a3.15923,3.15923,0,0,1,2.62207-1.55664,1.79842,1.79842,0,0,1,1.876,1.02929,2.384,2.384,0,0,1-.40723,2.39356,62.65715,62.65715,0,0,0-6.40332,14.12109,3.245,3.245,0,0,1-1.28418,1.65137,2.85478,2.85478,0,0,1-1.94629.64648,1.67417,1.67417,0,0,1-1.4834-.88574,2.10911,2.10911,0,0,1-.14355-1.77051A67.98885,67.98885,0,0,1,132.77459,231.1569Z"/><path class="bu" d="M138.73162,240.37174a3.54958,3.54958,0,0,1,1.25879-1.55664,2.89476,2.89476,0,0,1,1.83691-.59766,1.731,1.731,0,0,1,1.62793.88477,2.26544,2.26544,0,0,1-.00488,1.96289q-.86865,2.15333-2.21777,6.0791a3.24507,3.24507,0,0,1-1.28418,1.65137,2.85479,2.85479,0,0,1-1.94629.64648,1.67532,1.67532,0,0,1-1.4834-.88574,2.10556,2.10556,0,0,1-.14258-1.77051Q137.7619,242.71647,138.73162,240.37174Zm4.01953-9.90918a3.15265,3.15265,0,0,1,1.9541-.7666l12.78223-.0957a1.80517,1.80517,0,0,1,1.82812,1.02929,2.51983,2.51983,0,0,1-.39453,2.34571,63.48027,63.48027,0,0,0-6.416,14.16894,3.18741,3.18741,0,0,1-1.33106,1.65137,2.76373,2.76373,0,0,1-1.94629.64648,1.638,1.638,0,0,1-1.43652-.88574,2.00222,2.00222,0,0,1-.09473-1.77051,76.92813,76.92813,0,0,1,5.07129-12.207l-9.35449.07227a1.77357,1.77357,0,0,1-1.55957-.69434,2.09319,2.09319,0,0,1-.30957-1.77051A3.27713,3.27713,0,0,1,142.75115,230.46256Z"/><path class="bu" d="M165.14275,237.1403a30.54114,30.54114,0,0,1-1.02832-4.165,2.46991,2.46991,0,0,1,.79981-2.25,2.83577,2.83577,0,0,1,2.21875-1.125,1.57251,1.57251,0,0,1,1.85547,1.46093,24.228,24.228,0,0,0,2.28125,6.96485,20.00936,20.00936,0,0,0,5.4873-6.48633,3.83552,3.83552,0,0,1,1.26758-1.41211,2.65215,2.65215,0,0,1,1.60254-.52734,1.69086,1.69086,0,0,1,1.63379.8623,2.11689,2.11689,0,0,1-.06543,2.01074q-2.04931,4.30665-7.64551,9.07032a43.15592,43.15592,0,0,0,3.00293,3.23046,1.7248,1.7248,0,0,1,.51953,1.53321,2.92838,2.92838,0,0,1-.92285,1.81836,3.23385,3.23385,0,0,1-1.832.93359,2.108,2.108,0,0,1-1.64746-.45508,28.32333,28.32333,0,0,1-5.69629-7.34765q-3.2754,3.35156-3.94922,5.83984a3.049,3.049,0,0,1-1.16406,1.65137,3.09643,3.09643,0,0,1-1.86329.69433,1.85488,1.85488,0,0,1-1.52246-.74218,1.93876,1.93876,0,0,1-.22265-1.65137Q159.509,242.5734,165.14275,237.1403Z"/><path class="bu" d="M88.61639,263.25651a3.40572,3.40572,0,0,1,1.27636-1.26758,3.89414,3.89414,0,0,1,1.58887-.47949,1.93482,1.93482,0,0,1,2.00488,1.17285,2.5539,2.5539,0,0,1-.39843,2.53711,43.295,43.295,0,0,0-3.7461,6.77343,3.63177,3.63177,0,0,1-1.59082,1.72266,3.2616,3.2616,0,0,1-2.09277.47852,1.91776,1.91776,0,0,1-1.40528-1.17188,2.42411,2.42411,0,0,1,.06543-2.01074A57.17248,57.17248,0,0,1,88.61639,263.25651Z"/><path class="bu" d="M99.509,269.00065a30.492,30.492,0,0,1-1.02832-4.16407,2.47239,2.47239,0,0,1,.79981-2.25,2.83717,2.83717,0,0,1,2.21875-1.125,1.572,1.572,0,0,1,1.85547,1.46,24.21813,24.21813,0,0,0,2.28125,6.96484,20.03462,20.03462,0,0,0,5.48828-6.48535,3.81847,3.81847,0,0,1,1.26758-1.41211,2.64948,2.64948,0,0,1,1.60156-.52735,1.69094,1.69094,0,0,1,1.63379.86133,2.11689,2.11689,0,0,1-.06543,2.01074q-2.04931,4.30811-7.64551,9.07129a43.346,43.346,0,0,0,3.00293,3.23047,1.72034,1.72034,0,0,1,.51953,1.53223,2.9293,2.9293,0,0,1-.92187,1.81933,3.25143,3.25143,0,0,1-1.833.9336,2.114,2.114,0,0,1-1.64746-.45508,28.29821,28.29821,0,0,1-5.69532-7.34766q-3.27686,3.35157-3.94921,5.83985a3.052,3.052,0,0,1-1.16407,1.65039,3.10263,3.10263,0,0,1-1.86425.69531,1.85574,1.85574,0,0,1-1.52149-.74219,1.94055,1.94055,0,0,1-.22363-1.65234Q93.87518,274.43522,99.509,269.00065Z"/><path class="bu" d="M115.714,277.13932a3.28149,3.28149,0,0,1,1.97266-.74219h1.5791a61.60927,61.60927,0,0,1,4.56836-10.43555,1.71,1.71,0,0,1-.42285-1.26855,2.43144,2.43144,0,0,1,.44922-1.4834,3.087,3.087,0,0,1,2.73144-1.60351h.88574a2.263,2.263,0,0,1,.82715-.14454,2.22864,2.22864,0,0,1,.77637.14454l10.2334-.14454a1.73273,1.73273,0,0,1,1.76758,1.07715,2.37824,2.37824,0,0,1-.35743,2.29785,62.82039,62.82039,0,0,0-6.3789,14.1211,3.49607,3.49607,0,0,1-1.31934,1.60351,2.9871,2.9871,0,0,1-1.92187.64649,1.77468,1.77468,0,0,1-1.44825-.83789,2.08418,2.08418,0,0,1-.10742-1.81836,76.39592,76.39592,0,0,1,5.0459-12.11133l-5.95605.07227a62.053,62.053,0,0,0-4.77735,10.76953,2.33164,2.33164,0,0,1-.44336,2.60937,3.36819,3.36819,0,0,1-2.6289,1.31641h-.14356a2.06821,2.06821,0,0,1-.62207,0c-.57422,0-1.01074.01562-1.30566.04687q-.89794.04981-2.3584.04883a1.8389,1.8389,0,0,1-1.8291-2.44141A3.1353,3.1353,0,0,1,115.714,277.13932Z"/><path class="bu" d="M141.25213,277.13932a2.94456,2.94456,0,0,1,1.97265-.74219q3.78077,0,9.335-.0957a69.33129,69.33129,0,0,1,4.30665-9.90918l-9.29493.12012a1.82473,1.82473,0,0,1-1.57031-.74219,1.84983,1.84983,0,0,1-.32324-1.72363,3.213,3.213,0,0,1,1.25488-1.72364,3.12637,3.12637,0,0,1,1.918-.71679l12.72363-.14454a1.76714,1.76714,0,0,1,1.78028,1.0293,2.52074,2.52074,0,0,1-.39551,2.3457,53.02,53.02,0,0,0-5.43067,11.416h.93165a1.91943,1.91943,0,0,1,1.85449,2.44141,3.26859,3.26859,0,0,1-1.26953,1.77148,3.09377,3.09377,0,0,1-1.92383.74219h-3.7334q-12.28125.0952-11.49023.0957a1.8389,1.8389,0,0,1-1.82911-2.44141A3.13532,3.13532,0,0,1,141.25213,277.13932Z"/><path class="bu" d="M168.32244,261.46158a2.96421,2.96421,0,0,1,2.06445-.74121,1.66943,1.66943,0,0,1,1.43653.69434,1.76062,1.76062,0,0,1,.30761,1.60351l-2.72949,13.28321h2.37793q.85986-4.95411,5.4541-13.0918a3.3375,3.3375,0,0,1,1.19141-1.2207,2.82358,2.82358,0,0,1,1.57812-.52735,1.75986,1.75986,0,0,1,1.8125.91016,2.47962,2.47962,0,0,1-.27929,2.27344q-4.27588,7.49121-4.79,11.6084h3.23047a57.954,57.954,0,0,1,6.30761-13.23536,3.06053,3.06053,0,0,1,2.59864-1.55664,1.70818,1.70818,0,0,1,1.82715,1.0293,2.28,2.28,0,0,1-.39454,2.3457,55.95773,55.95773,0,0,0-5.69238,12.207,2.17618,2.17618,0,0,1-.28125,2.63085,3.21629,3.21629,0,0,1-2.69922,1.48438h-7.6582q-3.68262.09522-7.46191.0957h-.19141a1.97535,1.97535,0,0,1-1.91992-.50293,1.58861,1.58861,0,0,1-.44727-1.79492l3.19141-15.65137A3.1988,3.1988,0,0,1,168.32244,261.46158Z"/></g></svg>