<svg xmlns="http://www.w3.org/2000/svg" xmlns:xlink="http://www.w3.org/1999/xlink" viewBox="0 0 303.95444 341.11501"><defs><style>.a,.d{opacity:0.72;}.a{fill:url(#a);}.ag,.b,.l{opacity:0.8;}.b{fill:url(#b);}.c{isolation:isolate;}.d{fill:url(#c);}.e{fill:#683c11;fill-opacity:0.51;}.f,.h{mix-blend-mode:multiply;}.f{fill:url(#d);}.g{clip-path:url(#f);}.h{fill:url(#g);}.i{opacity:0.42;fill:url(#h);}.j{opacity:0.54;}.k{fill:url(#i);}.bd,.l{mix-blend-mode:hard-light;}.m{fill:url(#j);}.n,.u,.x{opacity:0.5;}.n{fill:url(#k);}.o{opacity:0.25;fill:url(#l);}.aa,.ab,.ac,.o,.p,.q,.r,.t,.u,.v,.w,.x,.y,.z{mix-blend-mode:screen;}.p{fill:url(#m);}.q{fill:url(#n);}.r{opacity:0.2;fill:url(#o);}.an,.au,.bb,.bj,.bq,.s,.w{fill:none;}.t{opacity:0.15;fill:url(#p);}.u{fill:url(#q);}.v{fill:url(#r);}.w{stroke:#fff;stroke-width:1.69256px;opacity:0.03;}.ag,.w{stroke-miterlimit:10;}.x{fill:url(#s);}.y{fill:url(#t);}.z{fill:url(#u);}.aa{fill:url(#v);}.ab{fill:url(#w);}.ac{fill:url(#x);}.ad{clip-path:url(#z);}.ae,.af,.ah{opacity:0.3;}.ae{fill:url(#aa);}.af{fill:url(#ab);}.ag,.an{stroke-width:0.84628px;}.ag{fill:url(#ac);stroke:url(#ad);}.ai{fill:url(#ae);}.aj,.am,.an,.aq,.at,.au,.ax,.ba,.bb,.bf,.bi,.bj,.bm,.bp,.bq{mix-blend-mode:soft-light;}.aj{fill:url(#af);}.ak{fill:url(#ag);}.al{fill:url(#ah);}.am{fill:url(#ai);}.an,.au,.bb,.bj,.bq{stroke-linecap:round;stroke-linejoin:round;}.an{stroke:url(#aj);}.ao{fill:url(#ak);}.ap{fill:url(#al);}.aq{fill:url(#am);}.ar{fill:url(#an);}.as{fill:url(#ao);}.at{fill:url(#ap);}.au{stroke-width:0.47827px;stroke:url(#aq);}.av{fill:url(#ar);}.aw{fill:url(#as);}.ax{fill:url(#at);}.ay{fill:url(#au);}.az{fill:url(#av);}.ba{fill:url(#aw);}.bb{stroke-width:0.25444px;stroke:url(#ax);}.bc{fill:url(#ay);}.bd{opacity:0.2;}.be{fill:url(#az);}.bf{fill:url(#ba);}.bg{fill:url(#bb);}.bh{fill:url(#bc);}.bi{fill:url(#bd);}.bj{stroke-width:0.55849px;stroke:url(#be);}.bk{fill:url(#bf);}.bl{fill:url(#bg);}.bm{fill:url(#bh);}.bn{fill:url(#bi);}.bo{fill:url(#bj);}.bp{fill:url(#bk);}.bq{stroke-width:0.29712px;stroke:url(#bl);}.br{fill:url(#bm);}.bs{fill:#fff;}.bt{fill:#c6c6c6;}.bu{fill:#3c3c3b;}</style><linearGradient id="a" x1="100.32438" y1="165.56347" x2="194.70496" y2="165.56347" gradientUnits="userSpaceOnUse"><stop offset="0" stop-color="#f5fbff"/><stop offset="0.62567" stop-color="#e9f1f5"/><stop offset="1" stop-color="#c5d9e0"/></linearGradient><linearGradient id="b" x1="214.38871" y1="270.68209" x2="96.28859" y2="114.15705" gradientUnits="userSpaceOnUse"><stop offset="0" stop-color="#bb9f07"/><stop offset="1" stop-color="#f0d039"/></linearGradient><linearGradient id="c" x1="148.76753" y1="38.3778" x2="148.76753" y2="64.94849" xlink:href="#a"/><linearGradient id="d" x1="166.61889" y1="61.71976" x2="144.32132" y2="243.33184" gradientUnits="userSpaceOnUse"><stop offset="0" stop-color="#bfc4c7"/><stop offset="1" stop-color="#b1c3c9"/></linearGradient><clipPath id="f"><path class="a" d="M241.77362,260.32927V56.21441c0,4.92526-63.58119,8.918-87.37871,8.918q-1.79722,0-3.59431-.02924c-4.7989-.07261-9.59629-.249-14.3905-.4687q-8.5144-.3902-17.01852-.97514-8.76557-.597-17.51592-1.397C96.57277,61.77105,91.274,61.21767,85.993,60.52793c-3.878-.50649-7.72017-1.49-11.65365-1.44118-3.9553.04913-7.63229,1.67156-11.44574,2.505q-.47636.10416-.95438.20048a19.75524,19.75524,0,0,1-3.84674.58949q-.67953.07353-1.36172.11872c-.22315.015-.86314-.06053-1.01577.13972-.13737.18024.24046.6185.36578.75686a5.19749,5.19749,0,0,0,.75974.60652c.32625.24652.66943.46711,1.00292.70321l3.44455,2.439,5.5635,3.93934.16453.1165V260.32927a11.53455,11.53455,0,0,0,11.12438,14.58326H230.64924A11.53455,11.53455,0,0,0,241.77362,260.32927Z"/></clipPath><linearGradient id="g" x1="115.73836" y1="163.94125" x2="166.91554" y2="296.11187" gradientUnits="userSpaceOnUse"><stop offset="0" stop-color="#f5f5f5"/><stop offset="1" stop-color="#c3d1d6"/></linearGradient><linearGradient id="h" x1="94.29731" y1="207.6583" x2="208.39559" y2="207.6583" xlink:href="#b"/><radialGradient id="i" cx="221.62044" cy="128.1371" r="64.69946" gradientTransform="translate(235.32338 -93.55735) rotate(89.70298) scale(1 0.11591)" gradientUnits="userSpaceOnUse"><stop offset="0" stop-color="#e6f3ff"/><stop offset="1" stop-color="#b9cbf0" stop-opacity="0"/></radialGradient><radialGradient id="j" cx="-1496.37138" cy="-963.39811" r="54.27899" gradientTransform="matrix(0.00636, -0.99998, 0.15751, 0.001, 246.59561, -1343.50002)" xlink:href="#i"/><radialGradient id="k" cx="222.58865" cy="197.4173" r="3.82592" gradientTransform="matrix(1, 0, 0, 1, 0, 0)" xlink:href="#i"/><radialGradient id="l" cx="-1790.69464" cy="-1234.28372" r="13.58164" gradientTransform="translate(1878.41266 1389.17734)" gradientUnits="userSpaceOnUse"><stop offset="0.1"/><stop offset="0.11244" stop-color="#080602"/><stop offset="0.16172" stop-color="#231b08"/><stop offset="0.21838" stop-color="#392c0d"/><stop offset="0.28458" stop-color="#4a3910"/><stop offset="0.36644" stop-color="#554213"/><stop offset="0.48125" stop-color="#5c4815"/><stop offset="0.8" stop-color="#5e4915"/><stop offset="1"/></radialGradient><radialGradient id="m" cx="-1805.65869" cy="-1186.805" r="0.45271" gradientTransform="translate(1893.20181 1391.47945)" gradientUnits="userSpaceOnUse"><stop offset="0" stop-color="#d4e194"/><stop offset="0.05952" stop-color="#afba7a"/><stop offset="0.13651" stop-color="#868f5e"/><stop offset="0.21955" stop-color="#626845"/><stop offset="0.30759" stop-color="#44482f"/><stop offset="0.40211" stop-color="#2b2e1e"/><stop offset="0.50556" stop-color="#181911"/><stop offset="0.62249" stop-color="#0a0b07"/><stop offset="0.76429" stop-color="#020302"/><stop offset="1"/></radialGradient><radialGradient id="n" cx="-1806.82067" cy="-1183.11833" r="0.45271" gradientTransform="translate(1894.35018 1391.6582)" xlink:href="#m"/><radialGradient id="o" cx="-1806.17563" cy="-1185.16492" r="3.39543" gradientTransform="translate(1893.71277 1391.55884)" gradientUnits="userSpaceOnUse"><stop offset="0.05"/><stop offset="0.09242" stop-color="#040a03"/><stop offset="0.29802" stop-color="#183411"/><stop offset="0.48337" stop-color="#25531c"/><stop offset="0.64031" stop-color="#2e6622"/><stop offset="0.75" stop-color="#316d24"/><stop offset="0.78593" stop-color="#4f6e16"/><stop offset="0.83397" stop-color="#716f06"/><stop offset="0.86" stop-color="#7e6f00"/><stop offset="0.88764" stop-color="#7a6c00"/><stop offset="0.91229" stop-color="#706200"/><stop offset="0.93581" stop-color="#5d5200"/><stop offset="0.95863" stop-color="#443c00"/><stop offset="0.98074" stop-color="#231f00"/><stop offset="1"/></radialGradient><radialGradient id="p" cx="-1793.91984" cy="-1224.05066" r="9.05439" gradientTransform="translate(1881.60015 1389.67352)" gradientUnits="userSpaceOnUse"><stop offset="0" stop-color="#200"/><stop offset="0.73" stop-color="#984023"/><stop offset="1" stop-color="#200"/></radialGradient><radialGradient id="q" cx="-1793.91984" cy="-1224.05066" r="4.52725" gradientTransform="translate(1881.60021 1389.67344)" gradientUnits="userSpaceOnUse"><stop offset="0.15" stop-color="#fff"/><stop offset="0.20939" stop-color="#e5d3d3"/><stop offset="0.29044" stop-color="#c49c9e"/><stop offset="0.36051" stop-color="#ad7477"/><stop offset="0.41599" stop-color="#9e5c5f"/><stop offset="0.45" stop-color="#995356"/><stop offset="0.57175" stop-color="#6b3335"/><stop offset="0.69355" stop-color="#431718"/><stop offset="0.79053" stop-color="#2b0606"/><stop offset="0.85" stop-color="#200"/><stop offset="0.85727" stop-color="#260201"/><stop offset="0.8648" stop-color="#330704"/><stop offset="0.87246" stop-color="#471009"/><stop offset="0.8802" stop-color="#641d0f"/><stop offset="0.88801" stop-color="#8a2e18"/><stop offset="0.89577" stop-color="#b74223"/><stop offset="0.9" stop-color="#d34e29"/><stop offset="0.90254" stop-color="#c84927"/><stop offset="0.91417" stop-color="#9c361c"/><stop offset="0.92635" stop-color="#772514"/><stop offset="0.93893" stop-color="#58180c"/><stop offset="0.95205" stop-color="#400d07"/><stop offset="0.96594" stop-color="#2f0603"/><stop offset="0.98111" stop-color="#250101"/><stop offset="1" stop-color="#200"/></radialGradient><radialGradient id="r" cx="-1793.91984" cy="-1224.05066" r="3.7727" gradientTransform="translate(1881.6002 1389.67345)" gradientUnits="userSpaceOnUse"><stop offset="0.15" stop-color="#fff"/><stop offset="0.28237" stop-color="#c2c2c2"/><stop offset="0.42528" stop-color="#888"/><stop offset="0.5636" stop-color="#575757"/><stop offset="0.69361" stop-color="#313131"/><stop offset="0.81336" stop-color="#161616"/><stop offset="0.91921" stop-color="#060606"/><stop offset="1"/></radialGradient><radialGradient id="s" cx="-1806.82067" cy="-1183.11833" r="6.79086" gradientTransform="translate(1894.35027 1391.65807)" gradientUnits="userSpaceOnUse"><stop offset="0.64"/><stop offset="0.71799" stop-color="#000200"/><stop offset="0.74608" stop-color="#020902"/><stop offset="0.76609" stop-color="#051405"/><stop offset="0.78228" stop-color="#082509"/><stop offset="0.79598" stop-color="#0d3b0e"/><stop offset="0.8" stop-color="#0f4310"/><stop offset="0.8131" stop-color="#1e2c0a"/><stop offset="0.82975" stop-color="#2d1605"/><stop offset="0.84569" stop-color="#360901"/><stop offset="0.86" stop-color="#390400"/><stop offset="0.8715" stop-color="#250300"/><stop offset="0.88602" stop-color="#140100"/><stop offset="0.90412" stop-color="#090100"/><stop offset="0.92951" stop-color="#020000"/><stop offset="1"/></radialGradient><radialGradient id="t" cx="-1804.32935" cy="-1191.02261" r="1.93017" gradientTransform="translate(2164.36077 801.11219) rotate(-17.29226)" gradientUnits="userSpaceOnUse"><stop offset="0.1"/><stop offset="0.24639" stop-color="#1b1103"/><stop offset="0.42619" stop-color="#362207"/><stop offset="0.61009" stop-color="#492e09"/><stop offset="0.79889" stop-color="#54350b"/><stop offset="1" stop-color="#58370b"/></radialGradient><radialGradient id="u" cx="-1797.60476" cy="-1212.35882" r="1.07807" gradientTransform="translate(1885.24204 1390.24042)" gradientUnits="userSpaceOnUse"><stop offset="0.1" stop-color="#192f1b"/><stop offset="0.2285" stop-color="#122214"/><stop offset="0.47516" stop-color="#080f09"/><stop offset="0.72928" stop-color="#020402"/><stop offset="1"/></radialGradient><radialGradient id="v" cx="-1801.70724" cy="-1199.34224" r="0.714" gradientTransform="translate(1889.29658 1390.87155)" xlink:href="#t"/><radialGradient id="w" cx="-1802.35641" cy="-1197.28263" r="1.00408" gradientTransform="translate(1889.93815 1390.97139)" gradientUnits="userSpaceOnUse"><stop offset="0.1"/><stop offset="0.29001" stop-color="#14160e"/><stop offset="0.51699" stop-color="#25291a"/><stop offset="0.75084" stop-color="#303422"/><stop offset="1" stop-color="#333824"/></radialGradient><radialGradient id="x" cx="-1804.20249" cy="-1191.42545" r="1.86428" gradientTransform="translate(1891.76267 1391.2553)" xlink:href="#u"/><clipPath id="z"><path class="b" d="M231.67748,255.07313V121.99453h0c0,4.74736-55.69483,8.59581-77.27168,8.59581s-77.29359-3.84845-77.29359-8.59581h0V255.07318c.07618,5.90272,2.77169,11.8329,8.94029,11.8329H222.7372C228.90558,266.90608,231.75047,260.85758,231.67748,255.07313Z"/></clipPath><linearGradient id="aa" x1="311.05258" y1="217.33703" x2="64.01846" y2="194.35711" xlink:href="#b"/><linearGradient id="ab" x1="30.78639" y1="242.44061" x2="265.29537" y2="242.44061" xlink:href="#b"/><linearGradient id="ac" x1="291.6477" y1="121.99452" x2="108.50152" y2="121.99452" xlink:href="#b"/><linearGradient id="ad" x1="76.68907" y1="121.99452" x2="232.10062" y2="121.99452" gradientUnits="userSpaceOnUse"><stop offset="0" stop-color="#ffdc26"/><stop offset="1" stop-color="#f0d039"/></linearGradient><radialGradient id="ae" cx="124.76551" cy="130.59035" r="14.16583" gradientTransform="matrix(0.2537, -0.96728, 0.95587, 0.2507, -31.71498, 218.53438)" gradientUnits="userSpaceOnUse"><stop offset="0" stop-color="#c7ad35" stop-opacity="0.8"/><stop offset="0.29921" stop-color="#cab039" stop-opacity="0.80046"/><stop offset="0.52418" stop-color="#d2b844" stop-opacity="0.80193"/><stop offset="0.72493" stop-color="#e0c758" stop-opacity="0.8044"/><stop offset="0.91041" stop-color="#f3db74" stop-opacity="0.80787"/><stop offset="1" stop-color="#ffe885" stop-opacity="0.81"/></radialGradient><radialGradient id="af" cx="694.06227" cy="368.8143" r="9.1779" gradientTransform="translate(-739.80195 -162.01163) scale(1.24415 0.77108)" gradientUnits="userSpaceOnUse"><stop offset="0" stop-color="#ebd952"/><stop offset="0.37881" stop-color="#ebd952" stop-opacity="0.99203"/><stop offset="0.51527" stop-color="#ead953" stop-opacity="0.96313"/><stop offset="0.61253" stop-color="#ead855" stop-opacity="0.91281"/><stop offset="0.69121" stop-color="#e9d757" stop-opacity="0.8409"/><stop offset="0.75863" stop-color="#e7d65a" stop-opacity="0.74715"/><stop offset="0.81834" stop-color="#e5d55e" stop-opacity="0.63133"/><stop offset="0.87231" stop-color="#e3d362" stop-opacity="0.49335"/><stop offset="0.92196" stop-color="#e1d267" stop-opacity="0.33264"/><stop offset="0.96609" stop-color="#ded06d" stop-opacity="0.15775"/><stop offset="1" stop-color="#dcce72" stop-opacity="0"/></radialGradient><radialGradient id="ag" cx="132.69769" cy="123.10411" r="1.16008" gradientTransform="matrix(0.2537, -0.96728, 0.95587, 0.2507, -18.63928, 220.59764)" gradientUnits="userSpaceOnUse"><stop offset="0" stop-color="#ebe6c1"/><stop offset="0.37881" stop-color="#ebe6c0" stop-opacity="0.99203"/><stop offset="0.51527" stop-color="#eae5be" stop-opacity="0.96313"/><stop offset="0.61253" stop-color="#eae4ba" stop-opacity="0.91281"/><stop offset="0.69121" stop-color="#e9e2b4" stop-opacity="0.8409"/><stop offset="0.75863" stop-color="#e7e0ad" stop-opacity="0.74715"/><stop offset="0.81834" stop-color="#e5dda4" stop-opacity="0.63133"/><stop offset="0.87231" stop-color="#e3da99" stop-opacity="0.49335"/><stop offset="0.92196" stop-color="#e1d68c" stop-opacity="0.33264"/><stop offset="0.96609" stop-color="#ded27e" stop-opacity="0.15775"/><stop offset="1" stop-color="#dcce72" stop-opacity="0"/></radialGradient><radialGradient id="ah" cx="134.60532" cy="124.70762" r="0.4206" gradientTransform="matrix(0.2537, -0.96728, 0.95587, 0.2507, -18.74836, 223.64436)" gradientUnits="userSpaceOnUse"><stop offset="0" stop-color="#ebe6c1"/><stop offset="0.22496" stop-color="#ebe6c0" stop-opacity="0.98901"/><stop offset="0.3644" stop-color="#eae5bd" stop-opacity="0.95275"/><stop offset="0.48062" stop-color="#e9e3b8" stop-opacity="0.89088"/><stop offset="0.58411" stop-color="#e8e1b1" stop-opacity="0.80322"/><stop offset="0.67914" stop-color="#e6dfa8" stop-opacity="0.68961"/><stop offset="0.7679" stop-color="#e4db9d" stop-opacity="0.55"/><stop offset="0.85188" stop-color="#e2d790" stop-opacity="0.38414"/><stop offset="0.92991" stop-color="#dfd382" stop-opacity="0.19725"/><stop offset="1" stop-color="#dcce72" stop-opacity="0"/></radialGradient><radialGradient id="ai" cx="118.22066" cy="140.68513" r="0.4206" gradientTransform="matrix(0.2537, -0.96728, 0.95587, 0.2507, -46.24875, 219.76764)" xlink:href="#ah"/><radialGradient id="aj" cx="115.07155" cy="135.8027" r="3.70417" gradientTransform="matrix(1, 0, 0, 1, 0, 0)" xlink:href="#ag"/><radialGradient id="ak" cx="131.47665" cy="138.69966" r="1.68884" gradientTransform="translate(0 20.14894) scale(1 0.85473)" gradientUnits="userSpaceOnUse"><stop offset="0" stop-color="#ebd952"/><stop offset="0.09168" stop-color="#ebd953" stop-opacity="0.96822"/><stop offset="0.22975" stop-color="#e9d856" stop-opacity="0.88033"/><stop offset="0.39704" stop-color="#e7d65a" stop-opacity="0.73641"/><stop offset="0.58721" stop-color="#e4d461" stop-opacity="0.53628"/><stop offset="0.79369" stop-color="#e0d169" stop-opacity="0.2836"/><stop offset="1" stop-color="#dcce72" stop-opacity="0"/></radialGradient><radialGradient id="al" cx="168.98369" cy="112.31353" r="8.00568" gradientTransform="matrix(0.2537, -0.96728, 0.95587, 0.2507, 18.75549, 247.61117)" xlink:href="#ae"/><radialGradient id="am" cx="730.76199" cy="356.31549" r="5.1868" gradientTransform="translate(-740.78765 -167.07714) scale(1.24415 0.77108)" xlink:href="#af"/><radialGradient id="an" cx="173.46648" cy="108.08275" r="0.65561" gradientTransform="matrix(0.2537, -0.96728, 0.95587, 0.2507, 26.1451, 248.7772)" xlink:href="#ag"/><radialGradient id="ao" cx="174.54456" cy="108.98896" r="0.2377" gradientTransform="matrix(0.2537, -0.96728, 0.95587, 0.2507, 26.08345, 250.49902)" xlink:href="#ah"/><radialGradient id="ap" cx="165.28493" cy="118.0185" r="0.2377" gradientTransform="matrix(0.2537, -0.96728, 0.95587, 0.2507, 10.54187, 248.30813)" xlink:href="#ah"/><radialGradient id="aq" cx="163.50524" cy="115.25924" r="2.09337" gradientTransform="matrix(1, 0, 0, 1, 0, 0)" xlink:href="#ag"/><radialGradient id="ar" cx="172.77642" cy="116.89643" r="0.95443" gradientTransform="translate(0 16.98157) scale(1 0.85473)" xlink:href="#ak"/><radialGradient id="as" cx="151.12843" cy="93.33985" r="4.25901" gradientTransform="matrix(0.2537, -0.96728, 0.95587, 0.2507, 23.5665, 216.12318)" xlink:href="#ae"/><radialGradient id="at" cx="717.69747" cy="336.26984" r="2.75937" gradientTransform="translate(-742.11123 -168.4205) scale(1.24415 0.77108)" xlink:href="#af"/><radialGradient id="au" cx="153.51327" cy="91.08908" r="0.34878" gradientTransform="matrix(0.2537, -0.96728, 0.95587, 0.2507, 27.49775, 216.7435)" xlink:href="#ag"/><radialGradient id="av" cx="154.08681" cy="91.57118" r="0.12646" gradientTransform="matrix(0.2537, -0.96728, 0.95587, 0.2507, 27.46496, 217.65951)" xlink:href="#ah"/><radialGradient id="aw" cx="149.1607" cy="96.37488" r="0.12646" gradientTransform="matrix(0.2537, -0.96728, 0.95587, 0.2507, 19.19686, 216.49396)" xlink:href="#ah"/><radialGradient id="ax" cx="148.21391" cy="94.90696" r="1.11367" gradientTransform="matrix(1, 0, 0, 1, 0, 0)" xlink:href="#ag"/><radialGradient id="ay" cx="153.14616" cy="95.77794" r="0.50776" gradientTransform="translate(0 13.91369) scale(1 0.85473)" xlink:href="#ak"/><radialGradient id="az" cx="196.5348" cy="164.49202" r="9.34859" gradientTransform="matrix(0.2537, -0.96728, 0.95587, 0.2507, -10.55906, 313.35801)" xlink:href="#ae"/><radialGradient id="ba" cx="749.63261" cy="415.43327" r="6.05686" gradientTransform="translate(-736.81388 -161.26202) scale(1.24415 0.77108)" xlink:href="#af"/><radialGradient id="bb" cx="201.76956" cy="159.55155" r="0.76558" gradientTransform="matrix(0.2537, -0.96728, 0.95587, 0.2507, -1.92989, 314.71964)" xlink:href="#ag"/><radialGradient id="bc" cx="203.02848" cy="160.60977" r="0.27757" gradientTransform="matrix(0.2537, -0.96728, 0.95587, 0.2507, -2.00188, 316.73029)" xlink:href="#ah"/><radialGradient id="bd" cx="192.2156" cy="171.15397" r="0.27757" gradientTransform="matrix(0.2537, -0.96728, 0.95587, 0.2507, -20.15047, 314.17188)" xlink:href="#ah"/><radialGradient id="be" cx="190.13737" cy="167.93186" r="2.44453" gradientTransform="matrix(1, 0, 0, 1, 0, 0)" xlink:href="#ag"/><radialGradient id="bf" cx="200.96375" cy="169.84368" r="1.11454" gradientTransform="translate(0 24.67324) scale(1 0.85473)" xlink:href="#ak"/><radialGradient id="bg" cx="179.5906" cy="184.93134" r="4.97343" gradientTransform="matrix(0.2537, -0.96728, 0.95587, 0.2507, -42.74196, 312.28325)" xlink:href="#ae"/><radialGradient id="bh" cx="734.91286" cy="439.43436" r="3.22224" gradientTransform="translate(-735.12051 -156.79114) scale(1.24415 0.77108)" xlink:href="#af"/><radialGradient id="bi" cx="182.37548" cy="182.30302" r="0.40729" gradientTransform="matrix(0.2537, -0.96728, 0.95587, 0.2507, -38.15126, 313.00763)" xlink:href="#ag"/><radialGradient id="bj" cx="183.04523" cy="182.86599" r="0.14767" gradientTransform="matrix(0.2537, -0.96728, 0.95587, 0.2507, -38.18956, 314.0773)" xlink:href="#ah"/><radialGradient id="bk" cx="177.29279" cy="188.47548" r="0.14767" gradientTransform="matrix(0.2537, -0.96728, 0.95587, 0.2507, -47.84458, 312.71623)" xlink:href="#ah"/><radialGradient id="bl" cx="176.18718" cy="186.76133" r="1.30048" gradientTransform="matrix(1, 0, 0, 1, 0, 0)" xlink:href="#ag"/><radialGradient id="bm" cx="181.94679" cy="187.77841" r="0.59293" gradientTransform="translate(0 27.27862) scale(1 0.85473)" xlink:href="#ak"/></defs><g class="c"><path class="d" d="M241.773,56.2144c0,4.92525-63.58129,8.918-87.37874,8.918-4.58538,0-9.171-.12348-13.75326-.2835q-9.63721-.33654-19.26389-.92134-10.14445-.604-20.27177-1.46531-3.79275-.32859-7.58111-.70568-3.86515-.38983-7.72152-.86128c-1.244-.1538-2.4835-.35229-3.70836-.61993q-1.853-.40488-3.73487-.65741a21.88928,21.88928,0,0,0-7.12486-.013c-2.33431.451-4.57211,1.27661-6.88071,1.83049A41.21428,41.21428,0,0,1,55.762,62.55922a7.22553,7.22553,0,0,1,1.60057-1.3976,37.21621,37.21621,0,0,1,4.44277-2.5362c2.1411-1.07576,4.26248-2.36985,6.4599-3.40579a29.54972,29.54972,0,0,1,7.4349-2.19134c4.44284-.81727,8.93355-1.37894,13.42117-1.88319,5.61074-.63045,11.23527-1.1373,16.86353-1.58239q9.00363-.712,18.02235-1.214,8.44438-.47675,16.89766-.778c4.49441-.15507,8.992-.27435,13.48943-.27435C178.19175,47.29643,241.773,51.28914,241.773,56.2144Z"/><polygon class="e" points="37.694 293.266 26.096 299.703 237.152 299.703 255.101 286.572 255.055 284.079 37.694 293.266"/><path class="f" d="M235.96887,258.59864l-.86746-199.38445c-12.06244,5.91817-64.2222,5.9182-80.7065,5.9182q-.37366,0-.74733-.0023c-1.07382-.00638-2.14755-.02454-3.2211-.04871q-1.89676-.04269-3.79291-.1081-2.14155-.07191-4.28241-.16232-2.34516-.09783-4.68961-.21138-2.50761-.12069-5.01451-.25528-2.6289-.14064-5.2571-.294-2.70906-.15778-5.4174-.32758-2.74807-.17213-5.49539-.356-2.74595-.18372-5.49108-.3792-2.70267-.19255-5.40446-.39728-2.61828-.19861-5.23555-.41018-2.49274-.20185-4.98432-.41792-2.32612-.20225-4.65081-.42049-2.11839-.19966-4.235-.4179-.9682-.10042-1.93584-.20636a25.61569,25.61569,0,0,1-2.82682-.5885q-.2606-.05868-.52166-.11522a26.37135,26.37135,0,0,0-7.35364-.70634l-1.23823.08427.221,199.207a9.81,9.81,0,0,0,9.43677,12.48993H226.53209A9.80991,9.80991,0,0,0,235.96887,258.59864Z"/><path class="a" d="M241.77362,260.32927V56.21441c0,4.92526-63.58119,8.918-87.37871,8.918q-1.79722,0-3.59431-.02924c-4.7989-.07261-9.59629-.249-14.3905-.4687q-8.5144-.3902-17.01852-.97514-8.76557-.597-17.51592-1.397C96.57277,61.77105,91.274,61.21767,85.993,60.52793c-3.878-.50649-7.72017-1.49-11.65365-1.44118-3.9553.04913-7.63229,1.67156-11.44574,2.505q-.47636.10416-.95438.20048a19.75524,19.75524,0,0,1-3.84674.58949q-.67953.07353-1.36172.11872c-.22315.015-.86314-.06053-1.01577.13972-.13737.18024.24046.6185.36578.75686a5.19749,5.19749,0,0,0,.75974.60652c.32625.24652.66943.46711,1.00292.70321l3.44455,2.439,5.5635,3.93934.16453.1165V260.32927a11.53455,11.53455,0,0,0,11.12438,14.58326H230.64924A11.53455,11.53455,0,0,0,241.77362,260.32927Z"/><g class="g"><path class="h" d="M237.01241,263.90226c0-8.62279-36.85434-11.59375-82.31648-11.59375s-82.31649,3.29833-82.31649,11.92112,8.02531,6.88124,82.31649,7.56925C225.2088,272.4519,237.01241,272.525,237.01241,263.90226Z"/><rect class="i" x="40.33242" y="119.9831" width="225.4691" height="175.35041"/></g><g class="j"><path class="k" d="M221.55426,188.34458a4.23233,4.23233,0,0,1-4.13636-3.36033l.00084-65.07106a4.2322,4.2322,0,0,1-.09091-.8719V79.8603a4.23141,4.23141,0,1,1,8.46281,0v38.74049l-.09175,64.63966a4.23536,4.23536,0,0,1-4.14463,5.10413Z"/></g><g class="l"><path class="m" d="M86.14608,210.25063a4.6591,4.6591,0,0,1-5.81061-4.54055l.7041-107.72836a4.6546,4.6546,0,0,1,9.309.06116l-.70409,107.72837A4.65536,4.65536,0,0,1,86.14608,210.25063Z"/></g><circle class="n" cx="222.48543" cy="197.39903" r="4.23358"/><circle class="o" cx="87.718" cy="154.89365" r="13.58161" transform="translate(-42.07674 33.07486) rotate(-17.29226)"/><circle class="p" cx="87.54317" cy="204.67438" r="0.45269" transform="translate(-56.88177 35.27295) rotate(-17.29227)"/><circle class="q" cx="87.52956" cy="208.53981" r="0.45269" transform="matrix(0.9548, -0.29725, 0.29725, 0.9548, -58.03137, 35.44361)"/><circle class="r" cx="87.5371" cy="206.39399" r="3.39545" transform="translate(-57.39318 35.34886) rotate(-17.29226)"/><line class="s" x1="87.68031" y1="165.62286" x2="87.52956" y2="208.53981"/><circle class="t" cx="87.68031" cy="165.62286" r="9.05434" transform="translate(-45.26766 33.54861) rotate(-17.29226)"/><circle class="u" cx="87.68031" cy="165.62286" r="4.52727" transform="translate(-45.26765 33.54861) rotate(-17.29226)"/><circle class="v" cx="87.68031" cy="165.62286" r="3.77273" transform="translate(-45.26765 33.54861) rotate(-17.29226)"/><polyline class="w" points="87.68 165.623 89.715 180.354 87.68 165.623 85.646 150.891 87.68 165.623 72.949 167.657 87.68 165.623 102.412 163.588 87.68 165.623 95.274 183.285 87.68 165.623 80.086 147.961 87.68 165.623 70.018 173.217 87.68 165.623 105.342 158.029 87.68 165.623 101.338 177.802 87.68 165.623 74.023 153.444 87.68 165.623 75.501 179.28 87.68 165.623 99.86 151.965 87.68 165.623 88.595 178.37 87.68 165.623 86.766 152.876 87.68 165.623 74.934 166.537 87.68 165.623 100.427 164.709 87.68 165.623 88.021 167.096 87.68 165.623 87.34 164.15 87.68 165.623 86.207 165.964 87.68 165.623 89.154 165.282 87.68 165.623 83.415 184.442 87.68 165.623 91.946 146.804 87.68 165.623 68.861 161.358 87.68 165.623 106.5 169.888 87.68 165.623 85.297 171.891 87.68 165.623 90.064 159.355 87.68 165.623 81.412 163.24 87.68 165.623 93.948 168.006 87.68 165.623 91.07 169.324 87.68 165.623 84.29 161.922 87.68 165.623 83.979 169.013 87.68 165.623 91.381 162.233 87.68 165.623 108.326 174.794 87.68 165.623 67.035 156.452 87.68 165.623 78.509 186.269 87.68 165.623 96.852 144.977 87.68 165.623 96.747 182.103 87.68 165.623 78.614 149.143 87.68 165.623 71.2 174.689 87.68 165.623 104.161 156.556 87.68 165.623 97.352 185.216 87.68 165.623 78.009 146.03 87.68 165.623 68.087 175.294 87.68 165.623 107.273 155.952 87.68 165.623 90.545 168.852 87.68 165.623 84.815 162.393 87.68 165.623 84.451 168.488 87.68 165.623 90.91 162.758 87.68 165.623 101.896 172.135 87.68 165.623 73.465 159.111 87.68 165.623 81.169 179.838 87.68 165.623 94.192 151.407 87.68 165.623 86.852 182.324 87.68 165.623 88.508 148.922 87.68 165.623 70.98 164.795 87.68 165.623 104.381 166.451 87.68 165.623 92.558 178.402 87.68 165.623 82.802 152.844 87.68 165.623 74.901 170.501 87.68 165.623 100.459 160.745"/><circle class="x" cx="87.52956" cy="208.53981" r="6.79091" transform="translate(-58.03135 35.4436) rotate(-17.29226)"/><circle class="y" cx="87.55875" cy="200.25225" r="1.93017"/><circle class="z" cx="87.6373" cy="177.88157" r="1.0781" transform="translate(-48.91345 34.08991) rotate(-17.29226)"/><circle class="aa" cx="87.58937" cy="191.52926" r="0.71405" transform="translate(-52.97234 34.69253) rotate(-17.29226)"/><circle class="ab" cx="87.58175" cy="193.68873" r="1.00413" transform="translate(-53.61458 34.78787) rotate(-17.29226)"/><circle class="ac" cx="87.56014" cy="199.82991" r="1.86426" transform="translate(-55.44099 35.05901) rotate(-17.29226)"/><path class="b" d="M231.67748,255.07313V121.99453h0c0,4.74736-55.69483,8.59581-77.27168,8.59581s-77.29359-3.84845-77.29359-8.59581h0V255.07318c.07618,5.90272,2.77169,11.8329,8.94029,11.8329H222.7372C228.90558,266.90608,231.75047,260.85758,231.67748,255.07313Z"/><g class="ad"><path class="ae" d="M159.02283,156.26561c-18.67791,1.50493-37.416,2.26908-56.09287,3.8-19.99409,1.63886-41.801,7.14928-57.53906,20.1983q-.22447.18612-.44662.375c-8.76136,7.42889-15.9763,17.98992-15.41066,29.46293.44336,8.99281,5.68341,17.23709,12.52838,23.08634s15.20216,9.61118,23.5767,12.91789c48.69348,19.22676,104.26913,25.27834,153.4283,7.27559,9.885-3.62,19.52717-8.23322,27.684-14.88789s14.78233-15.49629,17.51362-25.66283c2.8151-10.47851,1.31454-21.88724-3.25779-31.72684-4.33139-9.32105-11.14835-16.47991-13.97464-26.61155-.52427-1.87938-1.108-3.95817-2.75386-5.00613a7.51484,7.51484,0,0,0-3.74218-.85011c-21.64114-1.0035-42.52589,3.5073-63.88286,5.93934C170.785,155.2439,164.90689,155.79151,159.02283,156.26561Z"/><path class="af" d="M154.15316,196.16526c-18.41324,3.47587-36.96486,6.22152-55.37428,9.7231C79.07106,209.63689,57.971,217.4273,43.70438,232.0707q-.20349.20886-.40436.42023c-7.92474,8.31554-13.97983,19.58172-12.20151,30.93017,1.39389,8.89519,7.47813,16.53772,14.90444,21.62863s16.1351,7.946,24.81292,10.34657c50.45684,13.95813,106.36086,14.08593,153.33533-9.02515,9.44573-4.64722,18.54468-10.25627,25.95033-17.7379s13.05685-16.9756,14.69534-27.37434c1.68878-10.71784-1.01239-21.90329-6.60174-31.20292-5.2948-8.80954-12.832-15.20565-16.71614-24.98072-.72048-1.81324-1.52127-3.81845-3.26887-4.68609a7.51486,7.51486,0,0,0-3.8112-.44874c-21.62562,1.2956-41.91473,7.99429-62.89368,12.676C165.74079,193.9028,159.95384,195.07026,154.15316,196.16526Z"/></g><path class="ag" d="M231.67748,121.99452c0,4.74735-55.69476,8.59583-77.27164,8.59583s-77.29363-3.84848-77.29363-8.59583,55.71675-8.59582,77.29363-8.59582S231.67748,117.24718,231.67748,121.99452Z"/><g class="ah"><circle class="ai" cx="124.76551" cy="130.59035" r="14.91016"/><ellipse class="aj" cx="123.71657" cy="122.37212" rx="9.96443" ry="6.00743" transform="translate(-8.91718 9.72659) rotate(-4.34581)"/><circle class="ak" cx="132.69769" cy="123.10411" r="1.22104"/><circle class="al" cx="134.60532" cy="124.70762" r="0.4427"/><circle class="am" cx="118.22066" cy="140.68513" r="0.4427"/><path class="an" d="M112.90224,131.67873c-.14631,2.87815,1.5857,7.02963,4.34721,8.24794"/><circle class="ao" cx="131.47665" cy="138.69966" r="1.35526"/></g><g class="ah"><circle class="ap" cx="168.98369" cy="112.31353" r="8.42633"/><ellipse class="aq" cx="168.39089" cy="107.66908" rx="5.6313" ry="3.39504" transform="translate(-7.67459 13.06956) rotate(-4.34581)"/><circle class="ar" cx="173.46648" cy="108.08275" r="0.69006"/><circle class="as" cx="174.54456" cy="108.98896" r="0.25019"/><circle class="at" cx="165.28493" cy="118.0185" r="0.25019"/><path class="au" d="M162.27927,112.92861c-.08268,1.62656.89615,3.97273,2.45679,4.66125"/><circle class="av" cx="172.77642" cy="116.89643" r="0.76591"/></g><g class="ah"><circle class="aw" cx="151.12843" cy="93.33985" r="4.48279"/><ellipse class="ax" cx="150.81307" cy="90.86901" rx="2.99584" ry="1.80616" transform="translate(-6.45209 11.68928) rotate(-4.34581)"/><circle class="ay" cx="153.51327" cy="91.08908" r="0.36711"/><circle class="az" cx="154.08681" cy="91.57118" r="0.1331"/><circle class="ba" cx="149.1607" cy="96.37488" r="0.1331"/><path class="bb" d="M147.56169,93.66707a2.79183,2.79183,0,0,0,1.307,2.47978"/><circle class="bc" cx="153.14616" cy="95.77794" r="0.40746"/></g><g class="bd"><circle class="be" cx="196.5348" cy="164.49202" r="9.8398"/><ellipse class="bf" cx="195.84257" cy="159.06849" rx="6.57592" ry="3.96454" transform="translate(-11.49051 15.29753) rotate(-4.34581)"/><circle class="bg" cx="201.76956" cy="159.55155" r="0.80581"/><circle class="bh" cx="203.02848" cy="160.60977" r="0.29216"/><circle class="bi" cx="192.2156" cy="171.15397" r="0.29216"/><path class="bj" d="M188.70576,165.21028c-.09655,1.89941,1.04647,4.63914,2.8689,5.44315"/><circle class="bk" cx="200.96375" cy="169.84368" r="0.89439"/></g><g class="bd"><circle class="bl" cx="179.5906" cy="184.93134" r="5.23476"/><ellipse class="bm" cx="179.22233" cy="182.04603" rx="3.49838" ry="2.10913" transform="translate(-13.27944 14.10417) rotate(-4.34581)"/><circle class="bn" cx="182.37548" cy="182.30302" r="0.42869"/><circle class="bo" cx="183.04523" cy="182.86599" r="0.15543"/><circle class="bp" cx="177.29279" cy="188.47548" r="0.15543"/><path class="bq" d="M175.42556,185.31345a3.26014,3.26014,0,0,0,1.52625,2.89575"/><circle class="br" cx="181.94679" cy="187.77841" r="0.47582"/></g><polygon class="bs" points="248.432 214.109 52.871 214.109 37.694 293.266 233.255 293.266 248.432 214.109"/><polygon class="bt" points="248.432 214.109 255.055 284.079 252.447 286.124 237.456 286.285 236.348 290.841 233.255 293.266 248.432 214.109"/><path class="bu" d="M93.0309,231.39713a3.42937,3.42937,0,0,1,1.27637-1.26855,3.90059,3.90059,0,0,1,1.58984-.47852,1.9356,1.9356,0,0,1,2.00488,1.17285,2.55418,2.55418,0,0,1-.39843,2.53711,43.29553,43.29553,0,0,0-3.7461,6.77344,3.6293,3.6293,0,0,1-1.5918,1.72266,3.26506,3.26506,0,0,1-2.09179.47851,1.91773,1.91773,0,0,1-1.40528-1.17187,2.42394,2.42394,0,0,1,.06446-2.01075A57.38616,57.38616,0,0,1,93.0309,231.39713Z"/><path class="bu" d="M98.16957,245.32682a3.16416,3.16416,0,0,1,1.93555-.78906q2.92236-.09669,4.06054-.14454h2.0586a58.61836,58.61836,0,0,1,6.33008-13.23535,3.07993,3.07993,0,0,1,2.623-1.55566,1.75662,1.75662,0,0,1,1.82813,1.0293,2.28458,2.28458,0,0,1-.39453,2.3457,63.72378,63.72378,0,0,0-6.35547,14.12109,3.19829,3.19829,0,0,1-1.27149,1.60352,3.0103,3.0103,0,0,1-1.89843.64648h-.28711q-2.3086-.0498-7.875.09571A1.85837,1.85837,0,0,1,97.068,247.0983,3.04489,3.04489,0,0,1,98.16957,245.32682Z"/><path class="bu" d="M121.19106,230.46354a3.31878,3.31878,0,0,1,1.96484-.71778l7.03809-.0957a3.85194,3.85194,0,0,1,.61132-.04785,1.26055,1.26055,0,0,1,.60938.04785l4.53711-.04785a1.75249,1.75249,0,0,1,1.55273.71777,1.85038,1.85038,0,0,1,.32324,1.72364,3.495,3.495,0,0,1-1.21972,1.77148,3.22661,3.22661,0,0,1-1.94141.71777l-3.41211.04785a68.75088,68.75088,0,0,0-5.45508,12.56446,2.82986,2.82986,0,0,1-1.26074,1.65234,2.864,2.864,0,0,1-1.94531.64649,1.64085,1.64085,0,0,1-1.43652-.88672,1.90373,1.90373,0,0,1-.14356-1.77051,75.20129,75.20129,0,0,1,4.98047-12.13379l-4.17676.04688a1.8554,1.8554,0,0,1-1.52344-.74219,2.09053,2.09053,0,0,1-.2998-1.72266A3.34239,3.34239,0,0,1,121.19106,230.46354Z"/><path class="bu" d="M146.80043,230.46354a3.4767,3.4767,0,0,1,1.97949-.76563l12.78223-.0957a1.862,1.862,0,0,1,1.82715,1.0293,2.51752,2.51752,0,0,1-.39453,2.3457,62.59224,62.59224,0,0,0-6.43946,14.168,3.068,3.068,0,0,1-1.30761,1.65234,2.773,2.773,0,0,1-1.94629.64649,1.642,1.642,0,0,1-1.43653-.88672,2.10875,2.10875,0,0,1-.14257-1.77051,78.14126,78.14126,0,0,1,5.09472-12.20606l-9.3291.07227a1.798,1.798,0,0,1-1.584-.69531,2.14311,2.14311,0,0,1-.28711-1.77051A3.14578,3.14578,0,0,1,146.80043,230.46354Z"/><path class="bu" d="M170.02211,225.485a3.12457,3.12457,0,0,1,1.125-1.14844,3.47594,3.47594,0,0,1,1.45605-.43066,1.75774,1.75774,0,0,1,1.82813,1.02832,2.49658,2.49658,0,0,1-.39453,2.34668,37.09062,37.09062,0,0,0-2.64844,4.57129A3.50658,3.50658,0,0,1,169.904,233.36a2.78928,2.78928,0,0,1-1.917.35938,1.69936,1.69936,0,0,1-1.19238-1.07715,2.33021,2.33021,0,0,1,.12207-1.86719A45.39191,45.39191,0,0,1,170.02211,225.485Zm6.46289,0a3.20231,3.20231,0,0,1,1.19531-1.14844,3.75636,3.75636,0,0,1,1.43262-.43066,1.67,1.67,0,0,1,1.78027,1.02832,2.26533,2.26533,0,0,1-.39453,2.34668,41.60472,41.60472,0,0,0-2.60058,4.57129,3.50123,3.50123,0,0,1-1.48438,1.50781,2.886,2.886,0,0,1-1.96387.35938,1.82671,1.82671,0,0,1-1.16894-1.07715,2.15631,2.15631,0,0,1,.14551-1.86719A49.84828,49.84828,0,0,1,176.485,225.485Z"/><path class="bu" d="M183.53871,230.46354a3.3237,3.3237,0,0,1,1.96582-.71778l7.03809-.0957a3.852,3.852,0,0,1,.61133-.04785,1.26051,1.26051,0,0,1,.60937.04785l4.53711-.04785a1.75248,1.75248,0,0,1,1.55273.71777,1.85041,1.85041,0,0,1,.32325,1.72364,3.49508,3.49508,0,0,1-1.21973,1.77148,3.22659,3.22659,0,0,1-1.94141.71777l-3.41211.04785a68.68288,68.68288,0,0,0-5.45507,12.56446,2.82992,2.82992,0,0,1-1.26075,1.65234,2.864,2.864,0,0,1-1.94531.64649,1.642,1.642,0,0,1-1.43652-.88672,1.90089,1.90089,0,0,1-.14258-1.77051,75.122,75.122,0,0,1,4.97949-12.13379l-4.17676.04688a1.85538,1.85538,0,0,1-1.52343-.74219,2.0905,2.0905,0,0,1-.29981-1.72266A3.3459,3.3459,0,0,1,183.53871,230.46354Z"/><path class="bu" d="M103.569,262.32487a3.32143,3.32143,0,0,1,1.96582-.71778l7.0371-.09668a3.97055,3.97055,0,0,1,.61133-.04687,1.27216,1.27216,0,0,1,.60938.04687l4.53711-.04687a1.75354,1.75354,0,0,1,1.55371.71679,1.85281,1.85281,0,0,1,.32324,1.72461,3.50324,3.50324,0,0,1-1.2207,1.77149,3.2292,3.2292,0,0,1-1.94141.71679l-3.41211.04883a68.68971,68.68971,0,0,0-5.45508,12.56446,2.82593,2.82593,0,0,1-1.26074,1.65234,2.85607,2.85607,0,0,1-1.94531.64551,1.64109,1.64109,0,0,1-1.43652-.88574,1.904,1.904,0,0,1-.14258-1.77051,75.10062,75.10062,0,0,1,4.97949-12.13477l-4.17676.04785a1.85541,1.85541,0,0,1-1.52344-.74218,2.08671,2.08671,0,0,1-.29882-1.72266A3.33665,3.33665,0,0,1,103.569,262.32487Z"/><path class="bu" d="M124.71938,262.08561a58.33724,58.33724,0,0,1,3.58789-6.36621,3.04488,3.04488,0,0,1,2.6289-1.58008,1.67709,1.67709,0,0,1,1.88477,1.041,2.54725,2.54725,0,0,1-.375,2.40528q-1.21,1.81934-2.33008,3.9248l8.3418-.04687a1.437,1.437,0,0,1,.373-.04883.763.763,0,0,1,.46485.04883,1.59494,1.59494,0,0,1,1.85156,1.65136,2.86617,2.86617,0,0,1-1.51074,2.752,66.13148,66.13148,0,0,0-5.75391,13.13965,3.45068,3.45068,0,0,1-1.33008,1.6875,2.97526,2.97526,0,0,1-1.9541.63476,1.68627,1.68627,0,0,1-1.42383-.88574,2.15623,2.15623,0,0,1-.14941-1.79492,79.2468,79.2468,0,0,1,5.05957-12.25489l-8.93555.12012a1.69317,1.69317,0,0,1-1.96386-1.67578A2.915,2.915,0,0,1,124.71938,262.08561Z"/><path class="bu" d="M147.39613,263.01822a3.15843,3.15843,0,0,1,2.62207-1.55468,1.79582,1.79582,0,0,1,1.876,1.02929,2.3826,2.3826,0,0,1-.40723,2.39258,62.65791,62.65791,0,0,0-6.40332,14.1211,3.24576,3.24576,0,0,1-1.28418,1.65234,2.85694,2.85694,0,0,1-1.94629.64551,1.67455,1.67455,0,0,1-1.48242-.88574,2.10559,2.10559,0,0,1-.14355-1.77051A68,68,0,0,1,147.39613,263.01822Z"/><path class="bu" d="M153.7682,271.85026a3.34676,3.34676,0,0,1,3.02344-2.1543h9.40625q.81153-1.67432,1.68262-3.30274l-9.34277.12012a1.81935,1.81935,0,0,1-1.56934-.74219,1.84746,1.84746,0,0,1-.32422-1.72363,3.63357,3.63357,0,0,1,3.18555-2.48828l12.75879-.0957a1.76578,1.76578,0,0,1,1.78027,1.02929,2.52645,2.52645,0,0,1-.32324,2.34473,45.74886,45.74886,0,0,0-4.001,7.54.73931.73931,0,0,1-.11914.2627q-.94482,2.3452-2.30566,6.31933a3.54545,3.54545,0,0,1-1.332,1.65039,2.98511,2.98511,0,0,1-1.92188.64649,1.63484,1.63484,0,0,1-1.43652-.88477,2.05764,2.05764,0,0,1-.168-1.77148q.76172-2.20312,1.43359-3.97364h-6.62988q-1.30811,3.06446-1.69727,4.333a3.25066,3.25066,0,0,1-1.28418,1.65039,3.00755,3.00755,0,0,1-1.96.69434,1.98272,1.98272,0,0,1-1.50879-.79,2.17557,2.17557,0,0,1-.12988-1.81836Z"/></g></svg>