<svg xmlns="http://www.w3.org/2000/svg" xmlns:xlink="http://www.w3.org/1999/xlink" viewBox="0 0 303.95444 341.11501"><defs><style>.a,.d{opacity:0.72;}.a{fill:url(#a);}.ad,.b,.j{opacity:0.8;}.b{fill:url(#b);}.c{isolation:isolate;}.d{fill:url(#c);}.e{fill:#683c11;fill-opacity:0.51;}.f,.h{mix-blend-mode:multiply;}.f{fill:url(#d);}.g{clip-path:url(#f);}.h{fill:url(#g);}.i{opacity:0.42;fill:url(#h);}.ba,.j{mix-blend-mode:hard-light;}.k{fill:url(#i);}.l{opacity:0.25;fill:url(#j);}.l,.m,.n,.o,.q,.r,.s,.t,.u,.v,.w,.x,.y,.z{mix-blend-mode:screen;}.m{fill:url(#k);}.n{fill:url(#l);}.o{opacity:0.2;fill:url(#m);}.ak,.ar,.ay,.bg,.bn,.p,.t{fill:none;}.q{opacity:0.15;fill:url(#n);}.bu,.r,.u{opacity:0.5;}.r{fill:url(#o);}.s{fill:url(#p);}.t{stroke:#fff;stroke-width:1.69256px;opacity:0.03;}.ad,.t{stroke-miterlimit:10;}.u{fill:url(#q);}.v{fill:url(#r);}.w{fill:url(#s);}.x{fill:url(#t);}.y{fill:url(#u);}.z{fill:url(#v);}.aa{clip-path:url(#x);}.ab,.ac,.ae{opacity:0.3;}.ab{fill:url(#y);}.ac{fill:url(#z);}.ad,.ak{stroke-width:0.84628px;}.ad{fill:url(#aa);stroke:url(#ab);}.af{fill:url(#ac);}.ag,.aj,.ak,.an,.aq,.ar,.au,.ax,.ay,.bc,.bf,.bg,.bj,.bm,.bn{mix-blend-mode:soft-light;}.ag{fill:url(#ad);}.ah{fill:url(#ae);}.ai{fill:url(#af);}.aj{fill:url(#ag);}.ak,.ar,.ay,.bg,.bn{stroke-linecap:round;stroke-linejoin:round;}.ak{stroke:url(#ah);}.al{fill:url(#ai);}.am{fill:url(#aj);}.an{fill:url(#ak);}.ao{fill:url(#al);}.ap{fill:url(#am);}.aq{fill:url(#an);}.ar{stroke-width:0.47827px;stroke:url(#ao);}.as{fill:url(#ap);}.at{fill:url(#aq);}.au{fill:url(#ar);}.av{fill:url(#as);}.aw{fill:url(#at);}.ax{fill:url(#au);}.ay{stroke-width:0.25444px;stroke:url(#av);}.az{fill:url(#aw);}.ba{opacity:0.2;}.bb{fill:url(#ax);}.bc{fill:url(#ay);}.bd{fill:url(#az);}.be{fill:url(#ba);}.bf{fill:url(#bb);}.bg{stroke-width:0.55849px;stroke:url(#bc);}.bh{fill:url(#bd);}.bi{fill:url(#be);}.bj{fill:url(#bf);}.bk{fill:url(#bg);}.bl{fill:url(#bh);}.bm{fill:url(#bi);}.bn{stroke-width:0.29712px;stroke:url(#bj);}.bo{fill:url(#bk);}.bp{fill:#fff;}.bq{fill:#c6c6c6;}.br{fill:#3c3c3b;}.bs{opacity:0.54;}.bt{fill:url(#bl);}.bu{fill:url(#bm);}</style><linearGradient id="a" x1="98.62114" y1="165.56347" x2="193.00173" y2="165.56347" gradientUnits="userSpaceOnUse"><stop offset="0" stop-color="#f5fbff"/><stop offset="0.62567" stop-color="#e9f1f5"/><stop offset="1" stop-color="#c5d9e0"/></linearGradient><linearGradient id="b" x1="212.68547" y1="270.68209" x2="94.58535" y2="114.15705" gradientUnits="userSpaceOnUse"><stop offset="0" stop-color="#5807bb"/><stop offset="1" stop-color="#8239f0"/></linearGradient><linearGradient id="c" x1="147.06411" y1="38.3778" x2="147.06411" y2="64.94849" xlink:href="#a"/><linearGradient id="d" x1="164.91565" y1="61.71976" x2="142.61808" y2="243.33184" gradientUnits="userSpaceOnUse"><stop offset="0" stop-color="#bfc4c7"/><stop offset="1" stop-color="#b1c3c9"/></linearGradient><clipPath id="f"><path class="a" d="M240.07038,260.32927V56.21441c0,4.92526-63.58119,8.918-87.37871,8.918q-1.79722,0-3.59431-.02924c-4.7989-.07261-9.59629-.249-14.3905-.4687q-8.51441-.3902-17.01852-.97514-8.76555-.597-17.51591-1.397c-5.3029-.49123-10.60164-1.04461-15.88269-1.73435-3.878-.50649-7.72018-1.49-11.65365-1.44118-3.95531.04913-7.6323,1.67156-11.44575,2.505q-.47635.10416-.95438.20048a19.75524,19.75524,0,0,1-3.84674.58949q-.67953.07353-1.36171.11872c-.22315.015-.86315-.06053-1.01578.13972-.13736.18024.24047.6185.36578.75686a5.19749,5.19749,0,0,0,.75974.60652c.32625.24652.66943.46711,1.00292.70321l3.44455,2.439,5.5635,3.93934.16454.1165V260.32927a11.53455,11.53455,0,0,0,11.12438,14.58326H228.946A11.53454,11.53454,0,0,0,240.07038,260.32927Z"/></clipPath><linearGradient id="g" x1="114.03513" y1="163.94125" x2="165.2123" y2="296.11187" gradientUnits="userSpaceOnUse"><stop offset="0" stop-color="#f5f5f5"/><stop offset="1" stop-color="#c3d1d6"/></linearGradient><linearGradient id="h" x1="92.59407" y1="207.6583" x2="206.69235" y2="207.6583" xlink:href="#b"/><radialGradient id="i" cx="-1403.61235" cy="-1714.7204" r="54.27899" gradientTransform="matrix(0.00636, -0.99998, 0.15751, 0.001, 362.64036, -1249.99056)" gradientUnits="userSpaceOnUse"><stop offset="0" stop-color="#e6f3ff"/><stop offset="1" stop-color="#b9cbf0" stop-opacity="0"/></radialGradient><radialGradient id="j" cx="-1655.2134" cy="-2136.46035" r="13.58164" gradientTransform="translate(1741.22806 2291.35408)" gradientUnits="userSpaceOnUse"><stop offset="0.1"/><stop offset="0.11244" stop-color="#080602"/><stop offset="0.16172" stop-color="#231b08"/><stop offset="0.21838" stop-color="#392c0d"/><stop offset="0.28458" stop-color="#4a3910"/><stop offset="0.36644" stop-color="#554213"/><stop offset="0.48125" stop-color="#5c4815"/><stop offset="0.8" stop-color="#5e4915"/><stop offset="1"/></radialGradient><radialGradient id="k" cx="-1670.17745" cy="-2088.98163" r="0.45271" gradientTransform="translate(1756.01727 2293.65609)" gradientUnits="userSpaceOnUse"><stop offset="0" stop-color="#d4e194"/><stop offset="0.05952" stop-color="#afba7a"/><stop offset="0.13651" stop-color="#868f5e"/><stop offset="0.21955" stop-color="#626845"/><stop offset="0.30759" stop-color="#44482f"/><stop offset="0.40211" stop-color="#2b2e1e"/><stop offset="0.50556" stop-color="#181911"/><stop offset="0.62249" stop-color="#0a0b07"/><stop offset="0.76429" stop-color="#020302"/><stop offset="1"/></radialGradient><radialGradient id="l" cx="-1671.33943" cy="-2085.29496" r="0.45271" gradientTransform="translate(1757.16588 2293.83467)" xlink:href="#k"/><radialGradient id="m" cx="-1670.69439" cy="-2087.34155" r="3.39543" gradientTransform="translate(1756.52817 2293.73561)" gradientUnits="userSpaceOnUse"><stop offset="0.05"/><stop offset="0.09242" stop-color="#040a03"/><stop offset="0.29802" stop-color="#183411"/><stop offset="0.48337" stop-color="#25531c"/><stop offset="0.64031" stop-color="#2e6622"/><stop offset="0.75" stop-color="#316d24"/><stop offset="0.78593" stop-color="#4f6e16"/><stop offset="0.83397" stop-color="#716f06"/><stop offset="0.86" stop-color="#7e6f00"/><stop offset="0.88764" stop-color="#7a6c00"/><stop offset="0.91229" stop-color="#706200"/><stop offset="0.93581" stop-color="#5d5200"/><stop offset="0.95863" stop-color="#443c00"/><stop offset="0.98074" stop-color="#231f00"/><stop offset="1"/></radialGradient><radialGradient id="n" cx="-1658.43861" cy="-2126.22729" r="9.05439" gradientTransform="translate(1744.41567 2291.85016)" gradientUnits="userSpaceOnUse"><stop offset="0" stop-color="#200"/><stop offset="0.73" stop-color="#984023"/><stop offset="1" stop-color="#200"/></radialGradient><radialGradient id="o" cx="-1658.43861" cy="-2126.22729" r="4.52725" gradientTransform="translate(1744.41579 2291.85006)" gradientUnits="userSpaceOnUse"><stop offset="0.15" stop-color="#fff"/><stop offset="0.20939" stop-color="#e5d3d3"/><stop offset="0.29044" stop-color="#c49c9e"/><stop offset="0.36051" stop-color="#ad7477"/><stop offset="0.41599" stop-color="#9e5c5f"/><stop offset="0.45" stop-color="#995356"/><stop offset="0.57175" stop-color="#6b3335"/><stop offset="0.69355" stop-color="#431718"/><stop offset="0.79053" stop-color="#2b0606"/><stop offset="0.85" stop-color="#200"/><stop offset="0.85727" stop-color="#260201"/><stop offset="0.8648" stop-color="#330704"/><stop offset="0.87246" stop-color="#471009"/><stop offset="0.8802" stop-color="#641d0f"/><stop offset="0.88801" stop-color="#8a2e18"/><stop offset="0.89577" stop-color="#b74223"/><stop offset="0.9" stop-color="#d34e29"/><stop offset="0.90254" stop-color="#c84927"/><stop offset="0.91417" stop-color="#9c361c"/><stop offset="0.92635" stop-color="#772514"/><stop offset="0.93893" stop-color="#58180c"/><stop offset="0.95205" stop-color="#400d07"/><stop offset="0.96594" stop-color="#2f0603"/><stop offset="0.98111" stop-color="#250101"/><stop offset="1" stop-color="#200"/></radialGradient><radialGradient id="p" cx="-1658.43861" cy="-2126.22729" r="3.7727" gradientTransform="translate(1744.41559 2291.85022)" gradientUnits="userSpaceOnUse"><stop offset="0.15" stop-color="#fff"/><stop offset="0.28237" stop-color="#c2c2c2"/><stop offset="0.42528" stop-color="#888"/><stop offset="0.5636" stop-color="#575757"/><stop offset="0.69361" stop-color="#313131"/><stop offset="0.81336" stop-color="#161616"/><stop offset="0.91921" stop-color="#060606"/><stop offset="1"/></radialGradient><radialGradient id="q" cx="-1671.33943" cy="-2085.29496" r="6.79086" gradientTransform="translate(1757.16574 2293.83478)" gradientUnits="userSpaceOnUse"><stop offset="0.64"/><stop offset="0.71799" stop-color="#000200"/><stop offset="0.74608" stop-color="#020902"/><stop offset="0.76609" stop-color="#051405"/><stop offset="0.78228" stop-color="#082509"/><stop offset="0.79598" stop-color="#0d3b0e"/><stop offset="0.8" stop-color="#0f4310"/><stop offset="0.8131" stop-color="#1e2c0a"/><stop offset="0.82975" stop-color="#2d1605"/><stop offset="0.84569" stop-color="#360901"/><stop offset="0.86" stop-color="#390400"/><stop offset="0.8715" stop-color="#250300"/><stop offset="0.88602" stop-color="#140100"/><stop offset="0.90412" stop-color="#090100"/><stop offset="0.92951" stop-color="#020000"/><stop offset="1"/></radialGradient><radialGradient id="r" cx="-1668.84811" cy="-2093.19925" r="1.93017" gradientTransform="translate(2301.46826 1702.78255) rotate(-17.29226)" gradientUnits="userSpaceOnUse"><stop offset="0.1"/><stop offset="0.24639" stop-color="#1b1103"/><stop offset="0.42619" stop-color="#362207"/><stop offset="0.61009" stop-color="#492e09"/><stop offset="0.79889" stop-color="#54350b"/><stop offset="1" stop-color="#58370b"/></radialGradient><radialGradient id="s" cx="-1662.12352" cy="-2114.53545" r="1.07807" gradientTransform="translate(1748.05753 2292.41706)" gradientUnits="userSpaceOnUse"><stop offset="0.1" stop-color="#192f1b"/><stop offset="0.2285" stop-color="#122214"/><stop offset="0.47516" stop-color="#080f09"/><stop offset="0.72928" stop-color="#020402"/><stop offset="1"/></radialGradient><radialGradient id="t" cx="-1666.226" cy="-2101.51887" r="0.714" gradientTransform="translate(1752.11216 2293.04811)" xlink:href="#r"/><radialGradient id="u" cx="-1666.87517" cy="-2099.45927" r="1.00408" gradientTransform="translate(1752.75366 2293.14802)" gradientUnits="userSpaceOnUse"><stop offset="0.1"/><stop offset="0.29001" stop-color="#14160e"/><stop offset="0.51699" stop-color="#25291a"/><stop offset="0.75084" stop-color="#303422"/><stop offset="1" stop-color="#333824"/></radialGradient><radialGradient id="v" cx="-1668.72125" cy="-2093.60209" r="1.86428" gradientTransform="translate(1754.57805 2293.43208)" xlink:href="#s"/><clipPath id="x"><path class="b" d="M229.97425,255.07313V121.99453h0c0,4.74736-55.69483,8.59581-77.27169,8.59581S75.409,126.74189,75.409,121.99453h0V255.07318c.07618,5.90272,2.7717,11.8329,8.94029,11.8329H221.034C227.20235,266.90608,230.04724,260.85758,229.97425,255.07313Z"/></clipPath><linearGradient id="y" x1="309.34934" y1="217.33703" x2="62.31522" y2="194.35711" xlink:href="#b"/><linearGradient id="z" x1="29.08315" y1="242.44061" x2="263.59213" y2="242.44061" xlink:href="#b"/><linearGradient id="aa" x1="289.94446" y1="121.99452" x2="106.79828" y2="121.99452" xlink:href="#b"/><linearGradient id="ab" x1="74.98583" y1="121.99452" x2="230.39739" y2="121.99452" gradientUnits="userSpaceOnUse"><stop offset="0" stop-color="#8426ff"/><stop offset="1" stop-color="#8239f0"/></linearGradient><radialGradient id="ac" cx="123.06227" cy="130.59035" r="14.16583" gradientTransform="matrix(0.2537, -0.96728, 0.95587, 0.2507, -32.98611, 216.88687)" gradientUnits="userSpaceOnUse"><stop offset="0" stop-color="#7035c7" stop-opacity="0.8"/><stop offset="0.29921" stop-color="#7339ca" stop-opacity="0.80046"/><stop offset="0.52418" stop-color="#7d44d2" stop-opacity="0.80193"/><stop offset="0.72493" stop-color="#8d58e0" stop-opacity="0.8044"/><stop offset="0.91041" stop-color="#a574f3" stop-opacity="0.80787"/><stop offset="1" stop-color="#b385ff" stop-opacity="0.81"/></radialGradient><radialGradient id="ad" cx="1294.98243" cy="113.8734" r="9.1779" gradientTransform="translate(-1489.14085 34.56711) scale(1.24415 0.77108)" gradientUnits="userSpaceOnUse"><stop offset="0" stop-color="#a152eb"/><stop offset="0.37881" stop-color="#a152eb" stop-opacity="0.99203"/><stop offset="0.51527" stop-color="#a153ea" stop-opacity="0.96313"/><stop offset="0.61253" stop-color="#a155ea" stop-opacity="0.91281"/><stop offset="0.69121" stop-color="#a257e9" stop-opacity="0.8409"/><stop offset="0.75863" stop-color="#a25ae7" stop-opacity="0.74715"/><stop offset="0.81834" stop-color="#a35ee5" stop-opacity="0.63133"/><stop offset="0.87231" stop-color="#a462e3" stop-opacity="0.49335"/><stop offset="0.92196" stop-color="#a467e1" stop-opacity="0.33264"/><stop offset="0.96609" stop-color="#a56dde" stop-opacity="0.15775"/><stop offset="1" stop-color="#a672dc" stop-opacity="0"/></radialGradient><radialGradient id="ae" cx="130.99445" cy="123.10411" r="1.16008" gradientTransform="matrix(0.2537, -0.96728, 0.95587, 0.2507, -19.91041, 218.95013)" gradientUnits="userSpaceOnUse"><stop offset="0" stop-color="#d8c1eb"/><stop offset="0.37881" stop-color="#d8c0eb" stop-opacity="0.99203"/><stop offset="0.51527" stop-color="#d6beea" stop-opacity="0.96313"/><stop offset="0.61253" stop-color="#d4baea" stop-opacity="0.91281"/><stop offset="0.69121" stop-color="#d0b4e9" stop-opacity="0.8409"/><stop offset="0.75863" stop-color="#cbade7" stop-opacity="0.74715"/><stop offset="0.81834" stop-color="#c6a4e5" stop-opacity="0.63133"/><stop offset="0.87231" stop-color="#bf99e3" stop-opacity="0.49335"/><stop offset="0.92196" stop-color="#b78ce1" stop-opacity="0.33264"/><stop offset="0.96609" stop-color="#ae7ede" stop-opacity="0.15775"/><stop offset="1" stop-color="#a672dc" stop-opacity="0"/></radialGradient><radialGradient id="af" cx="132.90208" cy="124.70762" r="0.4206" gradientTransform="matrix(0.2537, -0.96728, 0.95587, 0.2507, -20.01949, 221.99685)" gradientUnits="userSpaceOnUse"><stop offset="0" stop-color="#d8c1eb"/><stop offset="0.22496" stop-color="#d7c0eb" stop-opacity="0.98901"/><stop offset="0.3644" stop-color="#d6bdea" stop-opacity="0.95275"/><stop offset="0.48062" stop-color="#d3b8e9" stop-opacity="0.89088"/><stop offset="0.58411" stop-color="#ceb1e8" stop-opacity="0.80322"/><stop offset="0.67914" stop-color="#c8a8e6" stop-opacity="0.68961"/><stop offset="0.7679" stop-color="#c29de4" stop-opacity="0.55"/><stop offset="0.85188" stop-color="#b990e2" stop-opacity="0.38414"/><stop offset="0.92991" stop-color="#b082df" stop-opacity="0.19725"/><stop offset="1" stop-color="#a672dc" stop-opacity="0"/></radialGradient><radialGradient id="ag" cx="116.51743" cy="140.68513" r="0.4206" gradientTransform="matrix(0.2537, -0.96728, 0.95587, 0.2507, -47.51988, 218.12012)" xlink:href="#af"/><radialGradient id="ah" cx="113.36831" cy="135.8027" r="3.70417" gradientTransform="matrix(1, 0, 0, 1, 0, 0)" xlink:href="#ae"/><radialGradient id="ai" cx="129.77341" cy="138.69966" r="1.68884" gradientTransform="translate(0 20.14894) scale(1 0.85473)" gradientUnits="userSpaceOnUse"><stop offset="0" stop-color="#a152eb"/><stop offset="0.09168" stop-color="#a153eb" stop-opacity="0.96822"/><stop offset="0.22975" stop-color="#a256e9" stop-opacity="0.88033"/><stop offset="0.39704" stop-color="#a25ae7" stop-opacity="0.73641"/><stop offset="0.58721" stop-color="#a361e4" stop-opacity="0.53628"/><stop offset="0.79369" stop-color="#a569e0" stop-opacity="0.2836"/><stop offset="1" stop-color="#a672dc" stop-opacity="0"/></radialGradient><radialGradient id="aj" cx="167.28045" cy="112.31353" r="8.00568" gradientTransform="matrix(0.2537, -0.96728, 0.95587, 0.2507, 17.48436, 245.96365)" xlink:href="#ac"/><radialGradient id="ak" cx="1331.68216" cy="101.37458" r="5.1868" gradientTransform="translate(-1490.12654 29.5016) scale(1.24415 0.77108)" xlink:href="#ad"/><radialGradient id="al" cx="171.76324" cy="108.08275" r="0.65561" gradientTransform="matrix(0.2537, -0.96728, 0.95587, 0.2507, 24.87397, 247.12968)" xlink:href="#ae"/><radialGradient id="am" cx="172.84132" cy="108.98896" r="0.2377" gradientTransform="matrix(0.2537, -0.96728, 0.95587, 0.2507, 24.81232, 248.85151)" xlink:href="#af"/><radialGradient id="an" cx="163.58169" cy="118.0185" r="0.2377" gradientTransform="matrix(0.2537, -0.96728, 0.95587, 0.2507, 9.27074, 246.66061)" xlink:href="#af"/><radialGradient id="ao" cx="161.802" cy="115.25924" r="2.09337" gradientTransform="matrix(1, 0, 0, 1, 0, 0)" xlink:href="#ae"/><radialGradient id="ap" cx="171.07319" cy="116.89643" r="0.95443" gradientTransform="translate(0 16.98157) scale(1 0.85473)" xlink:href="#ai"/><radialGradient id="aq" cx="149.42519" cy="93.33985" r="4.25901" gradientTransform="matrix(0.2537, -0.96728, 0.95587, 0.2507, 22.29536, 214.47566)" xlink:href="#ac"/><radialGradient id="ar" cx="1318.61763" cy="81.32893" r="2.75937" gradientTransform="translate(-1491.45012 28.15824) scale(1.24415 0.77108)" xlink:href="#ad"/><radialGradient id="as" cx="151.81003" cy="91.08908" r="0.34878" gradientTransform="matrix(0.2537, -0.96728, 0.95587, 0.2507, 26.22662, 215.09599)" xlink:href="#ae"/><radialGradient id="at" cx="152.38357" cy="91.57118" r="0.12646" gradientTransform="matrix(0.2537, -0.96728, 0.95587, 0.2507, 26.19382, 216.012)" xlink:href="#af"/><radialGradient id="au" cx="147.45746" cy="96.37488" r="0.12646" gradientTransform="matrix(0.2537, -0.96728, 0.95587, 0.2507, 17.92573, 214.84645)" xlink:href="#af"/><radialGradient id="av" cx="146.51067" cy="94.90696" r="1.11367" gradientTransform="matrix(1, 0, 0, 1, 0, 0)" xlink:href="#ae"/><radialGradient id="aw" cx="151.44292" cy="95.77794" r="0.50776" gradientTransform="translate(0 13.91369) scale(1 0.85473)" xlink:href="#ai"/><radialGradient id="ax" cx="194.83157" cy="164.49202" r="9.34859" gradientTransform="matrix(0.2537, -0.96728, 0.95587, 0.2507, -11.83019, 311.7105)" xlink:href="#ac"/><radialGradient id="ay" cx="1350.55277" cy="160.49236" r="6.05686" gradientTransform="translate(-1486.15277 35.31672) scale(1.24415 0.77108)" xlink:href="#ad"/><radialGradient id="az" cx="200.06633" cy="159.55155" r="0.76558" gradientTransform="matrix(0.2537, -0.96728, 0.95587, 0.2507, -3.20102, 313.07213)" xlink:href="#ae"/><radialGradient id="ba" cx="201.32524" cy="160.60977" r="0.27757" gradientTransform="matrix(0.2537, -0.96728, 0.95587, 0.2507, -3.27301, 315.08278)" xlink:href="#af"/><radialGradient id="bb" cx="190.51236" cy="171.15397" r="0.27757" gradientTransform="matrix(0.2537, -0.96728, 0.95587, 0.2507, -21.4216, 312.52437)" xlink:href="#af"/><radialGradient id="bc" cx="188.43413" cy="167.93186" r="2.44453" gradientTransform="matrix(1, 0, 0, 1, 0, 0)" xlink:href="#ae"/><radialGradient id="bd" cx="199.26051" cy="169.84368" r="1.11454" gradientTransform="translate(0 24.67324) scale(1 0.85473)" xlink:href="#ai"/><radialGradient id="be" cx="177.88736" cy="184.93134" r="4.97343" gradientTransform="matrix(0.2537, -0.96728, 0.95587, 0.2507, -44.01309, 310.63573)" xlink:href="#ac"/><radialGradient id="bf" cx="1335.83302" cy="184.49346" r="3.22224" gradientTransform="translate(-1484.4594 39.7876) scale(1.24415 0.77108)" xlink:href="#ad"/><radialGradient id="bg" cx="180.67224" cy="182.30302" r="0.40729" gradientTransform="matrix(0.2537, -0.96728, 0.95587, 0.2507, -39.42239, 311.36012)" xlink:href="#ae"/><radialGradient id="bh" cx="181.34199" cy="182.86599" r="0.14767" gradientTransform="matrix(0.2537, -0.96728, 0.95587, 0.2507, -39.46069, 312.42978)" xlink:href="#af"/><radialGradient id="bi" cx="175.58955" cy="188.47548" r="0.14767" gradientTransform="matrix(0.2537, -0.96728, 0.95587, 0.2507, -49.11571, 311.06871)" xlink:href="#af"/><radialGradient id="bj" cx="174.48394" cy="186.76133" r="1.30048" gradientTransform="matrix(1, 0, 0, 1, 0, 0)" xlink:href="#ae"/><radialGradient id="bk" cx="180.24356" cy="187.77841" r="0.59293" gradientTransform="translate(0 27.27862) scale(1 0.85473)" xlink:href="#ai"/><radialGradient id="bl" cx="220.93066" cy="128.1371" r="64.69946" gradientTransform="translate(234.63718 -92.86758) rotate(89.70298) scale(1 0.11591)" xlink:href="#i"/><radialGradient id="bm" cx="221.89887" cy="197.4173" r="3.82592" gradientTransform="matrix(1, 0, 0, 1, 0, 0)" xlink:href="#i"/></defs><g class="c"><path class="d" d="M240.06962,56.2144c0,4.92525-63.58129,8.918-87.37874,8.918-4.58538,0-9.171-.12348-13.75326-.2835q-9.63721-.33654-19.26389-.92134-10.14446-.604-20.27177-1.46531-3.79275-.32859-7.58111-.70568-3.86516-.38983-7.72152-.86128c-1.244-.1538-2.48349-.35229-3.70836-.61993q-1.85295-.40488-3.73487-.65741a21.88928,21.88928,0,0,0-7.12486-.013c-2.33431.451-4.57211,1.27661-6.88071,1.83049a41.21427,41.21427,0,0,1-8.59192,1.12378,7.22525,7.22525,0,0,1,1.60056-1.3976,37.21621,37.21621,0,0,1,4.44277-2.5362c2.1411-1.07576,4.26248-2.36985,6.4599-3.40579a29.54972,29.54972,0,0,1,7.4349-2.19134c4.44284-.81727,8.93355-1.37894,13.42117-1.88319,5.61074-.63045,11.23527-1.1373,16.86353-1.58239q9.00363-.712,18.02235-1.214,8.44438-.47675,16.89766-.778c4.49441-.15507,8.992-.27435,13.48943-.27435C176.48833,47.29643,240.06962,51.28914,240.06962,56.2144Z"/><polygon class="e" points="35.99 293.266 24.393 299.703 235.449 299.703 253.398 286.572 253.352 284.079 35.99 293.266"/><path class="f" d="M234.26563,258.59864l-.86746-199.38445c-12.06243,5.91817-64.2222,5.9182-80.7065,5.9182q-.37367,0-.74733-.0023c-1.07382-.00638-2.14755-.02454-3.2211-.04871q-1.89675-.04269-3.79291-.1081-2.14153-.07191-4.28241-.16232-2.34515-.09783-4.68961-.21138-2.5076-.12069-5.01451-.25528-2.6289-.14064-5.2571-.294-2.70906-.15778-5.4174-.32758-2.74807-.17213-5.49539-.356-2.74595-.18372-5.49108-.3792-2.70267-.19255-5.40446-.39728-2.61827-.19861-5.23554-.41018-2.49276-.20185-4.98433-.41792-2.32611-.20225-4.65081-.42049-2.11839-.19966-4.235-.4179-.9682-.10042-1.93584-.20636a25.61569,25.61569,0,0,1-2.82682-.5885q-.2606-.05868-.52166-.11522a26.37135,26.37135,0,0,0-7.35364-.70634l-1.23823.08427.221,199.207a9.81,9.81,0,0,0,9.43677,12.48993H224.82886A9.80991,9.80991,0,0,0,234.26563,258.59864Z"/><path class="a" d="M240.07038,260.32927V56.21441c0,4.92526-63.58119,8.918-87.37871,8.918q-1.79722,0-3.59431-.02924c-4.7989-.07261-9.59629-.249-14.3905-.4687q-8.51441-.3902-17.01852-.97514-8.76555-.597-17.51591-1.397c-5.3029-.49123-10.60164-1.04461-15.88269-1.73435-3.878-.50649-7.72018-1.49-11.65365-1.44118-3.95531.04913-7.6323,1.67156-11.44575,2.505q-.47635.10416-.95438.20048a19.75524,19.75524,0,0,1-3.84674.58949q-.67953.07353-1.36171.11872c-.22315.015-.86315-.06053-1.01578.13972-.13736.18024.24047.6185.36578.75686a5.19749,5.19749,0,0,0,.75974.60652c.32625.24652.66943.46711,1.00292.70321l3.44455,2.439,5.5635,3.93934.16454.1165V260.32927a11.53455,11.53455,0,0,0,11.12438,14.58326H228.946A11.53454,11.53454,0,0,0,240.07038,260.32927Z"/><g class="g"><path class="h" d="M235.30917,263.90226c0-8.62279-36.85434-11.59375-82.31648-11.59375S70.6762,255.60684,70.6762,264.22963s8.02532,6.88124,82.31649,7.56925C223.50556,272.4519,235.30917,272.525,235.30917,263.90226Z"/><rect class="i" x="38.62918" y="119.9831" width="225.4691" height="175.35041"/></g><g class="j"><path class="k" d="M84.44284,210.25063a4.6591,4.6591,0,0,1-5.81061-4.54055l.7041-107.72836a4.6546,4.6546,0,0,1,9.309.06116l-.7041,107.72837A4.65535,4.65535,0,0,1,84.44284,210.25063Z"/></g><circle class="l" cx="86.01476" cy="154.89365" r="13.58161" transform="matrix(0.9548, -0.29725, 0.29725, 0.9548, -42.15373, 32.56859)"/><circle class="m" cx="85.83993" cy="204.67438" r="0.45269" transform="translate(-56.95875 34.76667) rotate(-17.29227)"/><circle class="n" cx="85.82632" cy="208.53981" r="0.45269" transform="matrix(0.9548, -0.29725, 0.29725, 0.9548, -58.10833, 34.93732)"/><circle class="o" cx="85.83386" cy="206.39399" r="3.39545" transform="translate(-57.47017 34.84259) rotate(-17.29227)"/><line class="p" x1="85.97707" y1="165.62286" x2="85.82632" y2="208.53981"/><circle class="q" cx="85.97707" cy="165.62286" r="9.05434" transform="translate(-45.34464 33.04233) rotate(-17.29226)"/><circle class="r" cx="85.97707" cy="165.62286" r="4.52727" transform="translate(-45.34464 33.04232) rotate(-17.29226)"/><circle class="s" cx="85.97707" cy="165.62286" r="3.77273" transform="translate(-45.34465 33.04234) rotate(-17.29227)"/><polyline class="t" points="85.977 165.623 88.012 180.354 85.977 165.623 83.943 150.891 85.977 165.623 71.246 167.657 85.977 165.623 100.708 163.588 85.977 165.623 93.571 183.285 85.977 165.623 78.383 147.961 85.977 165.623 68.315 173.217 85.977 165.623 103.639 158.029 85.977 165.623 99.634 177.802 85.977 165.623 72.32 153.444 85.977 165.623 73.798 179.28 85.977 165.623 98.156 151.965 85.977 165.623 86.891 178.37 85.977 165.623 85.063 152.876 85.977 165.623 73.23 166.537 85.977 165.623 98.724 164.709 85.977 165.623 86.318 167.096 85.977 165.623 85.636 164.15 85.977 165.623 84.504 165.964 85.977 165.623 87.45 165.282 85.977 165.623 81.712 184.442 85.977 165.623 90.242 146.804 85.977 165.623 67.158 161.358 85.977 165.623 104.796 169.888 85.977 165.623 83.594 171.891 85.977 165.623 88.36 159.355 85.977 165.623 79.709 163.24 85.977 165.623 92.245 168.006 85.977 165.623 89.367 169.324 85.977 165.623 82.587 161.922 85.977 165.623 82.276 169.013 85.977 165.623 89.678 162.233 85.977 165.623 106.623 174.794 85.977 165.623 65.331 156.452 85.977 165.623 76.806 186.269 85.977 165.623 95.148 144.977 85.977 165.623 95.044 182.103 85.977 165.623 76.911 149.143 85.977 165.623 69.497 174.689 85.977 165.623 102.457 156.556 85.977 165.623 95.648 185.216 85.977 165.623 76.306 146.03 85.977 165.623 66.384 175.294 85.977 165.623 105.57 155.952 85.977 165.623 88.842 168.852 85.977 165.623 83.112 162.393 85.977 165.623 82.748 168.488 85.977 165.623 89.206 162.758 85.977 165.623 100.193 172.135 85.977 165.623 71.762 159.111 85.977 165.623 79.465 179.838 85.977 165.623 92.489 151.407 85.977 165.623 85.149 182.324 85.977 165.623 86.805 148.922 85.977 165.623 69.276 164.795 85.977 165.623 102.678 166.451 85.977 165.623 90.855 178.402 85.977 165.623 81.099 152.844 85.977 165.623 73.198 170.501 85.977 165.623 98.756 160.745"/><circle class="u" cx="85.82632" cy="208.53981" r="6.79091" transform="translate(-58.10834 34.93733) rotate(-17.29226)"/><circle class="v" cx="85.85552" cy="200.25225" r="1.93017"/><circle class="w" cx="85.93406" cy="177.88157" r="1.0781" transform="translate(-48.99044 33.58363) rotate(-17.29226)"/><circle class="x" cx="85.88613" cy="191.52926" r="0.71405" transform="translate(-53.04932 34.18624) rotate(-17.29226)"/><circle class="y" cx="85.87851" cy="193.68873" r="1.00413" transform="translate(-53.69157 34.28159) rotate(-17.29226)"/><circle class="z" cx="85.8569" cy="199.82991" r="1.86426" transform="translate(-55.51799 34.55274) rotate(-17.29227)"/><path class="b" d="M229.97425,255.07313V121.99453h0c0,4.74736-55.69483,8.59581-77.27169,8.59581S75.409,126.74189,75.409,121.99453h0V255.07318c.07618,5.90272,2.7717,11.8329,8.94029,11.8329H221.034C227.20235,266.90608,230.04724,260.85758,229.97425,255.07313Z"/><g class="aa"><path class="ab" d="M157.31959,156.26561c-18.67791,1.50493-37.416,2.26908-56.09287,3.8-19.99409,1.63886-41.801,7.14928-57.53906,20.1983q-.22448.18612-.44662.375c-8.76136,7.42889-15.9763,17.98992-15.41066,29.46293.44336,8.99281,5.68342,17.23709,12.52838,23.08634s15.20216,9.61118,23.57671,12.91789c48.69347,19.22676,104.26913,25.27834,153.42829,7.27559,9.885-3.62,19.52717-8.23322,27.684-14.88789s14.78232-15.49629,17.51361-25.66283c2.8151-10.47851,1.31455-21.88724-3.25779-31.72684-4.33138-9.32105-11.14835-16.47991-13.97464-26.61155-.52427-1.87938-1.108-3.95817-2.75385-5.00613a7.51491,7.51491,0,0,0-3.74219-.85011c-21.64113-1.0035-42.52589,3.5073-63.88285,5.93934C169.08174,155.2439,163.20365,155.79151,157.31959,156.26561Z"/><path class="ac" d="M152.44992,196.16526c-18.41324,3.47587-36.96486,6.22152-55.37428,9.7231-19.70782,3.74853-40.80793,11.53894-55.0745,26.18234q-.20349.20886-.40436.42023c-7.92473,8.31554-13.97983,19.58172-12.20151,30.93017,1.3939,8.89519,7.47814,16.53772,14.90444,21.62863s16.13511,7.946,24.81292,10.34657c50.45685,13.95813,106.36086,14.08593,153.33533-9.02515,9.44573-4.64722,18.54468-10.25627,25.95033-17.7379s13.05685-16.9756,14.69534-27.37434c1.68878-10.71784-1.01238-21.90329-6.60174-31.20292-5.2948-8.80954-12.832-15.20565-16.71613-24.98072-.72049-1.81324-1.52127-3.81845-3.26888-4.68609a7.51486,7.51486,0,0,0-3.8112-.44874c-21.62562,1.2956-41.91473,7.99429-62.89368,12.676C164.03755,193.9028,158.2506,195.07026,152.44992,196.16526Z"/></g><path class="ad" d="M229.97425,121.99452c0,4.74735-55.69477,8.59583-77.27165,8.59583S75.409,126.74187,75.409,121.99452s55.71675-8.59582,77.29363-8.59582S229.97425,117.24718,229.97425,121.99452Z"/><g class="ae"><circle class="af" cx="123.06227" cy="130.59035" r="14.91016"/><ellipse class="ag" cx="122.01334" cy="122.37212" rx="9.96443" ry="6.00743" transform="translate(-8.92207 9.59753) rotate(-4.34581)"/><circle class="ah" cx="130.99445" cy="123.10411" r="1.22104"/><circle class="ai" cx="132.90208" cy="124.70762" r="0.4427"/><circle class="aj" cx="116.51743" cy="140.68513" r="0.4427"/><path class="ak" d="M111.199,131.67873c-.14631,2.87815,1.58571,7.02963,4.34722,8.24794"/><circle class="al" cx="129.77341" cy="138.69966" r="1.35526"/></g><g class="ae"><circle class="am" cx="167.28045" cy="112.31353" r="8.42633"/><ellipse class="an" cx="166.68765" cy="107.66908" rx="5.6313" ry="3.39504" transform="matrix(0.99712, -0.07578, 0.07578, 0.99712, -7.67949, 12.9405)"/><circle class="ao" cx="171.76324" cy="108.08275" r="0.69006"/><circle class="ap" cx="172.84132" cy="108.98896" r="0.25019"/><circle class="aq" cx="163.58169" cy="118.0185" r="0.25019"/><path class="ar" d="M160.576,112.92861c-.08269,1.62656.89614,3.97273,2.45678,4.66125"/><circle class="as" cx="171.07319" cy="116.89643" r="0.76591"/></g><g class="ae"><circle class="at" cx="149.42519" cy="93.33985" r="4.48279"/><ellipse class="au" cx="149.10983" cy="90.86901" rx="2.99584" ry="1.80616" transform="matrix(0.99712, -0.07578, 0.07578, 0.99712, -6.45698, 11.56022)"/><circle class="av" cx="151.81003" cy="91.08908" r="0.36711"/><circle class="aw" cx="152.38357" cy="91.57118" r="0.1331"/><circle class="ax" cx="147.45746" cy="96.37488" r="0.1331"/><path class="ay" d="M145.85846,93.66707a2.79182,2.79182,0,0,0,1.307,2.47978"/><circle class="az" cx="151.44292" cy="95.77794" r="0.40746"/></g><g class="ba"><circle class="bb" cx="194.83157" cy="164.49202" r="9.8398"/><ellipse class="bc" cx="194.13933" cy="159.06849" rx="6.57592" ry="3.96454" transform="translate(-11.49541 15.16846) rotate(-4.34581)"/><circle class="bd" cx="200.06633" cy="159.55155" r="0.80581"/><circle class="be" cx="201.32524" cy="160.60977" r="0.29216"/><circle class="bf" cx="190.51236" cy="171.15397" r="0.29216"/><path class="bg" d="M187.00252,165.21028c-.09655,1.89941,1.04647,4.63914,2.8689,5.44315"/><circle class="bh" cx="199.26051" cy="169.84368" r="0.89439"/></g><g class="ba"><circle class="bi" cx="177.88736" cy="184.93134" r="5.23476"/><ellipse class="bj" cx="177.51909" cy="182.04603" rx="3.49838" ry="2.10913" transform="translate(-13.28434 13.97511) rotate(-4.34581)"/><circle class="bk" cx="180.67224" cy="182.30302" r="0.42869"/><circle class="bl" cx="181.34199" cy="182.86599" r="0.15543"/><circle class="bm" cx="175.58955" cy="188.47548" r="0.15543"/><path class="bn" d="M173.72232,185.31345a3.26014,3.26014,0,0,0,1.52625,2.89575"/><circle class="bo" cx="180.24356" cy="187.77841" r="0.47582"/></g><polygon class="bp" points="246.729 214.109 51.168 214.109 35.99 293.266 231.552 293.266 246.729 214.109"/><polygon class="bq" points="246.729 214.109 253.352 284.079 250.744 286.124 235.753 286.285 234.645 290.841 231.552 293.266 246.729 214.109"/><path class="br" d="M118.1526,230.2233a58.52005,58.52005,0,0,1,3.58691-6.36621,3.04852,3.04852,0,0,1,2.62989-1.5791,1.67651,1.67651,0,0,1,1.88379,1.041,2.54233,2.54233,0,0,1-.375,2.40527q-1.20851,1.81934-2.32911,3.9248l8.3418-.04687a1.38958,1.38958,0,0,1,.37207-.04883.76541.76541,0,0,1,.46582.04883,1.59535,1.59535,0,0,1,1.85156,1.65137,2.86616,2.86616,0,0,1-1.51074,2.75195,66.18274,66.18274,0,0,0-5.75488,13.13965,3.44853,3.44853,0,0,1-1.3291,1.6875,2.97775,2.97775,0,0,1-1.95508.63476,1.68358,1.68358,0,0,1-1.42285-.88672,2.15222,2.15222,0,0,1-.14942-1.79492,79.07712,79.07712,0,0,1,5.05957-12.2539l-8.93554.12011a1.69318,1.69318,0,0,1-1.96387-1.67578A2.91739,2.91739,0,0,1,118.1526,230.2233Z"/><path class="br" d="M134.12819,245.23112a3.28106,3.28106,0,0,1,1.97168-.74219h3.18359a58.23753,58.23753,0,0,1,6.333-13.332,2.9993,2.9993,0,0,1,2.58691-1.60352,1.78574,1.78574,0,0,1,1.88672,1.07715,2.49437,2.49437,0,0,1-.39453,2.3457,53.63905,53.63905,0,0,0-5.50391,11.417h4.9541a58.60766,58.60766,0,0,1,6.33008-13.23632,3.13416,3.13416,0,0,1,2.63574-1.60352,1.72812,1.72812,0,0,1,1.81543,1.07715,2.26342,2.26342,0,0,1-.39453,2.3457,60.7176,60.7176,0,0,0-6.34179,14.07324,3.32718,3.32718,0,0,1-1.39356,1.69922,2.746,2.746,0,0,1-2.01465.55078q-3.42333,0-7.3125.04786-3.86718.04833-7.69726.04785a1.90023,1.90023,0,0,1-1.56934-.74219,1.80355,1.80355,0,0,1-.2959-1.65039A3.33882,3.33882,0,0,1,134.12819,245.23112Z"/><path class="br" d="M165.53541,231.39713a3.432,3.432,0,0,1,1.27637-1.26953,3.91573,3.91573,0,0,1,1.58984-.47852,1.93682,1.93682,0,0,1,2.00489,1.17383,2.55477,2.55477,0,0,1-.39844,2.53711,43.2069,43.2069,0,0,0-3.7461,6.77344,3.63181,3.63181,0,0,1-1.59082,1.72266,3.27389,3.27389,0,0,1-2.09277.47851,1.91723,1.91723,0,0,1-1.40527-1.17285,2.424,2.424,0,0,1,.06445-2.01074A57.26639,57.26639,0,0,1,165.53541,231.39713Z"/><path class="br" d="M107.801,262.32487a3.31646,3.31646,0,0,1,1.96582-.71875l7.03711-.09571a3.97062,3.97062,0,0,1,.61132-.04785,1.25955,1.25955,0,0,1,.60938.04785l4.53711-.04785a1.75426,1.75426,0,0,1,1.55371.71777,1.8509,1.8509,0,0,1,.32324,1.72364,3.49523,3.49523,0,0,1-1.2207,1.77148,3.23067,3.23067,0,0,1-1.94141.71777l-3.41211.04786a68.70345,68.70345,0,0,0-5.45507,12.56543,2.82127,2.82127,0,0,1-1.26075,1.65136,2.8511,2.8511,0,0,1-1.94531.64551,1.63829,1.63829,0,0,1-1.43652-.88476,1.90621,1.90621,0,0,1-.14258-1.77149,75.138,75.138,0,0,1,4.97949-12.13476l-4.17676.04785a1.85714,1.85714,0,0,1-1.52343-.74121,2.0889,2.0889,0,0,1-.29883-1.72364A3.33447,3.33447,0,0,1,107.801,262.32487Z"/><path class="br" d="M128.24049,262.32487a3.46846,3.46846,0,0,1,1.97852-.76661l12.78222-.0957a1.86284,1.86284,0,0,1,1.82813,1.0293,2.51809,2.51809,0,0,1-.39551,2.34472,62.63752,62.63752,0,0,0-6.43848,14.16993,3.06471,3.06471,0,0,1-1.30859,1.65136,2.76118,2.76118,0,0,1-1.94629.64551,1.63829,1.63829,0,0,1-1.43652-.88476,2.11525,2.11525,0,0,1-.14258-1.77149,78.18225,78.18225,0,0,1,5.09473-12.20605l-9.32911.07129a1.79417,1.79417,0,0,1-1.584-.69336,2.14584,2.14584,0,0,1-.28613-1.77149A3.13521,3.13521,0,0,1,128.24049,262.32487Z"/><path class="br" d="M150.65651,269.0026a30.55087,30.55087,0,0,1-1.02832-4.166,2.46739,2.46739,0,0,1,.7998-2.249,2.83872,2.83872,0,0,1,2.21875-1.125,1.57186,1.57186,0,0,1,1.85547,1.46,24.20829,24.20829,0,0,0,2.28125,6.96485,20.02646,20.02646,0,0,0,5.48828-6.48633,3.83349,3.83349,0,0,1,1.26758-1.41211,2.65459,2.65459,0,0,1,1.60156-.52637,1.69,1.69,0,0,1,1.63379.86231,2.115,2.115,0,0,1-.06543,2.00976q-2.04932,4.30811-7.64551,9.07129a43.15955,43.15955,0,0,0,3.00391,3.23047,1.72236,1.72236,0,0,1,.51855,1.53223,2.92452,2.92452,0,0,1-.92187,1.81835,3.23333,3.23333,0,0,1-1.833.9336,2.11,2.11,0,0,1-1.64746-.4541,28.31131,28.31131,0,0,1-5.69629-7.34864q-3.27538,3.35157-3.94824,5.84082a3.05751,3.05751,0,0,1-1.16406,1.65137,3.10592,3.10592,0,0,1-1.86426.69336,1.85217,1.85217,0,0,1-1.52149-.74121,1.93942,1.93942,0,0,1-.22363-1.65137Q145.02272,274.4357,150.65651,269.0026Z"/><g class="bs"><path class="bt" d="M220.86448,188.34458a4.23235,4.23235,0,0,1-4.13636-3.36033l.00084-65.07106a4.2322,4.2322,0,0,1-.09091-.8719V79.8603a4.23141,4.23141,0,1,1,8.46281,0v38.74049l-.09175,64.63966a4.23535,4.23535,0,0,1-4.14463,5.10413Z"/></g><circle class="bu" cx="221.79565" cy="197.39903" r="4.23358"/></g></svg>