<svg xmlns="http://www.w3.org/2000/svg" xmlns:xlink="http://www.w3.org/1999/xlink" viewBox="0 0 303.95444 341.11501"><defs><style>.a,.d{opacity:0.72;}.a{fill:url(#a);}.ah,.b,.l{opacity:0.8;}.b{fill:url(#b);}.c{isolation:isolate;}.d{fill:url(#c);}.e{fill:#683c11;fill-opacity:0.51;}.f,.h{mix-blend-mode:multiply;}.f{fill:url(#d);}.g{clip-path:url(#f);}.h{fill:url(#g);}.i{opacity:0.42;fill:url(#h);}.j{opacity:0.54;}.k{fill:url(#i);}.be,.l{mix-blend-mode:hard-light;}.m{fill:url(#j);}.n,.o,.v,.y{opacity:0.5;}.n{fill:url(#k);}.o{fill:url(#l);}.p{opacity:0.25;fill:url(#m);}.aa,.ab,.ac,.ad,.p,.q,.r,.s,.u,.v,.w,.x,.y,.z{mix-blend-mode:screen;}.q{fill:url(#n);}.r{fill:url(#o);}.s{opacity:0.2;fill:url(#p);}.ao,.av,.bc,.bk,.br,.t,.x{fill:none;}.u{opacity:0.15;fill:url(#q);}.v{fill:url(#r);}.w{fill:url(#s);}.x{stroke:#fff;stroke-width:1.69256px;opacity:0.03;}.ah,.x{stroke-miterlimit:10;}.y{fill:url(#t);}.z{fill:url(#u);}.aa{fill:url(#v);}.ab{fill:url(#w);}.ac{fill:url(#x);}.ad{fill:url(#y);}.ae{clip-path:url(#aa);}.af,.ag,.ai{opacity:0.3;}.af{fill:url(#ab);}.ag{fill:url(#ac);}.ah,.ao{stroke-width:0.84628px;}.ah{fill:url(#ad);stroke:url(#ae);}.aj{fill:url(#af);}.ak,.an,.ao,.ar,.au,.av,.ay,.bb,.bc,.bg,.bj,.bk,.bn,.bq,.br{mix-blend-mode:soft-light;}.ak{fill:url(#ag);}.al{fill:url(#ah);}.am{fill:url(#ai);}.an{fill:url(#aj);}.ao,.av,.bc,.bk,.br{stroke-linecap:round;stroke-linejoin:round;}.ao{stroke:url(#ak);}.ap{fill:url(#al);}.aq{fill:url(#am);}.ar{fill:url(#an);}.as{fill:url(#ao);}.at{fill:url(#ap);}.au{fill:url(#aq);}.av{stroke-width:0.47827px;stroke:url(#ar);}.aw{fill:url(#as);}.ax{fill:url(#at);}.ay{fill:url(#au);}.az{fill:url(#av);}.ba{fill:url(#aw);}.bb{fill:url(#ax);}.bc{stroke-width:0.25444px;stroke:url(#ay);}.bd{fill:url(#az);}.be{opacity:0.2;}.bf{fill:url(#ba);}.bg{fill:url(#bb);}.bh{fill:url(#bc);}.bi{fill:url(#bd);}.bj{fill:url(#be);}.bk{stroke-width:0.55849px;stroke:url(#bf);}.bl{fill:url(#bg);}.bm{fill:url(#bh);}.bn{fill:url(#bi);}.bo{fill:url(#bj);}.bp{fill:url(#bk);}.bq{fill:url(#bl);}.br{stroke-width:0.29712px;stroke:url(#bm);}.bs{fill:url(#bn);}.bt{fill:#fff;}.bu{fill:#c6c6c6;}.bv{fill:#3c3c3b;}</style><linearGradient id="a" x1="103.32099" y1="165.56347" x2="197.70158" y2="165.56347" gradientUnits="userSpaceOnUse"><stop offset="0" stop-color="#f5fbff"/><stop offset="0.62567" stop-color="#e9f1f5"/><stop offset="1" stop-color="#c5d9e0"/></linearGradient><linearGradient id="b" x1="217.38532" y1="270.68209" x2="99.2852" y2="114.15705" gradientUnits="userSpaceOnUse"><stop offset="0" stop-color="#07bb8b"/><stop offset="1" stop-color="#39f0b7"/></linearGradient><linearGradient id="c" x1="151.73295" y1="38.3778" x2="151.73295" y2="64.94849" xlink:href="#a"/><linearGradient id="d" x1="169.6155" y1="61.71976" x2="147.31793" y2="243.33184" gradientUnits="userSpaceOnUse"><stop offset="0" stop-color="#bfc4c7"/><stop offset="1" stop-color="#b1c3c9"/></linearGradient><clipPath id="f"><path class="a" d="M244.77024,260.32927V56.21441c0,4.92526-63.5812,8.918-87.37871,8.918q-1.79724,0-3.59432-.02924c-4.7989-.07261-9.59628-.249-14.3905-.4687q-8.51441-.3902-17.01852-.97514-8.76555-.597-17.51591-1.397c-5.3029-.49123-10.60164-1.04461-15.88269-1.73435-3.878-.50649-7.72018-1.49-11.65365-1.44118-3.9553.04913-7.63229,1.67156-11.44574,2.505q-.47637.10416-.95439.20048a19.75525,19.75525,0,0,1-3.84673.58949q-.67953.07353-1.36172.11872c-.22315.015-.86315-.06053-1.01577.13972-.13737.18024.24046.6185.36578.75686a5.197,5.197,0,0,0,.75974.60652c.32625.24652.66943.46711,1.00291.70321l3.44455,2.439,5.5635,3.93934.16454.1165V260.32927A11.53455,11.53455,0,0,0,81.137,274.91253H233.64586A11.53455,11.53455,0,0,0,244.77024,260.32927Z"/></clipPath><linearGradient id="g" x1="118.73498" y1="163.94125" x2="169.91216" y2="296.11187" gradientUnits="userSpaceOnUse"><stop offset="0" stop-color="#f5f5f5"/><stop offset="1" stop-color="#c3d1d6"/></linearGradient><linearGradient id="h" x1="97.29392" y1="207.6583" x2="211.3922" y2="207.6583" xlink:href="#b"/><radialGradient id="i" cx="224.61705" cy="128.1371" r="64.69946" gradientTransform="translate(238.30446 -96.55393) rotate(89.70298) scale(1 0.11591)" gradientUnits="userSpaceOnUse"><stop offset="0" stop-color="#e6f3ff"/><stop offset="1" stop-color="#b9cbf0" stop-opacity="0"/></radialGradient><radialGradient id="j" cx="-1561.16142" cy="-424.24495" r="54.27899" gradientTransform="matrix(0.00636, -0.99998, 0.15751, 0.001, 165.08431, -1408.82862)" xlink:href="#i"/><radialGradient id="k" cx="225.58527" cy="197.4173" r="3.82592" gradientTransform="matrix(1, 0, 0, 1, 0, 0)" xlink:href="#i"/><radialGradient id="l" cx="225.58527" cy="124.23495" r="3.82592" gradientTransform="matrix(1, 0, 0, 1, 0, 0)" xlink:href="#i"/><radialGradient id="m" cx="-1886.14239" cy="-586.87663" r="13.58164" gradientTransform="translate(1976.85697 741.77038)" gradientUnits="userSpaceOnUse"><stop offset="0.1"/><stop offset="0.11244" stop-color="#080602"/><stop offset="0.16172" stop-color="#231b08"/><stop offset="0.21838" stop-color="#392c0d"/><stop offset="0.28458" stop-color="#4a3910"/><stop offset="0.36644" stop-color="#554213"/><stop offset="0.48125" stop-color="#5c4815"/><stop offset="0.8" stop-color="#5e4915"/><stop offset="1"/></radialGradient><radialGradient id="n" cx="-1901.10643" cy="-539.39791" r="0.45271" gradientTransform="translate(1991.6462 744.07234)" gradientUnits="userSpaceOnUse"><stop offset="0" stop-color="#d4e194"/><stop offset="0.05952" stop-color="#afba7a"/><stop offset="0.13651" stop-color="#868f5e"/><stop offset="0.21955" stop-color="#626845"/><stop offset="0.30759" stop-color="#44482f"/><stop offset="0.40211" stop-color="#2b2e1e"/><stop offset="0.50556" stop-color="#181911"/><stop offset="0.62249" stop-color="#0a0b07"/><stop offset="0.76429" stop-color="#020302"/><stop offset="1"/></radialGradient><radialGradient id="o" cx="-1902.26842" cy="-535.71124" r="0.45271" gradientTransform="translate(1992.79458 744.25108)" xlink:href="#n"/><radialGradient id="p" cx="-1901.62338" cy="-537.75783" r="3.39543" gradientTransform="translate(1992.1571 744.1518)" gradientUnits="userSpaceOnUse"><stop offset="0.05"/><stop offset="0.09242" stop-color="#040a03"/><stop offset="0.29802" stop-color="#183411"/><stop offset="0.48337" stop-color="#25531c"/><stop offset="0.64031" stop-color="#2e6622"/><stop offset="0.75" stop-color="#316d24"/><stop offset="0.78593" stop-color="#4f6e16"/><stop offset="0.83397" stop-color="#716f06"/><stop offset="0.86" stop-color="#7e6f00"/><stop offset="0.88764" stop-color="#7a6c00"/><stop offset="0.91229" stop-color="#706200"/><stop offset="0.93581" stop-color="#5d5200"/><stop offset="0.95863" stop-color="#443c00"/><stop offset="0.98074" stop-color="#231f00"/><stop offset="1"/></radialGradient><radialGradient id="q" cx="-1889.36759" cy="-576.64357" r="9.05439" gradientTransform="translate(1980.04451 742.26645)" gradientUnits="userSpaceOnUse"><stop offset="0" stop-color="#200"/><stop offset="0.73" stop-color="#984023"/><stop offset="1" stop-color="#200"/></radialGradient><radialGradient id="r" cx="-1889.36759" cy="-576.64357" r="4.52725" gradientTransform="translate(1980.04453 742.26636)" gradientUnits="userSpaceOnUse"><stop offset="0.15" stop-color="#fff"/><stop offset="0.20939" stop-color="#e5d3d3"/><stop offset="0.29044" stop-color="#c49c9e"/><stop offset="0.36051" stop-color="#ad7477"/><stop offset="0.41599" stop-color="#9e5c5f"/><stop offset="0.45" stop-color="#995356"/><stop offset="0.57175" stop-color="#6b3335"/><stop offset="0.69355" stop-color="#431718"/><stop offset="0.79053" stop-color="#2b0606"/><stop offset="0.85" stop-color="#200"/><stop offset="0.85727" stop-color="#260201"/><stop offset="0.8648" stop-color="#330704"/><stop offset="0.87246" stop-color="#471009"/><stop offset="0.8802" stop-color="#641d0f"/><stop offset="0.88801" stop-color="#8a2e18"/><stop offset="0.89577" stop-color="#b74223"/><stop offset="0.9" stop-color="#d34e29"/><stop offset="0.90254" stop-color="#c84927"/><stop offset="0.91417" stop-color="#9c361c"/><stop offset="0.92635" stop-color="#772514"/><stop offset="0.93893" stop-color="#58180c"/><stop offset="0.95205" stop-color="#400d07"/><stop offset="0.96594" stop-color="#2f0603"/><stop offset="0.98111" stop-color="#250101"/><stop offset="1" stop-color="#200"/></radialGradient><radialGradient id="s" cx="-1889.36759" cy="-576.64357" r="3.7727" gradientTransform="translate(1980.04452 742.26641)" gradientUnits="userSpaceOnUse"><stop offset="0.15" stop-color="#fff"/><stop offset="0.28237" stop-color="#c2c2c2"/><stop offset="0.42528" stop-color="#888"/><stop offset="0.5636" stop-color="#575757"/><stop offset="0.69361" stop-color="#313131"/><stop offset="0.81336" stop-color="#161616"/><stop offset="0.91921" stop-color="#060606"/><stop offset="1"/></radialGradient><radialGradient id="t" cx="-1902.26842" cy="-535.71124" r="6.79086" gradientTransform="translate(1992.79459 744.25103)" gradientUnits="userSpaceOnUse"><stop offset="0.64"/><stop offset="0.71799" stop-color="#000200"/><stop offset="0.74608" stop-color="#020902"/><stop offset="0.76609" stop-color="#051405"/><stop offset="0.78228" stop-color="#082509"/><stop offset="0.79598" stop-color="#0d3b0e"/><stop offset="0.8" stop-color="#0f4310"/><stop offset="0.8131" stop-color="#1e2c0a"/><stop offset="0.82975" stop-color="#2d1605"/><stop offset="0.84569" stop-color="#360901"/><stop offset="0.86" stop-color="#390400"/><stop offset="0.8715" stop-color="#250300"/><stop offset="0.88602" stop-color="#140100"/><stop offset="0.90412" stop-color="#090100"/><stop offset="0.92951" stop-color="#020000"/><stop offset="1"/></radialGradient><radialGradient id="u" cx="-1899.77709" cy="-543.61553" r="1.93017" gradientTransform="translate(2066.05185 154.59584) rotate(-17.29226)" gradientUnits="userSpaceOnUse"><stop offset="0.1"/><stop offset="0.24639" stop-color="#1b1103"/><stop offset="0.42619" stop-color="#362207"/><stop offset="0.61009" stop-color="#492e09"/><stop offset="0.79889" stop-color="#54350b"/><stop offset="1" stop-color="#58370b"/></radialGradient><radialGradient id="v" cx="-1893.05251" cy="-564.95173" r="1.07807" gradientTransform="translate(1983.6864 742.83336)" gradientUnits="userSpaceOnUse"><stop offset="0.1" stop-color="#192f1b"/><stop offset="0.2285" stop-color="#122214"/><stop offset="0.47516" stop-color="#080f09"/><stop offset="0.72928" stop-color="#020402"/><stop offset="1"/></radialGradient><radialGradient id="w" cx="-1897.15499" cy="-551.93515" r="0.714" gradientTransform="translate(1987.74097 743.46443)" xlink:href="#u"/><radialGradient id="x" cx="-1897.80416" cy="-549.87555" r="1.00408" gradientTransform="translate(1988.38252 743.56429)" gradientUnits="userSpaceOnUse"><stop offset="0.1"/><stop offset="0.29001" stop-color="#14160e"/><stop offset="0.51699" stop-color="#25291a"/><stop offset="0.75084" stop-color="#303422"/><stop offset="1" stop-color="#333824"/></radialGradient><radialGradient id="y" cx="-1899.65024" cy="-544.01837" r="1.86428" gradientTransform="translate(1990.20699 743.84826)" xlink:href="#v"/><clipPath id="aa"><path class="b" d="M234.6741,255.07313V121.99453h0c0,4.74736-55.69483,8.59581-77.27169,8.59581s-77.29359-3.84845-77.29359-8.59581h0V255.07318c.07618,5.90272,2.7717,11.8329,8.94029,11.8329h136.6847C231.9022,266.90608,234.74709,260.85758,234.6741,255.07313Z"/></clipPath><linearGradient id="ab" x1="314.04919" y1="217.33703" x2="67.01508" y2="194.35711" xlink:href="#b"/><linearGradient id="ac" x1="33.783" y1="242.44061" x2="268.29198" y2="242.44061" xlink:href="#b"/><linearGradient id="ad" x1="294.64431" y1="121.99452" x2="111.49813" y2="121.99452" xlink:href="#b"/><linearGradient id="ae" x1="79.68568" y1="121.99452" x2="235.09724" y2="121.99452" gradientUnits="userSpaceOnUse"><stop offset="0" stop-color="#26ffc6"/><stop offset="1" stop-color="#39f0b7"/></linearGradient><radialGradient id="af" cx="127.76213" cy="130.59035" r="14.16583" gradientTransform="matrix(0.2537, -0.96728, 0.95587, 0.2507, -29.4786, 221.43296)" gradientUnits="userSpaceOnUse"><stop offset="0" stop-color="#35c793" stop-opacity="0.8"/><stop offset="0.29921" stop-color="#39ca96" stop-opacity="0.80046"/><stop offset="0.52418" stop-color="#44d29f" stop-opacity="0.80193"/><stop offset="0.72493" stop-color="#58e0af" stop-opacity="0.8044"/><stop offset="0.91041" stop-color="#74f3c5" stop-opacity="0.80787"/><stop offset="1" stop-color="#85ffd2" stop-opacity="0.81"/></radialGradient><radialGradient id="ag" cx="264.6129" cy="551.76134" r="9.1779" gradientTransform="translate(-202.50531 -303.07765) scale(1.24415 0.77108)" gradientUnits="userSpaceOnUse"><stop offset="0" stop-color="#52ebdb"/><stop offset="0.37881" stop-color="#52ebdb" stop-opacity="0.99203"/><stop offset="0.51527" stop-color="#53eada" stop-opacity="0.96313"/><stop offset="0.61253" stop-color="#55eada" stop-opacity="0.91281"/><stop offset="0.69121" stop-color="#57e9d8" stop-opacity="0.8409"/><stop offset="0.75863" stop-color="#5ae7d7" stop-opacity="0.74715"/><stop offset="0.81834" stop-color="#5ee5d5" stop-opacity="0.63133"/><stop offset="0.87231" stop-color="#62e3d3" stop-opacity="0.49335"/><stop offset="0.92196" stop-color="#67e1d0" stop-opacity="0.33264"/><stop offset="0.96609" stop-color="#6ddece" stop-opacity="0.15775"/><stop offset="1" stop-color="#72dccb" stop-opacity="0"/></radialGradient><radialGradient id="ah" cx="135.6943" cy="123.10411" r="1.16008" gradientTransform="matrix(0.2537, -0.96728, 0.95587, 0.2507, -16.40289, 223.49622)" gradientUnits="userSpaceOnUse"><stop offset="0" stop-color="#c1ebe5"/><stop offset="0.37881" stop-color="#c0ebe5" stop-opacity="0.99203"/><stop offset="0.51527" stop-color="#beeae4" stop-opacity="0.96313"/><stop offset="0.61253" stop-color="#baeae3" stop-opacity="0.91281"/><stop offset="0.69121" stop-color="#b4e9e1" stop-opacity="0.8409"/><stop offset="0.75863" stop-color="#ade7de" stop-opacity="0.74715"/><stop offset="0.81834" stop-color="#a4e5db" stop-opacity="0.63133"/><stop offset="0.87231" stop-color="#99e3d8" stop-opacity="0.49335"/><stop offset="0.92196" stop-color="#8ce1d4" stop-opacity="0.33264"/><stop offset="0.96609" stop-color="#7edecf" stop-opacity="0.15775"/><stop offset="1" stop-color="#72dccb" stop-opacity="0"/></radialGradient><radialGradient id="ai" cx="137.60193" cy="124.70762" r="0.4206" gradientTransform="matrix(0.2537, -0.96728, 0.95587, 0.2507, -16.51198, 226.54294)" gradientUnits="userSpaceOnUse"><stop offset="0" stop-color="#c1ebe5"/><stop offset="0.22496" stop-color="#c0ebe5" stop-opacity="0.98901"/><stop offset="0.3644" stop-color="#bdeae4" stop-opacity="0.95275"/><stop offset="0.48062" stop-color="#b8e9e2" stop-opacity="0.89088"/><stop offset="0.58411" stop-color="#b1e8e0" stop-opacity="0.80322"/><stop offset="0.67914" stop-color="#a8e6dd" stop-opacity="0.68961"/><stop offset="0.7679" stop-color="#9de4d9" stop-opacity="0.55"/><stop offset="0.85188" stop-color="#90e2d5" stop-opacity="0.38414"/><stop offset="0.92991" stop-color="#82dfd0" stop-opacity="0.19725"/><stop offset="1" stop-color="#72dccb" stop-opacity="0"/></radialGradient><radialGradient id="aj" cx="121.21728" cy="140.68513" r="0.4206" gradientTransform="matrix(0.2537, -0.96728, 0.95587, 0.2507, -44.01237, 222.66621)" xlink:href="#ai"/><radialGradient id="ak" cx="118.06816" cy="135.8027" r="3.70417" gradientTransform="matrix(1, 0, 0, 1, 0, 0)" xlink:href="#ah"/><radialGradient id="al" cx="134.47327" cy="138.69966" r="1.68884" gradientTransform="translate(0 20.14894) scale(1 0.85473)" gradientUnits="userSpaceOnUse"><stop offset="0" stop-color="#52ebdb"/><stop offset="0.09168" stop-color="#53ebda" stop-opacity="0.96822"/><stop offset="0.22975" stop-color="#56e9d9" stop-opacity="0.88033"/><stop offset="0.39704" stop-color="#5ae7d7" stop-opacity="0.73641"/><stop offset="0.58721" stop-color="#61e4d4" stop-opacity="0.53628"/><stop offset="0.79369" stop-color="#69e0d0" stop-opacity="0.2836"/><stop offset="1" stop-color="#72dccb" stop-opacity="0"/></radialGradient><radialGradient id="am" cx="171.9803" cy="112.31353" r="8.00568" gradientTransform="matrix(0.2537, -0.96728, 0.95587, 0.2507, 20.99187, 250.50974)" xlink:href="#af"/><radialGradient id="an" cx="301.31262" cy="539.26253" r="5.1868" gradientTransform="translate(-203.49101 -308.14317) scale(1.24415 0.77108)" xlink:href="#ag"/><radialGradient id="ao" cx="176.4631" cy="108.08275" r="0.65561" gradientTransform="matrix(0.2537, -0.96728, 0.95587, 0.2507, 28.38148, 251.67577)" xlink:href="#ah"/><radialGradient id="ap" cx="177.54117" cy="108.98896" r="0.2377" gradientTransform="matrix(0.2537, -0.96728, 0.95587, 0.2507, 28.31983, 253.3976)" xlink:href="#ai"/><radialGradient id="aq" cx="168.28155" cy="118.0185" r="0.2377" gradientTransform="matrix(0.2537, -0.96728, 0.95587, 0.2507, 12.77825, 251.2067)" xlink:href="#ai"/><radialGradient id="ar" cx="166.50185" cy="115.25924" r="2.09337" gradientTransform="matrix(1, 0, 0, 1, 0, 0)" xlink:href="#ah"/><radialGradient id="as" cx="175.77304" cy="116.89643" r="0.95443" gradientTransform="translate(0 16.98157) scale(1 0.85473)" xlink:href="#al"/><radialGradient id="at" cx="154.12505" cy="93.33985" r="4.25901" gradientTransform="matrix(0.2537, -0.96728, 0.95587, 0.2507, 25.80288, 219.02175)" xlink:href="#af"/><radialGradient id="au" cx="288.2481" cy="519.21688" r="2.75937" gradientTransform="translate(-204.81459 -309.48652) scale(1.24415 0.77108)" xlink:href="#ag"/><radialGradient id="av" cx="156.50988" cy="91.08908" r="0.34878" gradientTransform="matrix(0.2537, -0.96728, 0.95587, 0.2507, 29.73413, 219.64208)" xlink:href="#ah"/><radialGradient id="aw" cx="157.08342" cy="91.57118" r="0.12646" gradientTransform="matrix(0.2537, -0.96728, 0.95587, 0.2507, 29.70134, 220.55809)" xlink:href="#ai"/><radialGradient id="ax" cx="152.15731" cy="96.37488" r="0.12646" gradientTransform="matrix(0.2537, -0.96728, 0.95587, 0.2507, 21.43325, 219.39254)" xlink:href="#ai"/><radialGradient id="ay" cx="151.21052" cy="94.90696" r="1.11367" gradientTransform="matrix(1, 0, 0, 1, 0, 0)" xlink:href="#ah"/><radialGradient id="az" cx="156.14278" cy="95.77794" r="0.50776" gradientTransform="translate(0 13.91369) scale(1 0.85473)" xlink:href="#al"/><radialGradient id="ba" cx="199.53142" cy="164.49202" r="9.34859" gradientTransform="matrix(0.2537, -0.96728, 0.95587, 0.2507, -8.32268, 316.25659)" xlink:href="#af"/><radialGradient id="bb" cx="320.18324" cy="598.38031" r="6.05686" gradientTransform="translate(-199.51723 -302.32804) scale(1.24415 0.77108)" xlink:href="#ag"/><radialGradient id="bc" cx="204.76618" cy="159.55155" r="0.76558" gradientTransform="matrix(0.2537, -0.96728, 0.95587, 0.2507, 0.3065, 317.61822)" xlink:href="#ah"/><radialGradient id="bd" cx="206.0251" cy="160.60977" r="0.27757" gradientTransform="matrix(0.2537, -0.96728, 0.95587, 0.2507, 0.2345, 319.62887)" xlink:href="#ai"/><radialGradient id="be" cx="195.21221" cy="171.15397" r="0.27757" gradientTransform="matrix(0.2537, -0.96728, 0.95587, 0.2507, -17.91409, 317.07046)" xlink:href="#ai"/><radialGradient id="bf" cx="193.13399" cy="167.93186" r="2.44453" gradientTransform="matrix(1, 0, 0, 1, 0, 0)" xlink:href="#ah"/><radialGradient id="bg" cx="203.96037" cy="169.84368" r="1.11454" gradientTransform="translate(0 24.67324) scale(1 0.85473)" xlink:href="#al"/><radialGradient id="bh" cx="182.58721" cy="184.93134" r="4.97343" gradientTransform="matrix(0.2537, -0.96728, 0.95587, 0.2507, -40.50558, 315.18183)" xlink:href="#af"/><radialGradient id="bi" cx="305.46349" cy="622.38141" r="3.22224" gradientTransform="translate(-197.82387 -297.85716) scale(1.24415 0.77108)" xlink:href="#ag"/><radialGradient id="bj" cx="185.3721" cy="182.30302" r="0.40729" gradientTransform="matrix(0.2537, -0.96728, 0.95587, 0.2507, -35.91488, 315.90621)" xlink:href="#ah"/><radialGradient id="bk" cx="186.04184" cy="182.86599" r="0.14767" gradientTransform="matrix(0.2537, -0.96728, 0.95587, 0.2507, -35.95317, 316.97587)" xlink:href="#ai"/><radialGradient id="bl" cx="180.28941" cy="188.47548" r="0.14767" gradientTransform="matrix(0.2537, -0.96728, 0.95587, 0.2507, -45.6082, 315.6148)" xlink:href="#ai"/><radialGradient id="bm" cx="179.18379" cy="186.76133" r="1.30048" gradientTransform="matrix(1, 0, 0, 1, 0, 0)" xlink:href="#ah"/><radialGradient id="bn" cx="184.94341" cy="187.77841" r="0.59293" gradientTransform="translate(0 27.27862) scale(1 0.85473)" xlink:href="#al"/></defs><g class="c"><path class="d" d="M244.73845,56.2144c0,4.92525-63.58129,8.918-87.37873,8.918-4.58538,0-9.171-.12348-13.75326-.2835q-9.63723-.33654-19.26389-.92134-10.14445-.604-20.27177-1.46531-3.79277-.32859-7.58111-.70568-3.86517-.38983-7.72153-.86128c-1.244-.1538-2.48349-.35229-3.70836-.61993q-1.85293-.40488-3.73487-.65741a21.88928,21.88928,0,0,0-7.12486-.013c-2.3343.451-4.5721,1.27661-6.8807,1.83049a41.21436,41.21436,0,0,1-8.59193,1.12378,7.2253,7.2253,0,0,1,1.60057-1.3976,37.21543,37.21543,0,0,1,4.44277-2.5362c2.14109-1.07576,4.26248-2.36985,6.45989-3.40579a29.55,29.55,0,0,1,7.4349-2.19134c4.44285-.81727,8.93356-1.37894,13.42118-1.88319,5.61074-.63045,11.23526-1.1373,16.86352-1.58239q9.00364-.712,18.02236-1.214,8.44437-.47675,16.89765-.778c4.49442-.15507,8.992-.27435,13.48944-.27435C181.15716,47.29643,244.73845,51.28914,244.73845,56.2144Z"/><polygon class="e" points="40.69 293.266 29.093 299.703 240.149 299.703 258.098 286.572 258.052 284.079 40.69 293.266"/><path class="f" d="M238.96549,258.59864,238.098,59.21419c-12.06243,5.91817-64.2222,5.9182-80.70649,5.9182q-.37368,0-.74734-.0023c-1.07381-.00638-2.14755-.02454-3.2211-.04871q-1.89675-.04269-3.79291-.1081-2.14153-.07191-4.28241-.16232-2.34515-.09783-4.68961-.21138-2.50759-.12069-5.01451-.25528-2.6289-.14064-5.2571-.294-2.70906-.15778-5.4174-.32758-2.74806-.17213-5.49539-.356-2.74593-.18372-5.49107-.3792-2.70269-.19255-5.40447-.39728-2.61826-.19861-5.23554-.41018-2.49276-.20185-4.98433-.41792-2.32611-.20225-4.6508-.42049-2.11839-.19966-4.235-.4179-.9682-.10042-1.93583-.20636a25.61538,25.61538,0,0,1-2.82683-.5885q-.26058-.05868-.52166-.11522a26.37132,26.37132,0,0,0-7.35363-.70634l-1.23823.08427.221,199.207a9.81,9.81,0,0,0,9.43678,12.48993H229.52871A9.80992,9.80992,0,0,0,238.96549,258.59864Z"/><path class="a" d="M244.77024,260.32927V56.21441c0,4.92526-63.5812,8.918-87.37871,8.918q-1.79724,0-3.59432-.02924c-4.7989-.07261-9.59628-.249-14.3905-.4687q-8.51441-.3902-17.01852-.97514-8.76555-.597-17.51591-1.397c-5.3029-.49123-10.60164-1.04461-15.88269-1.73435-3.878-.50649-7.72018-1.49-11.65365-1.44118-3.9553.04913-7.63229,1.67156-11.44574,2.505q-.47637.10416-.95439.20048a19.75525,19.75525,0,0,1-3.84673.58949q-.67953.07353-1.36172.11872c-.22315.015-.86315-.06053-1.01577.13972-.13737.18024.24046.6185.36578.75686a5.197,5.197,0,0,0,.75974.60652c.32625.24652.66943.46711,1.00291.70321l3.44455,2.439,5.5635,3.93934.16454.1165V260.32927A11.53455,11.53455,0,0,0,81.137,274.91253H233.64586A11.53455,11.53455,0,0,0,244.77024,260.32927Z"/><g class="g"><path class="h" d="M240.009,263.90226c0-8.62279-36.85435-11.59375-82.31649-11.59375s-82.31649,3.29833-82.31649,11.92112,8.02532,6.88124,82.31649,7.56925C228.20541,272.4519,240.009,272.525,240.009,263.90226Z"/><rect class="i" x="43.32904" y="119.9831" width="225.4691" height="175.35041"/></g><g class="j"><path class="k" d="M224.55088,188.34458a4.23235,4.23235,0,0,1-4.13637-3.36033l.00084-65.07106a4.23219,4.23219,0,0,1-.0909-.8719V79.8603a4.2314,4.2314,0,1,1,8.4628,0v38.74049l-.09175,64.63966a4.23535,4.23535,0,0,1-4.14462,5.10413Z"/></g><g class="l"><path class="m" d="M89.14269,210.25063a4.65909,4.65909,0,0,1-5.8106-4.54055l.70409-107.72836a4.6546,4.6546,0,0,1,9.309.06116l-.7041,107.72837A4.65535,4.65535,0,0,1,89.14269,210.25063Z"/></g><circle class="n" cx="225.48204" cy="197.39903" r="4.23358"/><circle class="o" cx="225.48204" cy="124.21667" r="4.23358"/><circle class="p" cx="90.71462" cy="154.89365" r="13.58161" transform="translate(-41.9413 33.9656) rotate(-17.29227)"/><circle class="q" cx="90.53978" cy="204.67438" r="0.45269" transform="translate(-56.74632 36.16368) rotate(-17.29226)"/><circle class="r" cx="90.52617" cy="208.53981" r="0.45269" transform="translate(-57.89592 36.33434) rotate(-17.29226)"/><circle class="s" cx="90.53371" cy="206.39399" r="3.39545" transform="translate(-57.25774 36.23959) rotate(-17.29226)"/><line class="t" x1="90.67692" y1="165.62286" x2="90.52617" y2="208.53981"/><circle class="u" cx="90.67692" cy="165.62286" r="9.05434" transform="translate(-45.13221 34.43934) rotate(-17.29226)"/><circle class="v" cx="90.67692" cy="165.62286" r="4.52727" transform="translate(-45.13221 34.43934) rotate(-17.29226)"/><circle class="w" cx="90.67692" cy="165.62286" r="3.77273" transform="translate(-45.13221 34.43934) rotate(-17.29226)"/><polyline class="x" points="90.677 165.623 92.711 180.354 90.677 165.623 88.642 150.891 90.677 165.623 75.946 167.657 90.677 165.623 105.408 163.588 90.677 165.623 98.271 183.285 90.677 165.623 83.083 147.961 90.677 165.623 73.015 173.217 90.677 165.623 108.339 158.029 90.677 165.623 104.334 177.802 90.677 165.623 77.02 153.444 90.677 165.623 78.498 179.28 90.677 165.623 102.856 151.965 90.677 165.623 91.591 178.37 90.677 165.623 89.763 152.876 90.677 165.623 77.93 166.537 90.677 165.623 103.424 164.709 90.677 165.623 91.018 167.096 90.677 165.623 90.336 164.15 90.677 165.623 89.204 165.964 90.677 165.623 92.15 165.282 90.677 165.623 86.412 184.442 90.677 165.623 94.942 146.804 90.677 165.623 71.858 161.358 90.677 165.623 109.496 169.888 90.677 165.623 88.294 171.891 90.677 165.623 93.06 159.355 90.677 165.623 84.409 163.24 90.677 165.623 96.945 168.006 90.677 165.623 94.067 169.324 90.677 165.623 87.287 161.922 90.677 165.623 86.976 169.013 90.677 165.623 94.378 162.233 90.677 165.623 111.323 174.794 90.677 165.623 70.031 156.452 90.677 165.623 81.506 186.269 90.677 165.623 99.848 144.977 90.677 165.623 99.743 182.103 90.677 165.623 81.61 149.143 90.677 165.623 74.197 174.689 90.677 165.623 107.157 156.556 90.677 165.623 100.348 185.216 90.677 165.623 81.006 146.03 90.677 165.623 71.084 175.294 90.677 165.623 110.27 155.952 90.677 165.623 93.542 168.852 90.677 165.623 87.812 162.393 90.677 165.623 87.448 168.488 90.677 165.623 93.906 162.758 90.677 165.623 104.892 172.135 90.677 165.623 76.461 159.111 90.677 165.623 84.165 179.838 90.677 165.623 97.189 151.407 90.677 165.623 89.849 182.324 90.677 165.623 91.505 148.922 90.677 165.623 73.976 164.795 90.677 165.623 107.378 166.451 90.677 165.623 95.555 178.402 90.677 165.623 85.799 152.844 90.677 165.623 77.898 170.501 90.677 165.623 103.456 160.745"/><circle class="y" cx="90.52617" cy="208.53981" r="6.79091" transform="translate(-57.89591 36.33434) rotate(-17.29226)"/><circle class="z" cx="90.55537" cy="200.25225" r="1.93017"/><circle class="aa" cx="90.63391" cy="177.88157" r="1.0781" transform="translate(-48.77801 34.98064) rotate(-17.29226)"/><circle class="ab" cx="90.58598" cy="191.52926" r="0.71405" transform="translate(-52.8369 35.58326) rotate(-17.29226)"/><circle class="ac" cx="90.57836" cy="193.68873" r="1.00413" transform="translate(-53.47914 35.6786) rotate(-17.29226)"/><circle class="ad" cx="90.55675" cy="199.82991" r="1.86426" transform="translate(-55.30555 35.94975) rotate(-17.29226)"/><path class="b" d="M234.6741,255.07313V121.99453h0c0,4.74736-55.69483,8.59581-77.27169,8.59581s-77.29359-3.84845-77.29359-8.59581h0V255.07318c.07618,5.90272,2.7717,11.8329,8.94029,11.8329h136.6847C231.9022,266.90608,234.74709,260.85758,234.6741,255.07313Z"/><g class="ae"><path class="af" d="M162.01945,156.26561c-18.67792,1.50493-37.416,2.26908-56.09287,3.8-19.9941,1.63886-41.801,7.14928-57.53907,20.1983q-.22448.18612-.44662.375c-8.76135,7.42889-15.9763,17.98992-15.41066,29.46293.44337,8.99281,5.68342,17.23709,12.52839,23.08634s15.20215,9.61118,23.5767,12.91789c48.69347,19.22676,104.26913,25.27834,153.42829,7.27559,9.885-3.62,19.52717-8.23322,27.684-14.88789s14.78233-15.49629,17.51361-25.66283c2.81511-10.47851,1.31455-21.88724-3.25779-31.72684-4.33138-9.32105-11.14834-16.47991-13.97464-26.61155-.52426-1.87938-1.108-3.95817-2.75385-5.00613a7.51487,7.51487,0,0,0-3.74218-.85011c-21.64114-1.0035-42.5259,3.5073-63.88286,5.93934C173.78159,155.2439,167.9035,155.79151,162.01945,156.26561Z"/><path class="ag" d="M157.14978,196.16526c-18.41325,3.47587-36.96487,6.22152-55.37429,9.7231C82.06767,209.63689,60.96756,217.4273,46.701,232.0707q-.20349.20886-.40436.42023c-7.92473,8.31554-13.97983,19.58172-12.2015,30.93017,1.39389,8.89519,7.47813,16.53772,14.90443,21.62863s16.13511,7.946,24.81293,10.34657c50.45684,13.95813,106.36086,14.08593,153.33532-9.02515,9.44573-4.64722,18.54468-10.25627,25.95034-17.7379s13.05684-16.9756,14.69534-27.37434c1.68877-10.71784-1.01239-21.90329-6.60174-31.20292-5.29481-8.80954-12.83205-15.20565-16.71614-24.98072-.72049-1.81324-1.52127-3.81845-3.26888-4.68609a7.51486,7.51486,0,0,0-3.8112-.44874c-21.62561,1.2956-41.91472,7.99429-62.89368,12.676C168.73741,193.9028,162.95046,195.07026,157.14978,196.16526Z"/></g><path class="ah" d="M234.6741,121.99452c0,4.74735-55.69477,8.59583-77.27165,8.59583s-77.29363-3.84848-77.29363-8.59583,55.71675-8.59582,77.29363-8.59582S234.6741,117.24718,234.6741,121.99452Z"/><g class="ai"><circle class="aj" cx="127.76213" cy="130.59035" r="14.91016"/><ellipse class="ak" cx="126.71319" cy="122.37212" rx="9.96443" ry="6.00743" transform="translate(-8.90856 9.95366) rotate(-4.34581)"/><circle class="al" cx="135.6943" cy="123.10411" r="1.22104"/><circle class="am" cx="137.60193" cy="124.70762" r="0.4427"/><circle class="an" cx="121.21728" cy="140.68513" r="0.4427"/><path class="ao" d="M115.89885,131.67873c-.1463,2.87815,1.58571,7.02963,4.34722,8.24794"/><circle class="ap" cx="134.47327" cy="138.69966" r="1.35526"/></g><g class="ai"><circle class="aq" cx="171.9803" cy="112.31353" r="8.42633"/><ellipse class="ar" cx="171.38751" cy="107.66908" rx="5.6313" ry="3.39504" transform="translate(-7.66598 13.29664) rotate(-4.34581)"/><circle class="as" cx="176.4631" cy="108.08275" r="0.69006"/><circle class="at" cx="177.54117" cy="108.98896" r="0.25019"/><circle class="au" cx="168.28155" cy="118.0185" r="0.25019"/><path class="av" d="M165.27589,112.92861c-.08268,1.62656.89615,3.97273,2.45679,4.66125"/><circle class="aw" cx="175.77304" cy="116.89643" r="0.76591"/></g><g class="ai"><circle class="ax" cx="154.12505" cy="93.33985" r="4.48279"/><ellipse class="ay" cx="153.80968" cy="90.86901" rx="2.99584" ry="1.80616" transform="translate(-6.44347 11.91635) rotate(-4.34581)"/><circle class="az" cx="156.50988" cy="91.08908" r="0.36711"/><circle class="ba" cx="157.08342" cy="91.57118" r="0.1331"/><circle class="bb" cx="152.15731" cy="96.37488" r="0.1331"/><path class="bc" d="M150.55831,93.66707a2.79181,2.79181,0,0,0,1.307,2.47978"/><circle class="bd" cx="156.14278" cy="95.77794" r="0.40746"/></g><g class="be"><circle class="bf" cx="199.53142" cy="164.49202" r="9.8398"/><ellipse class="bg" cx="198.83918" cy="159.06849" rx="6.57592" ry="3.96454" transform="translate(-11.48189 15.5246) rotate(-4.34581)"/><circle class="bh" cx="204.76618" cy="159.55155" r="0.80581"/><circle class="bi" cx="206.0251" cy="160.60977" r="0.29216"/><circle class="bj" cx="195.21221" cy="171.15397" r="0.29216"/><path class="bk" d="M191.70237,165.21028c-.09655,1.89941,1.04647,4.63914,2.8689,5.44315"/><circle class="bl" cx="203.96037" cy="169.84368" r="0.89439"/></g><g class="be"><circle class="bm" cx="182.58721" cy="184.93134" r="5.23476"/><ellipse class="bn" cx="182.21895" cy="182.04603" rx="3.49838" ry="2.10913" transform="translate(-13.27083 14.33124) rotate(-4.34581)"/><circle class="bo" cx="185.3721" cy="182.30302" r="0.42869"/><circle class="bp" cx="186.04184" cy="182.86599" r="0.15543"/><circle class="bq" cx="180.28941" cy="188.47548" r="0.15543"/><path class="br" d="M178.42217,185.31345a3.26015,3.26015,0,0,0,1.52626,2.89575"/><circle class="bs" cx="184.94341" cy="187.77841" r="0.47582"/></g><polygon class="bt" points="251.429 214.109 55.867 214.109 40.69 293.266 236.252 293.266 251.429 214.109"/><polygon class="bu" points="251.429 214.109 258.052 284.079 255.444 286.124 240.453 286.285 239.345 290.841 236.252 293.266 251.429 214.109"/><path class="bv" d="M116.71045,240.37369a3.54731,3.54731,0,0,1,1.25879-1.55566,2.9,2.9,0,0,1,1.83691-.59863,1.731,1.731,0,0,1,1.62793.88476,2.26554,2.26554,0,0,1-.00488,1.96289q-.86865,2.1548-2.21778,6.08008a3.245,3.245,0,0,1-1.28418,1.65137,2.85342,2.85342,0,0,1-1.94628.64551,1.67334,1.67334,0,0,1-1.4834-.88477,2.1117,2.1117,0,0,1-.14356-1.77148Q115.74267,242.71843,116.71045,240.37369Zm4.01855-9.9082a3.1515,3.1515,0,0,1,1.95508-.7666l12.78223-.0957a1.80452,1.80452,0,0,1,1.82812,1.02832,2.51638,2.51638,0,0,1-.39453,2.3457,63.51186,63.51186,0,0,0-6.416,14.16992,3.18734,3.18734,0,0,1-1.33105,1.65137,2.76257,2.76257,0,0,1-1.94629.64551,1.6383,1.6383,0,0,1-1.43652-.88477,2.00769,2.00769,0,0,1-.09571-1.77148,76.902,76.902,0,0,1,5.07227-12.20606l-9.35449.07129a1.7728,1.7728,0,0,1-1.55957-.69336,2.0949,2.0949,0,0,1-.31055-1.77148A3.28759,3.28759,0,0,1,120.729,230.46549Z"/><path class="bv" d="M137.3667,245.3278a3.168,3.168,0,0,1,1.93554-.79q2.92238-.09375,4.06055-.14356h2.05859a58.598,58.598,0,0,1,6.33106-13.23535,3.07715,3.07715,0,0,1,2.62207-1.55566,1.75849,1.75849,0,0,1,1.82812,1.02832,2.28583,2.28583,0,0,1-.39453,2.3457,63.77732,63.77732,0,0,0-6.35547,14.12207,3.19835,3.19835,0,0,1-1.27148,1.60352,2.99657,2.99657,0,0,1-1.89746.6455h-.28711q-2.31006-.04687-7.876.09571a1.72037,1.72037,0,0,1-1.51269-.69336,1.73851,1.73851,0,0,1-.34278-1.65137A3.04492,3.04492,0,0,1,137.3667,245.3278Z"/><path class="bv" d="M160.69678,234.10221a1.665,1.665,0,0,1-.44629-1.26758,2.608,2.608,0,0,1,.40136-1.48437,3.58978,3.58978,0,0,1,1.25-1.17188,3.17071,3.17071,0,0,1,1.52832-.43164h.88575a2.16429,2.16429,0,0,1,.78125-.14355,2.58906,2.58906,0,0,1,.89453.14355l10.23437-.14355a1.65663,1.65663,0,0,1,1.75489,1.124,2.47378,2.47378,0,0,1-.334,2.29883q-3.27686,4.85742-6.42676,14.12109a3.11257,3.11257,0,0,1-1.25976,1.65137,2.92308,2.92308,0,0,1-1.99414.64551,1.63832,1.63832,0,0,1-1.43653-.88477,2.11164,2.11164,0,0,1-.14257-1.77148A77.88012,77.88012,0,0,1,171.4624,234.653h-5.91113a70.57549,70.57549,0,0,0-5.38867,12.49414,3.24507,3.24507,0,0,1-1.28418,1.65137,2.85344,2.85344,0,0,1-1.94629.64551,1.67334,1.67334,0,0,1-1.4834-.88477,2.1117,2.1117,0,0,1-.14356-1.77148A78.61962,78.61962,0,0,1,160.69678,234.10221Z"/><path class="bv" d="M110.87842,261.46451a2.95519,2.95519,0,0,1,2.06445-.74121,1.66865,1.66865,0,0,1,1.43652.69336,1.76116,1.76116,0,0,1,.30762,1.60352l-2.72949,13.2832h2.37793q.85986-4.95409,5.4541-13.0918a3.345,3.345,0,0,1,1.19141-1.2207,2.82959,2.82959,0,0,1,1.57812-.52637,1.75781,1.75781,0,0,1,1.8125.90918,2.47913,2.47913,0,0,1-.2793,2.27344q-4.27587,7.49268-4.79,11.60938h3.23047a57.94318,57.94318,0,0,1,6.30762-13.23633,3.05949,3.05949,0,0,1,2.59863-1.55567,1.707,1.707,0,0,1,1.82715,1.0293,2.27808,2.27808,0,0,1-.39453,2.34473,55.95669,55.95669,0,0,0-5.69238,12.207,2.17761,2.17761,0,0,1-.28125,2.63183,3.21762,3.21762,0,0,1-2.69922,1.4834h-7.6582q-3.68262.09669-7.46192.09571h-.1914a1.97733,1.97733,0,0,1-1.91993-.502,1.58908,1.58908,0,0,1-.44726-1.79492l3.1914-15.65234A3.19656,3.19656,0,0,1,110.87842,261.46451Z"/><path class="bv" d="M133.38623,277.18815a3.17461,3.17461,0,0,1,1.93652-.78907q2.9209-.09521,4.06055-.14355h2.05859a58.55688,58.55688,0,0,1,6.33008-13.23535,3.07815,3.07815,0,0,1,2.62207-1.55664,1.76126,1.76126,0,0,1,1.8291,1.02929,2.28689,2.28689,0,0,1-.39551,2.34571,63.72611,63.72611,0,0,0-6.35449,14.12109,3.19958,3.19958,0,0,1-1.27148,1.60352,3.00634,3.00634,0,0,1-1.89844.64648h-.28711q-2.30859-.04687-7.876.0957a1.85743,1.85743,0,0,1-1.85449-2.3457A3.04919,3.04919,0,0,1,133.38623,277.18815Z"/><path class="bv" d="M155.56494,265.2692a2.63352,2.63352,0,0,1,.67285-2.48926,3.29667,3.29667,0,0,1,2.50781-1.2207l12.75879-.0957a1.71655,1.71655,0,0,1,1.76465.91015,2.4679,2.4679,0,0,1-.21973,2.22657,1.73222,1.73222,0,0,1-.2373.52539l-8.36035,14.457a3.429,3.429,0,0,1-1.26953,1.24414,3.07567,3.07567,0,0,1-1.58985.47851h-6.24707a1.9641,1.9641,0,0,1-1.47656-.64648,1.82806,1.82806,0,0,1-.36914-1.55566l2.00684-13.61817C155.52783,265.40494,155.54736,265.33365,155.56494,265.2692Zm3.334,11.12988h2.20118l5.83984-10.0039-6.56641.11914Z"/></g></svg>