<svg xmlns="http://www.w3.org/2000/svg" xmlns:xlink="http://www.w3.org/1999/xlink" viewBox="0 0 303.95444 341.11501"><defs><style>.a,.d{opacity:0.72;}.a{fill:url(#a);}.ag,.b,.l{opacity:0.8;}.b{fill:url(#b);}.c{isolation:isolate;}.d{fill:url(#c);}.e{fill:#683c11;fill-opacity:0.51;}.f,.h{mix-blend-mode:multiply;}.f{fill:url(#d);}.g{clip-path:url(#f);}.h{fill:url(#g);}.i{opacity:0.42;fill:url(#h);}.j{opacity:0.54;}.k{fill:url(#i);}.bd,.l{mix-blend-mode:hard-light;}.m{fill:url(#j);}.n,.u,.x{opacity:0.5;}.n{fill:url(#k);}.o{opacity:0.25;fill:url(#l);}.aa,.ab,.ac,.o,.p,.q,.r,.t,.u,.v,.w,.x,.y,.z{mix-blend-mode:screen;}.p{fill:url(#m);}.q{fill:url(#n);}.r{opacity:0.2;fill:url(#o);}.an,.au,.bb,.bj,.bq,.s,.w{fill:none;}.t{opacity:0.15;fill:url(#p);}.u{fill:url(#q);}.v{fill:url(#r);}.w{stroke:#fff;stroke-width:1.69256px;opacity:0.03;}.ag,.w{stroke-miterlimit:10;}.x{fill:url(#s);}.y{fill:url(#t);}.z{fill:url(#u);}.aa{fill:url(#v);}.ab{fill:url(#w);}.ac{fill:url(#x);}.ad{clip-path:url(#z);}.ae,.af,.ah{opacity:0.3;}.ae{fill:url(#aa);}.af{fill:url(#ab);}.ag,.an{stroke-width:0.84628px;}.ag{fill:url(#ac);stroke:url(#ad);}.ai{fill:url(#ae);}.aj,.am,.an,.aq,.at,.au,.ax,.ba,.bb,.bf,.bi,.bj,.bm,.bp,.bq{mix-blend-mode:soft-light;}.aj{fill:url(#af);}.ak{fill:url(#ag);}.al{fill:url(#ah);}.am{fill:url(#ai);}.an,.au,.bb,.bj,.bq{stroke-linecap:round;stroke-linejoin:round;}.an{stroke:url(#aj);}.ao{fill:url(#ak);}.ap{fill:url(#al);}.aq{fill:url(#am);}.ar{fill:url(#an);}.as{fill:url(#ao);}.at{fill:url(#ap);}.au{stroke-width:0.47827px;stroke:url(#aq);}.av{fill:url(#ar);}.aw{fill:url(#as);}.ax{fill:url(#at);}.ay{fill:url(#au);}.az{fill:url(#av);}.ba{fill:url(#aw);}.bb{stroke-width:0.25444px;stroke:url(#ax);}.bc{fill:url(#ay);}.bd{opacity:0.2;}.be{fill:url(#az);}.bf{fill:url(#ba);}.bg{fill:url(#bb);}.bh{fill:url(#bc);}.bi{fill:url(#bd);}.bj{stroke-width:0.55849px;stroke:url(#be);}.bk{fill:url(#bf);}.bl{fill:url(#bg);}.bm{fill:url(#bh);}.bn{fill:url(#bi);}.bo{fill:url(#bj);}.bp{fill:url(#bk);}.bq{stroke-width:0.29712px;stroke:url(#bl);}.br{fill:url(#bm);}.bs{fill:#fff;}.bt{fill:#c6c6c6;}.bu{fill:#3c3c3b;}</style><linearGradient id="a" x1="100.40185" y1="165.56347" x2="194.78243" y2="165.56347" gradientUnits="userSpaceOnUse"><stop offset="0" stop-color="#f5fbff"/><stop offset="0.62567" stop-color="#e9f1f5"/><stop offset="1" stop-color="#c5d9e0"/></linearGradient><linearGradient id="b" x1="214.46617" y1="270.68209" x2="96.36605" y2="114.15705" gradientUnits="userSpaceOnUse"><stop offset="0" stop-color="#bb4b07"/><stop offset="1" stop-color="#f07839"/></linearGradient><linearGradient id="c" x1="148.84004" y1="38.3778" x2="148.84004" y2="64.94849" xlink:href="#a"/><linearGradient id="d" x1="166.69635" y1="61.71976" x2="144.39879" y2="243.33184" gradientUnits="userSpaceOnUse"><stop offset="0" stop-color="#bfc4c7"/><stop offset="1" stop-color="#b1c3c9"/></linearGradient><clipPath id="f"><path class="a" d="M241.85109,260.32927V56.21441c0,4.92526-63.58119,8.918-87.37871,8.918q-1.79724,0-3.59432-.02924c-4.79889-.07261-9.59628-.249-14.3905-.4687q-8.5144-.3902-17.01851-.97514-8.76556-.597-17.51592-1.397c-5.3029-.49123-10.60164-1.04461-15.88269-1.73435-3.878-.50649-7.72017-1.49-11.65365-1.44118-3.9553.04913-7.63229,1.67156-11.44574,2.505q-.47635.10416-.95438.20048a19.75547,19.75547,0,0,1-3.84674.58949q-.67953.07353-1.36172.11872c-.22315.015-.86315-.06053-1.01577.13972-.13737.18024.24046.6185.36578.75686a5.19749,5.19749,0,0,0,.75974.60652c.32625.24652.66943.46711,1.00291.70321l3.44455,2.439,5.56351,3.93934.16453.1165V260.32927a11.53455,11.53455,0,0,0,11.12438,14.58326H230.72671A11.53455,11.53455,0,0,0,241.85109,260.32927Z"/></clipPath><linearGradient id="g" x1="115.81583" y1="163.94125" x2="166.99301" y2="296.11187" gradientUnits="userSpaceOnUse"><stop offset="0" stop-color="#f5f5f5"/><stop offset="1" stop-color="#c3d1d6"/></linearGradient><linearGradient id="h" x1="94.37477" y1="207.6583" x2="208.47305" y2="207.6583" xlink:href="#b"/><radialGradient id="i" cx="221.69791" cy="128.1371" r="64.69946" gradientTransform="translate(235.40045 -93.63482) rotate(89.70298) scale(1 0.11591)" gradientUnits="userSpaceOnUse"><stop offset="0" stop-color="#e6f3ff"/><stop offset="1" stop-color="#b9cbf0" stop-opacity="0"/></radialGradient><radialGradient id="j" cx="-1466.25588" cy="-1202.31087" r="54.27899" gradientTransform="matrix(0.00636, -0.99998, 0.15751, 0.001, 284.11179, -1313.14591)" xlink:href="#i"/><radialGradient id="k" cx="222.66612" cy="197.4173" r="3.82592" gradientTransform="matrix(1, 0, 0, 1, 0, 0)" xlink:href="#i"/><radialGradient id="l" cx="-1746.99392" cy="-1521.16661" r="13.58164" gradientTransform="translate(1834.78931 1676.06036)" gradientUnits="userSpaceOnUse"><stop offset="0.1"/><stop offset="0.11244" stop-color="#080602"/><stop offset="0.16172" stop-color="#231b08"/><stop offset="0.21838" stop-color="#392c0d"/><stop offset="0.28458" stop-color="#4a3910"/><stop offset="0.36644" stop-color="#554213"/><stop offset="0.48125" stop-color="#5c4815"/><stop offset="0.8" stop-color="#5e4915"/><stop offset="1"/></radialGradient><radialGradient id="m" cx="-1761.95797" cy="-1473.6879" r="0.45271" gradientTransform="translate(1849.57853 1678.36235)" gradientUnits="userSpaceOnUse"><stop offset="0" stop-color="#d4e194"/><stop offset="0.05952" stop-color="#afba7a"/><stop offset="0.13651" stop-color="#868f5e"/><stop offset="0.21955" stop-color="#626845"/><stop offset="0.30759" stop-color="#44482f"/><stop offset="0.40211" stop-color="#2b2e1e"/><stop offset="0.50556" stop-color="#181911"/><stop offset="0.62249" stop-color="#0a0b07"/><stop offset="0.76429" stop-color="#020302"/><stop offset="1"/></radialGradient><radialGradient id="n" cx="-1763.11995" cy="-1470.00122" r="0.45271" gradientTransform="translate(1850.72692 1678.5411)" xlink:href="#m"/><radialGradient id="o" cx="-1762.47491" cy="-1472.04781" r="3.39543" gradientTransform="translate(1850.08953 1678.44174)" gradientUnits="userSpaceOnUse"><stop offset="0.05"/><stop offset="0.09242" stop-color="#040a03"/><stop offset="0.29802" stop-color="#183411"/><stop offset="0.48337" stop-color="#25531c"/><stop offset="0.64031" stop-color="#2e6622"/><stop offset="0.75" stop-color="#316d24"/><stop offset="0.78593" stop-color="#4f6e16"/><stop offset="0.83397" stop-color="#716f06"/><stop offset="0.86" stop-color="#7e6f00"/><stop offset="0.88764" stop-color="#7a6c00"/><stop offset="0.91229" stop-color="#706200"/><stop offset="0.93581" stop-color="#5d5200"/><stop offset="0.95863" stop-color="#443c00"/><stop offset="0.98074" stop-color="#231f00"/><stop offset="1"/></radialGradient><radialGradient id="p" cx="-1750.21912" cy="-1510.93355" r="9.05439" gradientTransform="translate(1837.97688 1676.55643)" gradientUnits="userSpaceOnUse"><stop offset="0" stop-color="#200"/><stop offset="0.73" stop-color="#984023"/><stop offset="1" stop-color="#200"/></radialGradient><radialGradient id="q" cx="-1750.21912" cy="-1510.93355" r="4.52725" gradientTransform="translate(1837.97701 1676.55629)" gradientUnits="userSpaceOnUse"><stop offset="0.15" stop-color="#fff"/><stop offset="0.20939" stop-color="#e5d3d3"/><stop offset="0.29044" stop-color="#c49c9e"/><stop offset="0.36051" stop-color="#ad7477"/><stop offset="0.41599" stop-color="#9e5c5f"/><stop offset="0.45" stop-color="#995356"/><stop offset="0.57175" stop-color="#6b3335"/><stop offset="0.69355" stop-color="#431718"/><stop offset="0.79053" stop-color="#2b0606"/><stop offset="0.85" stop-color="#200"/><stop offset="0.85727" stop-color="#260201"/><stop offset="0.8648" stop-color="#330704"/><stop offset="0.87246" stop-color="#471009"/><stop offset="0.8802" stop-color="#641d0f"/><stop offset="0.88801" stop-color="#8a2e18"/><stop offset="0.89577" stop-color="#b74223"/><stop offset="0.9" stop-color="#d34e29"/><stop offset="0.90254" stop-color="#c84927"/><stop offset="0.91417" stop-color="#9c361c"/><stop offset="0.92635" stop-color="#772514"/><stop offset="0.93893" stop-color="#58180c"/><stop offset="0.95205" stop-color="#400d07"/><stop offset="0.96594" stop-color="#2f0603"/><stop offset="0.98111" stop-color="#250101"/><stop offset="1" stop-color="#200"/></radialGradient><radialGradient id="r" cx="-1750.21912" cy="-1510.93355" r="3.7727" gradientTransform="translate(1837.97699 1676.55631)" gradientUnits="userSpaceOnUse"><stop offset="0.15" stop-color="#fff"/><stop offset="0.28237" stop-color="#c2c2c2"/><stop offset="0.42528" stop-color="#888"/><stop offset="0.5636" stop-color="#575757"/><stop offset="0.69361" stop-color="#313131"/><stop offset="0.81336" stop-color="#161616"/><stop offset="0.91921" stop-color="#060606"/><stop offset="1"/></radialGradient><radialGradient id="s" cx="-1763.11995" cy="-1470.00122" r="6.79086" gradientTransform="translate(1850.72695 1678.54106)" gradientUnits="userSpaceOnUse"><stop offset="0.64"/><stop offset="0.71799" stop-color="#000200"/><stop offset="0.74608" stop-color="#020902"/><stop offset="0.76609" stop-color="#051405"/><stop offset="0.78228" stop-color="#082509"/><stop offset="0.79598" stop-color="#0d3b0e"/><stop offset="0.8" stop-color="#0f4310"/><stop offset="0.8131" stop-color="#1e2c0a"/><stop offset="0.82975" stop-color="#2d1605"/><stop offset="0.84569" stop-color="#360901"/><stop offset="0.86" stop-color="#390400"/><stop offset="0.8715" stop-color="#250300"/><stop offset="0.88602" stop-color="#140100"/><stop offset="0.90412" stop-color="#090100"/><stop offset="0.92951" stop-color="#020000"/><stop offset="1"/></radialGradient><radialGradient id="t" cx="-1760.62863" cy="-1477.90551" r="1.93017" gradientTransform="translate(2207.98752 1088.01812) rotate(-17.29226)" gradientUnits="userSpaceOnUse"><stop offset="0.1"/><stop offset="0.24639" stop-color="#1b1103"/><stop offset="0.42619" stop-color="#362207"/><stop offset="0.61009" stop-color="#492e09"/><stop offset="0.79889" stop-color="#54350b"/><stop offset="1" stop-color="#58370b"/></radialGradient><radialGradient id="u" cx="-1753.90404" cy="-1499.24172" r="1.07807" gradientTransform="translate(1841.61879 1677.1233)" gradientUnits="userSpaceOnUse"><stop offset="0.1" stop-color="#192f1b"/><stop offset="0.2285" stop-color="#122214"/><stop offset="0.47516" stop-color="#080f09"/><stop offset="0.72928" stop-color="#020402"/><stop offset="1"/></radialGradient><radialGradient id="v" cx="-1758.00652" cy="-1486.22514" r="0.714" gradientTransform="translate(1845.67333 1677.75443)" xlink:href="#t"/><radialGradient id="w" cx="-1758.65569" cy="-1484.16553" r="1.00408" gradientTransform="translate(1846.31488 1677.8543)" gradientUnits="userSpaceOnUse"><stop offset="0.1"/><stop offset="0.29001" stop-color="#14160e"/><stop offset="0.51699" stop-color="#25291a"/><stop offset="0.75084" stop-color="#303422"/><stop offset="1" stop-color="#333824"/></radialGradient><radialGradient id="x" cx="-1760.50177" cy="-1478.30835" r="1.86428" gradientTransform="translate(1848.13944 1678.13819)" xlink:href="#u"/><clipPath id="z"><path class="b" d="M231.755,255.07313V121.99453h0c0,4.74736-55.69483,8.59581-77.27169,8.59581s-77.29359-3.84845-77.29359-8.59581h0V255.07318c.07619,5.90272,2.7717,11.8329,8.94029,11.8329h136.6847C228.98305,266.90608,231.82794,260.85758,231.755,255.07313Z"/></clipPath><linearGradient id="aa" x1="311.13004" y1="217.33703" x2="64.09593" y2="194.35711" xlink:href="#b"/><linearGradient id="ab" x1="30.86385" y1="242.44061" x2="265.37283" y2="242.44061" xlink:href="#b"/><linearGradient id="ac" x1="291.72516" y1="121.99452" x2="108.57898" y2="121.99452" xlink:href="#b"/><linearGradient id="ad" x1="76.76653" y1="121.99452" x2="232.17809" y2="121.99452" gradientUnits="userSpaceOnUse"><stop offset="0" stop-color="#ff7526"/><stop offset="1" stop-color="#f07839"/></linearGradient><radialGradient id="ae" cx="124.84298" cy="130.59035" r="14.16583" gradientTransform="matrix(0.2537, -0.96728, 0.95587, 0.2507, -31.65716, 218.60931)" gradientUnits="userSpaceOnUse"><stop offset="0" stop-color="#c76735" stop-opacity="0.8"/><stop offset="0.29921" stop-color="#ca6a39" stop-opacity="0.80046"/><stop offset="0.52418" stop-color="#d27444" stop-opacity="0.80193"/><stop offset="0.72493" stop-color="#e08658" stop-opacity="0.8044"/><stop offset="0.91041" stop-color="#f39e74" stop-opacity="0.80787"/><stop offset="1" stop-color="#ffad85" stop-opacity="0.81"/></radialGradient><radialGradient id="af" cx="885.76778" cy="287.74571" r="9.1779" gradientTransform="translate(-978.23517 -99.50161) scale(1.24415 0.77108)" gradientUnits="userSpaceOnUse"><stop offset="0" stop-color="#eb9352"/><stop offset="0.37881" stop-color="#eb9352" stop-opacity="0.99203"/><stop offset="0.51527" stop-color="#ea9353" stop-opacity="0.96313"/><stop offset="0.61253" stop-color="#ea9455" stop-opacity="0.91281"/><stop offset="0.69121" stop-color="#e99557" stop-opacity="0.8409"/><stop offset="0.75863" stop-color="#e7965a" stop-opacity="0.74715"/><stop offset="0.81834" stop-color="#e5975e" stop-opacity="0.63133"/><stop offset="0.87231" stop-color="#e39862" stop-opacity="0.49335"/><stop offset="0.92196" stop-color="#e19a67" stop-opacity="0.33264"/><stop offset="0.96609" stop-color="#de9b6d" stop-opacity="0.15775"/><stop offset="1" stop-color="#dc9d72" stop-opacity="0"/></radialGradient><radialGradient id="ag" cx="132.77515" cy="123.10411" r="1.16008" gradientTransform="matrix(0.2537, -0.96728, 0.95587, 0.2507, -18.58146, 220.67257)" gradientUnits="userSpaceOnUse"><stop offset="0" stop-color="#ebd3c1"/><stop offset="0.37881" stop-color="#ebd3c0" stop-opacity="0.99203"/><stop offset="0.51527" stop-color="#ead1be" stop-opacity="0.96313"/><stop offset="0.61253" stop-color="#eaceba" stop-opacity="0.91281"/><stop offset="0.69121" stop-color="#e9cab4" stop-opacity="0.8409"/><stop offset="0.75863" stop-color="#e7c5ad" stop-opacity="0.74715"/><stop offset="0.81834" stop-color="#e5bfa4" stop-opacity="0.63133"/><stop offset="0.87231" stop-color="#e3b899" stop-opacity="0.49335"/><stop offset="0.92196" stop-color="#e1af8c" stop-opacity="0.33264"/><stop offset="0.96609" stop-color="#dea67e" stop-opacity="0.15775"/><stop offset="1" stop-color="#dc9d72" stop-opacity="0"/></radialGradient><radialGradient id="ah" cx="134.68278" cy="124.70762" r="0.4206" gradientTransform="matrix(0.2537, -0.96728, 0.95587, 0.2507, -18.69055, 223.7193)" gradientUnits="userSpaceOnUse"><stop offset="0" stop-color="#ebd3c1"/><stop offset="0.22496" stop-color="#ebd2c0" stop-opacity="0.98901"/><stop offset="0.3644" stop-color="#ead0bd" stop-opacity="0.95275"/><stop offset="0.48062" stop-color="#e9cdb8" stop-opacity="0.89088"/><stop offset="0.58411" stop-color="#e8c8b1" stop-opacity="0.80322"/><stop offset="0.67914" stop-color="#e6c2a8" stop-opacity="0.68961"/><stop offset="0.7679" stop-color="#e4bb9d" stop-opacity="0.55"/><stop offset="0.85188" stop-color="#e2b290" stop-opacity="0.38414"/><stop offset="0.92991" stop-color="#dfa882" stop-opacity="0.19725"/><stop offset="1" stop-color="#dc9d72" stop-opacity="0"/></radialGradient><radialGradient id="ai" cx="118.29813" cy="140.68513" r="0.4206" gradientTransform="matrix(0.2537, -0.96728, 0.95587, 0.2507, -46.19094, 219.84257)" xlink:href="#ah"/><radialGradient id="aj" cx="115.14901" cy="135.8027" r="3.70417" gradientTransform="matrix(1, 0, 0, 1, 0, 0)" xlink:href="#ag"/><radialGradient id="ak" cx="131.55412" cy="138.69966" r="1.68884" gradientTransform="translate(0 20.14894) scale(1 0.85473)" gradientUnits="userSpaceOnUse"><stop offset="0" stop-color="#eb9352"/><stop offset="0.09168" stop-color="#eb9353" stop-opacity="0.96822"/><stop offset="0.22975" stop-color="#e99456" stop-opacity="0.88033"/><stop offset="0.39704" stop-color="#e7965a" stop-opacity="0.73641"/><stop offset="0.58721" stop-color="#e49861" stop-opacity="0.53628"/><stop offset="0.79369" stop-color="#e09a69" stop-opacity="0.2836"/><stop offset="1" stop-color="#dc9d72" stop-opacity="0"/></radialGradient><radialGradient id="al" cx="169.06115" cy="112.31353" r="8.00568" gradientTransform="matrix(0.2537, -0.96728, 0.95587, 0.2507, 18.8133, 247.6861)" xlink:href="#ae"/><radialGradient id="am" cx="922.4675" cy="275.2469" r="5.1868" gradientTransform="translate(-979.22086 -104.56713) scale(1.24415 0.77108)" xlink:href="#af"/><radialGradient id="an" cx="173.54395" cy="108.08275" r="0.65561" gradientTransform="matrix(0.2537, -0.96728, 0.95587, 0.2507, 26.20291, 248.85213)" xlink:href="#ag"/><radialGradient id="ao" cx="174.62202" cy="108.98896" r="0.2377" gradientTransform="matrix(0.2537, -0.96728, 0.95587, 0.2507, 26.14126, 250.57395)" xlink:href="#ah"/><radialGradient id="ap" cx="165.3624" cy="118.0185" r="0.2377" gradientTransform="matrix(0.2537, -0.96728, 0.95587, 0.2507, 10.59968, 248.38306)" xlink:href="#ah"/><radialGradient id="aq" cx="163.5827" cy="115.25924" r="2.09337" gradientTransform="matrix(1, 0, 0, 1, 0, 0)" xlink:href="#ag"/><radialGradient id="ar" cx="172.85389" cy="116.89643" r="0.95443" gradientTransform="translate(0 16.98157) scale(1 0.85473)" xlink:href="#ak"/><radialGradient id="as" cx="151.2059" cy="93.33985" r="4.25901" gradientTransform="matrix(0.2537, -0.96728, 0.95587, 0.2507, 23.62431, 216.19811)" xlink:href="#ae"/><radialGradient id="at" cx="909.40298" cy="255.20125" r="2.75937" gradientTransform="translate(-980.54444 -105.91048) scale(1.24415 0.77108)" xlink:href="#af"/><radialGradient id="au" cx="153.59074" cy="91.08908" r="0.34878" gradientTransform="matrix(0.2537, -0.96728, 0.95587, 0.2507, 27.55557, 216.81844)" xlink:href="#ag"/><radialGradient id="av" cx="154.16427" cy="91.57118" r="0.12646" gradientTransform="matrix(0.2537, -0.96728, 0.95587, 0.2507, 27.52277, 217.73444)" xlink:href="#ah"/><radialGradient id="aw" cx="149.23817" cy="96.37488" r="0.12646" gradientTransform="matrix(0.2537, -0.96728, 0.95587, 0.2507, 19.25468, 216.56889)" xlink:href="#ah"/><radialGradient id="ax" cx="148.29137" cy="94.90696" r="1.11367" gradientTransform="matrix(1, 0, 0, 1, 0, 0)" xlink:href="#ag"/><radialGradient id="ay" cx="153.22363" cy="95.77794" r="0.50776" gradientTransform="translate(0 13.91369) scale(1 0.85473)" xlink:href="#ak"/><radialGradient id="az" cx="196.61227" cy="164.49202" r="9.34859" gradientTransform="matrix(0.2537, -0.96728, 0.95587, 0.2507, -10.50125, 313.43294)" xlink:href="#ae"/><radialGradient id="ba" cx="941.33812" cy="334.36468" r="6.05686" gradientTransform="translate(-975.24709 -98.752) scale(1.24415 0.77108)" xlink:href="#af"/><radialGradient id="bb" cx="201.84703" cy="159.55155" r="0.76558" gradientTransform="matrix(0.2537, -0.96728, 0.95587, 0.2507, -1.87207, 314.79457)" xlink:href="#ag"/><radialGradient id="bc" cx="203.10595" cy="160.60977" r="0.27757" gradientTransform="matrix(0.2537, -0.96728, 0.95587, 0.2507, -1.94406, 316.80522)" xlink:href="#ah"/><radialGradient id="bd" cx="192.29307" cy="171.15397" r="0.27757" gradientTransform="matrix(0.2537, -0.96728, 0.95587, 0.2507, -20.09266, 314.24682)" xlink:href="#ah"/><radialGradient id="be" cx="190.21484" cy="167.93186" r="2.44453" gradientTransform="matrix(1, 0, 0, 1, 0, 0)" xlink:href="#ag"/><radialGradient id="bf" cx="201.04122" cy="169.84368" r="1.11454" gradientTransform="translate(0 24.67324) scale(1 0.85473)" xlink:href="#ak"/><radialGradient id="bg" cx="179.66807" cy="184.93134" r="4.97343" gradientTransform="matrix(0.2537, -0.96728, 0.95587, 0.2507, -42.68415, 312.35818)" xlink:href="#ae"/><radialGradient id="bh" cx="926.61837" cy="358.36577" r="3.22224" gradientTransform="translate(-973.55373 -94.28112) scale(1.24415 0.77108)" xlink:href="#af"/><radialGradient id="bi" cx="182.45295" cy="182.30302" r="0.40729" gradientTransform="matrix(0.2537, -0.96728, 0.95587, 0.2507, -38.09344, 313.08256)" xlink:href="#ag"/><radialGradient id="bj" cx="183.12269" cy="182.86599" r="0.14767" gradientTransform="matrix(0.2537, -0.96728, 0.95587, 0.2507, -38.13174, 314.15223)" xlink:href="#ah"/><radialGradient id="bk" cx="177.37026" cy="188.47548" r="0.14767" gradientTransform="matrix(0.2537, -0.96728, 0.95587, 0.2507, -47.78677, 312.79116)" xlink:href="#ah"/><radialGradient id="bl" cx="176.26464" cy="186.76133" r="1.30048" gradientTransform="matrix(1, 0, 0, 1, 0, 0)" xlink:href="#ag"/><radialGradient id="bm" cx="182.02426" cy="187.77841" r="0.59293" gradientTransform="translate(0 27.27862) scale(1 0.85473)" xlink:href="#ak"/></defs><g class="c"><path class="d" d="M241.84555,56.2144c0,4.92525-63.5813,8.918-87.37874,8.918-4.58538,0-9.171-.12348-13.75326-.2835q-9.63722-.33654-19.26389-.92134-10.14445-.604-20.27177-1.46531-3.79275-.32859-7.58111-.70568-3.86515-.38983-7.72152-.86128c-1.244-.1538-2.4835-.35229-3.70836-.61993q-1.85295-.40488-3.73487-.65741a21.88928,21.88928,0,0,0-7.12486-.013c-2.33431.451-4.57211,1.27661-6.88071,1.83049a41.21428,41.21428,0,0,1-8.59193,1.12378,7.22553,7.22553,0,0,1,1.60057-1.3976,37.21621,37.21621,0,0,1,4.44277-2.5362c2.1411-1.07576,4.26248-2.36985,6.4599-3.40579a29.54972,29.54972,0,0,1,7.4349-2.19134c4.44284-.81727,8.93355-1.37894,13.42117-1.88319,5.61074-.63045,11.23527-1.1373,16.86353-1.58239q9.00363-.712,18.02235-1.214,8.44438-.47675,16.89766-.778c4.49441-.15507,8.992-.27435,13.48943-.27435C178.26425,47.29643,241.84555,51.28914,241.84555,56.2144Z"/><polygon class="e" points="37.771 293.266 26.174 299.703 237.23 299.703 255.179 286.572 255.133 284.079 37.771 293.266"/><path class="f" d="M236.04634,258.59864l-.86747-199.38445c-12.06243,5.91817-64.2222,5.9182-80.70649,5.9182q-.37368,0-.74734-.0023c-1.07381-.00638-2.14755-.02454-3.2211-.04871q-1.89675-.04269-3.79291-.1081-2.14153-.07191-4.28241-.16232-2.34514-.09783-4.68961-.21138-2.50759-.12069-5.0145-.25528-2.62892-.14064-5.25711-.294-2.70906-.15778-5.4174-.32758-2.74806-.17213-5.49538-.356-2.74595-.18372-5.49108-.3792-2.70267-.19255-5.40446-.39728-2.61828-.19861-5.23555-.41018-2.49274-.20185-4.98433-.41792-2.32611-.20225-4.6508-.42049-2.11839-.19966-4.235-.4179-.96822-.10042-1.93584-.20636a25.61586,25.61586,0,0,1-2.82683-.5885q-.26058-.05868-.52166-.11522a26.37132,26.37132,0,0,0-7.35363-.70634l-1.23823.08427.221,199.207A9.81,9.81,0,0,0,82.335,271.08857H226.60956A9.80991,9.80991,0,0,0,236.04634,258.59864Z"/><path class="a" d="M241.85109,260.32927V56.21441c0,4.92526-63.58119,8.918-87.37871,8.918q-1.79724,0-3.59432-.02924c-4.79889-.07261-9.59628-.249-14.3905-.4687q-8.5144-.3902-17.01851-.97514-8.76556-.597-17.51592-1.397c-5.3029-.49123-10.60164-1.04461-15.88269-1.73435-3.878-.50649-7.72017-1.49-11.65365-1.44118-3.9553.04913-7.63229,1.67156-11.44574,2.505q-.47635.10416-.95438.20048a19.75547,19.75547,0,0,1-3.84674.58949q-.67953.07353-1.36172.11872c-.22315.015-.86315-.06053-1.01577.13972-.13737.18024.24046.6185.36578.75686a5.19749,5.19749,0,0,0,.75974.60652c.32625.24652.66943.46711,1.00291.70321l3.44455,2.439,5.56351,3.93934.16453.1165V260.32927a11.53455,11.53455,0,0,0,11.12438,14.58326H230.72671A11.53455,11.53455,0,0,0,241.85109,260.32927Z"/><g class="g"><path class="h" d="M237.08988,263.90226c0-8.62279-36.85435-11.59375-82.31649-11.59375s-82.31648,3.29833-82.31648,11.92112,8.02531,6.88124,82.31648,7.56925C225.28626,272.4519,237.08988,272.525,237.08988,263.90226Z"/><rect class="i" x="40.40989" y="119.9831" width="225.4691" height="175.35041"/></g><g class="j"><path class="k" d="M221.63173,188.34458a4.23235,4.23235,0,0,1-4.13637-3.36033l.00085-65.07106a4.2322,4.2322,0,0,1-.09091-.8719V79.8603a4.23141,4.23141,0,1,1,8.46281,0v38.74049l-.09175,64.63966a4.23536,4.23536,0,0,1-4.14463,5.10413Z"/></g><g class="l"><path class="m" d="M86.22355,210.25063a4.6591,4.6591,0,0,1-5.81061-4.54055L81.117,97.98172a4.6546,4.6546,0,0,1,9.309.06116l-.7041,107.72837A4.65534,4.65534,0,0,1,86.22355,210.25063Z"/></g><circle class="n" cx="222.56289" cy="197.39903" r="4.23358"/><circle class="o" cx="87.79547" cy="154.89365" r="13.58161" transform="translate(-42.07324 33.0979) rotate(-17.29227)"/><circle class="p" cx="87.62064" cy="204.67438" r="0.45269" transform="translate(-56.87827 35.29597) rotate(-17.29227)"/><circle class="q" cx="87.60702" cy="208.53981" r="0.45269" transform="translate(-58.02786 35.46664) rotate(-17.29227)"/><circle class="r" cx="87.61457" cy="206.39399" r="3.39545" transform="translate(-57.38967 35.37188) rotate(-17.29226)"/><line class="s" x1="87.75777" y1="165.62286" x2="87.60702" y2="208.53981"/><circle class="t" cx="87.75777" cy="165.62286" r="9.05434" transform="translate(-45.26416 33.57164) rotate(-17.29226)"/><circle class="u" cx="87.75777" cy="165.62286" r="4.52727" transform="translate(-45.26415 33.57163) rotate(-17.29226)"/><circle class="v" cx="87.75777" cy="165.62286" r="3.77273" transform="translate(-45.26415 33.57163) rotate(-17.29226)"/><polyline class="w" points="87.758 165.623 89.792 180.354 87.758 165.623 85.723 150.891 87.758 165.623 73.026 167.657 87.758 165.623 102.489 163.588 87.758 165.623 95.352 183.285 87.758 165.623 80.164 147.961 87.758 165.623 70.096 173.217 87.758 165.623 105.42 158.029 87.758 165.623 101.415 177.802 87.758 165.623 74.1 153.444 87.758 165.623 75.578 179.28 87.758 165.623 99.937 151.965 87.758 165.623 88.672 178.37 87.758 165.623 86.843 152.876 87.758 165.623 75.011 166.537 87.758 165.623 100.505 164.709 87.758 165.623 88.099 167.096 87.758 165.623 87.417 164.15 87.758 165.623 86.284 165.964 87.758 165.623 89.231 165.282 87.758 165.623 83.492 184.442 87.758 165.623 92.023 146.804 87.758 165.623 68.938 161.358 87.758 165.623 106.577 169.888 87.758 165.623 85.375 171.891 87.758 165.623 90.141 159.355 87.758 165.623 81.49 163.24 87.758 165.623 94.026 168.006 87.758 165.623 91.148 169.324 87.758 165.623 84.368 161.922 87.758 165.623 84.057 169.013 87.758 165.623 91.459 162.233 87.758 165.623 108.403 174.794 87.758 165.623 67.112 156.452 87.758 165.623 78.587 186.269 87.758 165.623 96.929 144.977 87.758 165.623 96.824 182.103 87.758 165.623 78.691 149.143 87.758 165.623 71.277 174.689 87.758 165.623 104.238 156.556 87.758 165.623 97.429 185.216 87.758 165.623 78.087 146.03 87.758 165.623 68.165 175.294 87.758 165.623 107.351 155.952 87.758 165.623 90.623 168.852 87.758 165.623 84.893 162.393 87.758 165.623 84.528 168.488 87.758 165.623 90.987 162.758 87.758 165.623 101.973 172.135 87.758 165.623 73.542 159.111 87.758 165.623 81.246 179.838 87.758 165.623 94.27 151.407 87.758 165.623 86.93 182.324 87.758 165.623 88.586 148.922 87.758 165.623 71.057 164.795 87.758 165.623 104.459 166.451 87.758 165.623 92.636 178.402 87.758 165.623 82.88 152.844 87.758 165.623 74.979 170.501 87.758 165.623 100.537 160.745"/><circle class="x" cx="87.60702" cy="208.53981" r="6.79091" transform="translate(-58.02786 35.46664) rotate(-17.29226)"/><circle class="y" cx="87.63622" cy="200.25225" r="1.93017"/><circle class="z" cx="87.71476" cy="177.88157" r="1.0781" transform="matrix(0.9548, -0.29725, 0.29725, 0.9548, -48.90995, 34.11294)"/><circle class="aa" cx="87.66684" cy="191.52926" r="0.71405" transform="translate(-52.96884 34.71556) rotate(-17.29226)"/><circle class="ab" cx="87.65921" cy="193.68873" r="1.00413" transform="translate(-53.61108 34.8109) rotate(-17.29226)"/><circle class="ac" cx="87.6376" cy="199.82991" r="1.86426" transform="translate(-55.43749 35.08204) rotate(-17.29226)"/><path class="b" d="M231.755,255.07313V121.99453h0c0,4.74736-55.69483,8.59581-77.27169,8.59581s-77.29359-3.84845-77.29359-8.59581h0V255.07318c.07619,5.90272,2.7717,11.8329,8.94029,11.8329h136.6847C228.98305,266.90608,231.82794,260.85758,231.755,255.07313Z"/><g class="ad"><path class="ae" d="M159.1003,156.26561c-18.67792,1.50493-37.416,2.26908-56.09287,3.8-19.9941,1.63886-41.801,7.14928-57.53907,20.1983q-.22447.18612-.44662.375c-8.76135,7.42889-15.9763,17.98992-15.41066,29.46293.44337,8.99281,5.68342,17.23709,12.52839,23.08634s15.20215,9.61118,23.5767,12.91789c48.69347,19.22676,104.26913,25.27834,153.42829,7.27559,9.885-3.62,19.52717-8.23322,27.684-14.88789s14.78233-15.49629,17.51362-25.66283c2.8151-10.47851,1.31454-21.88724-3.2578-31.72684-4.33138-9.32105-11.14834-16.47991-13.97464-26.61155-.52426-1.87938-1.108-3.95817-2.75385-5.00613a7.51487,7.51487,0,0,0-3.74218-.85011c-21.64114-1.0035-42.5259,3.5073-63.88286,5.93934C170.86244,155.2439,164.98436,155.79151,159.1003,156.26561Z"/><path class="af" d="M154.23063,196.16526c-18.41325,3.47587-36.96487,6.22152-55.37429,9.7231-19.70782,3.74853-40.80793,11.53894-55.0745,26.18234q-.20349.20886-.40436.42023c-7.92473,8.31554-13.97983,19.58172-12.2015,30.93017,1.39389,8.89519,7.47813,16.53772,14.90443,21.62863s16.13511,7.946,24.81293,10.34657c50.45684,13.95813,106.36086,14.08593,153.33532-9.02515,9.44573-4.64722,18.54468-10.25627,25.95034-17.7379s13.05684-16.9756,14.69534-27.37434c1.68877-10.71784-1.01239-21.90329-6.60174-31.20292-5.2948-8.80954-12.83205-15.20565-16.71614-24.98072-.72048-1.81324-1.52127-3.81845-3.26888-4.68609a7.51483,7.51483,0,0,0-3.8112-.44874c-21.62561,1.2956-41.91472,7.99429-62.89368,12.676C165.81826,193.9028,160.03131,195.07026,154.23063,196.16526Z"/></g><path class="ag" d="M231.755,121.99452c0,4.74735-55.69476,8.59583-77.27164,8.59583s-77.29364-3.84848-77.29364-8.59583,55.71676-8.59582,77.29364-8.59582S231.755,117.24718,231.755,121.99452Z"/><g class="ah"><circle class="ai" cx="124.84298" cy="130.59035" r="14.91016"/><ellipse class="aj" cx="123.79404" cy="122.37212" rx="9.96443" ry="6.00743" transform="translate(-8.91695 9.73246) rotate(-4.34581)"/><circle class="ak" cx="132.77515" cy="123.10411" r="1.22104"/><circle class="al" cx="134.68278" cy="124.70762" r="0.4427"/><circle class="am" cx="118.29813" cy="140.68513" r="0.4427"/><path class="an" d="M112.9797,131.67873c-.1463,2.87815,1.58571,7.02963,4.34722,8.24794"/><circle class="ao" cx="131.55412" cy="138.69966" r="1.35526"/></g><g class="ah"><circle class="ap" cx="169.06115" cy="112.31353" r="8.42633"/><ellipse class="aq" cx="168.46836" cy="107.66908" rx="5.6313" ry="3.39504" transform="translate(-7.67437 13.07543) rotate(-4.34581)"/><circle class="ar" cx="173.54395" cy="108.08275" r="0.69006"/><circle class="as" cx="174.62202" cy="108.98896" r="0.25019"/><circle class="at" cx="165.3624" cy="118.0185" r="0.25019"/><path class="au" d="M162.35674,112.92861c-.08268,1.62656.89615,3.97273,2.45679,4.66125"/><circle class="av" cx="172.85389" cy="116.89643" r="0.76591"/></g><g class="ah"><circle class="aw" cx="151.2059" cy="93.33985" r="4.48279"/><ellipse class="ax" cx="150.89053" cy="90.86901" rx="2.99584" ry="1.80616" transform="translate(-6.45187 11.69515) rotate(-4.34581)"/><circle class="ay" cx="153.59074" cy="91.08908" r="0.36711"/><circle class="az" cx="154.16427" cy="91.57118" r="0.1331"/><circle class="ba" cx="149.23817" cy="96.37488" r="0.1331"/><path class="bb" d="M147.63916,93.66707a2.79181,2.79181,0,0,0,1.307,2.47978"/><circle class="bc" cx="153.22363" cy="95.77794" r="0.40746"/></g><g class="bd"><circle class="be" cx="196.61227" cy="164.49202" r="9.8398"/><ellipse class="bf" cx="195.92003" cy="159.06849" rx="6.57592" ry="3.96454" transform="translate(-11.49029 15.3034) rotate(-4.34581)"/><circle class="bg" cx="201.84703" cy="159.55155" r="0.80581"/><circle class="bh" cx="203.10595" cy="160.60977" r="0.29216"/><circle class="bi" cx="192.29307" cy="171.15397" r="0.29216"/><path class="bj" d="M188.78322,165.21028c-.09655,1.89941,1.04647,4.63914,2.86891,5.44315"/><circle class="bk" cx="201.04122" cy="169.84368" r="0.89439"/></g><g class="bd"><circle class="bl" cx="179.66807" cy="184.93134" r="5.23476"/><ellipse class="bm" cx="179.2998" cy="182.04603" rx="3.49838" ry="2.10913" transform="translate(-13.27922 14.11004) rotate(-4.34581)"/><circle class="bn" cx="182.45295" cy="182.30302" r="0.42869"/><circle class="bo" cx="183.12269" cy="182.86599" r="0.15543"/><circle class="bp" cx="177.37026" cy="188.47548" r="0.15543"/><path class="bq" d="M175.503,185.31345a3.26012,3.26012,0,0,0,1.52625,2.89575"/><circle class="br" cx="182.02426" cy="187.77841" r="0.47582"/></g><polygon class="bs" points="248.51 214.109 52.948 214.109 37.771 293.266 233.333 293.266 248.51 214.109"/><polygon class="bt" points="248.51 214.109 255.133 284.079 252.524 286.124 237.534 286.285 236.425 290.841 233.333 293.266 248.51 214.109"/><path class="bu" d="M89.2121,240.37369a3.54515,3.54515,0,0,1,1.25879-1.55468,2.8955,2.8955,0,0,1,1.83692-.59961,1.73178,1.73178,0,0,1,1.62793.88574,2.26554,2.26554,0,0,1-.00489,1.96289q-.86865,2.15478-2.21777,6.0791a3.251,3.251,0,0,1-1.28418,1.65234,2.8633,2.8633,0,0,1-1.94629.64551,1.67606,1.67606,0,0,1-1.4834-.88574,2.11136,2.11136,0,0,1-.14355-1.77148Q88.24433,242.71988,89.2121,240.37369Zm4.01856-9.9082a3.15569,3.15569,0,0,1,1.95508-.76562l12.78222-.09571a1.80455,1.80455,0,0,1,1.82813,1.02832,2.51677,2.51677,0,0,1-.39453,2.34571,63.50073,63.50073,0,0,0-6.416,14.16894,3.19309,3.19309,0,0,1-1.33105,1.65234,2.77172,2.77172,0,0,1-1.94629.64551,1.64109,1.64109,0,0,1-1.43653-.88574,2.00746,2.00746,0,0,1-.0957-1.77148,76.84652,76.84652,0,0,1,5.07227-12.20508l-9.3545.07129a1.7736,1.7736,0,0,1-1.55957-.69434,2.09359,2.09359,0,0,1-.31054-1.77148A3.28753,3.28753,0,0,1,93.23066,230.46549Z"/><path class="bu" d="M114.6457,230.22526a58.52005,58.52005,0,0,1,3.58691-6.36621,3.0485,3.0485,0,0,1,2.62988-1.57911,1.67651,1.67651,0,0,1,1.88379,1.041,2.54227,2.54227,0,0,1-.375,2.40527q-1.20849,1.81934-2.3291,3.92481l8.3418-.04688a1.38958,1.38958,0,0,1,.37207-.04883.76541.76541,0,0,1,.46582.04883,1.59536,1.59536,0,0,1,1.85156,1.65137,2.86616,2.86616,0,0,1-1.51074,2.75195,66.183,66.183,0,0,0-5.75488,13.13965,3.44844,3.44844,0,0,1-1.3291,1.6875,2.97781,2.97781,0,0,1-1.95508.63477,1.6836,1.6836,0,0,1-1.42285-.88672,2.15222,2.15222,0,0,1-.14942-1.79492,79.07688,79.07688,0,0,1,5.05957-12.25391l-8.93554.12012a1.69319,1.69319,0,0,1-1.96387-1.67578A2.91736,2.91736,0,0,1,114.6457,230.22526Z"/><path class="bu" d="M136.925,237.14322a30.50513,30.50513,0,0,1-1.02832-4.165,2.46913,2.46913,0,0,1,.79981-2.25,2.83759,2.83759,0,0,1,2.21875-1.124,1.57122,1.57122,0,0,1,1.85547,1.459A24.20822,24.20822,0,0,0,143.052,238.028a20.01717,20.01717,0,0,0,5.4873-6.48535,3.85332,3.85332,0,0,1,1.26758-1.41309,2.656,2.656,0,0,1,1.60254-.52539,1.69185,1.69185,0,0,1,1.63379.86133,2.115,2.115,0,0,1-.06543,2.00977q-2.04931,4.30956-7.64551,9.07226a43.53966,43.53966,0,0,0,3.00293,3.23047,1.72012,1.72012,0,0,1,.51953,1.53125,2.92824,2.92824,0,0,1-.92285,1.81934,3.23987,3.23987,0,0,1-1.832.93359,2.11141,2.11141,0,0,1-1.64746-.4541,28.31143,28.31143,0,0,1-5.69629-7.34863q-3.27538,3.35155-3.94922,5.84082a3.0538,3.0538,0,0,1-1.16406,1.65039,3.1026,3.1026,0,0,1-1.86328.69433,1.85662,1.85662,0,0,1-1.52246-.74121,1.94138,1.94138,0,0,1-.22266-1.65234Q131.29121,242.57633,136.925,237.14322Z"/><path class="bu" d="M157.84687,230.22526a58.52005,58.52005,0,0,1,3.58691-6.36621,3.04851,3.04851,0,0,1,2.62989-1.57911,1.67652,1.67652,0,0,1,1.88379,1.041,2.54233,2.54233,0,0,1-.375,2.40527q-1.20851,1.81934-2.32911,3.92481l8.3418-.04688a1.38958,1.38958,0,0,1,.37207-.04883.76541.76541,0,0,1,.46582.04883,1.59536,1.59536,0,0,1,1.85156,1.65137,2.86616,2.86616,0,0,1-1.51074,2.75195,66.183,66.183,0,0,0-5.75488,13.13965,3.44844,3.44844,0,0,1-1.3291,1.6875,2.97781,2.97781,0,0,1-1.95508.63477,1.6836,1.6836,0,0,1-1.42285-.88672,2.15222,2.15222,0,0,1-.14942-1.79492,79.07688,79.07688,0,0,1,5.05957-12.25391l-8.93554.12012a1.69319,1.69319,0,0,1-1.96387-1.67578A2.91738,2.91738,0,0,1,157.84687,230.22526Z"/><path class="bu" d="M173.96992,245.92643a65.89262,65.89262,0,0,1,6.10937-7.3711,30.98171,30.98171,0,0,0-.0957-5.57714,2.56807,2.56807,0,0,1,.8125-2.29786,3.28705,3.28705,0,0,1,2.34961-1.07617,1.65032,1.65032,0,0,1,1.87793,1.55469,26.01157,26.01157,0,0,1,.16308,2.84863,26.73529,26.73529,0,0,1,7.93457-4.11621c.13477-.03222.27149-.06445.40821-.0957a8.45334,8.45334,0,0,1,1.67871-.19141h.335a6.88325,6.88325,0,0,1,1.14746.09571,2.91232,2.91232,0,0,1,2.31934,1.60351q.75439,1.72266-.80469,5.09766-3.83351,8.42432-4.03418,10.05273a3.29221,3.29221,0,0,1-1.16406,1.91406,2.99945,2.99945,0,0,1-2.02149.83789h-3.08691c-.00782.03125-.06055.04786-.15723.04786l-.17969.04785h-4.02148a1.65516,1.65516,0,0,1-1.51172-.69336,1.90092,1.90092,0,0,1-.31055-1.77149,3.12839,3.12839,0,0,1,1.23535-1.65234,2.94969,2.94969,0,0,1,1.91309-.78906h3.49512a.18312.18312,0,0,0,.10937-.04883h1.26758q.22413-.74121,3.91895-8.83105a4.93939,4.93939,0,0,0,.36132-.98145,6.02953,6.02953,0,0,0-.7539.04883q-7.62744,2.5371-15.2959,13.2832a3.49246,3.49246,0,0,1-1.77637,1.43555,2.30878,2.30878,0,0,1-1.90136-.04785,1.657,1.657,0,0,1-.92774-1.43653A2.78347,2.78347,0,0,1,173.96992,245.92643Zm14.542,3.13574c.04-.03223.19238-.15137.45508-.3584a3.94024,3.94024,0,0,1-.59864.3584Q188.58516,248.967,188.51191,249.06217Z"/><path class="bu" d="M85.82636,263.25944a3.43219,3.43219,0,0,1,1.27735-1.26856,3.89192,3.89192,0,0,1,1.58886-.47851,1.93736,1.93736,0,0,1,2.00489,1.17285,2.55448,2.55448,0,0,1-.39844,2.53711,43.295,43.295,0,0,0-3.7461,6.77343,3.6293,3.6293,0,0,1-1.59082,1.72364,3.27382,3.27382,0,0,1-2.09277.47851,1.92183,1.92183,0,0,1-1.40527-1.17383,2.42187,2.42187,0,0,1,.06543-2.00976A57.274,57.274,0,0,1,85.82636,263.25944Z"/><path class="bu" d="M95.01874,262.37369a3.06006,3.06006,0,0,1,1.92969-.76562l3.84278-.04785a2.44147,2.44147,0,0,1,.5996-.09571,3.79224,3.79224,0,0,1,.63379.04786l2.40625-.04786a1.66029,1.66029,0,0,1,1.51563.76661,1.72191,1.72191,0,0,1,.33789,1.6748,3.49136,3.49136,0,0,1-1.22168,1.77148,3.26307,3.26307,0,0,1-1.92969.76563h-1.26855a70.38033,70.38033,0,0,0-5.40723,12.56543,3.24715,3.24715,0,0,1-1.28516,1.65137,2.77135,2.77135,0,0,1-1.92187.6455,1.56408,1.56408,0,0,1-1.43555-.88476,1.9597,1.9597,0,0,1-.21484-1.77149,79.69074,79.69074,0,0,1,5.03809-12.08691h-.98047a1.94232,1.94232,0,0,1-1.53614-.69434,2.24978,2.24978,0,0,1-.28613-1.7705A3.2762,3.2762,0,0,1,95.01874,262.37369Z"/><path class="bu" d="M111.798,269.00455a30.55368,30.55368,0,0,1-1.02832-4.166,2.46743,2.46743,0,0,1,.79981-2.249,2.8387,2.8387,0,0,1,2.21875-1.125,1.57186,1.57186,0,0,1,1.85546,1.46,24.2086,24.2086,0,0,0,2.28125,6.96485,20.02651,20.02651,0,0,0,5.48829-6.48633,3.83354,3.83354,0,0,1,1.26757-1.41211,2.65462,2.65462,0,0,1,1.60157-.52637,1.69,1.69,0,0,1,1.63379.86231,2.115,2.115,0,0,1-.06543,2.00976q-2.04933,4.3081-7.64551,9.07129a43.16144,43.16144,0,0,0,3.0039,3.23047,1.72238,1.72238,0,0,1,.51856,1.53223,2.92449,2.92449,0,0,1-.92188,1.81836,3.23335,3.23335,0,0,1-1.833.93359,2.10992,2.10992,0,0,1-1.64746-.4541,28.31122,28.31122,0,0,1-5.69629-7.34863q-3.2754,3.35155-3.94825,5.84082a3.05747,3.05747,0,0,1-1.16406,1.65136,3.10581,3.10581,0,0,1-1.86426.69336,1.85215,1.85215,0,0,1-1.52148-.74121,1.9394,1.9394,0,0,1-.22363-1.65136Q106.16426,274.43766,111.798,269.00455Z"/><path class="bu" d="M128.06464,277.09342a2.83194,2.83194,0,0,1,1.91114-.69434q3.58886,0,6.10449-.0957,3.33984-.04687,4.36914-.04687a66.89277,66.89277,0,0,1,4.35449-9.91016l-7.374.09668-1.18164,2.51269,2.41211.19141a1.72622,1.72622,0,0,1,1.39941.93359,1.95478,1.95478,0,0,1,.12012,1.77149,3.45918,3.45918,0,0,1-1.38086,1.65137,2.98723,2.98723,0,0,1-1.97949.59863l-5.09375-.55078a1.75809,1.75809,0,0,1-1.50489-.98145,2.19425,2.19425,0,0,1,.1416-1.93847l3.29493-6.96485.06054-.04785.0127-.04785a3.81445,3.81445,0,0,1,2.97363-2.05859l12.75879-.09571a1.73273,1.73273,0,0,1,1.76758,1.07715,2.25861,2.25861,0,0,1-.31055,2.29785,54.59746,54.59746,0,0,0-5.791,12.30176,2.13765,2.13765,0,0,1-.30469,2.63281,3.23813,3.23813,0,0,1-2.67481,1.4834h-.23925a4.376,4.376,0,0,1-.9336,0q-2.4419,0-5.58984.04883-2.90918.04688-6.73828.04687a1.77132,1.77132,0,0,1-1.52246-.74121,1.81856,1.81856,0,0,1-.30664-1.69922A3.26971,3.26971,0,0,1,128.06464,277.09342Z"/><path class="bu" d="M154.57343,265.27018a2.633,2.633,0,0,1,.67285-2.48926,3.29664,3.29664,0,0,1,2.50782-1.2207l12.75879-.09571a1.71449,1.71449,0,0,1,1.76464.90918,2.46744,2.46744,0,0,1-.21972,2.22657,1.74861,1.74861,0,0,1-.23731.52636l-8.35937,14.45606a3.43178,3.43178,0,0,1-1.27051,1.24414,3.06912,3.06912,0,0,1-1.58984.47851h-6.24707a1.96666,1.96666,0,0,1-1.47657-.6455,1.829,1.829,0,0,1-.36914-1.55567l2.00684-13.61914C154.53632,265.40494,154.55585,265.33463,154.57343,265.27018Zm3.334,11.1289h2.20117l5.83984-10.0039-6.5664.11914Z"/><path class="bu" d="M178.51679,263.02018a3.15821,3.15821,0,0,1,2.62207-1.55567,1.79923,1.79923,0,0,1,1.87695,1.0293,2.387,2.387,0,0,1-.4082,2.39356,62.618,62.618,0,0,0-6.40234,14.12109,3.24715,3.24715,0,0,1-1.28516,1.65137,2.852,2.852,0,0,1-1.94629.6455,1.67447,1.67447,0,0,1-1.4834-.88476,2.1117,2.1117,0,0,1-.14257-1.77149A67.97013,67.97013,0,0,1,178.51679,263.02018Z"/><path class="bu" d="M188.62324,263.25944a3.43216,3.43216,0,0,1,1.27734-1.26856,3.892,3.892,0,0,1,1.58887-.47851,1.93735,1.93735,0,0,1,2.00488,1.17285,2.55446,2.55446,0,0,1-.39844,2.53711,43.29575,43.29575,0,0,0-3.74609,6.77343,3.6293,3.6293,0,0,1-1.59082,1.72364,3.27384,3.27384,0,0,1-2.09277.47851,1.92186,1.92186,0,0,1-1.40528-1.17383,2.42191,2.42191,0,0,1,.06543-2.00976A57.27516,57.27516,0,0,1,188.62324,263.25944Z"/></g></svg>