<svg xmlns="http://www.w3.org/2000/svg" xmlns:xlink="http://www.w3.org/1999/xlink" viewBox="0 0 303.95444 341.11501"><defs><style>.a,.d{opacity:0.72;}.a{fill:url(#a);}.ad,.b,.j{opacity:0.8;}.b{fill:url(#b);}.c{isolation:isolate;}.d{fill:url(#c);}.e{fill:#683c11;fill-opacity:0.51;}.f,.h{mix-blend-mode:multiply;}.f{fill:url(#d);}.g{clip-path:url(#f);}.h{fill:url(#g);}.i{opacity:0.42;fill:url(#h);}.ba,.j{mix-blend-mode:hard-light;}.k{fill:url(#i);}.l{opacity:0.25;fill:url(#j);}.l,.m,.n,.o,.q,.r,.s,.t,.u,.v,.w,.x,.y,.z{mix-blend-mode:screen;}.m{fill:url(#k);}.n{fill:url(#l);}.o{opacity:0.2;fill:url(#m);}.ak,.ar,.ay,.bg,.bn,.p,.t{fill:none;}.q{opacity:0.15;fill:url(#n);}.bu,.r,.u{opacity:0.5;}.r{fill:url(#o);}.s{fill:url(#p);}.t{stroke:#fff;stroke-width:1.69256px;opacity:0.03;}.ad,.t{stroke-miterlimit:10;}.u{fill:url(#q);}.v{fill:url(#r);}.w{fill:url(#s);}.x{fill:url(#t);}.y{fill:url(#u);}.z{fill:url(#v);}.aa{clip-path:url(#x);}.ab,.ac,.ae{opacity:0.3;}.ab{fill:url(#y);}.ac{fill:url(#z);}.ad,.ak{stroke-width:0.84628px;}.ad{fill:url(#aa);stroke:url(#ab);}.af{fill:url(#ac);}.ag,.aj,.ak,.an,.aq,.ar,.au,.ax,.ay,.bc,.bf,.bg,.bj,.bm,.bn{mix-blend-mode:soft-light;}.ag{fill:url(#ad);}.ah{fill:url(#ae);}.ai{fill:url(#af);}.aj{fill:url(#ag);}.ak,.ar,.ay,.bg,.bn{stroke-linecap:round;stroke-linejoin:round;}.ak{stroke:url(#ah);}.al{fill:url(#ai);}.am{fill:url(#aj);}.an{fill:url(#ak);}.ao{fill:url(#al);}.ap{fill:url(#am);}.aq{fill:url(#an);}.ar{stroke-width:0.47827px;stroke:url(#ao);}.as{fill:url(#ap);}.at{fill:url(#aq);}.au{fill:url(#ar);}.av{fill:url(#as);}.aw{fill:url(#at);}.ax{fill:url(#au);}.ay{stroke-width:0.25444px;stroke:url(#av);}.az{fill:url(#aw);}.ba{opacity:0.2;}.bb{fill:url(#ax);}.bc{fill:url(#ay);}.bd{fill:url(#az);}.be{fill:url(#ba);}.bf{fill:url(#bb);}.bg{stroke-width:0.55849px;stroke:url(#bc);}.bh{fill:url(#bd);}.bi{fill:url(#be);}.bj{fill:url(#bf);}.bk{fill:url(#bg);}.bl{fill:url(#bh);}.bm{fill:url(#bi);}.bn{stroke-width:0.29712px;stroke:url(#bj);}.bo{fill:url(#bk);}.bp{fill:#fff;}.bq{fill:#c6c6c6;}.br{fill:#3c3c3b;}.bs{opacity:0.54;}.bt{fill:url(#bl);}.bu{fill:url(#bm);}</style><linearGradient id="a" x1="99.32344" y1="165.56347" x2="193.70402" y2="165.56347" gradientUnits="userSpaceOnUse"><stop offset="0" stop-color="#f5fbff"/><stop offset="0.62567" stop-color="#e9f1f5"/><stop offset="1" stop-color="#c5d9e0"/></linearGradient><linearGradient id="b" x1="213.38777" y1="270.68209" x2="95.28765" y2="114.15705" gradientUnits="userSpaceOnUse"><stop offset="0" stop-color="#bb077c"/><stop offset="1" stop-color="#f039bf"/></linearGradient><linearGradient id="c" x1="147.75815" y1="38.3778" x2="147.75815" y2="64.94849" xlink:href="#a"/><linearGradient id="d" x1="165.61795" y1="61.71976" x2="143.32038" y2="243.33184" gradientUnits="userSpaceOnUse"><stop offset="0" stop-color="#bfc4c7"/><stop offset="1" stop-color="#b1c3c9"/></linearGradient><clipPath id="f"><path class="a" d="M240.77268,260.32927V56.21441c0,4.92526-63.58119,8.918-87.37871,8.918q-1.79722,0-3.59431-.02924c-4.7989-.07261-9.59629-.249-14.3905-.4687q-8.51441-.3902-17.01852-.97514-8.76555-.597-17.51591-1.397c-5.3029-.49123-10.60164-1.04461-15.88269-1.73435-3.878-.50649-7.72018-1.49-11.65365-1.44118-3.95531.04913-7.6323,1.67156-11.44575,2.505q-.47636.10416-.95438.20048a19.75524,19.75524,0,0,1-3.84674.58949q-.67953.07353-1.36172.11872c-.22315.015-.86314-.06053-1.01577.13972-.13736.18024.24047.6185.36578.75686a5.19749,5.19749,0,0,0,.75974.60652c.32625.24652.66943.46711,1.00292.70321l3.44455,2.439,5.5635,3.93934.16453.1165V260.32927a11.53455,11.53455,0,0,0,11.12438,14.58326H229.6483A11.53455,11.53455,0,0,0,240.77268,260.32927Z"/></clipPath><linearGradient id="g" x1="114.73743" y1="163.94125" x2="165.9146" y2="296.11187" gradientUnits="userSpaceOnUse"><stop offset="0" stop-color="#f5f5f5"/><stop offset="1" stop-color="#c3d1d6"/></linearGradient><linearGradient id="h" x1="93.29637" y1="207.6583" x2="207.39465" y2="207.6583" xlink:href="#b"/><radialGradient id="i" cx="-1438.52958" cy="-1431.41422" r="54.27899" gradientTransform="matrix(0.00636, -0.99998, 0.15751, 0.001, 318.94225, -1285.19076)" gradientUnits="userSpaceOnUse"><stop offset="0" stop-color="#e6f3ff"/><stop offset="1" stop-color="#b9cbf0" stop-opacity="0"/></radialGradient><radialGradient id="j" cx="-1706.24018" cy="-1796.2705" r="13.58164" gradientTransform="translate(1792.95714 1951.16425)" gradientUnits="userSpaceOnUse"><stop offset="0.1"/><stop offset="0.11244" stop-color="#080602"/><stop offset="0.16172" stop-color="#231b08"/><stop offset="0.21838" stop-color="#392c0d"/><stop offset="0.28458" stop-color="#4a3910"/><stop offset="0.36644" stop-color="#554213"/><stop offset="0.48125" stop-color="#5c4815"/><stop offset="0.8" stop-color="#5e4915"/><stop offset="1"/></radialGradient><radialGradient id="k" cx="-1721.20423" cy="-1748.79179" r="0.45271" gradientTransform="translate(1807.74636 1953.46626)" gradientUnits="userSpaceOnUse"><stop offset="0" stop-color="#d4e194"/><stop offset="0.05952" stop-color="#afba7a"/><stop offset="0.13651" stop-color="#868f5e"/><stop offset="0.21955" stop-color="#626845"/><stop offset="0.30759" stop-color="#44482f"/><stop offset="0.40211" stop-color="#2b2e1e"/><stop offset="0.50556" stop-color="#181911"/><stop offset="0.62249" stop-color="#0a0b07"/><stop offset="0.76429" stop-color="#020302"/><stop offset="1"/></radialGradient><radialGradient id="l" cx="-1722.36621" cy="-1745.10511" r="0.45271" gradientTransform="translate(1808.89476 1953.64499)" xlink:href="#k"/><radialGradient id="m" cx="-1721.72117" cy="-1747.15171" r="3.39543" gradientTransform="translate(1808.25726 1953.54576)" gradientUnits="userSpaceOnUse"><stop offset="0.05"/><stop offset="0.09242" stop-color="#040a03"/><stop offset="0.29802" stop-color="#183411"/><stop offset="0.48337" stop-color="#25531c"/><stop offset="0.64031" stop-color="#2e6622"/><stop offset="0.75" stop-color="#316d24"/><stop offset="0.78593" stop-color="#4f6e16"/><stop offset="0.83397" stop-color="#716f06"/><stop offset="0.86" stop-color="#7e6f00"/><stop offset="0.88764" stop-color="#7a6c00"/><stop offset="0.91229" stop-color="#706200"/><stop offset="0.93581" stop-color="#5d5200"/><stop offset="0.95863" stop-color="#443c00"/><stop offset="0.98074" stop-color="#231f00"/><stop offset="1"/></radialGradient><radialGradient id="n" cx="-1709.46539" cy="-1786.03745" r="9.05439" gradientTransform="translate(1796.14468 1951.66038)" gradientUnits="userSpaceOnUse"><stop offset="0" stop-color="#200"/><stop offset="0.73" stop-color="#984023"/><stop offset="1" stop-color="#200"/></radialGradient><radialGradient id="o" cx="-1709.46539" cy="-1786.03745" r="4.52725" gradientTransform="translate(1796.14471 1951.66034)" gradientUnits="userSpaceOnUse"><stop offset="0.15" stop-color="#fff"/><stop offset="0.20939" stop-color="#e5d3d3"/><stop offset="0.29044" stop-color="#c49c9e"/><stop offset="0.36051" stop-color="#ad7477"/><stop offset="0.41599" stop-color="#9e5c5f"/><stop offset="0.45" stop-color="#995356"/><stop offset="0.57175" stop-color="#6b3335"/><stop offset="0.69355" stop-color="#431718"/><stop offset="0.79053" stop-color="#2b0606"/><stop offset="0.85" stop-color="#200"/><stop offset="0.85727" stop-color="#260201"/><stop offset="0.8648" stop-color="#330704"/><stop offset="0.87246" stop-color="#471009"/><stop offset="0.8802" stop-color="#641d0f"/><stop offset="0.88801" stop-color="#8a2e18"/><stop offset="0.89577" stop-color="#b74223"/><stop offset="0.9" stop-color="#d34e29"/><stop offset="0.90254" stop-color="#c84927"/><stop offset="0.91417" stop-color="#9c361c"/><stop offset="0.92635" stop-color="#772514"/><stop offset="0.93893" stop-color="#58180c"/><stop offset="0.95205" stop-color="#400d07"/><stop offset="0.96594" stop-color="#2f0603"/><stop offset="0.98111" stop-color="#250101"/><stop offset="1" stop-color="#200"/></radialGradient><radialGradient id="p" cx="-1709.46539" cy="-1786.03745" r="3.7727" gradientTransform="translate(1796.1447 1951.66036)" gradientUnits="userSpaceOnUse"><stop offset="0.15" stop-color="#fff"/><stop offset="0.28237" stop-color="#c2c2c2"/><stop offset="0.42528" stop-color="#888"/><stop offset="0.5636" stop-color="#575757"/><stop offset="0.69361" stop-color="#313131"/><stop offset="0.81336" stop-color="#161616"/><stop offset="0.91921" stop-color="#060606"/><stop offset="1"/></radialGradient><radialGradient id="q" cx="-1722.36621" cy="-1745.10511" r="6.79086" gradientTransform="translate(1808.89484 1953.64492)" gradientUnits="userSpaceOnUse"><stop offset="0.64"/><stop offset="0.71799" stop-color="#000200"/><stop offset="0.74608" stop-color="#020902"/><stop offset="0.76609" stop-color="#051405"/><stop offset="0.78228" stop-color="#082509"/><stop offset="0.79598" stop-color="#0d3b0e"/><stop offset="0.8" stop-color="#0f4310"/><stop offset="0.8131" stop-color="#1e2c0a"/><stop offset="0.82975" stop-color="#2d1605"/><stop offset="0.84569" stop-color="#360901"/><stop offset="0.86" stop-color="#390400"/><stop offset="0.8715" stop-color="#250300"/><stop offset="0.88602" stop-color="#140100"/><stop offset="0.90412" stop-color="#090100"/><stop offset="0.92951" stop-color="#020000"/><stop offset="1"/></radialGradient><radialGradient id="r" cx="-1719.87489" cy="-1753.0094" r="1.93017" gradientTransform="translate(2249.77092 1362.80146) rotate(-17.29226)" gradientUnits="userSpaceOnUse"><stop offset="0.1"/><stop offset="0.24639" stop-color="#1b1103"/><stop offset="0.42619" stop-color="#362207"/><stop offset="0.61009" stop-color="#492e09"/><stop offset="0.79889" stop-color="#54350b"/><stop offset="1" stop-color="#58370b"/></radialGradient><radialGradient id="s" cx="-1713.1503" cy="-1774.34561" r="1.07807" gradientTransform="translate(1799.78664 1952.22719)" gradientUnits="userSpaceOnUse"><stop offset="0.1" stop-color="#192f1b"/><stop offset="0.2285" stop-color="#122214"/><stop offset="0.47516" stop-color="#080f09"/><stop offset="0.72928" stop-color="#020402"/><stop offset="1"/></radialGradient><radialGradient id="t" cx="-1717.25278" cy="-1761.32903" r="0.714" gradientTransform="translate(1803.84123 1952.85826)" xlink:href="#r"/><radialGradient id="u" cx="-1717.90195" cy="-1759.26942" r="1.00408" gradientTransform="translate(1804.48274 1952.95818)" gradientUnits="userSpaceOnUse"><stop offset="0.1"/><stop offset="0.29001" stop-color="#14160e"/><stop offset="0.51699" stop-color="#25291a"/><stop offset="0.75084" stop-color="#303422"/><stop offset="1" stop-color="#333824"/></radialGradient><radialGradient id="v" cx="-1719.74803" cy="-1753.41224" r="1.86428" gradientTransform="translate(1806.30717 1953.24221)" xlink:href="#s"/><clipPath id="x"><path class="b" d="M230.67655,255.07313V121.99453h0c0,4.74736-55.69483,8.59581-77.27169,8.59581s-77.29359-3.84845-77.29359-8.59581h0V255.07318c.07618,5.90272,2.77169,11.8329,8.94029,11.8329h136.6847C227.90464,266.90608,230.74954,260.85758,230.67655,255.07313Z"/></clipPath><linearGradient id="y" x1="310.05164" y1="217.33703" x2="63.01752" y2="194.35711" xlink:href="#b"/><linearGradient id="z" x1="29.78545" y1="242.44061" x2="264.29443" y2="242.44061" xlink:href="#b"/><linearGradient id="aa" x1="290.64676" y1="121.99452" x2="107.50058" y2="121.99452" xlink:href="#b"/><linearGradient id="ab" x1="75.68813" y1="121.99452" x2="231.09969" y2="121.99452" gradientUnits="userSpaceOnUse"><stop offset="0" stop-color="#ff26ba"/><stop offset="1" stop-color="#f039bf"/></linearGradient><radialGradient id="ac" cx="123.76457" cy="130.59035" r="14.16583" gradientTransform="matrix(0.2537, -0.96728, 0.95587, 0.2507, -32.46198, 217.56619)" gradientUnits="userSpaceOnUse"><stop offset="0" stop-color="#c735a0" stop-opacity="0.8"/><stop offset="0.29921" stop-color="#ca39a3" stop-opacity="0.80046"/><stop offset="0.52418" stop-color="#d244ad" stop-opacity="0.80193"/><stop offset="0.72493" stop-color="#e058be" stop-opacity="0.8044"/><stop offset="0.91041" stop-color="#f374d6" stop-opacity="0.80787"/><stop offset="1" stop-color="#ff85e4" stop-opacity="0.81"/></radialGradient><radialGradient id="ad" cx="1068.44945" cy="210.00569" r="9.1779" gradientTransform="translate(-1206.59722 -39.55816) scale(1.24415 0.77108)" gradientUnits="userSpaceOnUse"><stop offset="0" stop-color="#eb52a4"/><stop offset="0.37881" stop-color="#eb52a4" stop-opacity="0.99203"/><stop offset="0.51527" stop-color="#ea53a4" stop-opacity="0.96313"/><stop offset="0.61253" stop-color="#ea55a5" stop-opacity="0.91281"/><stop offset="0.69121" stop-color="#e957a6" stop-opacity="0.8409"/><stop offset="0.75863" stop-color="#e75aa7" stop-opacity="0.74715"/><stop offset="0.81834" stop-color="#e55ea8" stop-opacity="0.63133"/><stop offset="0.87231" stop-color="#e362aa" stop-opacity="0.49335"/><stop offset="0.92196" stop-color="#e167ab" stop-opacity="0.33264"/><stop offset="0.96609" stop-color="#de6dad" stop-opacity="0.15775"/><stop offset="1" stop-color="#dc72af" stop-opacity="0"/></radialGradient><radialGradient id="ae" cx="131.69675" cy="123.10411" r="1.16008" gradientTransform="matrix(0.2537, -0.96728, 0.95587, 0.2507, -19.38628, 219.62945)" gradientUnits="userSpaceOnUse"><stop offset="0" stop-color="#ebc1d6"/><stop offset="0.37881" stop-color="#ebc0d6" stop-opacity="0.99203"/><stop offset="0.51527" stop-color="#eabed5" stop-opacity="0.96313"/><stop offset="0.61253" stop-color="#eabad3" stop-opacity="0.91281"/><stop offset="0.69121" stop-color="#e9b4d0" stop-opacity="0.8409"/><stop offset="0.75863" stop-color="#e7adcc" stop-opacity="0.74715"/><stop offset="0.81834" stop-color="#e5a4c8" stop-opacity="0.63133"/><stop offset="0.87231" stop-color="#e399c2" stop-opacity="0.49335"/><stop offset="0.92196" stop-color="#e18cbc" stop-opacity="0.33264"/><stop offset="0.96609" stop-color="#de7eb5" stop-opacity="0.15775"/><stop offset="1" stop-color="#dc72af" stop-opacity="0"/></radialGradient><radialGradient id="af" cx="133.60438" cy="124.70762" r="0.4206" gradientTransform="matrix(0.2537, -0.96728, 0.95587, 0.2507, -19.49537, 222.67617)" gradientUnits="userSpaceOnUse"><stop offset="0" stop-color="#ebc1d6"/><stop offset="0.22496" stop-color="#ebc0d6" stop-opacity="0.98901"/><stop offset="0.3644" stop-color="#eabdd4" stop-opacity="0.95275"/><stop offset="0.48062" stop-color="#e9b8d2" stop-opacity="0.89088"/><stop offset="0.58411" stop-color="#e8b1ce" stop-opacity="0.80322"/><stop offset="0.67914" stop-color="#e6a8ca" stop-opacity="0.68961"/><stop offset="0.7679" stop-color="#e49dc4" stop-opacity="0.55"/><stop offset="0.85188" stop-color="#e290be" stop-opacity="0.38414"/><stop offset="0.92991" stop-color="#df82b7" stop-opacity="0.19725"/><stop offset="1" stop-color="#dc72af" stop-opacity="0"/></radialGradient><radialGradient id="ag" cx="117.21973" cy="140.68513" r="0.4206" gradientTransform="matrix(0.2537, -0.96728, 0.95587, 0.2507, -46.99575, 218.79944)" xlink:href="#af"/><radialGradient id="ah" cx="114.07061" cy="135.8027" r="3.70417" gradientTransform="matrix(1, 0, 0, 1, 0, 0)" xlink:href="#ae"/><radialGradient id="ai" cx="130.47571" cy="138.69966" r="1.68884" gradientTransform="translate(0 20.14894) scale(1 0.85473)" gradientUnits="userSpaceOnUse"><stop offset="0" stop-color="#eb52a4"/><stop offset="0.09168" stop-color="#eb53a4" stop-opacity="0.96822"/><stop offset="0.22975" stop-color="#e956a5" stop-opacity="0.88033"/><stop offset="0.39704" stop-color="#e75aa7" stop-opacity="0.73641"/><stop offset="0.58721" stop-color="#e461a9" stop-opacity="0.53628"/><stop offset="0.79369" stop-color="#e069ac" stop-opacity="0.2836"/><stop offset="1" stop-color="#dc72af" stop-opacity="0"/></radialGradient><radialGradient id="aj" cx="167.98275" cy="112.31353" r="8.00568" gradientTransform="matrix(0.2537, -0.96728, 0.95587, 0.2507, 18.00849, 246.64297)" xlink:href="#ac"/><radialGradient id="ak" cx="1105.14917" cy="197.50687" r="5.1868" gradientTransform="translate(-1207.58292 -44.62368) scale(1.24415 0.77108)" xlink:href="#ad"/><radialGradient id="al" cx="172.46554" cy="108.08275" r="0.65561" gradientTransform="matrix(0.2537, -0.96728, 0.95587, 0.2507, 25.39809, 247.80901)" xlink:href="#ae"/><radialGradient id="am" cx="173.54362" cy="108.98896" r="0.2377" gradientTransform="matrix(0.2537, -0.96728, 0.95587, 0.2507, 25.33644, 249.53083)" xlink:href="#af"/><radialGradient id="an" cx="164.28399" cy="118.0185" r="0.2377" gradientTransform="matrix(0.2537, -0.96728, 0.95587, 0.2507, 9.79487, 247.33994)" xlink:href="#af"/><radialGradient id="ao" cx="162.5043" cy="115.25924" r="2.09337" gradientTransform="matrix(1, 0, 0, 1, 0, 0)" xlink:href="#ae"/><radialGradient id="ap" cx="171.77549" cy="116.89643" r="0.95443" gradientTransform="translate(0 16.98157) scale(1 0.85473)" xlink:href="#ai"/><radialGradient id="aq" cx="150.12749" cy="93.33985" r="4.25901" gradientTransform="matrix(0.2537, -0.96728, 0.95587, 0.2507, 22.81949, 215.15499)" xlink:href="#ac"/><radialGradient id="ar" cx="1092.08465" cy="177.46122" r="2.75937" gradientTransform="translate(-1208.9065 -45.96703) scale(1.24415 0.77108)" xlink:href="#ad"/><radialGradient id="as" cx="152.51233" cy="91.08908" r="0.34878" gradientTransform="matrix(0.2537, -0.96728, 0.95587, 0.2507, 26.75075, 215.77531)" xlink:href="#ae"/><radialGradient id="at" cx="153.08587" cy="91.57118" r="0.12646" gradientTransform="matrix(0.2537, -0.96728, 0.95587, 0.2507, 26.71795, 216.69132)" xlink:href="#af"/><radialGradient id="au" cx="148.15976" cy="96.37488" r="0.12646" gradientTransform="matrix(0.2537, -0.96728, 0.95587, 0.2507, 18.44986, 215.52577)" xlink:href="#af"/><radialGradient id="av" cx="147.21297" cy="94.90696" r="1.11367" gradientTransform="matrix(1, 0, 0, 1, 0, 0)" xlink:href="#ae"/><radialGradient id="aw" cx="152.14522" cy="95.77794" r="0.50776" gradientTransform="translate(0 13.91369) scale(1 0.85473)" xlink:href="#ai"/><radialGradient id="ax" cx="195.53387" cy="164.49202" r="9.34859" gradientTransform="matrix(0.2537, -0.96728, 0.95587, 0.2507, -11.30606, 312.38982)" xlink:href="#ac"/><radialGradient id="ay" cx="1124.01979" cy="256.62465" r="6.05686" gradientTransform="translate(-1203.60914 -38.80855) scale(1.24415 0.77108)" xlink:href="#ad"/><radialGradient id="az" cx="200.76862" cy="159.55155" r="0.76558" gradientTransform="matrix(0.2537, -0.96728, 0.95587, 0.2507, -2.67689, 313.75145)" xlink:href="#ae"/><radialGradient id="ba" cx="202.02754" cy="160.60977" r="0.27757" gradientTransform="matrix(0.2537, -0.96728, 0.95587, 0.2507, -2.74888, 315.7621)" xlink:href="#af"/><radialGradient id="bb" cx="191.21466" cy="171.15397" r="0.27757" gradientTransform="matrix(0.2537, -0.96728, 0.95587, 0.2507, -20.89748, 313.20369)" xlink:href="#af"/><radialGradient id="bc" cx="189.13643" cy="167.93186" r="2.44453" gradientTransform="matrix(1, 0, 0, 1, 0, 0)" xlink:href="#ae"/><radialGradient id="bd" cx="199.96281" cy="169.84368" r="1.11454" gradientTransform="translate(0 24.67324) scale(1 0.85473)" xlink:href="#ai"/><radialGradient id="be" cx="178.58966" cy="184.93134" r="4.97343" gradientTransform="matrix(0.2537, -0.96728, 0.95587, 0.2507, -43.48897, 311.31506)" xlink:href="#ac"/><radialGradient id="bf" cx="1109.30004" cy="280.62575" r="3.22224" gradientTransform="translate(-1201.91578 -34.33767) scale(1.24415 0.77108)" xlink:href="#ad"/><radialGradient id="bg" cx="181.37454" cy="182.30302" r="0.40729" gradientTransform="matrix(0.2537, -0.96728, 0.95587, 0.2507, -38.89826, 312.03944)" xlink:href="#ae"/><radialGradient id="bh" cx="182.04429" cy="182.86599" r="0.14767" gradientTransform="matrix(0.2537, -0.96728, 0.95587, 0.2507, -38.93656, 313.1091)" xlink:href="#af"/><radialGradient id="bi" cx="176.29185" cy="188.47548" r="0.14767" gradientTransform="matrix(0.2537, -0.96728, 0.95587, 0.2507, -48.59158, 311.74804)" xlink:href="#af"/><radialGradient id="bj" cx="175.18624" cy="186.76133" r="1.30048" gradientTransform="matrix(1, 0, 0, 1, 0, 0)" xlink:href="#ae"/><radialGradient id="bk" cx="180.94585" cy="187.77841" r="0.59293" gradientTransform="translate(0 27.27862) scale(1 0.85473)" xlink:href="#ai"/><radialGradient id="bl" cx="217.21343" cy="128.1371" r="64.69946" gradientTransform="translate(230.93922 -89.15041) rotate(89.70298) scale(1 0.11591)" xlink:href="#i"/><radialGradient id="bm" cx="218.18165" cy="197.4173" r="3.82592" gradientTransform="matrix(1, 0, 0, 1, 0, 0)" xlink:href="#i"/></defs><g class="c"><path class="d" d="M240.76365,56.2144c0,4.92525-63.58129,8.918-87.37873,8.918-4.58538,0-9.171-.12348-13.75326-.2835q-9.63723-.33654-19.26389-.92134-10.14445-.604-20.27177-1.46531-3.79277-.32859-7.58111-.70568-3.86517-.38983-7.72153-.86128c-1.244-.1538-2.48349-.35229-3.70836-.61993q-1.85293-.40488-3.73487-.65741a21.88928,21.88928,0,0,0-7.12486-.013c-2.3343.451-4.5721,1.27661-6.8807,1.83049a41.21436,41.21436,0,0,1-8.59193,1.12378,7.2253,7.2253,0,0,1,1.60057-1.3976,37.21543,37.21543,0,0,1,4.44277-2.5362c2.14109-1.07576,4.26248-2.36985,6.45989-3.40579a29.55,29.55,0,0,1,7.4349-2.19134c4.44285-.81727,8.93356-1.37894,13.42118-1.88319,5.61074-.63045,11.23526-1.1373,16.86352-1.58239q9.00365-.712,18.02236-1.214,8.44437-.47675,16.89765-.778c4.49442-.15507,8.992-.27435,13.48944-.27435C177.18236,47.29643,240.76365,51.28914,240.76365,56.2144Z"/><polygon class="e" points="36.693 293.266 25.095 299.703 236.151 299.703 254.1 286.572 254.054 284.079 36.693 293.266"/><path class="f" d="M234.96793,258.59864l-.86746-199.38445c-12.06243,5.91817-64.2222,5.9182-80.7065,5.9182q-.37366,0-.74733-.0023c-1.07382-.00638-2.14755-.02454-3.2211-.04871q-1.89677-.04269-3.79291-.1081-2.14154-.07191-4.28241-.16232-2.34515-.09783-4.68961-.21138-2.50761-.12069-5.01451-.25528-2.6289-.14064-5.2571-.294-2.70906-.15778-5.4174-.32758-2.74807-.17213-5.49539-.356-2.74594-.18372-5.49108-.3792-2.70267-.19255-5.40446-.39728-2.61828-.19861-5.23554-.41018-2.49276-.20185-4.98433-.41792-2.32612-.20225-4.65081-.42049-2.11839-.19966-4.235-.4179-.96821-.10042-1.93584-.20636a25.61569,25.61569,0,0,1-2.82682-.5885q-.2606-.05868-.52166-.11522a26.37135,26.37135,0,0,0-7.35364-.70634l-1.23823.08427.221,199.207a9.81,9.81,0,0,0,9.43677,12.48993H225.53116A9.80991,9.80991,0,0,0,234.96793,258.59864Z"/><path class="a" d="M240.77268,260.32927V56.21441c0,4.92526-63.58119,8.918-87.37871,8.918q-1.79722,0-3.59431-.02924c-4.7989-.07261-9.59629-.249-14.3905-.4687q-8.51441-.3902-17.01852-.97514-8.76555-.597-17.51591-1.397c-5.3029-.49123-10.60164-1.04461-15.88269-1.73435-3.878-.50649-7.72018-1.49-11.65365-1.44118-3.95531.04913-7.6323,1.67156-11.44575,2.505q-.47636.10416-.95438.20048a19.75524,19.75524,0,0,1-3.84674.58949q-.67953.07353-1.36172.11872c-.22315.015-.86314-.06053-1.01577.13972-.13736.18024.24047.6185.36578.75686a5.19749,5.19749,0,0,0,.75974.60652c.32625.24652.66943.46711,1.00292.70321l3.44455,2.439,5.5635,3.93934.16453.1165V260.32927a11.53455,11.53455,0,0,0,11.12438,14.58326H229.6483A11.53455,11.53455,0,0,0,240.77268,260.32927Z"/><g class="g"><path class="h" d="M236.01147,263.90226c0-8.62279-36.85434-11.59375-82.31648-11.59375S71.3785,255.60684,71.3785,264.22963s8.02532,6.88124,82.31649,7.56925C224.20786,272.4519,236.01147,272.525,236.01147,263.90226Z"/><rect class="i" x="39.33148" y="119.9831" width="225.4691" height="175.35041"/></g><g class="j"><path class="k" d="M85.14514,210.25063a4.6591,4.6591,0,0,1-5.81061-4.54055l.7041-107.72836a4.6546,4.6546,0,0,1,9.309.06116l-.7041,107.72837A4.65536,4.65536,0,0,1,85.14514,210.25063Z"/></g><circle class="l" cx="86.71706" cy="154.89365" r="13.58161" transform="translate(-42.12199 32.77735) rotate(-17.29227)"/><circle class="m" cx="86.54223" cy="204.67438" r="0.45269" transform="translate(-56.92701 34.97542) rotate(-17.29227)"/><circle class="n" cx="86.52862" cy="208.53981" r="0.45269" transform="matrix(0.9548, -0.29725, 0.29725, 0.9548, -58.07661, 35.14609)"/><circle class="o" cx="86.53616" cy="206.39399" r="3.39545" transform="translate(-57.43843 35.05134) rotate(-17.29227)"/><line class="p" x1="86.67937" y1="165.62286" x2="86.52862" y2="208.53981"/><circle class="q" cx="86.67937" cy="165.62286" r="9.05434" transform="translate(-45.3129 33.25109) rotate(-17.29227)"/><circle class="r" cx="86.67937" cy="165.62286" r="4.52727" transform="translate(-45.3129 33.25109) rotate(-17.29226)"/><circle class="s" cx="86.67937" cy="165.62286" r="3.77273" transform="translate(-45.3129 33.25109) rotate(-17.29226)"/><polyline class="t" points="86.679 165.623 88.714 180.354 86.679 165.623 84.645 150.891 86.679 165.623 71.948 167.657 86.679 165.623 101.411 163.588 86.679 165.623 94.273 183.285 86.679 165.623 79.085 147.961 86.679 165.623 69.017 173.217 86.679 165.623 104.341 158.029 86.679 165.623 100.337 177.802 86.679 165.623 73.022 153.444 86.679 165.623 74.5 179.28 86.679 165.623 98.859 151.965 86.679 165.623 87.594 178.37 86.679 165.623 85.765 152.876 86.679 165.623 73.933 166.537 86.679 165.623 99.426 164.709 86.679 165.623 87.02 167.096 86.679 165.623 86.339 164.15 86.679 165.623 85.206 165.964 86.679 165.623 88.153 165.282 86.679 165.623 82.414 184.442 86.679 165.623 90.945 146.804 86.679 165.623 67.86 161.358 86.679 165.623 105.499 169.888 86.679 165.623 84.296 171.891 86.679 165.623 89.063 159.355 86.679 165.623 80.411 163.24 86.679 165.623 92.947 168.006 86.679 165.623 90.069 169.324 86.679 165.623 83.289 161.922 86.679 165.623 82.978 169.013 86.679 165.623 90.38 162.233 86.679 165.623 107.325 174.794 86.679 165.623 66.034 156.452 86.679 165.623 77.508 186.269 86.679 165.623 95.851 144.977 86.679 165.623 95.746 182.103 86.679 165.623 77.613 149.143 86.679 165.623 70.199 174.689 86.679 165.623 103.16 156.556 86.679 165.623 96.351 185.216 86.679 165.623 77.008 146.03 86.679 165.623 67.086 175.294 86.679 165.623 106.272 155.952 86.679 165.623 89.544 168.852 86.679 165.623 83.815 162.393 86.679 165.623 83.45 168.488 86.679 165.623 89.909 162.758 86.679 165.623 100.895 172.135 86.679 165.623 72.464 159.111 86.679 165.623 80.168 179.838 86.679 165.623 93.191 151.407 86.679 165.623 85.851 182.324 86.679 165.623 87.507 148.922 86.679 165.623 69.979 164.795 86.679 165.623 103.38 166.451 86.679 165.623 91.557 178.402 86.679 165.623 81.801 152.844 86.679 165.623 73.9 170.501 86.679 165.623 99.458 160.745"/><circle class="u" cx="86.52862" cy="208.53981" r="6.79091" transform="translate(-58.0766 35.14608) rotate(-17.29226)"/><circle class="v" cx="86.55782" cy="200.25225" r="1.93017"/><circle class="w" cx="86.63636" cy="177.88157" r="1.0781" transform="matrix(0.9548, -0.29725, 0.29725, 0.9548, -48.95869, 33.79239)"/><circle class="x" cx="86.58843" cy="191.52926" r="0.71405" transform="translate(-53.01758 34.395) rotate(-17.29226)"/><circle class="y" cx="86.58081" cy="193.68873" r="1.00413" transform="translate(-53.65982 34.49034) rotate(-17.29226)"/><circle class="z" cx="86.5592" cy="199.82991" r="1.86426" transform="translate(-55.48624 34.7615) rotate(-17.29226)"/><path class="b" d="M230.67655,255.07313V121.99453h0c0,4.74736-55.69483,8.59581-77.27169,8.59581s-77.29359-3.84845-77.29359-8.59581h0V255.07318c.07618,5.90272,2.77169,11.8329,8.94029,11.8329h136.6847C227.90464,266.90608,230.74954,260.85758,230.67655,255.07313Z"/><g class="aa"><path class="ab" d="M158.02189,156.26561c-18.67791,1.50493-37.416,2.26908-56.09287,3.8-19.99409,1.63886-41.801,7.14928-57.53906,20.1983q-.22447.18612-.44662.375c-8.76136,7.42889-15.9763,17.98992-15.41066,29.46293.44336,8.99281,5.68341,17.23709,12.52838,23.08634s15.20216,9.61118,23.5767,12.91789c48.69348,19.22676,104.26914,25.27834,153.4283,7.27559,9.885-3.62,19.52717-8.23322,27.684-14.88789s14.78233-15.49629,17.51362-25.66283c2.8151-10.47851,1.31455-21.88724-3.25779-31.72684-4.33138-9.32105-11.14835-16.47991-13.97464-26.61155-.52427-1.87938-1.108-3.95817-2.75385-5.00613a7.51491,7.51491,0,0,0-3.74219-.85011c-21.64113-1.0035-42.52589,3.5073-63.88285,5.93934C169.784,155.2439,163.906,155.79151,158.02189,156.26561Z"/><path class="ac" d="M153.15222,196.16526c-18.41324,3.47587-36.96486,6.22152-55.37428,9.7231C78.07012,209.63689,56.97,217.4273,42.70344,232.0707q-.20349.20886-.40436.42023c-7.92474,8.31554-13.97983,19.58172-12.20151,30.93017,1.39389,8.89519,7.47813,16.53772,14.90444,21.62863s16.1351,7.946,24.81292,10.34657c50.45685,13.95813,106.36086,14.08593,153.33533-9.02515,9.44573-4.64722,18.54468-10.25627,25.95033-17.7379s13.05685-16.9756,14.69534-27.37434c1.68878-10.71784-1.01238-21.90329-6.60174-31.20292-5.2948-8.80954-12.832-15.20565-16.71614-24.98072-.72048-1.81324-1.52126-3.81845-3.26887-4.68609a7.51486,7.51486,0,0,0-3.8112-.44874c-21.62562,1.2956-41.91473,7.99429-62.89368,12.676C164.73985,193.9028,158.9529,195.07026,153.15222,196.16526Z"/></g><path class="ad" d="M230.67655,121.99452c0,4.74735-55.69477,8.59583-77.27165,8.59583s-77.29363-3.84848-77.29363-8.59583,55.71675-8.59582,77.29363-8.59582S230.67655,117.24718,230.67655,121.99452Z"/><g class="ae"><circle class="af" cx="123.76457" cy="130.59035" r="14.91016"/><ellipse class="ag" cx="122.71564" cy="122.37212" rx="9.96443" ry="6.00743" transform="translate(-8.92005 9.65075) rotate(-4.34581)"/><circle class="ah" cx="131.69675" cy="123.10411" r="1.22104"/><circle class="ai" cx="133.60438" cy="124.70762" r="0.4427"/><circle class="aj" cx="117.21973" cy="140.68513" r="0.4427"/><path class="ak" d="M111.9013,131.67873c-.14631,2.87815,1.5857,7.02963,4.34722,8.24794"/><circle class="al" cx="130.47571" cy="138.69966" r="1.35526"/></g><g class="ae"><circle class="am" cx="167.98275" cy="112.31353" r="8.42633"/><ellipse class="an" cx="167.38995" cy="107.66908" rx="5.6313" ry="3.39504" transform="translate(-7.67747 12.99372) rotate(-4.34581)"/><circle class="ao" cx="172.46554" cy="108.08275" r="0.69006"/><circle class="ap" cx="173.54362" cy="108.98896" r="0.25019"/><circle class="aq" cx="164.28399" cy="118.0185" r="0.25019"/><path class="ar" d="M161.27833,112.92861c-.08268,1.62656.89615,3.97273,2.45679,4.66125"/><circle class="as" cx="171.77549" cy="116.89643" r="0.76591"/></g><g class="ae"><circle class="at" cx="150.12749" cy="93.33985" r="4.48279"/><ellipse class="au" cx="149.81213" cy="90.86901" rx="2.99584" ry="1.80616" transform="translate(-6.45497 11.61344) rotate(-4.34581)"/><circle class="av" cx="152.51233" cy="91.08908" r="0.36711"/><circle class="aw" cx="153.08587" cy="91.57118" r="0.1331"/><circle class="ax" cx="148.15976" cy="96.37488" r="0.1331"/><path class="ay" d="M146.56076,93.66707a2.7918,2.7918,0,0,0,1.307,2.47978"/><circle class="az" cx="152.14522" cy="95.77794" r="0.40746"/></g><g class="ba"><circle class="bb" cx="195.53387" cy="164.49202" r="9.8398"/><ellipse class="bc" cx="194.84163" cy="159.06849" rx="6.57592" ry="3.96454" transform="translate(-11.49339 15.22168) rotate(-4.34581)"/><circle class="bd" cx="200.76862" cy="159.55155" r="0.80581"/><circle class="be" cx="202.02754" cy="160.60977" r="0.29216"/><circle class="bf" cx="191.21466" cy="171.15397" r="0.29216"/><path class="bg" d="M187.70482,165.21028c-.09655,1.89941,1.04647,4.63914,2.8689,5.44315"/><circle class="bh" cx="199.96281" cy="169.84368" r="0.89439"/></g><g class="ba"><circle class="bi" cx="178.58966" cy="184.93134" r="5.23476"/><ellipse class="bj" cx="178.22139" cy="182.04603" rx="3.49838" ry="2.10913" transform="translate(-13.28232 14.02833) rotate(-4.34581)"/><circle class="bk" cx="181.37454" cy="182.30302" r="0.42869"/><circle class="bl" cx="182.04429" cy="182.86599" r="0.15543"/><circle class="bm" cx="176.29185" cy="188.47548" r="0.15543"/><path class="bn" d="M174.42462,185.31345a3.26014,3.26014,0,0,0,1.52625,2.89575"/><circle class="bo" cx="180.94585" cy="187.77841" r="0.47582"/></g><polygon class="bp" points="247.432 214.109 51.87 214.109 36.693 293.266 232.254 293.266 247.432 214.109"/><polygon class="bq" points="247.432 214.109 254.054 284.079 251.446 286.124 236.455 286.285 235.347 290.841 232.254 293.266 247.432 214.109"/><path class="br" d="M108.53169,233.40787a2.63347,2.63347,0,0,1,.67285-2.48925,3.29664,3.29664,0,0,1,2.50781-1.22071l12.75879-.0957a1.71592,1.71592,0,0,1,1.76367.91016,2.4675,2.4675,0,0,1-.21875,2.22656,1.74521,1.74521,0,0,1-.23828.52539l-8.35937,14.457a3.42906,3.42906,0,0,1-1.26954,1.24414,3.07818,3.07818,0,0,1-1.58984.47852H108.312a1.9641,1.9641,0,0,1-1.47656-.64649,1.82488,1.82488,0,0,1-.36914-1.55566l2.00683-13.61817C108.49458,233.54362,108.51411,233.47233,108.53169,233.40787Zm3.333,11.12989h2.20118l5.84082-10.00391-6.56641.11914Z"/><path class="br" d="M131.811,231.39713a3.43424,3.43424,0,0,1,1.27637-1.26758,3.8856,3.8856,0,0,1,1.58984-.47851,1.93541,1.93541,0,0,1,2.00489,1.17187,2.55387,2.55387,0,0,1-.39844,2.53711,43.2955,43.2955,0,0,0-3.74609,6.77344,3.62938,3.62938,0,0,1-1.59082,1.72363,3.26776,3.26776,0,0,1-2.09278.47852,1.91723,1.91723,0,0,1-1.40527-1.17285,2.42159,2.42159,0,0,1,.06445-2.00977A57.293,57.293,0,0,1,131.811,231.39713Z"/><path class="br" d="M141.727,230.22526a58.53617,58.53617,0,0,1,3.58691-6.36719,3.04849,3.04849,0,0,1,2.62989-1.5791,1.67858,1.67858,0,0,1,1.88379,1.041,2.54234,2.54234,0,0,1-.375,2.40528q-1.20851,1.81934-2.32911,3.92578l8.3418-.04883a1.47171,1.47171,0,0,1,.37207-.04688.77257.77257,0,0,1,.46582.04688,1.596,1.596,0,0,1,1.85156,1.65234,2.86532,2.86532,0,0,1-1.51074,2.752,66.18288,66.18288,0,0,0-5.75488,13.13964,3.43991,3.43991,0,0,1-1.3291,1.6875,2.96572,2.96572,0,0,1-1.95508.63379,1.67766,1.67766,0,0,1-1.42285-.88476,2.15291,2.15291,0,0,1-.14942-1.79492,78.95391,78.95391,0,0,1,5.05957-12.25391l-8.93554.11914a1.69419,1.69419,0,0,1-1.96387-1.67578A2.91416,2.91416,0,0,1,141.727,230.22526Z"/><path class="br" d="M164.0063,237.14225a30.53748,30.53748,0,0,1-1.02832-4.165,2.4699,2.4699,0,0,1,.7998-2.25,2.83578,2.83578,0,0,1,2.21875-1.125,1.57251,1.57251,0,0,1,1.85547,1.46094,24.228,24.228,0,0,0,2.28125,6.96484,20.009,20.009,0,0,0,5.4873-6.48633,3.8356,3.8356,0,0,1,1.26758-1.41211,2.65223,2.65223,0,0,1,1.60254-.52734,1.69086,1.69086,0,0,1,1.63379.8623,2.11688,2.11688,0,0,1-.06543,2.01075q-2.04931,4.30664-7.64551,9.07031a43.15794,43.15794,0,0,0,3.00293,3.23047,1.72479,1.72479,0,0,1,.51953,1.5332,2.92831,2.92831,0,0,1-.92285,1.81836,3.23375,3.23375,0,0,1-1.832.93359,2.10806,2.10806,0,0,1-1.64746-.45507,28.32342,28.32342,0,0,1-5.69629-7.34766q-3.27538,3.35155-3.94922,5.83984a3.049,3.049,0,0,1-1.16406,1.65137,3.09636,3.09636,0,0,1-1.86328.69434,1.85487,1.85487,0,0,1-1.52246-.74219,1.93877,1.93877,0,0,1-.22266-1.65137Q158.37251,242.57535,164.0063,237.14225Z"/><path class="br" d="M101.0268,262.32487a3.47137,3.47137,0,0,1,1.97852-.76563l12.78223-.0957a1.862,1.862,0,0,1,1.82714,1.02929,2.51749,2.51749,0,0,1-.39453,2.34571,62.63545,62.63545,0,0,0-6.43945,14.168,3.06354,3.06354,0,0,1-1.30762,1.65234,2.76694,2.76694,0,0,1-1.94629.64648,1.63745,1.63745,0,0,1-1.43554-.88671,2.1066,2.1066,0,0,1-.14356-1.76954,78.11832,78.11832,0,0,1,5.09473-12.207l-9.3291.07227a1.79384,1.79384,0,0,1-1.583-.69531,2.13957,2.13957,0,0,1-.28711-1.77051A3.14417,3.14417,0,0,1,101.0268,262.32487Z"/><path class="br" d="M122.4643,262.08658a58.44788,58.44788,0,0,1,3.58789-6.36718,3.04691,3.04691,0,0,1,2.62891-1.58008,1.67979,1.67979,0,0,1,1.88477,1.041,2.54911,2.54911,0,0,1-.375,2.40625q-1.21,1.81933-2.33008,3.92481l8.3418-.04785a1.47975,1.47975,0,0,1,.373-.04785.76214.76214,0,0,1,.46485.04785,1.59561,1.59561,0,0,1,1.85156,1.65234,2.867,2.867,0,0,1-1.51074,2.752,66.17037,66.17037,0,0,0-5.75489,13.13868,3.43445,3.43445,0,0,1-1.3291,1.6875,2.96616,2.96616,0,0,1-1.9541.63476,1.68329,1.68329,0,0,1-1.42383-.88476,2.15656,2.15656,0,0,1-.14941-1.79493,79.20514,79.20514,0,0,1,5.05957-12.25488l-8.93555.12012a1.6942,1.6942,0,0,1-1.96387-1.67578A2.9133,2.9133,0,0,1,122.4643,262.08658Z"/><path class="br" d="M144.478,263.25846a3.40572,3.40572,0,0,1,1.27636-1.26758,3.89429,3.89429,0,0,1,1.58887-.47949,1.93483,1.93483,0,0,1,2.00488,1.17285,2.55389,2.55389,0,0,1-.39843,2.53711,43.29508,43.29508,0,0,0-3.7461,6.77344,3.63179,3.63179,0,0,1-1.59082,1.72265,3.2616,3.2616,0,0,1-2.09277.47852,1.91772,1.91772,0,0,1-1.40528-1.17188,2.42411,2.42411,0,0,1,.06543-2.01074A57.17248,57.17248,0,0,1,144.478,263.25846Z"/><path class="br" d="M149.2143,277.78678a65.99642,65.99642,0,0,1,6.10938-7.37207,30.88174,30.88174,0,0,0-.0957-5.57617,2.57147,2.57147,0,0,1,.8125-2.29785,3.28441,3.28441,0,0,1,2.34961-1.07715,1.64992,1.64992,0,0,1,1.87792,1.55566,25.77046,25.77046,0,0,1,.16309,2.84863,26.75059,26.75059,0,0,1,7.93457-4.11718c.13574-.03125.27246-.06348.4082-.09571a8.53483,8.53483,0,0,1,1.67872-.1914h.335a6.98007,6.98007,0,0,1,1.14746.0957,2.91081,2.91081,0,0,1,2.31933,1.60352q.75439,1.72265-.80371,5.09765-3.83349,8.42579-4.03418,10.05274a3.29307,3.29307,0,0,1-1.165,1.91406,2.99716,2.99716,0,0,1-2.0205.83789H163.144c-.00879.0332-.06152.04883-.1582.04883l-.17969.04687h-4.02148a1.653,1.653,0,0,1-1.51172-.69336,1.89962,1.89962,0,0,1-.30957-1.77148,3.11926,3.11926,0,0,1,1.23535-1.65039,2.93812,2.93812,0,0,1,1.91211-.791h3.49609a.18468.18468,0,0,0,.1084-.04785h1.26856q.22265-.74121,3.91894-8.83105a5.02881,5.02881,0,0,0,.36035-.98145,6.41857,6.41857,0,0,0-.7539.04785q-7.62745,2.53712-15.29493,13.28321a3.47981,3.47981,0,0,1-1.77734,1.43554,2.30893,2.30893,0,0,1-1.90137-.04687,1.65762,1.65762,0,0,1-.92773-1.43653A2.78053,2.78053,0,0,1,149.2143,277.78678Zm14.542,3.13574q.06006-.04833.456-.35937a4.09827,4.09827,0,0,1-.59961.35937Q163.82954,280.82584,163.7563,280.92252Z"/><g class="bs"><path class="bt" d="M217.14726,188.34458a4.23235,4.23235,0,0,1-4.13637-3.36033l.00084-65.07106a4.23219,4.23219,0,0,1-.0909-.8719V79.8603a4.2314,4.2314,0,1,1,8.4628,0v38.74049l-.09175,64.63966a4.23535,4.23535,0,0,1-4.14462,5.10413Z"/></g><circle class="bu" cx="218.07842" cy="197.39903" r="4.23358"/></g></svg>