<svg xmlns="http://www.w3.org/2000/svg" xmlns:xlink="http://www.w3.org/1999/xlink" viewBox="0 0 303.95444 341.11501"><defs><style>.a,.d{opacity:0.72;}.a{fill:url(#a);}.ah,.b,.l{opacity:0.8;}.b{fill:url(#b);}.c{isolation:isolate;}.d{fill:url(#c);}.e{fill:#683c11;fill-opacity:0.51;}.f,.h{mix-blend-mode:multiply;}.f{fill:url(#d);}.g{clip-path:url(#f);}.h{fill:url(#g);}.i{opacity:0.42;fill:url(#h);}.j{opacity:0.54;}.k{fill:url(#i);}.be,.l{mix-blend-mode:hard-light;}.m{fill:url(#j);}.n,.o,.v,.y{opacity:0.5;}.n{fill:url(#k);}.o{fill:url(#l);}.p{opacity:0.25;fill:url(#m);}.aa,.ab,.ac,.ad,.p,.q,.r,.s,.u,.v,.w,.x,.y,.z{mix-blend-mode:screen;}.q{fill:url(#n);}.r{fill:url(#o);}.s{opacity:0.2;fill:url(#p);}.ao,.av,.bc,.bk,.br,.t,.x{fill:none;}.u{opacity:0.15;fill:url(#q);}.v{fill:url(#r);}.w{fill:url(#s);}.x{stroke:#fff;stroke-width:1.69256px;opacity:0.03;}.ah,.x{stroke-miterlimit:10;}.y{fill:url(#t);}.z{fill:url(#u);}.aa{fill:url(#v);}.ab{fill:url(#w);}.ac{fill:url(#x);}.ad{fill:url(#y);}.ae{clip-path:url(#aa);}.af,.ag,.ai{opacity:0.3;}.af{fill:url(#ab);}.ag{fill:url(#ac);}.ah,.ao{stroke-width:0.84628px;}.ah{fill:url(#ad);stroke:url(#ae);}.aj{fill:url(#af);}.ak,.an,.ao,.ar,.au,.av,.ay,.bb,.bc,.bg,.bj,.bk,.bn,.bq,.br{mix-blend-mode:soft-light;}.ak{fill:url(#ag);}.al{fill:url(#ah);}.am{fill:url(#ai);}.an{fill:url(#aj);}.ao,.av,.bc,.bk,.br{stroke-linecap:round;stroke-linejoin:round;}.ao{stroke:url(#ak);}.ap{fill:url(#al);}.aq{fill:url(#am);}.ar{fill:url(#an);}.as{fill:url(#ao);}.at{fill:url(#ap);}.au{fill:url(#aq);}.av{stroke-width:0.47827px;stroke:url(#ar);}.aw{fill:url(#as);}.ax{fill:url(#at);}.ay{fill:url(#au);}.az{fill:url(#av);}.ba{fill:url(#aw);}.bb{fill:url(#ax);}.bc{stroke-width:0.25444px;stroke:url(#ay);}.bd{fill:url(#az);}.be{opacity:0.2;}.bf{fill:url(#ba);}.bg{fill:url(#bb);}.bh{fill:url(#bc);}.bi{fill:url(#bd);}.bj{fill:url(#be);}.bk{stroke-width:0.55849px;stroke:url(#bf);}.bl{fill:url(#bg);}.bm{fill:url(#bh);}.bn{fill:url(#bi);}.bo{fill:url(#bj);}.bp{fill:url(#bk);}.bq{fill:url(#bl);}.br{stroke-width:0.29712px;stroke:url(#bm);}.bs{fill:url(#bn);}.bt{fill:#fff;}.bu{fill:#c6c6c6;}.bv{fill:#3c3c3b;}</style><linearGradient id="a" x1="101.38983" y1="165.56347" x2="195.77042" y2="165.56347" gradientUnits="userSpaceOnUse"><stop offset="0" stop-color="#f5fbff"/><stop offset="0.62567" stop-color="#e9f1f5"/><stop offset="1" stop-color="#c5d9e0"/></linearGradient><linearGradient id="b" x1="215.45416" y1="270.68209" x2="97.35404" y2="114.15705" gradientUnits="userSpaceOnUse"><stop offset="0" stop-color="#87bb07"/><stop offset="1" stop-color="#c2f039"/></linearGradient><linearGradient id="c" x1="149.81947" y1="38.3778" x2="149.81947" y2="64.94849" xlink:href="#a"/><linearGradient id="d" x1="167.68434" y1="61.71976" x2="145.38677" y2="243.33184" gradientUnits="userSpaceOnUse"><stop offset="0" stop-color="#bfc4c7"/><stop offset="1" stop-color="#b1c3c9"/></linearGradient><clipPath id="f"><path class="a" d="M242.83908,260.32927V56.21441c0,4.92526-63.5812,8.918-87.37871,8.918q-1.79724,0-3.59432-.02924c-4.7989-.07261-9.59628-.249-14.3905-.4687q-8.5144-.3902-17.01852-.97514-8.76555-.597-17.51591-1.397c-5.3029-.49123-10.60164-1.04461-15.88269-1.73435-3.878-.50649-7.72018-1.49-11.65365-1.44118-3.95531.04913-7.6323,1.67156-11.44574,2.505q-.47637.10416-.95439.20048a19.75524,19.75524,0,0,1-3.84674.58949q-.67951.07353-1.36171.11872c-.22315.015-.86315-.06053-1.01577.13972-.13737.18024.24046.6185.36578.75686a5.197,5.197,0,0,0,.75974.60652c.32624.24652.66942.46711,1.00291.70321l3.44455,2.439,5.5635,3.93934.16454.1165V260.32927a11.53455,11.53455,0,0,0,11.12438,14.58326H231.7147A11.53455,11.53455,0,0,0,242.83908,260.32927Z"/></clipPath><linearGradient id="g" x1="116.80382" y1="163.94125" x2="167.981" y2="296.11187" gradientUnits="userSpaceOnUse"><stop offset="0" stop-color="#f5f5f5"/><stop offset="1" stop-color="#c3d1d6"/></linearGradient><linearGradient id="h" x1="95.36276" y1="207.6583" x2="209.46104" y2="207.6583" xlink:href="#b"/><radialGradient id="i" cx="222.68589" cy="128.1371" r="64.69946" gradientTransform="translate(236.38331 -94.62279) rotate(89.70298) scale(1 0.11591)" gradientUnits="userSpaceOnUse"><stop offset="0" stop-color="#e6f3ff"/><stop offset="1" stop-color="#b9cbf0" stop-opacity="0"/></radialGradient><radialGradient id="j" cx="-1521.36449" cy="-756.13671" r="54.27899" gradientTransform="matrix(0.00636, -0.99998, 0.15751, 0.001, 215.17506, -1368.70017)" xlink:href="#i"/><radialGradient id="k" cx="223.65411" cy="197.4173" r="3.82592" gradientTransform="matrix(1, 0, 0, 1, 0, 0)" xlink:href="#i"/><radialGradient id="l" cx="223.65411" cy="124.23495" r="3.82592" gradientTransform="matrix(1, 0, 0, 1, 0, 0)" xlink:href="#i"/><radialGradient id="m" cx="-1827.47319" cy="-985.40731" r="13.58164" gradientTransform="translate(1916.2566 1140.30106)" gradientUnits="userSpaceOnUse"><stop offset="0.1"/><stop offset="0.11244" stop-color="#080602"/><stop offset="0.16172" stop-color="#231b08"/><stop offset="0.21838" stop-color="#392c0d"/><stop offset="0.28458" stop-color="#4a3910"/><stop offset="0.36644" stop-color="#554213"/><stop offset="0.48125" stop-color="#5c4815"/><stop offset="0.8" stop-color="#5e4915"/><stop offset="1"/></radialGradient><radialGradient id="n" cx="-1842.43724" cy="-937.9286" r="0.45271" gradientTransform="translate(1931.04582 1142.60306)" gradientUnits="userSpaceOnUse"><stop offset="0" stop-color="#d4e194"/><stop offset="0.05952" stop-color="#afba7a"/><stop offset="0.13651" stop-color="#868f5e"/><stop offset="0.21955" stop-color="#626845"/><stop offset="0.30759" stop-color="#44482f"/><stop offset="0.40211" stop-color="#2b2e1e"/><stop offset="0.50556" stop-color="#181911"/><stop offset="0.62249" stop-color="#0a0b07"/><stop offset="0.76429" stop-color="#020302"/><stop offset="1"/></radialGradient><radialGradient id="o" cx="-1843.59922" cy="-934.24192" r="0.45271" gradientTransform="translate(1932.19419 1142.78182)" xlink:href="#n"/><radialGradient id="p" cx="-1842.95418" cy="-936.28851" r="3.39543" gradientTransform="translate(1931.55677 1142.68243)" gradientUnits="userSpaceOnUse"><stop offset="0.05"/><stop offset="0.09242" stop-color="#040a03"/><stop offset="0.29802" stop-color="#183411"/><stop offset="0.48337" stop-color="#25531c"/><stop offset="0.64031" stop-color="#2e6622"/><stop offset="0.75" stop-color="#316d24"/><stop offset="0.78593" stop-color="#4f6e16"/><stop offset="0.83397" stop-color="#716f06"/><stop offset="0.86" stop-color="#7e6f00"/><stop offset="0.88764" stop-color="#7a6c00"/><stop offset="0.91229" stop-color="#706200"/><stop offset="0.93581" stop-color="#5d5200"/><stop offset="0.95863" stop-color="#443c00"/><stop offset="0.98074" stop-color="#231f00"/><stop offset="1"/></radialGradient><radialGradient id="q" cx="-1830.6984" cy="-975.17425" r="9.05439" gradientTransform="translate(1919.44416 1140.79712)" gradientUnits="userSpaceOnUse"><stop offset="0" stop-color="#200"/><stop offset="0.73" stop-color="#984023"/><stop offset="1" stop-color="#200"/></radialGradient><radialGradient id="r" cx="-1830.6984" cy="-975.17425" r="4.52725" gradientTransform="translate(1919.44422 1140.797)" gradientUnits="userSpaceOnUse"><stop offset="0.15" stop-color="#fff"/><stop offset="0.20939" stop-color="#e5d3d3"/><stop offset="0.29044" stop-color="#c49c9e"/><stop offset="0.36051" stop-color="#ad7477"/><stop offset="0.41599" stop-color="#9e5c5f"/><stop offset="0.45" stop-color="#995356"/><stop offset="0.57175" stop-color="#6b3335"/><stop offset="0.69355" stop-color="#431718"/><stop offset="0.79053" stop-color="#2b0606"/><stop offset="0.85" stop-color="#200"/><stop offset="0.85727" stop-color="#260201"/><stop offset="0.8648" stop-color="#330704"/><stop offset="0.87246" stop-color="#471009"/><stop offset="0.8802" stop-color="#641d0f"/><stop offset="0.88801" stop-color="#8a2e18"/><stop offset="0.89577" stop-color="#b74223"/><stop offset="0.9" stop-color="#d34e29"/><stop offset="0.90254" stop-color="#c84927"/><stop offset="0.91417" stop-color="#9c361c"/><stop offset="0.92635" stop-color="#772514"/><stop offset="0.93893" stop-color="#58180c"/><stop offset="0.95205" stop-color="#400d07"/><stop offset="0.96594" stop-color="#2f0603"/><stop offset="0.98111" stop-color="#250101"/><stop offset="1" stop-color="#200"/></radialGradient><radialGradient id="s" cx="-1830.6984" cy="-975.17425" r="3.7727" gradientTransform="translate(1919.4442 1140.79703)" gradientUnits="userSpaceOnUse"><stop offset="0.15" stop-color="#fff"/><stop offset="0.28237" stop-color="#c2c2c2"/><stop offset="0.42528" stop-color="#888"/><stop offset="0.5636" stop-color="#575757"/><stop offset="0.69361" stop-color="#313131"/><stop offset="0.81336" stop-color="#161616"/><stop offset="0.91921" stop-color="#060606"/><stop offset="1"/></radialGradient><radialGradient id="t" cx="-1843.59922" cy="-934.24192" r="6.79086" gradientTransform="translate(1932.19423 1142.78174)" gradientUnits="userSpaceOnUse"><stop offset="0.64"/><stop offset="0.71799" stop-color="#000200"/><stop offset="0.74608" stop-color="#020902"/><stop offset="0.76609" stop-color="#051405"/><stop offset="0.78228" stop-color="#082509"/><stop offset="0.79598" stop-color="#0d3b0e"/><stop offset="0.8" stop-color="#0f4310"/><stop offset="0.8131" stop-color="#1e2c0a"/><stop offset="0.82975" stop-color="#2d1605"/><stop offset="0.84569" stop-color="#360901"/><stop offset="0.86" stop-color="#390400"/><stop offset="0.8715" stop-color="#250300"/><stop offset="0.88602" stop-color="#140100"/><stop offset="0.90412" stop-color="#090100"/><stop offset="0.92951" stop-color="#020000"/><stop offset="1"/></radialGradient><radialGradient id="u" cx="-1841.1079" cy="-942.14621" r="1.93017" gradientTransform="translate(2126.56492 552.55249) rotate(-17.29226)" gradientUnits="userSpaceOnUse"><stop offset="0.1"/><stop offset="0.24639" stop-color="#1b1103"/><stop offset="0.42619" stop-color="#362207"/><stop offset="0.61009" stop-color="#492e09"/><stop offset="0.79889" stop-color="#54350b"/><stop offset="1" stop-color="#58370b"/></radialGradient><radialGradient id="v" cx="-1834.38332" cy="-963.48242" r="1.07807" gradientTransform="translate(1923.08597 1141.36417)" gradientUnits="userSpaceOnUse"><stop offset="0.1" stop-color="#192f1b"/><stop offset="0.2285" stop-color="#122214"/><stop offset="0.47516" stop-color="#080f09"/><stop offset="0.72928" stop-color="#020402"/><stop offset="1"/></radialGradient><radialGradient id="w" cx="-1838.48579" cy="-950.46584" r="0.714" gradientTransform="translate(1927.14059 1141.99514)" xlink:href="#u"/><radialGradient id="x" cx="-1839.13497" cy="-948.40623" r="1.00408" gradientTransform="translate(1927.78216 1142.09499)" gradientUnits="userSpaceOnUse"><stop offset="0.1"/><stop offset="0.29001" stop-color="#14160e"/><stop offset="0.51699" stop-color="#25291a"/><stop offset="0.75084" stop-color="#303422"/><stop offset="1" stop-color="#333824"/></radialGradient><radialGradient id="y" cx="-1840.98104" cy="-942.54905" r="1.86428" gradientTransform="translate(1929.60659 1142.37905)" xlink:href="#v"/><clipPath id="aa"><path class="b" d="M232.74294,255.07313V121.99453h0c0,4.74736-55.69483,8.59581-77.27169,8.59581s-77.29359-3.84845-77.29359-8.59581h0V255.07318c.07618,5.90272,2.7717,11.8329,8.94029,11.8329h136.6847C229.971,266.90608,232.81593,260.85758,232.74294,255.07313Z"/></clipPath><linearGradient id="ab" x1="312.11803" y1="217.33703" x2="65.08391" y2="194.35711" xlink:href="#b"/><linearGradient id="ac" x1="31.85184" y1="242.44061" x2="266.36082" y2="242.44061" xlink:href="#b"/><linearGradient id="ad" x1="292.71315" y1="121.99452" x2="109.56697" y2="121.99452" xlink:href="#b"/><linearGradient id="ae" x1="77.75452" y1="121.99452" x2="233.16608" y2="121.99452" gradientUnits="userSpaceOnUse"><stop offset="0" stop-color="#c0ff26"/><stop offset="1" stop-color="#c2f039"/></linearGradient><radialGradient id="af" cx="125.83096" cy="130.59035" r="14.16583" gradientTransform="matrix(0.2537, -0.96728, 0.95587, 0.2507, -30.91983, 219.56498)" gradientUnits="userSpaceOnUse"><stop offset="0" stop-color="#a7c735" stop-opacity="0.8"/><stop offset="0.29921" stop-color="#aaca39" stop-opacity="0.80046"/><stop offset="0.52418" stop-color="#b3d244" stop-opacity="0.80193"/><stop offset="0.72493" stop-color="#c3e058" stop-opacity="0.8044"/><stop offset="0.91041" stop-color="#d9f374" stop-opacity="0.80787"/><stop offset="1" stop-color="#e6ff85" stop-opacity="0.81"/></radialGradient><radialGradient id="ag" cx="528.88672" cy="439.14285" r="9.1779" gradientTransform="translate(-533.23312 -216.24027) scale(1.24415 0.77108)" gradientUnits="userSpaceOnUse"><stop offset="0" stop-color="#abeb52"/><stop offset="0.37881" stop-color="#abeb52" stop-opacity="0.99203"/><stop offset="0.51527" stop-color="#abea53" stop-opacity="0.96313"/><stop offset="0.61253" stop-color="#acea55" stop-opacity="0.91281"/><stop offset="0.69121" stop-color="#ace957" stop-opacity="0.8409"/><stop offset="0.75863" stop-color="#ade75a" stop-opacity="0.74715"/><stop offset="0.81834" stop-color="#aee55e" stop-opacity="0.63133"/><stop offset="0.87231" stop-color="#b0e362" stop-opacity="0.49335"/><stop offset="0.92196" stop-color="#b1e167" stop-opacity="0.33264"/><stop offset="0.96609" stop-color="#b3de6d" stop-opacity="0.15775"/><stop offset="1" stop-color="#b4dc72" stop-opacity="0"/></radialGradient><radialGradient id="ah" cx="133.76314" cy="123.10411" r="1.16008" gradientTransform="matrix(0.2537, -0.96728, 0.95587, 0.2507, -17.84412, 221.62824)" gradientUnits="userSpaceOnUse"><stop offset="0" stop-color="#daebc1"/><stop offset="0.37881" stop-color="#daebc0" stop-opacity="0.99203"/><stop offset="0.51527" stop-color="#d9eabe" stop-opacity="0.96313"/><stop offset="0.61253" stop-color="#d7eaba" stop-opacity="0.91281"/><stop offset="0.69121" stop-color="#d4e9b4" stop-opacity="0.8409"/><stop offset="0.75863" stop-color="#d0e7ad" stop-opacity="0.74715"/><stop offset="0.81834" stop-color="#cce5a4" stop-opacity="0.63133"/><stop offset="0.87231" stop-color="#c7e399" stop-opacity="0.49335"/><stop offset="0.92196" stop-color="#c1e18c" stop-opacity="0.33264"/><stop offset="0.96609" stop-color="#bade7e" stop-opacity="0.15775"/><stop offset="1" stop-color="#b4dc72" stop-opacity="0"/></radialGradient><radialGradient id="ai" cx="135.67077" cy="124.70762" r="0.4206" gradientTransform="matrix(0.2537, -0.96728, 0.95587, 0.2507, -17.95321, 224.67496)" gradientUnits="userSpaceOnUse"><stop offset="0" stop-color="#daebc1"/><stop offset="0.22496" stop-color="#daebc0" stop-opacity="0.98901"/><stop offset="0.3644" stop-color="#d8eabd" stop-opacity="0.95275"/><stop offset="0.48062" stop-color="#d6e9b8" stop-opacity="0.89088"/><stop offset="0.58411" stop-color="#d3e8b1" stop-opacity="0.80322"/><stop offset="0.67914" stop-color="#cee6a8" stop-opacity="0.68961"/><stop offset="0.7679" stop-color="#c9e49d" stop-opacity="0.55"/><stop offset="0.85188" stop-color="#c3e290" stop-opacity="0.38414"/><stop offset="0.92991" stop-color="#bbdf82" stop-opacity="0.19725"/><stop offset="1" stop-color="#b4dc72" stop-opacity="0"/></radialGradient><radialGradient id="aj" cx="119.28612" cy="140.68513" r="0.4206" gradientTransform="matrix(0.2537, -0.96728, 0.95587, 0.2507, -45.4536, 220.79823)" xlink:href="#ai"/><radialGradient id="ak" cx="116.137" cy="135.8027" r="3.70417" gradientTransform="matrix(1, 0, 0, 1, 0, 0)" xlink:href="#ah"/><radialGradient id="al" cx="132.54211" cy="138.69966" r="1.68884" gradientTransform="translate(0 20.14894) scale(1 0.85473)" gradientUnits="userSpaceOnUse"><stop offset="0" stop-color="#abeb52"/><stop offset="0.09168" stop-color="#abeb53" stop-opacity="0.96822"/><stop offset="0.22975" stop-color="#ace956" stop-opacity="0.88033"/><stop offset="0.39704" stop-color="#ade75a" stop-opacity="0.73641"/><stop offset="0.58721" stop-color="#afe461" stop-opacity="0.53628"/><stop offset="0.79369" stop-color="#b1e069" stop-opacity="0.2836"/><stop offset="1" stop-color="#b4dc72" stop-opacity="0"/></radialGradient><radialGradient id="am" cx="170.04914" cy="112.31353" r="8.00568" gradientTransform="matrix(0.2537, -0.96728, 0.95587, 0.2507, 19.55064, 248.64176)" xlink:href="#af"/><radialGradient id="an" cx="565.58644" cy="426.64404" r="5.1868" gradientTransform="translate(-534.21881 -221.30578) scale(1.24415 0.77108)" xlink:href="#ag"/><radialGradient id="ao" cx="174.53194" cy="108.08275" r="0.65561" gradientTransform="matrix(0.2537, -0.96728, 0.95587, 0.2507, 26.94025, 249.80779)" xlink:href="#ah"/><radialGradient id="ap" cx="175.61001" cy="108.98896" r="0.2377" gradientTransform="matrix(0.2537, -0.96728, 0.95587, 0.2507, 26.8786, 251.52962)" xlink:href="#ai"/><radialGradient id="aq" cx="166.35039" cy="118.0185" r="0.2377" gradientTransform="matrix(0.2537, -0.96728, 0.95587, 0.2507, 11.33702, 249.33872)" xlink:href="#ai"/><radialGradient id="ar" cx="164.57069" cy="115.25924" r="2.09337" gradientTransform="matrix(1, 0, 0, 1, 0, 0)" xlink:href="#ah"/><radialGradient id="as" cx="173.84188" cy="116.89643" r="0.95443" gradientTransform="translate(0 16.98157) scale(1 0.85473)" xlink:href="#al"/><radialGradient id="at" cx="152.19389" cy="93.33985" r="4.25901" gradientTransform="matrix(0.2537, -0.96728, 0.95587, 0.2507, 24.36165, 217.15377)" xlink:href="#af"/><radialGradient id="au" cx="552.52192" cy="406.59839" r="2.75937" gradientTransform="translate(-535.54239 -222.64914) scale(1.24415 0.77108)" xlink:href="#ag"/><radialGradient id="av" cx="154.57872" cy="91.08908" r="0.34878" gradientTransform="matrix(0.2537, -0.96728, 0.95587, 0.2507, 28.2929, 217.7741)" xlink:href="#ah"/><radialGradient id="aw" cx="155.15226" cy="91.57118" r="0.12646" gradientTransform="matrix(0.2537, -0.96728, 0.95587, 0.2507, 28.26011, 218.69011)" xlink:href="#ai"/><radialGradient id="ax" cx="150.22615" cy="96.37488" r="0.12646" gradientTransform="matrix(0.2537, -0.96728, 0.95587, 0.2507, 19.99202, 217.52456)" xlink:href="#ai"/><radialGradient id="ay" cx="149.27936" cy="94.90696" r="1.11367" gradientTransform="matrix(1, 0, 0, 1, 0, 0)" xlink:href="#ah"/><radialGradient id="az" cx="154.21161" cy="95.77794" r="0.50776" gradientTransform="translate(0 13.91369) scale(1 0.85473)" xlink:href="#al"/><radialGradient id="ba" cx="197.60026" cy="164.49202" r="9.34859" gradientTransform="matrix(0.2537, -0.96728, 0.95587, 0.2507, -9.76391, 314.38861)" xlink:href="#af"/><radialGradient id="bb" cx="584.45706" cy="485.76182" r="6.05686" gradientTransform="translate(-530.24504 -215.49066) scale(1.24415 0.77108)" xlink:href="#ag"/><radialGradient id="bc" cx="202.83502" cy="159.55155" r="0.76558" gradientTransform="matrix(0.2537, -0.96728, 0.95587, 0.2507, -1.13473, 315.75024)" xlink:href="#ah"/><radialGradient id="bd" cx="204.09394" cy="160.60977" r="0.27757" gradientTransform="matrix(0.2537, -0.96728, 0.95587, 0.2507, -1.20673, 317.76089)" xlink:href="#ai"/><radialGradient id="be" cx="193.28105" cy="171.15397" r="0.27757" gradientTransform="matrix(0.2537, -0.96728, 0.95587, 0.2507, -19.35532, 315.20248)" xlink:href="#ai"/><radialGradient id="bf" cx="191.20283" cy="167.93186" r="2.44453" gradientTransform="matrix(1, 0, 0, 1, 0, 0)" xlink:href="#ah"/><radialGradient id="bg" cx="202.02921" cy="169.84368" r="1.11454" gradientTransform="translate(0 24.67324) scale(1 0.85473)" xlink:href="#al"/><radialGradient id="bh" cx="180.65605" cy="184.93134" r="4.97343" gradientTransform="matrix(0.2537, -0.96728, 0.95587, 0.2507, -41.94681, 313.31384)" xlink:href="#af"/><radialGradient id="bi" cx="569.73731" cy="509.76291" r="3.22224" gradientTransform="translate(-528.55168 -211.01978) scale(1.24415 0.77108)" xlink:href="#ag"/><radialGradient id="bj" cx="183.44094" cy="182.30302" r="0.40729" gradientTransform="matrix(0.2537, -0.96728, 0.95587, 0.2507, -37.35611, 314.03823)" xlink:href="#ah"/><radialGradient id="bk" cx="184.11068" cy="182.86599" r="0.14767" gradientTransform="matrix(0.2537, -0.96728, 0.95587, 0.2507, -37.39441, 315.10789)" xlink:href="#ai"/><radialGradient id="bl" cx="178.35824" cy="188.47548" r="0.14767" gradientTransform="matrix(0.2537, -0.96728, 0.95587, 0.2507, -47.04943, 313.74682)" xlink:href="#ai"/><radialGradient id="bm" cx="177.25263" cy="186.76133" r="1.30048" gradientTransform="matrix(1, 0, 0, 1, 0, 0)" xlink:href="#ah"/><radialGradient id="bn" cx="183.01225" cy="187.77841" r="0.59293" gradientTransform="translate(0 27.27862) scale(1 0.85473)" xlink:href="#al"/></defs><g class="c"><path class="d" d="M242.825,56.2144c0,4.92525-63.58129,8.918-87.37873,8.918-4.58538,0-9.171-.12348-13.75326-.2835q-9.63723-.33654-19.26389-.92134-10.14445-.604-20.27177-1.46531-3.79277-.32859-7.58112-.70568-3.86515-.38983-7.72152-.86128c-1.244-.1538-2.48349-.35229-3.70836-.61993q-1.85294-.40488-3.73487-.65741a21.88928,21.88928,0,0,0-7.12486-.013c-2.3343.451-4.57211,1.27661-6.88071,1.83049A41.21418,41.21418,0,0,1,56.814,62.55922a7.2253,7.2253,0,0,1,1.60057-1.3976,37.21543,37.21543,0,0,1,4.44277-2.5362c2.14109-1.07576,4.26248-2.36985,6.45989-3.40579a29.54984,29.54984,0,0,1,7.4349-2.19134c4.44285-.81727,8.93355-1.37894,13.42118-1.88319,5.61074-.63045,11.23526-1.1373,16.86352-1.58239q9.00365-.712,18.02236-1.214,8.44437-.47675,16.89765-.778c4.49442-.15507,8.992-.27435,13.48944-.27435C179.24368,47.29643,242.825,51.28914,242.825,56.2144Z"/><polygon class="e" points="38.759 293.266 27.162 299.703 238.218 299.703 256.167 286.572 256.121 284.079 38.759 293.266"/><path class="f" d="M237.03432,258.59864l-.86746-199.38445c-12.06243,5.91817-64.2222,5.9182-80.70649,5.9182q-.37368,0-.74734-.0023c-1.07381-.00638-2.14755-.02454-3.2211-.04871q-1.89675-.04269-3.79291-.1081-2.14153-.07191-4.28241-.16232-2.34514-.09783-4.68961-.21138-2.5076-.12069-5.01451-.25528-2.6289-.14064-5.2571-.294-2.70906-.15778-5.4174-.32758-2.74806-.17213-5.49539-.356-2.74593-.18372-5.49107-.3792-2.70268-.19255-5.40447-.39728-2.61826-.19861-5.23554-.41018-2.49276-.20185-4.98433-.41792-2.32611-.20225-4.65081-.42049-2.11839-.19966-4.235-.4179-.9682-.10042-1.93583-.20636a25.61538,25.61538,0,0,1-2.82683-.5885q-.2606-.05868-.52166-.11522a26.37135,26.37135,0,0,0-7.35364-.70634l-1.23822.08427.221,199.207A9.81,9.81,0,0,0,83.323,271.08857H227.59755A9.80991,9.80991,0,0,0,237.03432,258.59864Z"/><path class="a" d="M242.83908,260.32927V56.21441c0,4.92526-63.5812,8.918-87.37871,8.918q-1.79724,0-3.59432-.02924c-4.7989-.07261-9.59628-.249-14.3905-.4687q-8.5144-.3902-17.01852-.97514-8.76555-.597-17.51591-1.397c-5.3029-.49123-10.60164-1.04461-15.88269-1.73435-3.878-.50649-7.72018-1.49-11.65365-1.44118-3.95531.04913-7.6323,1.67156-11.44574,2.505q-.47637.10416-.95439.20048a19.75524,19.75524,0,0,1-3.84674.58949q-.67951.07353-1.36171.11872c-.22315.015-.86315-.06053-1.01577.13972-.13737.18024.24046.6185.36578.75686a5.197,5.197,0,0,0,.75974.60652c.32624.24652.66942.46711,1.00291.70321l3.44455,2.439,5.5635,3.93934.16454.1165V260.32927a11.53455,11.53455,0,0,0,11.12438,14.58326H231.7147A11.53455,11.53455,0,0,0,242.83908,260.32927Z"/><g class="g"><path class="h" d="M238.07786,263.90226c0-8.62279-36.85434-11.59375-82.31648-11.59375s-82.31649,3.29833-82.31649,11.92112,8.02532,6.88124,82.31649,7.56925C226.27425,272.4519,238.07786,272.525,238.07786,263.90226Z"/><rect class="i" x="41.39787" y="119.9831" width="225.4691" height="175.35041"/></g><g class="j"><path class="k" d="M222.61972,188.34458a4.23235,4.23235,0,0,1-4.13637-3.36033l.00084-65.07106a4.2322,4.2322,0,0,1-.09091-.8719V79.8603a4.23141,4.23141,0,1,1,8.46281,0v38.74049l-.09175,64.63966a4.23535,4.23535,0,0,1-4.14462,5.10413Z"/></g><g class="l"><path class="m" d="M87.21153,210.25063a4.65909,4.65909,0,0,1-5.8106-4.54055L82.105,97.98172a4.6546,4.6546,0,0,1,9.309.06116l-.7041,107.72837A4.65535,4.65535,0,0,1,87.21153,210.25063Z"/></g><circle class="n" cx="223.55088" cy="197.39903" r="4.23358"/><circle class="o" cx="223.55088" cy="124.21667" r="4.23358"/><circle class="p" cx="88.78346" cy="154.89365" r="13.58161" transform="translate(-42.02859 33.39158) rotate(-17.29227)"/><circle class="q" cx="88.60862" cy="204.67438" r="0.45269" transform="translate(-56.83361 35.58965) rotate(-17.29227)"/><circle class="r" cx="88.59501" cy="208.53981" r="0.45269" transform="translate(-57.98321 35.76032) rotate(-17.29227)"/><circle class="s" cx="88.60255" cy="206.39399" r="3.39545" transform="translate(-57.34502 35.66556) rotate(-17.29226)"/><line class="t" x1="88.74576" y1="165.62286" x2="88.59501" y2="208.53981"/><circle class="u" cx="88.74576" cy="165.62286" r="9.05434" transform="translate(-45.2195 33.86531) rotate(-17.29226)"/><circle class="v" cx="88.74576" cy="165.62286" r="4.52727" transform="translate(-45.21949 33.86531) rotate(-17.29226)"/><circle class="w" cx="88.74576" cy="165.62286" r="3.77273" transform="translate(-45.21949 33.86531) rotate(-17.29226)"/><polyline class="x" points="88.746 165.623 90.78 180.354 88.746 165.623 86.711 150.891 88.746 165.623 74.014 167.657 88.746 165.623 103.477 163.588 88.746 165.623 96.34 183.285 88.746 165.623 81.152 147.961 88.746 165.623 71.084 173.217 88.746 165.623 106.408 158.029 88.746 165.623 102.403 177.802 88.746 165.623 75.088 153.444 88.746 165.623 76.566 179.28 88.746 165.623 100.925 151.965 88.746 165.623 89.66 178.37 88.746 165.623 87.831 152.876 88.746 165.623 75.999 166.537 88.746 165.623 101.492 164.709 88.746 165.623 89.086 167.096 88.746 165.623 88.405 164.15 88.746 165.623 87.272 165.964 88.746 165.623 90.219 165.282 88.746 165.623 84.48 184.442 88.746 165.623 93.011 146.804 88.746 165.623 69.926 161.358 88.746 165.623 107.565 169.888 88.746 165.623 86.363 171.891 88.746 165.623 91.129 159.355 88.746 165.623 82.478 163.24 88.746 165.623 95.014 168.006 88.746 165.623 92.136 169.324 88.746 165.623 85.356 161.922 88.746 165.623 85.045 169.013 88.746 165.623 92.447 162.233 88.746 165.623 109.391 174.794 88.746 165.623 68.1 156.452 88.746 165.623 79.575 186.269 88.746 165.623 97.917 144.977 88.746 165.623 97.812 182.103 88.746 165.623 79.679 149.143 88.746 165.623 72.265 174.689 88.746 165.623 105.226 156.556 88.746 165.623 98.417 185.216 88.746 165.623 79.075 146.03 88.746 165.623 69.153 175.294 88.746 165.623 108.339 155.952 88.746 165.623 91.611 168.852 88.746 165.623 85.881 162.393 88.746 165.623 85.516 168.488 88.746 165.623 91.975 162.758 88.746 165.623 102.961 172.135 88.746 165.623 74.53 159.111 88.746 165.623 82.234 179.838 88.746 165.623 95.258 151.407 88.746 165.623 87.918 182.324 88.746 165.623 89.574 148.922 88.746 165.623 72.045 164.795 88.746 165.623 105.447 166.451 88.746 165.623 93.624 178.402 88.746 165.623 83.868 152.844 88.746 165.623 75.967 170.501 88.746 165.623 101.525 160.745"/><circle class="y" cx="88.59501" cy="208.53981" r="6.79091" transform="translate(-57.9832 35.76031) rotate(-17.29226)"/><circle class="z" cx="88.62421" cy="200.25225" r="1.93017"/><circle class="aa" cx="88.70275" cy="177.88157" r="1.0781" transform="translate(-48.86531 34.40662) rotate(-17.29227)"/><circle class="ab" cx="88.65482" cy="191.52926" r="0.71405" transform="translate(-52.92418 35.00923) rotate(-17.29226)"/><circle class="ac" cx="88.6472" cy="193.68873" r="1.00413" transform="translate(-53.56642 35.10457) rotate(-17.29226)"/><circle class="ad" cx="88.62559" cy="199.82991" r="1.86426" transform="translate(-55.39285 35.37573) rotate(-17.29227)"/><path class="b" d="M232.74294,255.07313V121.99453h0c0,4.74736-55.69483,8.59581-77.27169,8.59581s-77.29359-3.84845-77.29359-8.59581h0V255.07318c.07618,5.90272,2.7717,11.8329,8.94029,11.8329h136.6847C229.971,266.90608,232.81593,260.85758,232.74294,255.07313Z"/><g class="ae"><path class="af" d="M160.08828,156.26561c-18.67791,1.50493-37.416,2.26908-56.09287,3.8-19.99409,1.63886-41.801,7.14928-57.53906,20.1983q-.22447.18612-.44662.375c-8.76135,7.42889-15.9763,17.98992-15.41066,29.46293.44337,8.99281,5.68342,17.23709,12.52839,23.08634s15.20215,9.61118,23.5767,12.91789c48.69347,19.22676,104.26913,25.27834,153.42829,7.27559,9.885-3.62,19.52717-8.23322,27.684-14.88789s14.78232-15.49629,17.51361-25.66283c2.8151-10.47851,1.31455-21.88724-3.25779-31.72684-4.33138-9.32105-11.14834-16.47991-13.97464-26.61155-.52427-1.87938-1.108-3.95817-2.75385-5.00613a7.51489,7.51489,0,0,0-3.74218-.85011c-21.64114-1.0035-42.5259,3.5073-63.88286,5.93934C171.85043,155.2439,165.97234,155.79151,160.08828,156.26561Z"/><path class="ag" d="M155.21861,196.16526c-18.41324,3.47587-36.96486,6.22152-55.37428,9.7231-19.70782,3.74853-40.80793,11.53894-55.0745,26.18234q-.20349.20886-.40436.42023c-7.92473,8.31554-13.97983,19.58172-12.20151,30.93017,1.3939,8.89519,7.47814,16.53772,14.90444,21.62863s16.13511,7.946,24.81292,10.34657c50.45685,13.95813,106.36087,14.08593,153.33533-9.02515,9.44573-4.64722,18.54468-10.25627,25.95033-17.7379s13.05685-16.9756,14.69534-27.37434c1.68878-10.71784-1.01238-21.90329-6.60174-31.20292-5.2948-8.80954-12.832-15.20565-16.71613-24.98072-.72049-1.81324-1.52127-3.81845-3.26888-4.68609a7.51486,7.51486,0,0,0-3.8112-.44874c-21.62561,1.2956-41.91473,7.99429-62.89368,12.676C166.80624,193.9028,161.0193,195.07026,155.21861,196.16526Z"/></g><path class="ah" d="M232.74294,121.99452c0,4.74735-55.69477,8.59583-77.27165,8.59583s-77.29363-3.84848-77.29363-8.59583,55.71675-8.59582,77.29363-8.59582S232.74294,117.24718,232.74294,121.99452Z"/><g class="ai"><circle class="aj" cx="125.83096" cy="130.59035" r="14.91016"/><ellipse class="ak" cx="124.78203" cy="122.37212" rx="9.96443" ry="6.00743" transform="translate(-8.91411 9.80733) rotate(-4.34581)"/><circle class="al" cx="133.76314" cy="123.10411" r="1.22104"/><circle class="am" cx="135.67077" cy="124.70762" r="0.4427"/><circle class="an" cx="119.28612" cy="140.68513" r="0.4427"/><path class="ao" d="M113.96769,131.67873c-.1463,2.87815,1.58571,7.02963,4.34722,8.24794"/><circle class="ap" cx="132.54211" cy="138.69966" r="1.35526"/></g><g class="ai"><circle class="aq" cx="170.04914" cy="112.31353" r="8.42633"/><ellipse class="ar" cx="169.45635" cy="107.66908" rx="5.6313" ry="3.39504" transform="translate(-7.67153 13.1503) rotate(-4.34581)"/><circle class="as" cx="174.53194" cy="108.08275" r="0.69006"/><circle class="at" cx="175.61001" cy="108.98896" r="0.25019"/><circle class="au" cx="166.35039" cy="118.0185" r="0.25019"/><path class="av" d="M163.34473,112.92861c-.08268,1.62656.89614,3.97273,2.45679,4.66125"/><circle class="aw" cx="173.84188" cy="116.89643" r="0.76591"/></g><g class="ai"><circle class="ax" cx="152.19389" cy="93.33985" r="4.48279"/><ellipse class="ay" cx="151.87852" cy="90.86901" rx="2.99584" ry="1.80616" transform="translate(-6.44902 11.77002) rotate(-4.34581)"/><circle class="az" cx="154.57872" cy="91.08908" r="0.36711"/><circle class="ba" cx="155.15226" cy="91.57118" r="0.1331"/><circle class="bb" cx="150.22615" cy="96.37488" r="0.1331"/><path class="bc" d="M148.62715,93.66707a2.79181,2.79181,0,0,0,1.307,2.47978"/><circle class="bd" cx="154.21161" cy="95.77794" r="0.40746"/></g><g class="be"><circle class="bf" cx="197.60026" cy="164.49202" r="9.8398"/><ellipse class="bg" cx="196.90802" cy="159.06849" rx="6.57592" ry="3.96454" transform="translate(-11.48745 15.37826) rotate(-4.34581)"/><circle class="bh" cx="202.83502" cy="159.55155" r="0.80581"/><circle class="bi" cx="204.09394" cy="160.60977" r="0.29216"/><circle class="bj" cx="193.28105" cy="171.15397" r="0.29216"/><path class="bk" d="M189.77121,165.21028c-.09655,1.89941,1.04647,4.63914,2.8689,5.44315"/><circle class="bl" cx="202.02921" cy="169.84368" r="0.89439"/></g><g class="be"><circle class="bm" cx="180.65605" cy="184.93134" r="5.23476"/><ellipse class="bn" cx="180.28779" cy="182.04603" rx="3.49838" ry="2.10913" transform="translate(-13.27638 14.18491) rotate(-4.34581)"/><circle class="bo" cx="183.44094" cy="182.30302" r="0.42869"/><circle class="bp" cx="184.11068" cy="182.86599" r="0.15543"/><circle class="bq" cx="178.35824" cy="188.47548" r="0.15543"/><path class="br" d="M176.491,185.31345a3.26015,3.26015,0,0,0,1.52626,2.89575"/><circle class="bs" cx="183.01225" cy="187.77841" r="0.47582"/></g><polygon class="bt" points="249.498 214.109 53.936 214.109 38.759 293.266 234.321 293.266 249.498 214.109"/><polygon class="bu" points="249.498 214.109 256.121 284.079 253.512 286.124 238.522 286.285 237.413 290.841 234.321 293.266 249.498 214.109"/><path class="bv" d="M103.21849,240.37369a3.54958,3.54958,0,0,1,1.25879-1.55664,2.89293,2.89293,0,0,1,1.83691-.59765,1.731,1.731,0,0,1,1.62793.88476,2.26544,2.26544,0,0,1-.00488,1.96289q-.86865,2.15332-2.21777,6.0791a3.245,3.245,0,0,1-1.28418,1.65137,2.85486,2.85486,0,0,1-1.94629.64649,1.6742,1.6742,0,0,1-1.4834-.88575,2.10913,2.10913,0,0,1-.14356-1.7705Q102.25073,242.71843,103.21849,240.37369Zm4.01855-9.90918a3.15724,3.15724,0,0,1,1.95508-.7666l12.78223-.0957a1.80516,1.80516,0,0,1,1.82812,1.0293,2.5171,2.5171,0,0,1-.39453,2.3457,63.48049,63.48049,0,0,0-6.416,14.16894,3.18734,3.18734,0,0,1-1.33106,1.65137,2.76379,2.76379,0,0,1-1.94629.64649,1.63923,1.63923,0,0,1-1.43652-.88575,2.00531,2.00531,0,0,1-.0957-1.7705,76.91932,76.91932,0,0,1,5.07226-12.207l-9.35449.07227a1.77357,1.77357,0,0,1-1.55957-.69434,2.09341,2.09341,0,0,1-.31055-1.7705A3.29356,3.29356,0,0,1,107.237,230.46451Z"/><path class="bv" d="M127.94017,230.46451a3.31725,3.31725,0,0,1,1.96582-.71777l7.03809-.0957a3.85229,3.85229,0,0,1,.61132-.04883,1.25992,1.25992,0,0,1,.60938.04883l4.53711-.04883a1.7532,1.7532,0,0,1,1.55273.71875,1.84845,1.84845,0,0,1,.32324,1.72266,3.491,3.491,0,0,1-1.21972,1.77148,3.22808,3.22808,0,0,1-1.94141.71875l-3.41211.04687a68.69777,68.69777,0,0,0-5.45508,12.56543,2.82515,2.82515,0,0,1-1.26074,1.65137,2.854,2.854,0,0,1-1.94531.64649,1.63922,1.63922,0,0,1-1.43652-.88575,1.90114,1.90114,0,0,1-.14258-1.7705,75.13855,75.13855,0,0,1,4.97949-12.13477l-4.17676.04688a1.85448,1.85448,0,0,1-1.52343-.74122,2.09337,2.09337,0,0,1-.29981-1.72363A3.34374,3.34374,0,0,1,127.94017,230.46451Z"/><path class="bv" d="M150.46751,231.15885a3.15926,3.15926,0,0,1,2.62207-1.55664,1.79841,1.79841,0,0,1,1.876,1.0293,2.384,2.384,0,0,1-.40723,2.39355,62.658,62.658,0,0,0-6.40332,14.12109,3.24488,3.24488,0,0,1-1.28418,1.65137,2.85484,2.85484,0,0,1-1.94629.64649,1.6742,1.6742,0,0,1-1.48339-.88575,2.10913,2.10913,0,0,1-.14356-1.7705A67.98917,67.98917,0,0,1,150.46751,231.15885Z"/><path class="bv" d="M156.42357,240.37369a3.54958,3.54958,0,0,1,1.25879-1.55664,2.89292,2.89292,0,0,1,1.83691-.59765,1.731,1.731,0,0,1,1.62793.88476,2.26544,2.26544,0,0,1-.00488,1.96289q-.86865,2.15332-2.21778,6.0791a3.24488,3.24488,0,0,1-1.28418,1.65137,2.85484,2.85484,0,0,1-1.94628.64649,1.6742,1.6742,0,0,1-1.4834-.88575,2.10913,2.10913,0,0,1-.14356-1.7705Q155.45579,242.71843,156.42357,240.37369Zm4.01855-9.90918a3.15722,3.15722,0,0,1,1.95508-.7666l12.78223-.0957a1.80517,1.80517,0,0,1,1.82812,1.0293,2.51712,2.51712,0,0,1-.39453,2.3457,63.48,63.48,0,0,0-6.416,14.16894,3.18734,3.18734,0,0,1-1.33106,1.65137,2.76379,2.76379,0,0,1-1.94629.64649,1.63922,1.63922,0,0,1-1.43652-.88575,2.00531,2.00531,0,0,1-.0957-1.7705,76.91932,76.91932,0,0,1,5.07226-12.207l-9.35449.07227a1.77356,1.77356,0,0,1-1.55957-.69434,2.09337,2.09337,0,0,1-.31055-1.7705A3.29356,3.29356,0,0,1,160.44212,230.46451Z"/><path class="bv" d="M182.56908,231.39713a3.43414,3.43414,0,0,1,1.27636-1.26758,3.88564,3.88564,0,0,1,1.58985-.47851,1.93616,1.93616,0,0,1,2.00488,1.17187,2.55387,2.55387,0,0,1-.39844,2.53711,43.2955,43.2955,0,0,0-3.74609,6.77344,3.62687,3.62687,0,0,1-1.5918,1.72363,3.265,3.265,0,0,1-2.0918.47852,1.919,1.919,0,0,1-1.40527-1.17285,2.42159,2.42159,0,0,1,.06445-2.00977A57.399,57.399,0,0,1,182.56908,231.39713Z"/><path class="bv" d="M91.48119,263.25846a3.40572,3.40572,0,0,1,1.27636-1.26758,3.89429,3.89429,0,0,1,1.58887-.47949,1.93483,1.93483,0,0,1,2.00488,1.17285,2.55387,2.55387,0,0,1-.39844,2.53711,43.29586,43.29586,0,0,0-3.74609,6.77344,3.63179,3.63179,0,0,1-1.59082,1.72265,3.2616,3.2616,0,0,1-2.09277.47852,1.91772,1.91772,0,0,1-1.40528-1.17188,2.42411,2.42411,0,0,1,.06543-2.01074A57.17248,57.17248,0,0,1,91.48119,263.25846Z"/><path class="bv" d="M96.67943,277.14127a2.94461,2.94461,0,0,1,1.97265-.74219q3.78077,0,9.335-.0957a69.33179,69.33179,0,0,1,4.30665-9.90918l-9.29493.12012a1.82473,1.82473,0,0,1-1.57031-.74219,1.84983,1.84983,0,0,1-.32324-1.72363,3.21294,3.21294,0,0,1,1.25488-1.72363,3.12633,3.12633,0,0,1,1.918-.7168l12.72363-.14453a1.76715,1.76715,0,0,1,1.78028,1.02929,2.52076,2.52076,0,0,1-.39551,2.34571,53.01914,53.01914,0,0,0-5.43067,11.416h.93165a1.91943,1.91943,0,0,1,1.85449,2.44141,3.26859,3.26859,0,0,1-1.26953,1.77148,3.09379,3.09379,0,0,1-1.92383.74219h-3.7334q-12.28125.09522-11.49023.0957a1.83889,1.83889,0,0,1-1.82911-2.4414A3.13531,3.13531,0,0,1,96.67943,277.14127Z"/><path class="bv" d="M119.56029,277.14127a2.7807,2.7807,0,0,1,1.9248-.74219q3.63721,0,6.04395-.04882,3.64013-.09522,4.333-.09571a69.26268,69.26268,0,0,1,4.29395-9.86035l-9.29492.12012a1.8247,1.8247,0,0,1-1.57031-.74219,1.84986,1.84986,0,0,1-.32325-1.72363,3.21291,3.21291,0,0,1,1.25489-1.72363,3.01372,3.01372,0,0,1,1.88281-.76563l12.75781-.0957a1.76545,1.76545,0,0,1,1.78027,1.02929,2.51749,2.51749,0,0,1-.39453,2.34571,55.2412,55.2412,0,0,0-5.68066,12.1582,2.17144,2.17144,0,0,1-.22168,2.68066,3.20443,3.20443,0,0,1-2.73535,1.53223H133.324a5.14553,5.14553,0,0,1-.98145,0q-2.34668,0-5.49414.04688-2.86083.0498-6.69043.04882a1.77449,1.77449,0,0,1-1.52246-.74218,1.81808,1.81808,0,0,1-.30664-1.69922A3.07462,3.07462,0,0,1,119.56029,277.14127Z"/><path class="bv" d="M142.31419,277.78678a65.99533,65.99533,0,0,1,6.10938-7.37207,30.88077,30.88077,0,0,0-.09571-5.57617,2.5741,2.5741,0,0,1,.8125-2.29785,3.28444,3.28444,0,0,1,2.34961-1.07715,1.64993,1.64993,0,0,1,1.87793,1.55566,25.77046,25.77046,0,0,1,.16309,2.84863,26.75059,26.75059,0,0,1,7.93457-4.11718c.13574-.03125.27148-.06348.4082-.09571a8.53482,8.53482,0,0,1,1.67871-.1914h.335a6.989,6.989,0,0,1,1.14746.0957,2.91081,2.91081,0,0,1,2.31933,1.60352q.75439,1.72265-.80469,5.09765-3.832,8.42579-4.0332,10.05274a3.29635,3.29635,0,0,1-1.16406,1.91406,3.00129,3.00129,0,0,1-2.02149.83789h-3.08691c-.00879.0332-.06152.04883-.1582.04883l-.17969.04687h-4.02148a1.653,1.653,0,0,1-1.51172-.69336,1.89962,1.89962,0,0,1-.30957-1.77148,3.12433,3.12433,0,0,1,1.23535-1.65039,2.94241,2.94241,0,0,1,1.91308-.791h3.49414a.187.187,0,0,0,.10938-.04785h1.26855q.22413-.74121,3.91895-8.83105a5.02881,5.02881,0,0,0,.36035-.98145,6.41887,6.41887,0,0,0-.75391.04785q-7.62744,2.53712-15.29492,13.28321a3.47981,3.47981,0,0,1-1.77734,1.43554,2.30893,2.30893,0,0,1-1.90137-.04687,1.65762,1.65762,0,0,1-.92773-1.43653A2.7855,2.7855,0,0,1,142.31419,277.78678Zm14.542,3.13574q.06-.04833.45605-.35937a4.09827,4.09827,0,0,1-.59961.35937Q156.92942,280.82584,156.85619,280.92252Z"/><path class="bv" d="M169.42552,272.23405a3.55008,3.55008,0,0,1,1.25781-1.55567,2.885,2.885,0,0,1,1.83692-.59766,1.731,1.731,0,0,1,1.62793.88477,2.26545,2.26545,0,0,1-.00489,1.96289q-.86865,2.15332-2.21679,6.07813a3.25313,3.25313,0,0,1-1.28516,1.65234,2.85829,2.85829,0,0,1-1.94629.64648,1.67618,1.67618,0,0,1-1.4834-.88671,2.10658,2.10658,0,0,1-.14257-1.76954Q168.45628,274.57975,169.42552,272.23405Zm4.01856-9.90918a3.15678,3.15678,0,0,1,1.9541-.76563l12.78222-.0957a1.80518,1.80518,0,0,1,1.82813,1.02929,2.51752,2.51752,0,0,1-.39453,2.34571,63.51417,63.51417,0,0,0-6.416,14.168,3.18825,3.18825,0,0,1-1.33105,1.65234,2.767,2.767,0,0,1-1.94629.64648,1.63745,1.63745,0,0,1-1.43555-.88671,1.99983,1.99983,0,0,1-.0957-1.76954,76.849,76.849,0,0,1,5.07129-12.207l-9.35449.07227a1.76916,1.76916,0,0,1-1.5586-.69531,2.08877,2.08877,0,0,1-.31055-1.77051A3.28625,3.28625,0,0,1,173.44408,262.32487Z"/></g></svg>