<svg xmlns="http://www.w3.org/2000/svg" xmlns:xlink="http://www.w3.org/1999/xlink" viewBox="0 0 303.95444 341.11501"><defs><style>.a,.d{opacity:0.72;}.a{fill:url(#a);}.ad,.b,.j{opacity:0.8;}.b{fill:url(#b);}.c{isolation:isolate;}.d{fill:url(#c);}.e{fill:#683c11;fill-opacity:0.51;}.f,.h{mix-blend-mode:multiply;}.f{fill:url(#d);}.g{clip-path:url(#f);}.h{fill:url(#g);}.i{opacity:0.42;fill:url(#h);}.ba,.j{mix-blend-mode:hard-light;}.k{fill:url(#i);}.l{opacity:0.25;fill:url(#j);}.l,.m,.n,.o,.q,.r,.s,.t,.u,.v,.w,.x,.y,.z{mix-blend-mode:screen;}.m{fill:url(#k);}.n{fill:url(#l);}.o{opacity:0.2;fill:url(#m);}.ak,.ar,.ay,.bg,.bn,.p,.t{fill:none;}.q{opacity:0.15;fill:url(#n);}.bu,.r,.u{opacity:0.5;}.r{fill:url(#o);}.s{fill:url(#p);}.t{stroke:#fff;stroke-width:1.69256px;opacity:0.03;}.ad,.t{stroke-miterlimit:10;}.u{fill:url(#q);}.v{fill:url(#r);}.w{fill:url(#s);}.x{fill:url(#t);}.y{fill:url(#u);}.z{fill:url(#v);}.aa{clip-path:url(#x);}.ab,.ac,.ae{opacity:0.3;}.ab{fill:url(#y);}.ac{fill:url(#z);}.ad,.ak{stroke-width:0.84628px;}.ad{fill:url(#aa);stroke:url(#ab);}.af{fill:url(#ac);}.ag,.aj,.ak,.an,.aq,.ar,.au,.ax,.ay,.bc,.bf,.bg,.bj,.bm,.bn{mix-blend-mode:soft-light;}.ag{fill:url(#ad);}.ah{fill:url(#ae);}.ai{fill:url(#af);}.aj{fill:url(#ag);}.ak,.ar,.ay,.bg,.bn{stroke-linecap:round;stroke-linejoin:round;}.ak{stroke:url(#ah);}.al{fill:url(#ai);}.am{fill:url(#aj);}.an{fill:url(#ak);}.ao{fill:url(#al);}.ap{fill:url(#am);}.aq{fill:url(#an);}.ar{stroke-width:0.47827px;stroke:url(#ao);}.as{fill:url(#ap);}.at{fill:url(#aq);}.au{fill:url(#ar);}.av{fill:url(#as);}.aw{fill:url(#at);}.ax{fill:url(#au);}.ay{stroke-width:0.25444px;stroke:url(#av);}.az{fill:url(#aw);}.ba{opacity:0.2;}.bb{fill:url(#ax);}.bc{fill:url(#ay);}.bd{fill:url(#az);}.be{fill:url(#ba);}.bf{fill:url(#bb);}.bg{stroke-width:0.55849px;stroke:url(#bc);}.bh{fill:url(#bd);}.bi{fill:url(#be);}.bj{fill:url(#bf);}.bk{fill:url(#bg);}.bl{fill:url(#bh);}.bm{fill:url(#bi);}.bn{stroke-width:0.29712px;stroke:url(#bj);}.bo{fill:url(#bk);}.bp{fill:#fff;}.bq{fill:#c6c6c6;}.br{fill:#3c3c3b;}.bs{opacity:0.54;}.bt{fill:url(#bl);}.bu{fill:url(#bm);}</style><linearGradient id="a" x1="99.79772" y1="165.56347" x2="194.17831" y2="165.56347" gradientUnits="userSpaceOnUse"><stop offset="0" stop-color="#f5fbff"/><stop offset="0.62567" stop-color="#e9f1f5"/><stop offset="1" stop-color="#c5d9e0"/></linearGradient><linearGradient id="b" x1="213.86205" y1="270.68209" x2="95.76193" y2="114.15705" gradientUnits="userSpaceOnUse"><stop offset="0" stop-color="#bb1b07"/><stop offset="1" stop-color="#f04739"/></linearGradient><linearGradient id="c" x1="148.23991" y1="38.3778" x2="148.23991" y2="64.94849" xlink:href="#a"/><linearGradient id="d" x1="166.09223" y1="61.71976" x2="143.79466" y2="243.33184" gradientUnits="userSpaceOnUse"><stop offset="0" stop-color="#bfc4c7"/><stop offset="1" stop-color="#b1c3c9"/></linearGradient><clipPath id="f"><path class="a" d="M241.247,260.32927V56.21441c0,4.92526-63.5812,8.918-87.37872,8.918q-1.79722,0-3.59431-.02924c-4.7989-.07261-9.59629-.249-14.3905-.4687q-8.51441-.3902-17.01852-.97514-8.76555-.597-17.51591-1.397c-5.3029-.49123-10.60164-1.04461-15.88269-1.73435-3.878-.50649-7.72018-1.49-11.65365-1.44118-3.95531.04913-7.6323,1.67156-11.44575,2.505q-.47636.10416-.95438.20048a19.75524,19.75524,0,0,1-3.84674.58949q-.67953.07353-1.36171.11872c-.22315.015-.86315-.06053-1.01578.13972-.13736.18024.24047.6185.36578.75686a5.19757,5.19757,0,0,0,.75975.60652c.32624.24652.66942.46711,1.00291.70321l3.44455,2.439,5.5635,3.93934.16454.1165V260.32927a11.53455,11.53455,0,0,0,11.12438,14.58326H230.12259A11.53455,11.53455,0,0,0,241.247,260.32927Z"/></clipPath><linearGradient id="g" x1="115.21171" y1="163.94125" x2="166.38888" y2="296.11187" gradientUnits="userSpaceOnUse"><stop offset="0" stop-color="#f5f5f5"/><stop offset="1" stop-color="#c3d1d6"/></linearGradient><linearGradient id="h" x1="93.77065" y1="207.6583" x2="207.86893" y2="207.6583" xlink:href="#b"/><radialGradient id="i" cx="-1451.56904" cy="-1323.93027" r="54.27899" gradientTransform="matrix(0.00636, -0.99998, 0.15751, 0.001, 302.57007, -1298.33759)" gradientUnits="userSpaceOnUse"><stop offset="0" stop-color="#e6f3ff"/><stop offset="1" stop-color="#b9cbf0" stop-opacity="0"/></radialGradient><radialGradient id="j" cx="-1725.39147" cy="-1667.20537" r="13.58164" gradientTransform="translate(1812.58273 1822.09911)" gradientUnits="userSpaceOnUse"><stop offset="0.1"/><stop offset="0.11244" stop-color="#080602"/><stop offset="0.16172" stop-color="#231b08"/><stop offset="0.21838" stop-color="#392c0d"/><stop offset="0.28458" stop-color="#4a3910"/><stop offset="0.36644" stop-color="#554213"/><stop offset="0.48125" stop-color="#5c4815"/><stop offset="0.8" stop-color="#5e4915"/><stop offset="1"/></radialGradient><radialGradient id="k" cx="-1740.35552" cy="-1619.72665" r="0.45271" gradientTransform="translate(1827.37195 1824.40111)" gradientUnits="userSpaceOnUse"><stop offset="0" stop-color="#d4e194"/><stop offset="0.05952" stop-color="#afba7a"/><stop offset="0.13651" stop-color="#868f5e"/><stop offset="0.21955" stop-color="#626845"/><stop offset="0.30759" stop-color="#44482f"/><stop offset="0.40211" stop-color="#2b2e1e"/><stop offset="0.50556" stop-color="#181911"/><stop offset="0.62249" stop-color="#0a0b07"/><stop offset="0.76429" stop-color="#020302"/><stop offset="1"/></radialGradient><radialGradient id="l" cx="-1741.5175" cy="-1616.03998" r="0.45271" gradientTransform="translate(1828.52048 1824.5797)" xlink:href="#k"/><radialGradient id="m" cx="-1740.87246" cy="-1618.08657" r="3.39543" gradientTransform="translate(1827.88284 1824.48063)" gradientUnits="userSpaceOnUse"><stop offset="0.05"/><stop offset="0.09242" stop-color="#040a03"/><stop offset="0.29802" stop-color="#183411"/><stop offset="0.48337" stop-color="#25531c"/><stop offset="0.64031" stop-color="#2e6622"/><stop offset="0.75" stop-color="#316d24"/><stop offset="0.78593" stop-color="#4f6e16"/><stop offset="0.83397" stop-color="#716f06"/><stop offset="0.86" stop-color="#7e6f00"/><stop offset="0.88764" stop-color="#7a6c00"/><stop offset="0.91229" stop-color="#706200"/><stop offset="0.93581" stop-color="#5d5200"/><stop offset="0.95863" stop-color="#443c00"/><stop offset="0.98074" stop-color="#231f00"/><stop offset="1"/></radialGradient><radialGradient id="n" cx="-1728.61668" cy="-1656.97231" r="9.05439" gradientTransform="translate(1815.77025 1822.59526)" gradientUnits="userSpaceOnUse"><stop offset="0" stop-color="#200"/><stop offset="0.73" stop-color="#984023"/><stop offset="1" stop-color="#200"/></radialGradient><radialGradient id="o" cx="-1728.61668" cy="-1656.97231" r="4.52725" gradientTransform="translate(1815.77028 1822.59523)" gradientUnits="userSpaceOnUse"><stop offset="0.15" stop-color="#fff"/><stop offset="0.20939" stop-color="#e5d3d3"/><stop offset="0.29044" stop-color="#c49c9e"/><stop offset="0.36051" stop-color="#ad7477"/><stop offset="0.41599" stop-color="#9e5c5f"/><stop offset="0.45" stop-color="#995356"/><stop offset="0.57175" stop-color="#6b3335"/><stop offset="0.69355" stop-color="#431718"/><stop offset="0.79053" stop-color="#2b0606"/><stop offset="0.85" stop-color="#200"/><stop offset="0.85727" stop-color="#260201"/><stop offset="0.8648" stop-color="#330704"/><stop offset="0.87246" stop-color="#471009"/><stop offset="0.8802" stop-color="#641d0f"/><stop offset="0.88801" stop-color="#8a2e18"/><stop offset="0.89577" stop-color="#b74223"/><stop offset="0.9" stop-color="#d34e29"/><stop offset="0.90254" stop-color="#c84927"/><stop offset="0.91417" stop-color="#9c361c"/><stop offset="0.92635" stop-color="#772514"/><stop offset="0.93893" stop-color="#58180c"/><stop offset="0.95205" stop-color="#400d07"/><stop offset="0.96594" stop-color="#2f0603"/><stop offset="0.98111" stop-color="#250101"/><stop offset="1" stop-color="#200"/></radialGradient><radialGradient id="p" cx="-1728.61668" cy="-1656.97231" r="3.7727" gradientTransform="translate(1815.77028 1822.59523)" gradientUnits="userSpaceOnUse"><stop offset="0.15" stop-color="#fff"/><stop offset="0.28237" stop-color="#c2c2c2"/><stop offset="0.42528" stop-color="#888"/><stop offset="0.5636" stop-color="#575757"/><stop offset="0.69361" stop-color="#313131"/><stop offset="0.81336" stop-color="#161616"/><stop offset="0.91921" stop-color="#060606"/><stop offset="1"/></radialGradient><radialGradient id="q" cx="-1741.5175" cy="-1616.03998" r="6.79086" gradientTransform="translate(1828.5204 1824.57979)" gradientUnits="userSpaceOnUse"><stop offset="0.64"/><stop offset="0.71799" stop-color="#000200"/><stop offset="0.74608" stop-color="#020902"/><stop offset="0.76609" stop-color="#051405"/><stop offset="0.78228" stop-color="#082509"/><stop offset="0.79598" stop-color="#0d3b0e"/><stop offset="0.8" stop-color="#0f4310"/><stop offset="0.8131" stop-color="#1e2c0a"/><stop offset="0.82975" stop-color="#2d1605"/><stop offset="0.84569" stop-color="#360901"/><stop offset="0.86" stop-color="#390400"/><stop offset="0.8715" stop-color="#250300"/><stop offset="0.88602" stop-color="#140100"/><stop offset="0.90412" stop-color="#090100"/><stop offset="0.92951" stop-color="#020000"/><stop offset="1"/></radialGradient><radialGradient id="r" cx="-1739.02618" cy="-1623.94427" r="1.93017" gradientTransform="translate(2230.16679 1233.8773) rotate(-17.29226)" gradientUnits="userSpaceOnUse"><stop offset="0.1"/><stop offset="0.24639" stop-color="#1b1103"/><stop offset="0.42619" stop-color="#362207"/><stop offset="0.61009" stop-color="#492e09"/><stop offset="0.79889" stop-color="#54350b"/><stop offset="1" stop-color="#58370b"/></radialGradient><radialGradient id="s" cx="-1732.30159" cy="-1645.28047" r="1.07807" gradientTransform="translate(1819.41221 1823.16206)" gradientUnits="userSpaceOnUse"><stop offset="0.1" stop-color="#192f1b"/><stop offset="0.2285" stop-color="#122214"/><stop offset="0.47516" stop-color="#080f09"/><stop offset="0.72928" stop-color="#020402"/><stop offset="1"/></radialGradient><radialGradient id="t" cx="-1736.40407" cy="-1632.2639" r="0.714" gradientTransform="translate(1823.46681 1823.79313)" xlink:href="#r"/><radialGradient id="u" cx="-1737.05324" cy="-1630.20429" r="1.00408" gradientTransform="translate(1824.10831 1823.89305)" gradientUnits="userSpaceOnUse"><stop offset="0.1"/><stop offset="0.29001" stop-color="#14160e"/><stop offset="0.51699" stop-color="#25291a"/><stop offset="0.75084" stop-color="#303422"/><stop offset="1" stop-color="#333824"/></radialGradient><radialGradient id="v" cx="-1738.89932" cy="-1624.34711" r="1.86428" gradientTransform="translate(1825.93271 1824.17712)" xlink:href="#s"/><clipPath id="x"><path class="b" d="M231.15083,255.07313V121.99453h0c0,4.74736-55.69483,8.59581-77.27169,8.59581s-77.29359-3.84845-77.29359-8.59581h0V255.07318c.07618,5.90272,2.7717,11.8329,8.94029,11.8329h136.6847C228.37893,266.90608,231.22382,260.85758,231.15083,255.07313Z"/></clipPath><linearGradient id="y" x1="310.52592" y1="217.33703" x2="63.4918" y2="194.35711" xlink:href="#b"/><linearGradient id="z" x1="30.25973" y1="242.44061" x2="264.76871" y2="242.44061" xlink:href="#b"/><linearGradient id="aa" x1="291.12104" y1="121.99452" x2="107.97486" y2="121.99452" xlink:href="#b"/><linearGradient id="ab" x1="76.16241" y1="121.99452" x2="231.57397" y2="121.99452" gradientUnits="userSpaceOnUse"><stop offset="0" stop-color="#ff3b26"/><stop offset="1" stop-color="#f04739"/></linearGradient><radialGradient id="ac" cx="124.23885" cy="130.59035" r="14.16583" gradientTransform="matrix(0.2537, -0.96728, 0.95587, 0.2507, -32.10802, 218.02496)" gradientUnits="userSpaceOnUse"><stop offset="0" stop-color="#c74035" stop-opacity="0.8"/><stop offset="0.29921" stop-color="#ca4439" stop-opacity="0.80046"/><stop offset="0.52418" stop-color="#d24f44" stop-opacity="0.80193"/><stop offset="0.72493" stop-color="#e06158" stop-opacity="0.8044"/><stop offset="0.91041" stop-color="#f37c74" stop-opacity="0.80787"/><stop offset="1" stop-color="#ff8c85" stop-opacity="0.81"/></radialGradient><radialGradient id="ad" cx="982.7126" cy="246.47746" r="9.1779" gradientTransform="translate(-1099.45332 -67.68066) scale(1.24415 0.77108)" gradientUnits="userSpaceOnUse"><stop offset="0" stop-color="#eb6a52"/><stop offset="0.37881" stop-color="#eb6a52" stop-opacity="0.99203"/><stop offset="0.51527" stop-color="#ea6b53" stop-opacity="0.96313"/><stop offset="0.61253" stop-color="#ea6c55" stop-opacity="0.91281"/><stop offset="0.69121" stop-color="#e96e57" stop-opacity="0.8409"/><stop offset="0.75863" stop-color="#e7705a" stop-opacity="0.74715"/><stop offset="0.81834" stop-color="#e5725e" stop-opacity="0.63133"/><stop offset="0.87231" stop-color="#e37662" stop-opacity="0.49335"/><stop offset="0.92196" stop-color="#e17967" stop-opacity="0.33264"/><stop offset="0.96609" stop-color="#de7d6d" stop-opacity="0.15775"/><stop offset="1" stop-color="#dc8172" stop-opacity="0"/></radialGradient><radialGradient id="ae" cx="132.17103" cy="123.10411" r="1.16008" gradientTransform="matrix(0.2537, -0.96728, 0.95587, 0.2507, -19.03232, 220.08822)" gradientUnits="userSpaceOnUse"><stop offset="0" stop-color="#ebc8c1"/><stop offset="0.37881" stop-color="#ebc7c0" stop-opacity="0.99203"/><stop offset="0.51527" stop-color="#eac5be" stop-opacity="0.96313"/><stop offset="0.61253" stop-color="#eac2ba" stop-opacity="0.91281"/><stop offset="0.69121" stop-color="#e9bdb4" stop-opacity="0.8409"/><stop offset="0.75863" stop-color="#e7b6ad" stop-opacity="0.74715"/><stop offset="0.81834" stop-color="#e5aea4" stop-opacity="0.63133"/><stop offset="0.87231" stop-color="#e3a499" stop-opacity="0.49335"/><stop offset="0.92196" stop-color="#e1998c" stop-opacity="0.33264"/><stop offset="0.96609" stop-color="#de8c7e" stop-opacity="0.15775"/><stop offset="1" stop-color="#dc8172" stop-opacity="0"/></radialGradient><radialGradient id="af" cx="134.07866" cy="124.70762" r="0.4206" gradientTransform="matrix(0.2537, -0.96728, 0.95587, 0.2507, -19.14141, 223.13494)" gradientUnits="userSpaceOnUse"><stop offset="0" stop-color="#ebc8c1"/><stop offset="0.22496" stop-color="#ebc7c0" stop-opacity="0.98901"/><stop offset="0.3644" stop-color="#eac5bd" stop-opacity="0.95275"/><stop offset="0.48062" stop-color="#e9c0b8" stop-opacity="0.89088"/><stop offset="0.58411" stop-color="#e8bab1" stop-opacity="0.80322"/><stop offset="0.67914" stop-color="#e6b2a8" stop-opacity="0.68961"/><stop offset="0.7679" stop-color="#e4a89d" stop-opacity="0.55"/><stop offset="0.85188" stop-color="#e29c90" stop-opacity="0.38414"/><stop offset="0.92991" stop-color="#df8f82" stop-opacity="0.19725"/><stop offset="1" stop-color="#dc8172" stop-opacity="0"/></radialGradient><radialGradient id="ag" cx="117.69401" cy="140.68513" r="0.4206" gradientTransform="matrix(0.2537, -0.96728, 0.95587, 0.2507, -46.64179, 219.25821)" xlink:href="#af"/><radialGradient id="ah" cx="114.54489" cy="135.8027" r="3.70417" gradientTransform="matrix(1, 0, 0, 1, 0, 0)" xlink:href="#ae"/><radialGradient id="ai" cx="130.94999" cy="138.69966" r="1.68884" gradientTransform="translate(0 20.14894) scale(1 0.85473)" gradientUnits="userSpaceOnUse"><stop offset="0" stop-color="#eb6a52"/><stop offset="0.09168" stop-color="#eb6b53" stop-opacity="0.96822"/><stop offset="0.22975" stop-color="#e96d56" stop-opacity="0.88033"/><stop offset="0.39704" stop-color="#e7705a" stop-opacity="0.73641"/><stop offset="0.58721" stop-color="#e47561" stop-opacity="0.53628"/><stop offset="0.79369" stop-color="#e07a69" stop-opacity="0.2836"/><stop offset="1" stop-color="#dc8172" stop-opacity="0"/></radialGradient><radialGradient id="aj" cx="168.45703" cy="112.31353" r="8.00568" gradientTransform="matrix(0.2537, -0.96728, 0.95587, 0.2507, 18.36244, 247.10174)" xlink:href="#ac"/><radialGradient id="ak" cx="1019.41232" cy="233.97865" r="5.1868" gradientTransform="translate(-1100.43901 -72.74618) scale(1.24415 0.77108)" xlink:href="#ad"/><radialGradient id="al" cx="172.93982" cy="108.08275" r="0.65561" gradientTransform="matrix(0.2537, -0.96728, 0.95587, 0.2507, 25.75205, 248.26777)" xlink:href="#ae"/><radialGradient id="am" cx="174.0179" cy="108.98896" r="0.2377" gradientTransform="matrix(0.2537, -0.96728, 0.95587, 0.2507, 25.6904, 249.9896)" xlink:href="#af"/><radialGradient id="an" cx="164.75828" cy="118.0185" r="0.2377" gradientTransform="matrix(0.2537, -0.96728, 0.95587, 0.2507, 10.14883, 247.7987)" xlink:href="#af"/><radialGradient id="ao" cx="162.97858" cy="115.25924" r="2.09337" gradientTransform="matrix(1, 0, 0, 1, 0, 0)" xlink:href="#ae"/><radialGradient id="ap" cx="172.24977" cy="116.89643" r="0.95443" gradientTransform="translate(0 16.98157) scale(1 0.85473)" xlink:href="#ai"/><radialGradient id="aq" cx="150.60178" cy="93.33985" r="4.25901" gradientTransform="matrix(0.2537, -0.96728, 0.95587, 0.2507, 23.17345, 215.61375)" xlink:href="#ac"/><radialGradient id="ar" cx="1006.3478" cy="213.933" r="2.75937" gradientTransform="translate(-1101.76259 -74.08953) scale(1.24415 0.77108)" xlink:href="#ad"/><radialGradient id="as" cx="152.98661" cy="91.08908" r="0.34878" gradientTransform="matrix(0.2537, -0.96728, 0.95587, 0.2507, 27.10471, 216.23408)" xlink:href="#ae"/><radialGradient id="at" cx="153.56015" cy="91.57118" r="0.12646" gradientTransform="matrix(0.2537, -0.96728, 0.95587, 0.2507, 27.07191, 217.15009)" xlink:href="#af"/><radialGradient id="au" cx="148.63404" cy="96.37488" r="0.12646" gradientTransform="matrix(0.2537, -0.96728, 0.95587, 0.2507, 18.80382, 215.98453)" xlink:href="#af"/><radialGradient id="av" cx="147.68725" cy="94.90696" r="1.11367" gradientTransform="matrix(1, 0, 0, 1, 0, 0)" xlink:href="#ae"/><radialGradient id="aw" cx="152.6195" cy="95.77794" r="0.50776" gradientTransform="translate(0 13.91369) scale(1 0.85473)" xlink:href="#ai"/><radialGradient id="ax" cx="196.00815" cy="164.49202" r="9.34859" gradientTransform="matrix(0.2537, -0.96728, 0.95587, 0.2507, -10.95211, 312.84859)" xlink:href="#ac"/><radialGradient id="ay" cx="1038.28294" cy="293.09643" r="6.05686" gradientTransform="translate(-1096.46524 -66.93105) scale(1.24415 0.77108)" xlink:href="#ad"/><radialGradient id="az" cx="201.24291" cy="159.55155" r="0.76558" gradientTransform="matrix(0.2537, -0.96728, 0.95587, 0.2507, -2.32293, 314.21021)" xlink:href="#ae"/><radialGradient id="ba" cx="202.50182" cy="160.60977" r="0.27757" gradientTransform="matrix(0.2537, -0.96728, 0.95587, 0.2507, -2.39492, 316.22086)" xlink:href="#af"/><radialGradient id="bb" cx="191.68894" cy="171.15397" r="0.27757" gradientTransform="matrix(0.2537, -0.96728, 0.95587, 0.2507, -20.54352, 313.66246)" xlink:href="#af"/><radialGradient id="bc" cx="189.61071" cy="167.93186" r="2.44453" gradientTransform="matrix(1, 0, 0, 1, 0, 0)" xlink:href="#ae"/><radialGradient id="bd" cx="200.4371" cy="169.84368" r="1.11454" gradientTransform="translate(0 24.67324) scale(1 0.85473)" xlink:href="#ai"/><radialGradient id="be" cx="179.06394" cy="184.93134" r="4.97343" gradientTransform="matrix(0.2537, -0.96728, 0.95587, 0.2507, -43.13501, 311.77382)" xlink:href="#ac"/><radialGradient id="bf" cx="1023.56319" cy="317.09752" r="3.22224" gradientTransform="translate(-1094.77188 -62.46017) scale(1.24415 0.77108)" xlink:href="#ad"/><radialGradient id="bg" cx="181.84883" cy="182.30302" r="0.40729" gradientTransform="matrix(0.2537, -0.96728, 0.95587, 0.2507, -38.5443, 312.49821)" xlink:href="#ae"/><radialGradient id="bh" cx="182.51857" cy="182.86599" r="0.14767" gradientTransform="matrix(0.2537, -0.96728, 0.95587, 0.2507, -38.5826, 313.56787)" xlink:href="#af"/><radialGradient id="bi" cx="176.76613" cy="188.47548" r="0.14767" gradientTransform="matrix(0.2537, -0.96728, 0.95587, 0.2507, -48.23762, 312.2068)" xlink:href="#af"/><radialGradient id="bj" cx="175.66052" cy="186.76133" r="1.30048" gradientTransform="matrix(1, 0, 0, 1, 0, 0)" xlink:href="#ae"/><radialGradient id="bk" cx="181.42014" cy="187.77841" r="0.59293" gradientTransform="translate(0 27.27862) scale(1 0.85473)" xlink:href="#ai"/><radialGradient id="bl" cx="222.10724" cy="128.1371" r="64.69946" gradientTransform="translate(235.80766 -94.04415) rotate(89.70298) scale(1 0.11591)" xlink:href="#i"/><radialGradient id="bm" cx="223.07545" cy="197.4173" r="3.82592" gradientTransform="matrix(1, 0, 0, 1, 0, 0)" xlink:href="#i"/></defs><g class="c"><path class="d" d="M241.24542,56.2144c0,4.92525-63.5813,8.918-87.37874,8.918-4.58538,0-9.171-.12348-13.75326-.2835q-9.63721-.33654-19.26389-.92134-10.14445-.604-20.27177-1.46531-3.79275-.32859-7.58111-.70568-3.86516-.38983-7.72152-.86128c-1.244-.1538-2.4835-.35229-3.70836-.61993q-1.853-.40488-3.73487-.65741a21.88928,21.88928,0,0,0-7.12486-.013c-2.33431.451-4.57211,1.27661-6.88071,1.83049a41.21428,41.21428,0,0,1-8.59193,1.12378,7.22553,7.22553,0,0,1,1.60057-1.3976,37.21621,37.21621,0,0,1,4.44277-2.5362c2.1411-1.07576,4.26248-2.36985,6.4599-3.40579a29.54972,29.54972,0,0,1,7.4349-2.19134c4.44284-.81727,8.93355-1.37894,13.42117-1.88319,5.61074-.63045,11.23527-1.1373,16.86353-1.58239q9.00363-.712,18.02235-1.214,8.44439-.47675,16.89766-.778c4.49441-.15507,8.992-.27435,13.48943-.27435C177.66412,47.29643,241.24542,51.28914,241.24542,56.2144Z"/><polygon class="e" points="37.167 293.266 25.57 299.703 236.626 299.703 254.575 286.572 254.529 284.079 37.167 293.266"/><path class="f" d="M235.44221,258.59864l-.86746-199.38445c-12.06243,5.91817-64.2222,5.9182-80.7065,5.9182q-.37367,0-.74733-.0023c-1.07382-.00638-2.14755-.02454-3.2211-.04871q-1.89675-.04269-3.79291-.1081-2.14154-.07191-4.28241-.16232-2.34515-.09783-4.68961-.21138-2.5076-.12069-5.01451-.25528-2.6289-.14064-5.2571-.294-2.70906-.15778-5.4174-.32758-2.74808-.17213-5.49539-.356-2.74593-.18372-5.49107-.3792-2.70269-.19255-5.40447-.39728-2.61827-.19861-5.23554-.41018-2.49276-.20185-4.98433-.41792-2.32611-.20225-4.65081-.42049-2.11839-.19966-4.235-.4179-.9682-.10042-1.93583-.20636a25.61538,25.61538,0,0,1-2.82683-.5885q-.26059-.05868-.52166-.11522a26.37135,26.37135,0,0,0-7.35364-.70634l-1.23822.08427.221,199.207a9.81,9.81,0,0,0,9.43677,12.48993H226.00544A9.80991,9.80991,0,0,0,235.44221,258.59864Z"/><path class="a" d="M241.247,260.32927V56.21441c0,4.92526-63.5812,8.918-87.37872,8.918q-1.79722,0-3.59431-.02924c-4.7989-.07261-9.59629-.249-14.3905-.4687q-8.51441-.3902-17.01852-.97514-8.76555-.597-17.51591-1.397c-5.3029-.49123-10.60164-1.04461-15.88269-1.73435-3.878-.50649-7.72018-1.49-11.65365-1.44118-3.95531.04913-7.6323,1.67156-11.44575,2.505q-.47636.10416-.95438.20048a19.75524,19.75524,0,0,1-3.84674.58949q-.67953.07353-1.36171.11872c-.22315.015-.86315-.06053-1.01578.13972-.13736.18024.24047.6185.36578.75686a5.19757,5.19757,0,0,0,.75975.60652c.32624.24652.66942.46711,1.00291.70321l3.44455,2.439,5.5635,3.93934.16454.1165V260.32927a11.53455,11.53455,0,0,0,11.12438,14.58326H230.12259A11.53455,11.53455,0,0,0,241.247,260.32927Z"/><g class="g"><path class="h" d="M236.48575,263.90226c0-8.62279-36.85434-11.59375-82.31648-11.59375s-82.31649,3.29833-82.31649,11.92112,8.02532,6.88124,82.31649,7.56925C224.68214,272.4519,236.48575,272.525,236.48575,263.90226Z"/><rect class="i" x="39.80576" y="119.9831" width="225.4691" height="175.35041"/></g><g class="j"><path class="k" d="M85.61942,210.25063a4.6591,4.6591,0,0,1-5.81061-4.54055l.7041-107.72836a4.6546,4.6546,0,0,1,9.309.06116l-.7041,107.72837A4.65535,4.65535,0,0,1,85.61942,210.25063Z"/></g><circle class="l" cx="87.19134" cy="154.89365" r="13.58161" transform="translate(-42.10055 32.91833) rotate(-17.29227)"/><circle class="m" cx="87.01651" cy="204.67438" r="0.45269" transform="translate(-56.90557 35.1164) rotate(-17.29227)"/><circle class="n" cx="87.0029" cy="208.53981" r="0.45269" transform="translate(-58.05516 35.28705) rotate(-17.29226)"/><circle class="o" cx="87.01044" cy="206.39399" r="3.39545" transform="translate(-57.41699 35.19232) rotate(-17.29227)"/><line class="p" x1="87.15365" y1="165.62286" x2="87.0029" y2="208.53981"/><circle class="q" cx="87.15365" cy="165.62286" r="9.05434" transform="translate(-45.29147 33.39207) rotate(-17.29227)"/><circle class="r" cx="87.15365" cy="165.62286" r="4.52727" transform="translate(-45.29147 33.39207) rotate(-17.29226)"/><circle class="s" cx="87.15365" cy="165.62286" r="3.77273" transform="translate(-45.29147 33.39207) rotate(-17.29226)"/><polyline class="t" points="87.154 165.623 89.188 180.354 87.154 165.623 85.119 150.891 87.154 165.623 72.422 167.657 87.154 165.623 101.885 163.588 87.154 165.623 94.748 183.285 87.154 165.623 79.56 147.961 87.154 165.623 69.492 173.217 87.154 165.623 104.816 158.029 87.154 165.623 100.811 177.802 87.154 165.623 73.496 153.444 87.154 165.623 74.974 179.28 87.154 165.623 99.333 151.965 87.154 165.623 88.068 178.37 87.154 165.623 86.239 152.876 87.154 165.623 74.407 166.537 87.154 165.623 99.9 164.709 87.154 165.623 87.494 167.096 87.154 165.623 86.813 164.15 87.154 165.623 85.68 165.964 87.154 165.623 88.627 165.282 87.154 165.623 82.888 184.442 87.154 165.623 91.419 146.804 87.154 165.623 68.334 161.358 87.154 165.623 105.973 169.888 87.154 165.623 84.77 171.891 87.154 165.623 89.537 159.355 87.154 165.623 80.886 163.24 87.154 165.623 93.422 168.006 87.154 165.623 90.544 169.324 87.154 165.623 83.764 161.922 87.154 165.623 83.453 169.013 87.154 165.623 90.855 162.233 87.154 165.623 107.799 174.794 87.154 165.623 66.508 156.452 87.154 165.623 77.982 186.269 87.154 165.623 96.325 144.977 87.154 165.623 96.22 182.103 87.154 165.623 78.087 149.143 87.154 165.623 70.673 174.689 87.154 165.623 103.634 156.556 87.154 165.623 96.825 185.216 87.154 165.623 77.482 146.03 87.154 165.623 67.561 175.294 87.154 165.623 106.747 155.952 87.154 165.623 90.018 168.852 87.154 165.623 84.289 162.393 87.154 165.623 83.924 168.488 87.154 165.623 90.383 162.758 87.154 165.623 101.369 172.135 87.154 165.623 72.938 159.111 87.154 165.623 80.642 179.838 87.154 165.623 93.665 151.407 87.154 165.623 86.326 182.324 87.154 165.623 87.982 148.922 87.154 165.623 70.453 164.795 87.154 165.623 103.854 166.451 87.154 165.623 92.032 178.402 87.154 165.623 82.276 152.844 87.154 165.623 74.375 170.501 87.154 165.623 99.933 160.745"/><circle class="u" cx="87.0029" cy="208.53981" r="6.79091" transform="translate(-58.05516 35.28706) rotate(-17.29226)"/><circle class="v" cx="87.0321" cy="200.25225" r="1.93017"/><circle class="w" cx="87.11064" cy="177.88157" r="1.0781" transform="translate(-48.93726 33.93336) rotate(-17.29226)"/><circle class="x" cx="87.06271" cy="191.52926" r="0.71405" transform="matrix(0.9548, -0.29725, 0.29725, 0.9548, -52.99614, 34.53598)"/><circle class="y" cx="87.05509" cy="193.68873" r="1.00413" transform="translate(-53.63839 34.63132) rotate(-17.29226)"/><circle class="z" cx="87.03348" cy="199.82991" r="1.86426" transform="translate(-55.46481 34.90248) rotate(-17.29227)"/><path class="b" d="M231.15083,255.07313V121.99453h0c0,4.74736-55.69483,8.59581-77.27169,8.59581s-77.29359-3.84845-77.29359-8.59581h0V255.07318c.07618,5.90272,2.7717,11.8329,8.94029,11.8329h136.6847C228.37893,266.90608,231.22382,260.85758,231.15083,255.07313Z"/><g class="aa"><path class="ab" d="M158.49617,156.26561c-18.67791,1.50493-37.416,2.26908-56.09287,3.8-19.99409,1.63886-41.801,7.14928-57.53906,20.1983q-.22448.18612-.44662.375c-8.76136,7.42889-15.9763,17.98992-15.41066,29.46293.44336,8.99281,5.68342,17.23709,12.52838,23.08634s15.20216,9.61118,23.57671,12.91789c48.69347,19.22676,104.26913,25.27834,153.42829,7.27559,9.885-3.62,19.52717-8.23322,27.684-14.88789s14.78232-15.49629,17.51361-25.66283c2.8151-10.47851,1.31455-21.88724-3.25779-31.72684-4.33138-9.32105-11.14834-16.47991-13.97464-26.61155-.52427-1.87938-1.108-3.95817-2.75385-5.00613a7.51491,7.51491,0,0,0-3.74219-.85011c-21.64113-1.0035-42.52589,3.5073-63.88285,5.93934C170.25832,155.2439,164.38023,155.79151,158.49617,156.26561Z"/><path class="ac" d="M153.6265,196.16526c-18.41324,3.47587-36.96486,6.22152-55.37428,9.7231-19.70782,3.74853-40.80793,11.53894-55.0745,26.18234q-.20349.20886-.40436.42023c-7.92473,8.31554-13.97983,19.58172-12.20151,30.93017,1.3939,8.89519,7.47814,16.53772,14.90444,21.62863s16.13511,7.946,24.81292,10.34657c50.45685,13.95813,106.36087,14.08593,153.33533-9.02515,9.44573-4.64722,18.54468-10.25627,25.95033-17.7379s13.05685-16.9756,14.69534-27.37434c1.68878-10.71784-1.01238-21.90329-6.60174-31.20292-5.2948-8.80954-12.832-15.20565-16.71613-24.98072-.72049-1.81324-1.52127-3.81845-3.26888-4.68609a7.51486,7.51486,0,0,0-3.8112-.44874c-21.62562,1.2956-41.91473,7.99429-62.89368,12.676C165.21413,193.9028,159.42719,195.07026,153.6265,196.16526Z"/></g><path class="ad" d="M231.15083,121.99452c0,4.74735-55.69477,8.59583-77.27165,8.59583s-77.29363-3.84848-77.29363-8.59583,55.71675-8.59582,77.29363-8.59582S231.15083,117.24718,231.15083,121.99452Z"/><g class="ae"><circle class="af" cx="124.23885" cy="130.59035" r="14.91016"/><ellipse class="ag" cx="123.18992" cy="122.37212" rx="9.96443" ry="6.00743" transform="matrix(0.99712, -0.07578, 0.07578, 0.99712, -8.91869, 9.68669)"/><circle class="ah" cx="132.17103" cy="123.10411" r="1.22104"/><circle class="ai" cx="134.07866" cy="124.70762" r="0.4427"/><circle class="aj" cx="117.69401" cy="140.68513" r="0.4427"/><path class="ak" d="M112.37558,131.67873c-.1463,2.87815,1.58571,7.02963,4.34722,8.24794"/><circle class="al" cx="130.94999" cy="138.69966" r="1.35526"/></g><g class="ae"><circle class="am" cx="168.45703" cy="112.31353" r="8.42633"/><ellipse class="an" cx="167.86424" cy="107.66908" rx="5.6313" ry="3.39504" transform="translate(-7.67611 13.02966) rotate(-4.34581)"/><circle class="ao" cx="172.93982" cy="108.08275" r="0.69006"/><circle class="ap" cx="174.0179" cy="108.98896" r="0.25019"/><circle class="aq" cx="164.75828" cy="118.0185" r="0.25019"/><path class="ar" d="M161.75262,112.92861c-.08268,1.62656.89614,3.97273,2.45679,4.66125"/><circle class="as" cx="172.24977" cy="116.89643" r="0.76591"/></g><g class="ae"><circle class="at" cx="150.60178" cy="93.33985" r="4.48279"/><ellipse class="au" cx="150.28641" cy="90.86901" rx="2.99584" ry="1.80616" transform="translate(-6.4536 11.64938) rotate(-4.34581)"/><circle class="av" cx="152.98661" cy="91.08908" r="0.36711"/><circle class="aw" cx="153.56015" cy="91.57118" r="0.1331"/><circle class="ax" cx="148.63404" cy="96.37488" r="0.1331"/><path class="ay" d="M147.035,93.66707a2.79181,2.79181,0,0,0,1.307,2.47978"/><circle class="az" cx="152.6195" cy="95.77794" r="0.40746"/></g><g class="ba"><circle class="bb" cx="196.00815" cy="164.49202" r="9.8398"/><ellipse class="bc" cx="195.31591" cy="159.06849" rx="6.57592" ry="3.96454" transform="translate(-11.49202 15.25762) rotate(-4.34581)"/><circle class="bd" cx="201.24291" cy="159.55155" r="0.80581"/><circle class="be" cx="202.50182" cy="160.60977" r="0.29216"/><circle class="bf" cx="191.68894" cy="171.15397" r="0.29216"/><path class="bg" d="M188.1791,165.21028c-.09655,1.89941,1.04647,4.63914,2.8689,5.44315"/><circle class="bh" cx="200.4371" cy="169.84368" r="0.89439"/></g><g class="ba"><circle class="bi" cx="179.06394" cy="184.93134" r="5.23476"/><ellipse class="bj" cx="178.69568" cy="182.04603" rx="3.49838" ry="2.10913" transform="translate(-13.28096 14.06426) rotate(-4.34581)"/><circle class="bk" cx="181.84883" cy="182.30302" r="0.42869"/><circle class="bl" cx="182.51857" cy="182.86599" r="0.15543"/><circle class="bm" cx="176.76613" cy="188.47548" r="0.15543"/><path class="bn" d="M174.8989,185.31345a3.26014,3.26014,0,0,0,1.52625,2.89575"/><circle class="bo" cx="181.42014" cy="187.77841" r="0.47582"/></g><polygon class="bp" points="247.906 214.109 52.344 214.109 37.167 293.266 232.729 293.266 247.906 214.109"/><polygon class="bq" points="247.906 214.109 254.529 284.079 251.92 286.124 236.93 286.285 235.821 290.841 232.729 293.266 247.906 214.109"/><path class="br" d="M97.43805,240.37272a3.54733,3.54733,0,0,1,1.25879-1.55567,2.89018,2.89018,0,0,1,1.83691-.59863,1.73178,1.73178,0,0,1,1.62793.88574,2.26548,2.26548,0,0,1-.00488,1.96289q-.86866,2.15332-2.21778,6.07813a3.251,3.251,0,0,1-1.28418,1.65234,2.86483,2.86483,0,0,1-1.94629.64649,1.67808,1.67808,0,0,1-1.48339-.88672,2.10522,2.10522,0,0,1-.14258-1.77051Q96.46833,242.71892,97.43805,240.37272Zm4.01953-9.90918a3.15678,3.15678,0,0,1,1.9541-.76563l12.78223-.0957a1.80517,1.80517,0,0,1,1.82812,1.0293,2.52021,2.52021,0,0,1-.39453,2.3457,63.46967,63.46967,0,0,0-6.416,14.168,3.193,3.193,0,0,1-1.331,1.65234,2.773,2.773,0,0,1-1.94629.64649,1.64085,1.64085,0,0,1-1.43652-.88672,2.002,2.002,0,0,1-.09473-1.77051,76.87181,76.87181,0,0,1,5.07129-12.20606l-9.35449.07227a1.7743,1.7743,0,0,1-1.55957-.69531,2.09186,2.09186,0,0,1-.30957-1.77051A3.277,3.277,0,0,1,101.45758,230.46354Z"/><path class="br" d="M118.0943,245.32682a3.16411,3.16411,0,0,1,1.93554-.78906q2.92238-.09669,4.06055-.14454H126.149a58.61921,58.61921,0,0,1,6.33008-13.23535,3.08,3.08,0,0,1,2.62305-1.55566,1.75661,1.75661,0,0,1,1.82812,1.0293,2.28456,2.28456,0,0,1-.39453,2.3457,63.72424,63.72424,0,0,0-6.35547,14.12109,3.19833,3.19833,0,0,1-1.27148,1.60352,3.01033,3.01033,0,0,1-1.89844.64648h-.28711q-2.30859-.0498-7.875.09571a1.85838,1.85838,0,0,1-1.85547-2.34571A3.045,3.045,0,0,1,118.0943,245.32682Z"/><path class="br" d="M141.11578,230.46354a3.4767,3.4767,0,0,1,1.97949-.76563l12.78223-.0957a1.862,1.862,0,0,1,1.82715,1.0293,2.51752,2.51752,0,0,1-.39453,2.3457,62.59224,62.59224,0,0,0-6.43946,14.168,3.068,3.068,0,0,1-1.30761,1.65234,2.773,2.773,0,0,1-1.94629.64649,1.642,1.642,0,0,1-1.43653-.88672,2.10875,2.10875,0,0,1-.14257-1.77051,78.14126,78.14126,0,0,1,5.09472-12.20606l-9.3291.07227a1.798,1.798,0,0,1-1.584-.69531,2.14311,2.14311,0,0,1-.28711-1.77051A3.14578,3.14578,0,0,1,141.11578,230.46354Z"/><path class="br" d="M163.26519,231.39713a3.42945,3.42945,0,0,1,1.27637-1.26855,3.90063,3.90063,0,0,1,1.58985-.47852,1.93485,1.93485,0,0,1,2.00488,1.17285,2.55416,2.55416,0,0,1-.39844,2.53711,43.2955,43.2955,0,0,0-3.74609,6.77344,3.63186,3.63186,0,0,1-1.59082,1.72266,3.26781,3.26781,0,0,1-2.09278.47851,1.916,1.916,0,0,1-1.40527-1.17187,2.42393,2.42393,0,0,1,.06445-2.01075A57.28134,57.28134,0,0,1,163.26519,231.39713Z"/><path class="br" d="M174.15875,237.14127a30.49006,30.49006,0,0,1-1.02832-4.16406,2.46915,2.46915,0,0,1,.7998-2.25,2.83578,2.83578,0,0,1,2.21875-1.125,1.57186,1.57186,0,0,1,1.85547,1.46,24.22794,24.22794,0,0,0,2.28125,6.96484,20.02954,20.02954,0,0,0,5.48731-6.48535,3.84557,3.84557,0,0,1,1.26758-1.41308,2.65723,2.65723,0,0,1,1.60253-.52637,1.68942,1.68942,0,0,1,1.63282.86133,2.11391,2.11391,0,0,1-.06446,2.01074q-2.04931,4.30811-7.6455,9.07129a43.14094,43.14094,0,0,0,3.00293,3.23047,1.72292,1.72292,0,0,1,.51953,1.53222,2.93421,2.93421,0,0,1-.92188,1.81934,3.25141,3.25141,0,0,1-1.833.93359,2.11182,2.11182,0,0,1-1.64746-.45507,28.32364,28.32364,0,0,1-5.69629-7.34766q-3.27539,3.35155-3.94921,5.83984a3.05033,3.05033,0,0,1-1.16407,1.65039,3.09784,3.09784,0,0,1-1.86328.69532,1.85754,1.85754,0,0,1-1.52246-.74219,1.94046,1.94046,0,0,1-.22266-1.65235Q168.525,242.57584,174.15875,237.14127Z"/><path class="br" d="M89.29254,262.32487a3.467,3.467,0,0,1,1.97851-.76563l12.78223-.0957a1.86286,1.86286,0,0,1,1.82813,1.02929,2.51849,2.51849,0,0,1-.39551,2.34473,62.62685,62.62685,0,0,0-6.43848,14.16895,3.0701,3.0701,0,0,1-1.30859,1.65234,2.76581,2.76581,0,0,1-1.94629.64551,1.64111,1.64111,0,0,1-1.43653-.88574,2.11267,2.11267,0,0,1-.14257-1.77051,78.10157,78.10157,0,0,1,5.09472-12.20606l-9.3291.07129a1.79488,1.79488,0,0,1-1.584-.69433,2.14458,2.14458,0,0,1-.28614-1.77149A3.13861,3.13861,0,0,1,89.29254,262.32487Z"/><path class="br" d="M110.73,262.08561a58.3389,58.3389,0,0,1,3.58789-6.36621,3.04489,3.04489,0,0,1,2.62891-1.58008,1.67709,1.67709,0,0,1,1.88476,1.041,2.54725,2.54725,0,0,1-.375,2.40528q-1.21,1.81934-2.33008,3.9248l8.3418-.04687a1.43717,1.43717,0,0,1,.373-.04883.763.763,0,0,1,.46484.04883,1.59493,1.59493,0,0,1,1.85156,1.65136,2.86617,2.86617,0,0,1-1.51074,2.752,66.13206,66.13206,0,0,0-5.75391,13.13965,3.45066,3.45066,0,0,1-1.33007,1.6875,2.97527,2.97527,0,0,1-1.95411.63476,1.68625,1.68625,0,0,1-1.42382-.88574,2.1562,2.1562,0,0,1-.14942-1.79492,79.24879,79.24879,0,0,1,5.05957-12.25489l-8.93554.12012a1.69318,1.69318,0,0,1-1.96387-1.67578A2.91506,2.91506,0,0,1,110.73,262.08561Z"/><path class="br" d="M131.32086,262.32487a3.3237,3.3237,0,0,1,1.96582-.71778l7.03711-.09668a3.97045,3.97045,0,0,1,.61133-.04687,1.27212,1.27212,0,0,1,.60937.04687l4.53711-.04687a1.75244,1.75244,0,0,1,1.55371.71679,1.85281,1.85281,0,0,1,.32324,1.72461,3.50324,3.50324,0,0,1-1.2207,1.77149,3.2292,3.2292,0,0,1-1.94141.71679l-3.4121.04883a68.62916,68.62916,0,0,0-5.45411,12.56446,3.50254,3.50254,0,0,1-3.207,2.29785,1.63842,1.63842,0,0,1-1.43554-.88574,1.90121,1.90121,0,0,1-.14356-1.77051,75.10062,75.10062,0,0,1,4.97949-12.13477l-4.17675.04785a1.85361,1.85361,0,0,1-1.52247-.74218,2.08343,2.08343,0,0,1-.2998-1.72266A3.3367,3.3367,0,0,1,131.32086,262.32487Z"/><path class="br" d="M147.69391,277.18815a3.16463,3.16463,0,0,1,1.93652-.79q2.92089-.09522,4.05957-.14356h2.05859a58.60659,58.60659,0,0,1,6.33106-13.23633,3.07738,3.07738,0,0,1,2.62207-1.55468,1.7566,1.7566,0,0,1,1.82812,1.02929,2.2826,2.2826,0,0,1-.39453,2.34473,63.69432,63.69432,0,0,0-6.35449,14.12207,3.20767,3.20767,0,0,1-1.27148,1.60352,3.00489,3.00489,0,0,1-1.89844.6455h-.28711q-2.30859-.04833-7.876.09571a1.85711,1.85711,0,0,1-1.85449-2.34473A3.0403,3.0403,0,0,1,147.69391,277.18815Z"/><path class="br" d="M169.87262,265.26822a2.63174,2.63174,0,0,1,.67285-2.48828,3.29344,3.29344,0,0,1,2.50781-1.2207l12.75879-.0957a1.71384,1.71384,0,0,1,1.76465.9082,2.46742,2.46742,0,0,1-.21973,2.22656,1.765,1.765,0,0,1-.2373.52735l-8.35938,14.45507a3.42443,3.42443,0,0,1-1.27051,1.24415,3.07064,3.07064,0,0,1-1.58984.47949h-6.24707a1.97011,1.97011,0,0,1-1.47656-.64551,1.831,1.831,0,0,1-.36914-1.55664l2.00683-13.61816C169.83551,265.404,169.855,265.33268,169.87262,265.26822Zm3.334,11.12989h2.20117l5.83985-10.00489-6.56641.12012Z"/><g class="bs"><path class="bt" d="M222.04106,188.34458a4.23235,4.23235,0,0,1-4.13636-3.36033l.00084-65.07106a4.2322,4.2322,0,0,1-.09091-.8719V79.8603a4.23141,4.23141,0,1,1,8.46281,0v38.74049l-.09175,64.63966a4.23535,4.23535,0,0,1-4.14463,5.10413Z"/></g><circle class="bu" cx="222.97223" cy="197.39903" r="4.23358"/></g></svg>