<svg xmlns="http://www.w3.org/2000/svg" xmlns:xlink="http://www.w3.org/1999/xlink" viewBox="0 0 303.95444 341.11501"><defs><style>.a,.i{opacity:0.72;}.a{fill:url(#a);}.ai,.b,.l{opacity:0.8;}.b{fill:url(#b);}.c{isolation:isolate;}.d{fill:#683c11;fill-opacity:0.51;}.e,.g{mix-blend-mode:multiply;}.e{fill:url(#c);}.f{clip-path:url(#e);}.g{fill:url(#f);}.h{opacity:0.42;fill:url(#g);}.i{fill:url(#h);}.j{opacity:0.54;}.k{fill:url(#i);}.bf,.l{mix-blend-mode:hard-light;}.m{fill:url(#j);}.n,.o,.v,.y{opacity:0.5;}.n{fill:url(#k);}.o{fill:url(#l);}.p{opacity:0.25;fill:url(#m);}.aa,.ab,.ac,.ad,.p,.q,.r,.s,.u,.v,.w,.x,.y,.z{mix-blend-mode:screen;}.q{fill:url(#n);}.r{fill:url(#o);}.s{opacity:0.2;fill:url(#p);}.ap,.aw,.bd,.bl,.bs,.t,.x{fill:none;}.u{opacity:0.15;fill:url(#q);}.v{fill:url(#r);}.w{fill:url(#s);}.x{stroke:#fff;stroke-width:1.69256px;opacity:0.03;}.ai,.x{stroke-miterlimit:10;}.y{fill:url(#t);}.z{fill:url(#u);}.aa{fill:url(#v);}.ab{fill:url(#w);}.ac{fill:url(#x);}.ad{fill:url(#y);}.ae{fill:url(#z);}.af{clip-path:url(#ab);}.ag,.ah,.aj{opacity:0.3;}.ag{fill:url(#ac);}.ah{fill:url(#ad);}.ai,.ap{stroke-width:0.84628px;}.ai{fill:url(#ae);stroke:url(#af);}.ak{fill:url(#ag);}.al,.ao,.ap,.as,.av,.aw,.az,.bc,.bd,.bh,.bk,.bl,.bo,.br,.bs{mix-blend-mode:soft-light;}.al{fill:url(#ah);}.am{fill:url(#ai);}.an{fill:url(#aj);}.ao{fill:url(#ak);}.ap,.aw,.bd,.bl,.bs{stroke-linecap:round;stroke-linejoin:round;}.ap{stroke:url(#al);}.aq{fill:url(#am);}.ar{fill:url(#an);}.as{fill:url(#ao);}.at{fill:url(#ap);}.au{fill:url(#aq);}.av{fill:url(#ar);}.aw{stroke-width:0.47827px;stroke:url(#as);}.ax{fill:url(#at);}.ay{fill:url(#au);}.az{fill:url(#av);}.ba{fill:url(#aw);}.bb{fill:url(#ax);}.bc{fill:url(#ay);}.bd{stroke-width:0.25444px;stroke:url(#az);}.be{fill:url(#ba);}.bf{opacity:0.2;}.bg{fill:url(#bb);}.bh{fill:url(#bc);}.bi{fill:url(#bd);}.bj{fill:url(#be);}.bk{fill:url(#bf);}.bl{stroke-width:0.55849px;stroke:url(#bg);}.bm{fill:url(#bh);}.bn{fill:url(#bi);}.bo{fill:url(#bj);}.bp{fill:url(#bk);}.bq{fill:url(#bl);}.br{fill:url(#bm);}.bs{stroke-width:0.29712px;stroke:url(#bn);}.bt{fill:url(#bo);}.bu{fill:#fff;}.bv{fill:#c6c6c6;}.bw{fill:#3c3c3b;}</style><linearGradient id="a" x1="104.60837" y1="165.56347" x2="198.98895" y2="165.56347" gradientUnits="userSpaceOnUse"><stop offset="0" stop-color="#f5fbff"/><stop offset="0.62567" stop-color="#e9f1f5"/><stop offset="1" stop-color="#c5d9e0"/></linearGradient><linearGradient id="b" x1="218.67269" y1="270.68209" x2="100.57258" y2="114.15705" gradientUnits="userSpaceOnUse"><stop offset="0" stop-color="#077bbb"/><stop offset="1" stop-color="#39b7f0"/></linearGradient><linearGradient id="c" x1="170.90288" y1="61.71976" x2="148.60531" y2="243.33184" gradientUnits="userSpaceOnUse"><stop offset="0" stop-color="#bfc4c7"/><stop offset="1" stop-color="#b1c3c9"/></linearGradient><clipPath id="e"><path class="a" d="M246.05761,260.32927V56.21441c0,4.92526-63.58119,8.918-87.37871,8.918q-1.79724,0-3.59432-.02924c-4.79889-.07261-9.59628-.249-14.3905-.4687q-8.51439-.3902-17.01851-.97514-8.76556-.597-17.51592-1.397c-5.3029-.49123-10.60164-1.04461-15.88269-1.73435-3.878-.50649-7.72017-1.49-11.65365-1.44118-3.9553.04913-7.63229,1.67156-11.44574,2.505q-.47636.10416-.95438.20048a19.75535,19.75535,0,0,1-3.84674.58949q-.67953.07353-1.36172.11872c-.22315.015-.86315-.06053-1.01577.13972-.13737.18024.24046.6185.36578.75686a5.19749,5.19749,0,0,0,.75974.60652c.32625.24652.66943.46711,1.00291.70321l3.44455,2.439,5.56351,3.93934.16453.1165V260.32927a11.53455,11.53455,0,0,0,11.12438,14.58326H234.93323A11.53455,11.53455,0,0,0,246.05761,260.32927Z"/></clipPath><linearGradient id="f" x1="120.02235" y1="163.94125" x2="171.19953" y2="296.11187" gradientUnits="userSpaceOnUse"><stop offset="0" stop-color="#f5f5f5"/><stop offset="1" stop-color="#c3d1d6"/></linearGradient><linearGradient id="g" x1="98.5813" y1="207.6583" x2="212.67957" y2="207.6583" xlink:href="#b"/><linearGradient id="h" x1="153.0521" y1="38.3778" x2="153.0521" y2="64.94849" xlink:href="#a"/><radialGradient id="i" cx="225.90443" cy="128.1371" r="64.69946" gradientTransform="translate(239.58516 -97.84128) rotate(89.70298) scale(1 0.11591)" gradientUnits="userSpaceOnUse"><stop offset="0" stop-color="#e6f3ff"/><stop offset="1" stop-color="#b9cbf0" stop-opacity="0"/></radialGradient><radialGradient id="j" cx="-1592.7424" cy="-162.82075" r="54.27899" gradientTransform="matrix(0.00636, -0.99998, 0.15751, 0.001, 125.3966, -1440.67073)" xlink:href="#i"/><radialGradient id="k" cx="226.87264" cy="197.4173" r="3.82592" gradientTransform="matrix(1, 0, 0, 1, 0, 0)" xlink:href="#i"/><radialGradient id="l" cx="226.87264" cy="124.23495" r="3.82592" gradientTransform="matrix(1, 0, 0, 1, 0, 0)" xlink:href="#i"/><radialGradient id="m" cx="-1932.58865" cy="-272.96233" r="13.58164" gradientTransform="translate(2024.59062 427.85608)" gradientUnits="userSpaceOnUse"><stop offset="0.1"/><stop offset="0.11244" stop-color="#080602"/><stop offset="0.16172" stop-color="#231b08"/><stop offset="0.21838" stop-color="#392c0d"/><stop offset="0.28458" stop-color="#4a3910"/><stop offset="0.36644" stop-color="#554213"/><stop offset="0.48125" stop-color="#5c4815"/><stop offset="0.8" stop-color="#5e4915"/><stop offset="1"/></radialGradient><radialGradient id="n" cx="-1947.55269" cy="-225.48362" r="0.45271" gradientTransform="translate(2039.37984 430.15805)" gradientUnits="userSpaceOnUse"><stop offset="0" stop-color="#d4e194"/><stop offset="0.05952" stop-color="#afba7a"/><stop offset="0.13651" stop-color="#868f5e"/><stop offset="0.21955" stop-color="#626845"/><stop offset="0.30759" stop-color="#44482f"/><stop offset="0.40211" stop-color="#2b2e1e"/><stop offset="0.50556" stop-color="#181911"/><stop offset="0.62249" stop-color="#0a0b07"/><stop offset="0.76429" stop-color="#020302"/><stop offset="1"/></radialGradient><radialGradient id="o" cx="-1948.71468" cy="-221.79694" r="0.45271" gradientTransform="translate(2040.52822 430.33679)" xlink:href="#n"/><radialGradient id="p" cx="-1948.06964" cy="-223.84353" r="3.39543" gradientTransform="translate(2039.89073 430.2375)" gradientUnits="userSpaceOnUse"><stop offset="0.05"/><stop offset="0.09242" stop-color="#040a03"/><stop offset="0.29802" stop-color="#183411"/><stop offset="0.48337" stop-color="#25531c"/><stop offset="0.64031" stop-color="#2e6622"/><stop offset="0.75" stop-color="#316d24"/><stop offset="0.78593" stop-color="#4f6e16"/><stop offset="0.83397" stop-color="#716f06"/><stop offset="0.86" stop-color="#7e6f00"/><stop offset="0.88764" stop-color="#7a6c00"/><stop offset="0.91229" stop-color="#706200"/><stop offset="0.93581" stop-color="#5d5200"/><stop offset="0.95863" stop-color="#443c00"/><stop offset="0.98074" stop-color="#231f00"/><stop offset="1"/></radialGradient><radialGradient id="q" cx="-1935.81385" cy="-262.72927" r="9.05439" gradientTransform="translate(2027.77814 428.35216)" gradientUnits="userSpaceOnUse"><stop offset="0" stop-color="#200"/><stop offset="0.73" stop-color="#984023"/><stop offset="1" stop-color="#200"/></radialGradient><radialGradient id="r" cx="-1935.81385" cy="-262.72927" r="4.52725" gradientTransform="translate(2027.77815 428.35208)" gradientUnits="userSpaceOnUse"><stop offset="0.15" stop-color="#fff"/><stop offset="0.20939" stop-color="#e5d3d3"/><stop offset="0.29044" stop-color="#c49c9e"/><stop offset="0.36051" stop-color="#ad7477"/><stop offset="0.41599" stop-color="#9e5c5f"/><stop offset="0.45" stop-color="#995356"/><stop offset="0.57175" stop-color="#6b3335"/><stop offset="0.69355" stop-color="#431718"/><stop offset="0.79053" stop-color="#2b0606"/><stop offset="0.85" stop-color="#200"/><stop offset="0.85727" stop-color="#260201"/><stop offset="0.8648" stop-color="#330704"/><stop offset="0.87246" stop-color="#471009"/><stop offset="0.8802" stop-color="#641d0f"/><stop offset="0.88801" stop-color="#8a2e18"/><stop offset="0.89577" stop-color="#b74223"/><stop offset="0.9" stop-color="#d34e29"/><stop offset="0.90254" stop-color="#c84927"/><stop offset="0.91417" stop-color="#9c361c"/><stop offset="0.92635" stop-color="#772514"/><stop offset="0.93893" stop-color="#58180c"/><stop offset="0.95205" stop-color="#400d07"/><stop offset="0.96594" stop-color="#2f0603"/><stop offset="0.98111" stop-color="#250101"/><stop offset="1" stop-color="#200"/></radialGradient><radialGradient id="s" cx="-1935.81385" cy="-262.72927" r="3.7727" gradientTransform="translate(2027.77815 428.35211)" gradientUnits="userSpaceOnUse"><stop offset="0.15" stop-color="#fff"/><stop offset="0.28237" stop-color="#c2c2c2"/><stop offset="0.42528" stop-color="#888"/><stop offset="0.5636" stop-color="#575757"/><stop offset="0.69361" stop-color="#313131"/><stop offset="0.81336" stop-color="#161616"/><stop offset="0.91921" stop-color="#060606"/><stop offset="1"/></radialGradient><radialGradient id="t" cx="-1948.71468" cy="-221.79694" r="6.79086" gradientTransform="translate(2040.52822 430.33673)" gradientUnits="userSpaceOnUse"><stop offset="0.64"/><stop offset="0.71799" stop-color="#000200"/><stop offset="0.74608" stop-color="#020902"/><stop offset="0.76609" stop-color="#051405"/><stop offset="0.78228" stop-color="#082509"/><stop offset="0.79598" stop-color="#0d3b0e"/><stop offset="0.8" stop-color="#0f4310"/><stop offset="0.8131" stop-color="#1e2c0a"/><stop offset="0.82975" stop-color="#2d1605"/><stop offset="0.84569" stop-color="#360901"/><stop offset="0.86" stop-color="#390400"/><stop offset="0.8715" stop-color="#250300"/><stop offset="0.88602" stop-color="#140100"/><stop offset="0.90412" stop-color="#090100"/><stop offset="0.92951" stop-color="#020000"/><stop offset="1"/></radialGradient><radialGradient id="u" cx="-1946.22336" cy="-229.70123" r="1.93017" gradientTransform="translate(2018.3764 -158.93579) rotate(-17.29226)" gradientUnits="userSpaceOnUse"><stop offset="0.1"/><stop offset="0.24639" stop-color="#1b1103"/><stop offset="0.42619" stop-color="#362207"/><stop offset="0.61009" stop-color="#492e09"/><stop offset="0.79889" stop-color="#54350b"/><stop offset="1" stop-color="#58370b"/></radialGradient><radialGradient id="v" cx="-1939.49877" cy="-251.03744" r="1.07807" gradientTransform="translate(2031.42005 428.91905)" gradientUnits="userSpaceOnUse"><stop offset="0.1" stop-color="#192f1b"/><stop offset="0.2285" stop-color="#122214"/><stop offset="0.47516" stop-color="#080f09"/><stop offset="0.72928" stop-color="#020402"/><stop offset="1"/></radialGradient><radialGradient id="w" cx="-1943.60125" cy="-238.02086" r="0.714" gradientTransform="translate(2035.4746 429.55013)" xlink:href="#u"/><radialGradient id="x" cx="-1944.25042" cy="-235.96125" r="1.00408" gradientTransform="translate(2036.11615 429.65001)" gradientUnits="userSpaceOnUse"><stop offset="0.1"/><stop offset="0.29001" stop-color="#14160e"/><stop offset="0.51699" stop-color="#25291a"/><stop offset="0.75084" stop-color="#303422"/><stop offset="1" stop-color="#333824"/></radialGradient><radialGradient id="y" cx="-1946.0965" cy="-230.10407" r="1.86428" gradientTransform="translate(2037.94062 429.93398)" xlink:href="#v"/><radialGradient id="z" cx="98.84481" cy="62.70216" r="6.99971" gradientUnits="userSpaceOnUse"><stop offset="0" stop-color="#fff"/><stop offset="1" stop-color="#b9cbf0" stop-opacity="0"/></radialGradient><clipPath id="ab"><path class="b" d="M235.96147,255.07313V121.99453h0c0,4.74736-55.69483,8.59581-77.27169,8.59581s-77.29358-3.84845-77.29358-8.59581h0V255.07318c.07618,5.90272,2.77169,11.8329,8.94028,11.8329h136.6847C233.18957,266.90608,236.03446,260.85758,235.96147,255.07313Z"/></clipPath><linearGradient id="ac" x1="315.33657" y1="217.33703" x2="68.30245" y2="194.35711" xlink:href="#b"/><linearGradient id="ad" x1="35.07037" y1="242.44061" x2="269.57935" y2="242.44061" xlink:href="#b"/><linearGradient id="ae" x1="295.93169" y1="121.99452" x2="112.7855" y2="121.99452" xlink:href="#b"/><linearGradient id="af" x1="80.97306" y1="121.99452" x2="236.38461" y2="121.99452" gradientUnits="userSpaceOnUse"><stop offset="0" stop-color="#26b1ff"/><stop offset="1" stop-color="#39b7f0"/></linearGradient><radialGradient id="ag" cx="129.0495" cy="130.59035" r="14.16583" gradientTransform="matrix(0.2537, -0.96728, 0.95587, 0.2507, -28.51783, 222.67821)" gradientUnits="userSpaceOnUse"><stop offset="0" stop-color="#35a0c7" stop-opacity="0.8"/><stop offset="0.29921" stop-color="#39a3ca" stop-opacity="0.80046"/><stop offset="0.52418" stop-color="#44acd2" stop-opacity="0.80193"/><stop offset="0.72493" stop-color="#58bce0" stop-opacity="0.8044"/><stop offset="0.91041" stop-color="#74d2f3" stop-opacity="0.80787"/><stop offset="1" stop-color="#85e0ff" stop-opacity="0.81"/></radialGradient><radialGradient id="ah" cx="56.21616" cy="640.46858" r="9.1779" gradientTransform="translate(58.05915 -371.47765) scale(1.24415 0.77108)" gradientUnits="userSpaceOnUse"><stop offset="0" stop-color="#529ceb"/><stop offset="0.37881" stop-color="#529ceb" stop-opacity="0.99203"/><stop offset="0.51527" stop-color="#539dea" stop-opacity="0.96313"/><stop offset="0.61253" stop-color="#559dea" stop-opacity="0.91281"/><stop offset="0.69121" stop-color="#579ee9" stop-opacity="0.8409"/><stop offset="0.75863" stop-color="#5aa0e7" stop-opacity="0.74715"/><stop offset="0.81834" stop-color="#5ea2e5" stop-opacity="0.63133"/><stop offset="0.87231" stop-color="#62a4e3" stop-opacity="0.49335"/><stop offset="0.92196" stop-color="#67a6e1" stop-opacity="0.33264"/><stop offset="0.96609" stop-color="#6da9de" stop-opacity="0.15775"/><stop offset="1" stop-color="#72abdc" stop-opacity="0"/></radialGradient><radialGradient id="ai" cx="136.98168" cy="123.10411" r="1.16008" gradientTransform="matrix(0.2537, -0.96728, 0.95587, 0.2507, -15.44212, 224.74147)" gradientUnits="userSpaceOnUse"><stop offset="0" stop-color="#c1d6eb"/><stop offset="0.37881" stop-color="#c0d6eb" stop-opacity="0.99203"/><stop offset="0.51527" stop-color="#bed4ea" stop-opacity="0.96313"/><stop offset="0.61253" stop-color="#bad2ea" stop-opacity="0.91281"/><stop offset="0.69121" stop-color="#b4cfe9" stop-opacity="0.8409"/><stop offset="0.75863" stop-color="#adcbe7" stop-opacity="0.74715"/><stop offset="0.81834" stop-color="#a4c6e5" stop-opacity="0.63133"/><stop offset="0.87231" stop-color="#99c0e3" stop-opacity="0.49335"/><stop offset="0.92196" stop-color="#8cb9e1" stop-opacity="0.33264"/><stop offset="0.96609" stop-color="#7eb2de" stop-opacity="0.15775"/><stop offset="1" stop-color="#72abdc" stop-opacity="0"/></radialGradient><radialGradient id="aj" cx="138.8893" cy="124.70762" r="0.4206" gradientTransform="matrix(0.2537, -0.96728, 0.95587, 0.2507, -15.55121, 227.78819)" gradientUnits="userSpaceOnUse"><stop offset="0" stop-color="#c1d6eb"/><stop offset="0.22496" stop-color="#c0d6eb" stop-opacity="0.98901"/><stop offset="0.3644" stop-color="#bdd4ea" stop-opacity="0.95275"/><stop offset="0.48062" stop-color="#b8d1e9" stop-opacity="0.89088"/><stop offset="0.58411" stop-color="#b1cee8" stop-opacity="0.80322"/><stop offset="0.67914" stop-color="#a8c9e6" stop-opacity="0.68961"/><stop offset="0.7679" stop-color="#9dc3e4" stop-opacity="0.55"/><stop offset="0.85188" stop-color="#90bce2" stop-opacity="0.38414"/><stop offset="0.92991" stop-color="#82b3df" stop-opacity="0.19725"/><stop offset="1" stop-color="#72abdc" stop-opacity="0"/></radialGradient><radialGradient id="ak" cx="122.50465" cy="140.68513" r="0.4206" gradientTransform="matrix(0.2537, -0.96728, 0.95587, 0.2507, -43.0516, 223.91147)" xlink:href="#aj"/><radialGradient id="al" cx="119.35553" cy="135.8027" r="3.70417" gradientTransform="matrix(1, 0, 0, 1, 0, 0)" xlink:href="#ai"/><radialGradient id="am" cx="135.76064" cy="138.69966" r="1.68884" gradientTransform="translate(0 20.14894) scale(1 0.85473)" gradientUnits="userSpaceOnUse"><stop offset="0" stop-color="#529ceb"/><stop offset="0.09168" stop-color="#539ceb" stop-opacity="0.96822"/><stop offset="0.22975" stop-color="#569ee9" stop-opacity="0.88033"/><stop offset="0.39704" stop-color="#5aa0e7" stop-opacity="0.73641"/><stop offset="0.58721" stop-color="#61a3e4" stop-opacity="0.53628"/><stop offset="0.79369" stop-color="#69a7e0" stop-opacity="0.2836"/><stop offset="1" stop-color="#72abdc" stop-opacity="0"/></radialGradient><radialGradient id="an" cx="173.26768" cy="112.31353" r="8.00568" gradientTransform="matrix(0.2537, -0.96728, 0.95587, 0.2507, 21.95264, 251.755)" xlink:href="#ag"/><radialGradient id="ao" cx="92.91589" cy="627.96977" r="5.1868" gradientTransform="translate(57.07345 -376.54316) scale(1.24415 0.77108)" xlink:href="#ah"/><radialGradient id="ap" cx="177.75047" cy="108.08275" r="0.65561" gradientTransform="matrix(0.2537, -0.96728, 0.95587, 0.2507, 29.34225, 252.92103)" xlink:href="#ai"/><radialGradient id="aq" cx="178.82855" cy="108.98896" r="0.2377" gradientTransform="matrix(0.2537, -0.96728, 0.95587, 0.2507, 29.2806, 254.64285)" xlink:href="#aj"/><radialGradient id="ar" cx="169.56892" cy="118.0185" r="0.2377" gradientTransform="matrix(0.2537, -0.96728, 0.95587, 0.2507, 13.73902, 252.45196)" xlink:href="#aj"/><radialGradient id="as" cx="167.78923" cy="115.25924" r="2.09337" gradientTransform="matrix(1, 0, 0, 1, 0, 0)" xlink:href="#ai"/><radialGradient id="at" cx="177.06041" cy="116.89643" r="0.95443" gradientTransform="translate(0 16.98157) scale(1 0.85473)" xlink:href="#am"/><radialGradient id="au" cx="155.41242" cy="93.33985" r="4.25901" gradientTransform="matrix(0.2537, -0.96728, 0.95587, 0.2507, 26.76365, 220.26701)" xlink:href="#ag"/><radialGradient id="av" cx="79.85136" cy="607.92412" r="2.75937" gradientTransform="translate(55.74987 -377.88652) scale(1.24415 0.77108)" xlink:href="#ah"/><radialGradient id="aw" cx="157.79726" cy="91.08908" r="0.34878" gradientTransform="matrix(0.2537, -0.96728, 0.95587, 0.2507, 30.6949, 220.88733)" xlink:href="#ai"/><radialGradient id="ax" cx="158.37079" cy="91.57118" r="0.12646" gradientTransform="matrix(0.2537, -0.96728, 0.95587, 0.2507, 30.66211, 221.80334)" xlink:href="#aj"/><radialGradient id="ay" cx="153.44469" cy="96.37488" r="0.12646" gradientTransform="matrix(0.2537, -0.96728, 0.95587, 0.2507, 22.39402, 220.63779)" xlink:href="#aj"/><radialGradient id="az" cx="152.49789" cy="94.90696" r="1.11367" gradientTransform="matrix(1, 0, 0, 1, 0, 0)" xlink:href="#ai"/><radialGradient id="ba" cx="157.43015" cy="95.77794" r="0.50776" gradientTransform="translate(0 13.91369) scale(1 0.85473)" xlink:href="#am"/><radialGradient id="bb" cx="200.81879" cy="164.49202" r="9.34859" gradientTransform="matrix(0.2537, -0.96728, 0.95587, 0.2507, -7.36191, 317.50184)" xlink:href="#ag"/><radialGradient id="bc" cx="111.7865" cy="687.08754" r="6.05686" gradientTransform="translate(61.04722 -370.72804) scale(1.24415 0.77108)" xlink:href="#ah"/><radialGradient id="bd" cx="206.05355" cy="159.55155" r="0.76558" gradientTransform="matrix(0.2537, -0.96728, 0.95587, 0.2507, 1.26727, 318.86347)" xlink:href="#ai"/><radialGradient id="be" cx="207.31247" cy="160.60977" r="0.27757" gradientTransform="matrix(0.2537, -0.96728, 0.95587, 0.2507, 1.19527, 320.87412)" xlink:href="#aj"/><radialGradient id="bf" cx="196.49959" cy="171.15397" r="0.27757" gradientTransform="matrix(0.2537, -0.96728, 0.95587, 0.2507, -16.95332, 318.31572)" xlink:href="#aj"/><radialGradient id="bg" cx="194.42136" cy="167.93186" r="2.44453" gradientTransform="matrix(1, 0, 0, 1, 0, 0)" xlink:href="#ai"/><radialGradient id="bh" cx="205.24774" cy="169.84368" r="1.11454" gradientTransform="translate(0 24.67324) scale(1 0.85473)" xlink:href="#am"/><radialGradient id="bi" cx="183.87459" cy="184.93134" r="4.97343" gradientTransform="matrix(0.2537, -0.96728, 0.95587, 0.2507, -39.54481, 316.42708)" xlink:href="#ag"/><radialGradient id="bj" cx="97.06675" cy="711.08864" r="3.22224" gradientTransform="translate(62.74059 -366.25716) scale(1.24415 0.77108)" xlink:href="#ah"/><radialGradient id="bk" cx="186.65947" cy="182.30302" r="0.40729" gradientTransform="matrix(0.2537, -0.96728, 0.95587, 0.2507, -34.95411, 317.15146)" xlink:href="#ai"/><radialGradient id="bl" cx="187.32921" cy="182.86599" r="0.14767" gradientTransform="matrix(0.2537, -0.96728, 0.95587, 0.2507, -34.99241, 318.22113)" xlink:href="#aj"/><radialGradient id="bm" cx="181.57678" cy="188.47548" r="0.14767" gradientTransform="matrix(0.2537, -0.96728, 0.95587, 0.2507, -44.64743, 316.86006)" xlink:href="#aj"/><radialGradient id="bn" cx="180.47116" cy="186.76133" r="1.30048" gradientTransform="matrix(1, 0, 0, 1, 0, 0)" xlink:href="#ai"/><radialGradient id="bo" cx="186.23078" cy="187.77841" r="0.59293" gradientTransform="translate(0 27.27862) scale(1 0.85473)" xlink:href="#am"/></defs><g class="c"><polygon class="d" points="41.978 293.266 30.38 299.703 241.436 299.703 259.385 286.572 259.339 284.079 41.978 293.266"/><path class="e" d="M240.25286,258.59864l-.86747-199.38445c-12.06243,5.91817-64.2222,5.9182-80.70649,5.9182q-.37367,0-.74734-.0023c-1.07381-.00638-2.14755-.02454-3.2211-.04871q-1.89675-.04269-3.7929-.1081-2.14155-.07191-4.28241-.16232-2.34516-.09783-4.68962-.21138-2.5076-.12069-5.0145-.25528-2.62892-.14064-5.25711-.294-2.70906-.15778-5.4174-.32758-2.74806-.17213-5.49538-.356-2.74594-.18372-5.49108-.3792-2.70267-.19255-5.40446-.39728-2.61828-.19861-5.23555-.41018-2.49274-.20185-4.98433-.41792-2.32611-.20225-4.6508-.42049-2.11839-.19966-4.235-.4179-.96822-.10042-1.93584-.20636a25.61586,25.61586,0,0,1-2.82683-.5885q-.26058-.05868-.52165-.11522a26.37142,26.37142,0,0,0-7.35364-.70634l-1.23823.08427.221,199.207a9.81,9.81,0,0,0,9.43678,12.48993H230.81608A9.80991,9.80991,0,0,0,240.25286,258.59864Z"/><path class="a" d="M246.05761,260.32927V56.21441c0,4.92526-63.58119,8.918-87.37871,8.918q-1.79724,0-3.59432-.02924c-4.79889-.07261-9.59628-.249-14.3905-.4687q-8.51439-.3902-17.01851-.97514-8.76556-.597-17.51592-1.397c-5.3029-.49123-10.60164-1.04461-15.88269-1.73435-3.878-.50649-7.72017-1.49-11.65365-1.44118-3.9553.04913-7.63229,1.67156-11.44574,2.505q-.47636.10416-.95438.20048a19.75535,19.75535,0,0,1-3.84674.58949q-.67953.07353-1.36172.11872c-.22315.015-.86315-.06053-1.01577.13972-.13737.18024.24046.6185.36578.75686a5.19749,5.19749,0,0,0,.75974.60652c.32625.24652.66943.46711,1.00291.70321l3.44455,2.439,5.56351,3.93934.16453.1165V260.32927a11.53455,11.53455,0,0,0,11.12438,14.58326H234.93323A11.53455,11.53455,0,0,0,246.05761,260.32927Z"/><g class="f"><path class="g" d="M241.2964,263.90226c0-8.62279-36.85435-11.59375-82.31649-11.59375s-82.31648,3.29833-82.31648,11.92112,8.02531,6.88124,82.31648,7.56925C229.49278,272.4519,241.2964,272.525,241.2964,263.90226Z"/><rect class="h" x="44.61641" y="119.9831" width="225.4691" height="175.35041"/></g><path class="i" d="M246.05761,56.2144c0,4.92525-63.58129,8.918-87.37874,8.918-4.58538,0-9.171-.12348-13.75326-.2835q-9.63722-.33654-19.26389-.92134-10.14444-.604-20.27177-1.46531-3.79275-.32859-7.58111-.70568-3.86516-.38983-7.72152-.86128c-1.244-.1538-2.48349-.35229-3.70836-.61993q-1.85294-.40488-3.73487-.65741a21.88928,21.88928,0,0,0-7.12486-.013c-2.33431.451-4.57211,1.27661-6.88071,1.83049a41.21427,41.21427,0,0,1-8.59192,1.12378,7.22525,7.22525,0,0,1,1.60056-1.3976,37.21555,37.21555,0,0,1,4.44278-2.5362c2.14109-1.07576,4.26247-2.36985,6.45989-3.40579a29.54972,29.54972,0,0,1,7.4349-2.19134c4.44285-.81727,8.93355-1.37894,13.42117-1.88319,5.61075-.63045,11.23527-1.1373,16.86353-1.58239q9.00363-.712,18.02235-1.214,8.44439-.47675,16.89766-.778c4.49441-.15507,8.992-.27435,13.48943-.27435C182.47632,47.29643,246.05761,51.28914,246.05761,56.2144Z"/><g class="j"><path class="k" d="M225.83825,188.34458a4.23233,4.23233,0,0,1-4.13636-3.36033l.00084-65.07106a4.2322,4.2322,0,0,1-.09091-.8719V79.8603a4.23141,4.23141,0,1,1,8.46281,0v38.74049l-.09175,64.63966a4.23536,4.23536,0,0,1-4.14463,5.10413Z"/></g><g class="l"><path class="m" d="M90.43007,210.25063a4.6591,4.6591,0,0,1-5.81061-4.54055l.70409-107.72836a4.6546,4.6546,0,0,1,9.309.06116l-.70409,107.72837A4.65536,4.65536,0,0,1,90.43007,210.25063Z"/></g><circle class="n" cx="226.76941" cy="197.39903" r="4.23358"/><circle class="o" cx="226.76941" cy="124.21667" r="4.23358"/><circle class="p" cx="92.00199" cy="154.89365" r="13.58161" transform="translate(-41.88311 34.34827) rotate(-17.29227)"/><circle class="q" cx="91.82716" cy="204.67438" r="0.45269" transform="translate(-56.68813 36.54634) rotate(-17.29226)"/><circle class="r" cx="91.81354" cy="208.53981" r="0.45269" transform="matrix(0.9548, -0.29725, 0.29725, 0.9548, -57.83773, 36.71701)"/><circle class="s" cx="91.82109" cy="206.39399" r="3.39545" transform="matrix(0.9548, -0.29725, 0.29725, 0.9548, -57.19955, 36.62226)"/><line class="t" x1="91.96429" y1="165.62286" x2="91.81354" y2="208.53981"/><circle class="u" cx="91.96429" cy="165.62286" r="9.05434" transform="translate(-45.07403 34.82201) rotate(-17.29226)"/><circle class="v" cx="91.96429" cy="165.62286" r="4.52727" transform="translate(-45.07402 34.82201) rotate(-17.29226)"/><circle class="w" cx="91.96429" cy="165.62286" r="3.77273" transform="translate(-45.07402 34.82201) rotate(-17.29226)"/><polyline class="x" points="91.964 165.623 93.999 180.354 91.964 165.623 89.93 150.891 91.964 165.623 77.233 167.657 91.964 165.623 106.696 163.588 91.964 165.623 99.558 183.285 91.964 165.623 84.37 147.961 91.964 165.623 74.302 173.217 91.964 165.623 109.626 158.029 91.964 165.623 105.622 177.802 91.964 165.623 78.307 153.444 91.964 165.623 79.785 179.28 91.964 165.623 104.144 151.965 91.964 165.623 92.879 178.37 91.964 165.623 91.05 152.876 91.964 165.623 79.218 166.537 91.964 165.623 104.711 164.709 91.964 165.623 92.305 167.096 91.964 165.623 91.624 164.15 91.964 165.623 90.491 165.964 91.964 165.623 93.438 165.282 91.964 165.623 87.699 184.442 91.964 165.623 96.23 146.804 91.964 165.623 73.145 161.358 91.964 165.623 110.784 169.888 91.964 165.623 89.581 171.891 91.964 165.623 94.348 159.355 91.964 165.623 85.696 163.24 91.964 165.623 98.232 168.006 91.964 165.623 95.354 169.324 91.964 165.623 88.574 161.922 91.964 165.623 88.263 169.013 91.964 165.623 95.665 162.233 91.964 165.623 112.61 174.794 91.964 165.623 71.319 156.452 91.964 165.623 82.793 186.269 91.964 165.623 101.136 144.977 91.964 165.623 101.031 182.103 91.964 165.623 82.898 149.143 91.964 165.623 75.484 174.689 91.964 165.623 108.445 156.556 91.964 165.623 101.635 185.216 91.964 165.623 82.293 146.03 91.964 165.623 72.371 175.294 91.964 165.623 111.557 155.952 91.964 165.623 94.829 168.852 91.964 165.623 89.099 162.393 91.964 165.623 88.735 168.488 91.964 165.623 95.194 162.758 91.964 165.623 106.18 172.135 91.964 165.623 77.749 159.111 91.964 165.623 85.453 179.838 91.964 165.623 98.476 151.407 91.964 165.623 91.136 182.324 91.964 165.623 92.792 148.922 91.964 165.623 75.264 164.795 91.964 165.623 108.665 166.451 91.964 165.623 96.842 178.402 91.964 165.623 87.086 152.844 91.964 165.623 79.185 170.501 91.964 165.623 104.743 160.745"/><circle class="y" cx="91.81354" cy="208.53981" r="6.79091" transform="translate(-57.83773 36.717) rotate(-17.29226)"/><circle class="z" cx="91.84274" cy="200.25225" r="1.93017"/><circle class="aa" cx="91.92128" cy="177.88157" r="1.0781" transform="translate(-48.71982 35.36331) rotate(-17.29226)"/><circle class="ab" cx="91.87336" cy="191.52926" r="0.71405" transform="translate(-52.77871 35.96593) rotate(-17.29226)"/><circle class="ac" cx="91.86574" cy="193.68873" r="1.00413" transform="translate(-53.42095 36.06127) rotate(-17.29226)"/><circle class="ad" cx="91.84412" cy="199.82991" r="1.86426" transform="translate(-55.24736 36.33242) rotate(-17.29226)"/><circle class="ae" cx="98.84481" cy="62.70216" r="6.99971"/><path class="b" d="M235.96147,255.07313V121.99453h0c0,4.74736-55.69483,8.59581-77.27169,8.59581s-77.29358-3.84845-77.29358-8.59581h0V255.07318c.07618,5.90272,2.77169,11.8329,8.94028,11.8329h136.6847C233.18957,266.90608,236.03446,260.85758,235.96147,255.07313Z"/><g class="af"><path class="ag" d="M163.30682,156.26561c-18.67792,1.50493-37.416,2.26908-56.09287,3.8-19.9941,1.63886-41.801,7.14928-57.53907,20.1983q-.22447.18612-.44661.375c-8.76136,7.42889-15.97631,17.98992-15.41066,29.46293.44336,8.99281,5.68341,17.23709,12.52838,23.08634s15.20216,9.61118,23.5767,12.91789c48.69347,19.22676,104.26913,25.27834,153.42829,7.27559,9.885-3.62,19.52717-8.23322,27.684-14.88789s14.78233-15.49629,17.51362-25.66283c2.8151-10.47851,1.31454-21.88724-3.2578-31.72684-4.33138-9.32105-11.14834-16.47991-13.97464-26.61155-.52426-1.87938-1.108-3.95817-2.75385-5.00613a7.51487,7.51487,0,0,0-3.74218-.85011c-21.64114-1.0035-42.5259,3.5073-63.88286,5.93934C175.069,155.2439,169.19088,155.79151,163.30682,156.26561Z"/><path class="ah" d="M158.43715,196.16526c-18.41325,3.47587-36.96487,6.22152-55.37429,9.7231C83.355,209.63689,62.25493,217.4273,47.98836,232.0707q-.20347.20886-.40436.42023c-7.92473,8.31554-13.97982,19.58172-12.2015,30.93017,1.39389,8.89519,7.47813,16.53772,14.90443,21.62863s16.13511,7.946,24.81293,10.34657c50.45684,13.95813,106.36086,14.08593,153.33532-9.02515,9.44573-4.64722,18.54468-10.25627,25.95034-17.7379s13.05684-16.9756,14.69534-27.37434c1.68877-10.71784-1.01239-21.90329-6.60174-31.20292-5.2948-8.80954-12.83205-15.20565-16.71614-24.98072-.72048-1.81324-1.52127-3.81845-3.26888-4.68609a7.51483,7.51483,0,0,0-3.8112-.44874c-21.62561,1.2956-41.91472,7.99429-62.89368,12.676C170.02478,193.9028,164.23783,195.07026,158.43715,196.16526Z"/></g><path class="ai" d="M235.96147,121.99452c0,4.74735-55.69476,8.59583-77.27164,8.59583s-77.29363-3.84848-77.29363-8.59583,55.71675-8.59582,77.29363-8.59582S235.96147,117.24718,235.96147,121.99452Z"/><g class="aj"><circle class="ak" cx="129.0495" cy="130.59035" r="14.91016"/><ellipse class="al" cx="128.00056" cy="122.37212" rx="9.96443" ry="6.00743" transform="translate(-8.90486 10.05122) rotate(-4.34581)"/><circle class="am" cx="136.98168" cy="123.10411" r="1.22104"/><circle class="an" cx="138.8893" cy="124.70762" r="0.4427"/><circle class="ao" cx="122.50465" cy="140.68513" r="0.4427"/><path class="ap" d="M117.18622,131.67873c-.1463,2.87815,1.58571,7.02963,4.34722,8.24794"/><circle class="aq" cx="135.76064" cy="138.69966" r="1.35526"/></g><g class="aj"><circle class="ar" cx="173.26768" cy="112.31353" r="8.42633"/><ellipse class="as" cx="172.67488" cy="107.66908" rx="5.6313" ry="3.39504" transform="translate(-7.66228 13.39419) rotate(-4.34581)"/><circle class="at" cx="177.75047" cy="108.08275" r="0.69006"/><circle class="au" cx="178.82855" cy="108.98896" r="0.25019"/><circle class="av" cx="169.56892" cy="118.0185" r="0.25019"/><path class="aw" d="M166.56326,112.92861c-.08268,1.62656.89615,3.97273,2.45679,4.66125"/><circle class="ax" cx="177.06041" cy="116.89643" r="0.76591"/></g><g class="aj"><circle class="ay" cx="155.41242" cy="93.33985" r="4.48279"/><ellipse class="az" cx="155.09705" cy="90.86901" rx="2.99584" ry="1.80616" transform="translate(-6.43977 12.01391) rotate(-4.34581)"/><circle class="ba" cx="157.79726" cy="91.08908" r="0.36711"/><circle class="bb" cx="158.37079" cy="91.57118" r="0.1331"/><circle class="bc" cx="153.44469" cy="96.37488" r="0.1331"/><path class="bd" d="M151.84568,93.66707a2.79183,2.79183,0,0,0,1.307,2.47978"/><circle class="be" cx="157.43015" cy="95.77794" r="0.40746"/></g><g class="bf"><circle class="bg" cx="200.81879" cy="164.49202" r="9.8398"/><ellipse class="bh" cx="200.12656" cy="159.06849" rx="6.57592" ry="3.96454" transform="translate(-11.47819 15.62215) rotate(-4.34581)"/><circle class="bi" cx="206.05355" cy="159.55155" r="0.80581"/><circle class="bj" cx="207.31247" cy="160.60977" r="0.29216"/><circle class="bk" cx="196.49959" cy="171.15397" r="0.29216"/><path class="bl" d="M192.98974,165.21028c-.09655,1.89941,1.04648,4.63914,2.86891,5.44315"/><circle class="bm" cx="205.24774" cy="169.84368" r="0.89439"/></g><g class="bf"><circle class="bn" cx="183.87459" cy="184.93134" r="5.23476"/><ellipse class="bo" cx="183.50632" cy="182.04603" rx="3.49838" ry="2.10913" transform="translate(-13.26713 14.4288) rotate(-4.34581)"/><circle class="bp" cx="186.65947" cy="182.30302" r="0.42869"/><circle class="bq" cx="187.32921" cy="182.86599" r="0.15543"/><circle class="br" cx="181.57678" cy="188.47548" r="0.15543"/><path class="bs" d="M179.70955,185.31345a3.26012,3.26012,0,0,0,1.52625,2.89575"/><circle class="bt" cx="186.23078" cy="187.77841" r="0.47582"/></g><polygon class="bu" points="252.716 214.109 57.155 214.109 41.978 293.266 237.539 293.266 252.716 214.109"/><polygon class="bv" points="252.716 214.109 259.339 284.079 256.731 286.124 241.74 286.285 240.632 290.841 237.539 293.266 252.716 214.109"/><path class="bw" d="M85.376,240.37369a3.54958,3.54958,0,0,1,1.25879-1.55664,2.89469,2.89469,0,0,1,1.83691-.59765,1.731,1.731,0,0,1,1.62793.88476,2.26544,2.26544,0,0,1-.00488,1.96289q-.86865,2.15332-2.21778,6.0791a3.24488,3.24488,0,0,1-1.28418,1.65137,2.85484,2.85484,0,0,1-1.94628.64649,1.67535,1.67535,0,0,1-1.4834-.88575,2.10554,2.10554,0,0,1-.14258-1.7705Q84.40624,242.71843,85.376,240.37369Zm4.01953-9.90918a3.15262,3.15262,0,0,1,1.9541-.7666l12.78223-.0957a1.80517,1.80517,0,0,1,1.82812,1.0293,2.51984,2.51984,0,0,1-.39453,2.3457,63.48045,63.48045,0,0,0-6.416,14.16894,3.18727,3.18727,0,0,1-1.331,1.65137,2.76379,2.76379,0,0,1-1.94629.64649,1.63806,1.63806,0,0,1-1.43652-.88575,2.0022,2.0022,0,0,1-.09473-1.7705,76.92735,76.92735,0,0,1,5.07129-12.207l-9.35449.07227a1.77356,1.77356,0,0,1-1.55957-.69434,2.09317,2.09317,0,0,1-.30957-1.7705A3.27711,3.27711,0,0,1,89.39549,230.46451Z"/><path class="bw" d="M112.61424,231.15885a3.24922,3.24922,0,0,1,2.62305-1.55664,1.7984,1.7984,0,0,1,1.876,1.0293,2.46289,2.46289,0,0,1-.37109,2.3457,51.15837,51.15837,0,0,0-5.543,11.56055q1.53222,0,3.47266-.09571,1.9043-.04833,3.48339-.04883,1.01075-2.94287,2.10254-5.38476A12.30633,12.30633,0,0,0,119.125,240.277a3.46967,3.46967,0,0,1-1.8623,1.22071,1.98791,1.98791,0,0,1-1.82618-.23926,1.54352,1.54352,0,0,1-.78808-1.50781,2.89956,2.89956,0,0,1,.87695-1.91407q5.0127-5.88867,10.02246-7.94726a2.07322,2.07322,0,0,1,1.1416-.23828h.07129a1.01634,1.01634,0,0,1,.29981-.04883,1.79763,1.79763,0,0,1,1.876,1.0293,2.28214,2.28214,0,0,1-.39453,2.3457,57.3882,57.3882,0,0,0-6.01562,13.04492,2.65448,2.65448,0,0,1-.84571,2.15332,3.095,3.095,0,0,1-2.14648,1.125,2.331,2.331,0,0,1-.80273.04785q-2.94434,0-5.39942.04785-2.40673.04835-6.23535.04786a1.75812,1.75812,0,0,1-1.82617-1.125,2.42917,2.42917,0,0,1,.5039-2.39258A63.91841,63.91841,0,0,1,112.61424,231.15885Z"/><path class="bw" d="M134.5449,231.39713a3.43424,3.43424,0,0,1,1.27637-1.26758,3.8856,3.8856,0,0,1,1.58984-.47851,1.93541,1.93541,0,0,1,2.00489,1.17187,2.55389,2.55389,0,0,1-.39844,2.53711,43.2955,43.2955,0,0,0-3.74609,6.77344,3.62935,3.62935,0,0,1-1.59083,1.72363,3.26773,3.26773,0,0,1-2.09277.47852,1.91723,1.91723,0,0,1-1.40527-1.17285,2.42156,2.42156,0,0,1,.06445-2.00977A57.29193,57.29193,0,0,1,134.5449,231.39713Z"/><path class="bw" d="M145.17186,231.39713a3.43414,3.43414,0,0,1,1.27636-1.26758,3.88564,3.88564,0,0,1,1.58985-.47851,1.9354,1.9354,0,0,1,2.00488,1.17187,2.55387,2.55387,0,0,1-.39844,2.53711,43.2955,43.2955,0,0,0-3.74609,6.77344,3.62938,3.62938,0,0,1-1.59082,1.72363,3.26776,3.26776,0,0,1-2.09278.47852,1.91723,1.91723,0,0,1-1.40527-1.17285,2.42159,2.42159,0,0,1,.06445-2.00977A57.292,57.292,0,0,1,145.17186,231.39713Z"/><path class="bw" d="M154.376,230.46451a3.47818,3.47818,0,0,1,1.97949-.7666l12.78223-.0957a1.862,1.862,0,0,1,1.82714,1.0293,2.5171,2.5171,0,0,1-.39453,2.3457,62.60284,62.60284,0,0,0-6.43945,14.16894,3.06266,3.06266,0,0,1-1.30762,1.65137,2.76379,2.76379,0,0,1-1.94629.64649,1.63923,1.63923,0,0,1-1.43652-.88575,2.1091,2.1091,0,0,1-.14258-1.7705,78.19946,78.19946,0,0,1,5.09473-12.207l-9.3291.07227a1.79725,1.79725,0,0,1-1.584-.69434,2.14446,2.14446,0,0,1-.28711-1.7705A3.14591,3.14591,0,0,1,154.376,230.46451Z"/><path class="bw" d="M171.03709,245.32682a3.1722,3.1722,0,0,1,1.93555-.78906q2.92236-.09522,4.06054-.14454h2.0586a58.609,58.609,0,0,1,6.33105-13.23437,3.07815,3.07815,0,0,1,2.62207-1.55664,1.75918,1.75918,0,0,1,1.82813,1.0293,2.28644,2.28644,0,0,1-.39453,2.3457A63.76611,63.76611,0,0,0,183.123,247.0983a3.19431,3.19431,0,0,1-1.27149,1.60352,3.00379,3.00379,0,0,1-1.89746.64648H179.667q-2.31006-.04833-7.876.09571a1.85747,1.85747,0,0,1-1.85547-2.34571A3.04786,3.04786,0,0,1,171.03709,245.32682Z"/><path class="bw" d="M191.332,240.37369a3.54958,3.54958,0,0,1,1.25879-1.55664,2.89294,2.89294,0,0,1,1.83692-.59765,1.731,1.731,0,0,1,1.62792.88476,2.26541,2.26541,0,0,1-.00488,1.96289q-.86865,2.15332-2.21777,6.0791a3.24493,3.24493,0,0,1-1.28418,1.65137,2.85484,2.85484,0,0,1-1.94629.64649,1.6742,1.6742,0,0,1-1.4834-.88575,2.10909,2.10909,0,0,1-.14355-1.7705Q190.36424,242.71843,191.332,240.37369Zm4.01856-9.90918a3.1572,3.1572,0,0,1,1.95507-.7666l12.78223-.0957a1.80519,1.80519,0,0,1,1.82813,1.0293,2.51715,2.51715,0,0,1-.39453,2.3457,63.48,63.48,0,0,0-6.416,14.16894,3.18734,3.18734,0,0,1-1.33106,1.65137,2.76378,2.76378,0,0,1-1.94628.64649,1.63924,1.63924,0,0,1-1.43653-.88575,2.00531,2.00531,0,0,1-.0957-1.7705,76.91932,76.91932,0,0,1,5.07226-12.207l-9.35449.07227a1.77358,1.77358,0,0,1-1.55957-.69434,2.09337,2.09337,0,0,1-.31054-1.7705A3.29344,3.29344,0,0,1,195.35057,230.46451Z"/><path class="bw" d="M102.9951,262.32487a3.32215,3.32215,0,0,1,1.96582-.7168l7.03711-.09668a3.852,3.852,0,0,1,.61133-.04785,1.27144,1.27144,0,0,1,.60937.04785l4.53711-.04785a1.75316,1.75316,0,0,1,1.55371.71777,1.85036,1.85036,0,0,1,.32324,1.72363,3.50324,3.50324,0,0,1-1.2207,1.77149,3.2245,3.2245,0,0,1-1.94141.71777l-3.41211.04785a68.691,68.691,0,0,0-5.4541,12.56446,3.50535,3.50535,0,0,1-3.207,2.29882,1.63746,1.63746,0,0,1-1.43555-.88671,1.899,1.899,0,0,1-.14355-1.76954,75.10084,75.10084,0,0,1,4.97949-12.13476l-4.17676.04687a1.851,1.851,0,0,1-1.52246-.74218,2.08339,2.08339,0,0,1-.2998-1.72266A3.34032,3.34032,0,0,1,102.9951,262.32487Z"/><path class="bw" d="M124.14549,262.08658a58.44788,58.44788,0,0,1,3.58789-6.36718,3.04691,3.04691,0,0,1,2.62891-1.58008,1.67979,1.67979,0,0,1,1.88476,1.041,2.54911,2.54911,0,0,1-.375,2.40625q-1.21,1.81933-2.33008,3.92481l8.3418-.04785a1.47989,1.47989,0,0,1,.37305-.04785.76211.76211,0,0,1,.46484.04785,1.5956,1.5956,0,0,1,1.85156,1.65234,2.867,2.867,0,0,1-1.51074,2.752,66.17043,66.17043,0,0,0-5.75488,13.13868,3.43445,3.43445,0,0,1-1.3291,1.6875,2.96618,2.96618,0,0,1-1.95411.63476,1.68326,1.68326,0,0,1-1.42382-.88476,2.15656,2.15656,0,0,1-.14942-1.79493,79.20713,79.20713,0,0,1,5.05957-12.25488l-8.93554.12012a1.6942,1.6942,0,0,1-1.96387-1.67578A2.91329,2.91329,0,0,1,124.14549,262.08658Z"/><path class="bw" d="M146.42479,269.0026a30.489,30.489,0,0,1-1.02832-4.16406,2.47235,2.47235,0,0,1,.7998-2.25,2.8372,2.8372,0,0,1,2.21875-1.125,1.572,1.572,0,0,1,1.85547,1.46,24.21813,24.21813,0,0,0,2.28125,6.96484A20.03429,20.03429,0,0,0,158.04,263.403a3.81847,3.81847,0,0,1,1.26758-1.41211,2.6494,2.6494,0,0,1,1.60156-.52734,1.69089,1.69089,0,0,1,1.63379.86133,2.11689,2.11689,0,0,1-.06543,2.01074q-2.04932,4.30811-7.64551,9.07129a43.348,43.348,0,0,0,3.00293,3.23047,1.72029,1.72029,0,0,1,.51953,1.53222,2.92932,2.92932,0,0,1-.92187,1.81934,3.25145,3.25145,0,0,1-1.833.93359,2.114,2.114,0,0,1-1.64746-.45508,28.29808,28.29808,0,0,1-5.69531-7.34765q-3.27686,3.35155-3.94922,5.83984a3.052,3.052,0,0,1-1.16406,1.65039,3.10268,3.10268,0,0,1-1.86426.69531,1.85573,1.85573,0,0,1-1.52149-.74218,1.94058,1.94058,0,0,1-.22363-1.65235Q140.791,274.43717,146.42479,269.0026Z"/><path class="bw" d="M165.792,265.26822a2.63235,2.63235,0,0,1,.67285-2.48828,3.29346,3.29346,0,0,1,2.50782-1.2207l12.75879-.0957a1.7159,1.7159,0,0,1,1.76464.90918,2.46788,2.46788,0,0,1-.21972,2.22656,1.74831,1.74831,0,0,1-.23731.52637l-8.36035,14.45605a3.42166,3.42166,0,0,1-1.26953,1.24414,3.0771,3.0771,0,0,1-1.58984.47949h-6.24707a1.96762,1.96762,0,0,1-1.47657-.64648,1.83024,1.83024,0,0,1-.36914-1.55664l2.00684-13.61719Q165.7656,265.3649,165.792,265.26822Zm3.334,11.13086h2.20117L177.167,266.3942l-6.5664.12012Z"/></g></svg>