<svg xmlns="http://www.w3.org/2000/svg" xmlns:xlink="http://www.w3.org/1999/xlink" viewBox="0 0 689.34725 617.57916"><defs><style>.a{fill:url(#a);}.b{fill:url(#b);}.c{fill:url(#c);}.d{fill:url(#d);}.e{fill:url(#e);}.f{fill:url(#f);}</style><radialGradient id="a" cx="185.3473" cy="276.2735" r="52.14173" gradientUnits="userSpaceOnUse"><stop offset="0" stop-color="#f9b233"/><stop offset="1" stop-color="#f39200"/></radialGradient><radialGradient id="b" cx="233.29836" cy="463.57846" r="52.73293" xlink:href="#a"/><radialGradient id="c" cx="464.01557" cy="382.82518" r="39.59152" xlink:href="#a"/><radialGradient id="d" cx="451.72063" cy="230.84942" r="25.159" xlink:href="#a"/><radialGradient id="e" cx="366.44878" cy="196.11973" r="7.25332" xlink:href="#a"/><radialGradient id="f" cx="401.52483" cy="459.21679" r="5.5106" xlink:href="#a"/></defs><path class="a" d="M170.49535,243.82743c-.83342,4.00939-.70506,8.30549-2.54772,11.9626-3.37039,6.68915-11.74435,8.7061-18.04243,12.76054-18.1805,11.70379-15.60959,42.3058,1.73887,55.21083s42.67583,10.12615,61.02818-1.30626c4.2085-2.62164,8.38946-5.94573,9.9187-10.66228,2.31479-7.13942-2.14656-14.612-2.58073-22.10528-1.32035-22.79785,27.17187-42.407,4.473-62.62472C208.29128,212.64088,174.93565,222.46615,170.49535,243.82743Z"/><path class="b" d="M233.50125,495.23637c9.00364,5.48853,18.346,11.07077,28.787,12.54556s22.35951-2.22109,27.42416-11.47048c18.13492-33.12146-41.03521-45.25935-57.72778-56.288-16.25159-10.73731-41.46267-37.25138-56.43-6.79507C162.51968,459.7526,214.04079,483.37328,233.50125,495.23637Z"/><path class="c" d="M452.77875,365.51775c-17.25944,2.82979-34.56713,19.49515-28.5502,35.91747,3.17233,8.65843,11.83413,14.17526,20.63158,16.9388,15.56566,4.88962,33.31294,2.79648,46.97617-6.1206,6.31279-4.11993,12.00941-10.15986,13.01829-17.6303.96647-7.15648-2.48347-14.06785-4.13113-21.0989-1.65579-7.06578,13.16411-38.3001-10.89588-25.97372-5.64114,2.89006-5.673,9.00528-10.05407,12.71184C472.76417,366.1925,461.34944,364.11263,452.77875,365.51775Z"/><path class="d" d="M442.75144,235.99906c7.90512,7.04413,16.22183,14.3147,26.46625,16.991a9.88989,9.88989,0,0,0,5.83824.14512c3.88566-1.41671,5.04992-6.78145,3.27966-10.51931s-5.51532-6.10417-9.21724-7.94841-7.65638-3.44517-10.55831-6.392c-7.77736-7.89768-12.99326-26.11682-28.47757-18.10543C414.44439,218.261,434.58243,228.71979,442.75144,235.99906Z"/><path class="e" d="M361.96747,192.47243c-.83629-2.19816-4.70472-.571-4.594,1.77829s2.41223,3.94985,4.589,4.8402a24.34529,24.34529,0,0,0,8.69581,1.80189,6.08212,6.08212,0,0,0,3.22038-.60377c2.66839-1.56155,1.86057-6.03274-.741-7.70319s-5.97009-1.34424-9.01614-.81482"/><path class="f" d="M401.75189,464.71947c5.05719-.84509,7.63232-8.0956,1.94574-10.64224C396.16707,450.70478,392.17853,466.31915,401.75189,464.71947Z"/></svg>