<svg xmlns="http://www.w3.org/2000/svg" xmlns:xlink="http://www.w3.org/1999/xlink" viewBox="0 0 689.34725 617.57916"><defs><style>.a{fill:url(#a);}.b{fill:url(#b);}.c{fill:url(#c);}.d{fill:url(#d);}.e{fill:url(#e);}.f{fill:url(#f);}.g{fill:url(#g);}.h{fill:url(#h);}.i{fill:url(#i);}.j{fill:url(#j);}.k{fill:url(#k);}.l{fill:url(#l);}.m{fill:url(#m);}.n{fill:url(#n);}.o{fill:url(#o);}.p{fill:url(#p);}.q{fill:url(#q);}.r{fill:url(#r);}</style><radialGradient id="a" cx="171.67405" cy="330.12737" r="49.65956" gradientUnits="userSpaceOnUse"><stop offset="0" stop-color="#f9b233"/><stop offset="1" stop-color="#f39200"/></radialGradient><radialGradient id="b" cx="267.84889" cy="203.76527" r="70.63681" xlink:href="#a"/><radialGradient id="c" cx="448.34518" cy="297.48208" r="60.59482" xlink:href="#a"/><radialGradient id="d" cx="281.37227" cy="453.00361" r="65.19128" xlink:href="#a"/><radialGradient id="e" cx="455.92537" cy="451.92002" r="44.81618" xlink:href="#a"/><radialGradient id="f" cx="392.34776" cy="495.1776" r="11.60326" xlink:href="#a"/><radialGradient id="g" cx="517.42672" cy="363.31844" r="6.97972" xlink:href="#a"/><radialGradient id="h" cx="146.42552" cy="234.04351" r="11.45828" xlink:href="#a"/><radialGradient id="i" cx="204.83873" cy="105.53229" r="6.31715" xlink:href="#a"/><radialGradient id="j" cx="118.94739" cy="438.91923" r="21.74993" gradientUnits="userSpaceOnUse"><stop offset="0" stop-color="#fcea10"/><stop offset="1" stop-color="#ffde00"/></radialGradient><radialGradient id="k" cx="464.77992" cy="172.98791" r="18.68917" xlink:href="#j"/><radialGradient id="l" cx="500.5402" cy="216.3967" r="8.27696" xlink:href="#j"/><radialGradient id="m" cx="144.14214" cy="189.43285" r="4.92819" xlink:href="#j"/><radialGradient id="n" cx="132.47951" cy="255.65247" r="4.13864" xlink:href="#j"/><radialGradient id="o" cx="355.76428" cy="312.81688" r="13.31128" xlink:href="#j"/><radialGradient id="p" cx="385.9032" cy="426.87753" r="8.39792" xlink:href="#j"/><radialGradient id="q" cx="555.72849" cy="483.07633" r="16.23547" xlink:href="#j"/><radialGradient id="r" cx="337.50111" cy="567.74767" r="14.37961" xlink:href="#j"/></defs><path class="a" d="M140.28929,365.94779c50.058,43.46678,115.50309-28.12228,60.4938-72.32987C148.22471,251.38,91.4774,323.56308,140.28929,365.94779Z"/><path class="b" d="M218.04311,150.39388c-14.558,8.85116-21.392,26.34844-24.54887,43.091-3.29851,17.49393-3.15936,37.15218,7.78482,51.19293,6.62607,8.50087,16.49283,13.91791,26.64576,17.53559a105.71872,105.71872,0,0,0,46.46873,5.51805c12.30952-1.30852,24.60022-4.91533,34.66786-12.11805,13.53954-9.68663,21.91942-24.92192,28.78545-40.08793,3.2726-7.22866,6.36129-14.8305,6.2373-22.76445C343.21577,137.19091,254.35568,128.31642,218.04311,150.39388Z"/><path class="c" d="M383.80028,261.07977c-2.6896,7.11189-1.46486,15.04917.10936,22.4879.90968,4.29862,2.01931,8.76539,4.92106,12.06471,6.1508,6.99351,17.2008,5.88506,25.86123,9.31123,14.107,5.58088,19.92954,22.06982,30.32251,33.12146,13.24248,14.08175,36.4666,18.57611,52.88534,8.374s22.19322-35.20116,10.17835-50.34384C491.208,274.83327,402.18733,212.46062,383.80028,261.07977Z"/><path class="d" d="M213.78976,427.71253c1.89235,1.11522,4.06566,1.65865,6.03194,2.63764,10.32119,5.13883,11.19709,19.06887,13.956,30.26365,5.126,20.79985,21.87743,38.0821,42.20634,44.83819s43.58849,3.178,61.54558-8.50325c4.79822-3.12129,9.33087-6.88416,12.27945-11.79041,2.88187-4.79525,4.09123-10.41916,4.61656-15.989,2.01922-21.40884-6.09346-43.74129-22.00817-58.20281-27.39447-24.89305-50.96061-9.02858-81.82069-6.508-8.06015.65834-22.66512-4.73409-29.56785-2.15486C211.82136,405.74407,201.17949,420.28091,213.78976,427.71253Z"/><path class="e" d="M409.96349,448.17537c-2.23527,21.19648,13.73374,42.902,34.731,46.563,13.2693,2.31358,27.37792-2.19,37.42383-11.16307C551.58815,421.52332,418.23408,369.74772,409.96349,448.17537Z"/><path class="f" d="M403.92565,493.50208c-.45192-4.95546-3.75752-9.522-9.56188-9.8814a12.053,12.053,0,0,0-7.15537,2.075c-6.44768,4.15063-9.50741,13.58041-2.443,18.91925,4.33181,3.27341,10.88163,2.61893,15.08772-.81465A11.84453,11.84453,0,0,0,403.92565,493.50208Z"/><path class="g" d="M524.02072,366.02939c1.51042-5.78347-6.684-13.3749-11.683-8.12253-3.00445,3.15671-1.77112,9.60077,1.90983,11.742C517.72149,371.66959,523.00494,369.91818,524.02072,366.02939Z"/><path class="h" d="M135.105,238.03245c3.17129,7.94216,16.06878,8.77681,20.84411,1.68343C169.8853,219.0148,127.0637,217.8779,135.105,238.03245Z"/><path class="i" d="M204.42736,100.97277c-1.71321-1.99831-5.23189-.02351-5.89116,2.52476-1.07031,4.1371,2.97032,8.7017,7.20671,8.14125s6.95105-6.01874,4.84176-9.73519c-1.45928-2.57116-5.73094-3.59477-7.2701-1.07062"/><path class="j" d="M131.7098,458.37027c13.12685-6.4347,13.86746-32.97606-.00368-38.68129-11.84328-4.87117-34.60166,4.301-35.60584,18.27437-.92223,12.83307,14.44941,20.40548,27.2791,21.38693C126.2015,459.56617,129.16736,459.61623,131.7098,458.37027Z"/><path class="k" d="M446.95885,163.43763c-4.26684,7.47738-1.58984,17.81836,5.2,23.11135,9.46946,7.38194,25.37816,3.70629,30.65134-7.07985C493.27619,158.06112,456.29235,147.08556,446.95885,163.43763Z"/><path class="l" d="M505.61005,222.2134a8.17116,8.17116,0,0,0,3.867-4.5764c2.24215-8.24008-8.76618-10.10234-14.38819-7.06011C485.23085,215.91132,496.7543,227.57681,505.61005,222.2134Z"/><path class="m" d="M148.25111,192.07647a5.19142,5.19142,0,0,0-1.587-6.93694c-4.03431-2.43394-6.97187,1.61193-7.32434,5.43052C138.88852,195.45856,146.11678,195.49254,148.25111,192.07647Z"/><path class="n" d="M134.84135,251.29422c-2.80919.80371-6.19009,2.30043-6.2675,5.2213-.0799,3.01418,4.43527,4.64768,6.60124,2.55s1.25921-6.21374-1.392-7.64995"/><path class="o" d="M355.56791,303.54179c-5.32054-2.79844-12.27193,2.546-12.43443,8.55543s4.67425,11.23924,10.25124,13.48345c3.95484,1.59145,8.883,1.86427,12.12242-.907,6.34084-5.42451,1.05435-15.6253-4.382-21.956-1.47-1.71188-3.148-3.54077-5.38561-3.83155s-4.75049,2.08187-3.6765,4.06634"/><path class="p" d="M388.42909,418.74068c-4.74241-1.38668-10.29377,2.287-10.84441,7.19718s4.08089,9.73124,9.00724,9.35111,8.76594-5.88781,7.39295-10.63421-7.59321-7.349-11.92449-4.97126"/><path class="q" d="M547.53746,470.83981c-10.26409,5.05844-9.86622,22.625.41781,27.64273s24.13582-4.67874,23.4386-16.10035S556.54967,462.936,546.15716,467.725"/><path class="r" d="M343.03569,552.054c-7.13258.534-14.19641,4.61785-17.14812,11.13292s-.85573,15.25262,5.34209,18.82275c7.70252,4.43691,19.09946-2.062,19.20349-10.9504s-11.13769-15.65226-18.94194-11.39686"/></svg>