<svg xmlns="http://www.w3.org/2000/svg" xmlns:xlink="http://www.w3.org/1999/xlink" viewBox="0 0 689.34725 617.57916"><defs><style>.a{fill:url(#a);}.b{fill:url(#b);}.c{fill:url(#c);}</style><radialGradient id="a" cx="336.23557" cy="364.88084" r="90.12848" gradientUnits="userSpaceOnUse"><stop offset="0" stop-color="#fcea10"/><stop offset="1" stop-color="#ffde00"/></radialGradient><radialGradient id="b" cx="343.56805" cy="346.03008" r="89.10403" gradientUnits="userSpaceOnUse"><stop offset="0" stop-color="#f9b233"/><stop offset="1" stop-color="#f39200"/></radialGradient><radialGradient id="c" cx="344.0309" cy="350.36856" r="40.78396" xlink:href="#a"/></defs><path class="a" d="M392.12052,282.16476c-16.44122,13.848-21.87184,39.216-12.54067,58.58112s32.55586,30.92552,53.63169,26.69575c-49.03475,6.44571-94.1,37.21951-118.64531,80.15528,9.6655-20.08,19.16933-44.65462,7.15593-63.42442-4.03037-6.29709-10.07268-11.02221-16.2601-15.219a175.99308,175.99308,0,0,0-66.20245-27.24842,103.37583,103.37583,0,0,0,33.76816-4.02463c2.25984-.6602,4.73111-1.59365,5.75055-3.71579.86662-1.804.41509-3.93414-.053-5.88l-10.86995-45.18827A65.519,65.519,0,0,0,318.852,305.18124C348.39375,304.18174,369.31649,301.372,392.12052,282.16476Z"/><path class="b" d="M325.58668,267.46733c2.42653-.70007,3.68767-5.80351,6.17974-5.74576,2.48425.05756,3.15811,7.17463,5.57639,7.87518,2.38718.69153,9.475-9.91508,11.6712-8.70341,2.19473,1.21088,4.51362,4.31221,6.39192,5.937,1.90162,1.64495,3.48387,4.651,5.07083,6.5822,1.58454,1.92827,2.69283,4.817,4.00909,6.95605,1.30765,2.125-1.28189,6.51979-.19435,8.77954,1.087,2.25862-4.2964,6.97755-3.38485,9.29775.75648,1.9255,6.71789,3.23362,8.18409,4.69309,1.97633,1.96727,6.74214-2.65485,9.56873-2.73053a57.4401,57.4401,0,0,0,7.63261-.79644c2.44352-.38864,5.51168-3.35873,7.97762-3.28145,2.4667.07731,4.49655,7.07739,6.91341,7.59187,2.41365.5138,4.037,2.5286,6.32887,3.44946s9.556-6.99905,11.65421-5.7a58.41544,58.41544,0,0,1,7.06859,5.19849c1.8339,1.65034,2.8114,5.83451,4.30676,7.80573,1.61255,2.12573-7.17706,10.167-6.17576,12.73584,1.00106,2.56821,11.7971,2.70573,12.01225,5.37159.22611,2.80176-10.52264,3.923-11.36275,6.44157-.85438,2.56141-.04591,2.49778-2.21487,4.34835-2.54949,2.17524-1.75306,8.14893-4.22565,10.4112-2.17638,1.99125-5.92,3.44087-6.69313,6.0916-.74581,2.55707,5.48241,5.93492,5.506,8.8386.02212,2.71883.62547,5.14841.87508,7.94849.25154,2.82178.51554,5.976.55725,8.66082.04162,2.67809,2.3482,6.82507,1.84327,9.45946-.50447,2.632-6.74489,4.55062-7.75519,7.0317-1.01259,2.48669,2.63789,8.59254,1.15714,10.81967-1.48711,2.23668-12.47507-2.79137-14.39394-.92568-1.91811,1.86495-2.26263,4.83229-4.57168,6.21721-2.2967,1.3775-2.89338,7.28351-5.45458,8.06687-2.55829.78246-6.34557-3.24606-9.016-3.06351-2.67553.18291-6.50383,8.54419-9.13949,8.11775-2.65021-.4288-7.37689-.82118-9.83211-1.87332-2.45447-1.05183-.19166-11.76425-2.29627-13.44629-2.21143-1.76742-7.88565-.11411-9.92838-2.29005-2.015-2.1464-3.3545-4.816-5.40068-6.81827-2.18434-2.13748-5.37917-.94457-7.82756-2.28409-2.553-1.39673-2.24534-.48763-5.34742-.29011-2.37944.1515-6.24288-8.14847-8.34718-7.09762-2.046,1.02172-3.59585,3.58475-5.55879,4.90425-1.94894,1.31008-6.414-2.51659-8.45253-1.448-2.42991,1.27379.158,16.75961-2.48939,17.34245-2.63947.5811-7.13548-12.38844-9.87212-12.40068-2.702-.0121-5.811,6.72236-8.49272,6.22225-2.67952-.4997-5.03958-2.94119-7.58467-3.83845-2.75253-.97039-6.5832-.235-9.14714-1.66327-2.57675-1.43544-4.083-4.959-6.26656-6.89215a33.01474,33.01474,0,0,1-6.07073-6.5615c-1.56979-2.44948-3.51809-5.2585-4.19921-8.10913-.68606-2.87134,4.46249-5.68,4.82764-8.55514.3693-2.90783-9.87864-10.86021-8.27964-13.35565,1.38745-2.16528,9.74036-.16029,11.62063-2.01856,1.88479-1.86274,7.3389-.67648,8.94031-2.64912,1.67054-2.0578,1.48059-6.31279,1.97619-8.95586.72421-3.86229-2.89409-7.91309-3.31388-11.82024-.29459-2.74191,1.51012-5.50677,2.07023-8.194a28.05481,28.05481,0,0,1,3.14878-7.35664c1.28222-2.42859-2.36252-9.27727-.48024-11.26951,1.89156-2.002,10.26274,3.59327,12.63574,2.22493,2.56343-1.47815,2.841-5.38225,4.80587-6.2591,2.014-.89874,9.61326,2.66855,11.54476.28343,1.752-2.16427-1.56042-8.6919-.45536-11.15277,1.11708-2.48763,7.20772-3.54489,8.0386-6.13215.842-2.622-7.14946-8.19149-6.2116-10.70427.9683-2.59437,5.38017-3.60507,6.87566-5.85242,1.46344-2.1992,5.53935-.26994,7.91669-1.91485C322.056,269.62435,322.63766,268.31814,325.58668,267.46733Z"/><path class="c" d="M387.71046,344.636c-.25788-2.295,3.16057-7.11148,1.63961-8.84608-1.5498-1.76749-6.56294,1.2756-8.90164,1.01464-2.364-.26377-5.38488-4.84422-7.73914-4.2479-2.4057.60934-5.18113,8.42634-7.4979,7.691-2.79426-.88691-2.03558-7.84282-3.5698-10.4247-1.45064-2.44124-6.87347-1.6104-8.79681-3.60649-2.07173-2.15008-1.09538-9.79147-3.92816-10.29592-2.69243-.47946-6.98-1.02046-9.88932-.5361-2.83128.47137-3.45476,9.86139-6.06291,10.7695-2.02.70334-7.43914-6.43762-9.34149-5.45347-1.929.998-1.95772,5.74908-3.39913,7.36985-1.407,1.58207,2.26335,4.43121,1.95763,6.52633-.31634,2.16791-6.66163,2.88078-5.29989,4.59692-2.32543.89384-.2022,6.76994-2.397,7.94863s-8.1058-3.81815-10.13659-2.37527-3.15047,4.42967-4.98412,6.11617c-1.81791,1.672-.2686,4.94332-.69279,7.37654-.53662,3.07823-.799,5.1967,1.82822,6.88824s5.3297,5.42279,8.44955,5.59607c2.62531.14582,5.89017,2.00447,8.50506,1.73056,2.61476-.27388,4.11854-7.61144,6.65775-8.29293,2.53933-.68152,4.376,3.36778,6.77463,2.29069.05252,2.2346.82564,2.13634,1.61134,4.22618.785,2.08807-.546,6.42826.85326,8.16563,1.40043,1.73883,5.5065,2.06328,7.40425,3.24427a24.05507,24.05507,0,0,0,6.676,3.00176,25.29417,25.29417,0,0,0,7.29974.30394c2.222-.21812,2.973-5.40653,5.001-6.34638,2.34359-1.08609,8.0371,2.78872,9.982,1.08489,1.9272-1.68831-.29312-7.82154,1.46488-9.68282,1.72555-1.82694,8.5378.71246,10.57611-1.43286,1.87834-1.97695-.92636-8.2265.73579-10.44327,1.7073-2.277,3.96708-3.80962,4.95214-6.30829C388.47108,349.67713,388.0267,347.45029,387.71046,344.636Z"/></svg>