<svg xmlns="http://www.w3.org/2000/svg" xmlns:xlink="http://www.w3.org/1999/xlink" viewBox="0 0 689.34725 617.57916"><defs><style>.a{fill:url(#a);}.b{fill:url(#b);}.c{fill:url(#c);}.d{fill:url(#d);}.e{fill:url(#e);}.f{fill:url(#f);}.g{fill:url(#g);}.h{fill:url(#h);}.i{fill:url(#i);}.j{fill:url(#j);}.k{fill:url(#k);}.l{fill:url(#l);}.m{fill:url(#m);}.n{fill:url(#n);}.o{fill:url(#o);}.p{fill:url(#p);}.q{fill:url(#q);}.r{fill:url(#r);}.s{fill:url(#s);}</style><radialGradient id="a" cx="341.8756" cy="308.31581" r="239.93993" gradientUnits="userSpaceOnUse"><stop offset="0" stop-color="#f9b233"/><stop offset="1" stop-color="#f39200"/></radialGradient><radialGradient id="b" cx="173.20591" cy="127.5394" r="41.36104" gradientUnits="userSpaceOnUse"><stop offset="0" stop-color="#fcea10"/><stop offset="1" stop-color="#ffde00"/></radialGradient><radialGradient id="c" cx="909.67828" cy="-2780.27402" r="41.36104" gradientTransform="translate(3160.96871 1185.43207) rotate(-96.44576)" xlink:href="#b"/><radialGradient id="d" cx="582.55717" cy="99.29079" r="24.57657" xlink:href="#b"/><radialGradient id="e" cx="537.02687" cy="484.66044" r="29.81557" xlink:href="#b"/><radialGradient id="f" cx="648.72571" cy="322.88159" r="30.18986" xlink:href="#b"/><radialGradient id="g" cx="41.2276" cy="364.26232" r="29.69443" xlink:href="#b"/><radialGradient id="h" cx="77.02637" cy="254.59874" r="15.53062" xlink:href="#a"/><radialGradient id="i" cx="307.844" cy="24.69705" r="19.88679" xlink:href="#a"/><radialGradient id="j" cx="656.78025" cy="210.95329" r="16.85277" xlink:href="#a"/><radialGradient id="k" cx="483.26635" cy="587.06458" r="23.07947" xlink:href="#a"/><radialGradient id="l" cx="60.69787" cy="555.13286" r="20.90343" xlink:href="#a"/><radialGradient id="m" cx="598.00198" cy="200.9036" r="28.86173" xlink:href="#a"/><radialGradient id="n" cx="161.02614" cy="557.31903" r="31.9728" xlink:href="#a"/><radialGradient id="o" cx="414.0777" cy="51.26724" r="28.29929" xlink:href="#a"/><radialGradient id="p" cx="593.36707" cy="395.12169" r="19.68031" xlink:href="#b"/><radialGradient id="q" cx="74.56367" cy="426.49716" r="32.29881" xlink:href="#b"/><radialGradient id="r" cx="181.67951" cy="271.61416" r="20.82241" xlink:href="#b"/><radialGradient id="s" cx="514.34477" cy="227.13292" r="16.75832" xlink:href="#b"/></defs><path class="a" d="M543.1908,257.40265c2.98687-6.18011,35.45224-5.47862,35.71531-12.1592.26124-6.63411-8.77542-16.83627-10.75052-23.36074-1.92755-6.36741-13.65688-9.9894-17.29272-15.68681-3.6341-5.69467-17.27851-.88168-22.20322-5.349-5.0331-4.56562-2.91744-16.1144-8.70514-19.55236-5.77192-3.4286-16.08005,5.02173-22.36383,2.46566-6.21794-2.52929-4.84265-25.931-11.32966-27.84817-6.48481-1.91651-8.51423-2.10945-15.03722-3.655-.17431-5.80283,1.524-7.91759-.00686-13.45362-1.53447-5.54906-17.34187-6.06208-20.058-11.1617-2.70131-5.07187-8.55852-6.44548-12.24954-10.89366-3.6752-4.42911-8.91739-4.36055-13.39714-7.99457-4.47883-3.63326.38543-19.96585-4.72141-22.62808-5.11294-2.66541-12.68057.197-18.24629-1.31828-5.59811-1.52408-11.74091,9.8564-17.48824,9.49179-5.75795-.36528-12.58169-29.498-18.31949-28.77914-5.71548.71605-11.62543,10.28963-17.15247,12.00247-5.50623,1.70638-16.5153-4.48236-21.668-1.86473-5.14734,2.61494-11.85567,8.15848-16.48438,11.6051-4.63456,3.451,1.16745,20.68793-2.78092,24.89477-3.5046,3.734-9.589,5.37559-13.07613,9.29625-3.53189,3.971-8.61111,5.06952-12.63211,8.18789-4.14884,3.21752-4.60407,12.55022-9.82544,13.72368-4.92822,1.10758-11.95023,12.53122-16.99121,11.98133-4.97429-.54261-8.84864-7.26259-13.82729-7.501-5.72333-.27412-11.309-8.56313-16.83423-7.11757-5.5185,1.44379-5.05234,13.94788-9.96852,16.86683s-10.86649,1.04576-14.77586,5.19971c-3.91416,4.159-9.76154,5.77252-12.26068,10.92869-2.39357,4.93835-4.45353,9.321-4.69173,14.49116-.24121,5.23561-4.92977,10.95023-4.435,16.15134.51207,5.38273,13.40514,10.70474,13.08878,15.752-.3307,5.27588-7.71341,10.82219-10.78681,15.39232-3.35123,4.98336-17.88637-6.73952-22.53631-3.86646-4.73752,2.92719-3.05639,15.84333-8.01389,18.539-4.8441,2.634-1.75305,14.61728-5.73247,18.89643-3.41653,3.67387-20.87364-.03694-22.92516,6.11315-1.97787,5.93018,19.61172,15.71737,19.26733,21.87522-.34321,6.13692-30.39536,14.19847-29.40884,20.35449.97229,6.06722,32.40707,4.9406,34.38926,10.827,1.98058,5.88165-1.70255,17.18453,1.00715,22.68822-4.14845,4.47477-11.86272,10.33746-15.11171,15.4393-3.26128,5.12115-22.65157,2.8398-25.00447,8.43771-2.34787,5.58593,21.86451,20.087,20.42324,25.99311-1.43668,5.88729-.83215,10.04044-1.36594,16.09274-.53305,6.044-21.41257,11.2534-21.04315,17.30962.36992,6.06454-1.57762,13.684-.30067,19.608,1.281,5.943,2.56587,13.5428,4.76183,19.1902,2.20066,5.65949,7.525,11.56265,10.64661,16.77012,3.10982,5.1878.80867,17.20514,4.83458,21.79044s27.76937-10.70176,32.51126-6.94689c4.75984,3.76908,2.95935,16.0295,8.28656,18.94386,5.31581,2.90813,6.91818,16.88754,12.64543,18.92667,5.709,2.03264,18.93808-24.14914,24.90378-22.99773,5.95752,1.14984,9.601,3.09294,15.66318,3.34631,6.07051.25372,9.76209-1.93582,15.78578-2.59875,6.043-.66506,17.537,28.0443,23.37977,26.43884,5.85527-1.60891,12.27289-7.77221,17.77292-10.34355,5.47926-2.56162,6.83783-23.49878,11.81167-27.03343,4.61462,4.11757,7.999,18.04563,13.28546,21.094,5.31713,3.06608,13.16893.37553,18.97232,2.37763,5.78452,1.99559,11.65824.18115,17.7335,1.13724,6.04588.95147,11.101,3.03184,17.245,2.97117,6.13135-.06054,14.21093,15.24064,20.25179,14.18935,6.05342-1.05347,11.43035-9.76919,17.20382-11.80026,5.80155-2.04095,9.34743-9.63752,14.67471-12.64811,5.34462-3.02038,4.29245-13.25348,8.96609-17.23214,4.64665-3.95568,4.13723-9.3539,7.92948-14.23937,3.54648-4.56883,22.15977,1.79763,25.19148-3.28607,2.98057-4.998-9.75666-18.76046-6.97139-23.92417,2.79548-5.18266,17.96474-3.65537,20.86592-8.6729,2.97926-5.15256,14.29749-3.97243,17.712-8.59526,3.533-4.78326,1.72157-12.10751,6.078-15.9312,4.33788-3.80741,11.9205,2.58517,17.43441.12408,4.13944-1.84761,2.84919-15.56226,7.18689-16.90963,4.34465-1.34953,4.15052-12.0494,8.20821-14.08646,5.69309-2.858,27.02483,12.54093,30.87275,8.08181,3.91829-4.54068,10.79427-14.0511,13.07114-19.80362,2.16382-5.4669-11.9219-17.69815-10.99893-23.8611.87838-5.86522,18.915-12.16416,18.87761-18.3166-.03665-6.03517-11.55451-12.88881-12.27889-18.88136-.74093-6.12938-9.68274-11.13363-10.94045-16.88413-1.17492-5.37215,6.02477-11.79169,5.49651-17.27872-.53867-5.59534-16.92212-13.35048-15.14633-18.6696C541.24718,272.13743,540.38269,263.21265,543.1908,257.40265ZM470.35161,386.10309c-3.76767,4.09858-28.74342-17.4095-33.423-14.39389-4.62969,2.98348-5.16586,12.00986-9.8873,14.90313-4.74642,2.90857-4.61136,13.90378-8.64342,17.6986-4.26689,4.01578,3.93688,15.69611.98893,20.64-2.91907,4.89542-14.342,4.33333-16.54725,9.73811-2.16377,5.303,7.23967,14.92976,5.21319,20.34294-2.03413,5.43362-25.08285,2.26879-27.52843,7.43326-2.26026,4.773-5.004,7.31786-8.20124,11.52479-3.22913,4.24894-4.92419,5.35185-9.42361,8.21632-4.6818,2.98056-3.95127,17.73565-9.29418,18.46758-5.30177.7263-13.30733,4.38082-18.6917,3.22564-5.24628-1.12555-14.56714-.64729-19.36124-3.24848-4.79264-2.60041-.56949-19.64523-4.38692-23.41409-3.90785-3.85813-11.38566-4.50385-14.35885-9.053-2.96431-4.53556-16.85718-4.61475-19.08666-9.62187-2.20369-4.94918,23.42574-20.51563,21.75156-25.71664-1.6735-5.1989-16.66929-12.96547-18.00084-18.20855-4.38588,4.31686-20.35917,1.64342-25.38029,5.26443-5.04742,3.64-6.8478,6.13914-12.465,8.6416-5.65488,2.51924-4.9374,19.75777-11.09622,20.68133-6.06234.90909-11.93555-2.80883-18.00985-3.95464-6.12355-1.1551-9.48727-5.49318-14.68811-8.69068-5.26655-3.2379-14.80822-1.30143-18.16-6.586-3.69729-5.82934-17.61071-12.273-18.14477-18.83807-.5263-6.46977,6.49507-16.45758,8.357-23.02794,1.77788-6.27391,13.03357-9.79037,16.384-15.61282,3.34956-5.821-1.58407-19.001,2.74653-23.84047,3.89309-4.35047,12.434-5.46335,16.82863-9.304,4.39451-3.84059,11.75118-4.60877,16.57467-7.89626,4.82294-3.28712,10.60776-5.26178,15.78709-7.95259,5.17992-2.69112,12.40142-.22012,17.86529-2.27146,5.464-2.05139,11.184-.74889,16.85949-2.11712-7.11513,1.7153-14.61515-12.7482-16.5081-21.35826-1.86653-8.48991,16.00886-13.9058,16.96795-17.20372,1.79693-6.17871-8.26184-12.34355-4.34118-15.98192,4.10347-3.808,2.301-16.5588,7.33926-19.45517,4.86462-2.79652,19.69537,8.34806,24.12749,4.64808,4.95008-4.13234-8.06031-24.34123-4.20436-29.67223,3.77063-5.213,32.65947,6.31752,36.12888.81564,3.50985-5.566-18.14517-28.75893-14.18526-33.74781,4.09748-5.16219,15.6348-7.13654,21.045-10.72465,5.11142-3.38995,14.44619-3.55558,21.4628-4.69644,5.8918-.95793,8.91781,17.2176,14.67947,18.71826,5.751,1.49789,22.71478-20.431,27.48751-16.89,4.7816,3.54762,13.57127,11.46689,16.51915,16.65739,2.94779,5.1905-14.24878,18.76244-13.65126,24.6863.59641,5.91284-2.58487,8.692-4.24431,14.39845-1.66252,5.71708-3.06072,20.67218-6.90147,25.24162,5.9527-2.25069,20.24179-2.33719,26.712-2.44988,6.56857-.11441,6.55584,8.65678,12.41451,11.02429,6.00327,2.426,26.119-15.80382,30.04541-10.47374,3.76058,5.105-3.99218,17.68191-4.37724,24.02235-.38828,6.39326-12.04416,4.71821-15.80577,9.4909-3.94839,5.00967,14.65859,23.79424,7.94785,23.75672,5.76489,1.818,6.73386-12.82938,10.976-8.77663,4.23227,4.04332,12.65778,12.49689,15.14678,17.91241,2.46028,5.353-24.86922,19.29781-24.333,25.1647.54245,5.93534,4.00768,7.69969,2.35488,13.3147C456.07536,363.18166,474.44243,381.65295,470.35161,386.10309Z"/><path class="b" d="M161.17,73.69684c-4.93515,23.44173,11.55537,49.292,34.893,54.69782-7.05776-1.63483-21.27779,29.77984-23.09791,34.9121-5.80234,16.361-7.5103,28.69438-15.48879,4.47313C147.54414,137.62743,147.29555,102.65064,161.17,73.69684Z"/><path class="c" d="M243.9961,611.62947c23.84758,2.27232,47.68316-17.016,50.43486-40.813-.83216,7.19667,31.98029,17.80012,37.28444,19.03257,16.909,3.92893,29.35612,4.24152,6.18367,14.88872C309.05224,617.99221,274.32445,622.16582,243.9961,611.62947Z"/><path class="d" d="M560.62348,95.99983a267.11275,267.11275,0,0,0,43.86737-23.67066,217.02152,217.02152,0,0,0-27.20041,53.92325,104.4778,104.4778,0,0,0-9.515-29.91733"/><path class="e" d="M561.952,518.67038c-6.47924-.42621-10.531-6.9973-13.41937-12.81275-8.98372-18.08768-16.12376-37.86292-26.15993-55.20714-8.95865,12.23526-15.731,27.54187-4.07481,39.9967C522.82937,495.48918,556.589,518.31959,561.952,518.67038Z"/><path class="f" d="M689.34725,318.28033c-21.35012.39026-41.16589-7.6615-61.88673-8.50291-17.71572-.71937-19.04924,8.49313-19.35634,26.24748C634.59072,330.21907,661.74018,318.785,689.34725,318.28033Z"/><path class="g" d="M36.27658,359.20715Q18.179,357.358,0,356.474c19.60292.953,39.43479,1.41139,59.03331.2009,16.56243-1.023,35.00551-1.36145,14.06642,15.57507C62.55416,363.26522,49.80512,360.58943,36.27658,359.20715Z"/><path class="h" d="M63.887,246.65658l-7.338,15.02525q20.48411-.25862,40.95474.85906a69.46811,69.46811,0,0,0-32.46233-13.81482"/><path class="i" d="M294.38945,13.69475l10.24,35.69935A223.54416,223.54416,0,0,1,321.29855,0L299.53581,4.86507"/><path class="j" d="M672.55093,204.86315l-37.863,14.69126a321.6869,321.6869,0,0,0,44.18456-1.00305l-9.65381-16.54026"/><path class="k" d="M470.72049,556.93277c3.96006,11.15406,30.00593,50.72881,24.27046,56.57539-9.94956,10.14231-10.96171-3.1068-12.406-10.10553C479.328,587.61979,476.13185,572.17463,470.72049,556.93277Z"/><path class="l" d="M44.74778,566.04551A64.24167,64.24167,0,0,1,59.3002,580.01193a130.12994,130.12994,0,0,1,17.36448-49.75814,183.14086,183.14086,0,0,0-31.93362,37.11934"/><path class="m" d="M617.2672,233.79223a40.0195,40.0195,0,0,0,4.59863-24.1305c-1.82128-14.35686-11.66356-26.95865-24.18549-34.21387-21.22292-12.29658-33.496-9.31209-14.28126,8.77516C599.13559,199.03611,612.80545,211.25374,617.2672,233.79223Z"/><path class="n" d="M131.759,540.502c14.641,22.00622,46.01325,30.97741,70.07512,20.0386-6.93456,14.65774-26.74129,19.38638-42.11973,14.24429s-27.09295-17.55262-37.38329-30.08444c-1.15789-1.4101-2.378-3.08053-2.06235-4.87761s3.20943-2.79507,3.93592-1.12135"/><path class="o" d="M445.514,73.54846c5.62679-13.22643-2.57522-29.20394-14.91565-36.574-13.57178-8.10545-35.04438-10.37553-49.76593-5.271,6.02609,9.96335,17.71662,9.75752,27.86461,14.2061C423.15822,52.24894,434.94126,61.91276,445.514,73.54846Z"/><path class="p" d="M597.76622,375.90061a50.91209,50.91209,0,0,1-18.49642,43.21892c10.499-4.19978,21.22444-10.16336,26.149-20.34257s.74943-25.17423-10.28336-27.6531"/><path class="q" d="M79.32337,389.871a121.498,121.498,0,0,0,6.74374,80.83132c-22.15172-21.8407-29.25409-57.55087-17.14536-86.2056,1.8908-4.47453,10.41725-1.49086,9.10559,3.18633s-10.1462,2.7922-9.43464-2.013"/><path class="r" d="M191.03853,250.62035a47.84524,47.84524,0,0,0-26.62937,20.3587c-2.15327,3.46285-3.90092,7.49447-3.236,11.51764.98095,5.93585,7.1995,9.9706,13.21432,10.10674s11.69455-2.80619,16.50918-6.41395c5.72137-4.2872,10.929-10.2335,11.40725-17.36691s-5.92067-14.78411-12.90326-13.24862"/><path class="s" d="M531.85609,229.7883c-2.35969-6.07425-8.59458-9.95737-14.97809-11.2671s-12.98853-.4673-19.4498.37919c-1.509.19769-3.16875.47568-4.1328,1.6533-1.14435,1.39784-.822,3.48609-.11183,5.14713,4.58714,10.72827,19.29577,11.411,30.91728,10.37265,2.91737-.26066,5.95-.55773,8.45538-2.07493s4.29709-4.643,3.3206-7.40447-5.42944-3.76008-6.89679-1.22515"/></svg>