<svg xmlns="http://www.w3.org/2000/svg" xmlns:xlink="http://www.w3.org/1999/xlink" viewBox="0 0 689.34725 617.57916"><defs><style>.a{fill:url(#a);}.b{fill:url(#b);}.c{fill:url(#c);}.d{fill:url(#d);}.e{fill:url(#e);}.f{fill:url(#f);}.g{fill:url(#g);}.h{fill:url(#h);}</style><radialGradient id="a" cx="135.75639" cy="219.85989" r="1.23535" gradientUnits="userSpaceOnUse"><stop offset="0" stop-color="#fcea10"/><stop offset="1" stop-color="#ffde00"/></radialGradient><radialGradient id="b" cx="328.49705" cy="344.32352" r="258.39749" xlink:href="#a"/><radialGradient id="c" cx="601.94652" cy="284.7215" r="5.98204" xlink:href="#a"/><radialGradient id="d" cx="324.34724" cy="326.78016" r="235.17797" gradientUnits="userSpaceOnUse"><stop offset="0" stop-color="#f9b233"/><stop offset="1" stop-color="#f39200"/></radialGradient><radialGradient id="e" cx="323.53278" cy="341.22119" r="108.47197" xlink:href="#a"/><radialGradient id="f" cx="245.58745" cy="291.32193" r="4.83038" xlink:href="#a"/><radialGradient id="g" cx="414.70794" cy="401.97745" r="4.57461" xlink:href="#a"/><radialGradient id="h" cx="434.84883" cy="365.80155" r="6.44307" xlink:href="#a"/></defs><path class="a" d="M136.06566,221.57935a24.06748,24.06748,0,0,0-.61853-3.43891A20.28542,20.28542,0,0,0,136.06566,221.57935Z"/><path class="b" d="M577.70116,295.05414c-.76685.20654-21.67066,5.77545-17.0835-1.78192a73.23408,73.23408,0,0,1,15.98755-18.47c-43.5,34.28186-99.82227,25.64227-138.49829-10.94654-44.85279-42.43237-56.22473-116.07562-26.2605-170.06109-5.6062,10.10052-32.56726,64.39343-48.4917,54.02356-4.36645-2.84351-5.18518-8.88306-4.84351-14.08515.342-5.20752,1.35718-10.7171-.86279-15.44012-3.4967,25.81134-16.42737,55.65088-37.08374,72.05286-22.80481,18.10766-55.26269,29.00146-81.83081,40.16925A173.94184,173.94184,0,0,1,190.893,243.22815c-13.39014,1.48059-29.73193,1.183-41.70471-5.60223-6.17053-3.49695-11.32166-9.27607-13.12268-16.04657.78,6.905-.33875,17.31006-6.46875,19.43786-5.74854,1.99536-14.69361-3.531-20.04175-5.2398-7.10242-2.269-26.14941-6.56727-30.49255-12.9134,10.2467,14.97229,21.67834,29.63825,30.87683,45.27356.68774,1.16889,1.344,2.574.83252,3.83008a4.30713,4.30713,0,0,1-2.65357,2.06616,24.75778,24.75778,0,0,1-7.02636,1.57862c14.58569,2.316,21,10.12555,28.86425,21.61664q12.25142,17.90177,24.50293,35.80346c3.24671,4.744,6.63745,9.99951,6.15662,15.728-.56555,6.73865-6.24378,11.77185-11.63391,15.85535-19.67847,14.90795-36.1687,17.13195-60.76807,12.48626A23.23286,23.23286,0,0,0,107.213,392.39887c-15.2721,4.14086-28.96448,14.70031-44.74939,17.55932a505.51013,505.51013,0,0,1,205.561,5.41992c20.8999,4.93549-34.1914,17.59388-16.93274,30.373,51.44324,38.09082,69.88245,85.31946,64.47888,149.10132,4.147-26.49994,11.62977-55.89136,28.55713-77.321-2.825,3.834.87183,13.28479,2.09449,17.10364,2.32934,7.27545,6.11889,14.00067,9.85913,20.62287,1.32238,2.3413,3.01867,4.94561,5.68689,5.27917a95.40254,95.40254,0,0,1-9.67347-36.83234c-1.72-30.71472,14.19544-57.52008,35.57374-80.98986a16.79421,16.79421,0,0,1-1.68824-9.07892c1.10523-12.45734,10.478-22.53,14.4021-34.40473,4.17871-12.645,3.38941-29.11877,14.92505-35.77368-2.59106-4.41748-9.05786-4.70685-13.79809-2.75323-9.06617,3.73938-18.139,12.61322-28.58326,6.45727-6.83715-4.02984-8.608-7.38293-4.55981-13.41705,5.23547-7.80377,43.62964-13.44446,52.4585-16.83112,15.38427-5.90124,32.36157-10.852,48.116-6.02466a34.3131,34.3131,0,0,1-14.40259,22.04236c-9.70507,6.54157-23.89428,9.37116-27.23877,20.5871-.907,3.0415-.801,6.30518-1.61645,9.37244-1.60449,6.036-6.49414,10.53509-9.91284,15.7619-4.616,7.05755-6.50952,15.40332-7.71948,23.82818,14.79467-13.51184,30.30444-25.77673,43.51855-36.93371,44.02734-37.17316,92.63574-68.74988,142.96118-96.75464A103.05583,103.05583,0,0,1,577.70116,295.05414Zm-297.062-.24378c-1.48767-.11737-3.1101-.19958-4.33361.65436-3.48157,2.42975.23449,7.68445.40393,11.92664.149,3.73724-2.91773,6.97143-6.39453,8.3501s-7.32349,1.34368-11.06031,1.50341a98.53926,98.53926,0,0,0-44.8728,13.06354c-2.56616,1.48248-5.21,3.12769-8.17029,3.26532s-6.26379-1.91888-6.27478-4.88251a7.4367,7.4367,0,0,1,2.00293-4.43029c9.79614-12.34882,25.97046-17.22956,39.61743-25.11762,2.19873-1.27087,4.4668-2.76684,5.48609-5.093,1.60717-3.66827-.63843-8.10534-3.98694-10.3023-3.34851-2.197-7.49256-2.70581-11.4718-3.15729q-11.67518-1.3245-23.35-2.64893c-4.78332-.54266-11.19238-3.462-9.56091-7.99109a7.55989,7.55989,0,0,1,3.17029-3.38317c13.88806-9.3924,31.53552-12.2616,48.15637-10.06128,20.70727,2.74151,52.80481,15.27038,69.25854,28.26971C342.12974,302.84522,291.72093,295.68445,280.63914,294.81036Z"/><path class="c" d="M594.5305,288.79242a137.21757,137.21757,0,0,0,14.832-8.14185Q601.9215,284.66553,594.5305,288.79242Z"/><path class="d" d="M551.56029,431.1001c.83056-7.535,14.85351-17.35254,14.19067-24.90717-.66382-7.56146-9.37622-16.87182-11.56128-24.12939-2.19214-7.28089-5.32617-15.57807-8.196-23.06976-2.84253-7.42048-6.29566-13.68622-8.45728-21.06159-2.31177-7.88751-20.14892-12.5921-20.09741-20.13129.05322-7.81433,8.42065-14.72485,12.80469-21.82952,4.98022-8.07074-.40625-22.78559,4.85058-30.679,4.47241-6.71539,2.73657-6.70544,3.08057-14.33874.33813-7.50556,25.866-18.52265,23.083-25.97406-2.6482-7.08973-29.68164-.53486-34.39331-6.75086-4.71289-6.21771,10.75879-32.68817,4.72485-37.22687-5.59522-4.2088-11.50171-14.17138-17.77026-17.24481a160.37349,160.37349,0,0,0-22.906-8.56732c-6.71606-1.9126-19.71313,22.52942-26.66406,21.796-6.95093-.73352-13.02783-4.5694-19.99536-4.10065-6.97657.46936-17.53247-15.233-24.30664-13.53515-6.772,1.69738-12.87964,11.37432-19.23023,14.32257a163.941,163.941,0,0,1-20.2334,8.16851c-7.63415,2.39179-16.85669,17.15924-23.75708,13.33393-5.12011-2.83832-21.05-2.35657-24.59887-7.01245-4.27637-5.61054,5.241-21.51752.53466-26.82465-4.70825-5.30939-1.88354-18.42413-7.08679-23.19659-5.23791-4.80426-10.51379-11.567-16.31885-15.58991-5.81359-4.02893-12.39636-10.66272-18.845-13.66907-6.36975-2.96948-14.89245-9.203-21.80322-10.80108-6.9154-1.59912-17.618,29.37549-24.651,29.34-7.12451-.036-14.43945-16.99994-21.24609-15.23468-6.828,1.77076-6.99122,15.47284-13.05469,19.25568-7.36719,4.59625-8.43164,8.69922-12.84717,14.06366-5.20044,6.31793-16.90832,5.07324-19.19092,12.19324-2.332,7.27435-12.59106,13.57837-13.21972,21.3894-.60877,7.56531,22.93945,16.42462,22.6759,24.21289-.26013,7.68506-14.5459,15.28766-15.662,22.92291-1.10412,7.55335,11.43848,22.01593,8.34375,29.26246-3.4104,7.98242-25,4.94366-29.78345,8.94647-4.67187,3.90936-3.13439,14.04724-8.97155,20.05707-5.40076,5.56048-30.35-1.74006-33.94983,5.17291-3.58228,6.879,9.92285,21.89251,8.3114,29.49505-1.61475,7.61884-3.31348,14.80127-2.76062,22.52918.55444,7.748-1.79053,16.54785,1.13257,23.78332,4.1654,10.31043,16.51538,18.68158,17.5321,29.755.69568,7.57764,3.96424,18.59491,1.009,25.48846-2.83289,6.6084-17.45545,8.12134-21.14466,14.64978-3.68054,6.513-25.97314,8.05536-28.07471,15.02277-2.42187,8.02966,28.3191,21.2345,29.56348,29.43536,1.23047,8.10858-9.2019,19.38324-5.113,26.66816,4.05933,7.23236,11.32593,13.41381,17.49378,18.86682,6.25818,5.53271,14.03259,9.61291,21.51916,13.20831,7.43921,3.57263,14.36988,11.44714,22.49439,13.3609,8.08374,1.90418,17.7915-2.47473,26.03442-1.96283,7.62158.47333,15.87976,4.82288,23.55982,4.11017,7.68628-.71332,11.35791-19.58881,18.72216-21.64618,7.45887-2.08386,28.28418,26.41656,35.01954,22.79266,6.75512-3.63458-9.84-40.35864-4.21119-45.70575,4.7229-4.48669,18.79883,1.31568,23.09107-3.759,4.32312-5.11121,6.761-12.99036,11.54089-17.35467,4.91345-4.48621,20.74109,12.87963,27.09827,10.62725,8.29248-2.93805,7.67944-4.95959,15.71045-3.13183,7.70117,1.75268,15.46069-3.0871,23.06054,1.04168,7.116,3.86609,12.9585,9.92658,20.10108,14.20856,7.24463,4.34314,20.75146-3.29565,28.13916-.19525,7.03,2.95032,9.66089,31.07813,17.15576,32.0423,7.49707.96448,20.13428-1.37525,27.67993-2.25836,7.50415-.87824,11.78931-24.29956,18.93067-26.86731,7.12768-2.56287,19.92163,4.37823,26.27978.26916,6.36548-4.11371,4.26734-19.53021,9.45337-25.05658,5.21387-5.55615,4.41821-13.68835,8.19653-20.24872,3.77979-6.56286,34.62842-2.54522,36.94605-9.784C563.83006,451.83991,550.728,438.6521,551.56029,431.1001ZM280.63914,294.81036c-1.48767-.11737-3.1101-.19958-4.33361.65436-3.48157,2.42975.23449,7.68445.40393,11.92664.149,3.73724-2.91773,6.97143-6.39453,8.3501s-7.32349,1.34368-11.06031,1.50341a98.53926,98.53926,0,0,0-44.8728,13.06354c-2.56616,1.48248-5.21,3.12769-8.17029,3.26532s-6.26379-1.91888-6.27478-4.88251a7.4367,7.4367,0,0,1,2.00293-4.43029c9.79614-12.34882,25.97046-17.22956,39.61743-25.11762,2.19873-1.27087,4.4668-2.76684,5.48609-5.093,1.60717-3.66827-.63843-8.10534-3.98694-10.3023-3.34851-2.197-7.49256-2.70581-11.4718-3.15729q-11.67518-1.3245-23.35-2.64893c-4.78332-.54266-11.19238-3.462-9.56091-7.99109a7.55989,7.55989,0,0,1,3.17029-3.38317c13.88806-9.3924,31.53552-12.2616,48.15637-10.06128,20.70727,2.74151,52.80481,15.27038,69.25854,28.26971C342.12974,302.84522,291.72093,295.68445,280.63914,294.81036Zm173.89917,58.12079c-9.70507,6.54157-23.89428,9.37116-27.23877,20.5871-.907,3.0415-.801,6.30518-1.61645,9.37244-1.60449,6.036-6.49414,10.53509-9.91284,15.7619-5.90161,9.02313-7.3584,20.1513-8.61768,30.85931-.50122,4.264-1.04248,8.67365-3.24219,12.36072-2.1997,3.687-6.54492,6.46173-10.7185,5.45422-5.47217-1.3211-7.709-8.08355-7.21143-13.69085,1.10523-12.45734,10.478-22.53,14.4021-34.40473,4.17871-12.645,3.38941-29.11877,14.92505-35.77368-2.59106-4.41748-9.05786-4.70685-13.79809-2.75323-9.06617,3.73938-18.139,12.61322-28.58326,6.45727-6.83715-4.02984-8.608-7.38293-4.55981-13.41705,5.23547-7.80377,43.62964-13.44446,52.4585-16.83112,15.38427-5.90124,32.36157-10.852,48.116-6.02466A34.3131,34.3131,0,0,1,454.53831,352.93115Z"/><path class="e" d="M389.94432,410.25391c1.47705-1.27185,3.81348-1.82044,6.51563-2.06226a61.26233,61.26233,0,0,0,3.9226-8.96039c4.17871-12.645,3.38941-29.11877,14.92505-35.77368-2.59106-4.41748-9.05786-4.70685-13.79809-2.75323-9.06617,3.73938-18.139,12.61322-28.58326,6.45727-6.83715-4.02984-8.608-7.38293-4.55981-13.41705,5.23547-7.80377,43.62964-13.44446,52.4585-16.83112a149.20444,149.20444,0,0,1,17.65014-5.7268c2.5918-5.21033,5.40894-10.01471,5.969-15.6745.78173-7.89588-2.00562-13.7519-5.04419-21.16877-2.4773-6.04736,2.43383-21.10919-3.0481-24.65405-5.58594-3.61218-16.56738,7.62439-23.13525,8.72339-6.63892,1.1109-18.01856-8.10046-23.96534-4.65594-6.0769,3.51977-7.88806,25.60467-14.76318,25.39538-8.29272-.25244-11.81494-18.807-17.989-24.64856-5.83667-5.5224-19.39087.08728-26.16992-3.85773-7.30274-4.24981-10.86841-24.45587-18.96949-23.63732-7.69958.77789-19.50659,2.673-27.05078,6.24206-2.83642,1.34192-3.86914,5.84131-4.4397,11.11286,14.87574,5.41314,29.79334,12.83087,39.38965,20.41247,22.871,18.06928-27.53784,10.90851-38.61963,10.03442-1.48767-.11737-3.1101-.19958-4.33361.65436-3.48157,2.42975.23449,7.68445.40393,11.92664.149,3.73724-2.91773,6.97143-6.39453,8.3501s-7.32349,1.34368-11.06031,1.50341c-2.39233.10224-4.77929.30463-7.15722.58362.0061.03955.01684.07868.02221.11829.816,6.14575-14.61157,12.91717-9.57727,16.535-5.6383,4.23206,3.64661,17.93683-1.41565,22.84314-5.062,4.90625-24.01-3.17712-28.42138,2.32147-4.41162,5.49866-5.36939,14.28119-9.05591,20.29041-3.65479,5.95764,2.42114,13.59527,3.14892,20.54663.92078,8.794,2.28833,14.83295,10.74817,17.40478,8.45984,2.5719,18.62915,10.02979,27.25537,8.08783,7.25892-1.63415,17.37146.58393,24.27723-2.18457,6.90551-2.76843,5.87048-22.723,12.25488-26.54242,6.38476-3.81958,14.3811,4.8584,20.07678.07087,1.8717,6.04193,3.96008,5.61023,7.71558,10.69085,3.75232,5.07642,3.80774,17.36548,8.96057,21.01209,5.15722,3.6496,16.20764,1.69488,22.287,3.4414,6.07922,1.74646,14.07043,3.29841,20.37829,2.94251a70.74985,70.74985,0,0,0,19.9939-4.76807C386.62547,428.326,385.15111,414.38117,389.94432,410.25391Z"/><path class="f" d="M247.0432,294.05029c1.3844-3.16-.093-6.88684-2.6687-9.2644-.63916,4.026-.26331,9.09967-.77332,13.07208A9.41909,9.41909,0,0,0,247.0432,294.05029Z"/><path class="g" d="M415.77025,398.65259a41.22406,41.22406,0,0,0-4.32715,8.91009c2.50073-.41345,4.52637-1.22949,5.58447-2.86419,1.31958-2.03839,1.08985-5.01258.32984-8.30628C416.80736,397.13513,416.272,397.8855,415.77025,398.65259Z"/><path class="h" d="M427.94945,371.75342c5.61035-1.42017,11.20117-3.01758,13.09765-6.63477a8.43356,8.43356,0,0,0,.52466-5.269C435.71971,362.83313,430.375,366.1665,427.94945,371.75342Z"/></svg>