<svg xmlns="http://www.w3.org/2000/svg" xmlns:xlink="http://www.w3.org/1999/xlink" viewBox="0 0 689.34725 617.57916"><defs><style>.a{fill:url(#a);}.b{fill:url(#b);}.c{fill:url(#c);}</style><radialGradient id="a" cx="708.58153" cy="957.23938" r="159.06077" gradientTransform="translate(-192.83971 -719.68544) rotate(10.38824)" gradientUnits="userSpaceOnUse"><stop offset="0" stop-color="#fcea10"/><stop offset="1" stop-color="#ffde00"/></radialGradient><radialGradient id="b" cx="325.34022" cy="336.63925" r="164.19103" gradientUnits="userSpaceOnUse"><stop offset="0" stop-color="#f9b233"/><stop offset="1" stop-color="#f39200"/></radialGradient><radialGradient id="c" cx="327.41227" cy="340.90337" r="75.83208" gradientTransform="matrix(1, 0, 0, 1, 0, 0)" xlink:href="#a"/></defs><path class="a" d="M457.03741,232.11075c-34.16347,19.50091-52.30935,63.37088-41.90344,101.307s48.39533,66.40815,87.72722,65.74916c-90.38872-4.57815-205.51781,4.85167-263.86684,74.036,24.02368-32.95424,59.664-52.04913,44.23368-89.79862-5.17671-12.66459-1.06038-14.07457-10.81278-23.67044a322.06409,322.06409,0,0,0-110.172-70.892,189.17625,189.17625,0,0,0,62.1102,3.89844c4.28553-.44266,9.04179-1.30739,11.577-4.79082,2.15519-2.96124,2.04533-6.94441,1.84489-10.6014l-4.65465-84.925a119.89845,119.89845,0,0,0,84.43963,56.94014C371.06481,257.31214,409.65257,259.15857,457.03741,232.11075Z"/><path class="b" d="M334.48088,186.88524c4.5528-.05641,9.1921-8.6777,13.4964-7.38546,4.29079,1.28817,1.8075,14.40815,5.67613,16.78247,3.81886,2.34379,21.75784-13.40848,24.99594-10.25188,3.23593,3.15449,5.76951,9.77294,8.25746,13.49559,2.51879,3.7688,3.79849,9.83023,5.63343,13.94611,1.83217,4.10969,2.33865,9.71232,3.60367,14.0601,1.25671,4.3192-5.64676,10.79849-4.83708,15.24658.80934,4.44619-11.288,10.11973-10.8131,14.58907.39408,3.70886,10.50167,8.88419,12.35234,12.1224,2.49416,4.36417,13.23114-1.70349,18.17976-.48307a103.13848,103.13848,0,0,0,13.6219,2.27807c4.43341.49309,11.28134-3.38474,15.53088-2.071,4.25084,1.31411,4.2755,14.90435,8.23062,16.95455,3.94989,2.04748,5.73242,6.40055,9.276,9.0974s20.47555-8.12072,23.5015-4.8592a106.62273,106.62273,0,0,1,9.86531,12.49118c2.39855,3.74586,2.00357,11.63565,3.66015,15.77738,1.78643,4.46635-18.13975,14.43393-17.62779,19.37819.51183,4.943,19.957,10.36085,19.056,15.09775-.94691,4.97835-20.85643,1.47611-23.52127,5.45235-2.71019,4.04391-1.07408,4.1998-5.72944,6.3793-5.47208,2.56187-6.75671,13.72557-12.13674,16.47549-4.736,2.42074-12.085,3.04044-14.69679,7.279-2.51978,4.08931,7.1233,13.10222,5.77561,18.16232-1.26022,4.73167-1.34086,9.21877-2.24518,14.2-.913,5.029-1.96913,10.666-3.18152,15.35628-1.20849,4.67518.96483,13.1355-1.17282,17.47335-2.13573,4.33395-14.26386,4.5355-17.20664,8.36512-2.94941,3.83824.74242,16.54571-2.89663,19.70887-3.65475,3.1768-20.85243-11.48107-25.08027-9.15568-4.22618,2.32448-6.147,7.44161-10.82319,8.74466-4.65114,1.29607-8.47572,11.64326-13.30248,11.78-4.82126.13661-9.47061-9.00845-14.19985-9.96828-4.73829-.96167-15.62978,12.30212-20.00735,10.3003-4.40174-2.01287-12.58339-4.97208-16.34806-7.97524-3.76352-3.00225,5.784-21.096,2.93-25.02647-2.999-4.1302-13.97118-3.78-16.48152-8.53974-2.47522-4.69309-3.47334-9.99206-6.07151-14.4498-2.7748-4.76077-9.02212-4.02156-12.63749-7.52161-3.7702-3.64995-3.49179-1.74861-8.9796-2.8891-4.20867-.87465-6.89865-17.80239-11.05918-16.98209-4.04513.79754-7.96047,4.60549-12.00365,5.96034-4.01433,1.34517-10.02095-7.84286-14.07554-6.96026-4.83309,1.05207-7.66241,30.30615-12.543,30.05316-4.8663-.25225-6.35119-25.88854-11.10261-27.21877-4.691-1.31333-13.47514,9.37993-17.89738,7.22809-4.41867-2.15011-7.30158-7.63553-11.29644-10.41236-4.32049-3.00318-11.44427-3.44584-15.218-7.15478-3.79267-3.7276-4.62755-10.68242-7.49867-15.08708-2.8894-4.43269-5.8589-9.22842-7.4389-14.31033-1.55723-5.00866-3.65329-10.84228-3.47392-16.12323.18068-5.3193,10.83726-7.6269,12.847-12.45,2.03266-4.878-12.64861-24.16706-8.67559-27.74012,3.44735-3.10031,17.382,4.77142,21.53916,2.44048,4.16718-2.33654,13.26524,2.60614,16.99238-.057,3.888-2.77808,5.52854-10.43232,7.65411-14.7897,3.10608-6.36739-1.40756-15.19306-.26864-22.18556.79926-4.9071,5.37129-8.81926,7.63014-13.22262,2.253-4.39191,5.61161-7.63441,9.00922-11.25045,3.39037-3.60834.05618-17.67062,4.28094-20.23347,4.24557-2.57546,16.40855,11.77438,21.18794,10.53072,5.16565-1.34416,7.45025-8.25359,11.28695-8.83882,3.9284-.59923,15.7378,9.665,20.23368,6.44445,4.0806-2.92416,1.20413-16.22876,4.302-19.9779,3.13155-3.79,14.553-2.51145,17.23476-6.61147,2.71763-4.15493-9.05711-18.0264-6.22514-21.94574,2.924-4.04668,11.27433-3.53078,14.94874-6.72212,3.59644-3.12362,9.84011,2.48973,14.76072.76738C327.43684,188.99094,328.94909,186.95376,334.48088,186.88524Z"/><path class="c" d="M405.53405,350.41476c.64932-4.11261,8.96746-10.86916,7.15325-14.61177-1.84866-3.81368-12.07625-.87268-16.01682-2.44482-3.98308-1.58911-7.032-11.07271-11.4095-11.16209-4.47333-.09133-13.07035,12.27077-16.746,9.88444-4.433-2.87809.26516-14.66254-1.16692-19.88434-1.35407-4.93735-11.24946-6.053-13.63813-10.44267-2.57295-4.72829,2.85389-17.62129-1.829-19.853-4.4509-2.12113-11.66183-5.12685-16.95072-5.67632-5.147-.53473-10.72394,15.61879-15.692,15.95-3.84779.25649-9.86926-14.87242-13.64676-14.07151-3.8305.81214-6.14169,9.11355-9.42242,11.24153-3.20238,2.07716,1.87729,8.8141.34385,12.30977-1.58675,3.61717-13.04664,1.77471-11.5003,5.40914-4.46974.44157-3.54622,11.75631-7.925,12.75553-4.37874.99921-12.293-10.61713-16.51314-9.08025-4.22024,1.53691-7.58889,6.21638-11.58288,8.271-3.95972,2.037-2.78922,8.49606-4.69028,12.5228-2.405,5.09419-3.90085,8.62875-.143,12.82562s6.6514,12.01868,11.9917,13.812c4.49381,1.50906,9.28151,6.33088,13.95793,7.10536,4.67619.77445,10.81067-11.3617,15.55047-11.33192,4.74.02978,5.96785,8.01386,10.65248,7.28874-.97743,3.90949.427,4.07719.79325,8.08568.366,4.00513-4.06716,10.93693-2.46578,14.62618,1.60273,3.69236,8.62379,6.21282,11.35779,9.17335s6.621,6.52874,10.17436,8.4197a45.66661,45.66661,0,0,0,12.55313,4.02053c3.96674.68353,7.75137-8.04659,11.72615-8.71039,4.59326-.76708,12.66689,8.781,16.86257,6.74946,4.15747-2.013,3.1913-13.8115,7.1374-16.20616,3.8726-2.35007,14.5485,5.40491,19.11691,2.65112,4.21054-2.53808,2.2744-14.81938,6.224-17.8777,4.057-3.14151,8.72621-4.70974,11.63389-8.58206C404.45985,359.53935,404.73767,355.45878,405.53405,350.41476Z"/></svg>