<svg xmlns="http://www.w3.org/2000/svg" xmlns:xlink="http://www.w3.org/1999/xlink" viewBox="0 0 523.92572 512.20828"><defs><style>.a,.i{opacity:0.72;}.a{fill:url(#a);}.b,.ba,.k,.l,.m{opacity:0.8;}.b{fill:url(#b);}.c{isolation:isolate;}.d{fill:#683c11;fill-opacity:0.51;}.e,.g{mix-blend-mode:multiply;}.e{fill:url(#c);}.f{clip-path:url(#e);}.g{fill:url(#f);}.h{opacity:0.42;fill:url(#g);}.i{fill:url(#h);}.j{clip-path:url(#j);}.k{fill:url(#k);}.l{fill:url(#l);}.bm,.m{stroke-miterlimit:10;}.m,.t{stroke-width:1.24537px;}.m{fill:url(#m);stroke:url(#n);}.bc,.bd,.bk,.bn,.bz,.cb,.n{opacity:0.5;}.o{fill:url(#o);}.aa,.ab,.ae,.ah,.ai,.al,.ao,.ap,.as,.av,.aw,.p,.s,.t,.x{mix-blend-mode:soft-light;}.p{fill:url(#p);}.q{fill:url(#q);}.r{fill:url(#r);}.s{fill:url(#s);}.ab,.ai,.ap,.aw,.bi,.bm,.t{fill:none;}.ab,.ai,.ap,.aw,.t{stroke-linecap:round;stroke-linejoin:round;}.t{stroke:url(#t);}.u{fill:url(#u);}.v{opacity:0.3;}.w{fill:url(#v);}.x{fill:url(#w);}.y{fill:url(#x);}.z{fill:url(#y);}.aa{fill:url(#z);}.ab{stroke-width:0.70381px;stroke:url(#aa);}.ac{fill:url(#ab);}.ad{fill:url(#ac);}.ae{fill:url(#ad);}.af{fill:url(#ae);}.ag{fill:url(#af);}.ah{fill:url(#ag);}.ai{stroke-width:0.37443px;stroke:url(#ah);}.aj{fill:url(#ai);}.ak{fill:url(#aj);}.al{fill:url(#ak);}.am{fill:url(#al);}.an{fill:url(#am);}.ao{fill:url(#an);}.ap{stroke-width:0.82187px;stroke:url(#ao);}.aq{fill:url(#ap);}.ar{fill:url(#aq);}.as{fill:url(#ar);}.at{fill:url(#as);}.au{fill:url(#at);}.av{fill:url(#au);}.aw{stroke-width:0.43723px;stroke:url(#av);}.ax{fill:url(#aw);}.ay{opacity:0.54;}.az{fill:url(#ax);}.ba{mix-blend-mode:hard-light;}.bb{fill:url(#ay);}.bc{fill:url(#az);}.bd{fill:url(#ba);}.be,.bu{opacity:0.25;}.be,.bf,.bg,.bh,.bj,.bk,.bl,.bm,.bn,.bo,.bp,.bq,.br,.bs,.bu,.bv,.bw,.bx,.by,.bz,.ca,.cb,.cc,.cd,.ce,.cf,.cg{mix-blend-mode:screen;}.be{fill:url(#bb);}.bf{fill:url(#bc);}.bg{fill:url(#bd);}.bh,.bx{opacity:0.2;}.bh{fill:url(#be);}.bj,.by{opacity:0.15;}.bj{fill:url(#bf);}.bk{fill:url(#bg);}.bl{fill:url(#bh);}.bm{stroke:#fff;stroke-width:2.49074px;opacity:0.03;}.bn{fill:url(#bi);}.bo{fill:url(#bj);}.bp{fill:url(#bk);}.bq{fill:url(#bl);}.br{fill:url(#bm);}.bs{fill:url(#bn);}.bt{fill:url(#bo);}.bu{fill:url(#bp);}.bv{fill:url(#bq);}.bw{fill:url(#br);}.bx{fill:url(#bs);}.by{fill:url(#bt);}.bz{fill:url(#bu);}.ca{fill:url(#bv);}.cb{fill:url(#bw);}.cc{fill:url(#bx);}.cd{fill:url(#by);}.ce{fill:url(#bz);}.cf{fill:url(#ca);}.cg{fill:url(#cb);}</style><linearGradient id="a" x1="212.32873" y1="266.27518" x2="343.08996" y2="266.27518" gradientUnits="userSpaceOnUse"><stop offset="0" stop-color="#f5fbff"/><stop offset="0.62567" stop-color="#e9f1f5"/><stop offset="1" stop-color="#c5d9e0"/></linearGradient><linearGradient id="b" x1="350.50991" y1="436.93255" x2="195.81223" y2="231.9026" gradientUnits="userSpaceOnUse"><stop offset="0" stop-color="#bb9f07"/><stop offset="1" stop-color="#f0d039"/></linearGradient><linearGradient id="c" x1="314.63593" y1="122.44879" x2="282.52372" y2="384.00043" gradientUnits="userSpaceOnUse"><stop offset="0" stop-color="#bfc4c7"/><stop offset="1" stop-color="#b1c3c9"/></linearGradient><clipPath id="e"><path class="a" d="M408.26618,405.73077,343.09033,176.24086V105.35913c0,7.24792-28.38906,13.12353-63.409,13.12353s-63.409-5.87561-63.409-13.12353v70.88173L151.09609,405.73077a16.974,16.974,0,0,0,16.37043,21.46046H391.89575A16.974,16.974,0,0,0,408.26618,405.73077Z"/></clipPath><linearGradient id="f" x1="221.87891" y1="261.50132" x2="298.12045" y2="458.40339" gradientUnits="userSpaceOnUse"><stop offset="0" stop-color="#f5f5f5"/><stop offset="1" stop-color="#c3d1d6"/></linearGradient><linearGradient id="g" x1="494.25042" y1="310.80477" x2="264.75065" y2="310.80477" xlink:href="#b"/><linearGradient id="h" x1="279.68125" y1="79.11111" x2="279.68125" y2="118.21205" xlink:href="#a"/><clipPath id="j"><path class="b" d="M393.409,399.61709l-55.61756-195.836h-.60171c0,6.98614-25.74021,12.64944-57.49231,12.64944s-57.49231-5.6633-57.49231-12.64944h-.63424L165.95359,399.61717A13.67653,13.67653,0,0,0,179.11,417.03025H380.25262A13.67684,13.67684,0,0,0,393.409,399.61709Z"/></clipPath><linearGradient id="k" x1="526.80146" y1="330.24775" x2="227.83135" y2="330.24775" xlink:href="#b"/><linearGradient id="l" x1="97.78137" y1="381.75317" x2="442.88043" y2="381.75317" xlink:href="#b"/><linearGradient id="m" x1="381.80301" y1="203.78109" x2="245.55636" y2="203.78109" xlink:href="#b"/><linearGradient id="n" x1="221.58245" y1="203.78109" x2="337.81248" y2="203.78109" gradientUnits="userSpaceOnUse"><stop offset="0" stop-color="#ffdc26"/><stop offset="1" stop-color="#f0d039"/></linearGradient><radialGradient id="o" cx="250.34477" cy="219.87155" r="20.84617" gradientTransform="matrix(0.2537, -0.96728, 0.95587, 0.2507, -23.33635, 406.90314)" gradientUnits="userSpaceOnUse"><stop offset="0" stop-color="#c7ad35" stop-opacity="0.8"/><stop offset="0.29921" stop-color="#cab039" stop-opacity="0.80046"/><stop offset="0.52418" stop-color="#d2b844" stop-opacity="0.80193"/><stop offset="0.72493" stop-color="#e0c758" stop-opacity="0.8044"/><stop offset="0.91041" stop-color="#f3db74" stop-opacity="0.80787"/><stop offset="1" stop-color="#ffe885" stop-opacity="0.81"/></radialGradient><radialGradient id="p" cx="906.2501" cy="460.91704" r="13.50603" gradientTransform="translate(-878.71114 -147.62417) scale(1.24415 0.77108)" gradientUnits="userSpaceOnUse"><stop offset="0" stop-color="#ebd952"/><stop offset="0.37881" stop-color="#ebd952" stop-opacity="0.99203"/><stop offset="0.51527" stop-color="#ead953" stop-opacity="0.96313"/><stop offset="0.61253" stop-color="#ead855" stop-opacity="0.91281"/><stop offset="0.69121" stop-color="#e9d757" stop-opacity="0.8409"/><stop offset="0.75863" stop-color="#e7d65a" stop-opacity="0.74715"/><stop offset="0.81834" stop-color="#e5d55e" stop-opacity="0.63133"/><stop offset="0.87231" stop-color="#e3d362" stop-opacity="0.49335"/><stop offset="0.92196" stop-color="#e1d267" stop-opacity="0.33264"/><stop offset="0.96609" stop-color="#ded06d" stop-opacity="0.15775"/><stop offset="1" stop-color="#dcce72" stop-opacity="0"/></radialGradient><radialGradient id="q" cx="262.01761" cy="208.85494" r="1.70715" gradientTransform="matrix(0.2537, -0.96728, 0.95587, 0.2507, -4.09439, 409.93939)" gradientUnits="userSpaceOnUse"><stop offset="0" stop-color="#ebe6c1"/><stop offset="0.37881" stop-color="#ebe6c0" stop-opacity="0.99203"/><stop offset="0.51527" stop-color="#eae5be" stop-opacity="0.96313"/><stop offset="0.61253" stop-color="#eae4ba" stop-opacity="0.91281"/><stop offset="0.69121" stop-color="#e9e2b4" stop-opacity="0.8409"/><stop offset="0.75863" stop-color="#e7e0ad" stop-opacity="0.74715"/><stop offset="0.81834" stop-color="#e5dda4" stop-opacity="0.63133"/><stop offset="0.87231" stop-color="#e3da99" stop-opacity="0.49335"/><stop offset="0.92196" stop-color="#e1d68c" stop-opacity="0.33264"/><stop offset="0.96609" stop-color="#ded27e" stop-opacity="0.15775"/><stop offset="1" stop-color="#dcce72" stop-opacity="0"/></radialGradient><radialGradient id="r" cx="264.82484" cy="211.21464" r="0.61895" gradientTransform="matrix(0.2537, -0.96728, 0.95587, 0.2507, -4.25492, 414.42289)" gradientUnits="userSpaceOnUse"><stop offset="0" stop-color="#ebe6c1"/><stop offset="0.22496" stop-color="#ebe6c0" stop-opacity="0.98901"/><stop offset="0.3644" stop-color="#eae5bd" stop-opacity="0.95275"/><stop offset="0.48062" stop-color="#e9e3b8" stop-opacity="0.89088"/><stop offset="0.58411" stop-color="#e8e1b1" stop-opacity="0.80322"/><stop offset="0.67914" stop-color="#e6dfa8" stop-opacity="0.68961"/><stop offset="0.7679" stop-color="#e4db9d" stop-opacity="0.55"/><stop offset="0.85188" stop-color="#e2d790" stop-opacity="0.38414"/><stop offset="0.92991" stop-color="#dfd382" stop-opacity="0.19725"/><stop offset="1" stop-color="#dcce72" stop-opacity="0"/></radialGradient><radialGradient id="s" cx="240.71349" cy="234.72685" r="0.61895" gradientTransform="matrix(0.2537, -0.96728, 0.95587, 0.2507, -44.72398, 408.71797)" xlink:href="#r"/><radialGradient id="t" cx="236.07931" cy="227.54195" r="5.45098" gradientTransform="matrix(1, 0, 0, 1, 0, 0)" xlink:href="#q"/><radialGradient id="u" cx="260.22076" cy="231.80507" r="2.48527" gradientTransform="translate(0 33.67438) scale(1 0.85473)" gradientUnits="userSpaceOnUse"><stop offset="0" stop-color="#ebd952"/><stop offset="0.09168" stop-color="#ebd953" stop-opacity="0.96822"/><stop offset="0.22975" stop-color="#e9d856" stop-opacity="0.88033"/><stop offset="0.39704" stop-color="#e7d65a" stop-opacity="0.73641"/><stop offset="0.58721" stop-color="#e4d461" stop-opacity="0.53628"/><stop offset="0.79369" stop-color="#e0d169" stop-opacity="0.2836"/><stop offset="1" stop-color="#dcce72" stop-opacity="0"/></radialGradient><radialGradient id="v" cx="310.52228" cy="189.53471" r="11.78101" gradientTransform="matrix(0.2537, -0.96728, 0.95587, 0.2507, 50.57246, 442.38061)" xlink:href="#o"/><radialGradient id="w" cx="956.54471" cy="438.30966" r="7.6328" gradientTransform="translate(-880.43648 -155.26991) scale(1.24415 0.77108)" xlink:href="#p"/><radialGradient id="x" cx="317.11908" cy="183.30878" r="0.96478" gradientTransform="matrix(0.2537, -0.96728, 0.95587, 0.2507, 61.44687, 444.09652)" xlink:href="#q"/><radialGradient id="y" cx="318.70556" cy="184.64234" r="0.34979" gradientTransform="matrix(0.2537, -0.96728, 0.95587, 0.2507, 61.35614, 446.63033)" xlink:href="#r"/><radialGradient id="z" cx="305.07926" cy="197.93004" r="0.34979" gradientTransform="matrix(0.2537, -0.96728, 0.95587, 0.2507, 38.48545, 443.40625)" xlink:href="#r"/><radialGradient id="aa" cx="302.4603" cy="193.86957" r="3.08057" gradientTransform="matrix(1, 0, 0, 1, 0, 0)" xlink:href="#q"/><radialGradient id="ab" cx="316.1036" cy="196.27882" r="1.40453" gradientTransform="translate(0 28.51348) scale(1 0.85473)" xlink:href="#u"/><radialGradient id="ac" cx="284.24682" cy="161.6134" r="6.26748" gradientTransform="matrix(0.2537, -0.96728, 0.95587, 0.2507, 57.65225, 396.04347)" xlink:href="#o"/><radialGradient id="ad" cx="937.3192" cy="408.81085" r="4.06064" gradientTransform="translate(-882.38424 -157.24676) scale(1.24415 0.77108)" xlink:href="#p"/><radialGradient id="ae" cx="287.7563" cy="158.30121" r="0.51326" gradientTransform="matrix(0.2537, -0.96728, 0.95587, 0.2507, 63.43741, 396.95634)" xlink:href="#q"/><radialGradient id="af" cx="288.60031" cy="159.01067" r="0.18609" gradientTransform="matrix(0.2537, -0.96728, 0.95587, 0.2507, 63.38915, 398.30432)" xlink:href="#r"/><radialGradient id="ag" cx="281.35114" cy="166.0797" r="0.18609" gradientTransform="matrix(0.2537, -0.96728, 0.95587, 0.2507, 51.22198, 396.58911)" xlink:href="#r"/><radialGradient id="ah" cx="279.95786" cy="163.91953" r="1.63886" gradientTransform="matrix(1, 0, 0, 1, 0, 0)" xlink:href="#q"/><radialGradient id="ai" cx="287.21607" cy="165.20125" r="0.74721" gradientTransform="translate(0 23.99883) scale(1 0.85473)" xlink:href="#u"/><radialGradient id="aj" cx="283.64218" cy="261.25761" r="13.75721" gradientTransform="matrix(0.2537, -0.96728, 0.95587, 0.2507, -38.04623, 470.12156)" xlink:href="#o"/><radialGradient id="ak" cx="930.58586" cy="514.04784" r="8.91317" gradientTransform="translate(-875.16619 -143.09336) scale(1.24415 0.77108)" xlink:href="#p"/><radialGradient id="al" cx="291.34555" cy="253.98731" r="1.12662" gradientTransform="matrix(0.2537, -0.96728, 0.95587, 0.2507, -25.34769, 472.12531)" xlink:href="#q"/><radialGradient id="am" cx="293.19816" cy="255.54457" r="0.40847" gradientTransform="matrix(0.2537, -0.96728, 0.95587, 0.2507, -25.45364, 475.08415)" xlink:href="#r"/><radialGradient id="an" cx="277.28612" cy="271.06121" r="0.40847" gradientTransform="matrix(0.2537, -0.96728, 0.95587, 0.2507, -52.16077, 471.31924)" xlink:href="#r"/><radialGradient id="ao" cx="274.22784" cy="266.31961" r="3.59732" gradientTransform="matrix(1, 0, 0, 1, 0, 0)" xlink:href="#q"/><radialGradient id="ap" cx="290.15974" cy="269.13301" r="1.64013" gradientTransform="translate(0 39.09702) scale(1 0.85473)" xlink:href="#u"/><radialGradient id="aq" cx="255.87768" cy="300.89638" r="7.31881" gradientTransform="matrix(0.2537, -0.96728, 0.95587, 0.2507, -96.65658, 472.96656)" xlink:href="#o"/><radialGradient id="ar" cx="906.07437" cy="559.69712" r="4.74179" gradientTransform="translate(-871.95793 -134.91845) scale(1.24415 0.77108)" xlink:href="#p"/><radialGradient id="as" cx="259.97586" cy="297.02859" r="0.59936" gradientTransform="matrix(0.2537, -0.96728, 0.95587, 0.2507, -89.90099, 474.03255)" xlink:href="#q"/><radialGradient id="at" cx="260.96144" cy="297.85705" r="0.21731" gradientTransform="matrix(0.2537, -0.96728, 0.95587, 0.2507, -89.95735, 475.60665)" xlink:href="#r"/><radialGradient id="au" cx="252.49627" cy="306.11188" r="0.21731" gradientTransform="matrix(0.2537, -0.96728, 0.95587, 0.2507, -104.1655, 473.60372)" xlink:href="#r"/><radialGradient id="av" cx="250.86926" cy="303.58935" r="1.91377" gradientTransform="matrix(1, 0, 0, 1, 0, 0)" xlink:href="#q"/><radialGradient id="aw" cx="259.34501" cy="305.08608" r="0.87255" gradientTransform="translate(0 44.31994) scale(1 0.85473)" xlink:href="#u"/><radialGradient id="ax" cx="329.14126" cy="187.63129" r="96.86305" gradientTransform="translate(304.82211 -141.32998) rotate(81.99169) scale(1 0.11591)" gradientUnits="userSpaceOnUse"><stop offset="0" stop-color="#e6f3ff"/><stop offset="1" stop-color="#b9cbf0" stop-opacity="0"/></radialGradient><radialGradient id="ay" cx="211.28134" cy="310.40585" r="79.87596" gradientTransform="matrix(0.2537, -0.96728, 0.15236, 0.03996, 110.38765, 502.37113)" xlink:href="#ax"/><radialGradient id="az" cx="347.41153" cy="294.69322" r="5.63016" gradientTransform="matrix(1, 0, 0, 1, 0, 0)" xlink:href="#ax"/><radialGradient id="ba" cx="329.30427" cy="185.03741" r="5.63016" gradientTransform="matrix(1, 0, 0, 1, 0, 0)" xlink:href="#ax"/><radialGradient id="bb" cx="216.02749" cy="284.74067" r="19.98648" gradientUnits="userSpaceOnUse"><stop offset="0.1"/><stop offset="0.11244" stop-color="#080602"/><stop offset="0.16172" stop-color="#231b08"/><stop offset="0.21838" stop-color="#392c0d"/><stop offset="0.28458" stop-color="#4a3910"/><stop offset="0.36644" stop-color="#554213"/><stop offset="0.48125" stop-color="#5c4815"/><stop offset="0.8" stop-color="#5e4915"/><stop offset="1"/></radialGradient><radialGradient id="bc" cx="194.00667" cy="354.60946" r="0.6662" gradientUnits="userSpaceOnUse"><stop offset="0" stop-color="#d4e194"/><stop offset="0.05952" stop-color="#afba7a"/><stop offset="0.13651" stop-color="#868f5e"/><stop offset="0.21955" stop-color="#626845"/><stop offset="0.30759" stop-color="#44482f"/><stop offset="0.40211" stop-color="#2b2e1e"/><stop offset="0.50556" stop-color="#181911"/><stop offset="0.62249" stop-color="#0a0b07"/><stop offset="0.76429" stop-color="#020302"/><stop offset="1"/></radialGradient><radialGradient id="bd" cx="192.29672" cy="360.0347" r="0.6662" xlink:href="#bc"/><radialGradient id="be" cx="193.24595" cy="357.02298" r="4.99665" gradientUnits="userSpaceOnUse"><stop offset="0.05"/><stop offset="0.09242" stop-color="#040a03"/><stop offset="0.29802" stop-color="#183411"/><stop offset="0.48337" stop-color="#25531c"/><stop offset="0.64031" stop-color="#2e6622"/><stop offset="0.75" stop-color="#316d24"/><stop offset="0.78593" stop-color="#4f6e16"/><stop offset="0.83397" stop-color="#716f06"/><stop offset="0.86" stop-color="#7e6f00"/><stop offset="0.88764" stop-color="#7a6c00"/><stop offset="0.91229" stop-color="#706200"/><stop offset="0.93581" stop-color="#5d5200"/><stop offset="0.95863" stop-color="#443c00"/><stop offset="0.98074" stop-color="#231f00"/><stop offset="1"/></radialGradient><radialGradient id="bf" cx="211.28134" cy="299.79944" r="13.32427" gradientUnits="userSpaceOnUse"><stop offset="0" stop-color="#200"/><stop offset="0.73" stop-color="#984023"/><stop offset="1" stop-color="#200"/></radialGradient><radialGradient id="bg" cx="211.28134" cy="299.79944" r="6.66221" gradientUnits="userSpaceOnUse"><stop offset="0.15" stop-color="#fff"/><stop offset="0.20939" stop-color="#e5d3d3"/><stop offset="0.29044" stop-color="#c49c9e"/><stop offset="0.36051" stop-color="#ad7477"/><stop offset="0.41599" stop-color="#9e5c5f"/><stop offset="0.45" stop-color="#995356"/><stop offset="0.57175" stop-color="#6b3335"/><stop offset="0.69355" stop-color="#431718"/><stop offset="0.79053" stop-color="#2b0606"/><stop offset="0.85" stop-color="#200"/><stop offset="0.85727" stop-color="#260201"/><stop offset="0.8648" stop-color="#330704"/><stop offset="0.87246" stop-color="#471009"/><stop offset="0.8802" stop-color="#641d0f"/><stop offset="0.88801" stop-color="#8a2e18"/><stop offset="0.89577" stop-color="#b74223"/><stop offset="0.9" stop-color="#d34e29"/><stop offset="0.90254" stop-color="#c84927"/><stop offset="0.91417" stop-color="#9c361c"/><stop offset="0.92635" stop-color="#772514"/><stop offset="0.93893" stop-color="#58180c"/><stop offset="0.95205" stop-color="#400d07"/><stop offset="0.96594" stop-color="#2f0603"/><stop offset="0.98111" stop-color="#250101"/><stop offset="1" stop-color="#200"/></radialGradient><radialGradient id="bh" cx="211.28134" cy="299.79944" r="5.55184" gradientUnits="userSpaceOnUse"><stop offset="0.15" stop-color="#fff"/><stop offset="0.28237" stop-color="#c2c2c2"/><stop offset="0.42528" stop-color="#888"/><stop offset="0.5636" stop-color="#575757"/><stop offset="0.69361" stop-color="#313131"/><stop offset="0.81336" stop-color="#161616"/><stop offset="0.91921" stop-color="#060606"/><stop offset="1"/></radialGradient><radialGradient id="bi" cx="192.29672" cy="360.0347" r="9.9933" gradientUnits="userSpaceOnUse"><stop offset="0.64"/><stop offset="0.71799" stop-color="#000200"/><stop offset="0.74608" stop-color="#020902"/><stop offset="0.76609" stop-color="#051405"/><stop offset="0.78228" stop-color="#082509"/><stop offset="0.79598" stop-color="#0d3b0e"/><stop offset="0.8" stop-color="#0f4310"/><stop offset="0.8131" stop-color="#1e2c0a"/><stop offset="0.82975" stop-color="#2d1605"/><stop offset="0.84569" stop-color="#360901"/><stop offset="0.86" stop-color="#390400"/><stop offset="0.8715" stop-color="#250300"/><stop offset="0.88602" stop-color="#140100"/><stop offset="0.90412" stop-color="#090100"/><stop offset="0.92951" stop-color="#020000"/><stop offset="1"/></radialGradient><radialGradient id="bj" cx="195.9629" cy="348.4029" r="2.8404" gradientUnits="userSpaceOnUse"><stop offset="0.1"/><stop offset="0.24639" stop-color="#1b1103"/><stop offset="0.42619" stop-color="#362207"/><stop offset="0.61009" stop-color="#492e09"/><stop offset="0.79889" stop-color="#54350b"/><stop offset="1" stop-color="#58370b"/></radialGradient><radialGradient id="bk" cx="205.85868" cy="317.00494" r="1.58647" gradientUnits="userSpaceOnUse"><stop offset="0.1" stop-color="#192f1b"/><stop offset="0.2285" stop-color="#122214"/><stop offset="0.47516" stop-color="#080f09"/><stop offset="0.72928" stop-color="#020402"/><stop offset="1"/></radialGradient><radialGradient id="bl" cx="199.82155" cy="336.15989" r="1.05071" xlink:href="#bj"/><radialGradient id="bm" cx="198.86624" cy="339.19077" r="1.47759" gradientUnits="userSpaceOnUse"><stop offset="0.1"/><stop offset="0.29001" stop-color="#14160e"/><stop offset="0.51699" stop-color="#25291a"/><stop offset="0.75084" stop-color="#303422"/><stop offset="1" stop-color="#333824"/></radialGradient><radialGradient id="bn" cx="196.14959" cy="347.81009" r="2.74344" xlink:href="#bk"/><radialGradient id="bo" cx="232.87434" cy="114.90638" r="10.30064" gradientUnits="userSpaceOnUse"><stop offset="0" stop-color="#fff"/><stop offset="1" stop-color="#b9cbf0" stop-opacity="0"/></radialGradient><radialGradient id="bp" cx="324.9058" cy="195.47593" r="19.49085" xlink:href="#bb"/><radialGradient id="bq" cx="336.15853" cy="278.21726" r="0.64971" xlink:href="#bc"/><radialGradient id="br" cx="337.08465" cy="285.02614" r="0.64971" xlink:href="#bc"/><radialGradient id="bs" cx="336.59757" cy="281.4441" r="4.87267" xlink:href="#be"/><radialGradient id="bt" cx="327.34151" cy="213.38597" r="12.99396" xlink:href="#bf"/><radialGradient id="bu" cx="327.34151" cy="213.38597" r="6.49689" xlink:href="#bg"/><radialGradient id="bv" cx="327.34151" cy="213.38597" r="5.41414" xlink:href="#bh"/><radialGradient id="bw" cx="337.08465" cy="285.02614" r="9.74535" xlink:href="#bi"/><radialGradient id="bx" cx="334.72647" cy="267.68565" r="1.10156" gradientUnits="userSpaceOnUse"><stop offset="0.1"/><stop offset="0.2047" stop-color="#1c1713"/><stop offset="0.35581" stop-color="#3e3229"/><stop offset="0.51018" stop-color="#59473b"/><stop offset="0.66721" stop-color="#6c5647"/><stop offset="0.82838" stop-color="#775f4f"/><stop offset="1" stop-color="#7b6251"/></radialGradient><radialGradient id="by" cx="328.30807" cy="220.49327" r="2.14261" gradientUnits="userSpaceOnUse"><stop offset="0.1" stop-color="#393a2f"/><stop offset="0.30165" stop-color="#21221c"/><stop offset="0.52494" stop-color="#0f0f0c"/><stop offset="0.75495" stop-color="#040403"/><stop offset="1"/></radialGradient><radialGradient id="bz" cx="331.26248" cy="242.21741" r="1.97926" gradientUnits="userSpaceOnUse"><stop offset="0.1"/><stop offset="0.11031" stop-color="#010100"/><stop offset="0.32262" stop-color="#1c0e05"/><stop offset="0.53968" stop-color="#2f1808"/><stop offset="0.76257" stop-color="#3a1e09"/><stop offset="1" stop-color="#3e200a"/></radialGradient><radialGradient id="ca" cx="329.82556" cy="231.65182" r="2.49165" gradientUnits="userSpaceOnUse"><stop offset="0.1" stop-color="#7e9c95"/><stop offset="0.15454" stop-color="#6e8983"/><stop offset="0.2879" stop-color="#4d5f5b"/><stop offset="0.42427" stop-color="#313d3a"/><stop offset="0.56231" stop-color="#1c2221"/><stop offset="0.70265" stop-color="#0c0f0e"/><stop offset="0.84664" stop-color="#030404"/><stop offset="1"/></radialGradient><radialGradient id="cb" cx="336.38261" cy="279.86359" r="0.70539" gradientUnits="userSpaceOnUse"><stop offset="0.1"/><stop offset="0.22259" stop-color="#1b1722"/><stop offset="0.37027" stop-color="#352e44"/><stop offset="0.52121" stop-color="#4a3f5f"/><stop offset="0.67469" stop-color="#584c72"/><stop offset="0.8322" stop-color="#61547d"/><stop offset="1" stop-color="#645681"/></radialGradient></defs><g class="c"><ellipse class="d" cx="269.16211" cy="422.29876" rx="144.19211" ry="23.28088"/><path class="e" d="M399.724,403.184,339.40583,176.04346l.00787-66.26991c-17.75085,8.70908-35.47443,8.70911-59.73241,8.70911-25.0409,0-46.6847-3.005-56.99033-7.36688l-2.97677-3.17144.60954,68.81454L159.63826,403.184a14.43621,14.43621,0,0,0,13.887,18.37994H385.837A14.43607,14.43607,0,0,0,399.724,403.184Z"/><path class="a" d="M408.26618,405.73077,343.09033,176.24086V105.35913c0,7.24792-28.38906,13.12353-63.409,13.12353s-63.409-5.87561-63.409-13.12353v70.88173L151.09609,405.73077a16.974,16.974,0,0,0,16.37043,21.46046H391.89575A16.974,16.974,0,0,0,408.26618,405.73077Z"/><g class="f"><path class="g" d="M401.25967,410.98871c0-12.68913-54.23418-24.21532-121.13542-24.21532s-121.13541,12.00794-121.13541,24.69708,11.8099,10.1263,121.13541,11.13876C383.88968,423.57021,401.25967,423.67785,401.25967,410.98871Z"/><path class="h" d="M303.65643,192.56977c-2.80175-.31817-5.59682-.69124-8.39593-1.03119a108.84209,108.84209,0,0,0-15.01056-1.03272c-2.193.03846-4.39639.36007-6.55272.20572a62.462,62.462,0,0,0-7.14072-.04067c-9.72284.4182-19.28128,2.38687-28.77975,4.37841q-4.31316.90435-8.64184,1.73241c-6.01064,1.14983-12.15182,2.21117-17.73607,4.82648-1.48031.69329-2.55342,1.04806-3.08164,2.5374-.19881.56054-.33629,1.15158-.503,1.72256l-4.59562,15.73722-6.853,23.46721-8.36328,28.63913-9.12657,31.253-9.14286,31.30872-8.41212,28.8064-6.93437,23.746-4.7096,16.12751-1.73781,5.95093,7.53771,20.20929H412.84892V388.46111l-61.93708-184.68c-5.89651-2.38476-11.9462-4.22669-17.94789-6.30536-5.53008-1.91533-11.61122-2.03905-17.2549-3.68935C312.00395,192.70295,307.5025,193.00652,303.65643,192.56977Z"/></g><ellipse class="i" cx="279.68125" cy="105.35911" rx="63.4091" ry="13.12351"/><path class="b" d="M393.409,399.61709l-55.61756-195.836h-.60171c0,6.98614-25.74021,12.64944-57.49231,12.64944s-57.49231-5.6633-57.49231-12.64944h-.63424L165.95359,399.61717A13.67653,13.67653,0,0,0,179.11,417.03025H380.25262A13.67684,13.67684,0,0,0,393.409,399.61709Z"/><g class="j"><path class="k" d="M257.4129,262.59806c-28.84181,4.469-58.13244,6.29623-86.57756,12.83056s-56.625,18.32338-76.76012,39.45151c-11.66189,12.237-20.57246,28.8161-17.95551,45.51626,2.05123,13.09,11.00468,24.3366,21.93309,31.82829s23.74412,11.69316,36.51424,15.22582c74.25135,20.54052,156.51867,20.7286,225.64542-13.28123,13.90016-6.83878,27.29-15.09294,38.188-26.10277s19.21421-24.981,21.62539-40.28357c2.48517-15.77217-1.48981-32.23248-9.715-45.91765a92.185,92.185,0,0,0-27.27322-28.22758,89.44675,89.44675,0,0,0-16.51159-8.80486c-7.67978-3.18381-12.1877-7.99134-20.31777-4.91245-9.51759,3.60436-19.31018,6.61893-29.08109,9.451A476.87777,476.87777,0,0,1,257.4129,262.59806Z"/><path class="l" d="M279.53388,314.10348c-28.84182,4.469-58.13245,6.29623-86.57757,12.83056s-56.625,18.32338-76.76011,39.45151c-11.66189,12.237-20.57246,28.8161-17.95551,45.51626,2.05122,13.09,11.00468,24.3366,21.93309,31.82829s23.74412,11.69316,36.51424,15.22582c74.25135,20.54052,156.51867,20.7286,225.64542-13.28123,13.90016-6.83878,27.29-15.09294,38.188-26.10277s19.21421-24.981,21.62539-40.28357c2.48517-15.77217-1.48981-32.23248-9.715-45.91765a92.185,92.185,0,0,0-27.27322-28.22758,89.44675,89.44675,0,0,0-16.51159-8.80486c-7.67978-3.18382-12.1877-7.99134-20.31777-4.91245-9.51759,3.60436-19.31018,6.61893-29.08109,9.45095A476.87816,476.87816,0,0,1,279.53388,314.10348Z"/></g><ellipse class="m" cx="279.69746" cy="203.78109" rx="57.49233" ry="12.64945"/><g class="n"><circle class="o" cx="250.34477" cy="219.87155" r="21.94151"/><ellipse class="p" cx="248.80117" cy="207.77776" rx="14.66347" ry="8.84042" transform="translate(-15.02924 19.45057) rotate(-4.34581)"/><circle class="q" cx="262.01761" cy="208.85494" r="1.79686"/><circle class="r" cx="264.82484" cy="211.21464" r="0.65147"/><circle class="s" cx="240.71349" cy="234.72685" r="0.65147"/><path class="t" d="M232.887,221.47319c-.2153,4.23544,2.3335,10.34467,6.39729,12.13752"/><circle class="u" cx="260.22076" cy="231.80507" r="1.99438"/></g><g class="v"><circle class="w" cx="310.52228" cy="189.53471" r="12.40003"/><ellipse class="x" cx="309.64994" cy="182.70003" rx="8.28692" ry="4.99608" transform="matrix(0.99712, -0.07578, 0.07578, 0.99712, -12.954, 23.98934)"/><circle class="y" cx="317.11908" cy="183.30878" r="1.01548"/><circle class="z" cx="318.70556" cy="184.64234" r="0.36817"/><circle class="aa" cx="305.07926" cy="197.93004" r="0.36817"/><path class="ab" d="M300.65619,190.43986c-.12167,2.39362,1.31876,5.8462,3.61537,6.85941"/><circle class="ac" cx="316.1036" cy="196.27882" r="1.1271"/></g><g class="v"><circle class="ad" cx="284.24682" cy="161.6134" r="6.59679"/><ellipse class="ae" cx="283.78273" cy="157.97736" rx="4.40863" ry="2.6579" transform="translate(-11.15499 21.95815) rotate(-4.34581)"/><circle class="af" cx="287.7563" cy="158.30121" r="0.54023"/><circle class="ag" cx="288.60031" cy="159.01067" r="0.19587"/><circle class="ah" cx="281.35114" cy="166.0797" r="0.19587"/><path class="ai" d="M278.99808,162.09494a4.10838,4.10838,0,0,0,1.92336,3.64919"/><circle class="aj" cx="287.21607" cy="165.20125" r="0.59962"/></g><g class="v"><circle class="ak" cx="283.64218" cy="261.25761" r="14.48007"/><ellipse class="al" cx="282.6235" cy="253.27644" rx="9.67701" ry="5.83414" transform="translate(-18.37971 22.1443) rotate(-4.34581)"/><circle class="am" cx="291.34555" cy="253.98731" r="1.18582"/><circle class="an" cx="293.19816" cy="255.54457" r="0.42993"/><circle class="ao" cx="277.28612" cy="271.06121" r="0.42993"/><path class="ap" d="M272.1211,262.3146c-.14208,2.79513,1.54,6.82686,4.22182,8.01"/><circle class="aq" cx="290.15974" cy="269.13301" r="1.31617"/></g><g class="v"><circle class="ar" cx="255.87768" cy="300.89638" r="7.70337"/><ellipse class="as" cx="255.33574" cy="296.65041" rx="5.14815" ry="3.10376" transform="translate(-21.74488 20.20125) rotate(-4.34581)"/><circle class="at" cx="259.97586" cy="297.02859" r="0.63085"/><circle class="au" cx="260.96144" cy="297.85705" r="0.22872"/><circle class="av" cx="252.49627" cy="306.11188" r="0.22872"/><path class="aw" d="M249.74848,301.45869c-.07558,1.487.81926,3.63188,2.246,4.26132"/><circle class="ax" cx="259.34501" cy="305.08608" r="0.7002"/></g><g class="ay"><path class="az" d="M343.0842,286.99619a6.22824,6.22824,0,0,1-6.087-4.945l-20.168-95.75738a6.22792,6.22792,0,0,1-.13378-1.28307v-57.658a6.22686,6.22686,0,0,1,12.45371,0v57.00979L349.18335,279.485a6.23272,6.23272,0,0,1-6.09915,7.51115Z"/></g><g class="ba"><path class="bb" d="M191.16324,393.92756a6.85622,6.85622,0,0,1-6.63063-8.59051l40.24714-153.34059a6.84962,6.84962,0,0,1,13.25031,3.47828l-40.24714,153.3406A6.85073,6.85073,0,0,1,191.16324,393.92756Z"/></g><circle class="bc" cx="347.25963" cy="294.66632" r="6.23005"/><circle class="bd" cx="329.15237" cy="185.01052" r="6.23005"/><circle class="be" cx="216.02749" cy="284.74067" r="19.98648"/><circle class="bf" cx="194.00667" cy="354.60946" r="0.6662"/><circle class="bg" cx="192.29672" cy="360.0347" r="0.6662"/><circle class="bh" cx="193.24595" cy="357.02298" r="4.99665"/><line class="bi" x1="211.28134" y1="299.79944" x2="192.29672" y2="360.0347"/><circle class="bj" cx="211.28134" cy="299.79944" r="13.32427"/><circle class="bk" cx="211.28134" cy="299.79944" r="6.66221"/><circle class="bl" cx="211.28134" cy="299.79944" r="5.55184"/><polyline class="bm" points="211.281 299.799 207.696 321.388 211.281 299.799 214.867 278.211 211.281 299.799 189.693 296.214 211.281 299.799 232.87 303.385 211.281 299.799 214.226 327.938 211.281 299.799 208.337 271.661 211.281 299.799 183.143 302.744 211.281 299.799 239.42 296.855 211.281 299.799 225.143 322.886 211.281 299.799 197.419 276.713 211.281 299.799 188.195 313.661 211.281 299.799 234.368 285.937 211.281 299.799 206.99 318.109 211.281 299.799 215.572 281.49 211.281 299.799 192.971 295.508 211.281 299.799 229.591 304.091 211.281 299.799 211.116 302.019 211.281 299.799 211.447 297.58 211.281 299.799 209.062 299.634 211.281 299.799 213.501 299.965 211.281 299.799 197.056 324.376 211.281 299.799 225.506 275.223 211.281 299.799 186.705 285.574 211.281 299.799 235.858 314.025 211.281 299.799 205.191 307.564 211.281 299.799 217.372 292.035 211.281 299.799 203.517 293.709 211.281 299.799 219.046 305.89 211.281 299.799 214.425 306.482 211.281 299.799 208.137 293.117 211.281 299.799 204.598 302.944 211.281 299.799 217.964 296.655 211.281 299.799 236.278 321.717 211.281 299.799 186.285 277.882 211.281 299.799 189.364 324.796 211.281 299.799 233.198 274.802 211.281 299.799 216.812 326.921 211.281 299.799 205.751 272.678 211.281 299.799 184.16 305.33 211.281 299.799 238.403 294.269 211.281 299.799 216.3 331.559 211.281 299.799 206.263 268.04 211.281 299.799 179.521 304.818 211.281 299.799 243.041 294.781 211.281 299.799 213.894 305.59 211.281 299.799 208.669 294.009 211.281 299.799 205.491 302.412 211.281 299.799 217.072 297.187 211.281 299.799 228.407 315.167 211.281 299.799 194.156 284.432 211.281 299.799 195.914 316.925 211.281 299.799 226.649 282.674 211.281 299.799 202.813 322.903 211.281 299.799 219.75 276.696 211.281 299.799 188.178 291.331 211.281 299.799 234.385 308.268 211.281 299.799 212.546 319.888 211.281 299.799 210.017 279.711 211.281 299.799 191.192 301.064 211.281 299.799 231.37 298.535"/><circle class="bn" cx="192.29672" cy="360.0347" r="9.9933"/><circle class="bo" cx="195.9629" cy="348.4029" r="2.8404"/><circle class="bp" cx="205.85868" cy="317.00494" r="1.58647"/><circle class="bq" cx="199.82155" cy="336.15989" r="1.05071"/><circle class="br" cx="198.86624" cy="339.19077" r="1.47759"/><circle class="bs" cx="196.14959" cy="347.81009" r="2.74344"/><circle class="bt" cx="232.87434" cy="114.90638" r="10.30064"/><circle class="bu" cx="324.9058" cy="195.47593" r="19.49085"/><circle class="bv" cx="336.15853" cy="278.21726" r="0.64971"/><circle class="bw" cx="337.08465" cy="285.02614" r="0.64971"/><circle class="bx" cx="336.59757" cy="281.4441" r="4.87267"/><line class="bi" x1="327.34151" y1="213.38597" x2="337.08465" y2="285.02614"/><circle class="by" cx="327.34151" cy="213.38597" r="12.99396"/><circle class="bz" cx="327.34151" cy="213.38597" r="6.49689"/><circle class="ca" cx="327.34151" cy="213.38597" r="5.41414"/><polyline class="bm" points="327.342 213.386 332.188 213.56 327.342 213.386 322.495 213.212 327.342 213.386 327.168 218.233 327.342 213.386 327.515 208.539 327.342 213.386 335.435 236.419 327.342 213.386 319.248 190.353 327.342 213.386 304.308 221.48 327.342 213.386 350.375 205.292 327.342 213.386 336.737 225.764 327.342 213.386 317.946 201.008 327.342 213.386 314.963 222.781 327.342 213.386 339.72 203.991 327.342 213.386 330.04 226.29 327.342 213.386 324.643 200.482 327.342 213.386 314.437 216.084 327.342 213.386 340.246 210.688 327.342 213.386 332.531 216.89 327.342 213.386 322.152 209.881 327.342 213.386 323.837 218.575 327.342 213.386 330.846 208.197 327.342 213.386 341.396 223.177 327.342 213.386 313.287 203.595 327.342 213.386 317.55 227.441 327.342 213.386 337.133 199.331 327.342 213.386 342.004 214.8 327.342 213.386 312.679 211.972 327.342 213.386 325.928 228.049 327.342 213.386 328.755 198.723 327.342 213.386 332.96 231.107 327.342 213.386 321.723 195.665 327.342 213.386 309.621 219.005 327.342 213.386 345.063 207.767 327.342 213.386 328.869 214.117 327.342 213.386 325.814 212.655 327.342 213.386 326.611 214.914 327.342 213.386 328.072 211.858 327.342 213.386 348.962 229.935 327.342 213.386 305.721 196.837 327.342 213.386 310.793 235.006 327.342 213.386 343.89 191.766 327.342 213.386 329.11 230.502 327.342 213.386 325.573 196.27 327.342 213.386 310.225 215.154 327.342 213.386 344.458 211.618 327.342 213.386 351.647 216.916 327.342 213.386 303.036 209.855 327.342 213.386 323.811 237.691 327.342 213.386 330.872 189.08 327.342 213.386 327.548 244.418 327.342 213.386 327.135 182.354 327.342 213.386 296.31 213.593 327.342 213.386 358.373 213.179 327.342 213.386 335.426 232.565 327.342 213.386 319.257 194.207 327.342 213.386 308.163 221.471 327.342 213.386 346.52 205.301 327.342 213.386 333.363 232.587 327.342 213.386 321.32 194.185 327.342 213.386 308.14 219.407 327.342 213.386 346.543 207.365"/><circle class="cb" cx="337.08465" cy="285.02614" r="9.74535"/><circle class="cc" cx="334.72647" cy="267.68565" r="1.10156"/><circle class="cd" cx="328.30807" cy="220.49327" r="2.14261"/><circle class="ce" cx="331.26248" cy="242.21741" r="1.97926"/><circle class="cf" cx="329.82556" cy="231.65182" r="2.49165"/><circle class="cg" cx="336.38261" cy="279.86359" r="0.70539"/></g></svg>