<svg xmlns="http://www.w3.org/2000/svg" xmlns:xlink="http://www.w3.org/1999/xlink" viewBox="0 0 523.92572 512.20828"><defs><style>.a,.i{opacity:0.72;}.a{fill:url(#a);}.b,.ba,.k,.l,.m{opacity:0.8;}.b{fill:url(#b);}.c{isolation:isolate;}.d{fill:#683c11;fill-opacity:0.51;}.e,.g{mix-blend-mode:multiply;}.e{fill:url(#c);}.f{clip-path:url(#e);}.g{fill:url(#f);}.h{opacity:0.42;fill:url(#g);}.i{fill:url(#h);}.j{clip-path:url(#j);}.k{fill:url(#k);}.l{fill:url(#l);}.bm,.m{stroke-miterlimit:10;}.m,.t{stroke-width:1.24537px;}.m{fill:url(#m);stroke:url(#n);}.bc,.bd,.bk,.bn,.bz,.cb,.n{opacity:0.5;}.o{fill:url(#o);}.aa,.ab,.ae,.ah,.ai,.al,.ao,.ap,.as,.av,.aw,.p,.s,.t,.x{mix-blend-mode:soft-light;}.p{fill:url(#p);}.q{fill:url(#q);}.r{fill:url(#r);}.s{fill:url(#s);}.ab,.ai,.ap,.aw,.bi,.bm,.t{fill:none;}.ab,.ai,.ap,.aw,.t{stroke-linecap:round;stroke-linejoin:round;}.t{stroke:url(#t);}.u{fill:url(#u);}.v{opacity:0.3;}.w{fill:url(#v);}.x{fill:url(#w);}.y{fill:url(#x);}.z{fill:url(#y);}.aa{fill:url(#z);}.ab{stroke-width:0.70381px;stroke:url(#aa);}.ac{fill:url(#ab);}.ad{fill:url(#ac);}.ae{fill:url(#ad);}.af{fill:url(#ae);}.ag{fill:url(#af);}.ah{fill:url(#ag);}.ai{stroke-width:0.37443px;stroke:url(#ah);}.aj{fill:url(#ai);}.ak{fill:url(#aj);}.al{fill:url(#ak);}.am{fill:url(#al);}.an{fill:url(#am);}.ao{fill:url(#an);}.ap{stroke-width:0.82187px;stroke:url(#ao);}.aq{fill:url(#ap);}.ar{fill:url(#aq);}.as{fill:url(#ar);}.at{fill:url(#as);}.au{fill:url(#at);}.av{fill:url(#au);}.aw{stroke-width:0.43723px;stroke:url(#av);}.ax{fill:url(#aw);}.ay{opacity:0.54;}.az{fill:url(#ax);}.ba{mix-blend-mode:hard-light;}.bb{fill:url(#ay);}.bc{fill:url(#az);}.bd{fill:url(#ba);}.be,.bu{opacity:0.25;}.be,.bf,.bg,.bh,.bj,.bk,.bl,.bm,.bn,.bo,.bp,.bq,.br,.bs,.bu,.bv,.bw,.bx,.by,.bz,.ca,.cb,.cc,.cd,.ce,.cf,.cg{mix-blend-mode:screen;}.be{fill:url(#bb);}.bf{fill:url(#bc);}.bg{fill:url(#bd);}.bh,.bx{opacity:0.2;}.bh{fill:url(#be);}.bj,.by{opacity:0.15;}.bj{fill:url(#bf);}.bk{fill:url(#bg);}.bl{fill:url(#bh);}.bm{stroke:#fff;stroke-width:2.49074px;opacity:0.03;}.bn{fill:url(#bi);}.bo{fill:url(#bj);}.bp{fill:url(#bk);}.bq{fill:url(#bl);}.br{fill:url(#bm);}.bs{fill:url(#bn);}.bt{fill:url(#bo);}.bu{fill:url(#bp);}.bv{fill:url(#bq);}.bw{fill:url(#br);}.bx{fill:url(#bs);}.by{fill:url(#bt);}.bz{fill:url(#bu);}.ca{fill:url(#bv);}.cb{fill:url(#bw);}.cc{fill:url(#bx);}.cd{fill:url(#by);}.ce{fill:url(#bz);}.cf{fill:url(#ca);}.cg{fill:url(#cb);}</style><linearGradient id="a" x1="212.32728" y1="266.26885" x2="343.08852" y2="266.26885" gradientUnits="userSpaceOnUse"><stop offset="0" stop-color="#f5fbff"/><stop offset="0.62567" stop-color="#e9f1f5"/><stop offset="1" stop-color="#c5d9e0"/></linearGradient><linearGradient id="b" x1="350.50846" y1="436.92622" x2="195.81078" y2="231.89628" gradientUnits="userSpaceOnUse"><stop offset="0" stop-color="#48bb07"/><stop offset="1" stop-color="#82f039"/></linearGradient><linearGradient id="c" x1="314.63448" y1="122.44246" x2="282.52227" y2="383.99411" gradientUnits="userSpaceOnUse"><stop offset="0" stop-color="#bfc4c7"/><stop offset="1" stop-color="#b1c3c9"/></linearGradient><clipPath id="e"><path class="a" d="M408.26473,405.72444,343.08888,176.23453V105.35281c0,7.24791-28.389,13.12352-63.409,13.12352s-63.409-5.87561-63.409-13.12352v70.88172L151.09465,405.72444a16.974,16.974,0,0,0,16.37043,21.46046H391.8943A16.974,16.974,0,0,0,408.26473,405.72444Z"/></clipPath><linearGradient id="f" x1="221.87747" y1="261.495" x2="298.11901" y2="458.39706" gradientUnits="userSpaceOnUse"><stop offset="0" stop-color="#f5f5f5"/><stop offset="1" stop-color="#c3d1d6"/></linearGradient><linearGradient id="g" x1="494.24897" y1="310.79844" x2="264.74921" y2="310.79844" xlink:href="#b"/><linearGradient id="h" x1="279.67981" y1="79.10479" x2="279.67981" y2="118.20572" xlink:href="#a"/><clipPath id="j"><path class="b" d="M393.40754,399.61077,337.79,203.77476h-.6017c0,6.98614-25.74021,12.64945-57.49231,12.64945s-57.49231-5.66331-57.49231-12.64945h-.63424L165.95215,399.61084a13.67653,13.67653,0,0,0,13.15636,17.41308H380.25117A13.67684,13.67684,0,0,0,393.40754,399.61077Z"/></clipPath><linearGradient id="k" x1="526.80002" y1="330.24142" x2="227.82991" y2="330.24142" xlink:href="#b"/><linearGradient id="l" x1="97.77993" y1="381.74684" x2="442.87899" y2="381.74684" xlink:href="#b"/><linearGradient id="m" x1="381.80157" y1="203.77476" x2="245.55492" y2="203.77476" xlink:href="#b"/><linearGradient id="n" x1="221.581" y1="203.77476" x2="337.81104" y2="203.77476" gradientUnits="userSpaceOnUse"><stop offset="0" stop-color="#74ff26"/><stop offset="1" stop-color="#82f039"/></linearGradient><radialGradient id="o" cx="250.34332" cy="219.86522" r="20.84617" gradientTransform="matrix(0.2537, -0.96728, 0.95587, 0.2507, -23.33138, 406.897)" gradientUnits="userSpaceOnUse"><stop offset="0" stop-color="#74c735" stop-opacity="0.8"/><stop offset="0.29921" stop-color="#77ca39" stop-opacity="0.80046"/><stop offset="0.52418" stop-color="#82d244" stop-opacity="0.80193"/><stop offset="0.72493" stop-color="#93e058" stop-opacity="0.8044"/><stop offset="0.91041" stop-color="#acf374" stop-opacity="0.80787"/><stop offset="1" stop-color="#bbff85" stop-opacity="0.81"/></radialGradient><radialGradient id="p" cx="563.31214" cy="605.99011" r="13.50603" gradientTransform="translate(-452.04585 -259.49283) scale(1.24415 0.77108)" gradientUnits="userSpaceOnUse"><stop offset="0" stop-color="#75eb52"/><stop offset="0.37881" stop-color="#75eb52" stop-opacity="0.99203"/><stop offset="0.51527" stop-color="#76ea53" stop-opacity="0.96313"/><stop offset="0.61253" stop-color="#77ea55" stop-opacity="0.91281"/><stop offset="0.69121" stop-color="#79e957" stop-opacity="0.8409"/><stop offset="0.75863" stop-color="#7ce75a" stop-opacity="0.74715"/><stop offset="0.81834" stop-color="#7fe55e" stop-opacity="0.63133"/><stop offset="0.87231" stop-color="#82e362" stop-opacity="0.49335"/><stop offset="0.92196" stop-color="#86e167" stop-opacity="0.33264"/><stop offset="0.96609" stop-color="#8bde6d" stop-opacity="0.15775"/><stop offset="1" stop-color="#8fdc72" stop-opacity="0"/></radialGradient><radialGradient id="q" cx="262.01617" cy="208.84861" r="1.70715" gradientTransform="matrix(0.2537, -0.96728, 0.95587, 0.2507, -4.08942, 409.93325)" gradientUnits="userSpaceOnUse"><stop offset="0" stop-color="#cbebc1"/><stop offset="0.37881" stop-color="#cbebc0" stop-opacity="0.99203"/><stop offset="0.51527" stop-color="#c9eabe" stop-opacity="0.96313"/><stop offset="0.61253" stop-color="#c6eaba" stop-opacity="0.91281"/><stop offset="0.69121" stop-color="#c1e9b4" stop-opacity="0.8409"/><stop offset="0.75863" stop-color="#bce7ad" stop-opacity="0.74715"/><stop offset="0.81834" stop-color="#b5e5a4" stop-opacity="0.63133"/><stop offset="0.87231" stop-color="#ade399" stop-opacity="0.49335"/><stop offset="0.92196" stop-color="#a3e18c" stop-opacity="0.33264"/><stop offset="0.96609" stop-color="#98de7e" stop-opacity="0.15775"/><stop offset="1" stop-color="#8fdc72" stop-opacity="0"/></radialGradient><radialGradient id="r" cx="264.82339" cy="211.20831" r="0.61895" gradientTransform="matrix(0.2537, -0.96728, 0.95587, 0.2507, -4.24995, 414.41675)" gradientUnits="userSpaceOnUse"><stop offset="0" stop-color="#cbebc1"/><stop offset="0.22496" stop-color="#caebc0" stop-opacity="0.98901"/><stop offset="0.3644" stop-color="#c8eabd" stop-opacity="0.95275"/><stop offset="0.48062" stop-color="#c4e9b8" stop-opacity="0.89088"/><stop offset="0.58411" stop-color="#bfe8b1" stop-opacity="0.80322"/><stop offset="0.67914" stop-color="#b8e6a8" stop-opacity="0.68961"/><stop offset="0.7679" stop-color="#b0e49d" stop-opacity="0.55"/><stop offset="0.85188" stop-color="#a6e290" stop-opacity="0.38414"/><stop offset="0.92991" stop-color="#9bdf82" stop-opacity="0.19725"/><stop offset="1" stop-color="#8fdc72" stop-opacity="0"/></radialGradient><radialGradient id="s" cx="240.71205" cy="234.72052" r="0.61895" gradientTransform="matrix(0.2537, -0.96728, 0.95587, 0.2507, -44.71901, 408.71183)" xlink:href="#r"/><radialGradient id="t" cx="236.07786" cy="227.53562" r="5.45098" gradientTransform="matrix(1, 0, 0, 1, 0, 0)" xlink:href="#q"/><radialGradient id="u" cx="260.21931" cy="231.79874" r="2.48527" gradientTransform="translate(0 33.67346) scale(1 0.85473)" gradientUnits="userSpaceOnUse"><stop offset="0" stop-color="#75eb52"/><stop offset="0.09168" stop-color="#76eb53" stop-opacity="0.96822"/><stop offset="0.22975" stop-color="#78e956" stop-opacity="0.88033"/><stop offset="0.39704" stop-color="#7ce75a" stop-opacity="0.73641"/><stop offset="0.58721" stop-color="#81e461" stop-opacity="0.53628"/><stop offset="0.79369" stop-color="#88e069" stop-opacity="0.2836"/><stop offset="1" stop-color="#8fdc72" stop-opacity="0"/></radialGradient><radialGradient id="v" cx="310.52084" cy="189.52838" r="11.78101" gradientTransform="matrix(0.2537, -0.96728, 0.95587, 0.2507, 50.57743, 442.37448)" xlink:href="#o"/><radialGradient id="w" cx="613.60675" cy="583.38273" r="7.6328" gradientTransform="translate(-453.77119 -267.13856) scale(1.24415 0.77108)" xlink:href="#p"/><radialGradient id="x" cx="317.11763" cy="183.30245" r="0.96478" gradientTransform="matrix(0.2537, -0.96728, 0.95587, 0.2507, 61.45184, 444.09039)" xlink:href="#q"/><radialGradient id="y" cx="318.70411" cy="184.63601" r="0.34979" gradientTransform="matrix(0.2537, -0.96728, 0.95587, 0.2507, 61.36111, 446.62419)" xlink:href="#r"/><radialGradient id="z" cx="305.07782" cy="197.92371" r="0.34979" gradientTransform="matrix(0.2537, -0.96728, 0.95587, 0.2507, 38.49042, 443.40011)" xlink:href="#r"/><radialGradient id="aa" cx="302.45885" cy="193.86324" r="3.08057" gradientTransform="matrix(1, 0, 0, 1, 0, 0)" xlink:href="#q"/><radialGradient id="ab" cx="316.10216" cy="196.2725" r="1.40453" gradientTransform="translate(0 28.51256) scale(1 0.85473)" xlink:href="#u"/><radialGradient id="ac" cx="284.24538" cy="161.60707" r="6.26748" gradientTransform="matrix(0.2537, -0.96728, 0.95587, 0.2507, 57.65722, 396.03734)" xlink:href="#o"/><radialGradient id="ad" cx="594.38124" cy="553.88392" r="4.06064" gradientTransform="translate(-455.71895 -269.11541) scale(1.24415 0.77108)" xlink:href="#p"/><radialGradient id="ae" cx="287.75486" cy="158.29489" r="0.51326" gradientTransform="matrix(0.2537, -0.96728, 0.95587, 0.2507, 63.44238, 396.9502)" xlink:href="#q"/><radialGradient id="af" cx="288.59886" cy="159.00434" r="0.18609" gradientTransform="matrix(0.2537, -0.96728, 0.95587, 0.2507, 63.39412, 398.29818)" xlink:href="#r"/><radialGradient id="ag" cx="281.3497" cy="166.07337" r="0.18609" gradientTransform="matrix(0.2537, -0.96728, 0.95587, 0.2507, 51.22695, 396.58297)" xlink:href="#r"/><radialGradient id="ah" cx="279.95641" cy="163.9132" r="1.63886" gradientTransform="matrix(1, 0, 0, 1, 0, 0)" xlink:href="#q"/><radialGradient id="ai" cx="287.21463" cy="165.19493" r="0.74721" gradientTransform="translate(0 23.99791) scale(1 0.85473)" xlink:href="#u"/><radialGradient id="aj" cx="283.64074" cy="261.25128" r="13.75721" gradientTransform="matrix(0.2537, -0.96728, 0.95587, 0.2507, -38.04126, 470.11543)" xlink:href="#o"/><radialGradient id="ak" cx="587.6479" cy="659.12091" r="8.91317" gradientTransform="translate(-448.50089 -254.96202) scale(1.24415 0.77108)" xlink:href="#p"/><radialGradient id="al" cx="291.34411" cy="253.98098" r="1.12662" gradientTransform="matrix(0.2537, -0.96728, 0.95587, 0.2507, -25.34272, 472.11917)" xlink:href="#q"/><radialGradient id="am" cx="293.19671" cy="255.53824" r="0.40847" gradientTransform="matrix(0.2537, -0.96728, 0.95587, 0.2507, -25.44866, 475.07801)" xlink:href="#r"/><radialGradient id="an" cx="277.28468" cy="271.05488" r="0.40847" gradientTransform="matrix(0.2537, -0.96728, 0.95587, 0.2507, -52.1558, 471.31311)" xlink:href="#r"/><radialGradient id="ao" cx="274.22639" cy="266.31328" r="3.59732" gradientTransform="matrix(1, 0, 0, 1, 0, 0)" xlink:href="#q"/><radialGradient id="ap" cx="290.15829" cy="269.12668" r="1.64013" gradientTransform="translate(0 39.0961) scale(1 0.85473)" xlink:href="#u"/><radialGradient id="aq" cx="255.87623" cy="300.89005" r="7.31881" gradientTransform="matrix(0.2537, -0.96728, 0.95587, 0.2507, -96.65161, 472.96042)" xlink:href="#o"/><radialGradient id="ar" cx="563.13641" cy="704.77019" r="4.74179" gradientTransform="translate(-445.29264 -246.7871) scale(1.24415 0.77108)" xlink:href="#p"/><radialGradient id="as" cx="259.97442" cy="297.02226" r="0.59936" gradientTransform="matrix(0.2537, -0.96728, 0.95587, 0.2507, -89.89602, 474.02641)" xlink:href="#q"/><radialGradient id="at" cx="260.96" cy="297.85072" r="0.21731" gradientTransform="matrix(0.2537, -0.96728, 0.95587, 0.2507, -89.95238, 475.60051)" xlink:href="#r"/><radialGradient id="au" cx="252.49482" cy="306.10555" r="0.21731" gradientTransform="matrix(0.2537, -0.96728, 0.95587, 0.2507, -104.16053, 473.59759)" xlink:href="#r"/><radialGradient id="av" cx="250.86782" cy="303.58303" r="1.91377" gradientTransform="matrix(1, 0, 0, 1, 0, 0)" xlink:href="#q"/><radialGradient id="aw" cx="259.34356" cy="305.07975" r="0.87255" gradientTransform="translate(0 44.31902) scale(1 0.85473)" xlink:href="#u"/><radialGradient id="ax" cx="329.13981" cy="187.62496" r="96.86305" gradientTransform="translate(304.82014 -141.33477) rotate(81.99169) scale(1 0.11591)" gradientUnits="userSpaceOnUse"><stop offset="0" stop-color="#e6f3ff"/><stop offset="1" stop-color="#b9cbf0" stop-opacity="0"/></radialGradient><radialGradient id="ay" cx="211.27989" cy="310.39952" r="79.87596" gradientTransform="matrix(0.2537, -0.96728, 0.15236, 0.03996, 110.38754, 502.36366)" xlink:href="#ax"/><radialGradient id="az" cx="347.41008" cy="294.68689" r="5.63016" gradientTransform="matrix(1, 0, 0, 1, 0, 0)" xlink:href="#ax"/><radialGradient id="ba" cx="329.30283" cy="185.03108" r="5.63016" gradientTransform="matrix(1, 0, 0, 1, 0, 0)" xlink:href="#ax"/><radialGradient id="bb" cx="216.02605" cy="284.73434" r="19.98648" gradientUnits="userSpaceOnUse"><stop offset="0.1"/><stop offset="0.11244" stop-color="#080602"/><stop offset="0.16172" stop-color="#231b08"/><stop offset="0.21838" stop-color="#392c0d"/><stop offset="0.28458" stop-color="#4a3910"/><stop offset="0.36644" stop-color="#554213"/><stop offset="0.48125" stop-color="#5c4815"/><stop offset="0.8" stop-color="#5e4915"/><stop offset="1"/></radialGradient><radialGradient id="bc" cx="194.00523" cy="354.60314" r="0.6662" gradientUnits="userSpaceOnUse"><stop offset="0" stop-color="#d4e194"/><stop offset="0.05952" stop-color="#afba7a"/><stop offset="0.13651" stop-color="#868f5e"/><stop offset="0.21955" stop-color="#626845"/><stop offset="0.30759" stop-color="#44482f"/><stop offset="0.40211" stop-color="#2b2e1e"/><stop offset="0.50556" stop-color="#181911"/><stop offset="0.62249" stop-color="#0a0b07"/><stop offset="0.76429" stop-color="#020302"/><stop offset="1"/></radialGradient><radialGradient id="bd" cx="192.29528" cy="360.02838" r="0.6662" xlink:href="#bc"/><radialGradient id="be" cx="193.24451" cy="357.01665" r="4.99665" gradientUnits="userSpaceOnUse"><stop offset="0.05"/><stop offset="0.09242" stop-color="#040a03"/><stop offset="0.29802" stop-color="#183411"/><stop offset="0.48337" stop-color="#25531c"/><stop offset="0.64031" stop-color="#2e6622"/><stop offset="0.75" stop-color="#316d24"/><stop offset="0.78593" stop-color="#4f6e16"/><stop offset="0.83397" stop-color="#716f06"/><stop offset="0.86" stop-color="#7e6f00"/><stop offset="0.88764" stop-color="#7a6c00"/><stop offset="0.91229" stop-color="#706200"/><stop offset="0.93581" stop-color="#5d5200"/><stop offset="0.95863" stop-color="#443c00"/><stop offset="0.98074" stop-color="#231f00"/><stop offset="1"/></radialGradient><radialGradient id="bf" cx="211.27989" cy="299.79312" r="13.32427" gradientUnits="userSpaceOnUse"><stop offset="0" stop-color="#200"/><stop offset="0.73" stop-color="#984023"/><stop offset="1" stop-color="#200"/></radialGradient><radialGradient id="bg" cx="211.27989" cy="299.79312" r="6.66221" gradientUnits="userSpaceOnUse"><stop offset="0.15" stop-color="#fff"/><stop offset="0.20939" stop-color="#e5d3d3"/><stop offset="0.29044" stop-color="#c49c9e"/><stop offset="0.36051" stop-color="#ad7477"/><stop offset="0.41599" stop-color="#9e5c5f"/><stop offset="0.45" stop-color="#995356"/><stop offset="0.57175" stop-color="#6b3335"/><stop offset="0.69355" stop-color="#431718"/><stop offset="0.79053" stop-color="#2b0606"/><stop offset="0.85" stop-color="#200"/><stop offset="0.85727" stop-color="#260201"/><stop offset="0.8648" stop-color="#330704"/><stop offset="0.87246" stop-color="#471009"/><stop offset="0.8802" stop-color="#641d0f"/><stop offset="0.88801" stop-color="#8a2e18"/><stop offset="0.89577" stop-color="#b74223"/><stop offset="0.9" stop-color="#d34e29"/><stop offset="0.90254" stop-color="#c84927"/><stop offset="0.91417" stop-color="#9c361c"/><stop offset="0.92635" stop-color="#772514"/><stop offset="0.93893" stop-color="#58180c"/><stop offset="0.95205" stop-color="#400d07"/><stop offset="0.96594" stop-color="#2f0603"/><stop offset="0.98111" stop-color="#250101"/><stop offset="1" stop-color="#200"/></radialGradient><radialGradient id="bh" cx="211.27989" cy="299.79312" r="5.55184" gradientUnits="userSpaceOnUse"><stop offset="0.15" stop-color="#fff"/><stop offset="0.28237" stop-color="#c2c2c2"/><stop offset="0.42528" stop-color="#888"/><stop offset="0.5636" stop-color="#575757"/><stop offset="0.69361" stop-color="#313131"/><stop offset="0.81336" stop-color="#161616"/><stop offset="0.91921" stop-color="#060606"/><stop offset="1"/></radialGradient><radialGradient id="bi" cx="192.29528" cy="360.02838" r="9.9933" gradientUnits="userSpaceOnUse"><stop offset="0.64"/><stop offset="0.71799" stop-color="#000200"/><stop offset="0.74608" stop-color="#020902"/><stop offset="0.76609" stop-color="#051405"/><stop offset="0.78228" stop-color="#082509"/><stop offset="0.79598" stop-color="#0d3b0e"/><stop offset="0.8" stop-color="#0f4310"/><stop offset="0.8131" stop-color="#1e2c0a"/><stop offset="0.82975" stop-color="#2d1605"/><stop offset="0.84569" stop-color="#360901"/><stop offset="0.86" stop-color="#390400"/><stop offset="0.8715" stop-color="#250300"/><stop offset="0.88602" stop-color="#140100"/><stop offset="0.90412" stop-color="#090100"/><stop offset="0.92951" stop-color="#020000"/><stop offset="1"/></radialGradient><radialGradient id="bj" cx="195.96146" cy="348.39657" r="2.8404" gradientUnits="userSpaceOnUse"><stop offset="0.1"/><stop offset="0.24639" stop-color="#1b1103"/><stop offset="0.42619" stop-color="#362207"/><stop offset="0.61009" stop-color="#492e09"/><stop offset="0.79889" stop-color="#54350b"/><stop offset="1" stop-color="#58370b"/></radialGradient><radialGradient id="bk" cx="205.85724" cy="316.99861" r="1.58647" gradientUnits="userSpaceOnUse"><stop offset="0.1" stop-color="#192f1b"/><stop offset="0.2285" stop-color="#122214"/><stop offset="0.47516" stop-color="#080f09"/><stop offset="0.72928" stop-color="#020402"/><stop offset="1"/></radialGradient><radialGradient id="bl" cx="199.8201" cy="336.15356" r="1.05071" xlink:href="#bj"/><radialGradient id="bm" cx="198.86479" cy="339.18444" r="1.47759" gradientUnits="userSpaceOnUse"><stop offset="0.1"/><stop offset="0.29001" stop-color="#14160e"/><stop offset="0.51699" stop-color="#25291a"/><stop offset="0.75084" stop-color="#303422"/><stop offset="1" stop-color="#333824"/></radialGradient><radialGradient id="bn" cx="196.14814" cy="347.80376" r="2.74344" xlink:href="#bk"/><radialGradient id="bo" cx="232.87289" cy="114.90005" r="10.30064" gradientUnits="userSpaceOnUse"><stop offset="0" stop-color="#fff"/><stop offset="1" stop-color="#b9cbf0" stop-opacity="0"/></radialGradient><radialGradient id="bp" cx="324.90435" cy="195.4696" r="19.49085" xlink:href="#bb"/><radialGradient id="bq" cx="336.15708" cy="278.21093" r="0.64971" xlink:href="#bc"/><radialGradient id="br" cx="337.08321" cy="285.01981" r="0.64971" xlink:href="#bc"/><radialGradient id="bs" cx="336.59613" cy="281.43777" r="4.87267" xlink:href="#be"/><radialGradient id="bt" cx="327.34006" cy="213.37965" r="12.99396" xlink:href="#bf"/><radialGradient id="bu" cx="327.34006" cy="213.37965" r="6.49689" xlink:href="#bg"/><radialGradient id="bv" cx="327.34006" cy="213.37965" r="5.41414" xlink:href="#bh"/><radialGradient id="bw" cx="337.08321" cy="285.01981" r="9.74535" xlink:href="#bi"/><radialGradient id="bx" cx="334.72503" cy="267.67932" r="1.10156" gradientUnits="userSpaceOnUse"><stop offset="0.1"/><stop offset="0.2047" stop-color="#1c1713"/><stop offset="0.35581" stop-color="#3e3229"/><stop offset="0.51018" stop-color="#59473b"/><stop offset="0.66721" stop-color="#6c5647"/><stop offset="0.82838" stop-color="#775f4f"/><stop offset="1" stop-color="#7b6251"/></radialGradient><radialGradient id="by" cx="328.30662" cy="220.48694" r="2.14261" gradientUnits="userSpaceOnUse"><stop offset="0.1" stop-color="#393a2f"/><stop offset="0.30165" stop-color="#21221c"/><stop offset="0.52494" stop-color="#0f0f0c"/><stop offset="0.75495" stop-color="#040403"/><stop offset="1"/></radialGradient><radialGradient id="bz" cx="331.26104" cy="242.21108" r="1.97926" gradientUnits="userSpaceOnUse"><stop offset="0.1"/><stop offset="0.11031" stop-color="#010100"/><stop offset="0.32262" stop-color="#1c0e05"/><stop offset="0.53968" stop-color="#2f1808"/><stop offset="0.76257" stop-color="#3a1e09"/><stop offset="1" stop-color="#3e200a"/></radialGradient><radialGradient id="ca" cx="329.82412" cy="231.6455" r="2.49165" gradientUnits="userSpaceOnUse"><stop offset="0.1" stop-color="#7e9c95"/><stop offset="0.15454" stop-color="#6e8983"/><stop offset="0.2879" stop-color="#4d5f5b"/><stop offset="0.42427" stop-color="#313d3a"/><stop offset="0.56231" stop-color="#1c2221"/><stop offset="0.70265" stop-color="#0c0f0e"/><stop offset="0.84664" stop-color="#030404"/><stop offset="1"/></radialGradient><radialGradient id="cb" cx="336.38117" cy="279.85727" r="0.70539" gradientUnits="userSpaceOnUse"><stop offset="0.1"/><stop offset="0.22259" stop-color="#1b1722"/><stop offset="0.37027" stop-color="#352e44"/><stop offset="0.52121" stop-color="#4a3f5f"/><stop offset="0.67469" stop-color="#584c72"/><stop offset="0.8322" stop-color="#61547d"/><stop offset="1" stop-color="#645681"/></radialGradient></defs><g class="c"><ellipse class="d" cx="269.12711" cy="422.29243" rx="144.19211" ry="23.28088"/><path class="e" d="M399.72257,403.17768,339.40439,176.03713l.00786-66.2699c-17.75085,8.70907-35.47442,8.7091-59.73241,8.7091-25.0409,0-46.6847-3.005-56.99033-7.36687l-2.97676-3.17145.60953,68.81454L159.63681,403.17768a14.43622,14.43622,0,0,0,13.887,18.37994H385.83558A14.43608,14.43608,0,0,0,399.72257,403.17768Z"/><path class="a" d="M408.26473,405.72444,343.08888,176.23453V105.35281c0,7.24791-28.389,13.12352-63.409,13.12352s-63.409-5.87561-63.409-13.12352v70.88172L151.09465,405.72444a16.974,16.974,0,0,0,16.37043,21.46046H391.8943A16.974,16.974,0,0,0,408.26473,405.72444Z"/><g class="f"><path class="g" d="M401.25822,410.98238c0-12.68913-54.23417-24.21531-121.13541-24.21531S158.9874,398.775,158.9874,411.46414s11.8099,10.1263,121.13541,11.13877C383.88824,423.56388,401.25822,423.67152,401.25822,410.98238Z"/><path class="h" d="M303.655,192.56344c-2.80175-.31817-5.59682-.69124-8.39593-1.03119a108.842,108.842,0,0,0-15.01056-1.03272c-2.193.03846-4.39639.36007-6.55272.20572a62.46658,62.46658,0,0,0-7.14072-.04067c-9.72284.4182-19.28128,2.38687-28.77974,4.37841q-4.31316.90435-8.64184,1.73241c-6.01065,1.14983-12.15182,2.21117-17.73608,4.82649-1.4803.69328-2.55342,1.048-3.08163,2.53739-.19881.56054-.33629,1.15159-.503,1.72256l-4.59563,15.73722-6.853,23.46721-8.36327,28.63913-9.12658,31.253-9.14286,31.30872-8.41212,28.8064-6.93437,23.746-4.7096,16.1275-1.7378,5.95094,7.5377,20.20928H412.84748v-42.6524l-61.93709-184.68c-5.8965-2.38475-11.94619-4.22669-17.94788-6.30536-5.53008-1.91533-11.61122-2.03905-17.2549-3.68935C312.00251,192.69662,307.50106,193.0002,303.655,192.56344Z"/></g><ellipse class="i" cx="279.67981" cy="105.35279" rx="63.4091" ry="13.12351"/><path class="b" d="M393.40754,399.61077,337.79,203.77476h-.6017c0,6.98614-25.74021,12.64945-57.49231,12.64945s-57.49231-5.66331-57.49231-12.64945h-.63424L165.95215,399.61084a13.67653,13.67653,0,0,0,13.15636,17.41308H380.25117A13.67684,13.67684,0,0,0,393.40754,399.61077Z"/><g class="j"><path class="k" d="M257.41146,262.59173c-28.84182,4.469-58.13245,6.29624-86.57757,12.83056s-56.625,18.32338-76.76012,39.45151c-11.66189,12.237-20.57245,28.8161-17.9555,45.51626,2.05122,13.09,11.00468,24.33661,21.93309,31.82829s23.74412,11.69316,36.51424,15.22582C208.817,427.9847,291.08426,428.17278,360.211,394.16294c13.90016-6.83877,27.29-15.09294,38.188-26.10277s19.21422-24.981,21.6254-40.28357c2.48516-15.77217-1.48981-32.23248-9.715-45.91764a92.18474,92.18474,0,0,0-27.27322-28.22758,89.446,89.446,0,0,0-16.5116-8.80487c-7.67977-3.18381-12.18769-7.99134-20.31776-4.91245-9.51759,3.60436-19.31018,6.61893-29.0811,9.451A476.87936,476.87936,0,0,1,257.41146,262.59173Z"/><path class="l" d="M279.53243,314.09715c-28.84181,4.469-58.13244,6.29624-86.57756,12.83056s-56.625,18.32338-76.76012,39.45151c-11.66189,12.237-20.57245,28.8161-17.95551,45.51626,2.05123,13.09,11.00468,24.3366,21.9331,31.82829s23.74412,11.69316,36.51423,15.22582c74.25136,20.54053,156.51867,20.72861,225.64542-13.28123,13.90016-6.83877,27.29-15.09294,38.188-26.10277s19.21421-24.981,21.62539-40.28357c2.48517-15.77217-1.48981-32.23248-9.715-45.91764A92.18483,92.18483,0,0,0,405.1572,305.1368a89.44628,89.44628,0,0,0-16.5116-8.80487c-7.67978-3.18381-12.18769-7.99134-20.31776-4.91245-9.51759,3.60436-19.31018,6.61893-29.0811,9.451A476.87912,476.87912,0,0,1,279.53243,314.09715Z"/></g><ellipse class="m" cx="279.69602" cy="203.77476" rx="57.49233" ry="12.64945"/><g class="n"><circle class="o" cx="250.34332" cy="219.86522" r="21.94151"/><ellipse class="p" cx="248.79973" cy="207.77144" rx="14.66347" ry="8.84042" transform="translate(-15.02877 19.45044) rotate(-4.34581)"/><circle class="q" cx="262.01617" cy="208.84861" r="1.79686"/><circle class="r" cx="264.82339" cy="211.20831" r="0.65147"/><circle class="s" cx="240.71205" cy="234.72052" r="0.65147"/><path class="t" d="M232.88554,221.46686c-.21529,4.23544,2.3335,10.34468,6.39729,12.13752"/><circle class="u" cx="260.21931" cy="231.79874" r="1.99438"/></g><g class="v"><circle class="w" cx="310.52084" cy="189.52838" r="12.40003"/><ellipse class="x" cx="309.64849" cy="182.6937" rx="8.28692" ry="4.99608" transform="translate(-12.95353 23.98922) rotate(-4.34581)"/><circle class="y" cx="317.11763" cy="183.30245" r="1.01548"/><circle class="z" cx="318.70411" cy="184.63601" r="0.36817"/><circle class="aa" cx="305.07782" cy="197.92371" r="0.36817"/><path class="ab" d="M300.65475,190.43354c-.12168,2.39361,1.31875,5.84619,3.61536,6.8594"/><circle class="ac" cx="316.10216" cy="196.2725" r="1.1271"/></g><g class="v"><circle class="ad" cx="284.24538" cy="161.60707" r="6.59679"/><ellipse class="ae" cx="283.78129" cy="157.97103" rx="4.40863" ry="2.6579" transform="matrix(0.99712, -0.07578, 0.07578, 0.99712, -11.15451, 21.95802)"/><circle class="af" cx="287.75486" cy="158.29489" r="0.54023"/><circle class="ag" cx="288.59886" cy="159.00434" r="0.19587"/><circle class="ah" cx="281.3497" cy="166.07337" r="0.19587"/><path class="ai" d="M278.99663,162.08861A4.10839,4.10839,0,0,0,280.92,165.7378"/><circle class="aj" cx="287.21463" cy="165.19493" r="0.59962"/></g><g class="v"><circle class="ak" cx="283.64074" cy="261.25128" r="14.48007"/><ellipse class="al" cx="282.62206" cy="253.27011" rx="9.67701" ry="5.83414" transform="translate(-18.37924 22.14418) rotate(-4.34581)"/><circle class="am" cx="291.34411" cy="253.98098" r="1.18582"/><circle class="an" cx="293.19671" cy="255.53824" r="0.42993"/><circle class="ao" cx="277.28468" cy="271.05488" r="0.42993"/><path class="ap" d="M272.11966,262.30827c-.14209,2.79513,1.54,6.82686,4.22182,8.01"/><circle class="aq" cx="290.15829" cy="269.12668" r="1.31617"/></g><g class="v"><circle class="ar" cx="255.87623" cy="300.89005" r="7.70337"/><ellipse class="as" cx="255.3343" cy="296.64408" rx="5.14815" ry="3.10376" transform="translate(-21.7444 20.20112) rotate(-4.34581)"/><circle class="at" cx="259.97442" cy="297.02226" r="0.63085"/><circle class="au" cx="260.96" cy="297.85072" r="0.22872"/><circle class="av" cx="252.49482" cy="306.10555" r="0.22872"/><path class="aw" d="M249.747,301.45236c-.07559,1.487.81926,3.63188,2.246,4.26133"/><circle class="ax" cx="259.34356" cy="305.07975" r="0.7002"/></g><g class="ay"><path class="az" d="M343.08275,286.98986a6.22824,6.22824,0,0,1-6.087-4.945l-20.168-95.75738a6.22784,6.22784,0,0,1-.13378-1.28307v-57.658a6.22686,6.22686,0,0,1,12.45372,0v57.00978l20.03418,95.12253a6.23273,6.23273,0,0,1-6.09916,7.51115Z"/></g><g class="ba"><path class="bb" d="M191.16179,393.92124a6.85626,6.85626,0,0,1-6.63062-8.59051l40.24714-153.3406a6.84962,6.84962,0,0,1,13.25031,3.47828L197.78148,388.809A6.85073,6.85073,0,0,1,191.16179,393.92124Z"/></g><circle class="bc" cx="347.25818" cy="294.65999" r="6.23005"/><circle class="bd" cx="329.15092" cy="185.00419" r="6.23005"/><circle class="be" cx="216.02605" cy="284.73434" r="19.98648"/><circle class="bf" cx="194.00523" cy="354.60314" r="0.6662"/><circle class="bg" cx="192.29528" cy="360.02838" r="0.6662"/><circle class="bh" cx="193.24451" cy="357.01665" r="4.99665"/><line class="bi" x1="211.27989" y1="299.79312" x2="192.29528" y2="360.02838"/><circle class="bj" cx="211.27989" cy="299.79312" r="13.32427"/><circle class="bk" cx="211.27989" cy="299.79312" r="6.66221"/><circle class="bl" cx="211.27989" cy="299.79312" r="5.55184"/><polyline class="bm" points="211.28 299.793 207.695 321.382 211.28 299.793 214.865 278.205 211.28 299.793 189.691 296.208 211.28 299.793 232.868 303.379 211.28 299.793 214.224 327.931 211.28 299.793 208.336 271.655 211.28 299.793 183.142 302.738 211.28 299.793 239.418 296.849 211.28 299.793 225.142 322.88 211.28 299.793 197.418 276.706 211.28 299.793 188.193 313.655 211.28 299.793 234.367 285.931 211.28 299.793 206.989 318.103 211.28 299.793 215.571 281.483 211.28 299.793 192.97 295.502 211.28 299.793 229.59 304.084 211.28 299.793 211.114 302.012 211.28 299.793 211.446 297.574 211.28 299.793 209.061 299.627 211.28 299.793 213.499 299.959 211.28 299.793 197.055 324.37 211.28 299.793 225.505 275.216 211.28 299.793 186.703 285.568 211.28 299.793 235.857 314.018 211.28 299.793 205.19 307.558 211.28 299.793 217.37 292.029 211.28 299.793 203.515 293.703 211.28 299.793 219.044 305.883 211.28 299.793 214.424 306.476 211.28 299.793 208.136 293.11 211.28 299.793 204.597 302.937 211.28 299.793 217.963 296.649 211.28 299.793 236.277 321.71 211.28 299.793 186.283 277.876 211.28 299.793 189.363 324.79 211.28 299.793 233.197 274.796 211.28 299.793 216.81 326.915 211.28 299.793 205.75 272.671 211.28 299.793 184.158 305.323 211.28 299.793 238.402 294.263 211.28 299.793 216.298 331.553 211.28 299.793 206.262 268.033 211.28 299.793 179.52 304.811 211.28 299.793 243.04 294.775 211.28 299.793 213.893 305.584 211.28 299.793 208.667 294.002 211.28 299.793 205.489 302.406 211.28 299.793 217.07 297.181 211.28 299.793 228.405 315.161 211.28 299.793 194.155 284.426 211.28 299.793 195.912 316.919 211.28 299.793 226.648 282.668 211.28 299.793 202.811 322.897 211.28 299.793 219.748 276.69 211.28 299.793 188.176 291.324 211.28 299.793 234.383 308.262 211.28 299.793 212.544 319.882 211.28 299.793 210.016 279.704 211.28 299.793 191.191 301.057 211.28 299.793 231.369 298.529"/><circle class="bn" cx="192.29528" cy="360.02838" r="9.9933"/><circle class="bo" cx="195.96146" cy="348.39657" r="2.8404"/><circle class="bp" cx="205.85724" cy="316.99861" r="1.58647"/><circle class="bq" cx="199.8201" cy="336.15356" r="1.05071"/><circle class="br" cx="198.86479" cy="339.18444" r="1.47759"/><circle class="bs" cx="196.14814" cy="347.80376" r="2.74344"/><circle class="bt" cx="232.87289" cy="114.90005" r="10.30064"/><circle class="bu" cx="324.90435" cy="195.4696" r="19.49085"/><circle class="bv" cx="336.15708" cy="278.21093" r="0.64971"/><circle class="bw" cx="337.08321" cy="285.01981" r="0.64971"/><circle class="bx" cx="336.59613" cy="281.43777" r="4.87267"/><line class="bi" x1="327.34006" y1="213.37965" x2="337.08321" y2="285.01981"/><circle class="by" cx="327.34006" cy="213.37965" r="12.99396"/><circle class="bz" cx="327.34006" cy="213.37965" r="6.49689"/><circle class="ca" cx="327.34006" cy="213.37965" r="5.41414"/><polyline class="bm" points="327.34 213.38 332.187 213.553 327.34 213.38 322.493 213.206 327.34 213.38 327.166 218.226 327.34 213.38 327.514 208.533 327.34 213.38 335.434 236.413 327.34 213.38 319.246 190.346 327.34 213.38 304.307 221.473 327.34 213.38 350.373 205.286 327.34 213.38 336.735 225.758 327.34 213.38 317.945 201.001 327.34 213.38 314.962 222.775 327.34 213.38 339.718 203.985 327.34 213.38 330.038 226.284 327.34 213.38 324.642 200.475 327.34 213.38 314.436 216.078 327.34 213.38 340.244 210.681 327.34 213.38 332.529 216.884 327.34 213.38 322.151 209.875 327.34 213.38 323.836 218.569 327.34 213.38 330.844 208.191 327.34 213.38 341.395 223.171 327.34 213.38 313.285 203.588 327.34 213.38 317.549 227.434 327.34 213.38 337.132 199.325 327.34 213.38 342.003 214.793 327.34 213.38 312.677 211.966 327.34 213.38 325.926 228.043 327.34 213.38 328.754 198.717 327.34 213.38 332.959 231.101 327.34 213.38 321.721 195.659 327.34 213.38 309.619 218.998 327.34 213.38 345.061 207.761 327.34 213.38 328.868 214.11 327.34 213.38 325.813 212.649 327.34 213.38 326.609 214.907 327.34 213.38 328.071 211.852 327.34 213.38 348.96 229.928 327.34 213.38 305.72 196.831 327.34 213.38 310.791 235 327.34 213.38 343.889 191.76 327.34 213.38 329.108 230.496 327.34 213.38 325.572 196.263 327.34 213.38 310.224 215.148 327.34 213.38 344.457 211.612 327.34 213.38 351.645 216.91 327.34 213.38 303.035 209.849 327.34 213.38 323.809 237.685 327.34 213.38 330.871 189.074 327.34 213.38 327.547 244.411 327.34 213.38 327.133 182.348 327.34 213.38 296.308 213.586 327.34 213.38 358.372 213.173 327.34 213.38 335.425 232.558 327.34 213.38 319.255 194.201 327.34 213.38 308.161 221.464 327.34 213.38 346.519 205.295 327.34 213.38 333.361 232.581 327.34 213.38 321.319 194.178 327.34 213.38 308.139 219.401 327.34 213.38 346.541 207.358"/><circle class="cb" cx="337.08321" cy="285.01981" r="9.74535"/><circle class="cc" cx="334.72503" cy="267.67932" r="1.10156"/><circle class="cd" cx="328.30662" cy="220.48694" r="2.14261"/><circle class="ce" cx="331.26104" cy="242.21108" r="1.97926"/><circle class="cf" cx="329.82412" cy="231.6455" r="2.49165"/><circle class="cg" cx="336.38117" cy="279.85727" r="0.70539"/></g></svg>