<svg xmlns="http://www.w3.org/2000/svg" xmlns:xlink="http://www.w3.org/1999/xlink" viewBox="0 0 523.92572 512.20828"><defs><style>.a,.j{opacity:0.72;}.a{fill:url(#a);}.b,.bb,.l,.m,.n{opacity:0.8;}.b{fill:url(#b);}.c{isolation:isolate;}.d{fill:#683c11;fill-opacity:0.51;}.bd,.be,.bl,.bo,.ca,.cc,.e,.o{opacity:0.5;}.e{fill:url(#c);}.f,.h{mix-blend-mode:multiply;}.f{fill:url(#d);}.g{clip-path:url(#f);}.h{fill:url(#g);}.i{opacity:0.42;fill:url(#h);}.j{fill:url(#i);}.k{clip-path:url(#k);}.l{fill:url(#l);}.m{fill:url(#m);}.bn,.n{stroke-miterlimit:10;}.n,.u{stroke-width:1.24537px;}.n{fill:url(#n);stroke:url(#o);}.p{fill:url(#p);}.ab,.ac,.af,.ai,.aj,.am,.ap,.aq,.at,.aw,.ax,.q,.t,.u,.y{mix-blend-mode:soft-light;}.q{fill:url(#q);}.r{fill:url(#r);}.s{fill:url(#s);}.t{fill:url(#t);}.ac,.aj,.aq,.ax,.bj,.bn,.u{fill:none;}.ac,.aj,.aq,.ax,.u{stroke-linecap:round;stroke-linejoin:round;}.u{stroke:url(#u);}.v{fill:url(#v);}.w{opacity:0.3;}.x{fill:url(#w);}.y{fill:url(#x);}.z{fill:url(#y);}.aa{fill:url(#z);}.ab{fill:url(#aa);}.ac{stroke-width:0.70381px;stroke:url(#ab);}.ad{fill:url(#ac);}.ae{fill:url(#ad);}.af{fill:url(#ae);}.ag{fill:url(#af);}.ah{fill:url(#ag);}.ai{fill:url(#ah);}.aj{stroke-width:0.37443px;stroke:url(#ai);}.ak{fill:url(#aj);}.al{fill:url(#ak);}.am{fill:url(#al);}.an{fill:url(#am);}.ao{fill:url(#an);}.ap{fill:url(#ao);}.aq{stroke-width:0.82187px;stroke:url(#ap);}.ar{fill:url(#aq);}.as{fill:url(#ar);}.at{fill:url(#as);}.au{fill:url(#at);}.av{fill:url(#au);}.aw{fill:url(#av);}.ax{stroke-width:0.43723px;stroke:url(#aw);}.ay{fill:url(#ax);}.az{opacity:0.54;}.ba{fill:url(#ay);}.bb{mix-blend-mode:hard-light;}.bc{fill:url(#az);}.bd{fill:url(#ba);}.be{fill:url(#bb);}.bf,.bv{opacity:0.25;}.bf,.bg,.bh,.bi,.bk,.bl,.bm,.bn,.bo,.bp,.bq,.br,.bs,.bt,.bv,.bw,.bx,.by,.bz,.ca,.cb,.cc,.cd,.ce,.cf,.cg,.ch{mix-blend-mode:screen;}.bf{fill:url(#bc);}.bg{fill:url(#bd);}.bh{fill:url(#be);}.bi,.by{opacity:0.2;}.bi{fill:url(#bf);}.bk,.bz{opacity:0.15;}.bk{fill:url(#bg);}.bl{fill:url(#bh);}.bm{fill:url(#bi);}.bn{stroke:#fff;stroke-width:2.49074px;opacity:0.03;}.bo{fill:url(#bj);}.bp{fill:url(#bk);}.bq{fill:url(#bl);}.br{fill:url(#bm);}.bs{fill:url(#bn);}.bt{fill:url(#bo);}.bu{fill:url(#bp);}.bv{fill:url(#bq);}.bw{fill:url(#br);}.bx{fill:url(#bs);}.by{fill:url(#bt);}.bz{fill:url(#bu);}.ca{fill:url(#bv);}.cb{fill:url(#bw);}.cc{fill:url(#bx);}.cd{fill:url(#by);}.ce{fill:url(#bz);}.cf{fill:url(#ca);}.cg{fill:url(#cb);}.ch{fill:url(#cc);}</style><linearGradient id="a" x1="212.32873" y1="266.27638" x2="343.08996" y2="266.27638" gradientUnits="userSpaceOnUse"><stop offset="0" stop-color="#f5fbff"/><stop offset="0.62567" stop-color="#e9f1f5"/><stop offset="1" stop-color="#c5d9e0"/></linearGradient><linearGradient id="b" x1="350.50991" y1="436.93375" x2="195.81223" y2="231.90381" gradientUnits="userSpaceOnUse"><stop offset="0" stop-color="#bb4b07"/><stop offset="1" stop-color="#f07839"/></linearGradient><radialGradient id="c" cx="391.3883" cy="185.03861" r="5.63016" gradientUnits="userSpaceOnUse"><stop offset="0" stop-color="#e6f3ff"/><stop offset="1" stop-color="#b9cbf0" stop-opacity="0"/></radialGradient><linearGradient id="d" x1="314.63593" y1="122.44999" x2="282.52372" y2="384.00163" gradientUnits="userSpaceOnUse"><stop offset="0" stop-color="#bfc4c7"/><stop offset="1" stop-color="#b1c3c9"/></linearGradient><clipPath id="f"><path class="a" d="M408.26618,405.732,343.09033,176.24206V105.36034c0,7.24791-28.38906,13.12352-63.409,13.12352s-63.409-5.87561-63.409-13.12352v70.88172L151.09609,405.732a16.974,16.974,0,0,0,16.37043,21.46046H391.89575A16.974,16.974,0,0,0,408.26618,405.732Z"/></clipPath><linearGradient id="g" x1="221.87891" y1="261.50253" x2="298.12045" y2="458.40459" gradientUnits="userSpaceOnUse"><stop offset="0" stop-color="#f5f5f5"/><stop offset="1" stop-color="#c3d1d6"/></linearGradient><linearGradient id="h" x1="494.25042" y1="310.80597" x2="264.75065" y2="310.80597" xlink:href="#b"/><linearGradient id="i" x1="279.68125" y1="79.11231" x2="279.68125" y2="118.21325" xlink:href="#a"/><clipPath id="k"><path class="b" d="M393.409,399.6183l-55.61756-195.836h-.60171c0,6.98614-25.74021,12.64945-57.49231,12.64945s-57.49231-5.66331-57.49231-12.64945h-.63424L165.95359,399.61837A13.67653,13.67653,0,0,0,179.11,417.03145H380.25262A13.67684,13.67684,0,0,0,393.409,399.6183Z"/></clipPath><linearGradient id="l" x1="526.80146" y1="330.24895" x2="227.83135" y2="330.24895" xlink:href="#b"/><linearGradient id="m" x1="97.78137" y1="381.75437" x2="442.88043" y2="381.75437" xlink:href="#b"/><linearGradient id="n" x1="381.80301" y1="203.78229" x2="245.55636" y2="203.78229" xlink:href="#b"/><linearGradient id="o" x1="221.58245" y1="203.78229" x2="337.81248" y2="203.78229" gradientUnits="userSpaceOnUse"><stop offset="0" stop-color="#ff7526"/><stop offset="1" stop-color="#f07839"/></linearGradient><radialGradient id="p" cx="250.34477" cy="219.87275" r="20.84617" gradientTransform="matrix(0.2537, -0.96728, 0.95587, 0.2507, -23.3375, 406.90404)" gradientUnits="userSpaceOnUse"><stop offset="0" stop-color="#c76735" stop-opacity="0.8"/><stop offset="0.29921" stop-color="#ca6a39" stop-opacity="0.80046"/><stop offset="0.52418" stop-color="#d27444" stop-opacity="0.80193"/><stop offset="0.72493" stop-color="#e08658" stop-opacity="0.8044"/><stop offset="0.91041" stop-color="#f39e74" stop-opacity="0.80787"/><stop offset="1" stop-color="#ffad85" stop-opacity="0.81"/></radialGradient><radialGradient id="q" cx="1141.21287" cy="361.51692" r="13.50603" gradientTransform="translate(-1171.0404 -70.97795) scale(1.24415 0.77108)" gradientUnits="userSpaceOnUse"><stop offset="0" stop-color="#eb9352"/><stop offset="0.37881" stop-color="#eb9352" stop-opacity="0.99203"/><stop offset="0.51527" stop-color="#ea9353" stop-opacity="0.96313"/><stop offset="0.61253" stop-color="#ea9455" stop-opacity="0.91281"/><stop offset="0.69121" stop-color="#e99557" stop-opacity="0.8409"/><stop offset="0.75863" stop-color="#e7965a" stop-opacity="0.74715"/><stop offset="0.81834" stop-color="#e5975e" stop-opacity="0.63133"/><stop offset="0.87231" stop-color="#e39862" stop-opacity="0.49335"/><stop offset="0.92196" stop-color="#e19a67" stop-opacity="0.33264"/><stop offset="0.96609" stop-color="#de9b6d" stop-opacity="0.15775"/><stop offset="1" stop-color="#dc9d72" stop-opacity="0"/></radialGradient><radialGradient id="r" cx="262.01761" cy="208.85614" r="1.70715" gradientTransform="matrix(0.2537, -0.96728, 0.95587, 0.2507, -4.09554, 409.94029)" gradientUnits="userSpaceOnUse"><stop offset="0" stop-color="#ebd3c1"/><stop offset="0.37881" stop-color="#ebd3c0" stop-opacity="0.99203"/><stop offset="0.51527" stop-color="#ead1be" stop-opacity="0.96313"/><stop offset="0.61253" stop-color="#eaceba" stop-opacity="0.91281"/><stop offset="0.69121" stop-color="#e9cab4" stop-opacity="0.8409"/><stop offset="0.75863" stop-color="#e7c5ad" stop-opacity="0.74715"/><stop offset="0.81834" stop-color="#e5bfa4" stop-opacity="0.63133"/><stop offset="0.87231" stop-color="#e3b899" stop-opacity="0.49335"/><stop offset="0.92196" stop-color="#e1af8c" stop-opacity="0.33264"/><stop offset="0.96609" stop-color="#dea67e" stop-opacity="0.15775"/><stop offset="1" stop-color="#dc9d72" stop-opacity="0"/></radialGradient><radialGradient id="s" cx="264.82484" cy="211.21584" r="0.61895" gradientTransform="matrix(0.2537, -0.96728, 0.95587, 0.2507, -4.25607, 414.42379)" gradientUnits="userSpaceOnUse"><stop offset="0" stop-color="#ebd3c1"/><stop offset="0.22496" stop-color="#ebd2c0" stop-opacity="0.98901"/><stop offset="0.3644" stop-color="#ead0bd" stop-opacity="0.95275"/><stop offset="0.48062" stop-color="#e9cdb8" stop-opacity="0.89088"/><stop offset="0.58411" stop-color="#e8c8b1" stop-opacity="0.80322"/><stop offset="0.67914" stop-color="#e6c2a8" stop-opacity="0.68961"/><stop offset="0.7679" stop-color="#e4bb9d" stop-opacity="0.55"/><stop offset="0.85188" stop-color="#e2b290" stop-opacity="0.38414"/><stop offset="0.92991" stop-color="#dfa882" stop-opacity="0.19725"/><stop offset="1" stop-color="#dc9d72" stop-opacity="0"/></radialGradient><radialGradient id="t" cx="240.71349" cy="234.72805" r="0.61895" gradientTransform="matrix(0.2537, -0.96728, 0.95587, 0.2507, -44.72513, 408.71887)" xlink:href="#s"/><radialGradient id="u" cx="236.07931" cy="227.54315" r="5.45098" gradientTransform="matrix(1, 0, 0, 1, 0, 0)" xlink:href="#r"/><radialGradient id="v" cx="260.22076" cy="231.80627" r="2.48527" gradientTransform="translate(0 33.67456) scale(1 0.85473)" gradientUnits="userSpaceOnUse"><stop offset="0" stop-color="#eb9352"/><stop offset="0.09168" stop-color="#eb9353" stop-opacity="0.96822"/><stop offset="0.22975" stop-color="#e99456" stop-opacity="0.88033"/><stop offset="0.39704" stop-color="#e7965a" stop-opacity="0.73641"/><stop offset="0.58721" stop-color="#e49861" stop-opacity="0.53628"/><stop offset="0.79369" stop-color="#e09a69" stop-opacity="0.2836"/><stop offset="1" stop-color="#dc9d72" stop-opacity="0"/></radialGradient><radialGradient id="w" cx="310.52228" cy="189.53591" r="11.78101" gradientTransform="matrix(0.2537, -0.96728, 0.95587, 0.2507, 50.57131, 442.38151)" xlink:href="#p"/><radialGradient id="x" cx="1191.50748" cy="338.90954" r="7.6328" gradientTransform="translate(-1172.76574 -78.62369) scale(1.24415 0.77108)" xlink:href="#q"/><radialGradient id="y" cx="317.11908" cy="183.30998" r="0.96478" gradientTransform="matrix(0.2537, -0.96728, 0.95587, 0.2507, 61.44572, 444.09742)" xlink:href="#r"/><radialGradient id="z" cx="318.70556" cy="184.64354" r="0.34979" gradientTransform="matrix(0.2537, -0.96728, 0.95587, 0.2507, 61.355, 446.63123)" xlink:href="#s"/><radialGradient id="aa" cx="305.07926" cy="197.93124" r="0.34979" gradientTransform="matrix(0.2537, -0.96728, 0.95587, 0.2507, 38.4843, 443.40715)" xlink:href="#s"/><radialGradient id="ab" cx="302.4603" cy="193.87077" r="3.08057" gradientTransform="matrix(1, 0, 0, 1, 0, 0)" xlink:href="#r"/><radialGradient id="ac" cx="316.1036" cy="196.28003" r="1.40453" gradientTransform="translate(0 28.51365) scale(1 0.85473)" xlink:href="#v"/><radialGradient id="ad" cx="284.24682" cy="161.6146" r="6.26748" gradientTransform="matrix(0.2537, -0.96728, 0.95587, 0.2507, 57.6511, 396.04437)" xlink:href="#p"/><radialGradient id="ae" cx="1172.28197" cy="309.41073" r="4.06064" gradientTransform="translate(-1174.7135 -80.60054) scale(1.24415 0.77108)" xlink:href="#q"/><radialGradient id="af" cx="287.7563" cy="158.30241" r="0.51326" gradientTransform="matrix(0.2537, -0.96728, 0.95587, 0.2507, 63.43626, 396.95724)" xlink:href="#r"/><radialGradient id="ag" cx="288.60031" cy="159.01187" r="0.18609" gradientTransform="matrix(0.2537, -0.96728, 0.95587, 0.2507, 63.388, 398.30522)" xlink:href="#s"/><radialGradient id="ah" cx="281.35114" cy="166.0809" r="0.18609" gradientTransform="matrix(0.2537, -0.96728, 0.95587, 0.2507, 51.22083, 396.59001)" xlink:href="#s"/><radialGradient id="ai" cx="279.95786" cy="163.92073" r="1.63886" gradientTransform="matrix(1, 0, 0, 1, 0, 0)" xlink:href="#r"/><radialGradient id="aj" cx="287.21607" cy="165.20246" r="0.74721" gradientTransform="translate(0 23.999) scale(1 0.85473)" xlink:href="#v"/><radialGradient id="ak" cx="283.64218" cy="261.25881" r="13.75721" gradientTransform="matrix(0.2537, -0.96728, 0.95587, 0.2507, -38.04738, 470.12246)" xlink:href="#p"/><radialGradient id="al" cx="1165.54863" cy="414.64771" r="8.91317" gradientTransform="translate(-1167.49544 -66.44714) scale(1.24415 0.77108)" xlink:href="#q"/><radialGradient id="am" cx="291.34555" cy="253.98851" r="1.12662" gradientTransform="matrix(0.2537, -0.96728, 0.95587, 0.2507, -25.34884, 472.12621)" xlink:href="#r"/><radialGradient id="an" cx="293.19816" cy="255.54577" r="0.40847" gradientTransform="matrix(0.2537, -0.96728, 0.95587, 0.2507, -25.45478, 475.08505)" xlink:href="#s"/><radialGradient id="ao" cx="277.28612" cy="271.06241" r="0.40847" gradientTransform="matrix(0.2537, -0.96728, 0.95587, 0.2507, -52.16192, 471.32014)" xlink:href="#s"/><radialGradient id="ap" cx="274.22784" cy="266.32081" r="3.59732" gradientTransform="matrix(1, 0, 0, 1, 0, 0)" xlink:href="#r"/><radialGradient id="aq" cx="290.15974" cy="269.13421" r="1.64013" gradientTransform="translate(0 39.0972) scale(1 0.85473)" xlink:href="#v"/><radialGradient id="ar" cx="255.87768" cy="300.89758" r="7.31881" gradientTransform="matrix(0.2537, -0.96728, 0.95587, 0.2507, -96.65773, 472.96746)" xlink:href="#p"/><radialGradient id="as" cx="1141.03714" cy="460.297" r="4.74179" gradientTransform="translate(-1164.28719 -58.27223) scale(1.24415 0.77108)" xlink:href="#q"/><radialGradient id="at" cx="259.97586" cy="297.02979" r="0.59936" gradientTransform="matrix(0.2537, -0.96728, 0.95587, 0.2507, -89.90213, 474.03345)" xlink:href="#r"/><radialGradient id="au" cx="260.96144" cy="297.85825" r="0.21731" gradientTransform="matrix(0.2537, -0.96728, 0.95587, 0.2507, -89.95849, 475.60755)" xlink:href="#s"/><radialGradient id="av" cx="252.49627" cy="306.11308" r="0.21731" gradientTransform="matrix(0.2537, -0.96728, 0.95587, 0.2507, -104.16665, 473.60462)" xlink:href="#s"/><radialGradient id="aw" cx="250.86926" cy="303.59055" r="1.91377" gradientTransform="matrix(1, 0, 0, 1, 0, 0)" xlink:href="#r"/><radialGradient id="ax" cx="259.34501" cy="305.08728" r="0.87255" gradientTransform="translate(0 44.32011) scale(1 0.85473)" xlink:href="#v"/><radialGradient id="ay" cx="329.14126" cy="187.63249" r="96.86305" gradientTransform="translate(304.82225 -141.32879) rotate(81.99169) scale(1 0.11591)" xlink:href="#c"/><radialGradient id="az" cx="211.28134" cy="310.40705" r="79.87596" gradientTransform="matrix(0.2537, -0.96728, 0.15236, 0.03996, 110.38747, 502.37228)" xlink:href="#c"/><radialGradient id="ba" cx="347.41153" cy="294.69442" r="5.63016" xlink:href="#c"/><radialGradient id="bb" cx="329.30427" cy="185.03861" r="5.63016" xlink:href="#c"/><radialGradient id="bc" cx="216.02749" cy="284.74187" r="19.98648" gradientUnits="userSpaceOnUse"><stop offset="0.1"/><stop offset="0.11244" stop-color="#080602"/><stop offset="0.16172" stop-color="#231b08"/><stop offset="0.21838" stop-color="#392c0d"/><stop offset="0.28458" stop-color="#4a3910"/><stop offset="0.36644" stop-color="#554213"/><stop offset="0.48125" stop-color="#5c4815"/><stop offset="0.8" stop-color="#5e4915"/><stop offset="1"/></radialGradient><radialGradient id="bd" cx="194.00667" cy="354.61066" r="0.6662" gradientUnits="userSpaceOnUse"><stop offset="0" stop-color="#d4e194"/><stop offset="0.05952" stop-color="#afba7a"/><stop offset="0.13651" stop-color="#868f5e"/><stop offset="0.21955" stop-color="#626845"/><stop offset="0.30759" stop-color="#44482f"/><stop offset="0.40211" stop-color="#2b2e1e"/><stop offset="0.50556" stop-color="#181911"/><stop offset="0.62249" stop-color="#0a0b07"/><stop offset="0.76429" stop-color="#020302"/><stop offset="1"/></radialGradient><radialGradient id="be" cx="192.29672" cy="360.0359" r="0.6662" xlink:href="#bd"/><radialGradient id="bf" cx="193.24595" cy="357.02418" r="4.99665" gradientUnits="userSpaceOnUse"><stop offset="0.05"/><stop offset="0.09242" stop-color="#040a03"/><stop offset="0.29802" stop-color="#183411"/><stop offset="0.48337" stop-color="#25531c"/><stop offset="0.64031" stop-color="#2e6622"/><stop offset="0.75" stop-color="#316d24"/><stop offset="0.78593" stop-color="#4f6e16"/><stop offset="0.83397" stop-color="#716f06"/><stop offset="0.86" stop-color="#7e6f00"/><stop offset="0.88764" stop-color="#7a6c00"/><stop offset="0.91229" stop-color="#706200"/><stop offset="0.93581" stop-color="#5d5200"/><stop offset="0.95863" stop-color="#443c00"/><stop offset="0.98074" stop-color="#231f00"/><stop offset="1"/></radialGradient><radialGradient id="bg" cx="211.28134" cy="299.80065" r="13.32427" gradientUnits="userSpaceOnUse"><stop offset="0" stop-color="#200"/><stop offset="0.73" stop-color="#984023"/><stop offset="1" stop-color="#200"/></radialGradient><radialGradient id="bh" cx="211.28134" cy="299.80065" r="6.66221" gradientUnits="userSpaceOnUse"><stop offset="0.15" stop-color="#fff"/><stop offset="0.20939" stop-color="#e5d3d3"/><stop offset="0.29044" stop-color="#c49c9e"/><stop offset="0.36051" stop-color="#ad7477"/><stop offset="0.41599" stop-color="#9e5c5f"/><stop offset="0.45" stop-color="#995356"/><stop offset="0.57175" stop-color="#6b3335"/><stop offset="0.69355" stop-color="#431718"/><stop offset="0.79053" stop-color="#2b0606"/><stop offset="0.85" stop-color="#200"/><stop offset="0.85727" stop-color="#260201"/><stop offset="0.8648" stop-color="#330704"/><stop offset="0.87246" stop-color="#471009"/><stop offset="0.8802" stop-color="#641d0f"/><stop offset="0.88801" stop-color="#8a2e18"/><stop offset="0.89577" stop-color="#b74223"/><stop offset="0.9" stop-color="#d34e29"/><stop offset="0.90254" stop-color="#c84927"/><stop offset="0.91417" stop-color="#9c361c"/><stop offset="0.92635" stop-color="#772514"/><stop offset="0.93893" stop-color="#58180c"/><stop offset="0.95205" stop-color="#400d07"/><stop offset="0.96594" stop-color="#2f0603"/><stop offset="0.98111" stop-color="#250101"/><stop offset="1" stop-color="#200"/></radialGradient><radialGradient id="bi" cx="211.28134" cy="299.80065" r="5.55184" gradientUnits="userSpaceOnUse"><stop offset="0.15" stop-color="#fff"/><stop offset="0.28237" stop-color="#c2c2c2"/><stop offset="0.42528" stop-color="#888"/><stop offset="0.5636" stop-color="#575757"/><stop offset="0.69361" stop-color="#313131"/><stop offset="0.81336" stop-color="#161616"/><stop offset="0.91921" stop-color="#060606"/><stop offset="1"/></radialGradient><radialGradient id="bj" cx="192.29672" cy="360.0359" r="9.9933" gradientUnits="userSpaceOnUse"><stop offset="0.64"/><stop offset="0.71799" stop-color="#000200"/><stop offset="0.74608" stop-color="#020902"/><stop offset="0.76609" stop-color="#051405"/><stop offset="0.78228" stop-color="#082509"/><stop offset="0.79598" stop-color="#0d3b0e"/><stop offset="0.8" stop-color="#0f4310"/><stop offset="0.8131" stop-color="#1e2c0a"/><stop offset="0.82975" stop-color="#2d1605"/><stop offset="0.84569" stop-color="#360901"/><stop offset="0.86" stop-color="#390400"/><stop offset="0.8715" stop-color="#250300"/><stop offset="0.88602" stop-color="#140100"/><stop offset="0.90412" stop-color="#090100"/><stop offset="0.92951" stop-color="#020000"/><stop offset="1"/></radialGradient><radialGradient id="bk" cx="195.9629" cy="348.4041" r="2.8404" gradientUnits="userSpaceOnUse"><stop offset="0.1"/><stop offset="0.24639" stop-color="#1b1103"/><stop offset="0.42619" stop-color="#362207"/><stop offset="0.61009" stop-color="#492e09"/><stop offset="0.79889" stop-color="#54350b"/><stop offset="1" stop-color="#58370b"/></radialGradient><radialGradient id="bl" cx="205.85868" cy="317.00614" r="1.58647" gradientUnits="userSpaceOnUse"><stop offset="0.1" stop-color="#192f1b"/><stop offset="0.2285" stop-color="#122214"/><stop offset="0.47516" stop-color="#080f09"/><stop offset="0.72928" stop-color="#020402"/><stop offset="1"/></radialGradient><radialGradient id="bm" cx="199.82155" cy="336.16109" r="1.05071" xlink:href="#bk"/><radialGradient id="bn" cx="198.86624" cy="339.19197" r="1.47759" gradientUnits="userSpaceOnUse"><stop offset="0.1"/><stop offset="0.29001" stop-color="#14160e"/><stop offset="0.51699" stop-color="#25291a"/><stop offset="0.75084" stop-color="#303422"/><stop offset="1" stop-color="#333824"/></radialGradient><radialGradient id="bo" cx="196.14959" cy="347.81129" r="2.74344" xlink:href="#bl"/><radialGradient id="bp" cx="232.87434" cy="114.90758" r="10.30064" gradientUnits="userSpaceOnUse"><stop offset="0" stop-color="#fff"/><stop offset="1" stop-color="#b9cbf0" stop-opacity="0"/></radialGradient><radialGradient id="bq" cx="324.9058" cy="195.47713" r="19.49085" xlink:href="#bc"/><radialGradient id="br" cx="336.15853" cy="278.21846" r="0.64971" xlink:href="#bd"/><radialGradient id="bs" cx="337.08465" cy="285.02734" r="0.64971" xlink:href="#bd"/><radialGradient id="bt" cx="336.59757" cy="281.4453" r="4.87267" xlink:href="#bf"/><radialGradient id="bu" cx="327.34151" cy="213.38717" r="12.99396" xlink:href="#bg"/><radialGradient id="bv" cx="327.34151" cy="213.38717" r="6.49689" xlink:href="#bh"/><radialGradient id="bw" cx="327.34151" cy="213.38717" r="5.41414" xlink:href="#bi"/><radialGradient id="bx" cx="337.08465" cy="285.02734" r="9.74535" xlink:href="#bj"/><radialGradient id="by" cx="334.72647" cy="267.68685" r="1.10156" gradientUnits="userSpaceOnUse"><stop offset="0.1"/><stop offset="0.2047" stop-color="#1c1713"/><stop offset="0.35581" stop-color="#3e3229"/><stop offset="0.51018" stop-color="#59473b"/><stop offset="0.66721" stop-color="#6c5647"/><stop offset="0.82838" stop-color="#775f4f"/><stop offset="1" stop-color="#7b6251"/></radialGradient><radialGradient id="bz" cx="328.30807" cy="220.49447" r="2.14261" gradientUnits="userSpaceOnUse"><stop offset="0.1" stop-color="#393a2f"/><stop offset="0.30165" stop-color="#21221c"/><stop offset="0.52494" stop-color="#0f0f0c"/><stop offset="0.75495" stop-color="#040403"/><stop offset="1"/></radialGradient><radialGradient id="ca" cx="331.26248" cy="242.21861" r="1.97926" gradientUnits="userSpaceOnUse"><stop offset="0.1"/><stop offset="0.11031" stop-color="#010100"/><stop offset="0.32262" stop-color="#1c0e05"/><stop offset="0.53968" stop-color="#2f1808"/><stop offset="0.76257" stop-color="#3a1e09"/><stop offset="1" stop-color="#3e200a"/></radialGradient><radialGradient id="cb" cx="329.82556" cy="231.65303" r="2.49165" gradientUnits="userSpaceOnUse"><stop offset="0.1" stop-color="#7e9c95"/><stop offset="0.15454" stop-color="#6e8983"/><stop offset="0.2879" stop-color="#4d5f5b"/><stop offset="0.42427" stop-color="#313d3a"/><stop offset="0.56231" stop-color="#1c2221"/><stop offset="0.70265" stop-color="#0c0f0e"/><stop offset="0.84664" stop-color="#030404"/><stop offset="1"/></radialGradient><radialGradient id="cc" cx="336.38261" cy="279.8648" r="0.70539" gradientUnits="userSpaceOnUse"><stop offset="0.1"/><stop offset="0.22259" stop-color="#1b1722"/><stop offset="0.37027" stop-color="#352e44"/><stop offset="0.52121" stop-color="#4a3f5f"/><stop offset="0.67469" stop-color="#584c72"/><stop offset="0.8322" stop-color="#61547d"/><stop offset="1" stop-color="#645681"/></radialGradient></defs><g class="c"><ellipse class="d" cx="269.16211" cy="422.29996" rx="144.19211" ry="23.28088"/><circle class="e" cx="391.23639" cy="185.01172" r="6.23005"/><path class="f" d="M399.724,403.18521,339.40583,176.04466l.00787-66.2699c-17.75085,8.70907-35.47443,8.7091-59.73241,8.7091-25.0409,0-46.6847-3.005-56.99033-7.36687l-2.97677-3.17145.60954,68.81454L159.63826,403.18521a14.43621,14.43621,0,0,0,13.887,18.37994H385.837A14.43607,14.43607,0,0,0,399.724,403.18521Z"/><path class="a" d="M408.26618,405.732,343.09033,176.24206V105.36034c0,7.24791-28.38906,13.12352-63.409,13.12352s-63.409-5.87561-63.409-13.12352v70.88172L151.09609,405.732a16.974,16.974,0,0,0,16.37043,21.46046H391.89575A16.974,16.974,0,0,0,408.26618,405.732Z"/><g class="g"><path class="h" d="M401.25967,410.98991c0-12.68913-54.23418-24.21531-121.13542-24.21531s-121.13541,12.00793-121.13541,24.69707,11.8099,10.1263,121.13541,11.13877C383.88968,423.57141,401.25967,423.67905,401.25967,410.98991Z"/><path class="i" d="M303.65643,192.571c-2.80175-.31817-5.59682-.69124-8.39593-1.03119a108.84209,108.84209,0,0,0-15.01056-1.03272c-2.193.03846-4.39639.36007-6.55272.20572a62.46431,62.46431,0,0,0-7.14072-.04067c-9.72284.4182-19.28128,2.38687-28.77975,4.37841q-4.31316.90435-8.64184,1.73241c-6.01064,1.14983-12.15182,2.21117-17.73607,4.82648-1.48031.69329-2.55342,1.04806-3.08164,2.5374-.19881.56054-.33629,1.15159-.503,1.72256l-4.59562,15.73722-6.853,23.46721-8.36328,28.63913-9.12657,31.253-9.14286,31.30872-8.41212,28.8064-6.93437,23.746-4.7096,16.1275-1.73781,5.95094,7.53771,20.20928H412.84892v-42.6524l-61.93708-184.68c-5.89651-2.38475-11.9462-4.22669-17.94789-6.30536-5.53008-1.91533-11.61122-2.03905-17.2549-3.68935C312.00395,192.70415,307.5025,193.00773,303.65643,192.571Z"/></g><ellipse class="j" cx="279.68125" cy="105.36032" rx="63.4091" ry="13.12351"/><path class="b" d="M393.409,399.6183l-55.61756-195.836h-.60171c0,6.98614-25.74021,12.64945-57.49231,12.64945s-57.49231-5.66331-57.49231-12.64945h-.63424L165.95359,399.61837A13.67653,13.67653,0,0,0,179.11,417.03145H380.25262A13.67684,13.67684,0,0,0,393.409,399.6183Z"/><g class="k"><path class="l" d="M257.4129,262.59926c-28.84181,4.469-58.13244,6.29624-86.57756,12.83056s-56.625,18.32338-76.76012,39.45151c-11.66189,12.237-20.57246,28.8161-17.95551,45.51626,2.05123,13.09,11.00468,24.3366,21.93309,31.82829S121.79692,403.919,134.567,407.4517c74.25135,20.54053,156.51867,20.7286,225.64542-13.28123,13.90016-6.83877,27.29-15.09294,38.188-26.10277s19.21421-24.981,21.62539-40.28357c2.48517-15.77217-1.48981-32.23248-9.715-45.91764a92.18489,92.18489,0,0,0-27.27322-28.22759,89.44675,89.44675,0,0,0-16.51159-8.80486c-7.67978-3.18381-12.1877-7.99134-20.31777-4.91245-9.51759,3.60436-19.31018,6.61893-29.08109,9.45095A476.87777,476.87777,0,0,1,257.4129,262.59926Z"/><path class="m" d="M279.53388,314.10468c-28.84182,4.469-58.13245,6.29623-86.57757,12.83056s-56.625,18.32338-76.76011,39.45151c-11.66189,12.237-20.57246,28.8161-17.95551,45.51626,2.05122,13.09,11.00468,24.3366,21.93309,31.82829s23.74412,11.69316,36.51424,15.22582c74.25135,20.54053,156.51867,20.7286,225.64542-13.28123,13.90016-6.83877,27.29-15.09294,38.188-26.10277s19.21421-24.981,21.62539-40.28357c2.48517-15.77217-1.48981-32.23248-9.715-45.91764a92.18489,92.18489,0,0,0-27.27322-28.22759,89.44675,89.44675,0,0,0-16.51159-8.80486c-7.67978-3.18381-12.1877-7.99134-20.31777-4.91245-9.51759,3.60436-19.31018,6.61893-29.08109,9.45095A476.87816,476.87816,0,0,1,279.53388,314.10468Z"/></g><ellipse class="n" cx="279.69746" cy="203.78229" rx="57.49233" ry="12.64945"/><g class="o"><circle class="p" cx="250.34477" cy="219.87275" r="21.94151"/><ellipse class="q" cx="248.80117" cy="207.77896" rx="14.66347" ry="8.84042" transform="translate(-15.02934 19.45057) rotate(-4.34581)"/><circle class="r" cx="262.01761" cy="208.85614" r="1.79686"/><circle class="s" cx="264.82484" cy="211.21584" r="0.65147"/><circle class="t" cx="240.71349" cy="234.72805" r="0.65147"/><path class="u" d="M232.887,221.47439c-.2153,4.23544,2.3335,10.34467,6.39729,12.13752"/><circle class="v" cx="260.22076" cy="231.80627" r="1.99438"/></g><g class="w"><circle class="x" cx="310.52228" cy="189.53591" r="12.40003"/><ellipse class="y" cx="309.64994" cy="182.70123" rx="8.28692" ry="4.99608" transform="translate(-12.95409 23.98935) rotate(-4.34581)"/><circle class="z" cx="317.11908" cy="183.30998" r="1.01548"/><circle class="aa" cx="318.70556" cy="184.64354" r="0.36817"/><circle class="ab" cx="305.07926" cy="197.93124" r="0.36817"/><path class="ac" d="M300.65619,190.44107c-.12167,2.39361,1.31876,5.84619,3.61537,6.8594"/><circle class="ad" cx="316.1036" cy="196.28003" r="1.1271"/></g><g class="w"><circle class="ae" cx="284.24682" cy="161.6146" r="6.59679"/><ellipse class="af" cx="283.78273" cy="157.97856" rx="4.40863" ry="2.6579" transform="translate(-11.15508 21.95815) rotate(-4.34581)"/><circle class="ag" cx="287.7563" cy="158.30241" r="0.54023"/><circle class="ah" cx="288.60031" cy="159.01187" r="0.19587"/><circle class="ai" cx="281.35114" cy="166.0809" r="0.19587"/><path class="aj" d="M278.99808,162.09614a4.10838,4.10838,0,0,0,1.92336,3.64919"/><circle class="ak" cx="287.21607" cy="165.20246" r="0.59962"/></g><g class="w"><circle class="al" cx="283.64218" cy="261.25881" r="14.48007"/><ellipse class="am" cx="282.6235" cy="253.27764" rx="9.67701" ry="5.83414" transform="translate(-18.3798 22.14431) rotate(-4.34581)"/><circle class="an" cx="291.34555" cy="253.98851" r="1.18582"/><circle class="ao" cx="293.19816" cy="255.54577" r="0.42993"/><circle class="ap" cx="277.28612" cy="271.06241" r="0.42993"/><path class="aq" d="M272.1211,262.3158c-.14208,2.79513,1.54,6.82686,4.22182,8.01"/><circle class="ar" cx="290.15974" cy="269.13421" r="1.31617"/></g><g class="w"><circle class="as" cx="255.87768" cy="300.89758" r="7.70337"/><ellipse class="at" cx="255.33574" cy="296.65161" rx="5.14815" ry="3.10376" transform="translate(-21.74497 20.20125) rotate(-4.34581)"/><circle class="au" cx="259.97586" cy="297.02979" r="0.63085"/><circle class="av" cx="260.96144" cy="297.85825" r="0.22872"/><circle class="aw" cx="252.49627" cy="306.11308" r="0.22872"/><path class="ax" d="M249.74848,301.45989c-.07558,1.487.81926,3.63188,2.246,4.26133"/><circle class="ay" cx="259.34501" cy="305.08728" r="0.7002"/></g><g class="az"><path class="ba" d="M343.0842,286.99739a6.22824,6.22824,0,0,1-6.087-4.945l-20.168-95.75738a6.22792,6.22792,0,0,1-.13378-1.28307v-57.658a6.22686,6.22686,0,0,1,12.45371,0v57.00979l20.03418,95.12253a6.23272,6.23272,0,0,1-6.09915,7.51115Z"/></g><g class="bb"><path class="bc" d="M191.16324,393.92876a6.85622,6.85622,0,0,1-6.63063-8.5905l40.24714-153.3406a6.84962,6.84962,0,0,1,13.25031,3.47828l-40.24714,153.3406A6.85072,6.85072,0,0,1,191.16324,393.92876Z"/></g><circle class="bd" cx="347.25963" cy="294.66752" r="6.23005"/><circle class="be" cx="329.15237" cy="185.01172" r="6.23005"/><circle class="bf" cx="216.02749" cy="284.74187" r="19.98648"/><circle class="bg" cx="194.00667" cy="354.61066" r="0.6662"/><circle class="bh" cx="192.29672" cy="360.0359" r="0.6662"/><circle class="bi" cx="193.24595" cy="357.02418" r="4.99665"/><line class="bj" x1="211.28134" y1="299.80065" x2="192.29672" y2="360.0359"/><circle class="bk" cx="211.28134" cy="299.80065" r="13.32427"/><circle class="bl" cx="211.28134" cy="299.80065" r="6.66221"/><circle class="bm" cx="211.28134" cy="299.80065" r="5.55184"/><polyline class="bn" points="211.281 299.801 207.696 321.389 211.281 299.801 214.867 278.212 211.281 299.801 189.693 296.215 211.281 299.801 232.87 303.386 211.281 299.801 214.226 327.939 211.281 299.801 208.337 271.662 211.281 299.801 183.143 302.745 211.281 299.801 239.42 296.856 211.281 299.801 225.143 322.887 211.281 299.801 197.419 276.714 211.281 299.801 188.195 313.663 211.281 299.801 234.368 285.939 211.281 299.801 206.99 318.111 211.281 299.801 215.572 281.491 211.281 299.801 192.971 295.51 211.281 299.801 229.591 304.092 211.281 299.801 211.116 302.02 211.281 299.801 211.447 297.581 211.281 299.801 209.062 299.635 211.281 299.801 213.501 299.966 211.281 299.801 197.056 324.377 211.281 299.801 225.506 275.224 211.281 299.801 186.705 285.576 211.281 299.801 235.858 314.026 211.281 299.801 205.191 307.565 211.281 299.801 217.372 292.036 211.281 299.801 203.517 293.71 211.281 299.801 219.046 305.891 211.281 299.801 214.425 306.484 211.281 299.801 208.137 293.118 211.281 299.801 204.598 302.945 211.281 299.801 217.964 296.657 211.281 299.801 236.278 321.718 211.281 299.801 186.285 277.883 211.281 299.801 189.364 324.798 211.281 299.801 233.198 274.804 211.281 299.801 216.812 326.922 211.281 299.801 205.751 272.679 211.281 299.801 184.16 305.331 211.281 299.801 238.403 294.27 211.281 299.801 216.3 331.561 211.281 299.801 206.263 268.041 211.281 299.801 179.521 304.819 211.281 299.801 243.041 294.783 211.281 299.801 213.894 305.591 211.281 299.801 208.669 294.01 211.281 299.801 205.491 302.413 211.281 299.801 217.072 297.188 211.281 299.801 228.407 315.168 211.281 299.801 194.156 284.433 211.281 299.801 195.914 316.926 211.281 299.801 226.649 282.675 211.281 299.801 202.813 322.904 211.281 299.801 219.75 276.697 211.281 299.801 188.178 291.332 211.281 299.801 234.385 308.269 211.281 299.801 212.546 319.89 211.281 299.801 210.017 279.712 211.281 299.801 191.192 301.065 211.281 299.801 231.37 298.536"/><circle class="bo" cx="192.29672" cy="360.0359" r="9.9933"/><circle class="bp" cx="195.9629" cy="348.4041" r="2.8404"/><circle class="bq" cx="205.85868" cy="317.00614" r="1.58647"/><circle class="br" cx="199.82155" cy="336.16109" r="1.05071"/><circle class="bs" cx="198.86624" cy="339.19197" r="1.47759"/><circle class="bt" cx="196.14959" cy="347.81129" r="2.74344"/><circle class="bu" cx="232.87434" cy="114.90758" r="10.30064"/><circle class="bv" cx="324.9058" cy="195.47713" r="19.49085"/><circle class="bw" cx="336.15853" cy="278.21846" r="0.64971"/><circle class="bx" cx="337.08465" cy="285.02734" r="0.64971"/><circle class="by" cx="336.59757" cy="281.4453" r="4.87267"/><line class="bj" x1="327.34151" y1="213.38717" x2="337.08465" y2="285.02734"/><circle class="bz" cx="327.34151" cy="213.38717" r="12.99396"/><circle class="ca" cx="327.34151" cy="213.38717" r="6.49689"/><circle class="cb" cx="327.34151" cy="213.38717" r="5.41414"/><polyline class="bn" points="327.342 213.387 332.188 213.561 327.342 213.387 322.495 213.214 327.342 213.387 327.168 218.234 327.342 213.387 327.515 208.54 327.342 213.387 335.435 236.42 327.342 213.387 319.248 190.354 327.342 213.387 304.308 221.481 327.342 213.387 350.375 205.293 327.342 213.387 336.737 225.766 327.342 213.387 317.946 201.009 327.342 213.387 314.963 222.782 327.342 213.387 339.72 203.992 327.342 213.387 330.04 226.292 327.342 213.387 324.643 200.483 327.342 213.387 314.437 216.086 327.342 213.387 340.246 210.689 327.342 213.387 332.531 216.892 327.342 213.387 322.152 209.883 327.342 213.387 323.837 218.576 327.342 213.387 330.846 208.198 327.342 213.387 341.396 223.179 327.342 213.387 313.287 203.596 327.342 213.387 317.55 227.442 327.342 213.387 337.133 199.332 327.342 213.387 342.004 214.801 327.342 213.387 312.679 211.973 327.342 213.387 325.928 228.05 327.342 213.387 328.755 198.724 327.342 213.387 332.96 231.108 327.342 213.387 321.723 195.666 327.342 213.387 309.621 219.006 327.342 213.387 345.063 207.768 327.342 213.387 328.869 214.118 327.342 213.387 325.814 212.657 327.342 213.387 326.611 214.915 327.342 213.387 328.072 211.86 327.342 213.387 348.962 229.936 327.342 213.387 305.721 196.839 327.342 213.387 310.793 235.007 327.342 213.387 343.89 191.767 327.342 213.387 329.11 230.504 327.342 213.387 325.573 196.271 327.342 213.387 310.225 215.155 327.342 213.387 344.458 211.619 327.342 213.387 351.647 216.918 327.342 213.387 303.036 209.857 327.342 213.387 323.811 237.693 327.342 213.387 330.872 189.082 327.342 213.387 327.548 244.419 327.342 213.387 327.135 182.356 327.342 213.387 296.31 213.594 327.342 213.387 358.373 213.18 327.342 213.387 335.426 232.566 327.342 213.387 319.257 194.208 327.342 213.387 308.163 221.472 327.342 213.387 346.52 205.302 327.342 213.387 333.363 232.588 327.342 213.387 321.32 194.186 327.342 213.387 308.14 219.409 327.342 213.387 346.543 207.366"/><circle class="cc" cx="337.08465" cy="285.02734" r="9.74535"/><circle class="cd" cx="334.72647" cy="267.68685" r="1.10156"/><circle class="ce" cx="328.30807" cy="220.49447" r="2.14261"/><circle class="cf" cx="331.26248" cy="242.21861" r="1.97926"/><circle class="cg" cx="329.82556" cy="231.65303" r="2.49165"/><circle class="ch" cx="336.38261" cy="279.8648" r="0.70539"/></g></svg>