<svg xmlns="http://www.w3.org/2000/svg" xmlns:xlink="http://www.w3.org/1999/xlink" viewBox="0 0 523.92572 512.20828"><defs><style>.a,.i{opacity:0.72;}.a{fill:url(#a);}.b,.ba,.k,.l,.m{opacity:0.8;}.b{fill:url(#b);}.c{isolation:isolate;}.d{fill:#683c11;fill-opacity:0.51;}.e,.g{mix-blend-mode:multiply;}.e{fill:url(#c);}.f{clip-path:url(#e);}.g{fill:url(#f);}.h{opacity:0.42;fill:url(#g);}.i{fill:url(#h);}.j{clip-path:url(#j);}.k{fill:url(#k);}.l{fill:url(#l);}.bk,.m{stroke-miterlimit:10;}.m,.t{stroke-width:1.24537px;}.m{fill:url(#m);stroke:url(#n);}.bi,.bl,.bx,.bz,.n{opacity:0.5;}.o{fill:url(#o);}.aa,.ab,.ae,.ah,.ai,.al,.ao,.ap,.as,.av,.aw,.p,.s,.t,.x{mix-blend-mode:soft-light;}.p{fill:url(#p);}.q{fill:url(#q);}.r{fill:url(#r);}.s{fill:url(#s);}.ab,.ai,.ap,.aw,.bg,.bk,.t{fill:none;}.ab,.ai,.ap,.aw,.t{stroke-linecap:round;stroke-linejoin:round;}.t{stroke:url(#t);}.u{fill:url(#u);}.v{opacity:0.3;}.w{fill:url(#v);}.x{fill:url(#w);}.y{fill:url(#x);}.z{fill:url(#y);}.aa{fill:url(#z);}.ab{stroke-width:0.70381px;stroke:url(#aa);}.ac{fill:url(#ab);}.ad{fill:url(#ac);}.ae{fill:url(#ad);}.af{fill:url(#ae);}.ag{fill:url(#af);}.ah{fill:url(#ag);}.ai{stroke-width:0.37443px;stroke:url(#ah);}.aj{fill:url(#ai);}.ak{fill:url(#aj);}.al{fill:url(#ak);}.am{fill:url(#al);}.an{fill:url(#am);}.ao{fill:url(#an);}.ap{stroke-width:0.82187px;stroke:url(#ao);}.aq{fill:url(#ap);}.ar{fill:url(#aq);}.as{fill:url(#ar);}.at{fill:url(#as);}.au{fill:url(#at);}.av{fill:url(#au);}.aw{stroke-width:0.43723px;stroke:url(#av);}.ax{fill:url(#aw);}.ay{opacity:0.54;}.az{fill:url(#ax);}.ba{mix-blend-mode:hard-light;}.bb{fill:url(#ay);}.bc,.bs{opacity:0.25;}.bc,.bd,.be,.bf,.bh,.bi,.bj,.bk,.bl,.bm,.bn,.bo,.bp,.bq,.bs,.bt,.bu,.bv,.bw,.bx,.by,.bz,.ca,.cb,.cc,.cd,.ce{mix-blend-mode:screen;}.bc{fill:url(#az);}.bd{fill:url(#ba);}.be{fill:url(#bb);}.bf,.bv{opacity:0.2;}.bf{fill:url(#bc);}.bh,.bw{opacity:0.15;}.bh{fill:url(#bd);}.bi{fill:url(#be);}.bj{fill:url(#bf);}.bk{stroke:#fff;stroke-width:2.49074px;opacity:0.03;}.bl{fill:url(#bg);}.bm{fill:url(#bh);}.bn{fill:url(#bi);}.bo{fill:url(#bj);}.bp{fill:url(#bk);}.bq{fill:url(#bl);}.br{fill:url(#bm);}.bs{fill:url(#bn);}.bt{fill:url(#bo);}.bu{fill:url(#bp);}.bv{fill:url(#bq);}.bw{fill:url(#br);}.bx{fill:url(#bs);}.by{fill:url(#bt);}.bz{fill:url(#bu);}.ca{fill:url(#bv);}.cb{fill:url(#bw);}.cc{fill:url(#bx);}.cd{fill:url(#by);}.ce{fill:url(#bz);}</style><linearGradient id="a" x1="212.33609" y1="266.33651" x2="343.09733" y2="266.33651" gradientUnits="userSpaceOnUse"><stop offset="0" stop-color="#f5fbff"/><stop offset="0.62567" stop-color="#e9f1f5"/><stop offset="1" stop-color="#c5d9e0"/></linearGradient><linearGradient id="b" x1="350.51728" y1="436.99387" x2="195.81959" y2="231.96393" gradientUnits="userSpaceOnUse"><stop offset="0" stop-color="#9407bb"/><stop offset="1" stop-color="#b939f0"/></linearGradient><linearGradient id="c" x1="314.6433" y1="122.51012" x2="282.53108" y2="384.06176" gradientUnits="userSpaceOnUse"><stop offset="0" stop-color="#bfc4c7"/><stop offset="1" stop-color="#b1c3c9"/></linearGradient><clipPath id="e"><path class="a" d="M408.27354,405.7921,343.09769,176.30219V105.42046c0,7.24792-28.389,13.12353-63.409,13.12353s-63.409-5.87561-63.409-13.12353v70.88173L151.10346,405.7921a16.974,16.974,0,0,0,16.37043,21.46046H391.90311A16.974,16.974,0,0,0,408.27354,405.7921Z"/></clipPath><linearGradient id="f" x1="221.88628" y1="261.56265" x2="298.12782" y2="458.46472" gradientUnits="userSpaceOnUse"><stop offset="0" stop-color="#f5f5f5"/><stop offset="1" stop-color="#c3d1d6"/></linearGradient><linearGradient id="g" x1="494.25779" y1="310.8661" x2="264.75802" y2="310.8661" xlink:href="#b"/><linearGradient id="h" x1="279.68862" y1="79.17244" x2="279.68862" y2="118.27338" xlink:href="#a"/><clipPath id="j"><path class="b" d="M393.41635,399.67842l-55.61756-195.836h-.60171c0,6.98613-25.74021,12.64944-57.49231,12.64944s-57.49231-5.66331-57.49231-12.64944h-.63424L165.961,399.6785a13.67653,13.67653,0,0,0,13.15636,17.41308H380.26A13.67684,13.67684,0,0,0,393.41635,399.67842Z"/></clipPath><linearGradient id="k" x1="526.80883" y1="330.30908" x2="227.83872" y2="330.30908" xlink:href="#b"/><linearGradient id="l" x1="97.78874" y1="381.8145" x2="442.8878" y2="381.8145" xlink:href="#b"/><linearGradient id="m" x1="381.81038" y1="203.84242" x2="245.56373" y2="203.84242" xlink:href="#b"/><linearGradient id="n" x1="221.58982" y1="203.84242" x2="337.81985" y2="203.84242" gradientUnits="userSpaceOnUse"><stop offset="0" stop-color="#c926ff"/><stop offset="1" stop-color="#b939f0"/></linearGradient><radialGradient id="o" cx="250.35213" cy="219.93288" r="20.84617" gradientTransform="matrix(0.2537, -0.96728, 0.95587, 0.2507, -23.38948, 406.95622)" gradientUnits="userSpaceOnUse"><stop offset="0" stop-color="#9b35c7" stop-opacity="0.8"/><stop offset="0.29921" stop-color="#9e39ca" stop-opacity="0.80046"/><stop offset="0.52418" stop-color="#a644d2" stop-opacity="0.80193"/><stop offset="0.72493" stop-color="#b558e0" stop-opacity="0.8044"/><stop offset="0.91041" stop-color="#c974f3" stop-opacity="0.80787"/><stop offset="1" stop-color="#d585ff" stop-opacity="0.81"/></radialGradient><radialGradient id="p" cx="1501.27844" cy="209.25856" r="13.50603" gradientTransform="translate(-1619.0091 46.48489) scale(1.24415 0.77108)" gradientUnits="userSpaceOnUse"><stop offset="0" stop-color="#db52eb"/><stop offset="0.37881" stop-color="#db52eb" stop-opacity="0.99203"/><stop offset="0.51527" stop-color="#da53ea" stop-opacity="0.96313"/><stop offset="0.61253" stop-color="#da55ea" stop-opacity="0.91281"/><stop offset="0.69121" stop-color="#d957e9" stop-opacity="0.8409"/><stop offset="0.75863" stop-color="#d75ae7" stop-opacity="0.74715"/><stop offset="0.81834" stop-color="#d65ee5" stop-opacity="0.63133"/><stop offset="0.87231" stop-color="#d462e3" stop-opacity="0.49335"/><stop offset="0.92196" stop-color="#d267e1" stop-opacity="0.33264"/><stop offset="0.96609" stop-color="#cf6dde" stop-opacity="0.15775"/><stop offset="1" stop-color="#cd72dc" stop-opacity="0"/></radialGradient><radialGradient id="q" cx="262.02498" cy="208.91626" r="1.70715" gradientTransform="matrix(0.2537, -0.96728, 0.95587, 0.2507, -4.14751, 409.99247)" gradientUnits="userSpaceOnUse"><stop offset="0" stop-color="#e9c1eb"/><stop offset="0.37881" stop-color="#e9c0eb" stop-opacity="0.99203"/><stop offset="0.51527" stop-color="#e8beea" stop-opacity="0.96313"/><stop offset="0.61253" stop-color="#e7baea" stop-opacity="0.91281"/><stop offset="0.69121" stop-color="#e5b4e9" stop-opacity="0.8409"/><stop offset="0.75863" stop-color="#e2ade7" stop-opacity="0.74715"/><stop offset="0.81834" stop-color="#dfa4e5" stop-opacity="0.63133"/><stop offset="0.87231" stop-color="#db99e3" stop-opacity="0.49335"/><stop offset="0.92196" stop-color="#d68ce1" stop-opacity="0.33264"/><stop offset="0.96609" stop-color="#d17ede" stop-opacity="0.15775"/><stop offset="1" stop-color="#cd72dc" stop-opacity="0"/></radialGradient><radialGradient id="r" cx="264.83221" cy="211.27596" r="0.61895" gradientTransform="matrix(0.2537, -0.96728, 0.95587, 0.2507, -4.30805, 414.47597)" gradientUnits="userSpaceOnUse"><stop offset="0" stop-color="#e9c1eb"/><stop offset="0.22496" stop-color="#e9c0eb" stop-opacity="0.98901"/><stop offset="0.3644" stop-color="#e8bdea" stop-opacity="0.95275"/><stop offset="0.48062" stop-color="#e6b8e9" stop-opacity="0.89088"/><stop offset="0.58411" stop-color="#e3b1e8" stop-opacity="0.80322"/><stop offset="0.67914" stop-color="#e0a8e6" stop-opacity="0.68961"/><stop offset="0.7679" stop-color="#dc9de4" stop-opacity="0.55"/><stop offset="0.85188" stop-color="#d890e2" stop-opacity="0.38414"/><stop offset="0.92991" stop-color="#d382df" stop-opacity="0.19725"/><stop offset="1" stop-color="#cd72dc" stop-opacity="0"/></radialGradient><radialGradient id="s" cx="240.72086" cy="234.78818" r="0.61895" gradientTransform="matrix(0.2537, -0.96728, 0.95587, 0.2507, -44.7771, 408.77105)" xlink:href="#r"/><radialGradient id="t" cx="236.08668" cy="227.60328" r="5.45098" gradientTransform="matrix(1, 0, 0, 1, 0, 0)" xlink:href="#q"/><radialGradient id="u" cx="260.22812" cy="231.8664" r="2.48527" gradientTransform="translate(0 33.68329) scale(1 0.85473)" gradientUnits="userSpaceOnUse"><stop offset="0" stop-color="#db52eb"/><stop offset="0.09168" stop-color="#db53eb" stop-opacity="0.96822"/><stop offset="0.22975" stop-color="#d956e9" stop-opacity="0.88033"/><stop offset="0.39704" stop-color="#d75ae7" stop-opacity="0.73641"/><stop offset="0.58721" stop-color="#d561e4" stop-opacity="0.53628"/><stop offset="0.79369" stop-color="#d169e0" stop-opacity="0.2836"/><stop offset="1" stop-color="#cd72dc" stop-opacity="0"/></radialGradient><radialGradient id="v" cx="310.52965" cy="189.59604" r="11.78101" gradientTransform="matrix(0.2537, -0.96728, 0.95587, 0.2507, 50.51934, 442.43369)" xlink:href="#o"/><radialGradient id="w" cx="1551.57305" cy="186.65118" r="7.6328" gradientTransform="translate(-1620.73445 38.83916) scale(1.24415 0.77108)" xlink:href="#p"/><radialGradient id="x" cx="317.12645" cy="183.37011" r="0.96478" gradientTransform="matrix(0.2537, -0.96728, 0.95587, 0.2507, 61.39374, 444.1496)" xlink:href="#q"/><radialGradient id="y" cx="318.71293" cy="184.70367" r="0.34979" gradientTransform="matrix(0.2537, -0.96728, 0.95587, 0.2507, 61.30302, 446.68341)" xlink:href="#r"/><radialGradient id="z" cx="305.08663" cy="197.99137" r="0.34979" gradientTransform="matrix(0.2537, -0.96728, 0.95587, 0.2507, 38.43233, 443.45933)" xlink:href="#r"/><radialGradient id="aa" cx="302.46767" cy="193.93089" r="3.08057" gradientTransform="matrix(1, 0, 0, 1, 0, 0)" xlink:href="#q"/><radialGradient id="ab" cx="316.11097" cy="196.34015" r="1.40453" gradientTransform="translate(0 28.52239) scale(1 0.85473)" xlink:href="#u"/><radialGradient id="ac" cx="284.25419" cy="161.67473" r="6.26748" gradientTransform="matrix(0.2537, -0.96728, 0.95587, 0.2507, 57.59912, 396.09656)" xlink:href="#o"/><radialGradient id="ad" cx="1532.34754" cy="157.15238" r="4.06064" gradientTransform="translate(-1622.6822 36.86231) scale(1.24415 0.77108)" xlink:href="#p"/><radialGradient id="ae" cx="287.76367" cy="158.36254" r="0.51326" gradientTransform="matrix(0.2537, -0.96728, 0.95587, 0.2507, 63.38429, 397.00942)" xlink:href="#q"/><radialGradient id="af" cx="288.60768" cy="159.07199" r="0.18609" gradientTransform="matrix(0.2537, -0.96728, 0.95587, 0.2507, 63.33602, 398.3574)" xlink:href="#r"/><radialGradient id="ag" cx="281.35851" cy="166.14103" r="0.18609" gradientTransform="matrix(0.2537, -0.96728, 0.95587, 0.2507, 51.16885, 396.64219)" xlink:href="#r"/><radialGradient id="ah" cx="279.96523" cy="163.98086" r="1.63886" gradientTransform="matrix(1, 0, 0, 1, 0, 0)" xlink:href="#q"/><radialGradient id="ai" cx="287.22344" cy="165.26258" r="0.74721" gradientTransform="translate(0 24.00774) scale(1 0.85473)" xlink:href="#u"/><radialGradient id="aj" cx="283.64955" cy="261.31894" r="13.75721" gradientTransform="matrix(0.2537, -0.96728, 0.95587, 0.2507, -38.09935, 470.17465)" xlink:href="#o"/><radialGradient id="ak" cx="1525.6142" cy="262.38936" r="8.91317" gradientTransform="translate(-1615.46415 51.0157) scale(1.24415 0.77108)" xlink:href="#p"/><radialGradient id="al" cx="291.35292" cy="254.04864" r="1.12662" gradientTransform="matrix(0.2537, -0.96728, 0.95587, 0.2507, -25.40082, 472.17839)" xlink:href="#q"/><radialGradient id="am" cx="293.20552" cy="255.6059" r="0.40847" gradientTransform="matrix(0.2537, -0.96728, 0.95587, 0.2507, -25.50676, 475.13723)" xlink:href="#r"/><radialGradient id="an" cx="277.29349" cy="271.12254" r="0.40847" gradientTransform="matrix(0.2537, -0.96728, 0.95587, 0.2507, -52.2139, 471.37233)" xlink:href="#r"/><radialGradient id="ao" cx="274.23521" cy="266.38094" r="3.59732" gradientTransform="matrix(1, 0, 0, 1, 0, 0)" xlink:href="#q"/><radialGradient id="ap" cx="290.16711" cy="269.19434" r="1.64013" gradientTransform="translate(0 39.10593) scale(1 0.85473)" xlink:href="#u"/><radialGradient id="aq" cx="255.88505" cy="300.95771" r="7.31881" gradientTransform="matrix(0.2537, -0.96728, 0.95587, 0.2507, -96.70971, 473.01964)" xlink:href="#o"/><radialGradient id="ar" cx="1501.10271" cy="308.03865" r="4.74179" gradientTransform="translate(-1612.25589 59.19062) scale(1.24415 0.77108)" xlink:href="#p"/><radialGradient id="as" cx="259.98323" cy="297.08992" r="0.59936" gradientTransform="matrix(0.2537, -0.96728, 0.95587, 0.2507, -89.95411, 474.08563)" xlink:href="#q"/><radialGradient id="at" cx="260.96881" cy="297.91838" r="0.21731" gradientTransform="matrix(0.2537, -0.96728, 0.95587, 0.2507, -90.01047, 475.65973)" xlink:href="#r"/><radialGradient id="au" cx="252.50363" cy="306.1732" r="0.21731" gradientTransform="matrix(0.2537, -0.96728, 0.95587, 0.2507, -104.21862, 473.6568)" xlink:href="#r"/><radialGradient id="av" cx="250.87663" cy="303.65068" r="1.91377" gradientTransform="matrix(1, 0, 0, 1, 0, 0)" xlink:href="#q"/><radialGradient id="aw" cx="259.35238" cy="305.14741" r="0.87255" gradientTransform="translate(0 44.32884) scale(1 0.85473)" xlink:href="#u"/><radialGradient id="ax" cx="329.14862" cy="187.69262" r="96.86305" gradientTransform="translate(304.83549 -141.27693) rotate(81.99169) scale(1 0.11591)" gradientUnits="userSpaceOnUse"><stop offset="0" stop-color="#e6f3ff"/><stop offset="1" stop-color="#b9cbf0" stop-opacity="0"/></radialGradient><radialGradient id="ay" cx="211.2887" cy="310.46718" r="79.87596" gradientTransform="matrix(0.2537, -0.96728, 0.15236, 0.03996, 110.3838, 502.43713)" xlink:href="#ax"/><radialGradient id="az" cx="216.03486" cy="284.802" r="19.98648" gradientUnits="userSpaceOnUse"><stop offset="0.1"/><stop offset="0.11244" stop-color="#080602"/><stop offset="0.16172" stop-color="#231b08"/><stop offset="0.21838" stop-color="#392c0d"/><stop offset="0.28458" stop-color="#4a3910"/><stop offset="0.36644" stop-color="#554213"/><stop offset="0.48125" stop-color="#5c4815"/><stop offset="0.8" stop-color="#5e4915"/><stop offset="1"/></radialGradient><radialGradient id="ba" cx="194.01404" cy="354.67079" r="0.6662" gradientUnits="userSpaceOnUse"><stop offset="0" stop-color="#d4e194"/><stop offset="0.05952" stop-color="#afba7a"/><stop offset="0.13651" stop-color="#868f5e"/><stop offset="0.21955" stop-color="#626845"/><stop offset="0.30759" stop-color="#44482f"/><stop offset="0.40211" stop-color="#2b2e1e"/><stop offset="0.50556" stop-color="#181911"/><stop offset="0.62249" stop-color="#0a0b07"/><stop offset="0.76429" stop-color="#020302"/><stop offset="1"/></radialGradient><radialGradient id="bb" cx="192.30409" cy="360.09603" r="0.6662" xlink:href="#ba"/><radialGradient id="bc" cx="193.25332" cy="357.08431" r="4.99665" gradientUnits="userSpaceOnUse"><stop offset="0.05"/><stop offset="0.09242" stop-color="#040a03"/><stop offset="0.29802" stop-color="#183411"/><stop offset="0.48337" stop-color="#25531c"/><stop offset="0.64031" stop-color="#2e6622"/><stop offset="0.75" stop-color="#316d24"/><stop offset="0.78593" stop-color="#4f6e16"/><stop offset="0.83397" stop-color="#716f06"/><stop offset="0.86" stop-color="#7e6f00"/><stop offset="0.88764" stop-color="#7a6c00"/><stop offset="0.91229" stop-color="#706200"/><stop offset="0.93581" stop-color="#5d5200"/><stop offset="0.95863" stop-color="#443c00"/><stop offset="0.98074" stop-color="#231f00"/><stop offset="1"/></radialGradient><radialGradient id="bd" cx="211.2887" cy="299.86077" r="13.32427" gradientUnits="userSpaceOnUse"><stop offset="0" stop-color="#200"/><stop offset="0.73" stop-color="#984023"/><stop offset="1" stop-color="#200"/></radialGradient><radialGradient id="be" cx="211.2887" cy="299.86077" r="6.66221" gradientUnits="userSpaceOnUse"><stop offset="0.15" stop-color="#fff"/><stop offset="0.20939" stop-color="#e5d3d3"/><stop offset="0.29044" stop-color="#c49c9e"/><stop offset="0.36051" stop-color="#ad7477"/><stop offset="0.41599" stop-color="#9e5c5f"/><stop offset="0.45" stop-color="#995356"/><stop offset="0.57175" stop-color="#6b3335"/><stop offset="0.69355" stop-color="#431718"/><stop offset="0.79053" stop-color="#2b0606"/><stop offset="0.85" stop-color="#200"/><stop offset="0.85727" stop-color="#260201"/><stop offset="0.8648" stop-color="#330704"/><stop offset="0.87246" stop-color="#471009"/><stop offset="0.8802" stop-color="#641d0f"/><stop offset="0.88801" stop-color="#8a2e18"/><stop offset="0.89577" stop-color="#b74223"/><stop offset="0.9" stop-color="#d34e29"/><stop offset="0.90254" stop-color="#c84927"/><stop offset="0.91417" stop-color="#9c361c"/><stop offset="0.92635" stop-color="#772514"/><stop offset="0.93893" stop-color="#58180c"/><stop offset="0.95205" stop-color="#400d07"/><stop offset="0.96594" stop-color="#2f0603"/><stop offset="0.98111" stop-color="#250101"/><stop offset="1" stop-color="#200"/></radialGradient><radialGradient id="bf" cx="211.2887" cy="299.86077" r="5.55184" gradientUnits="userSpaceOnUse"><stop offset="0.15" stop-color="#fff"/><stop offset="0.28237" stop-color="#c2c2c2"/><stop offset="0.42528" stop-color="#888"/><stop offset="0.5636" stop-color="#575757"/><stop offset="0.69361" stop-color="#313131"/><stop offset="0.81336" stop-color="#161616"/><stop offset="0.91921" stop-color="#060606"/><stop offset="1"/></radialGradient><radialGradient id="bg" cx="192.30409" cy="360.09603" r="9.9933" gradientUnits="userSpaceOnUse"><stop offset="0.64"/><stop offset="0.71799" stop-color="#000200"/><stop offset="0.74608" stop-color="#020902"/><stop offset="0.76609" stop-color="#051405"/><stop offset="0.78228" stop-color="#082509"/><stop offset="0.79598" stop-color="#0d3b0e"/><stop offset="0.8" stop-color="#0f4310"/><stop offset="0.8131" stop-color="#1e2c0a"/><stop offset="0.82975" stop-color="#2d1605"/><stop offset="0.84569" stop-color="#360901"/><stop offset="0.86" stop-color="#390400"/><stop offset="0.8715" stop-color="#250300"/><stop offset="0.88602" stop-color="#140100"/><stop offset="0.90412" stop-color="#090100"/><stop offset="0.92951" stop-color="#020000"/><stop offset="1"/></radialGradient><radialGradient id="bh" cx="195.97027" cy="348.46423" r="2.8404" gradientUnits="userSpaceOnUse"><stop offset="0.1"/><stop offset="0.24639" stop-color="#1b1103"/><stop offset="0.42619" stop-color="#362207"/><stop offset="0.61009" stop-color="#492e09"/><stop offset="0.79889" stop-color="#54350b"/><stop offset="1" stop-color="#58370b"/></radialGradient><radialGradient id="bi" cx="205.86605" cy="317.06626" r="1.58647" gradientUnits="userSpaceOnUse"><stop offset="0.1" stop-color="#192f1b"/><stop offset="0.2285" stop-color="#122214"/><stop offset="0.47516" stop-color="#080f09"/><stop offset="0.72928" stop-color="#020402"/><stop offset="1"/></radialGradient><radialGradient id="bj" cx="199.82892" cy="336.22122" r="1.05071" xlink:href="#bh"/><radialGradient id="bk" cx="198.87361" cy="339.2521" r="1.47759" gradientUnits="userSpaceOnUse"><stop offset="0.1"/><stop offset="0.29001" stop-color="#14160e"/><stop offset="0.51699" stop-color="#25291a"/><stop offset="0.75084" stop-color="#303422"/><stop offset="1" stop-color="#333824"/></radialGradient><radialGradient id="bl" cx="196.15696" cy="347.87142" r="2.74344" xlink:href="#bi"/><radialGradient id="bm" cx="232.88171" cy="114.96771" r="10.30064" gradientUnits="userSpaceOnUse"><stop offset="0" stop-color="#fff"/><stop offset="1" stop-color="#b9cbf0" stop-opacity="0"/></radialGradient><radialGradient id="bn" cx="324.91316" cy="195.53726" r="19.49085" xlink:href="#az"/><radialGradient id="bo" cx="336.1659" cy="278.27859" r="0.64971" xlink:href="#ba"/><radialGradient id="bp" cx="337.09202" cy="285.08747" r="0.64971" xlink:href="#ba"/><radialGradient id="bq" cx="336.60494" cy="281.50543" r="4.87267" xlink:href="#bc"/><radialGradient id="br" cx="327.34887" cy="213.4473" r="12.99396" xlink:href="#bd"/><radialGradient id="bs" cx="327.34887" cy="213.4473" r="6.49689" xlink:href="#be"/><radialGradient id="bt" cx="327.34887" cy="213.4473" r="5.41414" xlink:href="#bf"/><radialGradient id="bu" cx="337.09202" cy="285.08747" r="9.74535" xlink:href="#bg"/><radialGradient id="bv" cx="334.73384" cy="267.74698" r="1.10156" gradientUnits="userSpaceOnUse"><stop offset="0.1"/><stop offset="0.2047" stop-color="#1c1713"/><stop offset="0.35581" stop-color="#3e3229"/><stop offset="0.51018" stop-color="#59473b"/><stop offset="0.66721" stop-color="#6c5647"/><stop offset="0.82838" stop-color="#775f4f"/><stop offset="1" stop-color="#7b6251"/></radialGradient><radialGradient id="bw" cx="328.31544" cy="220.5546" r="2.14261" gradientUnits="userSpaceOnUse"><stop offset="0.1" stop-color="#393a2f"/><stop offset="0.30165" stop-color="#21221c"/><stop offset="0.52494" stop-color="#0f0f0c"/><stop offset="0.75495" stop-color="#040403"/><stop offset="1"/></radialGradient><radialGradient id="bx" cx="331.26985" cy="242.27874" r="1.97926" gradientUnits="userSpaceOnUse"><stop offset="0.1"/><stop offset="0.11031" stop-color="#010100"/><stop offset="0.32262" stop-color="#1c0e05"/><stop offset="0.53968" stop-color="#2f1808"/><stop offset="0.76257" stop-color="#3a1e09"/><stop offset="1" stop-color="#3e200a"/></radialGradient><radialGradient id="by" cx="329.83293" cy="231.71315" r="2.49165" gradientUnits="userSpaceOnUse"><stop offset="0.1" stop-color="#7e9c95"/><stop offset="0.15454" stop-color="#6e8983"/><stop offset="0.2879" stop-color="#4d5f5b"/><stop offset="0.42427" stop-color="#313d3a"/><stop offset="0.56231" stop-color="#1c2221"/><stop offset="0.70265" stop-color="#0c0f0e"/><stop offset="0.84664" stop-color="#030404"/><stop offset="1"/></radialGradient><radialGradient id="bz" cx="336.38998" cy="279.92492" r="0.70539" gradientUnits="userSpaceOnUse"><stop offset="0.1"/><stop offset="0.22259" stop-color="#1b1722"/><stop offset="0.37027" stop-color="#352e44"/><stop offset="0.52121" stop-color="#4a3f5f"/><stop offset="0.67469" stop-color="#584c72"/><stop offset="0.8322" stop-color="#61547d"/><stop offset="1" stop-color="#645681"/></radialGradient></defs><g class="c"><ellipse class="d" cx="269.16211" cy="422.31892" rx="144.19211" ry="23.28088"/><path class="e" d="M399.73138,403.24534,339.4132,176.10478l.00786-66.2699c-17.75085,8.70907-35.47442,8.70911-59.7324,8.70911-25.04091,0-46.68471-3.005-56.99034-7.36688l-2.97676-3.17144.60953,68.81453L159.64563,403.24534a14.43621,14.43621,0,0,0,13.887,18.37994H385.8444A14.43607,14.43607,0,0,0,399.73138,403.24534Z"/><path class="a" d="M408.27354,405.7921,343.09769,176.30219V105.42046c0,7.24792-28.389,13.12353-63.409,13.12353s-63.409-5.87561-63.409-13.12353v70.88173L151.10346,405.7921a16.974,16.974,0,0,0,16.37043,21.46046H391.90311A16.974,16.974,0,0,0,408.27354,405.7921Z"/><g class="f"><path class="g" d="M401.267,411.05c0-12.68914-54.23417-24.21532-121.13541-24.21532S158.99621,398.84266,158.99621,411.5318s11.8099,10.1263,121.13541,11.13876C383.89705,423.63154,401.267,423.73917,401.267,411.05Z"/><path class="h" d="M303.66379,192.6311c-2.80175-.31817-5.59681-.69124-8.39593-1.03119a108.84184,108.84184,0,0,0-15.01055-1.03272c-2.193.03845-4.39639.36006-6.55272.20572a62.462,62.462,0,0,0-7.14072-.04067c-9.72284.4182-19.28129,2.38687-28.77975,4.37841q-4.31316.90434-8.64184,1.73241c-6.01064,1.14983-12.15182,2.21117-17.73607,4.82648-1.48031.69328-2.55343,1.04806-3.08164,2.5374-.19881.56054-.33629,1.15158-.503,1.72256l-4.59562,15.73722-6.853,23.46721-8.36328,28.63913-9.12658,31.253-9.14285,31.30872-8.41213,28.80639-6.93436,23.746-4.7096,16.12751-1.73781,5.95093,7.5377,20.20929H412.85629V388.52244l-61.93708-184.68c-5.89651-2.38476-11.9462-4.22669-17.94789-6.30536-5.53008-1.91533-11.61122-2.03905-17.2549-3.68935C312.01132,192.76428,307.50987,193.06785,303.66379,192.6311Z"/></g><ellipse class="i" cx="279.68862" cy="105.42044" rx="63.4091" ry="13.12351"/><path class="b" d="M393.41635,399.67842l-55.61756-195.836h-.60171c0,6.98613-25.74021,12.64944-57.49231,12.64944s-57.49231-5.66331-57.49231-12.64944h-.63424L165.961,399.6785a13.67653,13.67653,0,0,0,13.15636,17.41308H380.26A13.67684,13.67684,0,0,0,393.41635,399.67842Z"/><g class="j"><path class="k" d="M257.42027,262.65939c-28.84182,4.469-58.13245,6.29623-86.57757,12.83056s-56.625,18.32337-76.76011,39.45151c-11.66189,12.237-20.57246,28.81609-17.95551,45.51626,2.05122,13.09,11.00468,24.3366,21.93309,31.82829s23.74412,11.69316,36.51424,15.22582c74.25135,20.54052,156.51867,20.7286,225.64542-13.28124,13.90016-6.83877,27.29-15.09293,38.188-26.10276s19.21421-24.981,21.62539-40.28357c2.48517-15.77218-1.48981-32.23248-9.715-45.91765A92.185,92.185,0,0,0,383.045,253.699a89.44675,89.44675,0,0,0-16.51159-8.80486c-7.67978-3.18382-12.1877-7.99134-20.31777-4.91245-9.51759,3.60436-19.31018,6.61892-29.08109,9.451A476.87816,476.87816,0,0,1,257.42027,262.65939Z"/><path class="l" d="M279.54125,314.16481c-28.84182,4.469-58.13245,6.29623-86.57757,12.83056s-56.625,18.32337-76.76012,39.4515c-11.66189,12.237-20.57245,28.8161-17.9555,45.51627,2.05122,13.09,11.00468,24.3366,21.93309,31.82829s23.74412,11.69316,36.51424,15.22582c74.25135,20.54052,156.51867,20.7286,225.64542-13.28124,13.90015-6.83877,27.29-15.09294,38.188-26.10276s19.21421-24.981,21.62539-40.28357c2.48516-15.77218-1.48981-32.23248-9.715-45.91765A92.185,92.185,0,0,0,405.166,305.20445a89.44652,89.44652,0,0,0-16.5116-8.80486c-7.67977-3.18382-12.18769-7.99134-20.31776-4.91245-9.51759,3.60436-19.31018,6.61892-29.0811,9.45095A476.87762,476.87762,0,0,1,279.54125,314.16481Z"/></g><ellipse class="m" cx="279.70483" cy="203.84242" rx="57.49233" ry="12.64945"/><g class="n"><circle class="o" cx="250.35213" cy="219.93288" r="21.94151"/><ellipse class="p" cx="248.80854" cy="207.83909" rx="14.66347" ry="8.84042" transform="matrix(0.99712, -0.07578, 0.07578, 0.99712, -15.03387, 19.4513)"/><circle class="q" cx="262.02498" cy="208.91626" r="1.79686"/><circle class="r" cx="264.83221" cy="211.27596" r="0.65147"/><circle class="s" cx="240.72086" cy="234.78818" r="0.65147"/><path class="t" d="M232.89436,221.53452c-.2153,4.23544,2.3335,10.34467,6.39728,12.13752"/><circle class="u" cx="260.22812" cy="231.8664" r="1.99438"/></g><g class="v"><circle class="w" cx="310.52965" cy="189.59604" r="12.40003"/><ellipse class="x" cx="309.6573" cy="182.76136" rx="8.28692" ry="4.99608" transform="translate(-12.95863 23.99008) rotate(-4.34581)"/><circle class="y" cx="317.12645" cy="183.37011" r="1.01548"/><circle class="z" cx="318.71293" cy="184.70367" r="0.36817"/><circle class="aa" cx="305.08663" cy="197.99137" r="0.36817"/><path class="ab" d="M300.66356,190.50119c-.12167,2.39362,1.31875,5.84619,3.61536,6.8594"/><circle class="ac" cx="316.11097" cy="196.34015" r="1.1271"/></g><g class="v"><circle class="ad" cx="284.25419" cy="161.67473" r="6.59679"/><ellipse class="ae" cx="283.7901" cy="158.03869" rx="4.40863" ry="2.6579" transform="translate(-11.15961 21.95888) rotate(-4.34581)"/><circle class="af" cx="287.76367" cy="158.36254" r="0.54023"/><circle class="ag" cx="288.60768" cy="159.07199" r="0.19587"/><circle class="ah" cx="281.35851" cy="166.14103" r="0.19587"/><path class="ai" d="M279.00544,162.15627a4.10839,4.10839,0,0,0,1.92337,3.64919"/><circle class="aj" cx="287.22344" cy="165.26258" r="0.59962"/></g><g class="v"><circle class="ak" cx="283.64955" cy="261.31894" r="14.48007"/><ellipse class="al" cx="282.63087" cy="253.33777" rx="9.67701" ry="5.83414" transform="translate(-18.38434 22.14504) rotate(-4.34581)"/><circle class="am" cx="291.35292" cy="254.04864" r="1.18582"/><circle class="an" cx="293.20552" cy="255.6059" r="0.42993"/><circle class="ao" cx="277.29349" cy="271.12254" r="0.42993"/><path class="ap" d="M272.12847,262.37592c-.14208,2.79514,1.54,6.82687,4.22182,8.01"/><circle class="aq" cx="290.16711" cy="269.19434" r="1.31617"/></g><g class="v"><circle class="ar" cx="255.88505" cy="300.95771" r="7.70337"/><ellipse class="as" cx="255.34311" cy="296.71174" rx="5.14815" ry="3.10376" transform="translate(-21.7495 20.20199) rotate(-4.34581)"/><circle class="at" cx="259.98323" cy="297.08992" r="0.63085"/><circle class="au" cx="260.96881" cy="297.91838" r="0.22872"/><circle class="av" cx="252.50363" cy="306.1732" r="0.22872"/><path class="aw" d="M249.75585,301.52c-.07559,1.487.81926,3.63188,2.246,4.26132"/><circle class="ax" cx="259.35238" cy="305.14741" r="0.7002"/></g><g class="ay"><path class="az" d="M343.09156,287.05752a6.22824,6.22824,0,0,1-6.087-4.945l-20.168-95.75738a6.228,6.228,0,0,1-.13378-1.28307v-57.658a6.22685,6.22685,0,0,1,12.45371,0v57.00979l20.03418,95.12253a6.23272,6.23272,0,0,1-6.09916,7.51115Z"/></g><g class="ba"><path class="bb" d="M191.17061,393.98889a6.85622,6.85622,0,0,1-6.63063-8.59051l40.24714-153.34059a6.84962,6.84962,0,0,1,13.25031,3.47828l-40.24714,153.3406A6.85073,6.85073,0,0,1,191.17061,393.98889Z"/></g><circle class="bc" cx="216.03486" cy="284.802" r="19.98648"/><circle class="bd" cx="194.01404" cy="354.67079" r="0.6662"/><circle class="be" cx="192.30409" cy="360.09603" r="0.6662"/><circle class="bf" cx="193.25332" cy="357.08431" r="4.99665"/><line class="bg" x1="211.2887" y1="299.86077" x2="192.30409" y2="360.09603"/><circle class="bh" cx="211.2887" cy="299.86077" r="13.32427"/><circle class="bi" cx="211.2887" cy="299.86077" r="6.66221"/><circle class="bj" cx="211.2887" cy="299.86077" r="5.55184"/><polyline class="bk" points="211.289 299.861 207.703 321.449 211.289 299.861 214.874 278.272 211.289 299.861 189.7 296.275 211.289 299.861 232.877 303.446 211.289 299.861 214.233 327.999 211.289 299.861 208.344 271.723 211.289 299.861 183.15 302.805 211.289 299.861 239.427 296.916 211.289 299.861 225.151 322.947 211.289 299.861 197.427 276.774 211.289 299.861 188.202 313.723 211.289 299.861 234.376 285.999 211.289 299.861 206.998 318.171 211.289 299.861 215.58 281.551 211.289 299.861 192.979 295.57 211.289 299.861 229.599 304.152 211.289 299.861 211.123 302.08 211.289 299.861 211.454 297.642 211.289 299.861 209.069 299.695 211.289 299.861 213.508 300.026 211.289 299.861 197.064 324.437 211.289 299.861 225.514 275.284 211.289 299.861 186.712 285.636 211.289 299.861 235.865 314.086 211.289 299.861 205.198 307.625 211.289 299.861 217.379 292.096 211.289 299.861 203.524 293.77 211.289 299.861 219.053 305.951 211.289 299.861 214.433 306.544 211.289 299.861 208.145 293.178 211.289 299.861 204.606 303.005 211.289 299.861 217.972 296.717 211.289 299.861 236.286 321.778 211.289 299.861 186.292 277.944 211.289 299.861 189.372 324.858 211.289 299.861 233.206 274.864 211.289 299.861 216.819 326.983 211.289 299.861 205.758 272.739 211.289 299.861 184.167 305.391 211.289 299.861 238.41 294.331 211.289 299.861 216.307 331.621 211.289 299.861 206.27 268.101 211.289 299.861 179.529 304.879 211.289 299.861 243.049 294.843 211.289 299.861 213.901 305.651 211.289 299.861 208.676 294.07 211.289 299.861 205.498 302.473 211.289 299.861 217.079 297.248 211.289 299.861 228.414 315.228 211.289 299.861 194.163 284.493 211.289 299.861 195.921 316.986 211.289 299.861 226.656 282.735 211.289 299.861 202.82 322.964 211.289 299.861 219.757 276.757 211.289 299.861 188.185 291.392 211.289 299.861 234.392 308.329 211.289 299.861 212.553 319.95 211.289 299.861 210.024 279.772 211.289 299.861 191.2 301.125 211.289 299.861 231.378 298.597"/><circle class="bl" cx="192.30409" cy="360.09603" r="9.9933"/><circle class="bm" cx="195.97027" cy="348.46423" r="2.8404"/><circle class="bn" cx="205.86605" cy="317.06626" r="1.58647"/><circle class="bo" cx="199.82892" cy="336.22122" r="1.05071"/><circle class="bp" cx="198.87361" cy="339.2521" r="1.47759"/><circle class="bq" cx="196.15696" cy="347.87142" r="2.74344"/><circle class="br" cx="232.88171" cy="114.96771" r="10.30064"/><circle class="bs" cx="324.91316" cy="195.53726" r="19.49085"/><circle class="bt" cx="336.1659" cy="278.27859" r="0.64971"/><circle class="bu" cx="337.09202" cy="285.08747" r="0.64971"/><circle class="bv" cx="336.60494" cy="281.50543" r="4.87267"/><line class="bg" x1="327.34887" y1="213.4473" x2="337.09202" y2="285.08747"/><circle class="bw" cx="327.34887" cy="213.4473" r="12.99396"/><circle class="bx" cx="327.34887" cy="213.4473" r="6.49689"/><circle class="by" cx="327.34887" cy="213.4473" r="5.41414"/><polyline class="bk" points="327.349 213.447 332.196 213.621 327.349 213.447 322.502 213.274 327.349 213.447 327.175 218.294 327.349 213.447 327.522 208.601 327.349 213.447 335.443 236.481 327.349 213.447 319.255 190.414 327.349 213.447 304.316 221.541 327.349 213.447 350.382 205.354 327.349 213.447 336.744 225.826 327.349 213.447 317.954 201.069 327.349 213.447 314.971 222.842 327.349 213.447 339.727 204.052 327.349 213.447 330.047 226.352 327.349 213.447 324.65 200.543 327.349 213.447 314.445 216.146 327.349 213.447 340.253 210.749 327.349 213.447 332.538 216.952 327.349 213.447 322.16 209.943 327.349 213.447 323.844 218.636 327.349 213.447 330.853 208.258 327.349 213.447 341.404 223.239 327.349 213.447 313.294 203.656 327.349 213.447 317.557 227.502 327.349 213.447 337.14 199.393 327.349 213.447 342.012 214.861 327.349 213.447 312.686 212.034 327.349 213.447 325.935 228.11 327.349 213.447 328.763 198.784 327.349 213.447 332.968 231.168 327.349 213.447 321.73 195.726 327.349 213.447 309.628 219.066 327.349 213.447 345.07 207.828 327.349 213.447 328.876 214.178 327.349 213.447 325.821 212.717 327.349 213.447 326.618 214.975 327.349 213.447 328.079 211.92 327.349 213.447 348.969 229.996 327.349 213.447 305.729 196.899 327.349 213.447 310.8 235.067 327.349 213.447 343.897 191.827 327.349 213.447 329.117 230.564 327.349 213.447 325.581 196.331 327.349 213.447 310.232 215.215 327.349 213.447 344.465 211.679 327.349 213.447 351.654 216.978 327.349 213.447 303.043 209.917 327.349 213.447 323.818 237.753 327.349 213.447 330.879 189.142 327.349 213.447 327.556 244.479 327.349 213.447 327.142 182.416 327.349 213.447 296.317 213.654 327.349 213.447 358.381 213.241 327.349 213.447 335.434 232.626 327.349 213.447 319.264 194.269 327.349 213.447 308.17 221.532 327.349 213.447 346.527 205.363 327.349 213.447 333.37 232.648 327.349 213.447 321.328 194.246 327.349 213.447 308.148 219.469 327.349 213.447 346.55 207.426"/><circle class="bz" cx="337.09202" cy="285.08747" r="9.74535"/><circle class="ca" cx="334.73384" cy="267.74698" r="1.10156"/><circle class="cb" cx="328.31544" cy="220.5546" r="2.14261"/><circle class="cc" cx="331.26985" cy="242.27874" r="1.97926"/><circle class="cd" cx="329.83293" cy="231.71315" r="2.49165"/><circle class="ce" cx="336.38998" cy="279.92492" r="0.70539"/></g></svg>