<svg xmlns="http://www.w3.org/2000/svg" xmlns:xlink="http://www.w3.org/1999/xlink" viewBox="0 0 523.92572 512.20828"><defs><style>.a,.i{opacity:0.72;}.a{fill:url(#a);}.b,.ba,.k,.l,.m{opacity:0.8;}.b{fill:url(#b);}.c{isolation:isolate;}.d{fill:#683c11;fill-opacity:0.51;}.e,.g{mix-blend-mode:multiply;}.e{fill:url(#c);}.f{clip-path:url(#e);}.g{fill:url(#f);}.h{opacity:0.42;fill:url(#g);}.i{fill:url(#h);}.j{clip-path:url(#j);}.k{fill:url(#k);}.l{fill:url(#l);}.bk,.m{stroke-miterlimit:10;}.m,.t{stroke-width:1.24537px;}.m{fill:url(#m);stroke:url(#n);}.bi,.bl,.bx,.bz,.n{opacity:0.5;}.o{fill:url(#o);}.aa,.ab,.ae,.ah,.ai,.al,.ao,.ap,.as,.av,.aw,.p,.s,.t,.x{mix-blend-mode:soft-light;}.p{fill:url(#p);}.q{fill:url(#q);}.r{fill:url(#r);}.s{fill:url(#s);}.ab,.ai,.ap,.aw,.bg,.bk,.t{fill:none;}.ab,.ai,.ap,.aw,.t{stroke-linecap:round;stroke-linejoin:round;}.t{stroke:url(#t);}.u{fill:url(#u);}.v{opacity:0.3;}.w{fill:url(#v);}.x{fill:url(#w);}.y{fill:url(#x);}.z{fill:url(#y);}.aa{fill:url(#z);}.ab{stroke-width:0.70381px;stroke:url(#aa);}.ac{fill:url(#ab);}.ad{fill:url(#ac);}.ae{fill:url(#ad);}.af{fill:url(#ae);}.ag{fill:url(#af);}.ah{fill:url(#ag);}.ai{stroke-width:0.37443px;stroke:url(#ah);}.aj{fill:url(#ai);}.ak{fill:url(#aj);}.al{fill:url(#ak);}.am{fill:url(#al);}.an{fill:url(#am);}.ao{fill:url(#an);}.ap{stroke-width:0.82187px;stroke:url(#ao);}.aq{fill:url(#ap);}.ar{fill:url(#aq);}.as{fill:url(#ar);}.at{fill:url(#as);}.au{fill:url(#at);}.av{fill:url(#au);}.aw{stroke-width:0.43723px;stroke:url(#av);}.ax{fill:url(#aw);}.ay{opacity:0.54;}.az{fill:url(#ax);}.ba{mix-blend-mode:hard-light;}.bb{fill:url(#ay);}.bc,.bs{opacity:0.25;}.bc,.bd,.be,.bf,.bh,.bi,.bj,.bk,.bl,.bm,.bn,.bo,.bp,.bq,.bs,.bt,.bu,.bv,.bw,.bx,.by,.bz,.ca,.cb,.cc,.cd,.ce{mix-blend-mode:screen;}.bc{fill:url(#az);}.bd{fill:url(#ba);}.be{fill:url(#bb);}.bf,.bv{opacity:0.2;}.bf{fill:url(#bc);}.bh,.bw{opacity:0.15;}.bh{fill:url(#bd);}.bi{fill:url(#be);}.bj{fill:url(#bf);}.bk{stroke:#fff;stroke-width:2.49074px;opacity:0.03;}.bl{fill:url(#bg);}.bm{fill:url(#bh);}.bn{fill:url(#bi);}.bo{fill:url(#bj);}.bp{fill:url(#bk);}.bq{fill:url(#bl);}.br{fill:url(#bm);}.bs{fill:url(#bn);}.bt{fill:url(#bo);}.bu{fill:url(#bp);}.bv{fill:url(#bq);}.bw{fill:url(#br);}.bx{fill:url(#bs);}.by{fill:url(#bt);}.bz{fill:url(#bu);}.ca{fill:url(#bv);}.cb{fill:url(#bw);}.cc{fill:url(#bx);}.cd{fill:url(#by);}.ce{fill:url(#bz);}</style><linearGradient id="a" x1="212.33009" y1="266.30304" x2="343.09133" y2="266.30304" gradientUnits="userSpaceOnUse"><stop offset="0" stop-color="#f5fbff"/><stop offset="0.62567" stop-color="#e9f1f5"/><stop offset="1" stop-color="#c5d9e0"/></linearGradient><linearGradient id="b" x1="350.51127" y1="436.9604" x2="195.81359" y2="231.93046" gradientUnits="userSpaceOnUse"><stop offset="0" stop-color="#bb1b07"/><stop offset="1" stop-color="#f04739"/></linearGradient><linearGradient id="c" x1="314.63729" y1="122.47665" x2="282.52508" y2="384.02829" gradientUnits="userSpaceOnUse"><stop offset="0" stop-color="#bfc4c7"/><stop offset="1" stop-color="#b1c3c9"/></linearGradient><clipPath id="e"><path class="a" d="M408.26754,405.75862,343.09169,176.26871V105.387c0,7.24792-28.38905,13.12353-63.409,13.12353s-63.409-5.87561-63.409-13.12353v70.88172L151.09746,405.75862a16.974,16.974,0,0,0,16.37043,21.46046H391.89711A16.974,16.974,0,0,0,408.26754,405.75862Z"/></clipPath><linearGradient id="f" x1="221.88028" y1="261.52918" x2="298.12182" y2="458.43124" gradientUnits="userSpaceOnUse"><stop offset="0" stop-color="#f5f5f5"/><stop offset="1" stop-color="#c3d1d6"/></linearGradient><linearGradient id="g" x1="494.25178" y1="310.83262" x2="264.75202" y2="310.83262" xlink:href="#b"/><linearGradient id="h" x1="279.68261" y1="79.13897" x2="279.68261" y2="118.2399" xlink:href="#a"/><clipPath id="j"><path class="b" d="M393.41034,399.645,337.79278,203.809h-.60171c0,6.98613-25.7402,12.64944-57.49231,12.64944s-57.49231-5.66331-57.49231-12.64944h-.63424L165.955,399.645a13.67653,13.67653,0,0,0,13.15637,17.41307H380.254A13.67683,13.67683,0,0,0,393.41034,399.645Z"/></clipPath><linearGradient id="k" x1="526.80282" y1="330.2756" x2="227.83271" y2="330.2756" xlink:href="#b"/><linearGradient id="l" x1="97.78273" y1="381.78102" x2="442.8818" y2="381.78102" xlink:href="#b"/><linearGradient id="m" x1="381.80438" y1="203.80895" x2="245.55772" y2="203.80895" xlink:href="#b"/><linearGradient id="n" x1="221.58381" y1="203.80895" x2="337.81384" y2="203.80895" gradientUnits="userSpaceOnUse"><stop offset="0" stop-color="#ff3b26"/><stop offset="1" stop-color="#f04739"/></linearGradient><radialGradient id="o" cx="250.34613" cy="219.8994" r="20.84617" gradientTransform="matrix(0.2537, -0.96728, 0.95587, 0.2507, -23.36196, 406.92532)" gradientUnits="userSpaceOnUse"><stop offset="0" stop-color="#c74035" stop-opacity="0.8"/><stop offset="0.29921" stop-color="#ca4439" stop-opacity="0.80046"/><stop offset="0.52418" stop-color="#d24f44" stop-opacity="0.80193"/><stop offset="0.72493" stop-color="#e06158" stop-opacity="0.8044"/><stop offset="0.91041" stop-color="#f37c74" stop-opacity="0.80787"/><stop offset="1" stop-color="#ff8c85" stop-opacity="0.81"/></radialGradient><radialGradient id="p" cx="1264.56458" cy="309.36211" r="13.50603" gradientTransform="translate(-1324.50724 -30.73599) scale(1.24415 0.77108)" gradientUnits="userSpaceOnUse"><stop offset="0" stop-color="#eb6a52"/><stop offset="0.37881" stop-color="#eb6a52" stop-opacity="0.99203"/><stop offset="0.51527" stop-color="#ea6b53" stop-opacity="0.96313"/><stop offset="0.61253" stop-color="#ea6c55" stop-opacity="0.91281"/><stop offset="0.69121" stop-color="#e96e57" stop-opacity="0.8409"/><stop offset="0.75863" stop-color="#e7705a" stop-opacity="0.74715"/><stop offset="0.81834" stop-color="#e5725e" stop-opacity="0.63133"/><stop offset="0.87231" stop-color="#e37662" stop-opacity="0.49335"/><stop offset="0.92196" stop-color="#e17967" stop-opacity="0.33264"/><stop offset="0.96609" stop-color="#de7d6d" stop-opacity="0.15775"/><stop offset="1" stop-color="#dc8172" stop-opacity="0"/></radialGradient><radialGradient id="q" cx="262.01897" cy="208.88279" r="1.70715" gradientTransform="matrix(0.2537, -0.96728, 0.95587, 0.2507, -4.12, 409.96158)" gradientUnits="userSpaceOnUse"><stop offset="0" stop-color="#ebc8c1"/><stop offset="0.37881" stop-color="#ebc7c0" stop-opacity="0.99203"/><stop offset="0.51527" stop-color="#eac5be" stop-opacity="0.96313"/><stop offset="0.61253" stop-color="#eac2ba" stop-opacity="0.91281"/><stop offset="0.69121" stop-color="#e9bdb4" stop-opacity="0.8409"/><stop offset="0.75863" stop-color="#e7b6ad" stop-opacity="0.74715"/><stop offset="0.81834" stop-color="#e5aea4" stop-opacity="0.63133"/><stop offset="0.87231" stop-color="#e3a499" stop-opacity="0.49335"/><stop offset="0.92196" stop-color="#e1998c" stop-opacity="0.33264"/><stop offset="0.96609" stop-color="#de8c7e" stop-opacity="0.15775"/><stop offset="1" stop-color="#dc8172" stop-opacity="0"/></radialGradient><radialGradient id="r" cx="264.8262" cy="211.24249" r="0.61895" gradientTransform="matrix(0.2537, -0.96728, 0.95587, 0.2507, -4.28053, 414.44508)" gradientUnits="userSpaceOnUse"><stop offset="0" stop-color="#ebc8c1"/><stop offset="0.22496" stop-color="#ebc7c0" stop-opacity="0.98901"/><stop offset="0.3644" stop-color="#eac5bd" stop-opacity="0.95275"/><stop offset="0.48062" stop-color="#e9c0b8" stop-opacity="0.89088"/><stop offset="0.58411" stop-color="#e8bab1" stop-opacity="0.80322"/><stop offset="0.67914" stop-color="#e6b2a8" stop-opacity="0.68961"/><stop offset="0.7679" stop-color="#e4a89d" stop-opacity="0.55"/><stop offset="0.85188" stop-color="#e29c90" stop-opacity="0.38414"/><stop offset="0.92991" stop-color="#df8f82" stop-opacity="0.19725"/><stop offset="1" stop-color="#dc8172" stop-opacity="0"/></radialGradient><radialGradient id="s" cx="240.71485" cy="234.7547" r="0.61895" gradientTransform="matrix(0.2537, -0.96728, 0.95587, 0.2507, -44.74959, 408.74016)" xlink:href="#r"/><radialGradient id="t" cx="236.08067" cy="227.56981" r="5.45098" gradientTransform="matrix(1, 0, 0, 1, 0, 0)" xlink:href="#q"/><radialGradient id="u" cx="260.22212" cy="231.83292" r="2.48527" gradientTransform="translate(0 33.67843) scale(1 0.85473)" gradientUnits="userSpaceOnUse"><stop offset="0" stop-color="#eb6a52"/><stop offset="0.09168" stop-color="#eb6b53" stop-opacity="0.96822"/><stop offset="0.22975" stop-color="#e96d56" stop-opacity="0.88033"/><stop offset="0.39704" stop-color="#e7705a" stop-opacity="0.73641"/><stop offset="0.58721" stop-color="#e47561" stop-opacity="0.53628"/><stop offset="0.79369" stop-color="#e07a69" stop-opacity="0.2836"/><stop offset="1" stop-color="#dc8172" stop-opacity="0"/></radialGradient><radialGradient id="v" cx="310.52365" cy="189.56257" r="11.78101" gradientTransform="matrix(0.2537, -0.96728, 0.95587, 0.2507, 50.54685, 442.4028)" xlink:href="#o"/><radialGradient id="w" cx="1314.85919" cy="286.75473" r="7.6328" gradientTransform="translate(-1326.23258 -38.38172) scale(1.24415 0.77108)" xlink:href="#p"/><radialGradient id="x" cx="317.12044" cy="183.33664" r="0.96478" gradientTransform="matrix(0.2537, -0.96728, 0.95587, 0.2507, 61.42126, 444.11871)" xlink:href="#q"/><radialGradient id="y" cx="318.70692" cy="184.6702" r="0.34979" gradientTransform="matrix(0.2537, -0.96728, 0.95587, 0.2507, 61.33053, 446.65252)" xlink:href="#r"/><radialGradient id="z" cx="305.08063" cy="197.95789" r="0.34979" gradientTransform="matrix(0.2537, -0.96728, 0.95587, 0.2507, 38.45984, 443.42844)" xlink:href="#r"/><radialGradient id="aa" cx="302.46166" cy="193.89742" r="3.08057" gradientTransform="matrix(1, 0, 0, 1, 0, 0)" xlink:href="#q"/><radialGradient id="ab" cx="316.10497" cy="196.30668" r="1.40453" gradientTransform="translate(0 28.51752) scale(1 0.85473)" xlink:href="#u"/><radialGradient id="ac" cx="284.24818" cy="161.64125" r="6.26748" gradientTransform="matrix(0.2537, -0.96728, 0.95587, 0.2507, 57.62664, 396.06566)" xlink:href="#o"/><radialGradient id="ad" cx="1295.63368" cy="257.25592" r="4.06064" gradientTransform="translate(-1328.18034 -40.35858) scale(1.24415 0.77108)" xlink:href="#p"/><radialGradient id="ae" cx="287.75767" cy="158.32907" r="0.51326" gradientTransform="matrix(0.2537, -0.96728, 0.95587, 0.2507, 63.4118, 396.97852)" xlink:href="#q"/><radialGradient id="af" cx="288.60167" cy="159.03852" r="0.18609" gradientTransform="matrix(0.2537, -0.96728, 0.95587, 0.2507, 63.36354, 398.3265)" xlink:href="#r"/><radialGradient id="ag" cx="281.3525" cy="166.10755" r="0.18609" gradientTransform="matrix(0.2537, -0.96728, 0.95587, 0.2507, 51.19637, 396.6113)" xlink:href="#r"/><radialGradient id="ah" cx="279.95922" cy="163.94739" r="1.63886" gradientTransform="matrix(1, 0, 0, 1, 0, 0)" xlink:href="#q"/><radialGradient id="ai" cx="287.21743" cy="165.22911" r="0.74721" gradientTransform="translate(0 24.00288) scale(1 0.85473)" xlink:href="#u"/><radialGradient id="aj" cx="283.64354" cy="261.28546" r="13.75721" gradientTransform="matrix(0.2537, -0.96728, 0.95587, 0.2507, -38.07184, 470.14375)" xlink:href="#o"/><radialGradient id="ak" cx="1288.90034" cy="362.4929" r="8.91317" gradientTransform="translate(-1320.96228 -26.20518) scale(1.24415 0.77108)" xlink:href="#p"/><radialGradient id="al" cx="291.34692" cy="254.01516" r="1.12662" gradientTransform="matrix(0.2537, -0.96728, 0.95587, 0.2507, -25.3733, 472.1475)" xlink:href="#q"/><radialGradient id="am" cx="293.19952" cy="255.57242" r="0.40847" gradientTransform="matrix(0.2537, -0.96728, 0.95587, 0.2507, -25.47924, 475.10634)" xlink:href="#r"/><radialGradient id="an" cx="277.28748" cy="271.08907" r="0.40847" gradientTransform="matrix(0.2537, -0.96728, 0.95587, 0.2507, -52.18638, 471.34143)" xlink:href="#r"/><radialGradient id="ao" cx="274.2292" cy="266.34747" r="3.59732" gradientTransform="matrix(1, 0, 0, 1, 0, 0)" xlink:href="#q"/><radialGradient id="ap" cx="290.1611" cy="269.16087" r="1.64013" gradientTransform="translate(0 39.10107) scale(1 0.85473)" xlink:href="#u"/><radialGradient id="aq" cx="255.87904" cy="300.92423" r="7.31881" gradientTransform="matrix(0.2537, -0.96728, 0.95587, 0.2507, -96.68219, 472.98875)" xlink:href="#o"/><radialGradient id="ar" cx="1264.38885" cy="408.14219" r="4.74179" gradientTransform="translate(-1317.75403 -18.03027) scale(1.24415 0.77108)" xlink:href="#p"/><radialGradient id="as" cx="259.97722" cy="297.05644" r="0.59936" gradientTransform="matrix(0.2537, -0.96728, 0.95587, 0.2507, -89.9266, 474.05474)" xlink:href="#q"/><radialGradient id="at" cx="260.9628" cy="297.8849" r="0.21731" gradientTransform="matrix(0.2537, -0.96728, 0.95587, 0.2507, -89.98296, 475.62884)" xlink:href="#r"/><radialGradient id="au" cx="252.49763" cy="306.13973" r="0.21731" gradientTransform="matrix(0.2537, -0.96728, 0.95587, 0.2507, -104.19111, 473.62591)" xlink:href="#r"/><radialGradient id="av" cx="250.87063" cy="303.61721" r="1.91377" gradientTransform="matrix(1, 0, 0, 1, 0, 0)" xlink:href="#q"/><radialGradient id="aw" cx="259.34637" cy="305.11393" r="0.87255" gradientTransform="translate(0 44.32398) scale(1 0.85473)" xlink:href="#u"/><radialGradient id="ax" cx="329.14262" cy="187.65914" r="96.86305" gradientTransform="translate(304.82648 -141.30392) rotate(81.99169) scale(1 0.11591)" gradientUnits="userSpaceOnUse"><stop offset="0" stop-color="#e6f3ff"/><stop offset="1" stop-color="#b9cbf0" stop-opacity="0"/></radialGradient><radialGradient id="ay" cx="211.2827" cy="310.4337" r="79.87596" gradientTransform="matrix(0.2537, -0.96728, 0.15236, 0.03996, 110.38442, 502.39919)" xlink:href="#ax"/><radialGradient id="az" cx="216.02885" cy="284.76852" r="19.98648" gradientUnits="userSpaceOnUse"><stop offset="0.1"/><stop offset="0.11244" stop-color="#080602"/><stop offset="0.16172" stop-color="#231b08"/><stop offset="0.21838" stop-color="#392c0d"/><stop offset="0.28458" stop-color="#4a3910"/><stop offset="0.36644" stop-color="#554213"/><stop offset="0.48125" stop-color="#5c4815"/><stop offset="0.8" stop-color="#5e4915"/><stop offset="1"/></radialGradient><radialGradient id="ba" cx="194.00804" cy="354.63732" r="0.6662" gradientUnits="userSpaceOnUse"><stop offset="0" stop-color="#d4e194"/><stop offset="0.05952" stop-color="#afba7a"/><stop offset="0.13651" stop-color="#868f5e"/><stop offset="0.21955" stop-color="#626845"/><stop offset="0.30759" stop-color="#44482f"/><stop offset="0.40211" stop-color="#2b2e1e"/><stop offset="0.50556" stop-color="#181911"/><stop offset="0.62249" stop-color="#0a0b07"/><stop offset="0.76429" stop-color="#020302"/><stop offset="1"/></radialGradient><radialGradient id="bb" cx="192.29808" cy="360.06256" r="0.6662" xlink:href="#ba"/><radialGradient id="bc" cx="193.24731" cy="357.05083" r="4.99665" gradientUnits="userSpaceOnUse"><stop offset="0.05"/><stop offset="0.09242" stop-color="#040a03"/><stop offset="0.29802" stop-color="#183411"/><stop offset="0.48337" stop-color="#25531c"/><stop offset="0.64031" stop-color="#2e6622"/><stop offset="0.75" stop-color="#316d24"/><stop offset="0.78593" stop-color="#4f6e16"/><stop offset="0.83397" stop-color="#716f06"/><stop offset="0.86" stop-color="#7e6f00"/><stop offset="0.88764" stop-color="#7a6c00"/><stop offset="0.91229" stop-color="#706200"/><stop offset="0.93581" stop-color="#5d5200"/><stop offset="0.95863" stop-color="#443c00"/><stop offset="0.98074" stop-color="#231f00"/><stop offset="1"/></radialGradient><radialGradient id="bd" cx="211.2827" cy="299.8273" r="13.32427" gradientUnits="userSpaceOnUse"><stop offset="0" stop-color="#200"/><stop offset="0.73" stop-color="#984023"/><stop offset="1" stop-color="#200"/></radialGradient><radialGradient id="be" cx="211.2827" cy="299.8273" r="6.66221" gradientUnits="userSpaceOnUse"><stop offset="0.15" stop-color="#fff"/><stop offset="0.20939" stop-color="#e5d3d3"/><stop offset="0.29044" stop-color="#c49c9e"/><stop offset="0.36051" stop-color="#ad7477"/><stop offset="0.41599" stop-color="#9e5c5f"/><stop offset="0.45" stop-color="#995356"/><stop offset="0.57175" stop-color="#6b3335"/><stop offset="0.69355" stop-color="#431718"/><stop offset="0.79053" stop-color="#2b0606"/><stop offset="0.85" stop-color="#200"/><stop offset="0.85727" stop-color="#260201"/><stop offset="0.8648" stop-color="#330704"/><stop offset="0.87246" stop-color="#471009"/><stop offset="0.8802" stop-color="#641d0f"/><stop offset="0.88801" stop-color="#8a2e18"/><stop offset="0.89577" stop-color="#b74223"/><stop offset="0.9" stop-color="#d34e29"/><stop offset="0.90254" stop-color="#c84927"/><stop offset="0.91417" stop-color="#9c361c"/><stop offset="0.92635" stop-color="#772514"/><stop offset="0.93893" stop-color="#58180c"/><stop offset="0.95205" stop-color="#400d07"/><stop offset="0.96594" stop-color="#2f0603"/><stop offset="0.98111" stop-color="#250101"/><stop offset="1" stop-color="#200"/></radialGradient><radialGradient id="bf" cx="211.2827" cy="299.8273" r="5.55184" gradientUnits="userSpaceOnUse"><stop offset="0.15" stop-color="#fff"/><stop offset="0.28237" stop-color="#c2c2c2"/><stop offset="0.42528" stop-color="#888"/><stop offset="0.5636" stop-color="#575757"/><stop offset="0.69361" stop-color="#313131"/><stop offset="0.81336" stop-color="#161616"/><stop offset="0.91921" stop-color="#060606"/><stop offset="1"/></radialGradient><radialGradient id="bg" cx="192.29808" cy="360.06256" r="9.9933" gradientUnits="userSpaceOnUse"><stop offset="0.64"/><stop offset="0.71799" stop-color="#000200"/><stop offset="0.74608" stop-color="#020902"/><stop offset="0.76609" stop-color="#051405"/><stop offset="0.78228" stop-color="#082509"/><stop offset="0.79598" stop-color="#0d3b0e"/><stop offset="0.8" stop-color="#0f4310"/><stop offset="0.8131" stop-color="#1e2c0a"/><stop offset="0.82975" stop-color="#2d1605"/><stop offset="0.84569" stop-color="#360901"/><stop offset="0.86" stop-color="#390400"/><stop offset="0.8715" stop-color="#250300"/><stop offset="0.88602" stop-color="#140100"/><stop offset="0.90412" stop-color="#090100"/><stop offset="0.92951" stop-color="#020000"/><stop offset="1"/></radialGradient><radialGradient id="bh" cx="195.96427" cy="348.43076" r="2.8404" gradientUnits="userSpaceOnUse"><stop offset="0.1"/><stop offset="0.24639" stop-color="#1b1103"/><stop offset="0.42619" stop-color="#362207"/><stop offset="0.61009" stop-color="#492e09"/><stop offset="0.79889" stop-color="#54350b"/><stop offset="1" stop-color="#58370b"/></radialGradient><radialGradient id="bi" cx="205.86004" cy="317.03279" r="1.58647" gradientUnits="userSpaceOnUse"><stop offset="0.1" stop-color="#192f1b"/><stop offset="0.2285" stop-color="#122214"/><stop offset="0.47516" stop-color="#080f09"/><stop offset="0.72928" stop-color="#020402"/><stop offset="1"/></radialGradient><radialGradient id="bj" cx="199.82291" cy="336.18775" r="1.05071" xlink:href="#bh"/><radialGradient id="bk" cx="198.8676" cy="339.21863" r="1.47759" gradientUnits="userSpaceOnUse"><stop offset="0.1"/><stop offset="0.29001" stop-color="#14160e"/><stop offset="0.51699" stop-color="#25291a"/><stop offset="0.75084" stop-color="#303422"/><stop offset="1" stop-color="#333824"/></radialGradient><radialGradient id="bl" cx="196.15095" cy="347.83794" r="2.74344" xlink:href="#bi"/><radialGradient id="bm" cx="232.8757" cy="114.93423" r="10.30064" gradientUnits="userSpaceOnUse"><stop offset="0" stop-color="#fff"/><stop offset="1" stop-color="#b9cbf0" stop-opacity="0"/></radialGradient><radialGradient id="bn" cx="324.90716" cy="195.50379" r="19.49085" xlink:href="#az"/><radialGradient id="bo" cx="336.15989" cy="278.24512" r="0.64971" xlink:href="#ba"/><radialGradient id="bp" cx="337.08601" cy="285.05399" r="0.64971" xlink:href="#ba"/><radialGradient id="bq" cx="336.59893" cy="281.47195" r="4.87267" xlink:href="#bc"/><radialGradient id="br" cx="327.34287" cy="213.41383" r="12.99396" xlink:href="#bd"/><radialGradient id="bs" cx="327.34287" cy="213.41383" r="6.49689" xlink:href="#be"/><radialGradient id="bt" cx="327.34287" cy="213.41383" r="5.41414" xlink:href="#bf"/><radialGradient id="bu" cx="337.08601" cy="285.05399" r="9.74535" xlink:href="#bg"/><radialGradient id="bv" cx="334.72783" cy="267.71351" r="1.10156" gradientUnits="userSpaceOnUse"><stop offset="0.1"/><stop offset="0.2047" stop-color="#1c1713"/><stop offset="0.35581" stop-color="#3e3229"/><stop offset="0.51018" stop-color="#59473b"/><stop offset="0.66721" stop-color="#6c5647"/><stop offset="0.82838" stop-color="#775f4f"/><stop offset="1" stop-color="#7b6251"/></radialGradient><radialGradient id="bw" cx="328.30943" cy="220.52112" r="2.14261" gradientUnits="userSpaceOnUse"><stop offset="0.1" stop-color="#393a2f"/><stop offset="0.30165" stop-color="#21221c"/><stop offset="0.52494" stop-color="#0f0f0c"/><stop offset="0.75495" stop-color="#040403"/><stop offset="1"/></radialGradient><radialGradient id="bx" cx="331.26384" cy="242.24527" r="1.97926" gradientUnits="userSpaceOnUse"><stop offset="0.1"/><stop offset="0.11031" stop-color="#010100"/><stop offset="0.32262" stop-color="#1c0e05"/><stop offset="0.53968" stop-color="#2f1808"/><stop offset="0.76257" stop-color="#3a1e09"/><stop offset="1" stop-color="#3e200a"/></radialGradient><radialGradient id="by" cx="329.82692" cy="231.67968" r="2.49165" gradientUnits="userSpaceOnUse"><stop offset="0.1" stop-color="#7e9c95"/><stop offset="0.15454" stop-color="#6e8983"/><stop offset="0.2879" stop-color="#4d5f5b"/><stop offset="0.42427" stop-color="#313d3a"/><stop offset="0.56231" stop-color="#1c2221"/><stop offset="0.70265" stop-color="#0c0f0e"/><stop offset="0.84664" stop-color="#030404"/><stop offset="1"/></radialGradient><radialGradient id="bz" cx="336.38397" cy="279.89145" r="0.70539" gradientUnits="userSpaceOnUse"><stop offset="0.1"/><stop offset="0.22259" stop-color="#1b1722"/><stop offset="0.37027" stop-color="#352e44"/><stop offset="0.52121" stop-color="#4a3f5f"/><stop offset="0.67469" stop-color="#584c72"/><stop offset="0.8322" stop-color="#61547d"/><stop offset="1" stop-color="#645681"/></radialGradient></defs><g class="c"><ellipse class="d" cx="269.16211" cy="422.32661" rx="144.19211" ry="23.28088"/><path class="e" d="M399.72537,403.21186,339.40719,176.07131l.00787-66.2699c-17.75085,8.70907-35.47443,8.70911-59.73241,8.70911-25.0409,0-46.6847-3.005-56.99033-7.36688l-2.97677-3.17144.60954,68.81453L159.63962,403.21186a14.43621,14.43621,0,0,0,13.887,18.38H385.83839A14.43607,14.43607,0,0,0,399.72537,403.21186Z"/><path class="a" d="M408.26754,405.75862,343.09169,176.26871V105.387c0,7.24792-28.38905,13.12353-63.409,13.12353s-63.409-5.87561-63.409-13.12353v70.88172L151.09746,405.75862a16.974,16.974,0,0,0,16.37043,21.46046H391.89711A16.974,16.974,0,0,0,408.26754,405.75862Z"/><g class="f"><path class="g" d="M401.261,411.01657c0-12.68914-54.23417-24.21532-121.13541-24.21532S158.9902,398.80919,158.9902,411.49832s11.80991,10.1263,121.13542,11.13877C383.89105,423.59807,401.261,423.7057,401.261,411.01657Z"/><path class="h" d="M303.65779,192.59762c-2.80175-.31816-5.59682-.69123-8.39593-1.03118a108.842,108.842,0,0,0-15.01056-1.03273c-2.193.03846-4.39639.36007-6.55272.20572a62.46431,62.46431,0,0,0-7.14072-.04066c-9.72284.41819-19.28128,2.38686-28.77975,4.37841q-4.31316.90434-8.64184,1.73241c-6.01064,1.14982-12.15181,2.21117-17.73607,4.82648-1.48031.69328-2.55342,1.04806-3.08164,2.53739-.1988.56055-.33629,1.15159-.503,1.72256l-4.59562,15.73722-6.853,23.46721-8.36328,28.63913-9.12657,31.253-9.14286,31.30872-8.41212,28.80639-6.93437,23.746-4.7096,16.1275-1.73781,5.95094,7.53771,20.20928H412.85028V388.489L350.9132,203.809c-5.8965-2.38476-11.9462-4.22669-17.94789-6.30536-5.53008-1.91534-11.61122-2.03905-17.25489-3.68935C312.00531,192.73081,307.50387,193.03438,303.65779,192.59762Z"/></g><ellipse class="i" cx="279.68261" cy="105.38697" rx="63.4091" ry="13.12351"/><path class="b" d="M393.41034,399.645,337.79278,203.809h-.60171c0,6.98613-25.7402,12.64944-57.49231,12.64944s-57.49231-5.66331-57.49231-12.64944h-.63424L165.955,399.645a13.67653,13.67653,0,0,0,13.15637,17.41307H380.254A13.67683,13.67683,0,0,0,393.41034,399.645Z"/><g class="j"><path class="k" d="M257.41426,262.62592c-28.84181,4.469-58.13244,6.29623-86.57756,12.83056s-56.625,18.32337-76.76012,39.4515c-11.66189,12.237-20.57245,28.8161-17.95551,45.51627,2.05123,13.09,11.00468,24.3366,21.93309,31.82828s23.74413,11.69317,36.51424,15.22583c74.25136,20.54052,156.51867,20.7286,225.64542-13.28124,13.90016-6.83877,27.29-15.09294,38.188-26.10277s19.21421-24.981,21.62539-40.28357c2.48517-15.77217-1.48981-32.23248-9.715-45.91764A92.18483,92.18483,0,0,0,383.039,253.66556a89.44655,89.44655,0,0,0-16.5116-8.80486c-7.67978-3.18382-12.1877-7.99135-20.31777-4.91245-9.51758,3.60435-19.31018,6.61892-29.08109,9.451A476.88132,476.88132,0,0,1,257.41426,262.62592Z"/><path class="l" d="M279.53524,314.13134c-28.84181,4.469-58.13244,6.29623-86.57756,12.83055s-56.625,18.32338-76.76012,39.45151c-11.66189,12.237-20.57246,28.8161-17.95551,45.51627,2.05123,13.09,11.00468,24.3366,21.93309,31.82828s23.74412,11.69317,36.51424,15.22583c74.25135,20.54052,156.51867,20.7286,225.64542-13.28124,13.90016-6.83877,27.29-15.09294,38.188-26.10277s19.21421-24.981,21.62539-40.28357c2.48517-15.77217-1.48981-32.23248-9.715-45.91764A92.18474,92.18474,0,0,0,405.16,305.171a89.44615,89.44615,0,0,0-16.51159-8.80486c-7.67978-3.18382-12.1877-7.99135-20.31777-4.91245-9.51759,3.60435-19.31018,6.61892-29.08109,9.451A476.88132,476.88132,0,0,1,279.53524,314.13134Z"/></g><ellipse class="m" cx="279.69883" cy="203.80895" rx="57.49233" ry="12.64945"/><g class="n"><circle class="o" cx="250.34613" cy="219.8994" r="21.94151"/><ellipse class="p" cx="248.80253" cy="207.80562" rx="14.66347" ry="8.84042" transform="translate(-15.03135 19.45075) rotate(-4.34581)"/><circle class="q" cx="262.01897" cy="208.88279" r="1.79686"/><circle class="r" cx="264.8262" cy="211.24249" r="0.65147"/><circle class="s" cx="240.71485" cy="234.7547" r="0.65147"/><path class="t" d="M232.88835,221.501c-.2153,4.23544,2.3335,10.34468,6.39729,12.13753"/><circle class="u" cx="260.22212" cy="231.83292" r="1.99438"/></g><g class="v"><circle class="w" cx="310.52365" cy="189.56257" r="12.40003"/><ellipse class="x" cx="309.6513" cy="182.72788" rx="8.28692" ry="4.99608" transform="matrix(0.99712, -0.07578, 0.07578, 0.99712, -12.95611, 23.98953)"/><circle class="y" cx="317.12044" cy="183.33664" r="1.01548"/><circle class="z" cx="318.70692" cy="184.6702" r="0.36817"/><circle class="aa" cx="305.08063" cy="197.95789" r="0.36817"/><path class="ab" d="M300.65755,190.46772c-.12167,2.39362,1.31876,5.84619,3.61537,6.8594"/><circle class="ac" cx="316.10497" cy="196.30668" r="1.1271"/></g><g class="v"><circle class="ad" cx="284.24818" cy="161.64125" r="6.59679"/><ellipse class="ae" cx="283.78409" cy="158.00521" rx="4.40863" ry="2.6579" transform="translate(-11.1571 21.95833) rotate(-4.34581)"/><circle class="af" cx="287.75767" cy="158.32907" r="0.54023"/><circle class="ag" cx="288.60167" cy="159.03852" r="0.19587"/><circle class="ah" cx="281.3525" cy="166.10755" r="0.19587"/><path class="ai" d="M278.99944,162.12279a4.10835,4.10835,0,0,0,1.92337,3.64919"/><circle class="aj" cx="287.21743" cy="165.22911" r="0.59962"/></g><g class="v"><circle class="ak" cx="283.64354" cy="261.28546" r="14.48007"/><ellipse class="al" cx="282.62486" cy="253.3043" rx="9.67701" ry="5.83414" transform="translate(-18.38182 22.14449) rotate(-4.34581)"/><circle class="am" cx="291.34692" cy="254.01516" r="1.18582"/><circle class="an" cx="293.19952" cy="255.57242" r="0.42993"/><circle class="ao" cx="277.28748" cy="271.08907" r="0.42993"/><path class="ap" d="M272.12246,262.34245c-.14208,2.79514,1.54,6.82686,4.22183,8.01"/><circle class="aq" cx="290.1611" cy="269.16087" r="1.31617"/></g><g class="v"><circle class="ar" cx="255.87904" cy="300.92423" r="7.70337"/><ellipse class="as" cx="255.3371" cy="296.67826" rx="5.14815" ry="3.10376" transform="matrix(0.99712, -0.07578, 0.07578, 0.99712, -21.74698, 20.20143)"/><circle class="at" cx="259.97722" cy="297.05644" r="0.63085"/><circle class="au" cx="260.9628" cy="297.8849" r="0.22872"/><circle class="av" cx="252.49763" cy="306.13973" r="0.22872"/><path class="aw" d="M249.74985,301.48655c-.07559,1.487.81926,3.63187,2.246,4.26132"/><circle class="ax" cx="259.34637" cy="305.11393" r="0.7002"/></g><g class="ay"><path class="az" d="M343.08556,287.024a6.22823,6.22823,0,0,1-6.087-4.945l-20.168-95.75737a6.228,6.228,0,0,1-.13378-1.28308v-57.658a6.22686,6.22686,0,1,1,12.45371,0v57.00979l20.03418,95.12253a6.23268,6.23268,0,0,1-6.09915,7.51114Z"/></g><g class="ba"><path class="bb" d="M191.1646,393.95542a6.85622,6.85622,0,0,1-6.63063-8.59051l40.24714-153.3406a6.84963,6.84963,0,0,1,13.25032,3.47829L197.78428,388.84319A6.85071,6.85071,0,0,1,191.1646,393.95542Z"/></g><circle class="bc" cx="216.02885" cy="284.76852" r="19.98648"/><circle class="bd" cx="194.00804" cy="354.63732" r="0.6662"/><circle class="be" cx="192.29808" cy="360.06256" r="0.6662"/><circle class="bf" cx="193.24731" cy="357.05083" r="4.99665"/><line class="bg" x1="211.2827" y1="299.8273" x2="192.29808" y2="360.06256"/><circle class="bh" cx="211.2827" cy="299.8273" r="13.32427"/><circle class="bi" cx="211.2827" cy="299.8273" r="6.66221"/><circle class="bj" cx="211.2827" cy="299.8273" r="5.55184"/><polyline class="bk" points="211.283 299.827 207.697 321.416 211.283 299.827 214.868 278.239 211.283 299.827 189.694 296.242 211.283 299.827 232.871 303.413 211.283 299.827 214.227 327.966 211.283 299.827 208.338 271.689 211.283 299.827 183.144 302.772 211.283 299.827 239.421 296.883 211.283 299.827 225.145 322.914 211.283 299.827 197.421 276.741 211.283 299.827 188.196 313.689 211.283 299.827 234.369 285.965 211.283 299.827 206.992 318.137 211.283 299.827 215.574 281.517 211.283 299.827 192.973 295.536 211.283 299.827 229.593 304.118 211.283 299.827 211.117 302.046 211.283 299.827 211.448 297.608 211.283 299.827 209.063 299.662 211.283 299.827 213.502 299.993 211.283 299.827 197.058 324.404 211.283 299.827 225.508 275.251 211.283 299.827 186.706 285.602 211.283 299.827 235.859 314.052 211.283 299.827 205.192 307.592 211.283 299.827 217.373 292.063 211.283 299.827 203.518 293.737 211.283 299.827 219.047 305.918 211.283 299.827 214.427 306.51 211.283 299.827 208.139 293.144 211.283 299.827 204.6 302.971 211.283 299.827 217.966 296.683 211.283 299.827 236.28 321.745 211.283 299.827 186.286 277.91 211.283 299.827 189.366 324.824 211.283 299.827 233.2 274.83 211.283 299.827 216.813 326.949 211.283 299.827 205.752 272.706 211.283 299.827 184.161 305.358 211.283 299.827 238.404 294.297 211.283 299.827 216.301 331.587 211.283 299.827 206.264 268.067 211.283 299.827 179.523 304.845 211.283 299.827 243.043 294.809 211.283 299.827 213.895 305.618 211.283 299.827 208.67 294.037 211.283 299.827 205.492 302.44 211.283 299.827 217.073 297.215 211.283 299.827 228.408 315.195 211.283 299.827 194.157 284.46 211.283 299.827 195.915 316.953 211.283 299.827 226.65 282.702 211.283 299.827 202.814 322.931 211.283 299.827 219.751 276.724 211.283 299.827 188.179 291.359 211.283 299.827 234.386 308.296 211.283 299.827 212.547 319.916 211.283 299.827 210.018 279.738 211.283 299.827 191.194 301.091 211.283 299.827 231.372 298.563"/><circle class="bl" cx="192.29808" cy="360.06256" r="9.9933"/><circle class="bm" cx="195.96427" cy="348.43076" r="2.8404"/><circle class="bn" cx="205.86004" cy="317.03279" r="1.58647"/><circle class="bo" cx="199.82291" cy="336.18775" r="1.05071"/><circle class="bp" cx="198.8676" cy="339.21863" r="1.47759"/><circle class="bq" cx="196.15095" cy="347.83794" r="2.74344"/><circle class="br" cx="232.8757" cy="114.93423" r="10.30064"/><circle class="bs" cx="324.90716" cy="195.50379" r="19.49085"/><circle class="bt" cx="336.15989" cy="278.24512" r="0.64971"/><circle class="bu" cx="337.08601" cy="285.05399" r="0.64971"/><circle class="bv" cx="336.59893" cy="281.47195" r="4.87267"/><line class="bg" x1="327.34287" y1="213.41383" x2="337.08601" y2="285.05399"/><circle class="bw" cx="327.34287" cy="213.41383" r="12.99396"/><circle class="bx" cx="327.34287" cy="213.41383" r="6.49689"/><circle class="by" cx="327.34287" cy="213.41383" r="5.41414"/><polyline class="bk" points="327.343 213.414 332.19 213.587 327.343 213.414 322.496 213.24 327.343 213.414 327.169 218.261 327.343 213.414 327.516 208.567 327.343 213.414 335.437 236.447 327.343 213.414 319.249 190.381 327.343 213.414 304.31 221.508 327.343 213.414 350.376 205.32 327.343 213.414 336.738 225.792 327.343 213.414 317.948 201.035 327.343 213.414 314.965 222.809 327.343 213.414 339.721 204.019 327.343 213.414 330.041 226.318 327.343 213.414 324.644 200.509 327.343 213.414 314.439 216.112 327.343 213.414 340.247 210.715 327.343 213.414 332.532 216.918 327.343 213.414 322.154 209.909 327.343 213.414 323.838 218.603 327.343 213.414 330.847 208.225 327.343 213.414 341.398 223.205 327.343 213.414 313.288 203.622 327.343 213.414 317.551 227.469 327.343 213.414 337.134 199.359 327.343 213.414 342.006 214.828 327.343 213.414 312.68 212 327.343 213.414 325.929 228.077 327.343 213.414 328.757 198.751 327.343 213.414 332.962 231.135 327.343 213.414 321.724 195.693 327.343 213.414 309.622 219.033 327.343 213.414 345.064 207.795 327.343 213.414 328.87 214.144 327.343 213.414 325.815 212.683 327.343 213.414 326.612 214.941 327.343 213.414 328.073 211.886 327.343 213.414 348.963 229.962 327.343 213.414 305.723 196.865 327.343 213.414 310.794 235.034 327.343 213.414 343.891 191.794 327.343 213.414 329.111 230.53 327.343 213.414 325.575 196.297 327.343 213.414 310.226 215.182 327.343 213.414 344.459 211.646 327.343 213.414 351.648 216.944 327.343 213.414 303.037 209.883 327.343 213.414 323.812 237.719 327.343 213.414 330.873 189.108 327.343 213.414 327.55 244.445 327.343 213.414 327.136 182.382 327.343 213.414 296.311 213.621 327.343 213.414 358.375 213.207 327.343 213.414 335.428 232.593 327.343 213.414 319.258 194.235 327.343 213.414 308.164 221.499 327.343 213.414 346.521 205.329 327.343 213.414 333.364 232.615 327.343 213.414 321.322 194.213 327.343 213.414 308.142 219.435 327.343 213.414 346.544 207.392"/><circle class="bz" cx="337.08601" cy="285.05399" r="9.74535"/><circle class="ca" cx="334.72783" cy="267.71351" r="1.10156"/><circle class="cb" cx="328.30943" cy="220.52112" r="2.14261"/><circle class="cc" cx="331.26384" cy="242.24527" r="1.97926"/><circle class="cd" cx="329.82692" cy="231.67968" r="2.49165"/><circle class="ce" cx="336.38397" cy="279.89145" r="0.70539"/></g></svg>