<svg xmlns="http://www.w3.org/2000/svg" xmlns:xlink="http://www.w3.org/1999/xlink" viewBox="0 0 523.92572 512.20828"><defs><style>.a,.i{opacity:0.72;}.a{fill:url(#a);}.b,.ba,.k,.l,.m{opacity:0.8;}.b{fill:url(#b);}.c{isolation:isolate;}.d{fill:#683c11;fill-opacity:0.51;}.e,.g{mix-blend-mode:multiply;}.e{fill:url(#c);}.f{clip-path:url(#e);}.g{fill:url(#f);}.h{opacity:0.42;fill:url(#g);}.i{fill:url(#h);}.j{clip-path:url(#j);}.k{fill:url(#k);}.l{fill:url(#l);}.bm,.m{stroke-miterlimit:10;}.m,.t{stroke-width:1.24537px;}.m{fill:url(#m);stroke:url(#n);}.bc,.bd,.bk,.bn,.bz,.cb,.n{opacity:0.5;}.o{fill:url(#o);}.aa,.ab,.ae,.ah,.ai,.al,.ao,.ap,.as,.av,.aw,.p,.s,.t,.x{mix-blend-mode:soft-light;}.p{fill:url(#p);}.q{fill:url(#q);}.r{fill:url(#r);}.s{fill:url(#s);}.ab,.ai,.ap,.aw,.bi,.bm,.t{fill:none;}.ab,.ai,.ap,.aw,.t{stroke-linecap:round;stroke-linejoin:round;}.t{stroke:url(#t);}.u{fill:url(#u);}.v{opacity:0.3;}.w{fill:url(#v);}.x{fill:url(#w);}.y{fill:url(#x);}.z{fill:url(#y);}.aa{fill:url(#z);}.ab{stroke-width:0.70381px;stroke:url(#aa);}.ac{fill:url(#ab);}.ad{fill:url(#ac);}.ae{fill:url(#ad);}.af{fill:url(#ae);}.ag{fill:url(#af);}.ah{fill:url(#ag);}.ai{stroke-width:0.37443px;stroke:url(#ah);}.aj{fill:url(#ai);}.ak{fill:url(#aj);}.al{fill:url(#ak);}.am{fill:url(#al);}.an{fill:url(#am);}.ao{fill:url(#an);}.ap{stroke-width:0.82187px;stroke:url(#ao);}.aq{fill:url(#ap);}.ar{fill:url(#aq);}.as{fill:url(#ar);}.at{fill:url(#as);}.au{fill:url(#at);}.av{fill:url(#au);}.aw{stroke-width:0.43723px;stroke:url(#av);}.ax{fill:url(#aw);}.ay{opacity:0.54;}.az{fill:url(#ax);}.ba{mix-blend-mode:hard-light;}.bb{fill:url(#ay);}.bc{fill:url(#az);}.bd{fill:url(#ba);}.be,.bu{opacity:0.25;}.be,.bf,.bg,.bh,.bj,.bk,.bl,.bm,.bn,.bo,.bp,.bq,.br,.bs,.bu,.bv,.bw,.bx,.by,.bz,.ca,.cb,.cc,.cd,.ce,.cf,.cg{mix-blend-mode:screen;}.be{fill:url(#bb);}.bf{fill:url(#bc);}.bg{fill:url(#bd);}.bh,.bx{opacity:0.2;}.bh{fill:url(#be);}.bj,.by{opacity:0.15;}.bj{fill:url(#bf);}.bk{fill:url(#bg);}.bl{fill:url(#bh);}.bm{stroke:#fff;stroke-width:2.49074px;opacity:0.03;}.bn{fill:url(#bi);}.bo{fill:url(#bj);}.bp{fill:url(#bk);}.bq{fill:url(#bl);}.br{fill:url(#bm);}.bs{fill:url(#bn);}.bt{fill:url(#bo);}.bu{fill:url(#bp);}.bv{fill:url(#bq);}.bw{fill:url(#br);}.bx{fill:url(#bs);}.by{fill:url(#bt);}.bz{fill:url(#bu);}.ca{fill:url(#bv);}.cb{fill:url(#bw);}.cc{fill:url(#bx);}.cd{fill:url(#by);}.ce{fill:url(#bz);}.cf{fill:url(#ca);}.cg{fill:url(#cb);}</style><linearGradient id="a" x1="212.29129" y1="266.34296" x2="343.05253" y2="266.34296" gradientUnits="userSpaceOnUse"><stop offset="0" stop-color="#f5fbff"/><stop offset="0.62567" stop-color="#e9f1f5"/><stop offset="1" stop-color="#c5d9e0"/></linearGradient><linearGradient id="b" x1="350.47248" y1="437.00032" x2="195.77479" y2="231.97038" gradientUnits="userSpaceOnUse"><stop offset="0" stop-color="#077bbb"/><stop offset="1" stop-color="#39b7f0"/></linearGradient><linearGradient id="c" x1="314.5985" y1="122.51657" x2="282.48628" y2="384.06821" gradientUnits="userSpaceOnUse"><stop offset="0" stop-color="#bfc4c7"/><stop offset="1" stop-color="#b1c3c9"/></linearGradient><clipPath id="e"><path class="a" d="M408.22874,405.79855,343.0529,176.30864V105.42691c0,7.24792-28.38906,13.12353-63.409,13.12353s-63.409-5.87561-63.409-13.12353v70.88173L151.05866,405.79855A16.974,16.974,0,0,0,167.42909,427.259H391.85831A16.974,16.974,0,0,0,408.22874,405.79855Z"/></clipPath><linearGradient id="f" x1="221.84148" y1="261.5691" x2="298.08302" y2="458.47117" gradientUnits="userSpaceOnUse"><stop offset="0" stop-color="#f5f5f5"/><stop offset="1" stop-color="#c3d1d6"/></linearGradient><linearGradient id="g" x1="494.21299" y1="310.87255" x2="264.71322" y2="310.87255" xlink:href="#b"/><linearGradient id="h" x1="279.64382" y1="79.17889" x2="279.64382" y2="118.27982" xlink:href="#a"/><clipPath id="j"><path class="b" d="M393.37155,399.68487,337.754,203.84887h-.60171c0,6.98613-25.74021,12.64944-57.49231,12.64944s-57.49231-5.66331-57.49231-12.64944h-.63424L165.91616,399.685A13.67653,13.67653,0,0,0,179.07252,417.098H380.21519A13.67684,13.67684,0,0,0,393.37155,399.68487Z"/></clipPath><linearGradient id="k" x1="526.76403" y1="330.31553" x2="227.79392" y2="330.31553" xlink:href="#b"/><linearGradient id="l" x1="97.74394" y1="381.82094" x2="442.843" y2="381.82094" xlink:href="#b"/><linearGradient id="m" x1="381.76558" y1="203.84887" x2="245.51893" y2="203.84887" xlink:href="#b"/><linearGradient id="n" x1="221.54502" y1="203.84887" x2="337.77505" y2="203.84887" gradientUnits="userSpaceOnUse"><stop offset="0" stop-color="#26b1ff"/><stop offset="1" stop-color="#39b7f0"/></linearGradient><radialGradient id="o" cx="250.30733" cy="219.93933" r="20.84617" gradientTransform="matrix(0.2537, -0.96728, 0.95587, 0.2507, -23.42907, 406.91771)" gradientUnits="userSpaceOnUse"><stop offset="0" stop-color="#35a0c7" stop-opacity="0.8"/><stop offset="0.29921" stop-color="#39a3ca" stop-opacity="0.80046"/><stop offset="0.52418" stop-color="#44acd2" stop-opacity="0.80193"/><stop offset="0.72493" stop-color="#58bce0" stop-opacity="0.8044"/><stop offset="0.91041" stop-color="#74d2f3" stop-opacity="0.80787"/><stop offset="1" stop-color="#85e0ff" stop-opacity="0.81"/></radialGradient><radialGradient id="p" cx="109.1188" cy="798.20219" r="13.50603" gradientTransform="translate(113.00343 -407.62878) scale(1.24415 0.77108)" gradientUnits="userSpaceOnUse"><stop offset="0" stop-color="#529ceb"/><stop offset="0.37881" stop-color="#529ceb" stop-opacity="0.99203"/><stop offset="0.51527" stop-color="#539dea" stop-opacity="0.96313"/><stop offset="0.61253" stop-color="#559dea" stop-opacity="0.91281"/><stop offset="0.69121" stop-color="#579ee9" stop-opacity="0.8409"/><stop offset="0.75863" stop-color="#5aa0e7" stop-opacity="0.74715"/><stop offset="0.81834" stop-color="#5ea2e5" stop-opacity="0.63133"/><stop offset="0.87231" stop-color="#62a4e3" stop-opacity="0.49335"/><stop offset="0.92196" stop-color="#67a6e1" stop-opacity="0.33264"/><stop offset="0.96609" stop-color="#6da9de" stop-opacity="0.15775"/><stop offset="1" stop-color="#72abdc" stop-opacity="0"/></radialGradient><radialGradient id="q" cx="261.98018" cy="208.92271" r="1.70715" gradientTransform="matrix(0.2537, -0.96728, 0.95587, 0.2507, -4.18711, 409.95397)" gradientUnits="userSpaceOnUse"><stop offset="0" stop-color="#c1d6eb"/><stop offset="0.37881" stop-color="#c0d6eb" stop-opacity="0.99203"/><stop offset="0.51527" stop-color="#bed4ea" stop-opacity="0.96313"/><stop offset="0.61253" stop-color="#bad2ea" stop-opacity="0.91281"/><stop offset="0.69121" stop-color="#b4cfe9" stop-opacity="0.8409"/><stop offset="0.75863" stop-color="#adcbe7" stop-opacity="0.74715"/><stop offset="0.81834" stop-color="#a4c6e5" stop-opacity="0.63133"/><stop offset="0.87231" stop-color="#99c0e3" stop-opacity="0.49335"/><stop offset="0.92196" stop-color="#8cb9e1" stop-opacity="0.33264"/><stop offset="0.96609" stop-color="#7eb2de" stop-opacity="0.15775"/><stop offset="1" stop-color="#72abdc" stop-opacity="0"/></radialGradient><radialGradient id="r" cx="264.78741" cy="211.28241" r="0.61895" gradientTransform="matrix(0.2537, -0.96728, 0.95587, 0.2507, -4.34764, 414.43747)" gradientUnits="userSpaceOnUse"><stop offset="0" stop-color="#c1d6eb"/><stop offset="0.22496" stop-color="#c0d6eb" stop-opacity="0.98901"/><stop offset="0.3644" stop-color="#bdd4ea" stop-opacity="0.95275"/><stop offset="0.48062" stop-color="#b8d1e9" stop-opacity="0.89088"/><stop offset="0.58411" stop-color="#b1cee8" stop-opacity="0.80322"/><stop offset="0.67914" stop-color="#a8c9e6" stop-opacity="0.68961"/><stop offset="0.7679" stop-color="#9dc3e4" stop-opacity="0.55"/><stop offset="0.85188" stop-color="#90bce2" stop-opacity="0.38414"/><stop offset="0.92991" stop-color="#82b3df" stop-opacity="0.19725"/><stop offset="1" stop-color="#72abdc" stop-opacity="0"/></radialGradient><radialGradient id="s" cx="240.67606" cy="234.79462" r="0.61895" gradientTransform="matrix(0.2537, -0.96728, 0.95587, 0.2507, -44.8167, 408.73255)" xlink:href="#r"/><radialGradient id="t" cx="236.04188" cy="227.60973" r="5.45098" gradientTransform="matrix(1, 0, 0, 1, 0, 0)" xlink:href="#q"/><radialGradient id="u" cx="260.18332" cy="231.87284" r="2.48527" gradientTransform="translate(0 33.68423) scale(1 0.85473)" gradientUnits="userSpaceOnUse"><stop offset="0" stop-color="#529ceb"/><stop offset="0.09168" stop-color="#539ceb" stop-opacity="0.96822"/><stop offset="0.22975" stop-color="#569ee9" stop-opacity="0.88033"/><stop offset="0.39704" stop-color="#5aa0e7" stop-opacity="0.73641"/><stop offset="0.58721" stop-color="#61a3e4" stop-opacity="0.53628"/><stop offset="0.79369" stop-color="#69a7e0" stop-opacity="0.2836"/><stop offset="1" stop-color="#72abdc" stop-opacity="0"/></radialGradient><radialGradient id="v" cx="310.48485" cy="189.60249" r="11.78101" gradientTransform="matrix(0.2537, -0.96728, 0.95587, 0.2507, 50.47974, 442.39519)" xlink:href="#o"/><radialGradient id="w" cx="159.41341" cy="775.59481" r="7.6328" gradientTransform="translate(111.27809 -415.27452) scale(1.24415 0.77108)" xlink:href="#p"/><radialGradient id="x" cx="317.08165" cy="183.37656" r="0.96478" gradientTransform="matrix(0.2537, -0.96728, 0.95587, 0.2507, 61.35415, 444.1111)" xlink:href="#q"/><radialGradient id="y" cx="318.66813" cy="184.71012" r="0.34979" gradientTransform="matrix(0.2537, -0.96728, 0.95587, 0.2507, 61.26342, 446.64491)" xlink:href="#r"/><radialGradient id="z" cx="305.04183" cy="197.99782" r="0.34979" gradientTransform="matrix(0.2537, -0.96728, 0.95587, 0.2507, 38.39273, 443.42083)" xlink:href="#r"/><radialGradient id="aa" cx="302.42287" cy="193.93734" r="3.08057" gradientTransform="matrix(1, 0, 0, 1, 0, 0)" xlink:href="#q"/><radialGradient id="ab" cx="316.06617" cy="196.3466" r="1.40453" gradientTransform="translate(0 28.52332) scale(1 0.85473)" xlink:href="#u"/><radialGradient id="ac" cx="284.20939" cy="161.68117" r="6.26748" gradientTransform="matrix(0.2537, -0.96728, 0.95587, 0.2507, 57.55952, 396.05805)" xlink:href="#o"/><radialGradient id="ad" cx="140.1879" cy="746.096" r="4.06064" gradientTransform="translate(109.33033 -417.25137) scale(1.24415 0.77108)" xlink:href="#p"/><radialGradient id="ae" cx="287.71887" cy="158.36899" r="0.51326" gradientTransform="matrix(0.2537, -0.96728, 0.95587, 0.2507, 63.34469, 396.97091)" xlink:href="#q"/><radialGradient id="af" cx="288.56288" cy="159.07844" r="0.18609" gradientTransform="matrix(0.2537, -0.96728, 0.95587, 0.2507, 63.29643, 398.31889)" xlink:href="#r"/><radialGradient id="ag" cx="281.31371" cy="166.14747" r="0.18609" gradientTransform="matrix(0.2537, -0.96728, 0.95587, 0.2507, 51.12926, 396.60369)" xlink:href="#r"/><radialGradient id="ah" cx="279.92043" cy="163.98731" r="1.63886" gradientTransform="matrix(1, 0, 0, 1, 0, 0)" xlink:href="#q"/><radialGradient id="ai" cx="287.17864" cy="165.26903" r="0.74721" gradientTransform="translate(0 24.00868) scale(1 0.85473)" xlink:href="#u"/><radialGradient id="aj" cx="283.60475" cy="261.32539" r="13.75721" gradientTransform="matrix(0.2537, -0.96728, 0.95587, 0.2507, -38.13895, 470.13614)" xlink:href="#o"/><radialGradient id="ak" cx="133.45457" cy="851.33298" r="8.91317" gradientTransform="translate(116.54838 -403.09797) scale(1.24415 0.77108)" xlink:href="#p"/><radialGradient id="al" cx="291.30812" cy="254.05509" r="1.12662" gradientTransform="matrix(0.2537, -0.96728, 0.95587, 0.2507, -25.44042, 472.13989)" xlink:href="#q"/><radialGradient id="am" cx="293.16072" cy="255.61235" r="0.40847" gradientTransform="matrix(0.2537, -0.96728, 0.95587, 0.2507, -25.54636, 475.09873)" xlink:href="#r"/><radialGradient id="an" cx="277.24869" cy="271.12899" r="0.40847" gradientTransform="matrix(0.2537, -0.96728, 0.95587, 0.2507, -52.25349, 471.33382)" xlink:href="#r"/><radialGradient id="ao" cx="274.19041" cy="266.38739" r="3.59732" gradientTransform="matrix(1, 0, 0, 1, 0, 0)" xlink:href="#q"/><radialGradient id="ap" cx="290.12231" cy="269.20079" r="1.64013" gradientTransform="translate(0 39.10687) scale(1 0.85473)" xlink:href="#u"/><radialGradient id="aq" cx="255.84025" cy="300.96415" r="7.31881" gradientTransform="matrix(0.2537, -0.96728, 0.95587, 0.2507, -96.74931, 472.98114)" xlink:href="#o"/><radialGradient id="ar" cx="108.94307" cy="896.98227" r="4.74179" gradientTransform="translate(119.75664 -394.92306) scale(1.24415 0.77108)" xlink:href="#p"/><radialGradient id="as" cx="259.93843" cy="297.09637" r="0.59936" gradientTransform="matrix(0.2537, -0.96728, 0.95587, 0.2507, -89.99371, 474.04713)" xlink:href="#q"/><radialGradient id="at" cx="260.92401" cy="297.92483" r="0.21731" gradientTransform="matrix(0.2537, -0.96728, 0.95587, 0.2507, -90.05007, 475.62122)" xlink:href="#r"/><radialGradient id="au" cx="252.45883" cy="306.17965" r="0.21731" gradientTransform="matrix(0.2537, -0.96728, 0.95587, 0.2507, -104.25822, 473.6183)" xlink:href="#r"/><radialGradient id="av" cx="250.83183" cy="303.65713" r="1.91377" gradientTransform="matrix(1, 0, 0, 1, 0, 0)" xlink:href="#q"/><radialGradient id="aw" cx="259.30758" cy="305.15385" r="0.87255" gradientTransform="translate(0 44.32978) scale(1 0.85473)" xlink:href="#u"/><radialGradient id="ax" cx="329.10382" cy="187.69907" r="96.86305" gradientTransform="translate(304.79767 -141.22623) rotate(81.99169) scale(1 0.11591)" gradientUnits="userSpaceOnUse"><stop offset="0" stop-color="#e6f3ff"/><stop offset="1" stop-color="#b9cbf0" stop-opacity="0"/></radialGradient><radialGradient id="ay" cx="211.2439" cy="310.47363" r="79.87596" gradientTransform="matrix(0.2537, -0.96728, 0.15236, 0.03996, 110.34939, 502.39999)" xlink:href="#ax"/><radialGradient id="az" cx="347.3741" cy="294.76099" r="5.63016" gradientTransform="matrix(1, 0, 0, 1, 0, 0)" xlink:href="#ax"/><radialGradient id="ba" cx="329.26684" cy="185.10519" r="5.63016" gradientTransform="matrix(1, 0, 0, 1, 0, 0)" xlink:href="#ax"/><radialGradient id="bb" cx="215.99006" cy="284.80845" r="19.98648" gradientUnits="userSpaceOnUse"><stop offset="0.1"/><stop offset="0.11244" stop-color="#080602"/><stop offset="0.16172" stop-color="#231b08"/><stop offset="0.21838" stop-color="#392c0d"/><stop offset="0.28458" stop-color="#4a3910"/><stop offset="0.36644" stop-color="#554213"/><stop offset="0.48125" stop-color="#5c4815"/><stop offset="0.8" stop-color="#5e4915"/><stop offset="1"/></radialGradient><radialGradient id="bc" cx="193.96924" cy="354.67724" r="0.6662" gradientUnits="userSpaceOnUse"><stop offset="0" stop-color="#d4e194"/><stop offset="0.05952" stop-color="#afba7a"/><stop offset="0.13651" stop-color="#868f5e"/><stop offset="0.21955" stop-color="#626845"/><stop offset="0.30759" stop-color="#44482f"/><stop offset="0.40211" stop-color="#2b2e1e"/><stop offset="0.50556" stop-color="#181911"/><stop offset="0.62249" stop-color="#0a0b07"/><stop offset="0.76429" stop-color="#020302"/><stop offset="1"/></radialGradient><radialGradient id="bd" cx="192.25929" cy="360.10248" r="0.6662" xlink:href="#bc"/><radialGradient id="be" cx="193.20852" cy="357.09076" r="4.99665" gradientUnits="userSpaceOnUse"><stop offset="0.05"/><stop offset="0.09242" stop-color="#040a03"/><stop offset="0.29802" stop-color="#183411"/><stop offset="0.48337" stop-color="#25531c"/><stop offset="0.64031" stop-color="#2e6622"/><stop offset="0.75" stop-color="#316d24"/><stop offset="0.78593" stop-color="#4f6e16"/><stop offset="0.83397" stop-color="#716f06"/><stop offset="0.86" stop-color="#7e6f00"/><stop offset="0.88764" stop-color="#7a6c00"/><stop offset="0.91229" stop-color="#706200"/><stop offset="0.93581" stop-color="#5d5200"/><stop offset="0.95863" stop-color="#443c00"/><stop offset="0.98074" stop-color="#231f00"/><stop offset="1"/></radialGradient><radialGradient id="bf" cx="211.2439" cy="299.86722" r="13.32427" gradientUnits="userSpaceOnUse"><stop offset="0" stop-color="#200"/><stop offset="0.73" stop-color="#984023"/><stop offset="1" stop-color="#200"/></radialGradient><radialGradient id="bg" cx="211.2439" cy="299.86722" r="6.66221" gradientUnits="userSpaceOnUse"><stop offset="0.15" stop-color="#fff"/><stop offset="0.20939" stop-color="#e5d3d3"/><stop offset="0.29044" stop-color="#c49c9e"/><stop offset="0.36051" stop-color="#ad7477"/><stop offset="0.41599" stop-color="#9e5c5f"/><stop offset="0.45" stop-color="#995356"/><stop offset="0.57175" stop-color="#6b3335"/><stop offset="0.69355" stop-color="#431718"/><stop offset="0.79053" stop-color="#2b0606"/><stop offset="0.85" stop-color="#200"/><stop offset="0.85727" stop-color="#260201"/><stop offset="0.8648" stop-color="#330704"/><stop offset="0.87246" stop-color="#471009"/><stop offset="0.8802" stop-color="#641d0f"/><stop offset="0.88801" stop-color="#8a2e18"/><stop offset="0.89577" stop-color="#b74223"/><stop offset="0.9" stop-color="#d34e29"/><stop offset="0.90254" stop-color="#c84927"/><stop offset="0.91417" stop-color="#9c361c"/><stop offset="0.92635" stop-color="#772514"/><stop offset="0.93893" stop-color="#58180c"/><stop offset="0.95205" stop-color="#400d07"/><stop offset="0.96594" stop-color="#2f0603"/><stop offset="0.98111" stop-color="#250101"/><stop offset="1" stop-color="#200"/></radialGradient><radialGradient id="bh" cx="211.2439" cy="299.86722" r="5.55184" gradientUnits="userSpaceOnUse"><stop offset="0.15" stop-color="#fff"/><stop offset="0.28237" stop-color="#c2c2c2"/><stop offset="0.42528" stop-color="#888"/><stop offset="0.5636" stop-color="#575757"/><stop offset="0.69361" stop-color="#313131"/><stop offset="0.81336" stop-color="#161616"/><stop offset="0.91921" stop-color="#060606"/><stop offset="1"/></radialGradient><radialGradient id="bi" cx="192.25929" cy="360.10248" r="9.9933" gradientUnits="userSpaceOnUse"><stop offset="0.64"/><stop offset="0.71799" stop-color="#000200"/><stop offset="0.74608" stop-color="#020902"/><stop offset="0.76609" stop-color="#051405"/><stop offset="0.78228" stop-color="#082509"/><stop offset="0.79598" stop-color="#0d3b0e"/><stop offset="0.8" stop-color="#0f4310"/><stop offset="0.8131" stop-color="#1e2c0a"/><stop offset="0.82975" stop-color="#2d1605"/><stop offset="0.84569" stop-color="#360901"/><stop offset="0.86" stop-color="#390400"/><stop offset="0.8715" stop-color="#250300"/><stop offset="0.88602" stop-color="#140100"/><stop offset="0.90412" stop-color="#090100"/><stop offset="0.92951" stop-color="#020000"/><stop offset="1"/></radialGradient><radialGradient id="bj" cx="195.92547" cy="348.47068" r="2.8404" gradientUnits="userSpaceOnUse"><stop offset="0.1"/><stop offset="0.24639" stop-color="#1b1103"/><stop offset="0.42619" stop-color="#362207"/><stop offset="0.61009" stop-color="#492e09"/><stop offset="0.79889" stop-color="#54350b"/><stop offset="1" stop-color="#58370b"/></radialGradient><radialGradient id="bk" cx="205.82125" cy="317.07271" r="1.58647" gradientUnits="userSpaceOnUse"><stop offset="0.1" stop-color="#192f1b"/><stop offset="0.2285" stop-color="#122214"/><stop offset="0.47516" stop-color="#080f09"/><stop offset="0.72928" stop-color="#020402"/><stop offset="1"/></radialGradient><radialGradient id="bl" cx="199.78412" cy="336.22767" r="1.05071" xlink:href="#bj"/><radialGradient id="bm" cx="198.82881" cy="339.25855" r="1.47759" gradientUnits="userSpaceOnUse"><stop offset="0.1"/><stop offset="0.29001" stop-color="#14160e"/><stop offset="0.51699" stop-color="#25291a"/><stop offset="0.75084" stop-color="#303422"/><stop offset="1" stop-color="#333824"/></radialGradient><radialGradient id="bn" cx="196.11216" cy="347.87787" r="2.74344" xlink:href="#bk"/><radialGradient id="bo" cx="232.83691" cy="114.97416" r="10.30064" gradientUnits="userSpaceOnUse"><stop offset="0" stop-color="#fff"/><stop offset="1" stop-color="#b9cbf0" stop-opacity="0"/></radialGradient><radialGradient id="bp" cx="324.86836" cy="195.54371" r="19.49085" xlink:href="#bb"/><radialGradient id="bq" cx="336.1211" cy="278.28504" r="0.64971" xlink:href="#bc"/><radialGradient id="br" cx="337.04722" cy="285.09392" r="0.64971" xlink:href="#bc"/><radialGradient id="bs" cx="336.56014" cy="281.51188" r="4.87267" xlink:href="#be"/><radialGradient id="bt" cx="327.30407" cy="213.45375" r="12.99396" xlink:href="#bf"/><radialGradient id="bu" cx="327.30407" cy="213.45375" r="6.49689" xlink:href="#bg"/><radialGradient id="bv" cx="327.30407" cy="213.45375" r="5.41414" xlink:href="#bh"/><radialGradient id="bw" cx="337.04722" cy="285.09392" r="9.74535" xlink:href="#bi"/><radialGradient id="bx" cx="334.68904" cy="267.75343" r="1.10156" gradientUnits="userSpaceOnUse"><stop offset="0.1"/><stop offset="0.2047" stop-color="#1c1713"/><stop offset="0.35581" stop-color="#3e3229"/><stop offset="0.51018" stop-color="#59473b"/><stop offset="0.66721" stop-color="#6c5647"/><stop offset="0.82838" stop-color="#775f4f"/><stop offset="1" stop-color="#7b6251"/></radialGradient><radialGradient id="by" cx="328.27064" cy="220.56105" r="2.14261" gradientUnits="userSpaceOnUse"><stop offset="0.1" stop-color="#393a2f"/><stop offset="0.30165" stop-color="#21221c"/><stop offset="0.52494" stop-color="#0f0f0c"/><stop offset="0.75495" stop-color="#040403"/><stop offset="1"/></radialGradient><radialGradient id="bz" cx="331.22505" cy="242.28519" r="1.97926" gradientUnits="userSpaceOnUse"><stop offset="0.1"/><stop offset="0.11031" stop-color="#010100"/><stop offset="0.32262" stop-color="#1c0e05"/><stop offset="0.53968" stop-color="#2f1808"/><stop offset="0.76257" stop-color="#3a1e09"/><stop offset="1" stop-color="#3e200a"/></radialGradient><radialGradient id="ca" cx="329.78813" cy="231.7196" r="2.49165" gradientUnits="userSpaceOnUse"><stop offset="0.1" stop-color="#7e9c95"/><stop offset="0.15454" stop-color="#6e8983"/><stop offset="0.2879" stop-color="#4d5f5b"/><stop offset="0.42427" stop-color="#313d3a"/><stop offset="0.56231" stop-color="#1c2221"/><stop offset="0.70265" stop-color="#0c0f0e"/><stop offset="0.84664" stop-color="#030404"/><stop offset="1"/></radialGradient><radialGradient id="cb" cx="336.34518" cy="279.93137" r="0.70539" gradientUnits="userSpaceOnUse"><stop offset="0.1"/><stop offset="0.22259" stop-color="#1b1722"/><stop offset="0.37027" stop-color="#352e44"/><stop offset="0.52121" stop-color="#4a3f5f"/><stop offset="0.67469" stop-color="#584c72"/><stop offset="0.8322" stop-color="#61547d"/><stop offset="1" stop-color="#645681"/></radialGradient></defs><g class="c"><ellipse class="d" cx="267.00138" cy="422.36654" rx="144.19211" ry="23.28088"/><path class="e" d="M399.68658,403.25178,339.3684,176.11123l.00787-66.2699c-17.75086,8.70907-35.47443,8.70911-59.73241,8.70911-25.04091,0-46.68471-3.005-56.99034-7.36688l-2.97676-3.17144.60953,68.81453L159.60083,403.25178a14.43621,14.43621,0,0,0,13.887,18.38H385.7996A14.43608,14.43608,0,0,0,399.68658,403.25178Z"/><path class="a" d="M408.22874,405.79855,343.0529,176.30864V105.42691c0,7.24792-28.38906,13.12353-63.409,13.12353s-63.409-5.87561-63.409-13.12353v70.88173L151.05866,405.79855A16.974,16.974,0,0,0,167.42909,427.259H391.85831A16.974,16.974,0,0,0,408.22874,405.79855Z"/><g class="f"><path class="g" d="M401.22223,411.05649c0-12.68914-54.23417-24.21532-121.13541-24.21532s-121.13541,12.00794-121.13541,24.69708,11.8099,10.12629,121.13541,11.13876C383.85225,423.638,401.22223,423.74562,401.22223,411.05649Z"/><path class="h" d="M303.619,192.63754c-2.80175-.31816-5.59681-.69123-8.39593-1.03118a108.84028,108.84028,0,0,0-15.01055-1.03272c-2.193.03845-4.39639.36006-6.55272.20571a62.46432,62.46432,0,0,0-7.14072-.04066c-9.72284.4182-19.28129,2.38686-28.77975,4.37841q-4.31316.90434-8.64184,1.73241c-6.01064,1.14982-12.15182,2.21117-17.73607,4.82648-1.48031.69328-2.55342,1.04806-3.08164,2.53739-.19881.56055-.33629,1.15159-.503,1.72257l-4.59562,15.73721-6.853,23.46722-8.36328,28.63913-9.12658,31.253-9.14285,31.30872-8.41213,28.80639-6.93436,23.746-4.7096,16.12751-1.73781,5.95093,7.5377,20.20928H412.81149v-42.6524l-61.93708-184.68c-5.89651-2.38476-11.9462-4.22669-17.94789-6.30536-5.53008-1.91533-11.61122-2.03905-17.2549-3.68935C311.96652,192.77073,307.46507,193.0743,303.619,192.63754Z"/></g><ellipse class="i" cx="279.64382" cy="105.42689" rx="63.4091" ry="13.12351"/><path class="b" d="M393.37155,399.68487,337.754,203.84887h-.60171c0,6.98613-25.74021,12.64944-57.49231,12.64944s-57.49231-5.66331-57.49231-12.64944h-.63424L165.91616,399.685A13.67653,13.67653,0,0,0,179.07252,417.098H380.21519A13.67684,13.67684,0,0,0,393.37155,399.68487Z"/><g class="j"><path class="k" d="M257.37547,262.66584c-28.84182,4.469-58.13244,6.29623-86.57757,12.83056s-56.625,18.32337-76.76011,39.4515c-11.66189,12.237-20.57246,28.8161-17.95551,45.51627,2.05122,13.09,11.00468,24.3366,21.93309,31.82829s23.74412,11.69316,36.51424,15.22582C208.781,428.0588,291.04828,428.24688,360.175,394.237c13.90016-6.83877,27.29-15.09294,38.188-26.10276s19.21421-24.981,21.62539-40.28357c2.48517-15.77218-1.48981-32.23249-9.715-45.91765a92.18474,92.18474,0,0,0-27.27322-28.22758,89.44675,89.44675,0,0,0-16.51159-8.80486c-7.67978-3.18382-12.1877-7.99135-20.31777-4.91245-9.51759,3.60435-19.31018,6.61892-29.08109,9.451A476.88171,476.88171,0,0,1,257.37547,262.66584Z"/><path class="l" d="M279.49645,314.17126c-28.84182,4.469-58.13245,6.29623-86.57757,12.83056s-56.625,18.32337-76.76011,39.4515c-11.6619,12.237-20.57246,28.8161-17.95551,45.51627,2.05122,13.09,11.00468,24.3366,21.93309,31.82829s23.74412,11.69316,36.51424,15.22582c74.25135,20.54052,156.51867,20.7286,225.64542-13.28124,13.90016-6.83877,27.29-15.09294,38.188-26.10276s19.21421-24.981,21.62539-40.28357c2.48517-15.77218-1.48981-32.23249-9.715-45.91765a92.18474,92.18474,0,0,0-27.27322-28.22758,89.44652,89.44652,0,0,0-16.5116-8.80486c-7.67977-3.18382-12.18769-7.99135-20.31776-4.91245-9.51759,3.60435-19.31018,6.61892-29.0811,9.451A476.88117,476.88117,0,0,1,279.49645,314.17126Z"/></g><ellipse class="m" cx="279.66003" cy="203.84887" rx="57.49233" ry="12.64945"/><g class="n"><circle class="o" cx="250.30733" cy="219.93933" r="21.94151"/><ellipse class="p" cx="248.76374" cy="207.84554" rx="14.66347" ry="8.84042" transform="translate(-15.03449 19.44792) rotate(-4.34581)"/><circle class="q" cx="261.98018" cy="208.92271" r="1.79686"/><circle class="r" cx="264.78741" cy="211.28241" r="0.65147"/><circle class="s" cx="240.67606" cy="234.79462" r="0.65147"/><path class="t" d="M232.84956,221.541c-.2153,4.23544,2.3335,10.34467,6.39729,12.13752"/><circle class="u" cx="260.18332" cy="231.87284" r="1.99438"/></g><g class="v"><circle class="w" cx="310.48485" cy="189.60249" r="12.40003"/><ellipse class="x" cx="309.6125" cy="182.7678" rx="8.28692" ry="4.99608" transform="translate(-12.95925 23.9867) rotate(-4.34581)"/><circle class="y" cx="317.08165" cy="183.37656" r="1.01548"/><circle class="z" cx="318.66813" cy="184.71012" r="0.36817"/><circle class="aa" cx="305.04183" cy="197.99782" r="0.36817"/><path class="ab" d="M300.61876,190.50764c-.12167,2.39362,1.31875,5.84619,3.61536,6.8594"/><circle class="ac" cx="316.06617" cy="196.3466" r="1.1271"/></g><g class="v"><circle class="ad" cx="284.20939" cy="161.68117" r="6.59679"/><ellipse class="ae" cx="283.7453" cy="158.04513" rx="4.40863" ry="2.6579" transform="translate(-11.16023 21.95551) rotate(-4.34581)"/><circle class="af" cx="287.71887" cy="158.36899" r="0.54023"/><circle class="ag" cx="288.56288" cy="159.07844" r="0.19587"/><circle class="ah" cx="281.31371" cy="166.14747" r="0.19587"/><path class="ai" d="M278.96064,162.16271a4.10838,4.10838,0,0,0,1.92337,3.64919"/><circle class="aj" cx="287.17864" cy="165.26903" r="0.59962"/></g><g class="v"><circle class="ak" cx="283.60475" cy="261.32539" r="14.48007"/><ellipse class="al" cx="282.58607" cy="253.34422" rx="9.67701" ry="5.83414" transform="translate(-18.38496 22.14166) rotate(-4.34581)"/><circle class="am" cx="291.30812" cy="254.05509" r="1.18582"/><circle class="an" cx="293.16072" cy="255.61235" r="0.42993"/><circle class="ao" cx="277.24869" cy="271.12899" r="0.42993"/><path class="ap" d="M272.08367,262.38237c-.14208,2.79514,1.54,6.82686,4.22182,8.01"/><circle class="aq" cx="290.12231" cy="269.20079" r="1.31617"/></g><g class="v"><circle class="ar" cx="255.84025" cy="300.96415" r="7.70337"/><ellipse class="as" cx="255.29831" cy="296.71819" rx="5.14815" ry="3.10376" transform="translate(-21.75012 20.19861) rotate(-4.34581)"/><circle class="at" cx="259.93843" cy="297.09637" r="0.63085"/><circle class="au" cx="260.92401" cy="297.92483" r="0.22872"/><circle class="av" cx="252.45883" cy="306.17965" r="0.22872"/><path class="aw" d="M249.71105,301.52647c-.07559,1.487.81926,3.63188,2.246,4.26132"/><circle class="ax" cx="259.30758" cy="305.15385" r="0.7002"/></g><g class="ay"><path class="az" d="M343.04676,287.064a6.22823,6.22823,0,0,1-6.087-4.945l-20.168-95.75737a6.228,6.228,0,0,1-.13378-1.28307v-57.658a6.22685,6.22685,0,1,1,12.45371,0v57.00979l20.03418,95.12253a6.23268,6.23268,0,0,1-6.09916,7.51114Z"/></g><g class="ba"><path class="bb" d="M191.12581,393.99534a6.85622,6.85622,0,0,1-6.63063-8.59051l40.24714-153.34059a6.84962,6.84962,0,0,1,13.25031,3.47828l-40.24714,153.3406A6.85073,6.85073,0,0,1,191.12581,393.99534Z"/></g><circle class="bc" cx="347.22219" cy="294.7341" r="6.23005"/><circle class="bd" cx="329.11494" cy="185.07829" r="6.23005"/><circle class="be" cx="215.99006" cy="284.80845" r="19.98648"/><circle class="bf" cx="193.96924" cy="354.67724" r="0.6662"/><circle class="bg" cx="192.25929" cy="360.10248" r="0.6662"/><circle class="bh" cx="193.20852" cy="357.09076" r="4.99665"/><line class="bi" x1="211.2439" y1="299.86722" x2="192.25929" y2="360.10248"/><circle class="bj" cx="211.2439" cy="299.86722" r="13.32427"/><circle class="bk" cx="211.2439" cy="299.86722" r="6.66221"/><circle class="bl" cx="211.2439" cy="299.86722" r="5.55184"/><polyline class="bm" points="211.244 299.867 207.659 321.456 211.244 299.867 214.829 278.279 211.244 299.867 189.655 296.282 211.244 299.867 232.832 303.453 211.244 299.867 214.188 328.005 211.244 299.867 208.3 271.729 211.244 299.867 183.106 302.812 211.244 299.867 239.382 296.923 211.244 299.867 225.106 322.954 211.244 299.867 197.382 276.781 211.244 299.867 188.157 313.729 211.244 299.867 234.331 286.005 211.244 299.867 206.953 318.177 211.244 299.867 215.535 281.557 211.244 299.867 192.934 295.576 211.244 299.867 229.554 304.158 211.244 299.867 211.078 302.086 211.244 299.867 211.41 297.648 211.244 299.867 209.025 299.702 211.244 299.867 213.463 300.033 211.244 299.867 197.019 324.444 211.244 299.867 225.469 275.291 211.244 299.867 186.667 285.642 211.244 299.867 235.821 314.092 211.244 299.867 205.154 307.632 211.244 299.867 217.334 292.103 211.244 299.867 203.479 293.777 211.244 299.867 219.008 305.958 211.244 299.867 214.388 306.55 211.244 299.867 208.1 293.184 211.244 299.867 204.561 303.011 211.244 299.867 217.927 296.723 211.244 299.867 236.241 321.784 211.244 299.867 186.247 277.95 211.244 299.867 189.327 324.864 211.244 299.867 233.161 274.87 211.244 299.867 216.774 326.989 211.244 299.867 205.714 272.745 211.244 299.867 184.122 305.397 211.244 299.867 238.366 294.337 211.244 299.867 216.262 331.627 211.244 299.867 206.226 268.107 211.244 299.867 179.484 304.885 211.244 299.867 243.004 294.849 211.244 299.867 213.857 305.658 211.244 299.867 208.631 294.077 211.244 299.867 205.453 302.48 211.244 299.867 217.034 297.255 211.244 299.867 228.369 315.235 211.244 299.867 194.119 284.5 211.244 299.867 195.876 316.993 211.244 299.867 226.612 282.742 211.244 299.867 202.775 322.971 211.244 299.867 219.712 276.764 211.244 299.867 188.14 291.399 211.244 299.867 234.347 308.336 211.244 299.867 212.508 319.956 211.244 299.867 209.98 279.778 211.244 299.867 191.155 301.131 211.244 299.867 231.333 298.603"/><circle class="bn" cx="192.25929" cy="360.10248" r="9.9933"/><circle class="bo" cx="195.92547" cy="348.47068" r="2.8404"/><circle class="bp" cx="205.82125" cy="317.07271" r="1.58647"/><circle class="bq" cx="199.78412" cy="336.22767" r="1.05071"/><circle class="br" cx="198.82881" cy="339.25855" r="1.47759"/><circle class="bs" cx="196.11216" cy="347.87787" r="2.74344"/><circle class="bt" cx="232.83691" cy="114.97416" r="10.30064"/><circle class="bu" cx="324.86836" cy="195.54371" r="19.49085"/><circle class="bv" cx="336.1211" cy="278.28504" r="0.64971"/><circle class="bw" cx="337.04722" cy="285.09392" r="0.64971"/><circle class="bx" cx="336.56014" cy="281.51188" r="4.87267"/><line class="bi" x1="327.30407" y1="213.45375" x2="337.04722" y2="285.09392"/><circle class="by" cx="327.30407" cy="213.45375" r="12.99396"/><circle class="bz" cx="327.30407" cy="213.45375" r="6.49689"/><circle class="ca" cx="327.30407" cy="213.45375" r="5.41414"/><polyline class="bm" points="327.304 213.454 332.151 213.627 327.304 213.454 322.457 213.28 327.304 213.454 327.13 218.3 327.304 213.454 327.478 208.607 327.304 213.454 335.398 236.487 327.304 213.454 319.21 190.421 327.304 213.454 304.271 221.548 327.304 213.454 350.337 205.36 327.304 213.454 336.699 225.832 327.304 213.454 317.909 201.075 327.304 213.454 314.926 222.849 327.304 213.454 339.682 204.059 327.304 213.454 330.002 226.358 327.304 213.454 324.606 200.549 327.304 213.454 314.4 216.152 327.304 213.454 340.208 210.755 327.304 213.454 332.493 216.958 327.304 213.454 322.115 209.949 327.304 213.454 323.8 218.643 327.304 213.454 330.809 208.265 327.304 213.454 341.359 223.245 327.304 213.454 313.249 203.662 327.304 213.454 317.513 227.508 327.304 213.454 337.096 199.399 327.304 213.454 341.967 214.867 327.304 213.454 312.641 212.04 327.304 213.454 325.89 228.117 327.304 213.454 328.718 198.791 327.304 213.454 332.923 231.175 327.304 213.454 321.685 195.733 327.304 213.454 309.583 219.073 327.304 213.454 345.025 207.835 327.304 213.454 328.832 214.184 327.304 213.454 325.777 212.723 327.304 213.454 326.573 214.981 327.304 213.454 328.035 211.926 327.304 213.454 348.924 230.002 327.304 213.454 305.684 196.905 327.304 213.454 310.755 235.074 327.304 213.454 343.853 191.834 327.304 213.454 329.072 230.57 327.304 213.454 325.536 196.337 327.304 213.454 310.188 215.222 327.304 213.454 344.421 211.686 327.304 213.454 351.609 216.984 327.304 213.454 302.999 209.923 327.304 213.454 323.773 237.759 327.304 213.454 330.835 189.148 327.304 213.454 327.511 244.485 327.304 213.454 327.097 182.422 327.304 213.454 296.272 213.661 327.304 213.454 358.336 213.247 327.304 213.454 335.389 232.632 327.304 213.454 319.219 194.275 327.304 213.454 308.125 221.538 327.304 213.454 346.483 205.369 327.304 213.454 333.325 232.655 327.304 213.454 321.283 194.253 327.304 213.454 308.103 219.475 327.304 213.454 346.505 207.432"/><circle class="cb" cx="337.04722" cy="285.09392" r="9.74535"/><circle class="cc" cx="334.68904" cy="267.75343" r="1.10156"/><circle class="cd" cx="328.27064" cy="220.56105" r="2.14261"/><circle class="ce" cx="331.22505" cy="242.28519" r="1.97926"/><circle class="cf" cx="329.78813" cy="231.7196" r="2.49165"/><circle class="cg" cx="336.34518" cy="279.93137" r="0.70539"/></g></svg>