<svg xmlns="http://www.w3.org/2000/svg" xmlns:xlink="http://www.w3.org/1999/xlink" viewBox="0 0 523.92572 512.20828"><defs><style>.a,.i{opacity:0.72;}.a{fill:url(#a);}.b,.ba,.k,.l,.m{opacity:0.8;}.b{fill:url(#b);}.c{isolation:isolate;}.d{fill:#683c11;fill-opacity:0.51;}.e,.g{mix-blend-mode:multiply;}.e{fill:url(#c);}.f{clip-path:url(#e);}.g{fill:url(#f);}.h{opacity:0.42;fill:url(#g);}.i{fill:url(#h);}.j{clip-path:url(#j);}.k{fill:url(#k);}.l{fill:url(#l);}.bm,.m{stroke-miterlimit:10;}.m,.t{stroke-width:1.24537px;}.m{fill:url(#m);stroke:url(#n);}.bc,.bd,.bk,.bn,.bz,.cb,.n{opacity:0.5;}.o{fill:url(#o);}.aa,.ab,.ae,.ah,.ai,.al,.ao,.ap,.as,.av,.aw,.p,.s,.t,.x{mix-blend-mode:soft-light;}.p{fill:url(#p);}.q{fill:url(#q);}.r{fill:url(#r);}.s{fill:url(#s);}.ab,.ai,.ap,.aw,.bi,.bm,.t{fill:none;}.ab,.ai,.ap,.aw,.t{stroke-linecap:round;stroke-linejoin:round;}.t{stroke:url(#t);}.u{fill:url(#u);}.v{opacity:0.3;}.w{fill:url(#v);}.x{fill:url(#w);}.y{fill:url(#x);}.z{fill:url(#y);}.aa{fill:url(#z);}.ab{stroke-width:0.70381px;stroke:url(#aa);}.ac{fill:url(#ab);}.ad{fill:url(#ac);}.ae{fill:url(#ad);}.af{fill:url(#ae);}.ag{fill:url(#af);}.ah{fill:url(#ag);}.ai{stroke-width:0.37443px;stroke:url(#ah);}.aj{fill:url(#ai);}.ak{fill:url(#aj);}.al{fill:url(#ak);}.am{fill:url(#al);}.an{fill:url(#am);}.ao{fill:url(#an);}.ap{stroke-width:0.82187px;stroke:url(#ao);}.aq{fill:url(#ap);}.ar{fill:url(#aq);}.as{fill:url(#ar);}.at{fill:url(#as);}.au{fill:url(#at);}.av{fill:url(#au);}.aw{stroke-width:0.43723px;stroke:url(#av);}.ax{fill:url(#aw);}.ay{opacity:0.54;}.az{fill:url(#ax);}.ba{mix-blend-mode:hard-light;}.bb{fill:url(#ay);}.bc{fill:url(#az);}.bd{fill:url(#ba);}.be,.bu{opacity:0.25;}.be,.bf,.bg,.bh,.bj,.bk,.bl,.bm,.bn,.bo,.bp,.bq,.br,.bs,.bu,.bv,.bw,.bx,.by,.bz,.ca,.cb,.cc,.cd,.ce,.cf,.cg{mix-blend-mode:screen;}.be{fill:url(#bb);}.bf{fill:url(#bc);}.bg{fill:url(#bd);}.bh,.bx{opacity:0.2;}.bh{fill:url(#be);}.bj,.by{opacity:0.15;}.bj{fill:url(#bf);}.bk{fill:url(#bg);}.bl{fill:url(#bh);}.bm{stroke:#fff;stroke-width:2.49074px;opacity:0.03;}.bn{fill:url(#bi);}.bo{fill:url(#bj);}.bp{fill:url(#bk);}.bq{fill:url(#bl);}.br{fill:url(#bm);}.bs{fill:url(#bn);}.bt{fill:url(#bo);}.bu{fill:url(#bp);}.bv{fill:url(#bq);}.bw{fill:url(#br);}.bx{fill:url(#bs);}.by{fill:url(#bt);}.bz{fill:url(#bu);}.ca{fill:url(#bv);}.cb{fill:url(#bw);}.cc{fill:url(#bx);}.cd{fill:url(#by);}.ce{fill:url(#bz);}.cf{fill:url(#ca);}.cg{fill:url(#cb);}</style><linearGradient id="a" x1="212.32728" y1="266.27125" x2="343.08852" y2="266.27125" gradientUnits="userSpaceOnUse"><stop offset="0" stop-color="#f5fbff"/><stop offset="0.62567" stop-color="#e9f1f5"/><stop offset="1" stop-color="#c5d9e0"/></linearGradient><linearGradient id="b" x1="350.50846" y1="436.92861" x2="195.81078" y2="231.89867" gradientUnits="userSpaceOnUse"><stop offset="0" stop-color="#87bb07"/><stop offset="1" stop-color="#c2f039"/></linearGradient><linearGradient id="c" x1="314.63448" y1="122.44486" x2="282.52227" y2="383.9965" gradientUnits="userSpaceOnUse"><stop offset="0" stop-color="#bfc4c7"/><stop offset="1" stop-color="#b1c3c9"/></linearGradient><clipPath id="e"><path class="a" d="M408.26473,405.72684,343.08888,176.23692V105.3552c0,7.24792-28.389,13.12353-63.409,13.12353s-63.409-5.87561-63.409-13.12353v70.88172L151.09465,405.72684a16.974,16.974,0,0,0,16.37043,21.46045H391.8943A16.974,16.974,0,0,0,408.26473,405.72684Z"/></clipPath><linearGradient id="f" x1="221.87747" y1="261.49739" x2="298.11901" y2="458.39945" gradientUnits="userSpaceOnUse"><stop offset="0" stop-color="#f5f5f5"/><stop offset="1" stop-color="#c3d1d6"/></linearGradient><linearGradient id="g" x1="494.24897" y1="310.80083" x2="264.74921" y2="310.80083" xlink:href="#b"/><linearGradient id="h" x1="279.67981" y1="79.10718" x2="279.67981" y2="118.20811" xlink:href="#a"/><clipPath id="j"><path class="b" d="M393.40754,399.61316,337.79,203.77716h-.6017c0,6.98613-25.74021,12.64944-57.49231,12.64944s-57.49231-5.66331-57.49231-12.64944h-.63424L165.95215,399.61324a13.67652,13.67652,0,0,0,13.15636,17.41307H380.25117A13.67684,13.67684,0,0,0,393.40754,399.61316Z"/></clipPath><linearGradient id="k" x1="526.80002" y1="330.24381" x2="227.82991" y2="330.24381" xlink:href="#b"/><linearGradient id="l" x1="97.77993" y1="381.74923" x2="442.87899" y2="381.74923" xlink:href="#b"/><linearGradient id="m" x1="381.80157" y1="203.77716" x2="245.55492" y2="203.77716" xlink:href="#b"/><linearGradient id="n" x1="221.581" y1="203.77716" x2="337.81104" y2="203.77716" gradientUnits="userSpaceOnUse"><stop offset="0" stop-color="#c0ff26"/><stop offset="1" stop-color="#c2f039"/></linearGradient><radialGradient id="o" cx="250.34332" cy="219.86761" r="20.84617" gradientTransform="matrix(0.2537, -0.96728, 0.95587, 0.2507, -23.33367, 406.89879)" gradientUnits="userSpaceOnUse"><stop offset="0" stop-color="#a7c735" stop-opacity="0.8"/><stop offset="0.29921" stop-color="#aaca39" stop-opacity="0.80046"/><stop offset="0.52418" stop-color="#b3d244" stop-opacity="0.80193"/><stop offset="0.72493" stop-color="#c3e058" stop-opacity="0.8044"/><stop offset="0.91041" stop-color="#d9f374" stop-opacity="0.80787"/><stop offset="1" stop-color="#e6ff85" stop-opacity="0.81"/></radialGradient><radialGradient id="p" cx="676.09013" cy="558.28177" r="13.50603" gradientTransform="translate(-592.35874 -222.70369) scale(1.24415 0.77108)" gradientUnits="userSpaceOnUse"><stop offset="0" stop-color="#abeb52"/><stop offset="0.37881" stop-color="#abeb52" stop-opacity="0.99203"/><stop offset="0.51527" stop-color="#abea53" stop-opacity="0.96313"/><stop offset="0.61253" stop-color="#acea55" stop-opacity="0.91281"/><stop offset="0.69121" stop-color="#ace957" stop-opacity="0.8409"/><stop offset="0.75863" stop-color="#ade75a" stop-opacity="0.74715"/><stop offset="0.81834" stop-color="#aee55e" stop-opacity="0.63133"/><stop offset="0.87231" stop-color="#b0e362" stop-opacity="0.49335"/><stop offset="0.92196" stop-color="#b1e167" stop-opacity="0.33264"/><stop offset="0.96609" stop-color="#b3de6d" stop-opacity="0.15775"/><stop offset="1" stop-color="#b4dc72" stop-opacity="0"/></radialGradient><radialGradient id="q" cx="262.01617" cy="208.851" r="1.70715" gradientTransform="matrix(0.2537, -0.96728, 0.95587, 0.2507, -4.09171, 409.93504)" gradientUnits="userSpaceOnUse"><stop offset="0" stop-color="#daebc1"/><stop offset="0.37881" stop-color="#daebc0" stop-opacity="0.99203"/><stop offset="0.51527" stop-color="#d9eabe" stop-opacity="0.96313"/><stop offset="0.61253" stop-color="#d7eaba" stop-opacity="0.91281"/><stop offset="0.69121" stop-color="#d4e9b4" stop-opacity="0.8409"/><stop offset="0.75863" stop-color="#d0e7ad" stop-opacity="0.74715"/><stop offset="0.81834" stop-color="#cce5a4" stop-opacity="0.63133"/><stop offset="0.87231" stop-color="#c7e399" stop-opacity="0.49335"/><stop offset="0.92196" stop-color="#c1e18c" stop-opacity="0.33264"/><stop offset="0.96609" stop-color="#bade7e" stop-opacity="0.15775"/><stop offset="1" stop-color="#b4dc72" stop-opacity="0"/></radialGradient><radialGradient id="r" cx="264.82339" cy="211.2107" r="0.61895" gradientTransform="matrix(0.2537, -0.96728, 0.95587, 0.2507, -4.25224, 414.41854)" gradientUnits="userSpaceOnUse"><stop offset="0" stop-color="#daebc1"/><stop offset="0.22496" stop-color="#daebc0" stop-opacity="0.98901"/><stop offset="0.3644" stop-color="#d8eabd" stop-opacity="0.95275"/><stop offset="0.48062" stop-color="#d6e9b8" stop-opacity="0.89088"/><stop offset="0.58411" stop-color="#d3e8b1" stop-opacity="0.80322"/><stop offset="0.67914" stop-color="#cee6a8" stop-opacity="0.68961"/><stop offset="0.7679" stop-color="#c9e49d" stop-opacity="0.55"/><stop offset="0.85188" stop-color="#c3e290" stop-opacity="0.38414"/><stop offset="0.92991" stop-color="#bbdf82" stop-opacity="0.19725"/><stop offset="1" stop-color="#b4dc72" stop-opacity="0"/></radialGradient><radialGradient id="s" cx="240.71205" cy="234.72291" r="0.61895" gradientTransform="matrix(0.2537, -0.96728, 0.95587, 0.2507, -44.7213, 408.71362)" xlink:href="#r"/><radialGradient id="t" cx="236.07786" cy="227.53802" r="5.45098" gradientTransform="matrix(1, 0, 0, 1, 0, 0)" xlink:href="#q"/><radialGradient id="u" cx="260.21931" cy="231.80113" r="2.48527" gradientTransform="translate(0 33.67381) scale(1 0.85473)" gradientUnits="userSpaceOnUse"><stop offset="0" stop-color="#abeb52"/><stop offset="0.09168" stop-color="#abeb53" stop-opacity="0.96822"/><stop offset="0.22975" stop-color="#ace956" stop-opacity="0.88033"/><stop offset="0.39704" stop-color="#ade75a" stop-opacity="0.73641"/><stop offset="0.58721" stop-color="#afe461" stop-opacity="0.53628"/><stop offset="0.79369" stop-color="#b1e069" stop-opacity="0.2836"/><stop offset="1" stop-color="#b4dc72" stop-opacity="0"/></radialGradient><radialGradient id="v" cx="310.52084" cy="189.53078" r="11.78101" gradientTransform="matrix(0.2537, -0.96728, 0.95587, 0.2507, 50.57514, 442.37627)" xlink:href="#o"/><radialGradient id="w" cx="726.38474" cy="535.67439" r="7.6328" gradientTransform="translate(-594.08408 -230.34942) scale(1.24415 0.77108)" xlink:href="#p"/><radialGradient id="x" cx="317.11763" cy="183.30485" r="0.96478" gradientTransform="matrix(0.2537, -0.96728, 0.95587, 0.2507, 61.44955, 444.09218)" xlink:href="#q"/><radialGradient id="y" cx="318.70411" cy="184.63841" r="0.34979" gradientTransform="matrix(0.2537, -0.96728, 0.95587, 0.2507, 61.35883, 446.62598)" xlink:href="#r"/><radialGradient id="z" cx="305.07782" cy="197.92611" r="0.34979" gradientTransform="matrix(0.2537, -0.96728, 0.95587, 0.2507, 38.48813, 443.4019)" xlink:href="#r"/><radialGradient id="aa" cx="302.45885" cy="193.86563" r="3.08057" gradientTransform="matrix(1, 0, 0, 1, 0, 0)" xlink:href="#q"/><radialGradient id="ab" cx="316.10216" cy="196.27489" r="1.40453" gradientTransform="translate(0 28.51291) scale(1 0.85473)" xlink:href="#u"/><radialGradient id="ac" cx="284.24538" cy="161.60946" r="6.26748" gradientTransform="matrix(0.2537, -0.96728, 0.95587, 0.2507, 57.65493, 396.03913)" xlink:href="#o"/><radialGradient id="ad" cx="707.15923" cy="506.17558" r="4.06064" gradientTransform="translate(-596.03184 -232.32627) scale(1.24415 0.77108)" xlink:href="#p"/><radialGradient id="ae" cx="287.75486" cy="158.29728" r="0.51326" gradientTransform="matrix(0.2537, -0.96728, 0.95587, 0.2507, 63.4401, 396.95199)" xlink:href="#q"/><radialGradient id="af" cx="288.59886" cy="159.00673" r="0.18609" gradientTransform="matrix(0.2537, -0.96728, 0.95587, 0.2507, 63.39183, 398.29997)" xlink:href="#r"/><radialGradient id="ag" cx="281.3497" cy="166.07576" r="0.18609" gradientTransform="matrix(0.2537, -0.96728, 0.95587, 0.2507, 51.22466, 396.58477)" xlink:href="#r"/><radialGradient id="ah" cx="279.95641" cy="163.9156" r="1.63886" gradientTransform="matrix(1, 0, 0, 1, 0, 0)" xlink:href="#q"/><radialGradient id="ai" cx="287.21463" cy="165.19732" r="0.74721" gradientTransform="translate(0 23.99826) scale(1 0.85473)" xlink:href="#u"/><radialGradient id="aj" cx="283.64074" cy="261.25368" r="13.75721" gradientTransform="matrix(0.2537, -0.96728, 0.95587, 0.2507, -38.04355, 470.11722)" xlink:href="#o"/><radialGradient id="ak" cx="700.42589" cy="611.41256" r="8.91317" gradientTransform="translate(-588.81379 -218.17288) scale(1.24415 0.77108)" xlink:href="#p"/><radialGradient id="al" cx="291.34411" cy="253.98337" r="1.12662" gradientTransform="matrix(0.2537, -0.96728, 0.95587, 0.2507, -25.34501, 472.12096)" xlink:href="#q"/><radialGradient id="am" cx="293.19671" cy="255.54063" r="0.40847" gradientTransform="matrix(0.2537, -0.96728, 0.95587, 0.2507, -25.45095, 475.0798)" xlink:href="#r"/><radialGradient id="an" cx="277.28468" cy="271.05728" r="0.40847" gradientTransform="matrix(0.2537, -0.96728, 0.95587, 0.2507, -52.15809, 471.3149)" xlink:href="#r"/><radialGradient id="ao" cx="274.22639" cy="266.31568" r="3.59732" gradientTransform="matrix(1, 0, 0, 1, 0, 0)" xlink:href="#q"/><radialGradient id="ap" cx="290.15829" cy="269.12908" r="1.64013" gradientTransform="translate(0 39.09645) scale(1 0.85473)" xlink:href="#u"/><radialGradient id="aq" cx="255.87623" cy="300.89244" r="7.31881" gradientTransform="matrix(0.2537, -0.96728, 0.95587, 0.2507, -96.6539, 472.96222)" xlink:href="#o"/><radialGradient id="ar" cx="675.9144" cy="657.06185" r="4.74179" gradientTransform="translate(-585.60553 -209.99796) scale(1.24415 0.77108)" xlink:href="#p"/><radialGradient id="as" cx="259.97442" cy="297.02465" r="0.59936" gradientTransform="matrix(0.2537, -0.96728, 0.95587, 0.2507, -89.8983, 474.0282)" xlink:href="#q"/><radialGradient id="at" cx="260.96" cy="297.85311" r="0.21731" gradientTransform="matrix(0.2537, -0.96728, 0.95587, 0.2507, -89.95466, 475.6023)" xlink:href="#r"/><radialGradient id="au" cx="252.49482" cy="306.10794" r="0.21731" gradientTransform="matrix(0.2537, -0.96728, 0.95587, 0.2507, -104.16281, 473.59938)" xlink:href="#r"/><radialGradient id="av" cx="250.86782" cy="303.58542" r="1.91377" gradientTransform="matrix(1, 0, 0, 1, 0, 0)" xlink:href="#q"/><radialGradient id="aw" cx="259.34356" cy="305.08214" r="0.87255" gradientTransform="translate(0 44.31936) scale(1 0.85473)" xlink:href="#u"/><radialGradient id="ax" cx="329.13981" cy="187.62735" r="96.86305" gradientTransform="translate(304.82041 -141.33242) rotate(81.99169) scale(1 0.11591)" gradientUnits="userSpaceOnUse"><stop offset="0" stop-color="#e6f3ff"/><stop offset="1" stop-color="#b9cbf0" stop-opacity="0"/></radialGradient><radialGradient id="ay" cx="211.27989" cy="310.40191" r="79.87596" gradientTransform="matrix(0.2537, -0.96728, 0.15236, 0.03996, 110.38717, 502.36595)" xlink:href="#ax"/><radialGradient id="az" cx="347.41008" cy="294.68928" r="5.63016" gradientTransform="matrix(1, 0, 0, 1, 0, 0)" xlink:href="#ax"/><radialGradient id="ba" cx="329.30283" cy="185.03348" r="5.63016" gradientTransform="matrix(1, 0, 0, 1, 0, 0)" xlink:href="#ax"/><radialGradient id="bb" cx="216.02605" cy="284.73673" r="19.98648" gradientUnits="userSpaceOnUse"><stop offset="0.1"/><stop offset="0.11244" stop-color="#080602"/><stop offset="0.16172" stop-color="#231b08"/><stop offset="0.21838" stop-color="#392c0d"/><stop offset="0.28458" stop-color="#4a3910"/><stop offset="0.36644" stop-color="#554213"/><stop offset="0.48125" stop-color="#5c4815"/><stop offset="0.8" stop-color="#5e4915"/><stop offset="1"/></radialGradient><radialGradient id="bc" cx="194.00523" cy="354.60553" r="0.6662" gradientUnits="userSpaceOnUse"><stop offset="0" stop-color="#d4e194"/><stop offset="0.05952" stop-color="#afba7a"/><stop offset="0.13651" stop-color="#868f5e"/><stop offset="0.21955" stop-color="#626845"/><stop offset="0.30759" stop-color="#44482f"/><stop offset="0.40211" stop-color="#2b2e1e"/><stop offset="0.50556" stop-color="#181911"/><stop offset="0.62249" stop-color="#0a0b07"/><stop offset="0.76429" stop-color="#020302"/><stop offset="1"/></radialGradient><radialGradient id="bd" cx="192.29528" cy="360.03077" r="0.6662" xlink:href="#bc"/><radialGradient id="be" cx="193.24451" cy="357.01904" r="4.99665" gradientUnits="userSpaceOnUse"><stop offset="0.05"/><stop offset="0.09242" stop-color="#040a03"/><stop offset="0.29802" stop-color="#183411"/><stop offset="0.48337" stop-color="#25531c"/><stop offset="0.64031" stop-color="#2e6622"/><stop offset="0.75" stop-color="#316d24"/><stop offset="0.78593" stop-color="#4f6e16"/><stop offset="0.83397" stop-color="#716f06"/><stop offset="0.86" stop-color="#7e6f00"/><stop offset="0.88764" stop-color="#7a6c00"/><stop offset="0.91229" stop-color="#706200"/><stop offset="0.93581" stop-color="#5d5200"/><stop offset="0.95863" stop-color="#443c00"/><stop offset="0.98074" stop-color="#231f00"/><stop offset="1"/></radialGradient><radialGradient id="bf" cx="211.27989" cy="299.79551" r="13.32427" gradientUnits="userSpaceOnUse"><stop offset="0" stop-color="#200"/><stop offset="0.73" stop-color="#984023"/><stop offset="1" stop-color="#200"/></radialGradient><radialGradient id="bg" cx="211.27989" cy="299.79551" r="6.66221" gradientUnits="userSpaceOnUse"><stop offset="0.15" stop-color="#fff"/><stop offset="0.20939" stop-color="#e5d3d3"/><stop offset="0.29044" stop-color="#c49c9e"/><stop offset="0.36051" stop-color="#ad7477"/><stop offset="0.41599" stop-color="#9e5c5f"/><stop offset="0.45" stop-color="#995356"/><stop offset="0.57175" stop-color="#6b3335"/><stop offset="0.69355" stop-color="#431718"/><stop offset="0.79053" stop-color="#2b0606"/><stop offset="0.85" stop-color="#200"/><stop offset="0.85727" stop-color="#260201"/><stop offset="0.8648" stop-color="#330704"/><stop offset="0.87246" stop-color="#471009"/><stop offset="0.8802" stop-color="#641d0f"/><stop offset="0.88801" stop-color="#8a2e18"/><stop offset="0.89577" stop-color="#b74223"/><stop offset="0.9" stop-color="#d34e29"/><stop offset="0.90254" stop-color="#c84927"/><stop offset="0.91417" stop-color="#9c361c"/><stop offset="0.92635" stop-color="#772514"/><stop offset="0.93893" stop-color="#58180c"/><stop offset="0.95205" stop-color="#400d07"/><stop offset="0.96594" stop-color="#2f0603"/><stop offset="0.98111" stop-color="#250101"/><stop offset="1" stop-color="#200"/></radialGradient><radialGradient id="bh" cx="211.27989" cy="299.79551" r="5.55184" gradientUnits="userSpaceOnUse"><stop offset="0.15" stop-color="#fff"/><stop offset="0.28237" stop-color="#c2c2c2"/><stop offset="0.42528" stop-color="#888"/><stop offset="0.5636" stop-color="#575757"/><stop offset="0.69361" stop-color="#313131"/><stop offset="0.81336" stop-color="#161616"/><stop offset="0.91921" stop-color="#060606"/><stop offset="1"/></radialGradient><radialGradient id="bi" cx="192.29528" cy="360.03077" r="9.9933" gradientUnits="userSpaceOnUse"><stop offset="0.64"/><stop offset="0.71799" stop-color="#000200"/><stop offset="0.74608" stop-color="#020902"/><stop offset="0.76609" stop-color="#051405"/><stop offset="0.78228" stop-color="#082509"/><stop offset="0.79598" stop-color="#0d3b0e"/><stop offset="0.8" stop-color="#0f4310"/><stop offset="0.8131" stop-color="#1e2c0a"/><stop offset="0.82975" stop-color="#2d1605"/><stop offset="0.84569" stop-color="#360901"/><stop offset="0.86" stop-color="#390400"/><stop offset="0.8715" stop-color="#250300"/><stop offset="0.88602" stop-color="#140100"/><stop offset="0.90412" stop-color="#090100"/><stop offset="0.92951" stop-color="#020000"/><stop offset="1"/></radialGradient><radialGradient id="bj" cx="195.96146" cy="348.39897" r="2.8404" gradientUnits="userSpaceOnUse"><stop offset="0.1"/><stop offset="0.24639" stop-color="#1b1103"/><stop offset="0.42619" stop-color="#362207"/><stop offset="0.61009" stop-color="#492e09"/><stop offset="0.79889" stop-color="#54350b"/><stop offset="1" stop-color="#58370b"/></radialGradient><radialGradient id="bk" cx="205.85724" cy="317.001" r="1.58647" gradientUnits="userSpaceOnUse"><stop offset="0.1" stop-color="#192f1b"/><stop offset="0.2285" stop-color="#122214"/><stop offset="0.47516" stop-color="#080f09"/><stop offset="0.72928" stop-color="#020402"/><stop offset="1"/></radialGradient><radialGradient id="bl" cx="199.8201" cy="336.15596" r="1.05071" xlink:href="#bj"/><radialGradient id="bm" cx="198.86479" cy="339.18684" r="1.47759" gradientUnits="userSpaceOnUse"><stop offset="0.1"/><stop offset="0.29001" stop-color="#14160e"/><stop offset="0.51699" stop-color="#25291a"/><stop offset="0.75084" stop-color="#303422"/><stop offset="1" stop-color="#333824"/></radialGradient><radialGradient id="bn" cx="196.14814" cy="347.80615" r="2.74344" xlink:href="#bk"/><radialGradient id="bo" cx="232.87289" cy="114.90245" r="10.30064" gradientUnits="userSpaceOnUse"><stop offset="0" stop-color="#fff"/><stop offset="1" stop-color="#b9cbf0" stop-opacity="0"/></radialGradient><radialGradient id="bp" cx="324.90435" cy="195.472" r="19.49085" xlink:href="#bb"/><radialGradient id="bq" cx="336.15708" cy="278.21333" r="0.64971" xlink:href="#bc"/><radialGradient id="br" cx="337.08321" cy="285.0222" r="0.64971" xlink:href="#bc"/><radialGradient id="bs" cx="336.59613" cy="281.44017" r="4.87267" xlink:href="#be"/><radialGradient id="bt" cx="327.34006" cy="213.38204" r="12.99396" xlink:href="#bf"/><radialGradient id="bu" cx="327.34006" cy="213.38204" r="6.49689" xlink:href="#bg"/><radialGradient id="bv" cx="327.34006" cy="213.38204" r="5.41414" xlink:href="#bh"/><radialGradient id="bw" cx="337.08321" cy="285.0222" r="9.74535" xlink:href="#bi"/><radialGradient id="bx" cx="334.72503" cy="267.68172" r="1.10156" gradientUnits="userSpaceOnUse"><stop offset="0.1"/><stop offset="0.2047" stop-color="#1c1713"/><stop offset="0.35581" stop-color="#3e3229"/><stop offset="0.51018" stop-color="#59473b"/><stop offset="0.66721" stop-color="#6c5647"/><stop offset="0.82838" stop-color="#775f4f"/><stop offset="1" stop-color="#7b6251"/></radialGradient><radialGradient id="by" cx="328.30662" cy="220.48934" r="2.14261" gradientUnits="userSpaceOnUse"><stop offset="0.1" stop-color="#393a2f"/><stop offset="0.30165" stop-color="#21221c"/><stop offset="0.52494" stop-color="#0f0f0c"/><stop offset="0.75495" stop-color="#040403"/><stop offset="1"/></radialGradient><radialGradient id="bz" cx="331.26104" cy="242.21348" r="1.97926" gradientUnits="userSpaceOnUse"><stop offset="0.1"/><stop offset="0.11031" stop-color="#010100"/><stop offset="0.32262" stop-color="#1c0e05"/><stop offset="0.53968" stop-color="#2f1808"/><stop offset="0.76257" stop-color="#3a1e09"/><stop offset="1" stop-color="#3e200a"/></radialGradient><radialGradient id="ca" cx="329.82412" cy="231.64789" r="2.49165" gradientUnits="userSpaceOnUse"><stop offset="0.1" stop-color="#7e9c95"/><stop offset="0.15454" stop-color="#6e8983"/><stop offset="0.2879" stop-color="#4d5f5b"/><stop offset="0.42427" stop-color="#313d3a"/><stop offset="0.56231" stop-color="#1c2221"/><stop offset="0.70265" stop-color="#0c0f0e"/><stop offset="0.84664" stop-color="#030404"/><stop offset="1"/></radialGradient><radialGradient id="cb" cx="336.38117" cy="279.85966" r="0.70539" gradientUnits="userSpaceOnUse"><stop offset="0.1"/><stop offset="0.22259" stop-color="#1b1722"/><stop offset="0.37027" stop-color="#352e44"/><stop offset="0.52121" stop-color="#4a3f5f"/><stop offset="0.67469" stop-color="#584c72"/><stop offset="0.8322" stop-color="#61547d"/><stop offset="1" stop-color="#645681"/></radialGradient></defs><g class="c"><ellipse class="d" cx="269.16066" cy="422.29483" rx="144.19211" ry="23.28088"/><path class="e" d="M399.72257,403.18007,339.40439,176.03952l.00786-66.2699c-17.75085,8.70907-35.47442,8.70911-59.73241,8.70911-25.0409,0-46.6847-3.005-56.99033-7.36688l-2.97676-3.17144.60953,68.81453L159.63681,403.18007a14.43622,14.43622,0,0,0,13.887,18.38H385.83558A14.43608,14.43608,0,0,0,399.72257,403.18007Z"/><path class="a" d="M408.26473,405.72684,343.08888,176.23692V105.3552c0,7.24792-28.389,13.12353-63.409,13.12353s-63.409-5.87561-63.409-13.12353v70.88172L151.09465,405.72684a16.974,16.974,0,0,0,16.37043,21.46045H391.8943A16.974,16.974,0,0,0,408.26473,405.72684Z"/><g class="f"><path class="g" d="M401.25822,410.98478c0-12.68914-54.23417-24.21532-121.13541-24.21532S158.9874,398.7774,158.9874,411.46653s11.8099,10.1263,121.13541,11.13877C383.88824,423.56628,401.25822,423.67391,401.25822,410.98478Z"/><path class="h" d="M303.655,192.56583c-2.80175-.31816-5.59682-.69123-8.39593-1.03118a108.842,108.842,0,0,0-15.01056-1.03273c-2.193.03846-4.39639.36007-6.55272.20572a62.4643,62.4643,0,0,0-7.14072-.04066c-9.72284.41819-19.28128,2.38686-28.77974,4.37841q-4.31316.90434-8.64184,1.73241c-6.01065,1.14982-12.15182,2.21117-17.73608,4.82648-1.4803.69328-2.55342,1.04806-3.08163,2.53739-.19881.56055-.33629,1.15159-.503,1.72256l-4.59563,15.73722-6.853,23.46722-8.36327,28.63912-9.12658,31.253-9.14286,31.30872-8.41212,28.80639-6.93437,23.746-4.7096,16.1275-1.7378,5.95094,7.5377,20.20928H412.84748v-42.6524l-61.93709-184.68c-5.8965-2.38476-11.94619-4.22669-17.94788-6.30536-5.53008-1.91534-11.61122-2.03905-17.2549-3.68935C312.00251,192.699,307.50106,193.00259,303.655,192.56583Z"/></g><ellipse class="i" cx="279.67981" cy="105.35518" rx="63.4091" ry="13.12351"/><path class="b" d="M393.40754,399.61316,337.79,203.77716h-.6017c0,6.98613-25.74021,12.64944-57.49231,12.64944s-57.49231-5.66331-57.49231-12.64944h-.63424L165.95215,399.61324a13.67652,13.67652,0,0,0,13.15636,17.41307H380.25117A13.67684,13.67684,0,0,0,393.40754,399.61316Z"/><g class="j"><path class="k" d="M257.41146,262.59413c-28.84182,4.469-58.13245,6.29623-86.57757,12.83056s-56.625,18.32337-76.76012,39.4515c-11.66189,12.237-20.57245,28.8161-17.9555,45.51627,2.05122,13.09,11.00468,24.3366,21.93309,31.82828s23.74412,11.69317,36.51424,15.22583c74.25135,20.54052,156.51866,20.7286,225.64541-13.28124,13.90016-6.83877,27.29-15.09294,38.188-26.10276s19.21422-24.981,21.6254-40.28358c2.48516-15.77217-1.48981-32.23248-9.715-45.91764a92.18474,92.18474,0,0,0-27.27322-28.22758,89.44592,89.44592,0,0,0-16.5116-8.80486c-7.67977-3.18382-12.18769-7.99135-20.31776-4.91245-9.51759,3.60435-19.31018,6.61892-29.0811,9.451A476.88117,476.88117,0,0,1,257.41146,262.59413Z"/><path class="l" d="M279.53243,314.09955c-28.84181,4.469-58.13244,6.29623-86.57756,12.83056s-56.625,18.32337-76.76012,39.4515c-11.66189,12.237-20.57245,28.8161-17.95551,45.51627,2.05123,13.09,11.00468,24.3366,21.9331,31.82828s23.74412,11.69317,36.51423,15.22583c74.25136,20.54052,156.51867,20.7286,225.64542-13.28124,13.90016-6.83877,27.29-15.09294,38.188-26.10277s19.21421-24.981,21.62539-40.28357c2.48517-15.77217-1.48981-32.23248-9.715-45.91764a92.18483,92.18483,0,0,0-27.27321-28.22758,89.44624,89.44624,0,0,0-16.5116-8.80486c-7.67978-3.18382-12.18769-7.99135-20.31776-4.91245-9.51759,3.60435-19.31018,6.61892-29.0811,9.451A476.88093,476.88093,0,0,1,279.53243,314.09955Z"/></g><ellipse class="m" cx="279.69602" cy="203.77716" rx="57.49233" ry="12.64945"/><g class="n"><circle class="o" cx="250.34332" cy="219.86761" r="21.94151"/><ellipse class="p" cx="248.79973" cy="207.77383" rx="14.66347" ry="8.84042" transform="translate(-15.02895 19.45045) rotate(-4.34581)"/><circle class="q" cx="262.01617" cy="208.851" r="1.79686"/><circle class="r" cx="264.82339" cy="211.2107" r="0.65147"/><circle class="s" cx="240.71205" cy="234.72291" r="0.65147"/><path class="t" d="M232.88554,221.46926c-.21529,4.23543,2.3335,10.34467,6.39729,12.13752"/><circle class="u" cx="260.21931" cy="231.80113" r="1.99438"/></g><g class="v"><circle class="w" cx="310.52084" cy="189.53078" r="12.40003"/><ellipse class="x" cx="309.64849" cy="182.69609" rx="8.28692" ry="4.99608" transform="translate(-12.95371 23.98922) rotate(-4.34581)"/><circle class="y" cx="317.11763" cy="183.30485" r="1.01548"/><circle class="z" cx="318.70411" cy="184.63841" r="0.36817"/><circle class="aa" cx="305.07782" cy="197.92611" r="0.36817"/><path class="ab" d="M300.65475,190.43593c-.12168,2.39362,1.31875,5.84619,3.61536,6.8594"/><circle class="ac" cx="316.10216" cy="196.27489" r="1.1271"/></g><g class="v"><circle class="ad" cx="284.24538" cy="161.60946" r="6.59679"/><ellipse class="ae" cx="283.78129" cy="157.97342" rx="4.40863" ry="2.6579" transform="translate(-11.15469 21.95803) rotate(-4.34581)"/><circle class="af" cx="287.75486" cy="158.29728" r="0.54023"/><circle class="ag" cx="288.59886" cy="159.00673" r="0.19587"/><circle class="ah" cx="281.3497" cy="166.07576" r="0.19587"/><path class="ai" d="M278.99663,162.091a4.10838,4.10838,0,0,0,1.92337,3.64919"/><circle class="aj" cx="287.21463" cy="165.19732" r="0.59962"/></g><g class="v"><circle class="ak" cx="283.64074" cy="261.25368" r="14.48007"/><ellipse class="al" cx="282.62206" cy="253.27251" rx="9.67701" ry="5.83414" transform="translate(-18.37942 22.14418) rotate(-4.34581)"/><circle class="am" cx="291.34411" cy="253.98337" r="1.18582"/><circle class="an" cx="293.19671" cy="255.54063" r="0.42993"/><circle class="ao" cx="277.28468" cy="271.05728" r="0.42993"/><path class="ap" d="M272.11966,262.31066c-.14209,2.79514,1.54,6.82686,4.22182,8.01"/><circle class="aq" cx="290.15829" cy="269.12908" r="1.31617"/></g><g class="v"><circle class="ar" cx="255.87623" cy="300.89244" r="7.70337"/><ellipse class="as" cx="255.3343" cy="296.64647" rx="5.14815" ry="3.10376" transform="translate(-21.74458 20.20113) rotate(-4.34581)"/><circle class="at" cx="259.97442" cy="297.02465" r="0.63085"/><circle class="au" cx="260.96" cy="297.85311" r="0.22872"/><circle class="av" cx="252.49482" cy="306.10794" r="0.22872"/><path class="aw" d="M249.747,301.45476c-.07559,1.487.81926,3.63187,2.246,4.26132"/><circle class="ax" cx="259.34356" cy="305.08214" r="0.7002"/></g><g class="ay"><path class="az" d="M343.08275,286.99225a6.22823,6.22823,0,0,1-6.087-4.945l-20.168-95.75737a6.228,6.228,0,0,1-.13378-1.28308v-57.658a6.22686,6.22686,0,0,1,12.45372,0v57.00979l20.03418,95.12253a6.23268,6.23268,0,0,1-6.09916,7.51114Z"/></g><g class="ba"><path class="bb" d="M191.16179,393.92363a6.85622,6.85622,0,0,1-6.63062-8.59051l40.24714-153.3406a6.84962,6.84962,0,0,1,13.25031,3.47829L197.78148,388.8114A6.85073,6.85073,0,0,1,191.16179,393.92363Z"/></g><circle class="bc" cx="347.25818" cy="294.66239" r="6.23005"/><circle class="bd" cx="329.15092" cy="185.00658" r="6.23005"/><circle class="be" cx="216.02605" cy="284.73673" r="19.98648"/><circle class="bf" cx="194.00523" cy="354.60553" r="0.6662"/><circle class="bg" cx="192.29528" cy="360.03077" r="0.6662"/><circle class="bh" cx="193.24451" cy="357.01904" r="4.99665"/><line class="bi" x1="211.27989" y1="299.79551" x2="192.29528" y2="360.03077"/><circle class="bj" cx="211.27989" cy="299.79551" r="13.32427"/><circle class="bk" cx="211.27989" cy="299.79551" r="6.66221"/><circle class="bl" cx="211.27989" cy="299.79551" r="5.55184"/><polyline class="bm" points="211.28 299.796 207.695 321.384 211.28 299.796 214.865 278.207 211.28 299.796 189.691 296.21 211.28 299.796 232.868 303.381 211.28 299.796 214.224 327.934 211.28 299.796 208.336 271.657 211.28 299.796 183.142 302.74 211.28 299.796 239.418 296.851 211.28 299.796 225.142 322.882 211.28 299.796 197.418 276.709 211.28 299.796 188.193 313.658 211.28 299.796 234.367 285.933 211.28 299.796 206.989 318.105 211.28 299.796 215.571 281.486 211.28 299.796 192.97 295.504 211.28 299.796 229.59 304.087 211.28 299.796 211.114 302.015 211.28 299.796 211.446 297.576 211.28 299.796 209.061 299.63 211.28 299.796 213.499 299.961 211.28 299.796 197.055 324.372 211.28 299.796 225.505 275.219 211.28 299.796 186.703 285.57 211.28 299.796 235.857 314.021 211.28 299.796 205.19 307.56 211.28 299.796 217.37 292.031 211.28 299.796 203.515 293.705 211.28 299.796 219.044 305.886 211.28 299.796 214.424 306.478 211.28 299.796 208.136 293.113 211.28 299.796 204.597 302.94 211.28 299.796 217.963 296.651 211.28 299.796 236.277 321.713 211.28 299.796 186.283 277.878 211.28 299.796 189.363 324.792 211.28 299.796 233.197 274.799 211.28 299.796 216.81 326.917 211.28 299.796 205.75 272.674 211.28 299.796 184.158 305.326 211.28 299.796 238.402 294.265 211.28 299.796 216.298 331.555 211.28 299.796 206.262 268.036 211.28 299.796 179.52 304.814 211.28 299.796 243.04 294.777 211.28 299.796 213.893 305.586 211.28 299.796 208.667 294.005 211.28 299.796 205.489 302.408 211.28 299.796 217.07 297.183 211.28 299.796 228.405 315.163 211.28 299.796 194.155 284.428 211.28 299.796 195.912 316.921 211.28 299.796 226.648 282.67 211.28 299.796 202.811 322.899 211.28 299.796 219.748 276.692 211.28 299.796 188.176 291.327 211.28 299.796 234.383 308.264 211.28 299.796 212.544 319.884 211.28 299.796 210.016 279.707 211.28 299.796 191.191 301.06 211.28 299.796 231.369 298.531"/><circle class="bn" cx="192.29528" cy="360.03077" r="9.9933"/><circle class="bo" cx="195.96146" cy="348.39897" r="2.8404"/><circle class="bp" cx="205.85724" cy="317.001" r="1.58647"/><circle class="bq" cx="199.8201" cy="336.15596" r="1.05071"/><circle class="br" cx="198.86479" cy="339.18684" r="1.47759"/><circle class="bs" cx="196.14814" cy="347.80615" r="2.74344"/><circle class="bt" cx="232.87289" cy="114.90245" r="10.30064"/><circle class="bu" cx="324.90435" cy="195.472" r="19.49085"/><circle class="bv" cx="336.15708" cy="278.21333" r="0.64971"/><circle class="bw" cx="337.08321" cy="285.0222" r="0.64971"/><circle class="bx" cx="336.59613" cy="281.44017" r="4.87267"/><line class="bi" x1="327.34006" y1="213.38204" x2="337.08321" y2="285.0222"/><circle class="by" cx="327.34006" cy="213.38204" r="12.99396"/><circle class="bz" cx="327.34006" cy="213.38204" r="6.49689"/><circle class="ca" cx="327.34006" cy="213.38204" r="5.41414"/><polyline class="bm" points="327.34 213.382 332.187 213.556 327.34 213.382 322.493 213.208 327.34 213.382 327.166 218.229 327.34 213.382 327.514 208.535 327.34 213.382 335.434 236.415 327.34 213.382 319.246 190.349 327.34 213.382 304.307 221.476 327.34 213.382 350.373 205.288 327.34 213.382 336.735 225.76 327.34 213.382 317.945 201.004 327.34 213.382 314.962 222.777 327.34 213.382 339.718 203.987 327.34 213.382 330.038 226.286 327.34 213.382 324.642 200.478 327.34 213.382 314.436 216.08 327.34 213.382 340.244 210.684 327.34 213.382 332.529 216.887 327.34 213.382 322.151 209.878 327.34 213.382 323.836 218.571 327.34 213.382 330.844 208.193 327.34 213.382 341.395 223.173 327.34 213.382 313.285 203.591 327.34 213.382 317.549 227.437 327.34 213.382 337.132 199.327 327.34 213.382 342.003 214.796 327.34 213.382 312.677 211.968 327.34 213.382 325.926 228.045 327.34 213.382 328.754 198.719 327.34 213.382 332.959 231.103 327.34 213.382 321.721 195.661 327.34 213.382 309.619 219.001 327.34 213.382 345.061 207.763 327.34 213.382 328.868 214.113 327.34 213.382 325.813 212.651 327.34 213.382 326.609 214.91 327.34 213.382 328.071 211.854 327.34 213.382 348.96 229.931 327.34 213.382 305.72 196.833 327.34 213.382 310.791 235.002 327.34 213.382 343.889 191.762 327.34 213.382 329.108 230.498 327.34 213.382 325.572 196.266 327.34 213.382 310.224 215.15 327.34 213.382 344.457 211.614 327.34 213.382 351.645 216.913 327.34 213.382 303.035 209.852 327.34 213.382 323.809 237.688 327.34 213.382 330.871 189.077 327.34 213.382 327.547 244.414 327.34 213.382 327.133 182.35 327.34 213.382 296.308 213.589 327.34 213.382 358.372 213.175 327.34 213.382 335.425 232.561 327.34 213.382 319.255 194.203 327.34 213.382 308.161 221.467 327.34 213.382 346.519 205.297 327.34 213.382 333.361 232.583 327.34 213.382 321.319 194.181 327.34 213.382 308.139 219.403 327.34 213.382 346.541 207.361"/><circle class="cb" cx="337.08321" cy="285.0222" r="9.74535"/><circle class="cc" cx="334.72503" cy="267.68172" r="1.10156"/><circle class="cd" cx="328.30662" cy="220.48934" r="2.14261"/><circle class="ce" cx="331.26104" cy="242.21348" r="1.97926"/><circle class="cf" cx="329.82412" cy="231.64789" r="2.49165"/><circle class="cg" cx="336.38117" cy="279.85966" r="0.70539"/></g></svg>