<svg xmlns="http://www.w3.org/2000/svg" xmlns:xlink="http://www.w3.org/1999/xlink" viewBox="0 0 523.92572 512.20828"><defs><style>.a,.i{opacity:0.72;}.a{fill:url(#a);}.b,.ba,.k,.l,.m{opacity:0.8;}.b{fill:url(#b);}.c{isolation:isolate;}.d{fill:#683c11;fill-opacity:0.51;}.e,.g{mix-blend-mode:multiply;}.e{fill:url(#c);}.f{clip-path:url(#e);}.g{fill:url(#f);}.h{opacity:0.42;fill:url(#g);}.i{fill:url(#h);}.j{clip-path:url(#j);}.k{fill:url(#k);}.l{fill:url(#l);}.bk,.m{stroke-miterlimit:10;}.m,.t{stroke-width:1.24537px;}.m{fill:url(#m);stroke:url(#n);}.bi,.bl,.bx,.bz,.n{opacity:0.5;}.o{fill:url(#o);}.aa,.ab,.ae,.ah,.ai,.al,.ao,.ap,.as,.av,.aw,.p,.s,.t,.x{mix-blend-mode:soft-light;}.p{fill:url(#p);}.q{fill:url(#q);}.r{fill:url(#r);}.s{fill:url(#s);}.ab,.ai,.ap,.aw,.bg,.bk,.t{fill:none;}.ab,.ai,.ap,.aw,.t{stroke-linecap:round;stroke-linejoin:round;}.t{stroke:url(#t);}.u{fill:url(#u);}.v{opacity:0.3;}.w{fill:url(#v);}.x{fill:url(#w);}.y{fill:url(#x);}.z{fill:url(#y);}.aa{fill:url(#z);}.ab{stroke-width:0.70381px;stroke:url(#aa);}.ac{fill:url(#ab);}.ad{fill:url(#ac);}.ae{fill:url(#ad);}.af{fill:url(#ae);}.ag{fill:url(#af);}.ah{fill:url(#ag);}.ai{stroke-width:0.37443px;stroke:url(#ah);}.aj{fill:url(#ai);}.ak{fill:url(#aj);}.al{fill:url(#ak);}.am{fill:url(#al);}.an{fill:url(#am);}.ao{fill:url(#an);}.ap{stroke-width:0.82187px;stroke:url(#ao);}.aq{fill:url(#ap);}.ar{fill:url(#aq);}.as{fill:url(#ar);}.at{fill:url(#as);}.au{fill:url(#at);}.av{fill:url(#au);}.aw{stroke-width:0.43723px;stroke:url(#av);}.ax{fill:url(#aw);}.ay{opacity:0.54;}.az{fill:url(#ax);}.ba{mix-blend-mode:hard-light;}.bb{fill:url(#ay);}.bc,.bs{opacity:0.25;}.bc,.bd,.be,.bf,.bh,.bi,.bj,.bk,.bl,.bm,.bn,.bo,.bp,.bq,.bs,.bt,.bu,.bv,.bw,.bx,.by,.bz,.ca,.cb,.cc,.cd,.ce{mix-blend-mode:screen;}.bc{fill:url(#az);}.bd{fill:url(#ba);}.be{fill:url(#bb);}.bf,.bv{opacity:0.2;}.bf{fill:url(#bc);}.bh,.bw{opacity:0.15;}.bh{fill:url(#bd);}.bi{fill:url(#be);}.bj{fill:url(#bf);}.bk{stroke:#fff;stroke-width:2.49074px;opacity:0.03;}.bl{fill:url(#bg);}.bm{fill:url(#bh);}.bn{fill:url(#bi);}.bo{fill:url(#bj);}.bp{fill:url(#bk);}.bq{fill:url(#bl);}.br{fill:url(#bm);}.bs{fill:url(#bn);}.bt{fill:url(#bo);}.bu{fill:url(#bp);}.bv{fill:url(#bq);}.bw{fill:url(#br);}.bx{fill:url(#bs);}.by{fill:url(#bt);}.bz{fill:url(#bu);}.ca{fill:url(#bv);}.cb{fill:url(#bw);}.cc{fill:url(#bx);}.cd{fill:url(#by);}.ce{fill:url(#bz);}</style><linearGradient id="a" x1="212.35117" y1="266.33364" x2="343.11241" y2="266.33364" gradientUnits="userSpaceOnUse"><stop offset="0" stop-color="#f5fbff"/><stop offset="0.62567" stop-color="#e9f1f5"/><stop offset="1" stop-color="#c5d9e0"/></linearGradient><linearGradient id="b" x1="350.53235" y1="436.99101" x2="195.83467" y2="231.96107" gradientUnits="userSpaceOnUse"><stop offset="0" stop-color="#5807bb"/><stop offset="1" stop-color="#8239f0"/></linearGradient><linearGradient id="c" x1="314.65837" y1="122.50725" x2="282.54616" y2="384.05889" gradientUnits="userSpaceOnUse"><stop offset="0" stop-color="#bfc4c7"/><stop offset="1" stop-color="#b1c3c9"/></linearGradient><clipPath id="e"><path class="a" d="M408.28862,405.78923,343.11277,176.29932V105.4176c0,7.24791-28.389,13.12352-63.409,13.12352s-63.409-5.87561-63.409-13.12352v70.88172L151.11854,405.78923A16.974,16.974,0,0,0,167.489,427.24969H391.91819A16.974,16.974,0,0,0,408.28862,405.78923Z"/></clipPath><linearGradient id="f" x1="221.90136" y1="261.55979" x2="298.1429" y2="458.46185" gradientUnits="userSpaceOnUse"><stop offset="0" stop-color="#f5f5f5"/><stop offset="1" stop-color="#c3d1d6"/></linearGradient><linearGradient id="g" x1="494.27286" y1="310.86323" x2="264.7731" y2="310.86323" xlink:href="#b"/><linearGradient id="h" x1="279.70369" y1="79.16957" x2="279.70369" y2="118.27051" xlink:href="#a"/><clipPath id="j"><path class="b" d="M393.43143,399.67556l-55.61757-195.836h-.60171c0,6.98614-25.7402,12.64944-57.49231,12.64944s-57.49231-5.6633-57.49231-12.64944h-.63423L165.976,399.67563a13.67652,13.67652,0,0,0,13.15636,17.41308H380.27506A13.67684,13.67684,0,0,0,393.43143,399.67556Z"/></clipPath><linearGradient id="k" x1="526.82391" y1="330.30621" x2="227.85379" y2="330.30621" xlink:href="#b"/><linearGradient id="l" x1="97.80382" y1="381.81163" x2="442.90288" y2="381.81163" xlink:href="#b"/><linearGradient id="m" x1="381.82546" y1="203.83955" x2="245.5788" y2="203.83955" xlink:href="#b"/><linearGradient id="n" x1="221.60489" y1="203.83955" x2="337.83492" y2="203.83955" gradientUnits="userSpaceOnUse"><stop offset="0" stop-color="#8426ff"/><stop offset="1" stop-color="#8239f0"/></linearGradient><radialGradient id="o" cx="250.36721" cy="219.93001" r="20.84617" gradientTransform="matrix(0.2537, -0.96728, 0.95587, 0.2507, -23.37548, 406.96865)" gradientUnits="userSpaceOnUse"><stop offset="0" stop-color="#7035c7" stop-opacity="0.8"/><stop offset="0.29921" stop-color="#7339ca" stop-opacity="0.80046"/><stop offset="0.52418" stop-color="#7d44d2" stop-opacity="0.80193"/><stop offset="0.72493" stop-color="#8d58e0" stop-opacity="0.8044"/><stop offset="0.91041" stop-color="#a574f3" stop-opacity="0.80787"/><stop offset="1" stop-color="#b385ff" stop-opacity="0.81"/></radialGradient><radialGradient id="p" cx="1625.34177" cy="156.77663" r="13.50603" gradientTransform="translate(-1773.34759 86.94957) scale(1.24415 0.77108)" gradientUnits="userSpaceOnUse"><stop offset="0" stop-color="#a152eb"/><stop offset="0.37881" stop-color="#a152eb" stop-opacity="0.99203"/><stop offset="0.51527" stop-color="#a153ea" stop-opacity="0.96313"/><stop offset="0.61253" stop-color="#a155ea" stop-opacity="0.91281"/><stop offset="0.69121" stop-color="#a257e9" stop-opacity="0.8409"/><stop offset="0.75863" stop-color="#a25ae7" stop-opacity="0.74715"/><stop offset="0.81834" stop-color="#a35ee5" stop-opacity="0.63133"/><stop offset="0.87231" stop-color="#a462e3" stop-opacity="0.49335"/><stop offset="0.92196" stop-color="#a467e1" stop-opacity="0.33264"/><stop offset="0.96609" stop-color="#a56dde" stop-opacity="0.15775"/><stop offset="1" stop-color="#a672dc" stop-opacity="0"/></radialGradient><radialGradient id="q" cx="262.04005" cy="208.9134" r="1.70715" gradientTransform="matrix(0.2537, -0.96728, 0.95587, 0.2507, -4.13352, 410.0049)" gradientUnits="userSpaceOnUse"><stop offset="0" stop-color="#d8c1eb"/><stop offset="0.37881" stop-color="#d8c0eb" stop-opacity="0.99203"/><stop offset="0.51527" stop-color="#d6beea" stop-opacity="0.96313"/><stop offset="0.61253" stop-color="#d4baea" stop-opacity="0.91281"/><stop offset="0.69121" stop-color="#d0b4e9" stop-opacity="0.8409"/><stop offset="0.75863" stop-color="#cbade7" stop-opacity="0.74715"/><stop offset="0.81834" stop-color="#c6a4e5" stop-opacity="0.63133"/><stop offset="0.87231" stop-color="#bf99e3" stop-opacity="0.49335"/><stop offset="0.92196" stop-color="#b78ce1" stop-opacity="0.33264"/><stop offset="0.96609" stop-color="#ae7ede" stop-opacity="0.15775"/><stop offset="1" stop-color="#a672dc" stop-opacity="0"/></radialGradient><radialGradient id="r" cx="264.84728" cy="211.2731" r="0.61895" gradientTransform="matrix(0.2537, -0.96728, 0.95587, 0.2507, -4.29405, 414.4884)" gradientUnits="userSpaceOnUse"><stop offset="0" stop-color="#d8c1eb"/><stop offset="0.22496" stop-color="#d7c0eb" stop-opacity="0.98901"/><stop offset="0.3644" stop-color="#d6bdea" stop-opacity="0.95275"/><stop offset="0.48062" stop-color="#d3b8e9" stop-opacity="0.89088"/><stop offset="0.58411" stop-color="#ceb1e8" stop-opacity="0.80322"/><stop offset="0.67914" stop-color="#c8a8e6" stop-opacity="0.68961"/><stop offset="0.7679" stop-color="#c29de4" stop-opacity="0.55"/><stop offset="0.85188" stop-color="#b990e2" stop-opacity="0.38414"/><stop offset="0.92991" stop-color="#b082df" stop-opacity="0.19725"/><stop offset="1" stop-color="#a672dc" stop-opacity="0"/></radialGradient><radialGradient id="s" cx="240.73593" cy="234.78531" r="0.61895" gradientTransform="matrix(0.2537, -0.96728, 0.95587, 0.2507, -44.76311, 408.78348)" xlink:href="#r"/><radialGradient id="t" cx="236.10175" cy="227.60041" r="5.45098" gradientTransform="matrix(1, 0, 0, 1, 0, 0)" xlink:href="#q"/><radialGradient id="u" cx="260.2432" cy="231.86353" r="2.48527" gradientTransform="translate(0 33.68288) scale(1 0.85473)" gradientUnits="userSpaceOnUse"><stop offset="0" stop-color="#a152eb"/><stop offset="0.09168" stop-color="#a153eb" stop-opacity="0.96822"/><stop offset="0.22975" stop-color="#a256e9" stop-opacity="0.88033"/><stop offset="0.39704" stop-color="#a25ae7" stop-opacity="0.73641"/><stop offset="0.58721" stop-color="#a361e4" stop-opacity="0.53628"/><stop offset="0.79369" stop-color="#a569e0" stop-opacity="0.2836"/><stop offset="1" stop-color="#a672dc" stop-opacity="0"/></radialGradient><radialGradient id="v" cx="310.54473" cy="189.59317" r="11.78101" gradientTransform="matrix(0.2537, -0.96728, 0.95587, 0.2507, 50.53333, 442.44613)" xlink:href="#o"/><radialGradient id="w" cx="1675.63638" cy="134.16925" r="7.6328" gradientTransform="translate(-1775.07293 79.30384) scale(1.24415 0.77108)" xlink:href="#p"/><radialGradient id="x" cx="317.14152" cy="183.36724" r="0.96478" gradientTransform="matrix(0.2537, -0.96728, 0.95587, 0.2507, 61.40774, 444.16204)" xlink:href="#q"/><radialGradient id="y" cx="318.728" cy="184.7008" r="0.34979" gradientTransform="matrix(0.2537, -0.96728, 0.95587, 0.2507, 61.31701, 446.69584)" xlink:href="#r"/><radialGradient id="z" cx="305.10171" cy="197.9885" r="0.34979" gradientTransform="matrix(0.2537, -0.96728, 0.95587, 0.2507, 38.44632, 443.47176)" xlink:href="#r"/><radialGradient id="aa" cx="302.48274" cy="193.92803" r="3.08057" gradientTransform="matrix(1, 0, 0, 1, 0, 0)" xlink:href="#q"/><radialGradient id="ab" cx="316.12605" cy="196.33728" r="1.40453" gradientTransform="translate(0 28.52197) scale(1 0.85473)" xlink:href="#u"/><radialGradient id="ac" cx="284.26926" cy="161.67186" r="6.26748" gradientTransform="matrix(0.2537, -0.96728, 0.95587, 0.2507, 57.61311, 396.10899)" xlink:href="#o"/><radialGradient id="ad" cx="1656.41087" cy="104.67044" r="4.06064" gradientTransform="translate(-1777.02069 77.32698) scale(1.24415 0.77108)" xlink:href="#p"/><radialGradient id="ae" cx="287.77875" cy="158.35967" r="0.51326" gradientTransform="matrix(0.2537, -0.96728, 0.95587, 0.2507, 63.39828, 397.02185)" xlink:href="#q"/><radialGradient id="af" cx="288.62275" cy="159.06913" r="0.18609" gradientTransform="matrix(0.2537, -0.96728, 0.95587, 0.2507, 63.35002, 398.36983)" xlink:href="#r"/><radialGradient id="ag" cx="281.37359" cy="166.13816" r="0.18609" gradientTransform="matrix(0.2537, -0.96728, 0.95587, 0.2507, 51.18285, 396.65462)" xlink:href="#r"/><radialGradient id="ah" cx="279.9803" cy="163.97799" r="1.63886" gradientTransform="matrix(1, 0, 0, 1, 0, 0)" xlink:href="#q"/><radialGradient id="ai" cx="287.23852" cy="165.25971" r="0.74721" gradientTransform="translate(0 24.00732) scale(1 0.85473)" xlink:href="#u"/><radialGradient id="aj" cx="283.66462" cy="261.31607" r="13.75721" gradientTransform="matrix(0.2537, -0.96728, 0.95587, 0.2507, -38.08536, 470.18708)" xlink:href="#o"/><radialGradient id="ak" cx="1649.67753" cy="209.90743" r="8.91317" gradientTransform="translate(-1769.80263 91.48038) scale(1.24415 0.77108)" xlink:href="#p"/><radialGradient id="al" cx="291.368" cy="254.04577" r="1.12662" gradientTransform="matrix(0.2537, -0.96728, 0.95587, 0.2507, -25.38683, 472.19082)" xlink:href="#q"/><radialGradient id="am" cx="293.2206" cy="255.60303" r="0.40847" gradientTransform="matrix(0.2537, -0.96728, 0.95587, 0.2507, -25.49277, 475.14966)" xlink:href="#r"/><radialGradient id="an" cx="277.30856" cy="271.11967" r="0.40847" gradientTransform="matrix(0.2537, -0.96728, 0.95587, 0.2507, -52.1999, 471.38476)" xlink:href="#r"/><radialGradient id="ao" cx="274.25028" cy="266.37807" r="3.59732" gradientTransform="matrix(1, 0, 0, 1, 0, 0)" xlink:href="#q"/><radialGradient id="ap" cx="290.18218" cy="269.19147" r="1.64013" gradientTransform="translate(0 39.10552) scale(1 0.85473)" xlink:href="#u"/><radialGradient id="aq" cx="255.90012" cy="300.95484" r="7.31881" gradientTransform="matrix(0.2537, -0.96728, 0.95587, 0.2507, -96.69572, 473.03207)" xlink:href="#o"/><radialGradient id="ar" cx="1625.16603" cy="255.55671" r="4.74179" gradientTransform="translate(-1766.59438 99.65529) scale(1.24415 0.77108)" xlink:href="#p"/><radialGradient id="as" cx="259.9983" cy="297.08705" r="0.59936" gradientTransform="matrix(0.2537, -0.96728, 0.95587, 0.2507, -89.94012, 474.09806)" xlink:href="#q"/><radialGradient id="at" cx="260.98388" cy="297.91551" r="0.21731" gradientTransform="matrix(0.2537, -0.96728, 0.95587, 0.2507, -89.99648, 475.67216)" xlink:href="#r"/><radialGradient id="au" cx="252.51871" cy="306.17034" r="0.21731" gradientTransform="matrix(0.2537, -0.96728, 0.95587, 0.2507, -104.20463, 473.66924)" xlink:href="#r"/><radialGradient id="av" cx="250.89171" cy="303.64781" r="1.91377" gradientTransform="matrix(1, 0, 0, 1, 0, 0)" xlink:href="#q"/><radialGradient id="aw" cx="259.36745" cy="305.14454" r="0.87255" gradientTransform="translate(0 44.32843) scale(1 0.85473)" xlink:href="#u"/><radialGradient id="ax" cx="329.1637" cy="187.68975" r="96.86305" gradientTransform="translate(304.84813 -141.29468) rotate(81.99169) scale(1 0.11591)" gradientUnits="userSpaceOnUse"><stop offset="0" stop-color="#e6f3ff"/><stop offset="1" stop-color="#b9cbf0" stop-opacity="0"/></radialGradient><radialGradient id="ay" cx="211.30378" cy="310.46431" r="79.87596" gradientTransform="matrix(0.2537, -0.96728, 0.15236, 0.03996, 110.39549, 502.44896)" xlink:href="#ax"/><radialGradient id="az" cx="216.04993" cy="284.79913" r="19.98648" gradientUnits="userSpaceOnUse"><stop offset="0.1"/><stop offset="0.11244" stop-color="#080602"/><stop offset="0.16172" stop-color="#231b08"/><stop offset="0.21838" stop-color="#392c0d"/><stop offset="0.28458" stop-color="#4a3910"/><stop offset="0.36644" stop-color="#554213"/><stop offset="0.48125" stop-color="#5c4815"/><stop offset="0.8" stop-color="#5e4915"/><stop offset="1"/></radialGradient><radialGradient id="ba" cx="194.02912" cy="354.66792" r="0.6662" gradientUnits="userSpaceOnUse"><stop offset="0" stop-color="#d4e194"/><stop offset="0.05952" stop-color="#afba7a"/><stop offset="0.13651" stop-color="#868f5e"/><stop offset="0.21955" stop-color="#626845"/><stop offset="0.30759" stop-color="#44482f"/><stop offset="0.40211" stop-color="#2b2e1e"/><stop offset="0.50556" stop-color="#181911"/><stop offset="0.62249" stop-color="#0a0b07"/><stop offset="0.76429" stop-color="#020302"/><stop offset="1"/></radialGradient><radialGradient id="bb" cx="192.31917" cy="360.09316" r="0.6662" xlink:href="#ba"/><radialGradient id="bc" cx="193.2684" cy="357.08144" r="4.99665" gradientUnits="userSpaceOnUse"><stop offset="0.05"/><stop offset="0.09242" stop-color="#040a03"/><stop offset="0.29802" stop-color="#183411"/><stop offset="0.48337" stop-color="#25531c"/><stop offset="0.64031" stop-color="#2e6622"/><stop offset="0.75" stop-color="#316d24"/><stop offset="0.78593" stop-color="#4f6e16"/><stop offset="0.83397" stop-color="#716f06"/><stop offset="0.86" stop-color="#7e6f00"/><stop offset="0.88764" stop-color="#7a6c00"/><stop offset="0.91229" stop-color="#706200"/><stop offset="0.93581" stop-color="#5d5200"/><stop offset="0.95863" stop-color="#443c00"/><stop offset="0.98074" stop-color="#231f00"/><stop offset="1"/></radialGradient><radialGradient id="bd" cx="211.30378" cy="299.85791" r="13.32427" gradientUnits="userSpaceOnUse"><stop offset="0" stop-color="#200"/><stop offset="0.73" stop-color="#984023"/><stop offset="1" stop-color="#200"/></radialGradient><radialGradient id="be" cx="211.30378" cy="299.85791" r="6.66221" gradientUnits="userSpaceOnUse"><stop offset="0.15" stop-color="#fff"/><stop offset="0.20939" stop-color="#e5d3d3"/><stop offset="0.29044" stop-color="#c49c9e"/><stop offset="0.36051" stop-color="#ad7477"/><stop offset="0.41599" stop-color="#9e5c5f"/><stop offset="0.45" stop-color="#995356"/><stop offset="0.57175" stop-color="#6b3335"/><stop offset="0.69355" stop-color="#431718"/><stop offset="0.79053" stop-color="#2b0606"/><stop offset="0.85" stop-color="#200"/><stop offset="0.85727" stop-color="#260201"/><stop offset="0.8648" stop-color="#330704"/><stop offset="0.87246" stop-color="#471009"/><stop offset="0.8802" stop-color="#641d0f"/><stop offset="0.88801" stop-color="#8a2e18"/><stop offset="0.89577" stop-color="#b74223"/><stop offset="0.9" stop-color="#d34e29"/><stop offset="0.90254" stop-color="#c84927"/><stop offset="0.91417" stop-color="#9c361c"/><stop offset="0.92635" stop-color="#772514"/><stop offset="0.93893" stop-color="#58180c"/><stop offset="0.95205" stop-color="#400d07"/><stop offset="0.96594" stop-color="#2f0603"/><stop offset="0.98111" stop-color="#250101"/><stop offset="1" stop-color="#200"/></radialGradient><radialGradient id="bf" cx="211.30378" cy="299.85791" r="5.55184" gradientUnits="userSpaceOnUse"><stop offset="0.15" stop-color="#fff"/><stop offset="0.28237" stop-color="#c2c2c2"/><stop offset="0.42528" stop-color="#888"/><stop offset="0.5636" stop-color="#575757"/><stop offset="0.69361" stop-color="#313131"/><stop offset="0.81336" stop-color="#161616"/><stop offset="0.91921" stop-color="#060606"/><stop offset="1"/></radialGradient><radialGradient id="bg" cx="192.31917" cy="360.09316" r="9.9933" gradientUnits="userSpaceOnUse"><stop offset="0.64"/><stop offset="0.71799" stop-color="#000200"/><stop offset="0.74608" stop-color="#020902"/><stop offset="0.76609" stop-color="#051405"/><stop offset="0.78228" stop-color="#082509"/><stop offset="0.79598" stop-color="#0d3b0e"/><stop offset="0.8" stop-color="#0f4310"/><stop offset="0.8131" stop-color="#1e2c0a"/><stop offset="0.82975" stop-color="#2d1605"/><stop offset="0.84569" stop-color="#360901"/><stop offset="0.86" stop-color="#390400"/><stop offset="0.8715" stop-color="#250300"/><stop offset="0.88602" stop-color="#140100"/><stop offset="0.90412" stop-color="#090100"/><stop offset="0.92951" stop-color="#020000"/><stop offset="1"/></radialGradient><radialGradient id="bh" cx="195.98535" cy="348.46136" r="2.8404" gradientUnits="userSpaceOnUse"><stop offset="0.1"/><stop offset="0.24639" stop-color="#1b1103"/><stop offset="0.42619" stop-color="#362207"/><stop offset="0.61009" stop-color="#492e09"/><stop offset="0.79889" stop-color="#54350b"/><stop offset="1" stop-color="#58370b"/></radialGradient><radialGradient id="bi" cx="205.88112" cy="317.0634" r="1.58647" gradientUnits="userSpaceOnUse"><stop offset="0.1" stop-color="#192f1b"/><stop offset="0.2285" stop-color="#122214"/><stop offset="0.47516" stop-color="#080f09"/><stop offset="0.72928" stop-color="#020402"/><stop offset="1"/></radialGradient><radialGradient id="bj" cx="199.84399" cy="336.21835" r="1.05071" xlink:href="#bh"/><radialGradient id="bk" cx="198.88868" cy="339.24923" r="1.47759" gradientUnits="userSpaceOnUse"><stop offset="0.1"/><stop offset="0.29001" stop-color="#14160e"/><stop offset="0.51699" stop-color="#25291a"/><stop offset="0.75084" stop-color="#303422"/><stop offset="1" stop-color="#333824"/></radialGradient><radialGradient id="bl" cx="196.17203" cy="347.86855" r="2.74344" xlink:href="#bi"/><radialGradient id="bm" cx="232.89678" cy="114.96484" r="10.30064" gradientUnits="userSpaceOnUse"><stop offset="0" stop-color="#fff"/><stop offset="1" stop-color="#b9cbf0" stop-opacity="0"/></radialGradient><radialGradient id="bn" cx="324.92824" cy="195.53439" r="19.49085" xlink:href="#az"/><radialGradient id="bo" cx="336.18097" cy="278.27572" r="0.64971" xlink:href="#ba"/><radialGradient id="bp" cx="337.10709" cy="285.0846" r="0.64971" xlink:href="#ba"/><radialGradient id="bq" cx="336.62001" cy="281.50256" r="4.87267" xlink:href="#bc"/><radialGradient id="br" cx="327.36395" cy="213.44443" r="12.99396" xlink:href="#bd"/><radialGradient id="bs" cx="327.36395" cy="213.44443" r="6.49689" xlink:href="#be"/><radialGradient id="bt" cx="327.36395" cy="213.44443" r="5.41414" xlink:href="#bf"/><radialGradient id="bu" cx="337.10709" cy="285.0846" r="9.74535" xlink:href="#bg"/><radialGradient id="bv" cx="334.74892" cy="267.74411" r="1.10156" gradientUnits="userSpaceOnUse"><stop offset="0.1"/><stop offset="0.2047" stop-color="#1c1713"/><stop offset="0.35581" stop-color="#3e3229"/><stop offset="0.51018" stop-color="#59473b"/><stop offset="0.66721" stop-color="#6c5647"/><stop offset="0.82838" stop-color="#775f4f"/><stop offset="1" stop-color="#7b6251"/></radialGradient><radialGradient id="bw" cx="328.33051" cy="220.55173" r="2.14261" gradientUnits="userSpaceOnUse"><stop offset="0.1" stop-color="#393a2f"/><stop offset="0.30165" stop-color="#21221c"/><stop offset="0.52494" stop-color="#0f0f0c"/><stop offset="0.75495" stop-color="#040403"/><stop offset="1"/></radialGradient><radialGradient id="bx" cx="331.28492" cy="242.27587" r="1.97926" gradientUnits="userSpaceOnUse"><stop offset="0.1"/><stop offset="0.11031" stop-color="#010100"/><stop offset="0.32262" stop-color="#1c0e05"/><stop offset="0.53968" stop-color="#2f1808"/><stop offset="0.76257" stop-color="#3a1e09"/><stop offset="1" stop-color="#3e200a"/></radialGradient><radialGradient id="by" cx="329.848" cy="231.71028" r="2.49165" gradientUnits="userSpaceOnUse"><stop offset="0.1" stop-color="#7e9c95"/><stop offset="0.15454" stop-color="#6e8983"/><stop offset="0.2879" stop-color="#4d5f5b"/><stop offset="0.42427" stop-color="#313d3a"/><stop offset="0.56231" stop-color="#1c2221"/><stop offset="0.70265" stop-color="#0c0f0e"/><stop offset="0.84664" stop-color="#030404"/><stop offset="1"/></radialGradient><radialGradient id="bz" cx="336.40505" cy="279.92206" r="0.70539" gradientUnits="userSpaceOnUse"><stop offset="0.1"/><stop offset="0.22259" stop-color="#1b1722"/><stop offset="0.37027" stop-color="#352e44"/><stop offset="0.52121" stop-color="#4a3f5f"/><stop offset="0.67469" stop-color="#584c72"/><stop offset="0.8322" stop-color="#61547d"/><stop offset="1" stop-color="#645681"/></radialGradient></defs><g class="c"><ellipse class="d" cx="269.16211" cy="422.31892" rx="144.19211" ry="23.28088"/><path class="e" d="M399.74646,403.24247,339.42828,176.10192l.00786-66.26991c-17.75085,8.70908-35.47443,8.70911-59.73241,8.70911-25.0409,0-46.6847-3.005-56.99033-7.36688l-2.97676-3.17144.60953,68.81454L159.6607,403.24247a14.43621,14.43621,0,0,0,13.887,18.37994H385.85947A14.43608,14.43608,0,0,0,399.74646,403.24247Z"/><path class="a" d="M408.28862,405.78923,343.11277,176.29932V105.4176c0,7.24791-28.389,13.12352-63.409,13.12352s-63.409-5.87561-63.409-13.12352v70.88172L151.11854,405.78923A16.974,16.974,0,0,0,167.489,427.24969H391.91819A16.974,16.974,0,0,0,408.28862,405.78923Z"/><g class="f"><path class="g" d="M401.28211,411.04717c0-12.68913-54.23417-24.21531-121.13541-24.21531s-121.13541,12.00793-121.13541,24.69707,11.8099,10.1263,121.13541,11.13877C383.91213,423.62867,401.28211,423.73631,401.28211,411.04717Z"/><path class="h" d="M303.67887,192.62823c-2.80175-.31817-5.59682-.69124-8.39593-1.03119a108.842,108.842,0,0,0-15.01056-1.03272c-2.193.03846-4.39639.36007-6.55272.20572a62.46431,62.46431,0,0,0-7.14072-.04067c-9.72284.4182-19.28128,2.38687-28.77975,4.37841q-4.31315.90435-8.64184,1.73241c-6.01064,1.14983-12.15181,2.21117-17.73607,4.82648-1.4803.69329-2.55342,1.04806-3.08164,2.5374-.1988.56054-.33629,1.15159-.503,1.72256L203.241,221.66385l-6.853,23.46721-8.36328,28.63913-9.12657,31.253-9.14286,31.30872-8.41212,28.8064-6.93437,23.746-4.7096,16.1275-1.73781,5.95094,7.53771,20.20928H412.87136v-42.6524l-61.93708-184.68c-5.8965-2.38475-11.94619-4.22669-17.94788-6.30536-5.53008-1.91533-11.61122-2.03905-17.2549-3.68935C312.0264,192.76141,307.525,193.065,303.67887,192.62823Z"/></g><ellipse class="i" cx="279.70369" cy="105.41758" rx="63.4091" ry="13.12351"/><path class="b" d="M393.43143,399.67556l-55.61757-195.836h-.60171c0,6.98614-25.7402,12.64944-57.49231,12.64944s-57.49231-5.6633-57.49231-12.64944h-.63423L165.976,399.67563a13.67652,13.67652,0,0,0,13.15636,17.41308H380.27506A13.67684,13.67684,0,0,0,393.43143,399.67556Z"/><g class="j"><path class="k" d="M257.43534,262.65652c-28.84181,4.469-58.13244,6.29623-86.57756,12.83056s-56.625,18.32338-76.76012,39.45151c-11.66189,12.237-20.57245,28.8161-17.95551,45.51626,2.05123,13.09,11.00468,24.3366,21.9331,31.82829s23.74412,11.69316,36.51423,15.22582c74.25136,20.54053,156.51867,20.7286,225.64542-13.28123,13.90016-6.83877,27.29-15.09294,38.188-26.10277s19.21421-24.981,21.62539-40.28357c2.48517-15.77217-1.48981-32.23248-9.715-45.91764a92.185,92.185,0,0,0-27.27321-28.22759,89.44684,89.44684,0,0,0-16.5116-8.80486c-7.67978-3.18381-12.18769-7.99134-20.31776-4.91245-9.51759,3.60436-19.31018,6.61893-29.0811,9.451A476.87738,476.87738,0,0,1,257.43534,262.65652Z"/><path class="l" d="M279.55632,314.16194c-28.84181,4.469-58.13244,6.29623-86.57756,12.83056s-56.625,18.32338-76.76012,39.45151c-11.66189,12.237-20.57245,28.8161-17.95551,45.51626,2.05123,13.09,11.00468,24.3366,21.93309,31.82829s23.74413,11.69316,36.51424,15.22582c74.25136,20.54053,156.51867,20.7286,225.64542-13.28123,13.90016-6.83877,27.29-15.09294,38.188-26.10277s19.21421-24.981,21.62539-40.28357c2.48517-15.77217-1.48981-32.23248-9.715-45.91764a92.185,92.185,0,0,0-27.27321-28.22759,89.44715,89.44715,0,0,0-16.5116-8.80486c-7.67978-3.18381-12.1877-7.99134-20.31777-4.91245-9.51758,3.60436-19.31018,6.61893-29.08109,9.451A476.87777,476.87777,0,0,1,279.55632,314.16194Z"/></g><ellipse class="m" cx="279.71991" cy="203.83955" rx="57.49233" ry="12.64945"/><g class="n"><circle class="o" cx="250.36721" cy="219.93001" r="21.94151"/><ellipse class="p" cx="248.82361" cy="207.83622" rx="14.66347" ry="8.84042" transform="translate(-15.03361 19.45243) rotate(-4.34581)"/><circle class="q" cx="262.04005" cy="208.9134" r="1.79686"/><circle class="r" cx="264.84728" cy="211.2731" r="0.65147"/><circle class="s" cx="240.73593" cy="234.78531" r="0.65147"/><path class="t" d="M232.90943,221.53165c-.21529,4.23544,2.3335,10.34467,6.39729,12.13752"/><circle class="u" cx="260.2432" cy="231.86353" r="1.99438"/></g><g class="v"><circle class="w" cx="310.54473" cy="189.59317" r="12.40003"/><ellipse class="x" cx="309.67238" cy="182.75849" rx="8.28692" ry="4.99608" transform="translate(-12.95837 23.99121) rotate(-4.34581)"/><circle class="y" cx="317.14152" cy="183.36724" r="1.01548"/><circle class="z" cx="318.728" cy="184.7008" r="0.36817"/><circle class="aa" cx="305.10171" cy="197.9885" r="0.36817"/><path class="ab" d="M300.67864,190.49832c-.12168,2.39362,1.31875,5.8462,3.61536,6.85941"/><circle class="ac" cx="316.12605" cy="196.33728" r="1.1271"/></g><g class="v"><circle class="ad" cx="284.26926" cy="161.67186" r="6.59679"/><ellipse class="ae" cx="283.80518" cy="158.03582" rx="4.40863" ry="2.6579" transform="translate(-11.15935 21.96002) rotate(-4.34581)"/><circle class="af" cx="287.77875" cy="158.35967" r="0.54023"/><circle class="ag" cx="288.62275" cy="159.06913" r="0.19587"/><circle class="ah" cx="281.37359" cy="166.13816" r="0.19587"/><path class="ai" d="M279.02052,162.1534a4.10837,4.10837,0,0,0,1.92337,3.64919"/><circle class="aj" cx="287.23852" cy="165.25971" r="0.59962"/></g><g class="v"><circle class="ak" cx="283.66462" cy="261.31607" r="14.48007"/><ellipse class="al" cx="282.64594" cy="253.3349" rx="9.67701" ry="5.83414" transform="translate(-18.38408 22.14617) rotate(-4.34581)"/><circle class="am" cx="291.368" cy="254.04577" r="1.18582"/><circle class="an" cx="293.2206" cy="255.60303" r="0.42993"/><circle class="ao" cx="277.30856" cy="271.11967" r="0.42993"/><path class="ap" d="M272.14354,262.37306c-.14208,2.79513,1.54,6.82686,4.22183,8.01"/><circle class="aq" cx="290.18218" cy="269.19147" r="1.31617"/></g><g class="v"><circle class="ar" cx="255.90012" cy="300.95484" r="7.70337"/><ellipse class="as" cx="255.35819" cy="296.70887" rx="5.14815" ry="3.10376" transform="translate(-21.74924 20.20312) rotate(-4.34581)"/><circle class="at" cx="259.9983" cy="297.08705" r="0.63085"/><circle class="au" cx="260.98388" cy="297.91551" r="0.22872"/><circle class="av" cx="252.51871" cy="306.17034" r="0.22872"/><path class="aw" d="M249.77093,301.51715c-.07559,1.487.81926,3.63188,2.246,4.26133"/><circle class="ax" cx="259.36745" cy="305.14454" r="0.7002"/></g><g class="ay"><path class="az" d="M343.10664,287.05465a6.22825,6.22825,0,0,1-6.087-4.945l-20.168-95.75738a6.22792,6.22792,0,0,1-.13378-1.28307v-57.658a6.22686,6.22686,0,0,1,12.45372,0V184.421L349.2058,279.5435a6.23273,6.23273,0,0,1-6.09916,7.51115Z"/></g><g class="ba"><path class="bb" d="M191.18568,393.986a6.85623,6.85623,0,0,1-6.63063-8.5905l40.24714-153.3406a6.84962,6.84962,0,0,1,13.25032,3.47828L197.80537,388.8738A6.85072,6.85072,0,0,1,191.18568,393.986Z"/></g><circle class="bc" cx="216.04993" cy="284.79913" r="19.98648"/><circle class="bd" cx="194.02912" cy="354.66792" r="0.6662"/><circle class="be" cx="192.31917" cy="360.09316" r="0.6662"/><circle class="bf" cx="193.2684" cy="357.08144" r="4.99665"/><line class="bg" x1="211.30378" y1="299.85791" x2="192.31917" y2="360.09316"/><circle class="bh" cx="211.30378" cy="299.85791" r="13.32427"/><circle class="bi" cx="211.30378" cy="299.85791" r="6.66221"/><circle class="bj" cx="211.30378" cy="299.85791" r="5.55184"/><polyline class="bk" points="211.304 299.858 207.718 321.446 211.304 299.858 214.889 278.269 211.304 299.858 189.715 296.273 211.304 299.858 232.892 303.443 211.304 299.858 214.248 327.996 211.304 299.858 208.359 271.72 211.304 299.858 183.166 302.802 211.304 299.858 239.442 296.913 211.304 299.858 225.166 322.945 211.304 299.858 197.442 276.771 211.304 299.858 188.217 313.72 211.304 299.858 234.391 285.996 211.304 299.858 207.013 318.168 211.304 299.858 215.595 281.548 211.304 299.858 192.994 295.567 211.304 299.858 229.614 304.149 211.304 299.858 211.138 302.077 211.304 299.858 211.469 297.639 211.304 299.858 209.085 299.692 211.304 299.858 213.523 300.024 211.304 299.858 197.079 324.435 211.304 299.858 225.529 275.281 211.304 299.858 186.727 285.633 211.304 299.858 235.88 314.083 211.304 299.858 205.213 307.622 211.304 299.858 217.394 292.093 211.304 299.858 203.539 293.768 211.304 299.858 219.068 305.948 211.304 299.858 214.448 306.541 211.304 299.858 208.16 293.175 211.304 299.858 204.621 303.002 211.304 299.858 217.987 296.714 211.304 299.858 236.301 321.775 211.304 299.858 186.307 277.941 211.304 299.858 189.387 324.855 211.304 299.858 233.221 274.861 211.304 299.858 216.834 326.98 211.304 299.858 205.773 272.736 211.304 299.858 184.182 305.388 211.304 299.858 238.426 294.328 211.304 299.858 216.322 331.618 211.304 299.858 206.286 268.098 211.304 299.858 179.544 304.876 211.304 299.858 243.064 294.84 211.304 299.858 213.916 305.649 211.304 299.858 208.691 294.067 211.304 299.858 205.513 302.47 211.304 299.858 217.094 297.245 211.304 299.858 228.429 315.226 211.304 299.858 194.178 284.49 211.304 299.858 195.936 316.983 211.304 299.858 226.671 282.732 211.304 299.858 202.835 322.961 211.304 299.858 219.772 276.754 211.304 299.858 188.2 291.389 211.304 299.858 234.407 308.327 211.304 299.858 212.568 319.947 211.304 299.858 210.04 279.769 211.304 299.858 191.215 301.122 211.304 299.858 231.393 298.594"/><circle class="bl" cx="192.31917" cy="360.09316" r="9.9933"/><circle class="bm" cx="195.98535" cy="348.46136" r="2.8404"/><circle class="bn" cx="205.88112" cy="317.0634" r="1.58647"/><circle class="bo" cx="199.84399" cy="336.21835" r="1.05071"/><circle class="bp" cx="198.88868" cy="339.24923" r="1.47759"/><circle class="bq" cx="196.17203" cy="347.86855" r="2.74344"/><circle class="br" cx="232.89678" cy="114.96484" r="10.30064"/><circle class="bs" cx="324.92824" cy="195.53439" r="19.49085"/><circle class="bt" cx="336.18097" cy="278.27572" r="0.64971"/><circle class="bu" cx="337.10709" cy="285.0846" r="0.64971"/><circle class="bv" cx="336.62001" cy="281.50256" r="4.87267"/><line class="bg" x1="327.36395" y1="213.44443" x2="337.10709" y2="285.0846"/><circle class="bw" cx="327.36395" cy="213.44443" r="12.99396"/><circle class="bx" cx="327.36395" cy="213.44443" r="6.49689"/><circle class="by" cx="327.36395" cy="213.44443" r="5.41414"/><polyline class="bk" points="327.364 213.444 332.211 213.618 327.364 213.444 322.517 213.271 327.364 213.444 327.19 218.291 327.364 213.444 327.538 208.598 327.364 213.444 335.458 236.478 327.364 213.444 319.27 190.411 327.364 213.444 304.331 221.538 327.364 213.444 350.397 205.351 327.364 213.444 336.759 225.823 327.364 213.444 317.969 201.066 327.364 213.444 314.986 222.839 327.364 213.444 339.742 204.049 327.364 213.444 330.062 226.349 327.364 213.444 324.666 200.54 327.364 213.444 314.46 216.143 327.364 213.444 340.268 210.746 327.364 213.444 332.553 216.949 327.364 213.444 322.175 209.94 327.364 213.444 323.86 218.633 327.364 213.444 330.868 208.255 327.364 213.444 341.419 223.236 327.364 213.444 313.309 203.653 327.364 213.444 317.572 227.499 327.364 213.444 337.155 199.39 327.364 213.444 342.027 214.858 327.364 213.444 312.701 212.031 327.364 213.444 325.95 228.107 327.364 213.444 328.778 198.781 327.364 213.444 332.983 231.165 327.364 213.444 321.745 195.723 327.364 213.444 309.643 219.063 327.364 213.444 345.085 207.826 327.364 213.444 328.891 214.175 327.364 213.444 325.836 212.714 327.364 213.444 326.633 214.972 327.364 213.444 328.095 211.917 327.364 213.444 348.984 229.993 327.364 213.444 305.744 196.896 327.364 213.444 310.815 235.064 327.364 213.444 343.913 191.825 327.364 213.444 329.132 230.561 327.364 213.444 325.596 196.328 327.364 213.444 310.247 215.212 327.364 213.444 344.481 211.676 327.364 213.444 351.669 216.975 327.364 213.444 303.059 209.914 327.364 213.444 323.833 237.75 327.364 213.444 330.895 189.139 327.364 213.444 327.571 244.476 327.364 213.444 327.157 182.413 327.364 213.444 296.332 213.651 327.364 213.444 358.396 213.238 327.364 213.444 335.449 232.623 327.364 213.444 319.279 194.266 327.364 213.444 308.185 221.529 327.364 213.444 346.543 205.36 327.364 213.444 333.385 232.646 327.364 213.444 321.343 194.243 327.364 213.444 308.163 219.466 327.364 213.444 346.565 207.423"/><circle class="bz" cx="337.10709" cy="285.0846" r="9.74535"/><circle class="ca" cx="334.74892" cy="267.74411" r="1.10156"/><circle class="cb" cx="328.33051" cy="220.55173" r="2.14261"/><circle class="cc" cx="331.28492" cy="242.27587" r="1.97926"/><circle class="cd" cx="329.848" cy="231.71028" r="2.49165"/><circle class="ce" cx="336.40505" cy="279.92206" r="0.70539"/></g></svg>