<svg xmlns="http://www.w3.org/2000/svg" xmlns:xlink="http://www.w3.org/1999/xlink" viewBox="0 0 523.92572 512.20828"><defs><style>.a,.i{opacity:0.72;}.a{fill:url(#a);}.b,.ba,.k,.l,.m{opacity:0.8;}.b{fill:url(#b);}.c{isolation:isolate;}.d{fill:#683c11;fill-opacity:0.51;}.e,.g{mix-blend-mode:multiply;}.e{fill:url(#c);}.f{clip-path:url(#e);}.g{fill:url(#f);}.h{opacity:0.42;fill:url(#g);}.i{fill:url(#h);}.j{clip-path:url(#j);}.k{fill:url(#k);}.l{fill:url(#l);}.bm,.m{stroke-miterlimit:10;}.m,.t{stroke-width:1.24537px;}.m{fill:url(#m);stroke:url(#n);}.bc,.bd,.bk,.bn,.bz,.cb,.n{opacity:0.5;}.o{fill:url(#o);}.aa,.ab,.ae,.ah,.ai,.al,.ao,.ap,.as,.av,.aw,.p,.s,.t,.x{mix-blend-mode:soft-light;}.p{fill:url(#p);}.q{fill:url(#q);}.r{fill:url(#r);}.s{fill:url(#s);}.ab,.ai,.ap,.aw,.bi,.bm,.t{fill:none;}.ab,.ai,.ap,.aw,.t{stroke-linecap:round;stroke-linejoin:round;}.t{stroke:url(#t);}.u{fill:url(#u);}.v{opacity:0.3;}.w{fill:url(#v);}.x{fill:url(#w);}.y{fill:url(#x);}.z{fill:url(#y);}.aa{fill:url(#z);}.ab{stroke-width:0.70381px;stroke:url(#aa);}.ac{fill:url(#ab);}.ad{fill:url(#ac);}.ae{fill:url(#ad);}.af{fill:url(#ae);}.ag{fill:url(#af);}.ah{fill:url(#ag);}.ai{stroke-width:0.37443px;stroke:url(#ah);}.aj{fill:url(#ai);}.ak{fill:url(#aj);}.al{fill:url(#ak);}.am{fill:url(#al);}.an{fill:url(#am);}.ao{fill:url(#an);}.ap{stroke-width:0.82187px;stroke:url(#ao);}.aq{fill:url(#ap);}.ar{fill:url(#aq);}.as{fill:url(#ar);}.at{fill:url(#as);}.au{fill:url(#at);}.av{fill:url(#au);}.aw{stroke-width:0.43723px;stroke:url(#av);}.ax{fill:url(#aw);}.ay{opacity:0.54;}.az{fill:url(#ax);}.ba{mix-blend-mode:hard-light;}.bb{fill:url(#ay);}.bc{fill:url(#az);}.bd{fill:url(#ba);}.be,.bu{opacity:0.25;}.be,.bf,.bg,.bh,.bj,.bk,.bl,.bm,.bn,.bo,.bp,.bq,.br,.bs,.bu,.bv,.bw,.bx,.by,.bz,.ca,.cb,.cc,.cd,.ce,.cf,.cg{mix-blend-mode:screen;}.be{fill:url(#bb);}.bf{fill:url(#bc);}.bg{fill:url(#bd);}.bh,.bx{opacity:0.2;}.bh{fill:url(#be);}.bj,.by{opacity:0.15;}.bj{fill:url(#bf);}.bk{fill:url(#bg);}.bl{fill:url(#bh);}.bm{stroke:#fff;stroke-width:2.49074px;opacity:0.03;}.bn{fill:url(#bi);}.bo{fill:url(#bj);}.bp{fill:url(#bk);}.bq{fill:url(#bl);}.br{fill:url(#bm);}.bs{fill:url(#bn);}.bt{fill:url(#bo);}.bu{fill:url(#bp);}.bv{fill:url(#bq);}.bw{fill:url(#br);}.bx{fill:url(#bs);}.by{fill:url(#bt);}.bz{fill:url(#bu);}.ca{fill:url(#bv);}.cb{fill:url(#bw);}.cc{fill:url(#bx);}.cd{fill:url(#by);}.ce{fill:url(#bz);}.cf{fill:url(#ca);}.cg{fill:url(#cb);}</style><linearGradient id="a" x1="212.29373" y1="266.38373" x2="343.05496" y2="266.38373" gradientUnits="userSpaceOnUse"><stop offset="0" stop-color="#f5fbff"/><stop offset="0.62567" stop-color="#e9f1f5"/><stop offset="1" stop-color="#c5d9e0"/></linearGradient><linearGradient id="b" x1="350.47491" y1="437.04109" x2="195.77723" y2="232.01115" gradientUnits="userSpaceOnUse"><stop offset="0" stop-color="#07bb8b"/><stop offset="1" stop-color="#39f0b7"/></linearGradient><linearGradient id="c" x1="314.60093" y1="122.55734" x2="282.48872" y2="384.10898" gradientUnits="userSpaceOnUse"><stop offset="0" stop-color="#bfc4c7"/><stop offset="1" stop-color="#b1c3c9"/></linearGradient><clipPath id="e"><path class="a" d="M408.23118,405.83932,343.05533,176.3494V105.46768c0,7.24792-28.38906,13.12353-63.409,13.12353s-63.409-5.87561-63.409-13.12353V176.3494L151.06109,405.83932a16.974,16.974,0,0,0,16.37043,21.46045H391.86075A16.974,16.974,0,0,0,408.23118,405.83932Z"/></clipPath><linearGradient id="f" x1="221.84391" y1="261.60987" x2="298.08545" y2="458.51193" gradientUnits="userSpaceOnUse"><stop offset="0" stop-color="#f5f5f5"/><stop offset="1" stop-color="#c3d1d6"/></linearGradient><linearGradient id="g" x1="494.21542" y1="310.91331" x2="264.71565" y2="310.91331" xlink:href="#b"/><linearGradient id="h" x1="279.64625" y1="79.21966" x2="279.64625" y2="118.32059" xlink:href="#a"/><clipPath id="j"><path class="b" d="M393.374,399.72564l-55.61756-195.836h-.60171c0,6.98613-25.74021,12.64944-57.49231,12.64944s-57.49231-5.66331-57.49231-12.64944h-.63424L165.91859,399.72572A13.67652,13.67652,0,0,0,179.075,417.13879H380.21762A13.67684,13.67684,0,0,0,393.374,399.72564Z"/></clipPath><linearGradient id="k" x1="526.76646" y1="330.35629" x2="227.79635" y2="330.35629" xlink:href="#b"/><linearGradient id="l" x1="97.74637" y1="381.86171" x2="442.84543" y2="381.86171" xlink:href="#b"/><linearGradient id="m" x1="381.76801" y1="203.88964" x2="245.52136" y2="203.88964" xlink:href="#b"/><linearGradient id="n" x1="221.54745" y1="203.88964" x2="337.77748" y2="203.88964" gradientUnits="userSpaceOnUse"><stop offset="0" stop-color="#26ffc6"/><stop offset="1" stop-color="#39f0b7"/></linearGradient><radialGradient id="o" cx="250.30976" cy="219.98009" r="20.84617" gradientTransform="matrix(0.2537, -0.96728, 0.95587, 0.2507, -23.46623, 406.95061)" gradientUnits="userSpaceOnUse"><stop offset="0" stop-color="#35c793" stop-opacity="0.8"/><stop offset="0.29921" stop-color="#39ca96" stop-opacity="0.80046"/><stop offset="0.52418" stop-color="#44d29f" stop-opacity="0.80193"/><stop offset="0.72493" stop-color="#58e0af" stop-opacity="0.8044"/><stop offset="0.91041" stop-color="#74f3c5" stop-opacity="0.80787"/><stop offset="1" stop-color="#85ffd2" stop-opacity="0.81"/></radialGradient><radialGradient id="p" cx="339.0922" cy="700.95657" r="13.50603" gradientTransform="translate(-173.11586 -332.60428) scale(1.24415 0.77108)" gradientUnits="userSpaceOnUse"><stop offset="0" stop-color="#52ebdb"/><stop offset="0.37881" stop-color="#52ebdb" stop-opacity="0.99203"/><stop offset="0.51527" stop-color="#53eada" stop-opacity="0.96313"/><stop offset="0.61253" stop-color="#55eada" stop-opacity="0.91281"/><stop offset="0.69121" stop-color="#57e9d8" stop-opacity="0.8409"/><stop offset="0.75863" stop-color="#5ae7d7" stop-opacity="0.74715"/><stop offset="0.81834" stop-color="#5ee5d5" stop-opacity="0.63133"/><stop offset="0.87231" stop-color="#62e3d3" stop-opacity="0.49335"/><stop offset="0.92196" stop-color="#67e1d0" stop-opacity="0.33264"/><stop offset="0.96609" stop-color="#6ddece" stop-opacity="0.15775"/><stop offset="1" stop-color="#72dccb" stop-opacity="0"/></radialGradient><radialGradient id="q" cx="261.98261" cy="208.96348" r="1.70715" gradientTransform="matrix(0.2537, -0.96728, 0.95587, 0.2507, -4.22427, 409.98687)" gradientUnits="userSpaceOnUse"><stop offset="0" stop-color="#c1ebe5"/><stop offset="0.37881" stop-color="#c0ebe5" stop-opacity="0.99203"/><stop offset="0.51527" stop-color="#beeae4" stop-opacity="0.96313"/><stop offset="0.61253" stop-color="#baeae3" stop-opacity="0.91281"/><stop offset="0.69121" stop-color="#b4e9e1" stop-opacity="0.8409"/><stop offset="0.75863" stop-color="#ade7de" stop-opacity="0.74715"/><stop offset="0.81834" stop-color="#a4e5db" stop-opacity="0.63133"/><stop offset="0.87231" stop-color="#99e3d8" stop-opacity="0.49335"/><stop offset="0.92196" stop-color="#8ce1d4" stop-opacity="0.33264"/><stop offset="0.96609" stop-color="#7edecf" stop-opacity="0.15775"/><stop offset="1" stop-color="#72dccb" stop-opacity="0"/></radialGradient><radialGradient id="r" cx="264.78984" cy="211.32318" r="0.61895" gradientTransform="matrix(0.2537, -0.96728, 0.95587, 0.2507, -4.3848, 414.47037)" gradientUnits="userSpaceOnUse"><stop offset="0" stop-color="#c1ebe5"/><stop offset="0.22496" stop-color="#c0ebe5" stop-opacity="0.98901"/><stop offset="0.3644" stop-color="#bdeae4" stop-opacity="0.95275"/><stop offset="0.48062" stop-color="#b8e9e2" stop-opacity="0.89088"/><stop offset="0.58411" stop-color="#b1e8e0" stop-opacity="0.80322"/><stop offset="0.67914" stop-color="#a8e6dd" stop-opacity="0.68961"/><stop offset="0.7679" stop-color="#9de4d9" stop-opacity="0.55"/><stop offset="0.85188" stop-color="#90e2d5" stop-opacity="0.38414"/><stop offset="0.92991" stop-color="#82dfd0" stop-opacity="0.19725"/><stop offset="1" stop-color="#72dccb" stop-opacity="0"/></radialGradient><radialGradient id="s" cx="240.67849" cy="234.83539" r="0.61895" gradientTransform="matrix(0.2537, -0.96728, 0.95587, 0.2507, -44.85386, 408.76544)" xlink:href="#r"/><radialGradient id="t" cx="236.04431" cy="227.6505" r="5.45098" gradientTransform="matrix(1, 0, 0, 1, 0, 0)" xlink:href="#q"/><radialGradient id="u" cx="260.18575" cy="231.91361" r="2.48527" gradientTransform="translate(0 33.69015) scale(1 0.85473)" gradientUnits="userSpaceOnUse"><stop offset="0" stop-color="#52ebdb"/><stop offset="0.09168" stop-color="#53ebda" stop-opacity="0.96822"/><stop offset="0.22975" stop-color="#56e9d9" stop-opacity="0.88033"/><stop offset="0.39704" stop-color="#5ae7d7" stop-opacity="0.73641"/><stop offset="0.58721" stop-color="#61e4d4" stop-opacity="0.53628"/><stop offset="0.79369" stop-color="#69e0d0" stop-opacity="0.2836"/><stop offset="1" stop-color="#72dccb" stop-opacity="0"/></radialGradient><radialGradient id="v" cx="310.48728" cy="189.64326" r="11.78101" gradientTransform="matrix(0.2537, -0.96728, 0.95587, 0.2507, 50.44258, 442.42809)" xlink:href="#o"/><radialGradient id="w" cx="389.38681" cy="678.34919" r="7.6328" gradientTransform="translate(-174.84121 -340.25001) scale(1.24415 0.77108)" xlink:href="#p"/><radialGradient id="x" cx="317.08408" cy="183.41733" r="0.96478" gradientTransform="matrix(0.2537, -0.96728, 0.95587, 0.2507, 61.31699, 444.144)" xlink:href="#q"/><radialGradient id="y" cx="318.67056" cy="184.75089" r="0.34979" gradientTransform="matrix(0.2537, -0.96728, 0.95587, 0.2507, 61.22627, 446.67781)" xlink:href="#r"/><radialGradient id="z" cx="305.04426" cy="198.03859" r="0.34979" gradientTransform="matrix(0.2537, -0.96728, 0.95587, 0.2507, 38.35557, 443.45373)" xlink:href="#r"/><radialGradient id="aa" cx="302.4253" cy="193.97811" r="3.08057" gradientTransform="matrix(1, 0, 0, 1, 0, 0)" xlink:href="#q"/><radialGradient id="ab" cx="316.0686" cy="196.38737" r="1.40453" gradientTransform="translate(0 28.52925) scale(1 0.85473)" xlink:href="#u"/><radialGradient id="ac" cx="284.21182" cy="161.72194" r="6.26748" gradientTransform="matrix(0.2537, -0.96728, 0.95587, 0.2507, 57.52237, 396.09095)" xlink:href="#o"/><radialGradient id="ad" cx="370.1613" cy="648.85038" r="4.06064" gradientTransform="translate(-176.78897 -342.22687) scale(1.24415 0.77108)" xlink:href="#p"/><radialGradient id="ae" cx="287.7213" cy="158.40976" r="0.51326" gradientTransform="matrix(0.2537, -0.96728, 0.95587, 0.2507, 63.30754, 397.00381)" xlink:href="#q"/><radialGradient id="af" cx="288.56531" cy="159.11921" r="0.18609" gradientTransform="matrix(0.2537, -0.96728, 0.95587, 0.2507, 63.25927, 398.35179)" xlink:href="#r"/><radialGradient id="ag" cx="281.31614" cy="166.18824" r="0.18609" gradientTransform="matrix(0.2537, -0.96728, 0.95587, 0.2507, 51.0921, 396.63659)" xlink:href="#r"/><radialGradient id="ah" cx="279.92286" cy="164.02808" r="1.63886" gradientTransform="matrix(1, 0, 0, 1, 0, 0)" xlink:href="#q"/><radialGradient id="ai" cx="287.18107" cy="165.3098" r="0.74721" gradientTransform="translate(0 24.0146) scale(1 0.85473)" xlink:href="#u"/><radialGradient id="aj" cx="283.60718" cy="261.36616" r="13.75721" gradientTransform="matrix(0.2537, -0.96728, 0.95587, 0.2507, -38.1761, 470.16904)" xlink:href="#o"/><radialGradient id="ak" cx="363.42797" cy="754.08737" r="8.91317" gradientTransform="translate(-169.57091 -328.07347) scale(1.24415 0.77108)" xlink:href="#p"/><radialGradient id="al" cx="291.31055" cy="254.09585" r="1.12662" gradientTransform="matrix(0.2537, -0.96728, 0.95587, 0.2507, -25.47757, 472.17279)" xlink:href="#q"/><radialGradient id="am" cx="293.16316" cy="255.65311" r="0.40847" gradientTransform="matrix(0.2537, -0.96728, 0.95587, 0.2507, -25.58351, 475.13163)" xlink:href="#r"/><radialGradient id="an" cx="277.25112" cy="271.16976" r="0.40847" gradientTransform="matrix(0.2537, -0.96728, 0.95587, 0.2507, -52.29065, 471.36672)" xlink:href="#r"/><radialGradient id="ao" cx="274.19284" cy="266.42816" r="3.59732" gradientTransform="matrix(1, 0, 0, 1, 0, 0)" xlink:href="#q"/><radialGradient id="ap" cx="290.12474" cy="269.24156" r="1.64013" gradientTransform="translate(0 39.11279) scale(1 0.85473)" xlink:href="#u"/><radialGradient id="aq" cx="255.84268" cy="301.00492" r="7.31881" gradientTransform="matrix(0.2537, -0.96728, 0.95587, 0.2507, -96.78646, 473.01404)" xlink:href="#o"/><radialGradient id="ar" cx="338.91647" cy="799.73665" r="4.74179" gradientTransform="translate(-166.36266 -319.89856) scale(1.24415 0.77108)" xlink:href="#p"/><radialGradient id="as" cx="259.94086" cy="297.13713" r="0.59936" gradientTransform="matrix(0.2537, -0.96728, 0.95587, 0.2507, -90.03086, 474.08003)" xlink:href="#q"/><radialGradient id="at" cx="260.92644" cy="297.96559" r="0.21731" gradientTransform="matrix(0.2537, -0.96728, 0.95587, 0.2507, -90.08722, 475.65412)" xlink:href="#r"/><radialGradient id="au" cx="252.46126" cy="306.22042" r="0.21731" gradientTransform="matrix(0.2537, -0.96728, 0.95587, 0.2507, -104.29537, 473.6512)" xlink:href="#r"/><radialGradient id="av" cx="250.83426" cy="303.6979" r="1.91377" gradientTransform="matrix(1, 0, 0, 1, 0, 0)" xlink:href="#q"/><radialGradient id="aw" cx="259.31001" cy="305.19462" r="0.87255" gradientTransform="translate(0 44.3357) scale(1 0.85473)" xlink:href="#u"/><radialGradient id="ax" cx="329.10625" cy="187.73983" r="96.86305" gradientTransform="translate(304.80444 -141.18852) rotate(81.99169) scale(1 0.11591)" gradientUnits="userSpaceOnUse"><stop offset="0" stop-color="#e6f3ff"/><stop offset="1" stop-color="#b9cbf0" stop-opacity="0"/></radialGradient><radialGradient id="ay" cx="211.24634" cy="310.51439" r="79.87596" gradientTransform="matrix(0.2537, -0.96728, 0.15236, 0.03996, 110.34499, 502.44148)" xlink:href="#ax"/><radialGradient id="az" cx="347.37653" cy="294.80176" r="5.63016" gradientTransform="matrix(1, 0, 0, 1, 0, 0)" xlink:href="#ax"/><radialGradient id="ba" cx="329.26927" cy="185.14596" r="5.63016" gradientTransform="matrix(1, 0, 0, 1, 0, 0)" xlink:href="#ax"/><radialGradient id="bb" cx="215.99249" cy="284.84921" r="19.98648" gradientUnits="userSpaceOnUse"><stop offset="0.1"/><stop offset="0.11244" stop-color="#080602"/><stop offset="0.16172" stop-color="#231b08"/><stop offset="0.21838" stop-color="#392c0d"/><stop offset="0.28458" stop-color="#4a3910"/><stop offset="0.36644" stop-color="#554213"/><stop offset="0.48125" stop-color="#5c4815"/><stop offset="0.8" stop-color="#5e4915"/><stop offset="1"/></radialGradient><radialGradient id="bc" cx="193.97167" cy="354.71801" r="0.6662" gradientUnits="userSpaceOnUse"><stop offset="0" stop-color="#d4e194"/><stop offset="0.05952" stop-color="#afba7a"/><stop offset="0.13651" stop-color="#868f5e"/><stop offset="0.21955" stop-color="#626845"/><stop offset="0.30759" stop-color="#44482f"/><stop offset="0.40211" stop-color="#2b2e1e"/><stop offset="0.50556" stop-color="#181911"/><stop offset="0.62249" stop-color="#0a0b07"/><stop offset="0.76429" stop-color="#020302"/><stop offset="1"/></radialGradient><radialGradient id="bd" cx="192.26172" cy="360.14325" r="0.6662" xlink:href="#bc"/><radialGradient id="be" cx="193.21095" cy="357.13152" r="4.99665" gradientUnits="userSpaceOnUse"><stop offset="0.05"/><stop offset="0.09242" stop-color="#040a03"/><stop offset="0.29802" stop-color="#183411"/><stop offset="0.48337" stop-color="#25531c"/><stop offset="0.64031" stop-color="#2e6622"/><stop offset="0.75" stop-color="#316d24"/><stop offset="0.78593" stop-color="#4f6e16"/><stop offset="0.83397" stop-color="#716f06"/><stop offset="0.86" stop-color="#7e6f00"/><stop offset="0.88764" stop-color="#7a6c00"/><stop offset="0.91229" stop-color="#706200"/><stop offset="0.93581" stop-color="#5d5200"/><stop offset="0.95863" stop-color="#443c00"/><stop offset="0.98074" stop-color="#231f00"/><stop offset="1"/></radialGradient><radialGradient id="bf" cx="211.24634" cy="299.90799" r="13.32427" gradientUnits="userSpaceOnUse"><stop offset="0" stop-color="#200"/><stop offset="0.73" stop-color="#984023"/><stop offset="1" stop-color="#200"/></radialGradient><radialGradient id="bg" cx="211.24634" cy="299.90799" r="6.66221" gradientUnits="userSpaceOnUse"><stop offset="0.15" stop-color="#fff"/><stop offset="0.20939" stop-color="#e5d3d3"/><stop offset="0.29044" stop-color="#c49c9e"/><stop offset="0.36051" stop-color="#ad7477"/><stop offset="0.41599" stop-color="#9e5c5f"/><stop offset="0.45" stop-color="#995356"/><stop offset="0.57175" stop-color="#6b3335"/><stop offset="0.69355" stop-color="#431718"/><stop offset="0.79053" stop-color="#2b0606"/><stop offset="0.85" stop-color="#200"/><stop offset="0.85727" stop-color="#260201"/><stop offset="0.8648" stop-color="#330704"/><stop offset="0.87246" stop-color="#471009"/><stop offset="0.8802" stop-color="#641d0f"/><stop offset="0.88801" stop-color="#8a2e18"/><stop offset="0.89577" stop-color="#b74223"/><stop offset="0.9" stop-color="#d34e29"/><stop offset="0.90254" stop-color="#c84927"/><stop offset="0.91417" stop-color="#9c361c"/><stop offset="0.92635" stop-color="#772514"/><stop offset="0.93893" stop-color="#58180c"/><stop offset="0.95205" stop-color="#400d07"/><stop offset="0.96594" stop-color="#2f0603"/><stop offset="0.98111" stop-color="#250101"/><stop offset="1" stop-color="#200"/></radialGradient><radialGradient id="bh" cx="211.24634" cy="299.90799" r="5.55184" gradientUnits="userSpaceOnUse"><stop offset="0.15" stop-color="#fff"/><stop offset="0.28237" stop-color="#c2c2c2"/><stop offset="0.42528" stop-color="#888"/><stop offset="0.5636" stop-color="#575757"/><stop offset="0.69361" stop-color="#313131"/><stop offset="0.81336" stop-color="#161616"/><stop offset="0.91921" stop-color="#060606"/><stop offset="1"/></radialGradient><radialGradient id="bi" cx="192.26172" cy="360.14325" r="9.9933" gradientUnits="userSpaceOnUse"><stop offset="0.64"/><stop offset="0.71799" stop-color="#000200"/><stop offset="0.74608" stop-color="#020902"/><stop offset="0.76609" stop-color="#051405"/><stop offset="0.78228" stop-color="#082509"/><stop offset="0.79598" stop-color="#0d3b0e"/><stop offset="0.8" stop-color="#0f4310"/><stop offset="0.8131" stop-color="#1e2c0a"/><stop offset="0.82975" stop-color="#2d1605"/><stop offset="0.84569" stop-color="#360901"/><stop offset="0.86" stop-color="#390400"/><stop offset="0.8715" stop-color="#250300"/><stop offset="0.88602" stop-color="#140100"/><stop offset="0.90412" stop-color="#090100"/><stop offset="0.92951" stop-color="#020000"/><stop offset="1"/></radialGradient><radialGradient id="bj" cx="195.9279" cy="348.51145" r="2.8404" gradientUnits="userSpaceOnUse"><stop offset="0.1"/><stop offset="0.24639" stop-color="#1b1103"/><stop offset="0.42619" stop-color="#362207"/><stop offset="0.61009" stop-color="#492e09"/><stop offset="0.79889" stop-color="#54350b"/><stop offset="1" stop-color="#58370b"/></radialGradient><radialGradient id="bk" cx="205.82368" cy="317.11348" r="1.58647" gradientUnits="userSpaceOnUse"><stop offset="0.1" stop-color="#192f1b"/><stop offset="0.2285" stop-color="#122214"/><stop offset="0.47516" stop-color="#080f09"/><stop offset="0.72928" stop-color="#020402"/><stop offset="1"/></radialGradient><radialGradient id="bl" cx="199.78655" cy="336.26844" r="1.05071" xlink:href="#bj"/><radialGradient id="bm" cx="198.83124" cy="339.29932" r="1.47759" gradientUnits="userSpaceOnUse"><stop offset="0.1"/><stop offset="0.29001" stop-color="#14160e"/><stop offset="0.51699" stop-color="#25291a"/><stop offset="0.75084" stop-color="#303422"/><stop offset="1" stop-color="#333824"/></radialGradient><radialGradient id="bn" cx="196.11459" cy="347.91863" r="2.74344" xlink:href="#bk"/><radialGradient id="bo" cx="232.83934" cy="115.01492" r="10.30064" gradientUnits="userSpaceOnUse"><stop offset="0" stop-color="#fff"/><stop offset="1" stop-color="#b9cbf0" stop-opacity="0"/></radialGradient><radialGradient id="bp" cx="324.87079" cy="195.58448" r="19.49085" xlink:href="#bb"/><radialGradient id="bq" cx="336.12353" cy="278.32581" r="0.64971" xlink:href="#bc"/><radialGradient id="br" cx="337.04965" cy="285.13468" r="0.64971" xlink:href="#bc"/><radialGradient id="bs" cx="336.56257" cy="281.55265" r="4.87267" xlink:href="#be"/><radialGradient id="bt" cx="327.30651" cy="213.49452" r="12.99396" xlink:href="#bf"/><radialGradient id="bu" cx="327.30651" cy="213.49452" r="6.49689" xlink:href="#bg"/><radialGradient id="bv" cx="327.30651" cy="213.49452" r="5.41414" xlink:href="#bh"/><radialGradient id="bw" cx="337.04965" cy="285.13468" r="9.74535" xlink:href="#bi"/><radialGradient id="bx" cx="334.69147" cy="267.7942" r="1.10156" gradientUnits="userSpaceOnUse"><stop offset="0.1"/><stop offset="0.2047" stop-color="#1c1713"/><stop offset="0.35581" stop-color="#3e3229"/><stop offset="0.51018" stop-color="#59473b"/><stop offset="0.66721" stop-color="#6c5647"/><stop offset="0.82838" stop-color="#775f4f"/><stop offset="1" stop-color="#7b6251"/></radialGradient><radialGradient id="by" cx="328.27307" cy="220.60181" r="2.14261" gradientUnits="userSpaceOnUse"><stop offset="0.1" stop-color="#393a2f"/><stop offset="0.30165" stop-color="#21221c"/><stop offset="0.52494" stop-color="#0f0f0c"/><stop offset="0.75495" stop-color="#040403"/><stop offset="1"/></radialGradient><radialGradient id="bz" cx="331.22748" cy="242.32596" r="1.97926" gradientUnits="userSpaceOnUse"><stop offset="0.1"/><stop offset="0.11031" stop-color="#010100"/><stop offset="0.32262" stop-color="#1c0e05"/><stop offset="0.53968" stop-color="#2f1808"/><stop offset="0.76257" stop-color="#3a1e09"/><stop offset="1" stop-color="#3e200a"/></radialGradient><radialGradient id="ca" cx="329.79056" cy="231.76037" r="2.49165" gradientUnits="userSpaceOnUse"><stop offset="0.1" stop-color="#7e9c95"/><stop offset="0.15454" stop-color="#6e8983"/><stop offset="0.2879" stop-color="#4d5f5b"/><stop offset="0.42427" stop-color="#313d3a"/><stop offset="0.56231" stop-color="#1c2221"/><stop offset="0.70265" stop-color="#0c0f0e"/><stop offset="0.84664" stop-color="#030404"/><stop offset="1"/></radialGradient><radialGradient id="cb" cx="336.34761" cy="279.97214" r="0.70539" gradientUnits="userSpaceOnUse"><stop offset="0.1"/><stop offset="0.22259" stop-color="#1b1722"/><stop offset="0.37027" stop-color="#352e44"/><stop offset="0.52121" stop-color="#4a3f5f"/><stop offset="0.67469" stop-color="#584c72"/><stop offset="0.8322" stop-color="#61547d"/><stop offset="1" stop-color="#645681"/></radialGradient></defs><g class="c"><ellipse class="d" cx="267.00138" cy="422.4073" rx="144.19211" ry="23.28088"/><path class="e" d="M399.689,403.29255,339.37083,176.152l.00787-66.2699c-17.75085,8.70907-35.47443,8.70911-59.73241,8.70911-25.04091,0-46.6847-3.005-56.99033-7.36688l-2.97677-3.17144.60953,68.81453L159.60326,403.29255a14.43621,14.43621,0,0,0,13.887,18.38H385.802A14.43608,14.43608,0,0,0,399.689,403.29255Z"/><path class="a" d="M408.23118,405.83932,343.05533,176.3494V105.46768c0,7.24792-28.38906,13.12353-63.409,13.12353s-63.409-5.87561-63.409-13.12353V176.3494L151.06109,405.83932a16.974,16.974,0,0,0,16.37043,21.46045H391.86075A16.974,16.974,0,0,0,408.23118,405.83932Z"/><g class="f"><path class="g" d="M401.22467,411.09726c0-12.68914-54.23418-24.21532-121.13542-24.21532S158.95384,398.88988,158.95384,411.579s11.8099,10.1263,121.13541,11.13877C383.85468,423.67876,401.22467,423.78639,401.22467,411.09726Z"/><path class="h" d="M303.62143,192.67831c-2.80176-.31816-5.59682-.69123-8.39593-1.03118a108.8421,108.8421,0,0,0-15.01056-1.03273c-2.193.03846-4.39639.36007-6.55272.20572a62.46431,62.46431,0,0,0-7.14072-.04066c-9.72284.41819-19.28128,2.38686-28.77975,4.37841q-4.31316.90434-8.64184,1.73241c-6.01064,1.14982-12.15182,2.21117-17.73607,4.82648-1.48031.69328-2.55342,1.04806-3.08164,2.53739-.19881.56055-.33629,1.15159-.503,1.72256l-4.59562,15.73722-6.853,23.46722-8.36328,28.63912-9.12658,31.253L169.69788,336.382l-8.41213,28.80639-6.93436,23.746-4.7096,16.1275-1.73781,5.95094,7.5377,20.20928H412.81392v-42.6524l-61.93708-184.68c-5.89651-2.38476-11.9462-4.22669-17.94789-6.30536-5.53008-1.91534-11.61122-2.03905-17.2549-3.68935C311.969,192.8115,307.4675,193.11507,303.62143,192.67831Z"/></g><ellipse class="i" cx="279.64625" cy="105.46766" rx="63.4091" ry="13.12351"/><path class="b" d="M393.374,399.72564l-55.61756-195.836h-.60171c0,6.98613-25.74021,12.64944-57.49231,12.64944s-57.49231-5.66331-57.49231-12.64944h-.63424L165.91859,399.72572A13.67652,13.67652,0,0,0,179.075,417.13879H380.21762A13.67684,13.67684,0,0,0,393.374,399.72564Z"/><g class="j"><path class="k" d="M257.3779,262.70661c-28.84181,4.469-58.13244,6.29623-86.57756,12.83056s-56.625,18.32337-76.76012,39.4515c-11.66189,12.237-20.57246,28.8161-17.95551,45.51627,2.05122,13.09,11.00468,24.3366,21.93309,31.82828s23.74412,11.69317,36.51424,15.22583c74.25135,20.54052,156.51867,20.7286,225.64542-13.28124,13.90016-6.83877,27.29-15.09294,38.188-26.10276s19.21421-24.981,21.62539-40.28358c2.48517-15.77217-1.48981-32.23248-9.715-45.91764a92.18474,92.18474,0,0,0-27.27322-28.22758,89.44615,89.44615,0,0,0-16.51159-8.80486c-7.67978-3.18382-12.1877-7.99135-20.31777-4.91245-9.51759,3.60435-19.31018,6.61892-29.08109,9.451A476.88132,476.88132,0,0,1,257.3779,262.70661Z"/><path class="l" d="M279.49888,314.212c-28.84182,4.469-58.13245,6.29623-86.57757,12.83056s-56.625,18.32337-76.76011,39.4515c-11.66189,12.237-20.57246,28.8161-17.95551,45.51627,2.05122,13.09,11.00468,24.3366,21.93309,31.82828s23.74412,11.69317,36.51424,15.22583c74.25135,20.54052,156.51867,20.7286,225.64542-13.28124,13.90016-6.83877,27.29-15.09294,38.188-26.10277s19.21421-24.981,21.62539-40.28357c2.48517-15.77217-1.48981-32.23248-9.715-45.91764a92.18474,92.18474,0,0,0-27.27322-28.22758,89.44592,89.44592,0,0,0-16.5116-8.80486c-7.67977-3.18382-12.18769-7.99135-20.31776-4.91245-9.51759,3.60435-19.31018,6.61892-29.08109,9.451A476.88171,476.88171,0,0,1,279.49888,314.212Z"/></g><ellipse class="m" cx="279.66246" cy="203.88964" rx="57.49233" ry="12.64945"/><g class="n"><circle class="o" cx="250.30976" cy="219.98009" r="21.94151"/><ellipse class="p" cx="248.76617" cy="207.88631" rx="14.66347" ry="8.84042" transform="translate(-15.03757 19.44823) rotate(-4.34581)"/><circle class="q" cx="261.98261" cy="208.96348" r="1.79686"/><circle class="r" cx="264.78984" cy="211.32318" r="0.65147"/><circle class="s" cx="240.67849" cy="234.83539" r="0.65147"/><path class="t" d="M232.852,221.58174c-.2153,4.23543,2.3335,10.34467,6.39729,12.13752"/><circle class="u" cx="260.18575" cy="231.91361" r="1.99438"/></g><g class="v"><circle class="w" cx="310.48728" cy="189.64326" r="12.40003"/><ellipse class="x" cx="309.61494" cy="182.80857" rx="8.28692" ry="4.99608" transform="translate(-12.96233 23.987) rotate(-4.34581)"/><circle class="y" cx="317.08408" cy="183.41733" r="1.01548"/><circle class="z" cx="318.67056" cy="184.75089" r="0.36817"/><circle class="aa" cx="305.04426" cy="198.03859" r="0.36817"/><path class="ab" d="M300.62119,190.54841c-.12167,2.39362,1.31875,5.84619,3.61537,6.8594"/><circle class="ac" cx="316.0686" cy="196.38737" r="1.1271"/></g><g class="v"><circle class="ad" cx="284.21182" cy="161.72194" r="6.59679"/><ellipse class="ae" cx="283.74773" cy="158.0859" rx="4.40863" ry="2.6579" transform="translate(-11.16331 21.95581) rotate(-4.34581)"/><circle class="af" cx="287.7213" cy="158.40976" r="0.54023"/><circle class="ag" cx="288.56531" cy="159.11921" r="0.19587"/><circle class="ah" cx="281.31614" cy="166.18824" r="0.19587"/><path class="ai" d="M278.96307,162.20348a4.1084,4.1084,0,0,0,1.92337,3.64919"/><circle class="aj" cx="287.18107" cy="165.3098" r="0.59962"/></g><g class="v"><circle class="ak" cx="283.60718" cy="261.36616" r="14.48007"/><ellipse class="al" cx="282.5885" cy="253.38499" rx="9.67701" ry="5.83414" transform="translate(-18.38804 22.14196) rotate(-4.34581)"/><circle class="am" cx="291.31055" cy="254.09585" r="1.18582"/><circle class="an" cx="293.16316" cy="255.65311" r="0.42993"/><circle class="ao" cx="277.25112" cy="271.16976" r="0.42993"/><path class="ap" d="M272.0861,262.42314c-.14208,2.79514,1.54,6.82686,4.22182,8.01"/><circle class="aq" cx="290.12474" cy="269.24156" r="1.31617"/></g><g class="v"><circle class="ar" cx="255.84268" cy="301.00492" r="7.70337"/><ellipse class="as" cx="255.30074" cy="296.75895" rx="5.14815" ry="3.10376" transform="translate(-21.7532 20.19891) rotate(-4.34581)"/><circle class="at" cx="259.94086" cy="297.13713" r="0.63085"/><circle class="au" cx="260.92644" cy="297.96559" r="0.22872"/><circle class="av" cx="252.46126" cy="306.22042" r="0.22872"/><path class="aw" d="M249.71348,301.56724c-.07558,1.487.81926,3.63187,2.246,4.26132"/><circle class="ax" cx="259.31001" cy="305.19462" r="0.7002"/></g><g class="ay"><path class="az" d="M343.04919,287.10473a6.22823,6.22823,0,0,1-6.087-4.945l-20.168-95.75737a6.228,6.228,0,0,1-.13378-1.28308v-57.658a6.22685,6.22685,0,1,1,12.45371,0v57.00979l20.03418,95.12253a6.23268,6.23268,0,0,1-6.09916,7.51114Z"/></g><g class="ba"><path class="bb" d="M191.12824,394.03611a6.85622,6.85622,0,0,1-6.63063-8.59051L224.74475,232.105a6.84962,6.84962,0,0,1,13.25031,3.47829L197.74792,388.92388A6.85073,6.85073,0,0,1,191.12824,394.03611Z"/></g><circle class="bc" cx="347.22462" cy="294.77487" r="6.23005"/><circle class="bd" cx="329.11737" cy="185.11906" r="6.23005"/><circle class="be" cx="215.99249" cy="284.84921" r="19.98648"/><circle class="bf" cx="193.97167" cy="354.71801" r="0.6662"/><circle class="bg" cx="192.26172" cy="360.14325" r="0.6662"/><circle class="bh" cx="193.21095" cy="357.13152" r="4.99665"/><line class="bi" x1="211.24634" y1="299.90799" x2="192.26172" y2="360.14325"/><circle class="bj" cx="211.24634" cy="299.90799" r="13.32427"/><circle class="bk" cx="211.24634" cy="299.90799" r="6.66221"/><circle class="bl" cx="211.24634" cy="299.90799" r="5.55184"/><polyline class="bm" points="211.246 299.908 207.661 321.497 211.246 299.908 214.832 278.319 211.246 299.908 189.658 296.323 211.246 299.908 232.835 303.493 211.246 299.908 214.191 328.046 211.246 299.908 208.302 271.77 211.246 299.908 183.108 302.852 211.246 299.908 239.385 296.964 211.246 299.908 225.108 322.995 211.246 299.908 197.384 276.821 211.246 299.908 188.16 313.77 211.246 299.908 234.333 286.046 211.246 299.908 206.955 318.218 211.246 299.908 215.537 281.598 211.246 299.908 192.936 295.617 211.246 299.908 229.556 304.199 211.246 299.908 211.081 302.127 211.246 299.908 211.412 297.689 211.246 299.908 209.027 299.742 211.246 299.908 213.466 300.074 211.246 299.908 197.021 324.485 211.246 299.908 225.471 275.331 211.246 299.908 186.67 285.683 211.246 299.908 235.823 314.133 211.246 299.908 205.156 307.672 211.246 299.908 217.337 292.143 211.246 299.908 203.482 293.818 211.246 299.908 219.011 305.998 211.246 299.908 214.39 306.591 211.246 299.908 208.102 293.225 211.246 299.908 204.563 303.052 211.246 299.908 217.929 296.764 211.246 299.908 236.243 321.825 211.246 299.908 186.25 277.991 211.246 299.908 189.329 324.905 211.246 299.908 233.163 274.911 211.246 299.908 216.777 327.03 211.246 299.908 205.716 272.786 211.246 299.908 184.125 305.438 211.246 299.908 238.368 294.378 211.246 299.908 216.265 331.668 211.246 299.908 206.228 268.148 211.246 299.908 179.486 304.926 211.246 299.908 243.006 294.89 211.246 299.908 213.859 305.699 211.246 299.908 208.634 294.117 211.246 299.908 205.456 302.521 211.246 299.908 217.037 297.295 211.246 299.908 228.372 315.276 211.246 299.908 194.121 284.54 211.246 299.908 195.879 317.033 211.246 299.908 226.614 282.783 211.246 299.908 202.778 323.012 211.246 299.908 219.715 276.804 211.246 299.908 188.143 291.439 211.246 299.908 234.35 308.377 211.246 299.908 212.511 319.997 211.246 299.908 209.982 279.819 211.246 299.908 191.157 301.172 211.246 299.908 231.335 298.644"/><circle class="bn" cx="192.26172" cy="360.14325" r="9.9933"/><circle class="bo" cx="195.9279" cy="348.51145" r="2.8404"/><circle class="bp" cx="205.82368" cy="317.11348" r="1.58647"/><circle class="bq" cx="199.78655" cy="336.26844" r="1.05071"/><circle class="br" cx="198.83124" cy="339.29932" r="1.47759"/><circle class="bs" cx="196.11459" cy="347.91863" r="2.74344"/><circle class="bt" cx="232.83934" cy="115.01492" r="10.30064"/><circle class="bu" cx="324.87079" cy="195.58448" r="19.49085"/><circle class="bv" cx="336.12353" cy="278.32581" r="0.64971"/><circle class="bw" cx="337.04965" cy="285.13468" r="0.64971"/><circle class="bx" cx="336.56257" cy="281.55265" r="4.87267"/><line class="bi" x1="327.30651" y1="213.49452" x2="337.04965" y2="285.13468"/><circle class="by" cx="327.30651" cy="213.49452" r="12.99396"/><circle class="bz" cx="327.30651" cy="213.49452" r="6.49689"/><circle class="ca" cx="327.30651" cy="213.49452" r="5.41414"/><polyline class="bm" points="327.307 213.495 332.153 213.668 327.307 213.495 322.46 213.321 327.307 213.495 327.133 218.341 327.307 213.495 327.48 208.648 327.307 213.495 335.4 236.528 327.307 213.495 319.213 190.461 327.307 213.495 304.273 221.588 327.307 213.495 350.34 205.401 327.307 213.495 336.702 225.873 327.307 213.495 317.911 201.116 327.307 213.495 314.928 222.89 327.307 213.495 339.685 204.1 327.307 213.495 330.005 226.399 327.307 213.495 324.608 200.59 327.307 213.495 314.402 216.193 327.307 213.495 340.211 210.796 327.307 213.495 332.496 216.999 327.307 213.495 322.117 209.99 327.307 213.495 323.802 218.684 327.307 213.495 330.811 208.306 327.307 213.495 341.361 223.286 327.307 213.495 313.252 203.703 327.307 213.495 317.515 227.549 327.307 213.495 337.098 199.44 327.307 213.495 341.969 214.908 327.307 213.495 312.644 212.081 327.307 213.495 325.893 228.158 327.307 213.495 328.72 198.832 327.307 213.495 332.925 231.216 327.307 213.495 321.688 195.774 327.307 213.495 309.586 219.113 327.307 213.495 345.028 207.876 327.307 213.495 328.834 214.225 327.307 213.495 325.779 212.764 327.307 213.495 326.576 215.022 327.307 213.495 328.037 211.967 327.307 213.495 348.927 230.043 327.307 213.495 305.686 196.946 327.307 213.495 310.758 235.114 327.307 213.495 343.855 191.875 327.307 213.495 329.075 230.611 327.307 213.495 325.538 196.378 327.307 213.495 310.19 215.262 327.307 213.495 344.423 211.727 327.307 213.495 351.612 217.025 327.307 213.495 303.001 209.964 327.307 213.495 323.776 237.8 327.307 213.495 330.837 189.189 327.307 213.495 327.513 244.526 327.307 213.495 327.1 182.463 327.307 213.495 296.275 213.701 327.307 213.495 358.338 213.288 327.307 213.495 335.391 232.673 327.307 213.495 319.222 194.316 327.307 213.495 308.128 221.579 327.307 213.495 346.485 205.41 327.307 213.495 333.328 232.696 327.307 213.495 321.285 194.293 327.307 213.495 308.105 219.516 327.307 213.495 346.508 207.473"/><circle class="cb" cx="337.04965" cy="285.13468" r="9.74535"/><circle class="cc" cx="334.69147" cy="267.7942" r="1.10156"/><circle class="cd" cx="328.27307" cy="220.60181" r="2.14261"/><circle class="ce" cx="331.22748" cy="242.32596" r="1.97926"/><circle class="cf" cx="329.79056" cy="231.76037" r="2.49165"/><circle class="cg" cx="336.34761" cy="279.97214" r="0.70539"/></g></svg>