<svg xmlns="http://www.w3.org/2000/svg" xmlns:xlink="http://www.w3.org/1999/xlink" viewBox="0 0 523.92572 512.20828"><defs><style>.a,.i{opacity:0.72;}.a{fill:url(#a);}.b,.ba,.k,.l,.m{opacity:0.8;}.b{fill:url(#b);}.c{isolation:isolate;}.d{fill:#683c11;fill-opacity:0.51;}.e,.g{mix-blend-mode:multiply;}.e{fill:url(#c);}.f{clip-path:url(#e);}.g{fill:url(#f);}.h{opacity:0.42;fill:url(#g);}.i{fill:url(#h);}.j{clip-path:url(#j);}.k{fill:url(#k);}.l{fill:url(#l);}.bm,.m{stroke-miterlimit:10;}.m,.t{stroke-width:1.24537px;}.m{fill:url(#m);stroke:url(#n);}.bc,.bd,.bk,.bn,.bz,.cb,.n{opacity:0.5;}.o{fill:url(#o);}.aa,.ab,.ae,.ah,.ai,.al,.ao,.ap,.as,.av,.aw,.p,.s,.t,.x{mix-blend-mode:soft-light;}.p{fill:url(#p);}.q{fill:url(#q);}.r{fill:url(#r);}.s{fill:url(#s);}.ab,.ai,.ap,.aw,.bi,.bm,.t{fill:none;}.ab,.ai,.ap,.aw,.t{stroke-linecap:round;stroke-linejoin:round;}.t{stroke:url(#t);}.u{fill:url(#u);}.v{opacity:0.3;}.w{fill:url(#v);}.x{fill:url(#w);}.y{fill:url(#x);}.z{fill:url(#y);}.aa{fill:url(#z);}.ab{stroke-width:0.70381px;stroke:url(#aa);}.ac{fill:url(#ab);}.ad{fill:url(#ac);}.ae{fill:url(#ad);}.af{fill:url(#ae);}.ag{fill:url(#af);}.ah{fill:url(#ag);}.ai{stroke-width:0.37443px;stroke:url(#ah);}.aj{fill:url(#ai);}.ak{fill:url(#aj);}.al{fill:url(#ak);}.am{fill:url(#al);}.an{fill:url(#am);}.ao{fill:url(#an);}.ap{stroke-width:0.82187px;stroke:url(#ao);}.aq{fill:url(#ap);}.ar{fill:url(#aq);}.as{fill:url(#ar);}.at{fill:url(#as);}.au{fill:url(#at);}.av{fill:url(#au);}.aw{stroke-width:0.43723px;stroke:url(#av);}.ax{fill:url(#aw);}.ay{opacity:0.54;}.az{fill:url(#ax);}.ba{mix-blend-mode:hard-light;}.bb{fill:url(#ay);}.bc{fill:url(#az);}.bd{fill:url(#ba);}.be,.bu{opacity:0.25;}.be,.bf,.bg,.bh,.bj,.bk,.bl,.bm,.bn,.bo,.bp,.bq,.br,.bs,.bu,.bv,.bw,.bx,.by,.bz,.ca,.cb,.cc,.cd,.ce,.cf,.cg{mix-blend-mode:screen;}.be{fill:url(#bb);}.bf{fill:url(#bc);}.bg{fill:url(#bd);}.bh,.bx{opacity:0.2;}.bh{fill:url(#be);}.bj,.by{opacity:0.15;}.bj{fill:url(#bf);}.bk{fill:url(#bg);}.bl{fill:url(#bh);}.bm{stroke:#fff;stroke-width:2.49074px;opacity:0.03;}.bn{fill:url(#bi);}.bo{fill:url(#bj);}.bp{fill:url(#bk);}.bq{fill:url(#bl);}.br{fill:url(#bm);}.bs{fill:url(#bn);}.bt{fill:url(#bo);}.bu{fill:url(#bp);}.bv{fill:url(#bq);}.bw{fill:url(#br);}.bx{fill:url(#bs);}.by{fill:url(#bt);}.bz{fill:url(#bu);}.ca{fill:url(#bv);}.cb{fill:url(#bw);}.cc{fill:url(#bx);}.cd{fill:url(#by);}.ce{fill:url(#bz);}.cf{fill:url(#ca);}.cg{fill:url(#cb);}</style><linearGradient id="a" x1="212.29414" y1="266.34105" x2="343.05538" y2="266.34105" gradientUnits="userSpaceOnUse"><stop offset="0" stop-color="#f5fbff"/><stop offset="0.62567" stop-color="#e9f1f5"/><stop offset="1" stop-color="#c5d9e0"/></linearGradient><linearGradient id="b" x1="350.47532" y1="436.99842" x2="195.77764" y2="231.96848" gradientUnits="userSpaceOnUse"><stop offset="0" stop-color="#0756bb"/><stop offset="1" stop-color="#3991f0"/></linearGradient><linearGradient id="c" x1="314.60134" y1="122.51466" x2="282.48913" y2="384.06631" gradientUnits="userSpaceOnUse"><stop offset="0" stop-color="#bfc4c7"/><stop offset="1" stop-color="#b1c3c9"/></linearGradient><clipPath id="e"><path class="a" d="M408.23159,405.79664,343.05574,176.30673V105.425c0,7.24792-28.389,13.12352-63.409,13.12352s-63.409-5.8756-63.409-13.12352v70.88172L151.06151,405.79664a16.974,16.974,0,0,0,16.37043,21.46046H391.86116A16.974,16.974,0,0,0,408.23159,405.79664Z"/></clipPath><linearGradient id="f" x1="221.84433" y1="261.5672" x2="298.08587" y2="458.46926" gradientUnits="userSpaceOnUse"><stop offset="0" stop-color="#f5f5f5"/><stop offset="1" stop-color="#c3d1d6"/></linearGradient><linearGradient id="g" x1="494.21583" y1="310.87064" x2="264.71607" y2="310.87064" xlink:href="#b"/><linearGradient id="h" x1="279.64666" y1="79.17699" x2="279.64666" y2="118.27792" xlink:href="#a"/><clipPath id="j"><path class="b" d="M393.3744,399.683,337.75683,203.847h-.60171c0,6.98614-25.7402,12.64945-57.49231,12.64945S222.1705,210.8331,222.1705,203.847h-.63423L165.919,399.683a13.67652,13.67652,0,0,0,13.15636,17.41308H380.218A13.67684,13.67684,0,0,0,393.3744,399.683Z"/></clipPath><linearGradient id="k" x1="526.76687" y1="330.31362" x2="227.79676" y2="330.31362" xlink:href="#b"/><linearGradient id="l" x1="97.74678" y1="381.81904" x2="442.84585" y2="381.81904" xlink:href="#b"/><linearGradient id="m" x1="381.76843" y1="203.84696" x2="245.52177" y2="203.84696" xlink:href="#b"/><linearGradient id="n" x1="221.54786" y1="203.84696" x2="337.77789" y2="203.84696" gradientUnits="userSpaceOnUse"><stop offset="0" stop-color="#2685ff"/><stop offset="1" stop-color="#3991f0"/></linearGradient><radialGradient id="o" cx="250.31018" cy="219.93742" r="20.84617" gradientTransform="matrix(0.2537, -0.96728, 0.95587, 0.2507, -23.42513, 406.91904)" gradientUnits="userSpaceOnUse"><stop offset="0" stop-color="#3582c7" stop-opacity="0.8"/><stop offset="0.29921" stop-color="#3985ca" stop-opacity="0.80046"/><stop offset="0.52418" stop-color="#448fd2" stop-opacity="0.80193"/><stop offset="0.72493" stop-color="#58a0e0" stop-opacity="0.8044"/><stop offset="0.91041" stop-color="#74b8f3" stop-opacity="0.80787"/><stop offset="1" stop-color="#85c7ff" stop-opacity="0.81"/></radialGradient><radialGradient id="p" cx="-7.92556" cy="847.71716" r="13.50603" gradientTransform="translate(258.62718 -445.81048) scale(1.24415 0.77108)" gradientUnits="userSpaceOnUse"><stop offset="0" stop-color="#527deb"/><stop offset="0.37881" stop-color="#527deb" stop-opacity="0.99203"/><stop offset="0.51527" stop-color="#537eea" stop-opacity="0.96313"/><stop offset="0.61253" stop-color="#557fea" stop-opacity="0.91281"/><stop offset="0.69121" stop-color="#5781e9" stop-opacity="0.8409"/><stop offset="0.75863" stop-color="#5a83e7" stop-opacity="0.74715"/><stop offset="0.81834" stop-color="#5e86e5" stop-opacity="0.63133"/><stop offset="0.87231" stop-color="#6289e3" stop-opacity="0.49335"/><stop offset="0.92196" stop-color="#678de1" stop-opacity="0.33264"/><stop offset="0.96609" stop-color="#6d91de" stop-opacity="0.15775"/><stop offset="1" stop-color="#7295dc" stop-opacity="0"/></radialGradient><radialGradient id="q" cx="261.98302" cy="208.92081" r="1.70715" gradientTransform="matrix(0.2537, -0.96728, 0.95587, 0.2507, -4.18317, 409.95529)" gradientUnits="userSpaceOnUse"><stop offset="0" stop-color="#c1cdeb"/><stop offset="0.37881" stop-color="#c0cdeb" stop-opacity="0.99203"/><stop offset="0.51527" stop-color="#becbea" stop-opacity="0.96313"/><stop offset="0.61253" stop-color="#bac8ea" stop-opacity="0.91281"/><stop offset="0.69121" stop-color="#b4c4e9" stop-opacity="0.8409"/><stop offset="0.75863" stop-color="#adbfe7" stop-opacity="0.74715"/><stop offset="0.81834" stop-color="#a4b8e5" stop-opacity="0.63133"/><stop offset="0.87231" stop-color="#99b1e3" stop-opacity="0.49335"/><stop offset="0.92196" stop-color="#8ca8e1" stop-opacity="0.33264"/><stop offset="0.96609" stop-color="#7e9ede" stop-opacity="0.15775"/><stop offset="1" stop-color="#7295dc" stop-opacity="0"/></radialGradient><radialGradient id="r" cx="264.79025" cy="211.28051" r="0.61895" gradientTransform="matrix(0.2537, -0.96728, 0.95587, 0.2507, -4.3437, 414.43879)" gradientUnits="userSpaceOnUse"><stop offset="0" stop-color="#c1cdeb"/><stop offset="0.22496" stop-color="#c0cceb" stop-opacity="0.98901"/><stop offset="0.3644" stop-color="#bdcaea" stop-opacity="0.95275"/><stop offset="0.48062" stop-color="#b8c7e9" stop-opacity="0.89088"/><stop offset="0.58411" stop-color="#b1c2e8" stop-opacity="0.80322"/><stop offset="0.67914" stop-color="#a8bce6" stop-opacity="0.68961"/><stop offset="0.7679" stop-color="#9db4e4" stop-opacity="0.55"/><stop offset="0.85188" stop-color="#90abe2" stop-opacity="0.38414"/><stop offset="0.92991" stop-color="#82a0df" stop-opacity="0.19725"/><stop offset="1" stop-color="#7295dc" stop-opacity="0"/></radialGradient><radialGradient id="s" cx="240.6789" cy="234.79272" r="0.61895" gradientTransform="matrix(0.2537, -0.96728, 0.95587, 0.2507, -44.81276, 408.73387)" xlink:href="#r"/><radialGradient id="t" cx="236.04472" cy="227.60782" r="5.45098" gradientTransform="matrix(1, 0, 0, 1, 0, 0)" xlink:href="#q"/><radialGradient id="u" cx="260.18617" cy="231.87094" r="2.48527" gradientTransform="translate(0 33.68395) scale(1 0.85473)" gradientUnits="userSpaceOnUse"><stop offset="0" stop-color="#527deb"/><stop offset="0.09168" stop-color="#537eeb" stop-opacity="0.96822"/><stop offset="0.22975" stop-color="#5680e9" stop-opacity="0.88033"/><stop offset="0.39704" stop-color="#5a83e7" stop-opacity="0.73641"/><stop offset="0.58721" stop-color="#6188e4" stop-opacity="0.53628"/><stop offset="0.79369" stop-color="#698ee0" stop-opacity="0.2836"/><stop offset="1" stop-color="#7295dc" stop-opacity="0"/></radialGradient><radialGradient id="v" cx="310.4877" cy="189.60059" r="11.78101" gradientTransform="matrix(0.2537, -0.96728, 0.95587, 0.2507, 50.48368, 442.39652)" xlink:href="#o"/><radialGradient id="w" cx="42.36905" cy="825.10978" r="7.6328" gradientTransform="translate(256.90184 -453.45622) scale(1.24415 0.77108)" xlink:href="#p"/><radialGradient id="x" cx="317.08449" cy="183.37465" r="0.96478" gradientTransform="matrix(0.2537, -0.96728, 0.95587, 0.2507, 61.35809, 444.11243)" xlink:href="#q"/><radialGradient id="y" cx="318.67097" cy="184.70821" r="0.34979" gradientTransform="matrix(0.2537, -0.96728, 0.95587, 0.2507, 61.26737, 446.64623)" xlink:href="#r"/><radialGradient id="z" cx="305.04468" cy="197.99591" r="0.34979" gradientTransform="matrix(0.2537, -0.96728, 0.95587, 0.2507, 38.39667, 443.42215)" xlink:href="#r"/><radialGradient id="aa" cx="302.42571" cy="193.93544" r="3.08057" gradientTransform="matrix(1, 0, 0, 1, 0, 0)" xlink:href="#q"/><radialGradient id="ab" cx="316.06902" cy="196.3447" r="1.40453" gradientTransform="translate(0 28.52305) scale(1 0.85473)" xlink:href="#u"/><radialGradient id="ac" cx="284.21223" cy="161.67927" r="6.26748" gradientTransform="matrix(0.2537, -0.96728, 0.95587, 0.2507, 57.56347, 396.05938)" xlink:href="#o"/><radialGradient id="ad" cx="23.14354" cy="795.61097" r="4.06064" gradientTransform="translate(254.95408 -455.43307) scale(1.24415 0.77108)" xlink:href="#p"/><radialGradient id="ae" cx="287.72172" cy="158.36709" r="0.51326" gradientTransform="matrix(0.2537, -0.96728, 0.95587, 0.2507, 63.34863, 396.97224)" xlink:href="#q"/><radialGradient id="af" cx="288.56572" cy="159.07654" r="0.18609" gradientTransform="matrix(0.2537, -0.96728, 0.95587, 0.2507, 63.30037, 398.32022)" xlink:href="#r"/><radialGradient id="ag" cx="281.31656" cy="166.14557" r="0.18609" gradientTransform="matrix(0.2537, -0.96728, 0.95587, 0.2507, 51.1332, 396.60501)" xlink:href="#r"/><radialGradient id="ah" cx="279.92327" cy="163.98541" r="1.63886" gradientTransform="matrix(1, 0, 0, 1, 0, 0)" xlink:href="#q"/><radialGradient id="ai" cx="287.18149" cy="165.26713" r="0.74721" gradientTransform="translate(0 24.0084) scale(1 0.85473)" xlink:href="#u"/><radialGradient id="aj" cx="283.60759" cy="261.32348" r="13.75721" gradientTransform="matrix(0.2537, -0.96728, 0.95587, 0.2507, -38.13501, 470.13747)" xlink:href="#o"/><radialGradient id="ak" cx="16.4102" cy="900.84796" r="8.91317" gradientTransform="translate(262.17214 -441.27967) scale(1.24415 0.77108)" xlink:href="#p"/><radialGradient id="al" cx="291.31097" cy="254.05318" r="1.12662" gradientTransform="matrix(0.2537, -0.96728, 0.95587, 0.2507, -25.43647, 472.14121)" xlink:href="#q"/><radialGradient id="am" cx="293.16357" cy="255.61044" r="0.40847" gradientTransform="matrix(0.2537, -0.96728, 0.95587, 0.2507, -25.54241, 475.10005)" xlink:href="#r"/><radialGradient id="an" cx="277.25153" cy="271.12708" r="0.40847" gradientTransform="matrix(0.2537, -0.96728, 0.95587, 0.2507, -52.24955, 471.33515)" xlink:href="#r"/><radialGradient id="ao" cx="274.19325" cy="266.38549" r="3.59732" gradientTransform="matrix(1, 0, 0, 1, 0, 0)" xlink:href="#q"/><radialGradient id="ap" cx="290.12515" cy="269.19889" r="1.64013" gradientTransform="translate(0 39.10659) scale(1 0.85473)" xlink:href="#u"/><radialGradient id="aq" cx="255.84309" cy="300.96225" r="7.31881" gradientTransform="matrix(0.2537, -0.96728, 0.95587, 0.2507, -96.74536, 472.98246)" xlink:href="#o"/><radialGradient id="ar" cx="-8.10129" cy="946.49724" r="4.74179" gradientTransform="translate(265.38039 -433.10476) scale(1.24415 0.77108)" xlink:href="#p"/><radialGradient id="as" cx="259.94127" cy="297.09446" r="0.59936" gradientTransform="matrix(0.2537, -0.96728, 0.95587, 0.2507, -89.98976, 474.04845)" xlink:href="#q"/><radialGradient id="at" cx="260.92685" cy="297.92292" r="0.21731" gradientTransform="matrix(0.2537, -0.96728, 0.95587, 0.2507, -90.04612, 475.62255)" xlink:href="#r"/><radialGradient id="au" cx="252.46168" cy="306.17775" r="0.21731" gradientTransform="matrix(0.2537, -0.96728, 0.95587, 0.2507, -104.25428, 473.61963)" xlink:href="#r"/><radialGradient id="av" cx="250.83468" cy="303.65523" r="1.91377" gradientTransform="matrix(1, 0, 0, 1, 0, 0)" xlink:href="#q"/><radialGradient id="aw" cx="259.31042" cy="305.15195" r="0.87255" gradientTransform="translate(0 44.3295) scale(1 0.85473)" xlink:href="#u"/><radialGradient id="ax" cx="329.10667" cy="187.69716" r="96.86305" gradientTransform="translate(304.7999 -141.23092) rotate(81.99169) scale(1 0.11591)" gradientUnits="userSpaceOnUse"><stop offset="0" stop-color="#e6f3ff"/><stop offset="1" stop-color="#b9cbf0" stop-opacity="0"/></radialGradient><radialGradient id="ay" cx="211.24675" cy="310.47172" r="79.87596" gradientTransform="matrix(0.2537, -0.96728, 0.15236, 0.03996, 110.3518, 502.40091)" xlink:href="#ax"/><radialGradient id="az" cx="347.37694" cy="294.75909" r="5.63016" gradientTransform="matrix(1, 0, 0, 1, 0, 0)" xlink:href="#ax"/><radialGradient id="ba" cx="329.26968" cy="185.10328" r="5.63016" gradientTransform="matrix(1, 0, 0, 1, 0, 0)" xlink:href="#ax"/><radialGradient id="bb" cx="215.9929" cy="284.80654" r="19.98648" gradientUnits="userSpaceOnUse"><stop offset="0.1"/><stop offset="0.11244" stop-color="#080602"/><stop offset="0.16172" stop-color="#231b08"/><stop offset="0.21838" stop-color="#392c0d"/><stop offset="0.28458" stop-color="#4a3910"/><stop offset="0.36644" stop-color="#554213"/><stop offset="0.48125" stop-color="#5c4815"/><stop offset="0.8" stop-color="#5e4915"/><stop offset="1"/></radialGradient><radialGradient id="bc" cx="193.97209" cy="354.67534" r="0.6662" gradientUnits="userSpaceOnUse"><stop offset="0" stop-color="#d4e194"/><stop offset="0.05952" stop-color="#afba7a"/><stop offset="0.13651" stop-color="#868f5e"/><stop offset="0.21955" stop-color="#626845"/><stop offset="0.30759" stop-color="#44482f"/><stop offset="0.40211" stop-color="#2b2e1e"/><stop offset="0.50556" stop-color="#181911"/><stop offset="0.62249" stop-color="#0a0b07"/><stop offset="0.76429" stop-color="#020302"/><stop offset="1"/></radialGradient><radialGradient id="bd" cx="192.26213" cy="360.10058" r="0.6662" xlink:href="#bc"/><radialGradient id="be" cx="193.21137" cy="357.08885" r="4.99665" gradientUnits="userSpaceOnUse"><stop offset="0.05"/><stop offset="0.09242" stop-color="#040a03"/><stop offset="0.29802" stop-color="#183411"/><stop offset="0.48337" stop-color="#25531c"/><stop offset="0.64031" stop-color="#2e6622"/><stop offset="0.75" stop-color="#316d24"/><stop offset="0.78593" stop-color="#4f6e16"/><stop offset="0.83397" stop-color="#716f06"/><stop offset="0.86" stop-color="#7e6f00"/><stop offset="0.88764" stop-color="#7a6c00"/><stop offset="0.91229" stop-color="#706200"/><stop offset="0.93581" stop-color="#5d5200"/><stop offset="0.95863" stop-color="#443c00"/><stop offset="0.98074" stop-color="#231f00"/><stop offset="1"/></radialGradient><radialGradient id="bf" cx="211.24675" cy="299.86532" r="13.32427" gradientUnits="userSpaceOnUse"><stop offset="0" stop-color="#200"/><stop offset="0.73" stop-color="#984023"/><stop offset="1" stop-color="#200"/></radialGradient><radialGradient id="bg" cx="211.24675" cy="299.86532" r="6.66221" gradientUnits="userSpaceOnUse"><stop offset="0.15" stop-color="#fff"/><stop offset="0.20939" stop-color="#e5d3d3"/><stop offset="0.29044" stop-color="#c49c9e"/><stop offset="0.36051" stop-color="#ad7477"/><stop offset="0.41599" stop-color="#9e5c5f"/><stop offset="0.45" stop-color="#995356"/><stop offset="0.57175" stop-color="#6b3335"/><stop offset="0.69355" stop-color="#431718"/><stop offset="0.79053" stop-color="#2b0606"/><stop offset="0.85" stop-color="#200"/><stop offset="0.85727" stop-color="#260201"/><stop offset="0.8648" stop-color="#330704"/><stop offset="0.87246" stop-color="#471009"/><stop offset="0.8802" stop-color="#641d0f"/><stop offset="0.88801" stop-color="#8a2e18"/><stop offset="0.89577" stop-color="#b74223"/><stop offset="0.9" stop-color="#d34e29"/><stop offset="0.90254" stop-color="#c84927"/><stop offset="0.91417" stop-color="#9c361c"/><stop offset="0.92635" stop-color="#772514"/><stop offset="0.93893" stop-color="#58180c"/><stop offset="0.95205" stop-color="#400d07"/><stop offset="0.96594" stop-color="#2f0603"/><stop offset="0.98111" stop-color="#250101"/><stop offset="1" stop-color="#200"/></radialGradient><radialGradient id="bh" cx="211.24675" cy="299.86532" r="5.55184" gradientUnits="userSpaceOnUse"><stop offset="0.15" stop-color="#fff"/><stop offset="0.28237" stop-color="#c2c2c2"/><stop offset="0.42528" stop-color="#888"/><stop offset="0.5636" stop-color="#575757"/><stop offset="0.69361" stop-color="#313131"/><stop offset="0.81336" stop-color="#161616"/><stop offset="0.91921" stop-color="#060606"/><stop offset="1"/></radialGradient><radialGradient id="bi" cx="192.26213" cy="360.10058" r="9.9933" gradientUnits="userSpaceOnUse"><stop offset="0.64"/><stop offset="0.71799" stop-color="#000200"/><stop offset="0.74608" stop-color="#020902"/><stop offset="0.76609" stop-color="#051405"/><stop offset="0.78228" stop-color="#082509"/><stop offset="0.79598" stop-color="#0d3b0e"/><stop offset="0.8" stop-color="#0f4310"/><stop offset="0.8131" stop-color="#1e2c0a"/><stop offset="0.82975" stop-color="#2d1605"/><stop offset="0.84569" stop-color="#360901"/><stop offset="0.86" stop-color="#390400"/><stop offset="0.8715" stop-color="#250300"/><stop offset="0.88602" stop-color="#140100"/><stop offset="0.90412" stop-color="#090100"/><stop offset="0.92951" stop-color="#020000"/><stop offset="1"/></radialGradient><radialGradient id="bj" cx="195.92832" cy="348.46877" r="2.8404" gradientUnits="userSpaceOnUse"><stop offset="0.1"/><stop offset="0.24639" stop-color="#1b1103"/><stop offset="0.42619" stop-color="#362207"/><stop offset="0.61009" stop-color="#492e09"/><stop offset="0.79889" stop-color="#54350b"/><stop offset="1" stop-color="#58370b"/></radialGradient><radialGradient id="bk" cx="205.82409" cy="317.07081" r="1.58647" gradientUnits="userSpaceOnUse"><stop offset="0.1" stop-color="#192f1b"/><stop offset="0.2285" stop-color="#122214"/><stop offset="0.47516" stop-color="#080f09"/><stop offset="0.72928" stop-color="#020402"/><stop offset="1"/></radialGradient><radialGradient id="bl" cx="199.78696" cy="336.22577" r="1.05071" xlink:href="#bj"/><radialGradient id="bm" cx="198.83165" cy="339.25665" r="1.47759" gradientUnits="userSpaceOnUse"><stop offset="0.1"/><stop offset="0.29001" stop-color="#14160e"/><stop offset="0.51699" stop-color="#25291a"/><stop offset="0.75084" stop-color="#303422"/><stop offset="1" stop-color="#333824"/></radialGradient><radialGradient id="bn" cx="196.115" cy="347.87596" r="2.74344" xlink:href="#bk"/><radialGradient id="bo" cx="232.83975" cy="114.97225" r="10.30064" gradientUnits="userSpaceOnUse"><stop offset="0" stop-color="#fff"/><stop offset="1" stop-color="#b9cbf0" stop-opacity="0"/></radialGradient><radialGradient id="bp" cx="324.87121" cy="195.5418" r="19.49085" xlink:href="#bb"/><radialGradient id="bq" cx="336.12394" cy="278.28314" r="0.64971" xlink:href="#bc"/><radialGradient id="br" cx="337.05006" cy="285.09201" r="0.64971" xlink:href="#bc"/><radialGradient id="bs" cx="336.56298" cy="281.50997" r="4.87267" xlink:href="#be"/><radialGradient id="bt" cx="327.30692" cy="213.45185" r="12.99396" xlink:href="#bf"/><radialGradient id="bu" cx="327.30692" cy="213.45185" r="6.49689" xlink:href="#bg"/><radialGradient id="bv" cx="327.30692" cy="213.45185" r="5.41414" xlink:href="#bh"/><radialGradient id="bw" cx="337.05006" cy="285.09201" r="9.74535" xlink:href="#bi"/><radialGradient id="bx" cx="334.69189" cy="267.75152" r="1.10156" gradientUnits="userSpaceOnUse"><stop offset="0.1"/><stop offset="0.2047" stop-color="#1c1713"/><stop offset="0.35581" stop-color="#3e3229"/><stop offset="0.51018" stop-color="#59473b"/><stop offset="0.66721" stop-color="#6c5647"/><stop offset="0.82838" stop-color="#775f4f"/><stop offset="1" stop-color="#7b6251"/></radialGradient><radialGradient id="by" cx="328.27348" cy="220.55914" r="2.14261" gradientUnits="userSpaceOnUse"><stop offset="0.1" stop-color="#393a2f"/><stop offset="0.30165" stop-color="#21221c"/><stop offset="0.52494" stop-color="#0f0f0c"/><stop offset="0.75495" stop-color="#040403"/><stop offset="1"/></radialGradient><radialGradient id="bz" cx="331.22789" cy="242.28329" r="1.97926" gradientUnits="userSpaceOnUse"><stop offset="0.1"/><stop offset="0.11031" stop-color="#010100"/><stop offset="0.32262" stop-color="#1c0e05"/><stop offset="0.53968" stop-color="#2f1808"/><stop offset="0.76257" stop-color="#3a1e09"/><stop offset="1" stop-color="#3e200a"/></radialGradient><radialGradient id="ca" cx="329.79097" cy="231.7177" r="2.49165" gradientUnits="userSpaceOnUse"><stop offset="0.1" stop-color="#7e9c95"/><stop offset="0.15454" stop-color="#6e8983"/><stop offset="0.2879" stop-color="#4d5f5b"/><stop offset="0.42427" stop-color="#313d3a"/><stop offset="0.56231" stop-color="#1c2221"/><stop offset="0.70265" stop-color="#0c0f0e"/><stop offset="0.84664" stop-color="#030404"/><stop offset="1"/></radialGradient><radialGradient id="cb" cx="336.34802" cy="279.92947" r="0.70539" gradientUnits="userSpaceOnUse"><stop offset="0.1"/><stop offset="0.22259" stop-color="#1b1722"/><stop offset="0.37027" stop-color="#352e44"/><stop offset="0.52121" stop-color="#4a3f5f"/><stop offset="0.67469" stop-color="#584c72"/><stop offset="0.8322" stop-color="#61547d"/><stop offset="1" stop-color="#645681"/></radialGradient></defs><g class="c"><ellipse class="d" cx="267.00138" cy="422.36463" rx="144.19211" ry="23.28088"/><path class="e" d="M399.68942,403.24988,339.37125,176.10933l.00786-66.2699c-17.75085,8.70907-35.47443,8.7091-59.73241,8.7091-25.0409,0-46.6847-3.005-56.99033-7.36687l-2.97676-3.17145.60953,68.81454L159.60367,403.24988a14.43621,14.43621,0,0,0,13.887,18.37994H385.80244A14.43607,14.43607,0,0,0,399.68942,403.24988Z"/><path class="a" d="M408.23159,405.79664,343.05574,176.30673V105.425c0,7.24792-28.389,13.12352-63.409,13.12352s-63.409-5.8756-63.409-13.12352v70.88172L151.06151,405.79664a16.974,16.974,0,0,0,16.37043,21.46046H391.86116A16.974,16.974,0,0,0,408.23159,405.79664Z"/><g class="f"><path class="g" d="M401.22508,411.05458c0-12.68913-54.23417-24.21531-121.13541-24.21531s-121.13542,12.00794-121.13542,24.69707,11.80991,10.1263,121.13542,11.13877C383.8551,423.63608,401.22508,423.74372,401.22508,411.05458Z"/><path class="h" d="M303.62184,192.63564c-2.80175-.31817-5.59682-.69124-8.39593-1.03118a108.84043,108.84043,0,0,0-15.01056-1.03273c-2.193.03846-4.39639.36007-6.55272.20572a62.4666,62.4666,0,0,0-7.14072-.04067c-9.72284.4182-19.28128,2.38687-28.77975,4.37841q-4.31315.90435-8.64184,1.73242c-6.01064,1.14982-12.15181,2.21116-17.73607,4.82648-1.4803.69328-2.55342,1.04806-3.08164,2.53739-.1988.56055-.33629,1.15159-.503,1.72256L203.184,221.67126l-6.853,23.46721-8.36328,28.63913-9.12657,31.253-9.14286,31.30871-8.41212,28.8064-6.93437,23.746-4.7096,16.1275-1.73781,5.95094,7.53771,20.20928H412.81433V388.527l-61.93708-184.68c-5.8965-2.38475-11.94619-4.22668-17.94789-6.30536-5.53007-1.91533-11.61121-2.039-17.25489-3.68935C311.96936,192.76882,307.46792,193.0724,303.62184,192.63564Z"/></g><ellipse class="i" cx="279.64666" cy="105.42499" rx="63.4091" ry="13.12351"/><path class="b" d="M393.3744,399.683,337.75683,203.847h-.60171c0,6.98614-25.7402,12.64945-57.49231,12.64945S222.1705,210.8331,222.1705,203.847h-.63423L165.919,399.683a13.67652,13.67652,0,0,0,13.15636,17.41308H380.218A13.67684,13.67684,0,0,0,393.3744,399.683Z"/><g class="j"><path class="k" d="M257.37831,262.66393c-28.84181,4.469-58.13244,6.29624-86.57756,12.83056s-56.625,18.32338-76.76012,39.45151c-11.66189,12.237-20.57245,28.8161-17.95551,45.51626,2.05123,13.09,11.00468,24.33661,21.9331,31.82829s23.74412,11.69317,36.51423,15.22583c74.25136,20.54052,156.51867,20.7286,225.64542-13.28124,13.90016-6.83877,27.29-15.09294,38.188-26.10277s19.21421-24.981,21.62539-40.28357c2.48517-15.77217-1.48981-32.23248-9.715-45.91764a92.18483,92.18483,0,0,0-27.27321-28.22758,89.44564,89.44564,0,0,0-16.5116-8.80486c-7.67978-3.18382-12.18769-7.99135-20.31776-4.91245-9.51759,3.60435-19.31018,6.61892-29.0811,9.451A476.87912,476.87912,0,0,1,257.37831,262.66393Z"/><path class="l" d="M279.49929,314.16935c-28.84181,4.469-58.13244,6.29624-86.57756,12.83056s-56.625,18.32338-76.76012,39.45151c-11.66189,12.237-20.57245,28.8161-17.95551,45.51626,2.05123,13.09,11.00468,24.33661,21.93309,31.82829s23.74413,11.69316,36.51424,15.22583c74.25136,20.54052,156.51867,20.7286,225.64542-13.28124,13.90016-6.83877,27.29-15.09294,38.188-26.10277s19.21421-24.981,21.62539-40.28357c2.48517-15.77217-1.48981-32.23248-9.715-45.91764A92.18483,92.18483,0,0,0,405.12406,305.209a89.4466,89.4466,0,0,0-16.5116-8.80487c-7.67978-3.18381-12.1877-7.99134-20.31777-4.91245-9.51758,3.60436-19.31018,6.61893-29.08109,9.451A476.87951,476.87951,0,0,1,279.49929,314.16935Z"/></g><ellipse class="m" cx="279.66288" cy="203.84696" rx="57.49233" ry="12.64945"/><g class="n"><circle class="o" cx="250.31018" cy="219.93742" r="21.94151"/><ellipse class="p" cx="248.76658" cy="207.84364" rx="14.66347" ry="8.84042" transform="translate(-15.03434 19.44813) rotate(-4.34581)"/><circle class="q" cx="261.98302" cy="208.92081" r="1.79686"/><circle class="r" cx="264.79025" cy="211.28051" r="0.65147"/><circle class="s" cx="240.6789" cy="234.79272" r="0.65147"/><path class="t" d="M232.8524,221.53906c-.21529,4.23544,2.3335,10.34468,6.39729,12.13752"/><circle class="u" cx="260.18617" cy="231.87094" r="1.99438"/></g><g class="v"><circle class="w" cx="310.4877" cy="189.60059" r="12.40003"/><ellipse class="x" cx="309.61535" cy="182.7659" rx="8.28692" ry="4.99608" transform="translate(-12.95909 23.98691) rotate(-4.34581)"/><circle class="y" cx="317.08449" cy="183.37465" r="1.01548"/><circle class="z" cx="318.67097" cy="184.70821" r="0.36817"/><circle class="aa" cx="305.04468" cy="197.99591" r="0.36817"/><path class="ab" d="M300.6216,190.50574c-.12167,2.39361,1.31876,5.84619,3.61537,6.8594"/><circle class="ac" cx="316.06902" cy="196.3447" r="1.1271"/></g><g class="v"><circle class="ad" cx="284.21223" cy="161.67927" r="6.59679"/><ellipse class="ae" cx="283.74815" cy="158.04323" rx="4.40863" ry="2.6579" transform="translate(-11.16008 21.95572) rotate(-4.34581)"/><circle class="af" cx="287.72172" cy="158.36709" r="0.54023"/><circle class="ag" cx="288.56572" cy="159.07654" r="0.19587"/><circle class="ah" cx="281.31656" cy="166.14557" r="0.19587"/><path class="ai" d="M278.96349,162.16081a4.10837,4.10837,0,0,0,1.92337,3.64919"/><circle class="aj" cx="287.18149" cy="165.26713" r="0.59962"/></g><g class="v"><circle class="ak" cx="283.60759" cy="261.32348" r="14.48007"/><ellipse class="al" cx="282.58891" cy="253.34231" rx="9.67701" ry="5.83414" transform="translate(-18.3848 22.14187) rotate(-4.34581)"/><circle class="am" cx="291.31097" cy="254.05318" r="1.18582"/><circle class="an" cx="293.16357" cy="255.61044" r="0.42993"/><circle class="ao" cx="277.25153" cy="271.12708" r="0.42993"/><path class="ap" d="M272.08651,262.38047c-.14208,2.79513,1.54,6.82686,4.22183,8.01"/><circle class="aq" cx="290.12515" cy="269.19889" r="1.31617"/></g><g class="v"><circle class="ar" cx="255.84309" cy="300.96225" r="7.70337"/><ellipse class="as" cx="255.30116" cy="296.71628" rx="5.14815" ry="3.10376" transform="translate(-21.74997 20.19882) rotate(-4.34581)"/><circle class="at" cx="259.94127" cy="297.09446" r="0.63085"/><circle class="au" cx="260.92685" cy="297.92292" r="0.22872"/><circle class="av" cx="252.46168" cy="306.17775" r="0.22872"/><path class="aw" d="M249.7139,301.52456c-.07559,1.487.81926,3.63188,2.246,4.26133"/><circle class="ax" cx="259.31042" cy="305.15195" r="0.7002"/></g><g class="ay"><path class="az" d="M343.04961,287.06206a6.22824,6.22824,0,0,1-6.087-4.945l-20.168-95.75738a6.22784,6.22784,0,0,1-.13378-1.28307v-57.658a6.22685,6.22685,0,1,1,12.45371,0v57.00979l20.03419,95.12252a6.23273,6.23273,0,0,1-6.09916,7.51115Z"/></g><g class="ba"><path class="bb" d="M191.12865,393.99344a6.85623,6.85623,0,0,1-6.63063-8.59051l40.24714-153.3406a6.84962,6.84962,0,0,1,13.25032,3.47828l-40.24714,153.3406A6.85073,6.85073,0,0,1,191.12865,393.99344Z"/></g><circle class="bc" cx="347.22504" cy="294.7322" r="6.23005"/><circle class="bd" cx="329.11778" cy="185.07639" r="6.23005"/><circle class="be" cx="215.9929" cy="284.80654" r="19.98648"/><circle class="bf" cx="193.97209" cy="354.67534" r="0.6662"/><circle class="bg" cx="192.26213" cy="360.10058" r="0.6662"/><circle class="bh" cx="193.21137" cy="357.08885" r="4.99665"/><line class="bi" x1="211.24675" y1="299.86532" x2="192.26213" y2="360.10058"/><circle class="bj" cx="211.24675" cy="299.86532" r="13.32427"/><circle class="bk" cx="211.24675" cy="299.86532" r="6.66221"/><circle class="bl" cx="211.24675" cy="299.86532" r="5.55184"/><polyline class="bm" points="211.247 299.865 207.661 321.454 211.247 299.865 214.832 278.277 211.247 299.865 189.658 296.28 211.247 299.865 232.835 303.451 211.247 299.865 214.191 328.004 211.247 299.865 208.302 271.727 211.247 299.865 183.109 302.81 211.247 299.865 239.385 296.921 211.247 299.865 225.109 322.952 211.247 299.865 197.385 276.779 211.247 299.865 188.16 313.727 211.247 299.865 234.334 286.003 211.247 299.865 206.956 318.175 211.247 299.865 215.538 281.555 211.247 299.865 192.937 295.574 211.247 299.865 229.557 304.156 211.247 299.865 211.081 302.084 211.247 299.865 211.412 297.646 211.247 299.865 209.028 299.7 211.247 299.865 213.466 300.031 211.247 299.865 197.022 324.442 211.247 299.865 225.472 275.289 211.247 299.865 186.67 285.64 211.247 299.865 235.823 314.09 211.247 299.865 205.156 307.63 211.247 299.865 217.337 292.101 211.247 299.865 203.482 293.775 211.247 299.865 219.011 305.956 211.247 299.865 214.391 306.548 211.247 299.865 208.103 293.182 211.247 299.865 204.564 303.009 211.247 299.865 217.93 296.721 211.247 299.865 236.244 321.783 211.247 299.865 186.25 277.948 211.247 299.865 189.33 324.862 211.247 299.865 233.164 274.868 211.247 299.865 216.777 326.987 211.247 299.865 205.716 272.744 211.247 299.865 184.125 305.396 211.247 299.865 238.369 294.335 211.247 299.865 216.265 331.625 211.247 299.865 206.228 268.105 211.247 299.865 179.487 304.883 211.247 299.865 243.007 294.847 211.247 299.865 213.859 305.656 211.247 299.865 208.634 294.075 211.247 299.865 205.456 302.478 211.247 299.865 217.037 297.253 211.247 299.865 228.372 315.233 211.247 299.865 194.121 284.498 211.247 299.865 195.879 316.991 211.247 299.865 226.614 282.74 211.247 299.865 202.778 322.969 211.247 299.865 219.715 276.762 211.247 299.865 188.143 291.397 211.247 299.865 234.35 308.334 211.247 299.865 212.511 319.954 211.247 299.865 209.983 279.776 211.247 299.865 191.158 301.129 211.247 299.865 231.336 298.601"/><circle class="bn" cx="192.26213" cy="360.10058" r="9.9933"/><circle class="bo" cx="195.92832" cy="348.46877" r="2.8404"/><circle class="bp" cx="205.82409" cy="317.07081" r="1.58647"/><circle class="bq" cx="199.78696" cy="336.22577" r="1.05071"/><circle class="br" cx="198.83165" cy="339.25665" r="1.47759"/><circle class="bs" cx="196.115" cy="347.87596" r="2.74344"/><circle class="bt" cx="232.83975" cy="114.97225" r="10.30064"/><circle class="bu" cx="324.87121" cy="195.5418" r="19.49085"/><circle class="bv" cx="336.12394" cy="278.28314" r="0.64971"/><circle class="bw" cx="337.05006" cy="285.09201" r="0.64971"/><circle class="bx" cx="336.56298" cy="281.50997" r="4.87267"/><line class="bi" x1="327.30692" y1="213.45185" x2="337.05006" y2="285.09201"/><circle class="by" cx="327.30692" cy="213.45185" r="12.99396"/><circle class="bz" cx="327.30692" cy="213.45185" r="6.49689"/><circle class="ca" cx="327.30692" cy="213.45185" r="5.41414"/><polyline class="bm" points="327.307 213.452 332.154 213.625 327.307 213.452 322.46 213.278 327.307 213.452 327.133 218.299 327.307 213.452 327.481 208.605 327.307 213.452 335.401 236.485 327.307 213.452 319.213 190.419 327.307 213.452 304.274 221.546 327.307 213.452 350.34 205.358 327.307 213.452 336.702 225.83 327.307 213.452 317.912 201.073 327.307 213.452 314.929 222.847 327.307 213.452 339.685 204.057 327.307 213.452 330.005 226.356 327.307 213.452 324.609 200.547 327.307 213.452 314.403 216.15 327.307 213.452 340.211 210.754 327.307 213.452 332.496 216.956 327.307 213.452 322.118 209.947 327.307 213.452 323.802 218.641 327.307 213.452 330.811 208.263 327.307 213.452 341.362 223.243 327.307 213.452 313.252 203.66 327.307 213.452 317.515 227.507 327.307 213.452 337.098 199.397 327.307 213.452 341.97 214.866 327.307 213.452 312.644 212.038 327.307 213.452 325.893 228.115 327.307 213.452 328.721 198.789 327.307 213.452 332.926 231.173 327.307 213.452 321.688 195.731 327.307 213.452 309.586 219.071 327.307 213.452 345.028 207.833 327.307 213.452 328.834 214.182 327.307 213.452 325.779 212.721 327.307 213.452 326.576 214.979 327.307 213.452 328.038 211.924 327.307 213.452 348.927 230 327.307 213.452 305.687 196.903 327.307 213.452 310.758 235.072 327.307 213.452 343.856 191.832 327.307 213.452 329.075 230.568 327.307 213.452 325.539 196.335 327.307 213.452 310.19 215.22 327.307 213.452 344.423 211.684 327.307 213.452 351.612 216.982 327.307 213.452 303.002 209.921 327.307 213.452 323.776 237.757 327.307 213.452 330.837 189.146 327.307 213.452 327.514 244.484 327.307 213.452 327.1 182.42 327.307 213.452 296.275 213.659 327.307 213.452 358.339 213.245 327.307 213.452 335.392 232.631 327.307 213.452 319.222 194.273 327.307 213.452 308.128 221.537 327.307 213.452 346.486 205.367 327.307 213.452 333.328 232.653 327.307 213.452 321.286 194.251 327.307 213.452 308.106 219.473 327.307 213.452 346.508 207.43"/><circle class="cb" cx="337.05006" cy="285.09201" r="9.74535"/><circle class="cc" cx="334.69189" cy="267.75152" r="1.10156"/><circle class="cd" cx="328.27348" cy="220.55914" r="2.14261"/><circle class="ce" cx="331.22789" cy="242.28329" r="1.97926"/><circle class="cf" cx="329.79097" cy="231.7177" r="2.49165"/><circle class="cg" cx="336.34802" cy="279.92947" r="0.70539"/></g></svg>