<svg xmlns="http://www.w3.org/2000/svg" xmlns:xlink="http://www.w3.org/1999/xlink" viewBox="0 0 523.92572 512.20828"><defs><style>.a,.i{opacity:0.72;}.a{fill:url(#a);}.b,.ba,.k,.l,.m{opacity:0.8;}.b{fill:url(#b);}.c{isolation:isolate;}.d{fill:#683c11;fill-opacity:0.51;}.e,.g{mix-blend-mode:multiply;}.e{fill:url(#c);}.f{clip-path:url(#e);}.g{fill:url(#f);}.h{opacity:0.42;fill:url(#g);}.i{fill:url(#h);}.j{clip-path:url(#j);}.k{fill:url(#k);}.l{fill:url(#l);}.bk,.m{stroke-miterlimit:10;}.m,.t{stroke-width:1.24537px;}.m{fill:url(#m);stroke:url(#n);}.bi,.bl,.bx,.bz,.n{opacity:0.5;}.o{fill:url(#o);}.aa,.ab,.ae,.ah,.ai,.al,.ao,.ap,.as,.av,.aw,.p,.s,.t,.x{mix-blend-mode:soft-light;}.p{fill:url(#p);}.q{fill:url(#q);}.r{fill:url(#r);}.s{fill:url(#s);}.ab,.ai,.ap,.aw,.bg,.bk,.t{fill:none;}.ab,.ai,.ap,.aw,.t{stroke-linecap:round;stroke-linejoin:round;}.t{stroke:url(#t);}.u{fill:url(#u);}.v{opacity:0.3;}.w{fill:url(#v);}.x{fill:url(#w);}.y{fill:url(#x);}.z{fill:url(#y);}.aa{fill:url(#z);}.ab{stroke-width:0.70381px;stroke:url(#aa);}.ac{fill:url(#ab);}.ad{fill:url(#ac);}.ae{fill:url(#ad);}.af{fill:url(#ae);}.ag{fill:url(#af);}.ah{fill:url(#ag);}.ai{stroke-width:0.37443px;stroke:url(#ah);}.aj{fill:url(#ai);}.ak{fill:url(#aj);}.al{fill:url(#ak);}.am{fill:url(#al);}.an{fill:url(#am);}.ao{fill:url(#an);}.ap{stroke-width:0.82187px;stroke:url(#ao);}.aq{fill:url(#ap);}.ar{fill:url(#aq);}.as{fill:url(#ar);}.at{fill:url(#as);}.au{fill:url(#at);}.av{fill:url(#au);}.aw{stroke-width:0.43723px;stroke:url(#av);}.ax{fill:url(#aw);}.ay{opacity:0.54;}.az{fill:url(#ax);}.ba{mix-blend-mode:hard-light;}.bb{fill:url(#ay);}.bc,.bs{opacity:0.25;}.bc,.bd,.be,.bf,.bh,.bi,.bj,.bk,.bl,.bm,.bn,.bo,.bp,.bq,.bs,.bt,.bu,.bv,.bw,.bx,.by,.bz,.ca,.cb,.cc,.cd,.ce{mix-blend-mode:screen;}.bc{fill:url(#az);}.bd{fill:url(#ba);}.be{fill:url(#bb);}.bf,.bv{opacity:0.2;}.bf{fill:url(#bc);}.bh,.bw{opacity:0.15;}.bh{fill:url(#bd);}.bi{fill:url(#be);}.bj{fill:url(#bf);}.bk{stroke:#fff;stroke-width:2.49074px;opacity:0.03;}.bl{fill:url(#bg);}.bm{fill:url(#bh);}.bn{fill:url(#bi);}.bo{fill:url(#bj);}.bp{fill:url(#bk);}.bq{fill:url(#bl);}.br{fill:url(#bm);}.bs{fill:url(#bn);}.bt{fill:url(#bo);}.bu{fill:url(#bp);}.bv{fill:url(#bq);}.bw{fill:url(#br);}.bx{fill:url(#bs);}.by{fill:url(#bt);}.bz{fill:url(#bu);}.ca{fill:url(#bv);}.cb{fill:url(#bw);}.cc{fill:url(#bx);}.cd{fill:url(#by);}.ce{fill:url(#bz);}</style><linearGradient id="a" x1="212.33009" y1="266.29534" x2="343.09133" y2="266.29534" gradientUnits="userSpaceOnUse"><stop offset="0" stop-color="#f5fbff"/><stop offset="0.62567" stop-color="#e9f1f5"/><stop offset="1" stop-color="#c5d9e0"/></linearGradient><linearGradient id="b" x1="350.51127" y1="436.95271" x2="195.81359" y2="231.92277" gradientUnits="userSpaceOnUse"><stop offset="0" stop-color="#bb077c"/><stop offset="1" stop-color="#f039bf"/></linearGradient><linearGradient id="c" x1="314.63729" y1="122.46895" x2="282.52508" y2="384.0206" gradientUnits="userSpaceOnUse"><stop offset="0" stop-color="#bfc4c7"/><stop offset="1" stop-color="#b1c3c9"/></linearGradient><clipPath id="e"><path class="a" d="M408.26754,405.75093,343.09169,176.261V105.3793c0,7.24792-28.38905,13.12352-63.409,13.12352s-63.409-5.8756-63.409-13.12352V176.261L151.09746,405.75093a16.974,16.974,0,0,0,16.37043,21.46046H391.89711A16.974,16.974,0,0,0,408.26754,405.75093Z"/></clipPath><linearGradient id="f" x1="221.88028" y1="261.52149" x2="298.12182" y2="458.42355" gradientUnits="userSpaceOnUse"><stop offset="0" stop-color="#f5f5f5"/><stop offset="1" stop-color="#c3d1d6"/></linearGradient><linearGradient id="g" x1="494.25178" y1="310.82493" x2="264.75202" y2="310.82493" xlink:href="#b"/><linearGradient id="h" x1="279.68261" y1="79.13128" x2="279.68261" y2="118.23221" xlink:href="#a"/><clipPath id="j"><path class="b" d="M393.41034,399.63726l-55.61756-195.836h-.60171c0,6.98614-25.7402,12.64945-57.49231,12.64945s-57.49231-5.66331-57.49231-12.64945h-.63424L165.955,399.63733a13.67653,13.67653,0,0,0,13.15637,17.41308H380.254A13.67683,13.67683,0,0,0,393.41034,399.63726Z"/></clipPath><linearGradient id="k" x1="526.80282" y1="330.26791" x2="227.83271" y2="330.26791" xlink:href="#b"/><linearGradient id="l" x1="97.78273" y1="381.77333" x2="442.8818" y2="381.77333" xlink:href="#b"/><linearGradient id="m" x1="381.80438" y1="203.80125" x2="245.55772" y2="203.80125" xlink:href="#b"/><linearGradient id="n" x1="221.58381" y1="203.80125" x2="337.81384" y2="203.80125" gradientUnits="userSpaceOnUse"><stop offset="0" stop-color="#ff26ba"/><stop offset="1" stop-color="#f039bf"/></linearGradient><radialGradient id="o" cx="250.34613" cy="219.89171" r="20.84617" gradientTransform="matrix(0.2537, -0.96728, 0.95587, 0.2507, -23.35461, 406.91956)" gradientUnits="userSpaceOnUse"><stop offset="0" stop-color="#c735a0" stop-opacity="0.8"/><stop offset="0.29921" stop-color="#ca39a3" stop-opacity="0.80046"/><stop offset="0.52418" stop-color="#d244ad" stop-opacity="0.80193"/><stop offset="0.72493" stop-color="#e058be" stop-opacity="0.8044"/><stop offset="0.91041" stop-color="#f374d6" stop-opacity="0.80787"/><stop offset="1" stop-color="#ff85e4" stop-opacity="0.81"/></radialGradient><radialGradient id="p" cx="1385.08813" cy="258.3661" r="13.50603" gradientTransform="translate(-1474.45678 8.5781) scale(1.24415 0.77108)" gradientUnits="userSpaceOnUse"><stop offset="0" stop-color="#eb52a4"/><stop offset="0.37881" stop-color="#eb52a4" stop-opacity="0.99203"/><stop offset="0.51527" stop-color="#ea53a4" stop-opacity="0.96313"/><stop offset="0.61253" stop-color="#ea55a5" stop-opacity="0.91281"/><stop offset="0.69121" stop-color="#e957a6" stop-opacity="0.8409"/><stop offset="0.75863" stop-color="#e75aa7" stop-opacity="0.74715"/><stop offset="0.81834" stop-color="#e55ea8" stop-opacity="0.63133"/><stop offset="0.87231" stop-color="#e362aa" stop-opacity="0.49335"/><stop offset="0.92196" stop-color="#e167ab" stop-opacity="0.33264"/><stop offset="0.96609" stop-color="#de6dad" stop-opacity="0.15775"/><stop offset="1" stop-color="#dc72af" stop-opacity="0"/></radialGradient><radialGradient id="q" cx="262.01897" cy="208.8751" r="1.70715" gradientTransform="matrix(0.2537, -0.96728, 0.95587, 0.2507, -4.11265, 409.95582)" gradientUnits="userSpaceOnUse"><stop offset="0" stop-color="#ebc1d6"/><stop offset="0.37881" stop-color="#ebc0d6" stop-opacity="0.99203"/><stop offset="0.51527" stop-color="#eabed5" stop-opacity="0.96313"/><stop offset="0.61253" stop-color="#eabad3" stop-opacity="0.91281"/><stop offset="0.69121" stop-color="#e9b4d0" stop-opacity="0.8409"/><stop offset="0.75863" stop-color="#e7adcc" stop-opacity="0.74715"/><stop offset="0.81834" stop-color="#e5a4c8" stop-opacity="0.63133"/><stop offset="0.87231" stop-color="#e399c2" stop-opacity="0.49335"/><stop offset="0.92196" stop-color="#e18cbc" stop-opacity="0.33264"/><stop offset="0.96609" stop-color="#de7eb5" stop-opacity="0.15775"/><stop offset="1" stop-color="#dc72af" stop-opacity="0"/></radialGradient><radialGradient id="r" cx="264.8262" cy="211.2348" r="0.61895" gradientTransform="matrix(0.2537, -0.96728, 0.95587, 0.2507, -4.27318, 414.43931)" gradientUnits="userSpaceOnUse"><stop offset="0" stop-color="#ebc1d6"/><stop offset="0.22496" stop-color="#ebc0d6" stop-opacity="0.98901"/><stop offset="0.3644" stop-color="#eabdd4" stop-opacity="0.95275"/><stop offset="0.48062" stop-color="#e9b8d2" stop-opacity="0.89088"/><stop offset="0.58411" stop-color="#e8b1ce" stop-opacity="0.80322"/><stop offset="0.67914" stop-color="#e6a8ca" stop-opacity="0.68961"/><stop offset="0.7679" stop-color="#e49dc4" stop-opacity="0.55"/><stop offset="0.85188" stop-color="#e290be" stop-opacity="0.38414"/><stop offset="0.92991" stop-color="#df82b7" stop-opacity="0.19725"/><stop offset="1" stop-color="#dc72af" stop-opacity="0"/></radialGradient><radialGradient id="s" cx="240.71485" cy="234.74701" r="0.61895" gradientTransform="matrix(0.2537, -0.96728, 0.95587, 0.2507, -44.74224, 408.73439)" xlink:href="#r"/><radialGradient id="t" cx="236.08067" cy="227.56211" r="5.45098" gradientTransform="matrix(1, 0, 0, 1, 0, 0)" xlink:href="#q"/><radialGradient id="u" cx="260.22212" cy="231.82523" r="2.48527" gradientTransform="translate(0 33.67731) scale(1 0.85473)" gradientUnits="userSpaceOnUse"><stop offset="0" stop-color="#eb52a4"/><stop offset="0.09168" stop-color="#eb53a4" stop-opacity="0.96822"/><stop offset="0.22975" stop-color="#e956a5" stop-opacity="0.88033"/><stop offset="0.39704" stop-color="#e75aa7" stop-opacity="0.73641"/><stop offset="0.58721" stop-color="#e461a9" stop-opacity="0.53628"/><stop offset="0.79369" stop-color="#e069ac" stop-opacity="0.2836"/><stop offset="1" stop-color="#dc72af" stop-opacity="0"/></radialGradient><radialGradient id="v" cx="310.52365" cy="189.55488" r="11.78101" gradientTransform="matrix(0.2537, -0.96728, 0.95587, 0.2507, 50.5542, 442.39704)" xlink:href="#o"/><radialGradient id="w" cx="1435.38274" cy="235.75872" r="7.6328" gradientTransform="translate(-1476.18212 0.93237) scale(1.24415 0.77108)" xlink:href="#p"/><radialGradient id="x" cx="317.12044" cy="183.32894" r="0.96478" gradientTransform="matrix(0.2537, -0.96728, 0.95587, 0.2507, 61.42861, 444.11295)" xlink:href="#q"/><radialGradient id="y" cx="318.70692" cy="184.6625" r="0.34979" gradientTransform="matrix(0.2537, -0.96728, 0.95587, 0.2507, 61.33789, 446.64675)" xlink:href="#r"/><radialGradient id="z" cx="305.08063" cy="197.9502" r="0.34979" gradientTransform="matrix(0.2537, -0.96728, 0.95587, 0.2507, 38.46719, 443.42267)" xlink:href="#r"/><radialGradient id="aa" cx="302.46166" cy="193.88973" r="3.08057" gradientTransform="matrix(1, 0, 0, 1, 0, 0)" xlink:href="#q"/><radialGradient id="ab" cx="316.10497" cy="196.29899" r="1.40453" gradientTransform="translate(0 28.51641) scale(1 0.85473)" xlink:href="#u"/><radialGradient id="ac" cx="284.24818" cy="161.63356" r="6.26748" gradientTransform="matrix(0.2537, -0.96728, 0.95587, 0.2507, 57.63399, 396.0599)" xlink:href="#o"/><radialGradient id="ad" cx="1416.15723" cy="206.25991" r="4.06064" gradientTransform="translate(-1478.12988 -1.04449) scale(1.24415 0.77108)" xlink:href="#p"/><radialGradient id="ae" cx="287.75767" cy="158.32138" r="0.51326" gradientTransform="matrix(0.2537, -0.96728, 0.95587, 0.2507, 63.41916, 396.97276)" xlink:href="#q"/><radialGradient id="af" cx="288.60167" cy="159.03083" r="0.18609" gradientTransform="matrix(0.2537, -0.96728, 0.95587, 0.2507, 63.37089, 398.32074)" xlink:href="#r"/><radialGradient id="ag" cx="281.3525" cy="166.09986" r="0.18609" gradientTransform="matrix(0.2537, -0.96728, 0.95587, 0.2507, 51.20372, 396.60554)" xlink:href="#r"/><radialGradient id="ah" cx="279.95922" cy="163.9397" r="1.63886" gradientTransform="matrix(1, 0, 0, 1, 0, 0)" xlink:href="#q"/><radialGradient id="ai" cx="287.21743" cy="165.22142" r="0.74721" gradientTransform="translate(0 24.00176) scale(1 0.85473)" xlink:href="#u"/><radialGradient id="aj" cx="283.64354" cy="261.27777" r="13.75721" gradientTransform="matrix(0.2537, -0.96728, 0.95587, 0.2507, -38.06449, 470.13799)" xlink:href="#o"/><radialGradient id="ak" cx="1409.42389" cy="311.4969" r="8.91317" gradientTransform="translate(-1470.91182 13.10891) scale(1.24415 0.77108)" xlink:href="#p"/><radialGradient id="al" cx="291.34692" cy="254.00747" r="1.12662" gradientTransform="matrix(0.2537, -0.96728, 0.95587, 0.2507, -25.36595, 472.14174)" xlink:href="#q"/><radialGradient id="am" cx="293.19952" cy="255.56473" r="0.40847" gradientTransform="matrix(0.2537, -0.96728, 0.95587, 0.2507, -25.47189, 475.10057)" xlink:href="#r"/><radialGradient id="an" cx="277.28748" cy="271.08137" r="0.40847" gradientTransform="matrix(0.2537, -0.96728, 0.95587, 0.2507, -52.17903, 471.33567)" xlink:href="#r"/><radialGradient id="ao" cx="274.2292" cy="266.33978" r="3.59732" gradientTransform="matrix(1, 0, 0, 1, 0, 0)" xlink:href="#q"/><radialGradient id="ap" cx="290.1611" cy="269.15318" r="1.64013" gradientTransform="translate(0 39.09995) scale(1 0.85473)" xlink:href="#u"/><radialGradient id="aq" cx="255.87904" cy="300.91654" r="7.31881" gradientTransform="matrix(0.2537, -0.96728, 0.95587, 0.2507, -96.67484, 472.98299)" xlink:href="#o"/><radialGradient id="ar" cx="1384.9124" cy="357.14618" r="4.74179" gradientTransform="translate(-1467.70357 21.28382) scale(1.24415 0.77108)" xlink:href="#p"/><radialGradient id="as" cx="259.97722" cy="297.04875" r="0.59936" gradientTransform="matrix(0.2537, -0.96728, 0.95587, 0.2507, -89.91924, 474.04898)" xlink:href="#q"/><radialGradient id="at" cx="260.9628" cy="297.87721" r="0.21731" gradientTransform="matrix(0.2537, -0.96728, 0.95587, 0.2507, -89.9756, 475.62307)" xlink:href="#r"/><radialGradient id="au" cx="252.49763" cy="306.13204" r="0.21731" gradientTransform="matrix(0.2537, -0.96728, 0.95587, 0.2507, -104.18375, 473.62015)" xlink:href="#r"/><radialGradient id="av" cx="250.87063" cy="303.60952" r="1.91377" gradientTransform="matrix(1, 0, 0, 1, 0, 0)" xlink:href="#q"/><radialGradient id="aw" cx="259.34637" cy="305.10624" r="0.87255" gradientTransform="translate(0 44.32286) scale(1 0.85473)" xlink:href="#u"/><radialGradient id="ax" cx="329.14262" cy="187.65145" r="96.86305" gradientTransform="translate(304.82559 -141.31149) rotate(81.99169) scale(1 0.11591)" gradientUnits="userSpaceOnUse"><stop offset="0" stop-color="#e6f3ff"/><stop offset="1" stop-color="#b9cbf0" stop-opacity="0"/></radialGradient><radialGradient id="ay" cx="211.2827" cy="310.42601" r="79.87596" gradientTransform="matrix(0.2537, -0.96728, 0.15236, 0.03996, 110.38559, 502.3918)" xlink:href="#ax"/><radialGradient id="az" cx="216.02885" cy="284.76083" r="19.98648" gradientUnits="userSpaceOnUse"><stop offset="0.1"/><stop offset="0.11244" stop-color="#080602"/><stop offset="0.16172" stop-color="#231b08"/><stop offset="0.21838" stop-color="#392c0d"/><stop offset="0.28458" stop-color="#4a3910"/><stop offset="0.36644" stop-color="#554213"/><stop offset="0.48125" stop-color="#5c4815"/><stop offset="0.8" stop-color="#5e4915"/><stop offset="1"/></radialGradient><radialGradient id="ba" cx="194.00804" cy="354.62963" r="0.6662" gradientUnits="userSpaceOnUse"><stop offset="0" stop-color="#d4e194"/><stop offset="0.05952" stop-color="#afba7a"/><stop offset="0.13651" stop-color="#868f5e"/><stop offset="0.21955" stop-color="#626845"/><stop offset="0.30759" stop-color="#44482f"/><stop offset="0.40211" stop-color="#2b2e1e"/><stop offset="0.50556" stop-color="#181911"/><stop offset="0.62249" stop-color="#0a0b07"/><stop offset="0.76429" stop-color="#020302"/><stop offset="1"/></radialGradient><radialGradient id="bb" cx="192.29808" cy="360.05487" r="0.6662" xlink:href="#ba"/><radialGradient id="bc" cx="193.24731" cy="357.04314" r="4.99665" gradientUnits="userSpaceOnUse"><stop offset="0.05"/><stop offset="0.09242" stop-color="#040a03"/><stop offset="0.29802" stop-color="#183411"/><stop offset="0.48337" stop-color="#25531c"/><stop offset="0.64031" stop-color="#2e6622"/><stop offset="0.75" stop-color="#316d24"/><stop offset="0.78593" stop-color="#4f6e16"/><stop offset="0.83397" stop-color="#716f06"/><stop offset="0.86" stop-color="#7e6f00"/><stop offset="0.88764" stop-color="#7a6c00"/><stop offset="0.91229" stop-color="#706200"/><stop offset="0.93581" stop-color="#5d5200"/><stop offset="0.95863" stop-color="#443c00"/><stop offset="0.98074" stop-color="#231f00"/><stop offset="1"/></radialGradient><radialGradient id="bd" cx="211.2827" cy="299.81961" r="13.32427" gradientUnits="userSpaceOnUse"><stop offset="0" stop-color="#200"/><stop offset="0.73" stop-color="#984023"/><stop offset="1" stop-color="#200"/></radialGradient><radialGradient id="be" cx="211.2827" cy="299.81961" r="6.66221" gradientUnits="userSpaceOnUse"><stop offset="0.15" stop-color="#fff"/><stop offset="0.20939" stop-color="#e5d3d3"/><stop offset="0.29044" stop-color="#c49c9e"/><stop offset="0.36051" stop-color="#ad7477"/><stop offset="0.41599" stop-color="#9e5c5f"/><stop offset="0.45" stop-color="#995356"/><stop offset="0.57175" stop-color="#6b3335"/><stop offset="0.69355" stop-color="#431718"/><stop offset="0.79053" stop-color="#2b0606"/><stop offset="0.85" stop-color="#200"/><stop offset="0.85727" stop-color="#260201"/><stop offset="0.8648" stop-color="#330704"/><stop offset="0.87246" stop-color="#471009"/><stop offset="0.8802" stop-color="#641d0f"/><stop offset="0.88801" stop-color="#8a2e18"/><stop offset="0.89577" stop-color="#b74223"/><stop offset="0.9" stop-color="#d34e29"/><stop offset="0.90254" stop-color="#c84927"/><stop offset="0.91417" stop-color="#9c361c"/><stop offset="0.92635" stop-color="#772514"/><stop offset="0.93893" stop-color="#58180c"/><stop offset="0.95205" stop-color="#400d07"/><stop offset="0.96594" stop-color="#2f0603"/><stop offset="0.98111" stop-color="#250101"/><stop offset="1" stop-color="#200"/></radialGradient><radialGradient id="bf" cx="211.2827" cy="299.81961" r="5.55184" gradientUnits="userSpaceOnUse"><stop offset="0.15" stop-color="#fff"/><stop offset="0.28237" stop-color="#c2c2c2"/><stop offset="0.42528" stop-color="#888"/><stop offset="0.5636" stop-color="#575757"/><stop offset="0.69361" stop-color="#313131"/><stop offset="0.81336" stop-color="#161616"/><stop offset="0.91921" stop-color="#060606"/><stop offset="1"/></radialGradient><radialGradient id="bg" cx="192.29808" cy="360.05487" r="9.9933" gradientUnits="userSpaceOnUse"><stop offset="0.64"/><stop offset="0.71799" stop-color="#000200"/><stop offset="0.74608" stop-color="#020902"/><stop offset="0.76609" stop-color="#051405"/><stop offset="0.78228" stop-color="#082509"/><stop offset="0.79598" stop-color="#0d3b0e"/><stop offset="0.8" stop-color="#0f4310"/><stop offset="0.8131" stop-color="#1e2c0a"/><stop offset="0.82975" stop-color="#2d1605"/><stop offset="0.84569" stop-color="#360901"/><stop offset="0.86" stop-color="#390400"/><stop offset="0.8715" stop-color="#250300"/><stop offset="0.88602" stop-color="#140100"/><stop offset="0.90412" stop-color="#090100"/><stop offset="0.92951" stop-color="#020000"/><stop offset="1"/></radialGradient><radialGradient id="bh" cx="195.96427" cy="348.42306" r="2.8404" gradientUnits="userSpaceOnUse"><stop offset="0.1"/><stop offset="0.24639" stop-color="#1b1103"/><stop offset="0.42619" stop-color="#362207"/><stop offset="0.61009" stop-color="#492e09"/><stop offset="0.79889" stop-color="#54350b"/><stop offset="1" stop-color="#58370b"/></radialGradient><radialGradient id="bi" cx="205.86004" cy="317.0251" r="1.58647" gradientUnits="userSpaceOnUse"><stop offset="0.1" stop-color="#192f1b"/><stop offset="0.2285" stop-color="#122214"/><stop offset="0.47516" stop-color="#080f09"/><stop offset="0.72928" stop-color="#020402"/><stop offset="1"/></radialGradient><radialGradient id="bj" cx="199.82291" cy="336.18006" r="1.05071" xlink:href="#bh"/><radialGradient id="bk" cx="198.8676" cy="339.21094" r="1.47759" gradientUnits="userSpaceOnUse"><stop offset="0.1"/><stop offset="0.29001" stop-color="#14160e"/><stop offset="0.51699" stop-color="#25291a"/><stop offset="0.75084" stop-color="#303422"/><stop offset="1" stop-color="#333824"/></radialGradient><radialGradient id="bl" cx="196.15095" cy="347.83025" r="2.74344" xlink:href="#bi"/><radialGradient id="bm" cx="232.8757" cy="114.92654" r="10.30064" gradientUnits="userSpaceOnUse"><stop offset="0" stop-color="#fff"/><stop offset="1" stop-color="#b9cbf0" stop-opacity="0"/></radialGradient><radialGradient id="bn" cx="324.90716" cy="195.49609" r="19.49085" xlink:href="#az"/><radialGradient id="bo" cx="336.15989" cy="278.23743" r="0.64971" xlink:href="#ba"/><radialGradient id="bp" cx="337.08601" cy="285.0463" r="0.64971" xlink:href="#ba"/><radialGradient id="bq" cx="336.59893" cy="281.46426" r="4.87267" xlink:href="#bc"/><radialGradient id="br" cx="327.34287" cy="213.40614" r="12.99396" xlink:href="#bd"/><radialGradient id="bs" cx="327.34287" cy="213.40614" r="6.49689" xlink:href="#be"/><radialGradient id="bt" cx="327.34287" cy="213.40614" r="5.41414" xlink:href="#bf"/><radialGradient id="bu" cx="337.08601" cy="285.0463" r="9.74535" xlink:href="#bg"/><radialGradient id="bv" cx="334.72783" cy="267.70581" r="1.10156" gradientUnits="userSpaceOnUse"><stop offset="0.1"/><stop offset="0.2047" stop-color="#1c1713"/><stop offset="0.35581" stop-color="#3e3229"/><stop offset="0.51018" stop-color="#59473b"/><stop offset="0.66721" stop-color="#6c5647"/><stop offset="0.82838" stop-color="#775f4f"/><stop offset="1" stop-color="#7b6251"/></radialGradient><radialGradient id="bw" cx="328.30943" cy="220.51343" r="2.14261" gradientUnits="userSpaceOnUse"><stop offset="0.1" stop-color="#393a2f"/><stop offset="0.30165" stop-color="#21221c"/><stop offset="0.52494" stop-color="#0f0f0c"/><stop offset="0.75495" stop-color="#040403"/><stop offset="1"/></radialGradient><radialGradient id="bx" cx="331.26384" cy="242.23758" r="1.97926" gradientUnits="userSpaceOnUse"><stop offset="0.1"/><stop offset="0.11031" stop-color="#010100"/><stop offset="0.32262" stop-color="#1c0e05"/><stop offset="0.53968" stop-color="#2f1808"/><stop offset="0.76257" stop-color="#3a1e09"/><stop offset="1" stop-color="#3e200a"/></radialGradient><radialGradient id="by" cx="329.82692" cy="231.67199" r="2.49165" gradientUnits="userSpaceOnUse"><stop offset="0.1" stop-color="#7e9c95"/><stop offset="0.15454" stop-color="#6e8983"/><stop offset="0.2879" stop-color="#4d5f5b"/><stop offset="0.42427" stop-color="#313d3a"/><stop offset="0.56231" stop-color="#1c2221"/><stop offset="0.70265" stop-color="#0c0f0e"/><stop offset="0.84664" stop-color="#030404"/><stop offset="1"/></radialGradient><radialGradient id="bz" cx="336.38397" cy="279.88376" r="0.70539" gradientUnits="userSpaceOnUse"><stop offset="0.1"/><stop offset="0.22259" stop-color="#1b1722"/><stop offset="0.37027" stop-color="#352e44"/><stop offset="0.52121" stop-color="#4a3f5f"/><stop offset="0.67469" stop-color="#584c72"/><stop offset="0.8322" stop-color="#61547d"/><stop offset="1" stop-color="#645681"/></radialGradient></defs><g class="c"><ellipse class="d" cx="269.16211" cy="422.31892" rx="144.19211" ry="23.28088"/><path class="e" d="M399.72537,403.20417,339.40719,176.06362l.00787-66.2699c-17.75085,8.70907-35.47443,8.7091-59.73241,8.7091-25.0409,0-46.6847-3.005-56.99033-7.36687l-2.97677-3.17145.60954,68.81454L159.63962,403.20417a14.43621,14.43621,0,0,0,13.887,18.37994H385.83839A14.43607,14.43607,0,0,0,399.72537,403.20417Z"/><path class="a" d="M408.26754,405.75093,343.09169,176.261V105.3793c0,7.24792-28.38905,13.12352-63.409,13.12352s-63.409-5.8756-63.409-13.12352V176.261L151.09746,405.75093a16.974,16.974,0,0,0,16.37043,21.46046H391.89711A16.974,16.974,0,0,0,408.26754,405.75093Z"/><g class="f"><path class="g" d="M401.261,411.00887c0-12.68913-54.23417-24.21531-121.13541-24.21531S158.9902,398.8015,158.9902,411.49063s11.80991,10.1263,121.13542,11.13877C383.89105,423.59037,401.261,423.698,401.261,411.00887Z"/><path class="h" d="M303.65779,192.58993c-2.80175-.31817-5.59682-.69124-8.39593-1.03118A108.84043,108.84043,0,0,0,280.2513,190.526c-2.193.03846-4.39639.36007-6.55272.20572a62.4666,62.4666,0,0,0-7.14072-.04067c-9.72284.4182-19.28128,2.38687-28.77975,4.37841q-4.31316.90435-8.64184,1.73242c-6.01064,1.14982-12.15181,2.21116-17.73607,4.82648-1.48031.69328-2.55342,1.04806-3.08164,2.53739-.1988.56055-.33629,1.15159-.503,1.72256l-4.59562,15.73722-6.853,23.46721-8.36328,28.63913-9.12657,31.253-9.14286,31.30871L161.32212,365.1l-6.93437,23.746-4.7096,16.1275-1.73781,5.95094,7.53771,20.20928H412.85028v-42.6524l-61.93708-184.68c-5.8965-2.38475-11.9462-4.22668-17.94789-6.30536-5.53008-1.91533-11.61122-2.039-17.25489-3.68935C312.00531,192.72311,307.50387,193.02669,303.65779,192.58993Z"/></g><ellipse class="i" cx="279.68261" cy="105.37928" rx="63.4091" ry="13.12351"/><path class="b" d="M393.41034,399.63726l-55.61756-195.836h-.60171c0,6.98614-25.7402,12.64945-57.49231,12.64945s-57.49231-5.66331-57.49231-12.64945h-.63424L165.955,399.63733a13.67653,13.67653,0,0,0,13.15637,17.41308H380.254A13.67683,13.67683,0,0,0,393.41034,399.63726Z"/><g class="j"><path class="k" d="M257.41426,262.61822c-28.84181,4.469-58.13244,6.29624-86.57756,12.83056s-56.625,18.32338-76.76012,39.45151c-11.66189,12.237-20.57245,28.8161-17.95551,45.51626,2.05123,13.09,11.00468,24.33661,21.93309,31.82829s23.74413,11.69317,36.51424,15.22583c74.25136,20.54052,156.51867,20.7286,225.64542-13.28124,13.90016-6.83877,27.29-15.09294,38.188-26.10277s19.21421-24.981,21.62539-40.28357c2.48517-15.77217-1.48981-32.23248-9.715-45.91764A92.18483,92.18483,0,0,0,383.039,253.65787a89.446,89.446,0,0,0-16.5116-8.80486c-7.67978-3.18382-12.1877-7.99135-20.31777-4.91245-9.51758,3.60435-19.31018,6.61892-29.08109,9.451A476.87951,476.87951,0,0,1,257.41426,262.61822Z"/><path class="l" d="M279.53524,314.12364c-28.84181,4.469-58.13244,6.29624-86.57756,12.83056s-56.625,18.32338-76.76012,39.45151c-11.66189,12.237-20.57246,28.8161-17.95551,45.51626,2.05123,13.09,11.00468,24.33661,21.93309,31.82829s23.74412,11.69316,36.51424,15.22583c74.25135,20.54052,156.51867,20.7286,225.64542-13.28124,13.90016-6.83877,27.29-15.09294,38.188-26.10277s19.21421-24.981,21.62539-40.28357c2.48517-15.77217-1.48981-32.23248-9.715-45.91764A92.18474,92.18474,0,0,0,405.16,305.16329a89.4462,89.4462,0,0,0-16.51159-8.80487c-7.67978-3.18381-12.1877-7.99134-20.31777-4.91244-9.51759,3.60435-19.31018,6.61892-29.08109,9.45095A476.87951,476.87951,0,0,1,279.53524,314.12364Z"/></g><ellipse class="m" cx="279.69883" cy="203.80125" rx="57.49233" ry="12.64945"/><g class="n"><circle class="o" cx="250.34613" cy="219.89171" r="21.94151"/><ellipse class="p" cx="248.80253" cy="207.79793" rx="14.66347" ry="8.84042" transform="translate(-15.03077 19.45073) rotate(-4.34581)"/><circle class="q" cx="262.01897" cy="208.8751" r="1.79686"/><circle class="r" cx="264.8262" cy="211.2348" r="0.65147"/><circle class="s" cx="240.71485" cy="234.74701" r="0.65147"/><path class="t" d="M232.88835,221.49335c-.2153,4.23544,2.3335,10.34468,6.39729,12.13752"/><circle class="u" cx="260.22212" cy="231.82523" r="1.99438"/></g><g class="v"><circle class="w" cx="310.52365" cy="189.55488" r="12.40003"/><ellipse class="x" cx="309.6513" cy="182.72019" rx="8.28692" ry="4.99608" transform="translate(-12.95553 23.98951) rotate(-4.34581)"/><circle class="y" cx="317.12044" cy="183.32894" r="1.01548"/><circle class="z" cx="318.70692" cy="184.6625" r="0.36817"/><circle class="aa" cx="305.08063" cy="197.9502" r="0.36817"/><path class="ab" d="M300.65755,190.46c-.12167,2.39361,1.31876,5.84619,3.61537,6.8594"/><circle class="ac" cx="316.10497" cy="196.29899" r="1.1271"/></g><g class="v"><circle class="ad" cx="284.24818" cy="161.63356" r="6.59679"/><ellipse class="ae" cx="283.78409" cy="157.99752" rx="4.40863" ry="2.6579" transform="matrix(0.99712, -0.07578, 0.07578, 0.99712, -11.15651, 21.95831)"/><circle class="af" cx="287.75767" cy="158.32138" r="0.54023"/><circle class="ag" cx="288.60167" cy="159.03083" r="0.19587"/><circle class="ah" cx="281.3525" cy="166.09986" r="0.19587"/><path class="ai" d="M278.99944,162.1151a4.10837,4.10837,0,0,0,1.92337,3.64919"/><circle class="aj" cx="287.21743" cy="165.22142" r="0.59962"/></g><g class="v"><circle class="ak" cx="283.64354" cy="261.27777" r="14.48007"/><ellipse class="al" cx="282.62486" cy="253.2966" rx="9.67701" ry="5.83414" transform="translate(-18.38124 22.14447) rotate(-4.34581)"/><circle class="am" cx="291.34692" cy="254.00747" r="1.18582"/><circle class="an" cx="293.19952" cy="255.56473" r="0.42993"/><circle class="ao" cx="277.28748" cy="271.08137" r="0.42993"/><path class="ap" d="M272.12246,262.33476c-.14208,2.79513,1.54,6.82686,4.22183,8.01"/><circle class="aq" cx="290.1611" cy="269.15318" r="1.31617"/></g><g class="v"><circle class="ar" cx="255.87904" cy="300.91654" r="7.70337"/><ellipse class="as" cx="255.3371" cy="296.67057" rx="5.14815" ry="3.10376" transform="translate(-21.7464 20.20141) rotate(-4.34581)"/><circle class="at" cx="259.97722" cy="297.04875" r="0.63085"/><circle class="au" cx="260.9628" cy="297.87721" r="0.22872"/><circle class="av" cx="252.49763" cy="306.13204" r="0.22872"/><path class="aw" d="M249.74985,301.47885c-.07559,1.487.81926,3.63188,2.246,4.26133"/><circle class="ax" cx="259.34637" cy="305.10624" r="0.7002"/></g><g class="ay"><path class="az" d="M343.08556,287.01635a6.22824,6.22824,0,0,1-6.087-4.945L316.8306,186.314a6.22784,6.22784,0,0,1-.13378-1.28307v-57.658a6.22685,6.22685,0,1,1,12.45371,0v57.00979l20.03418,95.12252a6.23272,6.23272,0,0,1-6.09915,7.51115Z"/></g><g class="ba"><path class="bb" d="M191.1646,393.94773a6.85622,6.85622,0,0,1-6.63063-8.59051l40.24714-153.3406a6.84962,6.84962,0,0,1,13.25032,3.47828L197.78428,388.8355A6.85071,6.85071,0,0,1,191.1646,393.94773Z"/></g><circle class="bc" cx="216.02885" cy="284.76083" r="19.98648"/><circle class="bd" cx="194.00804" cy="354.62963" r="0.6662"/><circle class="be" cx="192.29808" cy="360.05487" r="0.6662"/><circle class="bf" cx="193.24731" cy="357.04314" r="4.99665"/><line class="bg" x1="211.2827" y1="299.81961" x2="192.29808" y2="360.05487"/><circle class="bh" cx="211.2827" cy="299.81961" r="13.32427"/><circle class="bi" cx="211.2827" cy="299.81961" r="6.66221"/><circle class="bj" cx="211.2827" cy="299.81961" r="5.55184"/><polyline class="bk" points="211.283 299.82 207.697 321.408 211.283 299.82 214.868 278.231 211.283 299.82 189.694 296.234 211.283 299.82 232.871 303.405 211.283 299.82 214.227 327.958 211.283 299.82 208.338 271.681 211.283 299.82 183.144 302.764 211.283 299.82 239.421 296.875 211.283 299.82 225.145 322.906 211.283 299.82 197.421 276.733 211.283 299.82 188.196 313.682 211.283 299.82 234.369 285.958 211.283 299.82 206.992 318.13 211.283 299.82 215.574 281.51 211.283 299.82 192.973 295.529 211.283 299.82 229.593 304.111 211.283 299.82 211.117 302.039 211.283 299.82 211.448 297.6 211.283 299.82 209.063 299.654 211.283 299.82 213.502 299.985 211.283 299.82 197.058 324.396 211.283 299.82 225.508 275.243 211.283 299.82 186.706 285.595 211.283 299.82 235.859 314.045 211.283 299.82 205.192 307.584 211.283 299.82 217.373 292.055 211.283 299.82 203.518 293.729 211.283 299.82 219.047 305.91 211.283 299.82 214.427 306.503 211.283 299.82 208.139 293.137 211.283 299.82 204.6 302.964 211.283 299.82 217.966 296.676 211.283 299.82 236.28 321.737 211.283 299.82 186.286 277.902 211.283 299.82 189.366 324.817 211.283 299.82 233.2 274.823 211.283 299.82 216.813 326.941 211.283 299.82 205.752 272.698 211.283 299.82 184.161 305.35 211.283 299.82 238.404 294.289 211.283 299.82 216.301 331.58 211.283 299.82 206.264 268.06 211.283 299.82 179.523 304.838 211.283 299.82 243.043 294.801 211.283 299.82 213.895 305.61 211.283 299.82 208.67 294.029 211.283 299.82 205.492 302.432 211.283 299.82 217.073 297.207 211.283 299.82 228.408 315.187 211.283 299.82 194.157 284.452 211.283 299.82 195.915 316.945 211.283 299.82 226.65 282.694 211.283 299.82 202.814 322.923 211.283 299.82 219.751 276.716 211.283 299.82 188.179 291.351 211.283 299.82 234.386 308.288 211.283 299.82 212.547 319.909 211.283 299.82 210.018 279.731 211.283 299.82 191.194 301.084 211.283 299.82 231.372 298.555"/><circle class="bl" cx="192.29808" cy="360.05487" r="9.9933"/><circle class="bm" cx="195.96427" cy="348.42306" r="2.8404"/><circle class="bn" cx="205.86004" cy="317.0251" r="1.58647"/><circle class="bo" cx="199.82291" cy="336.18006" r="1.05071"/><circle class="bp" cx="198.8676" cy="339.21094" r="1.47759"/><circle class="bq" cx="196.15095" cy="347.83025" r="2.74344"/><circle class="br" cx="232.8757" cy="114.92654" r="10.30064"/><circle class="bs" cx="324.90716" cy="195.49609" r="19.49085"/><circle class="bt" cx="336.15989" cy="278.23743" r="0.64971"/><circle class="bu" cx="337.08601" cy="285.0463" r="0.64971"/><circle class="bv" cx="336.59893" cy="281.46426" r="4.87267"/><line class="bg" x1="327.34287" y1="213.40614" x2="337.08601" y2="285.0463"/><circle class="bw" cx="327.34287" cy="213.40614" r="12.99396"/><circle class="bx" cx="327.34287" cy="213.40614" r="6.49689"/><circle class="by" cx="327.34287" cy="213.40614" r="5.41414"/><polyline class="bk" points="327.343 213.406 332.19 213.58 327.343 213.406 322.496 213.233 327.343 213.406 327.169 218.253 327.343 213.406 327.516 208.559 327.343 213.406 335.437 236.439 327.343 213.406 319.249 190.373 327.343 213.406 304.31 221.5 327.343 213.406 350.376 205.312 327.343 213.406 336.738 225.785 327.343 213.406 317.948 201.028 327.343 213.406 314.965 222.801 327.343 213.406 339.721 204.011 327.343 213.406 330.041 226.311 327.343 213.406 324.644 200.502 327.343 213.406 314.439 216.104 327.343 213.406 340.247 210.708 327.343 213.406 332.532 216.911 327.343 213.406 322.154 209.902 327.343 213.406 323.838 218.595 327.343 213.406 330.847 208.217 327.343 213.406 341.398 223.198 327.343 213.406 313.288 203.615 327.343 213.406 317.551 227.461 327.343 213.406 337.134 199.351 327.343 213.406 342.006 214.82 327.343 213.406 312.68 211.992 327.343 213.406 325.929 228.069 327.343 213.406 328.757 198.743 327.343 213.406 332.962 231.127 327.343 213.406 321.724 195.685 327.343 213.406 309.622 219.025 327.343 213.406 345.064 207.787 327.343 213.406 328.87 214.137 327.343 213.406 325.815 212.676 327.343 213.406 326.612 214.934 327.343 213.406 328.073 211.879 327.343 213.406 348.963 229.955 327.343 213.406 305.723 196.858 327.343 213.406 310.794 235.026 327.343 213.406 343.891 191.786 327.343 213.406 329.111 230.523 327.343 213.406 325.575 196.29 327.343 213.406 310.226 215.174 327.343 213.406 344.459 211.638 327.343 213.406 351.648 216.937 327.343 213.406 303.037 209.876 327.343 213.406 323.812 237.712 327.343 213.406 330.873 189.101 327.343 213.406 327.55 244.438 327.343 213.406 327.136 182.374 327.343 213.406 296.311 213.613 327.343 213.406 358.375 213.199 327.343 213.406 335.428 232.585 327.343 213.406 319.258 194.227 327.343 213.406 308.164 221.491 327.343 213.406 346.521 205.321 327.343 213.406 333.364 232.607 327.343 213.406 321.322 194.205 327.343 213.406 308.142 219.428 327.343 213.406 346.544 207.385"/><circle class="bz" cx="337.08601" cy="285.0463" r="9.74535"/><circle class="ca" cx="334.72783" cy="267.70581" r="1.10156"/><circle class="cb" cx="328.30943" cy="220.51343" r="2.14261"/><circle class="cc" cx="331.26384" cy="242.23758" r="1.97926"/><circle class="cd" cx="329.82692" cy="231.67199" r="2.49165"/><circle class="ce" cx="336.38397" cy="279.88376" r="0.70539"/></g></svg>