<svg xmlns="http://www.w3.org/2000/svg" xmlns:xlink="http://www.w3.org/1999/xlink" viewBox="0 0 523.92572 512.20828"><defs><style>.a,.i{opacity:0.72;}.a{fill:url(#a);}.b,.ba,.k,.l,.m{opacity:0.8;}.b{fill:url(#b);}.c{isolation:isolate;}.d{fill:#683c11;fill-opacity:0.51;}.e,.g{mix-blend-mode:multiply;}.e{fill:url(#c);}.f{clip-path:url(#e);}.g{fill:url(#f);}.h{opacity:0.42;fill:url(#g);}.i{fill:url(#h);}.j{clip-path:url(#j);}.k{fill:url(#k);}.l{fill:url(#l);}.bm,.m{stroke-miterlimit:10;}.m,.t{stroke-width:1.24537px;}.m{fill:url(#m);stroke:url(#n);}.bc,.bd,.bk,.bn,.bz,.cb,.n{opacity:0.5;}.o{fill:url(#o);}.aa,.ab,.ae,.ah,.ai,.al,.ao,.ap,.as,.av,.aw,.p,.s,.t,.x{mix-blend-mode:soft-light;}.p{fill:url(#p);}.q{fill:url(#q);}.r{fill:url(#r);}.s{fill:url(#s);}.ab,.ai,.ap,.aw,.bi,.bm,.t{fill:none;}.ab,.ai,.ap,.aw,.t{stroke-linecap:round;stroke-linejoin:round;}.t{stroke:url(#t);}.u{fill:url(#u);}.v{opacity:0.3;}.w{fill:url(#v);}.x{fill:url(#w);}.y{fill:url(#x);}.z{fill:url(#y);}.aa{fill:url(#z);}.ab{stroke-width:0.70381px;stroke:url(#aa);}.ac{fill:url(#ab);}.ad{fill:url(#ac);}.ae{fill:url(#ad);}.af{fill:url(#ae);}.ag{fill:url(#af);}.ah{fill:url(#ag);}.ai{stroke-width:0.37443px;stroke:url(#ah);}.aj{fill:url(#ai);}.ak{fill:url(#aj);}.al{fill:url(#ak);}.am{fill:url(#al);}.an{fill:url(#am);}.ao{fill:url(#an);}.ap{stroke-width:0.82187px;stroke:url(#ao);}.aq{fill:url(#ap);}.ar{fill:url(#aq);}.as{fill:url(#ar);}.at{fill:url(#as);}.au{fill:url(#at);}.av{fill:url(#au);}.aw{stroke-width:0.43723px;stroke:url(#av);}.ax{fill:url(#aw);}.ay{opacity:0.54;}.az{fill:url(#ax);}.ba{mix-blend-mode:hard-light;}.bb{fill:url(#ay);}.bc{fill:url(#az);}.bd{fill:url(#ba);}.be,.bu{opacity:0.25;}.be,.bf,.bg,.bh,.bj,.bk,.bl,.bm,.bn,.bo,.bp,.bq,.br,.bs,.bu,.bv,.bw,.bx,.by,.bz,.ca,.cb,.cc,.cd,.ce,.cf,.cg{mix-blend-mode:screen;}.be{fill:url(#bb);}.bf{fill:url(#bc);}.bg{fill:url(#bd);}.bh,.bx{opacity:0.2;}.bh{fill:url(#be);}.bj,.by{opacity:0.15;}.bj{fill:url(#bf);}.bk{fill:url(#bg);}.bl{fill:url(#bh);}.bm{stroke:#fff;stroke-width:2.49074px;opacity:0.03;}.bn{fill:url(#bi);}.bo{fill:url(#bj);}.bp{fill:url(#bk);}.bq{fill:url(#bl);}.br{fill:url(#bm);}.bs{fill:url(#bn);}.bt{fill:url(#bo);}.bu{fill:url(#bp);}.bv{fill:url(#bq);}.bw{fill:url(#br);}.bx{fill:url(#bs);}.by{fill:url(#bt);}.bz{fill:url(#bu);}.ca{fill:url(#bv);}.cb{fill:url(#bw);}.cc{fill:url(#bx);}.cd{fill:url(#by);}.ce{fill:url(#bz);}.cf{fill:url(#ca);}.cg{fill:url(#cb);}</style><linearGradient id="a" x1="212.32873" y1="266.27345" x2="343.08996" y2="266.27345" gradientUnits="userSpaceOnUse"><stop offset="0" stop-color="#f5fbff"/><stop offset="0.62567" stop-color="#e9f1f5"/><stop offset="1" stop-color="#c5d9e0"/></linearGradient><linearGradient id="b" x1="350.50991" y1="436.93081" x2="195.81223" y2="231.90087" gradientUnits="userSpaceOnUse"><stop offset="0" stop-color="#cdcc00"/><stop offset="1" stop-color="#f7f200"/></linearGradient><linearGradient id="c" x1="314.63593" y1="122.44706" x2="282.52372" y2="383.9987" gradientUnits="userSpaceOnUse"><stop offset="0" stop-color="#bfc4c7"/><stop offset="1" stop-color="#b1c3c9"/></linearGradient><clipPath id="e"><path class="a" d="M408.26618,405.729,343.09033,176.23912V105.3574c0,7.24792-28.38906,13.12353-63.409,13.12353s-63.409-5.87561-63.409-13.12353v70.88172L151.09609,405.729a16.974,16.974,0,0,0,16.37043,21.46046H391.89575A16.974,16.974,0,0,0,408.26618,405.729Z"/></clipPath><linearGradient id="f" x1="221.87891" y1="261.49959" x2="298.12045" y2="458.40165" gradientUnits="userSpaceOnUse"><stop offset="0" stop-color="#f5f5f5"/><stop offset="1" stop-color="#c3d1d6"/></linearGradient><linearGradient id="g" x1="494.25042" y1="310.80303" x2="264.75065" y2="310.80303" xlink:href="#b"/><linearGradient id="h" x1="279.68125" y1="79.10938" x2="279.68125" y2="118.21031" xlink:href="#a"/><clipPath id="j"><path class="b" d="M393.409,399.61536l-55.61756-195.836h-.60171c0,6.98613-25.74021,12.64944-57.49231,12.64944s-57.49231-5.66331-57.49231-12.64944h-.63424L165.95359,399.61544A13.67654,13.67654,0,0,0,179.11,417.02852H380.25262A13.67684,13.67684,0,0,0,393.409,399.61536Z"/></clipPath><linearGradient id="k" x1="526.80146" y1="330.24601" x2="227.83135" y2="330.24601" xlink:href="#b"/><linearGradient id="l" x1="97.78137" y1="381.75143" x2="442.88043" y2="381.75143" xlink:href="#b"/><linearGradient id="m" x1="381.80301" y1="203.77936" x2="245.55636" y2="203.77936" xlink:href="#b"/><linearGradient id="n" x1="221.58245" y1="203.77936" x2="337.81248" y2="203.77936" gradientUnits="userSpaceOnUse"><stop offset="0" stop-color="#fffe00"/><stop offset="1" stop-color="#f7f200"/></linearGradient><radialGradient id="o" cx="250.34477" cy="219.86981" r="20.84617" gradientTransform="matrix(0.2537, -0.96728, 0.95587, 0.2507, -23.33469, 406.90184)" gradientUnits="userSpaceOnUse"><stop offset="0" stop-color="#d9d300" stop-opacity="0.8"/><stop offset="0.51007" stop-color="#dcd600" stop-opacity="0.8018"/><stop offset="0.89318" stop-color="#e6e000" stop-opacity="0.8075"/><stop offset="1" stop-color="#ebe400" stop-opacity="0.81"/></radialGradient><radialGradient id="p" cx="789.42665" cy="510.33753" r="13.50603" gradientTransform="translate(-733.36509 -185.73285) scale(1.24415 0.77108)" gradientUnits="userSpaceOnUse"><stop offset="0" stop-color="#daf500"/><stop offset="0.37565" stop-color="#daf500" stop-opacity="0.99235"/><stop offset="0.51098" stop-color="#daf500" stop-opacity="0.96463"/><stop offset="0.60743" stop-color="#daf400" stop-opacity="0.91636"/><stop offset="0.68546" stop-color="#daf400" stop-opacity="0.84737"/><stop offset="0.75234" stop-color="#daf300" stop-opacity="0.75741"/><stop offset="0.81149" stop-color="#dbf200" stop-opacity="0.64643"/><stop offset="0.86508" stop-color="#dbf100" stop-opacity="0.51392"/><stop offset="0.91432" stop-color="#dbf000" stop-opacity="0.35972"/><stop offset="0.95807" stop-color="#dcef00" stop-opacity="0.19202"/><stop offset="0.99887" stop-color="#dced00" stop-opacity="0.00559"/><stop offset="1" stop-color="#dced00" stop-opacity="0"/></radialGradient><radialGradient id="q" cx="262.01761" cy="208.8532" r="1.70715" gradientTransform="matrix(0.2537, -0.96728, 0.95587, 0.2507, -4.09273, 409.93809)" gradientUnits="userSpaceOnUse"><stop offset="0" stop-color="#dff513"/><stop offset="0.37565" stop-color="#dff513" stop-opacity="0.99235"/><stop offset="0.51098" stop-color="#dff512" stop-opacity="0.96463"/><stop offset="0.60743" stop-color="#dff411" stop-opacity="0.91636"/><stop offset="0.68546" stop-color="#dff410" stop-opacity="0.84737"/><stop offset="0.75234" stop-color="#def30e" stop-opacity="0.75741"/><stop offset="0.81149" stop-color="#def20c" stop-opacity="0.64643"/><stop offset="0.86508" stop-color="#def10a" stop-opacity="0.51392"/><stop offset="0.91432" stop-color="#ddf007" stop-opacity="0.35972"/><stop offset="0.95807" stop-color="#ddef04" stop-opacity="0.19202"/><stop offset="0.99887" stop-color="#dced00" stop-opacity="0.00559"/><stop offset="1" stop-color="#dced00" stop-opacity="0"/></radialGradient><radialGradient id="r" cx="264.82484" cy="211.2129" r="0.61895" gradientTransform="matrix(0.2537, -0.96728, 0.95587, 0.2507, -4.25327, 414.42159)" gradientUnits="userSpaceOnUse"><stop offset="0" stop-color="#dff513"/><stop offset="0.22189" stop-color="#dff513" stop-opacity="0.98946"/><stop offset="0.35942" stop-color="#dff512" stop-opacity="0.95468"/><stop offset="0.47406" stop-color="#dff411" stop-opacity="0.89532"/><stop offset="0.57607" stop-color="#def30f" stop-opacity="0.8113"/><stop offset="0.66973" stop-color="#def30d" stop-opacity="0.70243"/><stop offset="0.75734" stop-color="#def20b" stop-opacity="0.56845"/><stop offset="0.84023" stop-color="#ddf008" stop-opacity="0.40925"/><stop offset="0.91926" stop-color="#ddef04" stop-opacity="0.22473"/><stop offset="0.99277" stop-color="#dced00" stop-opacity="0.0217"/><stop offset="1" stop-color="#dced00" stop-opacity="0"/></radialGradient><radialGradient id="s" cx="240.71349" cy="234.72511" r="0.61895" gradientTransform="matrix(0.2537, -0.96728, 0.95587, 0.2507, -44.72232, 408.71667)" xlink:href="#r"/><radialGradient id="t" cx="236.07931" cy="227.54022" r="5.45098" gradientTransform="matrix(1, 0, 0, 1, 0, 0)" xlink:href="#q"/><radialGradient id="u" cx="260.22076" cy="231.80333" r="2.48527" gradientTransform="translate(0 33.67413) scale(1 0.85473)" gradientUnits="userSpaceOnUse"><stop offset="0" stop-color="#daf500"/><stop offset="0.08908" stop-color="#daf500" stop-opacity="0.96952"/><stop offset="0.22315" stop-color="#daf400" stop-opacity="0.88526"/><stop offset="0.38563" stop-color="#dbf300" stop-opacity="0.74727"/><stop offset="0.5704" stop-color="#dbf100" stop-opacity="0.55531"/><stop offset="0.77384" stop-color="#dbef00" stop-opacity="0.30932"/><stop offset="0.99008" stop-color="#dced00" stop-opacity="0.01428"/><stop offset="1" stop-color="#dced00" stop-opacity="0"/></radialGradient><radialGradient id="v" cx="310.52228" cy="189.53298" r="11.78101" gradientTransform="matrix(0.2537, -0.96728, 0.95587, 0.2507, 50.57412, 442.37931)" xlink:href="#o"/><radialGradient id="w" cx="839.72126" cy="487.73015" r="7.6328" gradientTransform="translate(-735.09043 -193.37859) scale(1.24415 0.77108)" xlink:href="#p"/><radialGradient id="x" cx="317.11908" cy="183.30705" r="0.96478" gradientTransform="matrix(0.2537, -0.96728, 0.95587, 0.2507, 61.44852, 444.09522)" xlink:href="#q"/><radialGradient id="y" cx="318.70556" cy="184.64061" r="0.34979" gradientTransform="matrix(0.2537, -0.96728, 0.95587, 0.2507, 61.3578, 446.62903)" xlink:href="#r"/><radialGradient id="z" cx="305.07926" cy="197.92831" r="0.34979" gradientTransform="matrix(0.2537, -0.96728, 0.95587, 0.2507, 38.48711, 443.40495)" xlink:href="#r"/><radialGradient id="aa" cx="302.4603" cy="193.86783" r="3.08057" gradientTransform="matrix(1, 0, 0, 1, 0, 0)" xlink:href="#q"/><radialGradient id="ab" cx="316.1036" cy="196.27709" r="1.40453" gradientTransform="translate(0 28.51322) scale(1 0.85473)" xlink:href="#u"/><radialGradient id="ac" cx="284.24682" cy="161.61166" r="6.26748" gradientTransform="matrix(0.2537, -0.96728, 0.95587, 0.2507, 57.6539, 396.04218)" xlink:href="#o"/><radialGradient id="ad" cx="820.49575" cy="458.23135" r="4.06064" gradientTransform="translate(-737.03819 -195.35544) scale(1.24415 0.77108)" xlink:href="#p"/><radialGradient id="ae" cx="287.7563" cy="158.29948" r="0.51326" gradientTransform="matrix(0.2537, -0.96728, 0.95587, 0.2507, 63.43907, 396.95504)" xlink:href="#q"/><radialGradient id="af" cx="288.60031" cy="159.00893" r="0.18609" gradientTransform="matrix(0.2537, -0.96728, 0.95587, 0.2507, 63.39081, 398.30302)" xlink:href="#r"/><radialGradient id="ag" cx="281.35114" cy="166.07796" r="0.18609" gradientTransform="matrix(0.2537, -0.96728, 0.95587, 0.2507, 51.22364, 396.58781)" xlink:href="#r"/><radialGradient id="ah" cx="279.95786" cy="163.9178" r="1.63886" gradientTransform="matrix(1, 0, 0, 1, 0, 0)" xlink:href="#q"/><radialGradient id="ai" cx="287.21607" cy="165.19952" r="0.74721" gradientTransform="translate(0 23.99858) scale(1 0.85473)" xlink:href="#u"/><radialGradient id="aj" cx="283.64218" cy="261.25588" r="13.75721" gradientTransform="matrix(0.2537, -0.96728, 0.95587, 0.2507, -38.04457, 470.12027)" xlink:href="#o"/><radialGradient id="ak" cx="813.76242" cy="563.46833" r="8.91317" gradientTransform="translate(-729.82013 -181.20204) scale(1.24415 0.77108)" xlink:href="#p"/><radialGradient id="al" cx="291.34555" cy="253.98558" r="1.12662" gradientTransform="matrix(0.2537, -0.96728, 0.95587, 0.2507, -25.34604, 472.12401)" xlink:href="#q"/><radialGradient id="am" cx="293.19816" cy="255.54283" r="0.40847" gradientTransform="matrix(0.2537, -0.96728, 0.95587, 0.2507, -25.45198, 475.08285)" xlink:href="#r"/><radialGradient id="an" cx="277.28612" cy="271.05948" r="0.40847" gradientTransform="matrix(0.2537, -0.96728, 0.95587, 0.2507, -52.15912, 471.31795)" xlink:href="#r"/><radialGradient id="ao" cx="274.22784" cy="266.31788" r="3.59732" gradientTransform="matrix(1, 0, 0, 1, 0, 0)" xlink:href="#q"/><radialGradient id="ap" cx="290.15974" cy="269.13128" r="1.64013" gradientTransform="translate(0 39.09677) scale(1 0.85473)" xlink:href="#u"/><radialGradient id="aq" cx="255.87768" cy="300.89464" r="7.31881" gradientTransform="matrix(0.2537, -0.96728, 0.95587, 0.2507, -96.65493, 472.96526)" xlink:href="#o"/><radialGradient id="ar" cx="789.25092" cy="609.11762" r="4.74179" gradientTransform="translate(-726.61188 -173.02713) scale(1.24415 0.77108)" xlink:href="#p"/><radialGradient id="as" cx="259.97586" cy="297.02685" r="0.59936" gradientTransform="matrix(0.2537, -0.96728, 0.95587, 0.2507, -89.89933, 474.03125)" xlink:href="#q"/><radialGradient id="at" cx="260.96144" cy="297.85531" r="0.21731" gradientTransform="matrix(0.2537, -0.96728, 0.95587, 0.2507, -89.95569, 475.60535)" xlink:href="#r"/><radialGradient id="au" cx="252.49627" cy="306.11014" r="0.21731" gradientTransform="matrix(0.2537, -0.96728, 0.95587, 0.2507, -104.16384, 473.60243)" xlink:href="#r"/><radialGradient id="av" cx="250.86926" cy="303.58762" r="1.91377" gradientTransform="matrix(1, 0, 0, 1, 0, 0)" xlink:href="#q"/><radialGradient id="aw" cx="259.34501" cy="305.08434" r="0.87255" gradientTransform="translate(0 44.31968) scale(1 0.85473)" xlink:href="#u"/><radialGradient id="ax" cx="329.14126" cy="187.62955" r="96.86305" gradientTransform="translate(304.82191 -141.33168) rotate(81.99169) scale(1 0.11591)" gradientUnits="userSpaceOnUse"><stop offset="0" stop-color="#e6f3ff"/><stop offset="1" stop-color="#b9cbf0" stop-opacity="0"/></radialGradient><radialGradient id="ay" cx="211.28134" cy="310.40411" r="79.87596" gradientTransform="matrix(0.2537, -0.96728, 0.15236, 0.03996, 110.38791, 502.36946)" xlink:href="#ax"/><radialGradient id="az" cx="347.41153" cy="294.69148" r="5.63016" gradientTransform="matrix(1, 0, 0, 1, 0, 0)" xlink:href="#ax"/><radialGradient id="ba" cx="329.30427" cy="185.03568" r="5.63016" gradientTransform="matrix(1, 0, 0, 1, 0, 0)" xlink:href="#ax"/><radialGradient id="bb" cx="216.02749" cy="284.73893" r="19.98648" gradientUnits="userSpaceOnUse"><stop offset="0.1"/><stop offset="0.11244" stop-color="#080602"/><stop offset="0.16172" stop-color="#231b08"/><stop offset="0.21838" stop-color="#392c0d"/><stop offset="0.28458" stop-color="#4a3910"/><stop offset="0.36644" stop-color="#554213"/><stop offset="0.48125" stop-color="#5c4815"/><stop offset="0.8" stop-color="#5e4915"/><stop offset="1"/></radialGradient><radialGradient id="bc" cx="194.00667" cy="354.60773" r="0.6662" gradientUnits="userSpaceOnUse"><stop offset="0" stop-color="#d4e194"/><stop offset="0.05952" stop-color="#afba7a"/><stop offset="0.13651" stop-color="#868f5e"/><stop offset="0.21955" stop-color="#626845"/><stop offset="0.30759" stop-color="#44482f"/><stop offset="0.40211" stop-color="#2b2e1e"/><stop offset="0.50556" stop-color="#181911"/><stop offset="0.62249" stop-color="#0a0b07"/><stop offset="0.76429" stop-color="#020302"/><stop offset="1"/></radialGradient><radialGradient id="bd" cx="192.29672" cy="360.03297" r="0.6662" xlink:href="#bc"/><radialGradient id="be" cx="193.24595" cy="357.02124" r="4.99665" gradientUnits="userSpaceOnUse"><stop offset="0.05"/><stop offset="0.09242" stop-color="#040a03"/><stop offset="0.29802" stop-color="#183411"/><stop offset="0.48337" stop-color="#25531c"/><stop offset="0.64031" stop-color="#2e6622"/><stop offset="0.75" stop-color="#316d24"/><stop offset="0.78593" stop-color="#4f6e16"/><stop offset="0.83397" stop-color="#716f06"/><stop offset="0.86" stop-color="#7e6f00"/><stop offset="0.88764" stop-color="#7a6c00"/><stop offset="0.91229" stop-color="#706200"/><stop offset="0.93581" stop-color="#5d5200"/><stop offset="0.95863" stop-color="#443c00"/><stop offset="0.98074" stop-color="#231f00"/><stop offset="1"/></radialGradient><radialGradient id="bf" cx="211.28134" cy="299.79771" r="13.32427" gradientUnits="userSpaceOnUse"><stop offset="0" stop-color="#200"/><stop offset="0.73" stop-color="#984023"/><stop offset="1" stop-color="#200"/></radialGradient><radialGradient id="bg" cx="211.28134" cy="299.79771" r="6.66221" gradientUnits="userSpaceOnUse"><stop offset="0.15" stop-color="#fff"/><stop offset="0.20939" stop-color="#e5d3d3"/><stop offset="0.29044" stop-color="#c49c9e"/><stop offset="0.36051" stop-color="#ad7477"/><stop offset="0.41599" stop-color="#9e5c5f"/><stop offset="0.45" stop-color="#995356"/><stop offset="0.57175" stop-color="#6b3335"/><stop offset="0.69355" stop-color="#431718"/><stop offset="0.79053" stop-color="#2b0606"/><stop offset="0.85" stop-color="#200"/><stop offset="0.85727" stop-color="#260201"/><stop offset="0.8648" stop-color="#330704"/><stop offset="0.87246" stop-color="#471009"/><stop offset="0.8802" stop-color="#641d0f"/><stop offset="0.88801" stop-color="#8a2e18"/><stop offset="0.89577" stop-color="#b74223"/><stop offset="0.9" stop-color="#d34e29"/><stop offset="0.90254" stop-color="#c84927"/><stop offset="0.91417" stop-color="#9c361c"/><stop offset="0.92635" stop-color="#772514"/><stop offset="0.93893" stop-color="#58180c"/><stop offset="0.95205" stop-color="#400d07"/><stop offset="0.96594" stop-color="#2f0603"/><stop offset="0.98111" stop-color="#250101"/><stop offset="1" stop-color="#200"/></radialGradient><radialGradient id="bh" cx="211.28134" cy="299.79771" r="5.55184" gradientUnits="userSpaceOnUse"><stop offset="0.15" stop-color="#fff"/><stop offset="0.28237" stop-color="#c2c2c2"/><stop offset="0.42528" stop-color="#888"/><stop offset="0.5636" stop-color="#575757"/><stop offset="0.69361" stop-color="#313131"/><stop offset="0.81336" stop-color="#161616"/><stop offset="0.91921" stop-color="#060606"/><stop offset="1"/></radialGradient><radialGradient id="bi" cx="192.29672" cy="360.03297" r="9.9933" gradientUnits="userSpaceOnUse"><stop offset="0.64"/><stop offset="0.71799" stop-color="#000200"/><stop offset="0.74608" stop-color="#020902"/><stop offset="0.76609" stop-color="#051405"/><stop offset="0.78228" stop-color="#082509"/><stop offset="0.79598" stop-color="#0d3b0e"/><stop offset="0.8" stop-color="#0f4310"/><stop offset="0.8131" stop-color="#1e2c0a"/><stop offset="0.82975" stop-color="#2d1605"/><stop offset="0.84569" stop-color="#360901"/><stop offset="0.86" stop-color="#390400"/><stop offset="0.8715" stop-color="#250300"/><stop offset="0.88602" stop-color="#140100"/><stop offset="0.90412" stop-color="#090100"/><stop offset="0.92951" stop-color="#020000"/><stop offset="1"/></radialGradient><radialGradient id="bj" cx="195.9629" cy="348.40117" r="2.8404" gradientUnits="userSpaceOnUse"><stop offset="0.1"/><stop offset="0.24639" stop-color="#1b1103"/><stop offset="0.42619" stop-color="#362207"/><stop offset="0.61009" stop-color="#492e09"/><stop offset="0.79889" stop-color="#54350b"/><stop offset="1" stop-color="#58370b"/></radialGradient><radialGradient id="bk" cx="205.85868" cy="317.0032" r="1.58647" gradientUnits="userSpaceOnUse"><stop offset="0.1" stop-color="#192f1b"/><stop offset="0.2285" stop-color="#122214"/><stop offset="0.47516" stop-color="#080f09"/><stop offset="0.72928" stop-color="#020402"/><stop offset="1"/></radialGradient><radialGradient id="bl" cx="199.82155" cy="336.15816" r="1.05071" xlink:href="#bj"/><radialGradient id="bm" cx="198.86624" cy="339.18904" r="1.47759" gradientUnits="userSpaceOnUse"><stop offset="0.1"/><stop offset="0.29001" stop-color="#14160e"/><stop offset="0.51699" stop-color="#25291a"/><stop offset="0.75084" stop-color="#303422"/><stop offset="1" stop-color="#333824"/></radialGradient><radialGradient id="bn" cx="196.14959" cy="347.80835" r="2.74344" xlink:href="#bk"/><radialGradient id="bo" cx="232.87434" cy="114.90465" r="10.30064" gradientUnits="userSpaceOnUse"><stop offset="0" stop-color="#fff"/><stop offset="1" stop-color="#b9cbf0" stop-opacity="0"/></radialGradient><radialGradient id="bp" cx="324.9058" cy="195.4742" r="19.49085" xlink:href="#bb"/><radialGradient id="bq" cx="336.15853" cy="278.21553" r="0.64971" xlink:href="#bc"/><radialGradient id="br" cx="337.08465" cy="285.0244" r="0.64971" xlink:href="#bc"/><radialGradient id="bs" cx="336.59757" cy="281.44237" r="4.87267" xlink:href="#be"/><radialGradient id="bt" cx="327.34151" cy="213.38424" r="12.99396" xlink:href="#bf"/><radialGradient id="bu" cx="327.34151" cy="213.38424" r="6.49689" xlink:href="#bg"/><radialGradient id="bv" cx="327.34151" cy="213.38424" r="5.41414" xlink:href="#bh"/><radialGradient id="bw" cx="337.08465" cy="285.0244" r="9.74535" xlink:href="#bi"/><radialGradient id="bx" cx="334.72647" cy="267.68392" r="1.10156" gradientUnits="userSpaceOnUse"><stop offset="0.1"/><stop offset="0.2047" stop-color="#1c1713"/><stop offset="0.35581" stop-color="#3e3229"/><stop offset="0.51018" stop-color="#59473b"/><stop offset="0.66721" stop-color="#6c5647"/><stop offset="0.82838" stop-color="#775f4f"/><stop offset="1" stop-color="#7b6251"/></radialGradient><radialGradient id="by" cx="328.30807" cy="220.49154" r="2.14261" gradientUnits="userSpaceOnUse"><stop offset="0.1" stop-color="#393a2f"/><stop offset="0.30165" stop-color="#21221c"/><stop offset="0.52494" stop-color="#0f0f0c"/><stop offset="0.75495" stop-color="#040403"/><stop offset="1"/></radialGradient><radialGradient id="bz" cx="331.26248" cy="242.21568" r="1.97926" gradientUnits="userSpaceOnUse"><stop offset="0.1"/><stop offset="0.11031" stop-color="#010100"/><stop offset="0.32262" stop-color="#1c0e05"/><stop offset="0.53968" stop-color="#2f1808"/><stop offset="0.76257" stop-color="#3a1e09"/><stop offset="1" stop-color="#3e200a"/></radialGradient><radialGradient id="ca" cx="329.82556" cy="231.65009" r="2.49165" gradientUnits="userSpaceOnUse"><stop offset="0.1" stop-color="#7e9c95"/><stop offset="0.15454" stop-color="#6e8983"/><stop offset="0.2879" stop-color="#4d5f5b"/><stop offset="0.42427" stop-color="#313d3a"/><stop offset="0.56231" stop-color="#1c2221"/><stop offset="0.70265" stop-color="#0c0f0e"/><stop offset="0.84664" stop-color="#030404"/><stop offset="1"/></radialGradient><radialGradient id="cb" cx="336.38261" cy="279.86186" r="0.70539" gradientUnits="userSpaceOnUse"><stop offset="0.1"/><stop offset="0.22259" stop-color="#1b1722"/><stop offset="0.37027" stop-color="#352e44"/><stop offset="0.52121" stop-color="#4a3f5f"/><stop offset="0.67469" stop-color="#584c72"/><stop offset="0.8322" stop-color="#61547d"/><stop offset="1" stop-color="#645681"/></radialGradient></defs><g class="c"><ellipse class="d" cx="269.16211" cy="422.29703" rx="144.19211" ry="23.28088"/><path class="e" d="M399.724,403.18227,339.40583,176.04172l.00787-66.2699c-17.75085,8.70907-35.47443,8.70911-59.73241,8.70911-25.0409,0-46.6847-3.005-56.99033-7.36688l-2.97677-3.17144.60954,68.81453L159.63826,403.18227a14.43621,14.43621,0,0,0,13.887,18.38H385.837A14.43608,14.43608,0,0,0,399.724,403.18227Z"/><path class="a" d="M408.26618,405.729,343.09033,176.23912V105.3574c0,7.24792-28.38906,13.12353-63.409,13.12353s-63.409-5.87561-63.409-13.12353v70.88172L151.09609,405.729a16.974,16.974,0,0,0,16.37043,21.46046H391.89575A16.974,16.974,0,0,0,408.26618,405.729Z"/><g class="f"><path class="g" d="M401.25967,410.987c0-12.68914-54.23418-24.21532-121.13542-24.21532S158.98884,398.7796,158.98884,411.46873s11.8099,10.1263,121.13541,11.13877C383.88968,423.56848,401.25967,423.67611,401.25967,410.987Z"/><path class="h" d="M303.65643,192.568c-2.80175-.31816-5.59682-.69123-8.39593-1.03118a108.84053,108.84053,0,0,0-15.01056-1.03272c-2.193.03845-4.39639.36006-6.55272.20571a62.46431,62.46431,0,0,0-7.14072-.04066c-9.72284.41819-19.28128,2.38686-28.77975,4.37841q-4.31316.90433-8.64184,1.73241c-6.01064,1.14982-12.15182,2.21117-17.73607,4.82648-1.48031.69328-2.55342,1.04806-3.08164,2.53739-.19881.56055-.33629,1.15159-.503,1.72256l-4.59562,15.73722-6.853,23.46722L188.00231,273.71l-9.12657,31.253-9.14286,31.30872-8.41212,28.80639-6.93437,23.746-4.7096,16.1275L147.939,410.9025l7.53771,20.20928H412.84892v-42.6524l-61.93708-184.68c-5.89651-2.38476-11.9462-4.22669-17.94789-6.30536-5.53008-1.91533-11.61122-2.03905-17.2549-3.68935C312.00395,192.70122,307.5025,193.00479,303.65643,192.568Z"/></g><ellipse class="i" cx="279.68125" cy="105.35738" rx="63.4091" ry="13.12351"/><path class="b" d="M393.409,399.61536l-55.61756-195.836h-.60171c0,6.98613-25.74021,12.64944-57.49231,12.64944s-57.49231-5.66331-57.49231-12.64944h-.63424L165.95359,399.61544A13.67654,13.67654,0,0,0,179.11,417.02852H380.25262A13.67684,13.67684,0,0,0,393.409,399.61536Z"/><g class="j"><path class="k" d="M257.4129,262.59633c-28.84181,4.469-58.13244,6.29623-86.57756,12.83056s-56.625,18.32337-76.76012,39.4515c-11.66189,12.237-20.57246,28.8161-17.95551,45.51627,2.05123,13.09,11.00468,24.3366,21.93309,31.82828s23.74412,11.69317,36.51424,15.22583c74.25135,20.54052,156.51867,20.7286,225.64542-13.28124,13.90016-6.83877,27.29-15.09294,38.188-26.10276s19.21421-24.981,21.62539-40.28357c2.48517-15.77218-1.48981-32.23249-9.715-45.91765A92.18474,92.18474,0,0,0,383.03766,253.636a89.44675,89.44675,0,0,0-16.51159-8.80486c-7.67978-3.18382-12.1877-7.99135-20.31777-4.91245-9.51759,3.60435-19.31018,6.61892-29.08109,9.451A476.88132,476.88132,0,0,1,257.4129,262.59633Z"/><path class="l" d="M279.53388,314.10175c-28.84182,4.469-58.13245,6.29623-86.57757,12.83056s-56.625,18.32337-76.76011,39.4515c-11.66189,12.237-20.57246,28.8161-17.95551,45.51627,2.05122,13.09,11.00468,24.3366,21.93309,31.82828s23.74412,11.69317,36.51424,15.22583c74.25135,20.54052,156.51867,20.7286,225.64542-13.28124,13.90016-6.83877,27.29-15.09294,38.188-26.10276s19.21421-24.981,21.62539-40.28357c2.48517-15.77218-1.48981-32.23249-9.715-45.91765a92.18474,92.18474,0,0,0-27.27322-28.22758,89.44675,89.44675,0,0,0-16.51159-8.80486c-7.67978-3.18382-12.1877-7.99135-20.31777-4.91245-9.51759,3.60435-19.31018,6.61892-29.08109,9.45095A476.88171,476.88171,0,0,1,279.53388,314.10175Z"/></g><ellipse class="m" cx="279.69746" cy="203.77936" rx="57.49233" ry="12.64945"/><g class="n"><circle class="o" cx="250.34477" cy="219.86981" r="21.94151"/><ellipse class="p" cx="248.80117" cy="207.77603" rx="14.66347" ry="8.84042" transform="translate(-15.02911 19.45056) rotate(-4.34581)"/><circle class="q" cx="262.01761" cy="208.8532" r="1.79686"/><circle class="r" cx="264.82484" cy="211.2129" r="0.65147"/><circle class="s" cx="240.71349" cy="234.72511" r="0.65147"/><path class="t" d="M232.887,221.47146c-.2153,4.23543,2.3335,10.34467,6.39729,12.13752"/><circle class="u" cx="260.22076" cy="231.80333" r="1.99438"/></g><g class="v"><circle class="w" cx="310.52228" cy="189.53298" r="12.40003"/><ellipse class="x" cx="309.64994" cy="182.69829" rx="8.28692" ry="4.99608" transform="translate(-12.95387 23.98934) rotate(-4.34581)"/><circle class="y" cx="317.11908" cy="183.30705" r="1.01548"/><circle class="z" cx="318.70556" cy="184.64061" r="0.36817"/><circle class="aa" cx="305.07926" cy="197.92831" r="0.36817"/><path class="ab" d="M300.65619,190.43813c-.12167,2.39362,1.31876,5.84619,3.61537,6.8594"/><circle class="ac" cx="316.1036" cy="196.27709" r="1.1271"/></g><g class="v"><circle class="ad" cx="284.24682" cy="161.61166" r="6.59679"/><ellipse class="ae" cx="283.78273" cy="157.97562" rx="4.40863" ry="2.6579" transform="translate(-11.15486 21.95814) rotate(-4.34581)"/><circle class="af" cx="287.7563" cy="158.29948" r="0.54023"/><circle class="ag" cx="288.60031" cy="159.00893" r="0.19587"/><circle class="ah" cx="281.35114" cy="166.07796" r="0.19587"/><path class="ai" d="M278.99808,162.0932a4.10837,4.10837,0,0,0,1.92336,3.64919"/><circle class="aj" cx="287.21607" cy="165.19952" r="0.59962"/></g><g class="v"><circle class="ak" cx="283.64218" cy="261.25588" r="14.48007"/><ellipse class="al" cx="282.6235" cy="253.27471" rx="9.67701" ry="5.83414" transform="translate(-18.37958 22.1443) rotate(-4.34581)"/><circle class="am" cx="291.34555" cy="253.98558" r="1.18582"/><circle class="an" cx="293.19816" cy="255.54283" r="0.42993"/><circle class="ao" cx="277.28612" cy="271.05948" r="0.42993"/><path class="ap" d="M272.1211,262.31286c-.14208,2.79514,1.54,6.82686,4.22182,8.01"/><circle class="aq" cx="290.15974" cy="269.13128" r="1.31617"/></g><g class="v"><circle class="ar" cx="255.87768" cy="300.89464" r="7.70337"/><ellipse class="as" cx="255.33574" cy="296.64867" rx="5.14815" ry="3.10376" transform="translate(-21.74475 20.20125) rotate(-4.34581)"/><circle class="at" cx="259.97586" cy="297.02685" r="0.63085"/><circle class="au" cx="260.96144" cy="297.85531" r="0.22872"/><circle class="av" cx="252.49627" cy="306.11014" r="0.22872"/><path class="aw" d="M249.74848,301.457c-.07558,1.487.81926,3.63188,2.246,4.26132"/><circle class="ax" cx="259.34501" cy="305.08434" r="0.7002"/></g><g class="ay"><path class="az" d="M343.0842,286.99445a6.22823,6.22823,0,0,1-6.087-4.945l-20.168-95.75737a6.228,6.228,0,0,1-.13378-1.28308V127.351a6.22685,6.22685,0,1,1,12.45371,0v57.00979l20.03418,95.12253a6.23268,6.23268,0,0,1-6.09915,7.51114Z"/></g><g class="ba"><path class="bb" d="M191.16324,393.92583a6.85622,6.85622,0,0,1-6.63063-8.59051l40.24714-153.3406a6.84962,6.84962,0,0,1,13.25031,3.47829L197.78292,388.8136A6.85073,6.85073,0,0,1,191.16324,393.92583Z"/></g><circle class="bc" cx="347.25963" cy="294.66459" r="6.23005"/><circle class="bd" cx="329.15237" cy="185.00878" r="6.23005"/><circle class="be" cx="216.02749" cy="284.73893" r="19.98648"/><circle class="bf" cx="194.00667" cy="354.60773" r="0.6662"/><circle class="bg" cx="192.29672" cy="360.03297" r="0.6662"/><circle class="bh" cx="193.24595" cy="357.02124" r="4.99665"/><line class="bi" x1="211.28134" y1="299.79771" x2="192.29672" y2="360.03297"/><circle class="bj" cx="211.28134" cy="299.79771" r="13.32427"/><circle class="bk" cx="211.28134" cy="299.79771" r="6.66221"/><circle class="bl" cx="211.28134" cy="299.79771" r="5.55184"/><polyline class="bm" points="211.281 299.798 207.696 321.386 211.281 299.798 214.867 278.209 211.281 299.798 189.693 296.212 211.281 299.798 232.87 303.383 211.281 299.798 214.226 327.936 211.281 299.798 208.337 271.659 211.281 299.798 183.143 302.742 211.281 299.798 239.42 296.853 211.281 299.798 225.143 322.884 211.281 299.798 197.419 276.711 211.281 299.798 188.195 313.66 211.281 299.798 234.368 285.936 211.281 299.798 206.99 318.108 211.281 299.798 215.572 281.488 211.281 299.798 192.971 295.507 211.281 299.798 229.591 304.089 211.281 299.798 211.116 302.017 211.281 299.798 211.447 297.579 211.281 299.798 209.062 299.632 211.281 299.798 213.501 299.963 211.281 299.798 197.056 324.374 211.281 299.798 225.506 275.221 211.281 299.798 186.705 285.573 211.281 299.798 235.858 314.023 211.281 299.798 205.191 307.562 211.281 299.798 217.372 292.033 211.281 299.798 203.517 293.707 211.281 299.798 219.046 305.888 211.281 299.798 214.425 306.481 211.281 299.798 208.137 293.115 211.281 299.798 204.598 302.942 211.281 299.798 217.964 296.654 211.281 299.798 236.278 321.715 211.281 299.798 186.285 277.88 211.281 299.798 189.364 324.795 211.281 299.798 233.198 274.801 211.281 299.798 216.812 326.92 211.281 299.798 205.751 272.676 211.281 299.798 184.16 305.328 211.281 299.798 238.403 294.267 211.281 299.798 216.3 331.558 211.281 299.798 206.263 268.038 211.281 299.798 179.521 304.816 211.281 299.798 243.041 294.78 211.281 299.798 213.894 305.588 211.281 299.798 208.669 294.007 211.281 299.798 205.491 302.41 211.281 299.798 217.072 297.185 211.281 299.798 228.407 315.165 211.281 299.798 194.156 284.43 211.281 299.798 195.914 316.923 211.281 299.798 226.649 282.672 211.281 299.798 202.813 322.901 211.281 299.798 219.75 276.694 211.281 299.798 188.178 291.329 211.281 299.798 234.385 308.266 211.281 299.798 212.546 319.887 211.281 299.798 210.017 279.709 211.281 299.798 191.192 301.062 211.281 299.798 231.37 298.534"/><circle class="bn" cx="192.29672" cy="360.03297" r="9.9933"/><circle class="bo" cx="195.9629" cy="348.40117" r="2.8404"/><circle class="bp" cx="205.85868" cy="317.0032" r="1.58647"/><circle class="bq" cx="199.82155" cy="336.15816" r="1.05071"/><circle class="br" cx="198.86624" cy="339.18904" r="1.47759"/><circle class="bs" cx="196.14959" cy="347.80835" r="2.74344"/><circle class="bt" cx="232.87434" cy="114.90465" r="10.30064"/><circle class="bu" cx="324.9058" cy="195.4742" r="19.49085"/><circle class="bv" cx="336.15853" cy="278.21553" r="0.64971"/><circle class="bw" cx="337.08465" cy="285.0244" r="0.64971"/><circle class="bx" cx="336.59757" cy="281.44237" r="4.87267"/><line class="bi" x1="327.34151" y1="213.38424" x2="337.08465" y2="285.0244"/><circle class="by" cx="327.34151" cy="213.38424" r="12.99396"/><circle class="bz" cx="327.34151" cy="213.38424" r="6.49689"/><circle class="ca" cx="327.34151" cy="213.38424" r="5.41414"/><polyline class="bm" points="327.342 213.384 332.188 213.558 327.342 213.384 322.495 213.211 327.342 213.384 327.168 218.231 327.342 213.384 327.515 208.538 327.342 213.384 335.435 236.417 327.342 213.384 319.248 190.351 327.342 213.384 304.308 221.478 327.342 213.384 350.375 205.29 327.342 213.384 336.737 225.763 327.342 213.384 317.946 201.006 327.342 213.384 314.963 222.779 327.342 213.384 339.72 203.989 327.342 213.384 330.04 226.289 327.342 213.384 324.643 200.48 327.342 213.384 314.437 216.083 327.342 213.384 340.246 210.686 327.342 213.384 332.531 216.889 327.342 213.384 322.152 209.88 327.342 213.384 323.837 218.573 327.342 213.384 330.846 208.195 327.342 213.384 341.396 223.176 327.342 213.384 313.287 203.593 327.342 213.384 317.55 227.439 327.342 213.384 337.133 199.329 327.342 213.384 342.004 214.798 327.342 213.384 312.679 211.971 327.342 213.384 325.928 228.047 327.342 213.384 328.755 198.721 327.342 213.384 332.96 231.105 327.342 213.384 321.723 195.663 327.342 213.384 309.621 219.003 327.342 213.384 345.063 207.765 327.342 213.384 328.869 214.115 327.342 213.384 325.814 212.654 327.342 213.384 326.611 214.912 327.342 213.384 328.072 211.857 327.342 213.384 348.962 229.933 327.342 213.384 305.721 196.836 327.342 213.384 310.793 235.004 327.342 213.384 343.89 191.764 327.342 213.384 329.11 230.501 327.342 213.384 325.573 196.268 327.342 213.384 310.225 215.152 327.342 213.384 344.458 211.616 327.342 213.384 351.647 216.915 327.342 213.384 303.036 209.854 327.342 213.384 323.811 237.69 327.342 213.384 330.872 189.079 327.342 213.384 327.548 244.416 327.342 213.384 327.135 182.353 327.342 213.384 296.31 213.591 327.342 213.384 358.373 213.177 327.342 213.384 335.426 232.563 327.342 213.384 319.257 194.205 327.342 213.384 308.163 221.469 327.342 213.384 346.52 205.3 327.342 213.384 333.363 232.585 327.342 213.384 321.32 194.183 327.342 213.384 308.14 219.406 327.342 213.384 346.543 207.363"/><circle class="cb" cx="337.08465" cy="285.0244" r="9.74535"/><circle class="cc" cx="334.72647" cy="267.68392" r="1.10156"/><circle class="cd" cx="328.30807" cy="220.49154" r="2.14261"/><circle class="ce" cx="331.26248" cy="242.21568" r="1.97926"/><circle class="cf" cx="329.82556" cy="231.65009" r="2.49165"/><circle class="cg" cx="336.38261" cy="279.86186" r="0.70539"/></g></svg>