<svg xmlns="http://www.w3.org/2000/svg" xmlns:xlink="http://www.w3.org/1999/xlink" viewBox="0 0 523.92572 512.20828"><defs><style>.a,.i{opacity:0.72;}.a{fill:url(#a);}.b,.ba,.k,.l,.m{opacity:0.8;}.b{fill:url(#b);}.c{isolation:isolate;}.d{fill:#683c11;fill-opacity:0.51;}.e,.g{mix-blend-mode:multiply;}.e{fill:url(#c);}.f{clip-path:url(#e);}.g{fill:url(#f);}.h{opacity:0.42;fill:url(#g);}.i{fill:url(#h);}.j{clip-path:url(#j);}.k{fill:url(#k);}.l{fill:url(#l);}.bm,.m{stroke-miterlimit:10;}.m,.t{stroke-width:1.24537px;}.m{fill:url(#m);stroke:url(#n);}.bc,.bd,.bk,.bn,.bz,.cb,.n{opacity:0.5;}.o{fill:url(#o);}.aa,.ab,.ae,.ah,.ai,.al,.ao,.ap,.as,.av,.aw,.p,.s,.t,.x{mix-blend-mode:soft-light;}.p{fill:url(#p);}.q{fill:url(#q);}.r{fill:url(#r);}.s{fill:url(#s);}.ab,.ai,.ap,.aw,.bi,.bm,.t{fill:none;}.ab,.ai,.ap,.aw,.t{stroke-linecap:round;stroke-linejoin:round;}.t{stroke:url(#t);}.u{fill:url(#u);}.v{opacity:0.3;}.w{fill:url(#v);}.x{fill:url(#w);}.y{fill:url(#x);}.z{fill:url(#y);}.aa{fill:url(#z);}.ab{stroke-width:0.70381px;stroke:url(#aa);}.ac{fill:url(#ab);}.ad{fill:url(#ac);}.ae{fill:url(#ad);}.af{fill:url(#ae);}.ag{fill:url(#af);}.ah{fill:url(#ag);}.ai{stroke-width:0.37443px;stroke:url(#ah);}.aj{fill:url(#ai);}.ak{fill:url(#aj);}.al{fill:url(#ak);}.am{fill:url(#al);}.an{fill:url(#am);}.ao{fill:url(#an);}.ap{stroke-width:0.82187px;stroke:url(#ao);}.aq{fill:url(#ap);}.ar{fill:url(#aq);}.as{fill:url(#ar);}.at{fill:url(#as);}.au{fill:url(#at);}.av{fill:url(#au);}.aw{stroke-width:0.43723px;stroke:url(#av);}.ax{fill:url(#aw);}.ay{opacity:0.54;}.az{fill:url(#ax);}.ba{mix-blend-mode:hard-light;}.bb{fill:url(#ay);}.bc{fill:url(#az);}.bd{fill:url(#ba);}.be,.bu{opacity:0.25;}.be,.bf,.bg,.bh,.bj,.bk,.bl,.bm,.bn,.bo,.bp,.bq,.br,.bs,.bu,.bv,.bw,.bx,.by,.bz,.ca,.cb,.cc,.cd,.ce,.cf,.cg{mix-blend-mode:screen;}.be{fill:url(#bb);}.bf{fill:url(#bc);}.bg{fill:url(#bd);}.bh,.bx{opacity:0.2;}.bh{fill:url(#be);}.bj,.by{opacity:0.15;}.bj{fill:url(#bf);}.bk{fill:url(#bg);}.bl{fill:url(#bh);}.bm{stroke:#fff;stroke-width:2.49074px;opacity:0.03;}.bn{fill:url(#bi);}.bo{fill:url(#bj);}.bp{fill:url(#bk);}.bq{fill:url(#bl);}.br{fill:url(#bm);}.bs{fill:url(#bn);}.bt{fill:url(#bo);}.bu{fill:url(#bp);}.bv{fill:url(#bq);}.bw{fill:url(#br);}.bx{fill:url(#bs);}.by{fill:url(#bt);}.bz{fill:url(#bu);}.ca{fill:url(#bv);}.cb{fill:url(#bw);}.cc{fill:url(#bx);}.cd{fill:url(#by);}.ce{fill:url(#bz);}.cf{fill:url(#ca);}.cg{fill:url(#cb);}</style><linearGradient id="a" x1="212.29325" y1="266.37243" x2="343.05449" y2="266.37243" gradientUnits="userSpaceOnUse"><stop offset="0" stop-color="#f5fbff"/><stop offset="0.62567" stop-color="#e9f1f5"/><stop offset="1" stop-color="#c5d9e0"/></linearGradient><linearGradient id="b" x1="350.47443" y1="437.0298" x2="195.77675" y2="231.99985" gradientUnits="userSpaceOnUse"><stop offset="0" stop-color="#07adbb"/><stop offset="1" stop-color="#39eaf0"/></linearGradient><linearGradient id="c" x1="314.60045" y1="122.54604" x2="282.48824" y2="384.09768" gradientUnits="userSpaceOnUse"><stop offset="0" stop-color="#bfc4c7"/><stop offset="1" stop-color="#b1c3c9"/></linearGradient><clipPath id="e"><path class="a" d="M408.2307,405.828,343.05485,176.33811V105.45638c0,7.24792-28.389,13.12353-63.409,13.12353s-63.409-5.87561-63.409-13.12353v70.88173L151.06062,405.828a16.974,16.974,0,0,0,16.37043,21.46046H391.86027A16.974,16.974,0,0,0,408.2307,405.828Z"/></clipPath><linearGradient id="f" x1="221.84344" y1="261.59857" x2="298.08498" y2="458.50064" gradientUnits="userSpaceOnUse"><stop offset="0" stop-color="#f5f5f5"/><stop offset="1" stop-color="#c3d1d6"/></linearGradient><linearGradient id="g" x1="494.21494" y1="310.90202" x2="264.71518" y2="310.90202" xlink:href="#b"/><linearGradient id="h" x1="279.64577" y1="79.20836" x2="279.64577" y2="118.3093" xlink:href="#a"/><clipPath id="j"><path class="b" d="M393.3735,399.71434l-55.61756-195.836h-.60171c0,6.98614-25.7402,12.64944-57.49231,12.64944s-57.49231-5.6633-57.49231-12.64944h-.63424L165.91811,399.71442a13.67653,13.67653,0,0,0,13.15637,17.41308H380.21714A13.67684,13.67684,0,0,0,393.3735,399.71434Z"/></clipPath><linearGradient id="k" x1="526.76598" y1="330.345" x2="227.79587" y2="330.345" xlink:href="#b"/><linearGradient id="l" x1="97.74589" y1="381.85042" x2="442.84496" y2="381.85042" xlink:href="#b"/><linearGradient id="m" x1="381.76754" y1="203.87834" x2="245.52088" y2="203.87834" xlink:href="#b"/><linearGradient id="n" x1="221.54697" y1="203.87834" x2="337.777" y2="203.87834" gradientUnits="userSpaceOnUse"><stop offset="0" stop-color="#26edff"/><stop offset="1" stop-color="#39eaf0"/></linearGradient><radialGradient id="o" cx="250.30929" cy="219.9688" r="20.84617" gradientTransform="matrix(0.2537, -0.96728, 0.95587, 0.2507, -23.45579, 406.94169)" gradientUnits="userSpaceOnUse"><stop offset="0" stop-color="#35c7c5" stop-opacity="0.8"/><stop offset="0.29921" stop-color="#39cac8" stop-opacity="0.80046"/><stop offset="0.52418" stop-color="#44d2d0" stop-opacity="0.80193"/><stop offset="0.72493" stop-color="#58e0dd" stop-opacity="0.8044"/><stop offset="0.91041" stop-color="#74f3f0" stop-opacity="0.80787"/><stop offset="1" stop-color="#85fffc" stop-opacity="0.81"/></radialGradient><radialGradient id="p" cx="225.03175" cy="749.19765" r="13.50603" gradientTransform="translate(-31.20787 -369.8131) scale(1.24415 0.77108)" gradientUnits="userSpaceOnUse"><stop offset="0" stop-color="#52c6eb"/><stop offset="0.37881" stop-color="#52c6eb" stop-opacity="0.99203"/><stop offset="0.51527" stop-color="#53c6ea" stop-opacity="0.96313"/><stop offset="0.61253" stop-color="#55c6ea" stop-opacity="0.91281"/><stop offset="0.69121" stop-color="#57c6e9" stop-opacity="0.8409"/><stop offset="0.75863" stop-color="#5ac7e7" stop-opacity="0.74715"/><stop offset="0.81834" stop-color="#5ec7e5" stop-opacity="0.63133"/><stop offset="0.87231" stop-color="#62c7e3" stop-opacity="0.49335"/><stop offset="0.92196" stop-color="#67c7e1" stop-opacity="0.33264"/><stop offset="0.96609" stop-color="#6dc8de" stop-opacity="0.15775"/><stop offset="1" stop-color="#72c8dc" stop-opacity="0"/></radialGradient><radialGradient id="q" cx="261.98213" cy="208.95219" r="1.70715" gradientTransform="matrix(0.2537, -0.96728, 0.95587, 0.2507, -4.21383, 409.97794)" gradientUnits="userSpaceOnUse"><stop offset="0" stop-color="#c1e2eb"/><stop offset="0.37881" stop-color="#c0e2eb" stop-opacity="0.99203"/><stop offset="0.51527" stop-color="#bee1ea" stop-opacity="0.96313"/><stop offset="0.61253" stop-color="#bae0ea" stop-opacity="0.91281"/><stop offset="0.69121" stop-color="#b4dee9" stop-opacity="0.8409"/><stop offset="0.75863" stop-color="#addbe7" stop-opacity="0.74715"/><stop offset="0.81834" stop-color="#a4d8e5" stop-opacity="0.63133"/><stop offset="0.87231" stop-color="#99d5e3" stop-opacity="0.49335"/><stop offset="0.92196" stop-color="#8cd1e1" stop-opacity="0.33264"/><stop offset="0.96609" stop-color="#7eccde" stop-opacity="0.15775"/><stop offset="1" stop-color="#72c8dc" stop-opacity="0"/></radialGradient><radialGradient id="r" cx="264.78936" cy="211.31189" r="0.61895" gradientTransform="matrix(0.2537, -0.96728, 0.95587, 0.2507, -4.37436, 414.46144)" gradientUnits="userSpaceOnUse"><stop offset="0" stop-color="#c1e2eb"/><stop offset="0.22496" stop-color="#c0e2eb" stop-opacity="0.98901"/><stop offset="0.3644" stop-color="#bde1ea" stop-opacity="0.95275"/><stop offset="0.48062" stop-color="#b8dfe9" stop-opacity="0.89088"/><stop offset="0.58411" stop-color="#b1dde8" stop-opacity="0.80322"/><stop offset="0.67914" stop-color="#a8dae6" stop-opacity="0.68961"/><stop offset="0.7679" stop-color="#9dd6e4" stop-opacity="0.55"/><stop offset="0.85188" stop-color="#90d2e2" stop-opacity="0.38414"/><stop offset="0.92991" stop-color="#82cddf" stop-opacity="0.19725"/><stop offset="1" stop-color="#72c8dc" stop-opacity="0"/></radialGradient><radialGradient id="s" cx="240.67801" cy="234.8241" r="0.61895" gradientTransform="matrix(0.2537, -0.96728, 0.95587, 0.2507, -44.84341, 408.75652)" xlink:href="#r"/><radialGradient id="t" cx="236.04383" cy="227.6392" r="5.45098" gradientTransform="matrix(1, 0, 0, 1, 0, 0)" xlink:href="#q"/><radialGradient id="u" cx="260.18528" cy="231.90232" r="2.48527" gradientTransform="translate(0 33.68851) scale(1 0.85473)" gradientUnits="userSpaceOnUse"><stop offset="0" stop-color="#52c6eb"/><stop offset="0.09168" stop-color="#53c6eb" stop-opacity="0.96822"/><stop offset="0.22975" stop-color="#56c6e9" stop-opacity="0.88033"/><stop offset="0.39704" stop-color="#5ac7e7" stop-opacity="0.73641"/><stop offset="0.58721" stop-color="#61c7e4" stop-opacity="0.53628"/><stop offset="0.79369" stop-color="#69c7e0" stop-opacity="0.2836"/><stop offset="1" stop-color="#72c8dc" stop-opacity="0"/></radialGradient><radialGradient id="v" cx="310.48681" cy="189.63196" r="11.78101" gradientTransform="matrix(0.2537, -0.96728, 0.95587, 0.2507, 50.45302, 442.41917)" xlink:href="#o"/><radialGradient id="w" cx="275.32636" cy="726.59027" r="7.6328" gradientTransform="translate(-32.93321 -377.45884) scale(1.24415 0.77108)" xlink:href="#p"/><radialGradient id="x" cx="317.0836" cy="183.40603" r="0.96478" gradientTransform="matrix(0.2537, -0.96728, 0.95587, 0.2507, 61.32743, 444.13508)" xlink:href="#q"/><radialGradient id="y" cx="318.67008" cy="184.73959" r="0.34979" gradientTransform="matrix(0.2537, -0.96728, 0.95587, 0.2507, 61.23671, 446.66888)" xlink:href="#r"/><radialGradient id="z" cx="305.04379" cy="198.02729" r="0.34979" gradientTransform="matrix(0.2537, -0.96728, 0.95587, 0.2507, 38.36601, 443.4448)" xlink:href="#r"/><radialGradient id="aa" cx="302.42482" cy="193.96681" r="3.08057" gradientTransform="matrix(1, 0, 0, 1, 0, 0)" xlink:href="#q"/><radialGradient id="ab" cx="316.06813" cy="196.37607" r="1.40453" gradientTransform="translate(0 28.5276) scale(1 0.85473)" xlink:href="#u"/><radialGradient id="ac" cx="284.21134" cy="161.71065" r="6.26748" gradientTransform="matrix(0.2537, -0.96728, 0.95587, 0.2507, 57.53281, 396.08203)" xlink:href="#o"/><radialGradient id="ad" cx="256.10085" cy="697.09146" r="4.06064" gradientTransform="translate(-34.88097 -379.43569) scale(1.24415 0.77108)" xlink:href="#p"/><radialGradient id="ae" cx="287.72083" cy="158.39846" r="0.51326" gradientTransform="matrix(0.2537, -0.96728, 0.95587, 0.2507, 63.31798, 396.99489)" xlink:href="#q"/><radialGradient id="af" cx="288.56483" cy="159.10792" r="0.18609" gradientTransform="matrix(0.2537, -0.96728, 0.95587, 0.2507, 63.26971, 398.34287)" xlink:href="#r"/><radialGradient id="ag" cx="281.31566" cy="166.17695" r="0.18609" gradientTransform="matrix(0.2537, -0.96728, 0.95587, 0.2507, 51.10254, 396.62766)" xlink:href="#r"/><radialGradient id="ah" cx="279.92238" cy="164.01678" r="1.63886" gradientTransform="matrix(1, 0, 0, 1, 0, 0)" xlink:href="#q"/><radialGradient id="ai" cx="287.18059" cy="165.2985" r="0.74721" gradientTransform="translate(0 24.01296) scale(1 0.85473)" xlink:href="#u"/><radialGradient id="aj" cx="283.6067" cy="261.35486" r="13.75721" gradientTransform="matrix(0.2537, -0.96728, 0.95587, 0.2507, -38.16566, 470.16012)" xlink:href="#o"/><radialGradient id="ak" cx="249.36751" cy="802.32845" r="8.91317" gradientTransform="translate(-27.66291 -365.28229) scale(1.24415 0.77108)" xlink:href="#p"/><radialGradient id="al" cx="291.31008" cy="254.08456" r="1.12662" gradientTransform="matrix(0.2537, -0.96728, 0.95587, 0.2507, -25.46713, 472.16386)" xlink:href="#q"/><radialGradient id="am" cx="293.16268" cy="255.64182" r="0.40847" gradientTransform="matrix(0.2537, -0.96728, 0.95587, 0.2507, -25.57307, 475.1227)" xlink:href="#r"/><radialGradient id="an" cx="277.25064" cy="271.15846" r="0.40847" gradientTransform="matrix(0.2537, -0.96728, 0.95587, 0.2507, -52.28021, 471.3578)" xlink:href="#r"/><radialGradient id="ao" cx="274.19236" cy="266.41686" r="3.59732" gradientTransform="matrix(1, 0, 0, 1, 0, 0)" xlink:href="#q"/><radialGradient id="ap" cx="290.12426" cy="269.23026" r="1.64013" gradientTransform="translate(0 39.11115) scale(1 0.85473)" xlink:href="#u"/><radialGradient id="aq" cx="255.8422" cy="300.99363" r="7.31881" gradientTransform="matrix(0.2537, -0.96728, 0.95587, 0.2507, -96.77602, 473.00511)" xlink:href="#o"/><radialGradient id="ar" cx="224.85602" cy="847.97773" r="4.74179" gradientTransform="translate(-24.45466 -357.10738) scale(1.24415 0.77108)" xlink:href="#p"/><radialGradient id="as" cx="259.94038" cy="297.12584" r="0.59936" gradientTransform="matrix(0.2537, -0.96728, 0.95587, 0.2507, -90.02042, 474.0711)" xlink:href="#q"/><radialGradient id="at" cx="260.92596" cy="297.9543" r="0.21731" gradientTransform="matrix(0.2537, -0.96728, 0.95587, 0.2507, -90.07678, 475.6452)" xlink:href="#r"/><radialGradient id="au" cx="252.46079" cy="306.20913" r="0.21731" gradientTransform="matrix(0.2537, -0.96728, 0.95587, 0.2507, -104.28493, 473.64228)" xlink:href="#r"/><radialGradient id="av" cx="250.83379" cy="303.6866" r="1.91377" gradientTransform="matrix(1, 0, 0, 1, 0, 0)" xlink:href="#q"/><radialGradient id="aw" cx="259.30953" cy="305.18333" r="0.87255" gradientTransform="translate(0 44.33406) scale(1 0.85473)" xlink:href="#u"/><radialGradient id="ax" cx="329.10578" cy="187.72854" r="96.86305" gradientTransform="translate(304.80273 -141.19917) rotate(81.99169) scale(1 0.11591)" gradientUnits="userSpaceOnUse"><stop offset="0" stop-color="#e6f3ff"/><stop offset="1" stop-color="#b9cbf0" stop-opacity="0"/></radialGradient><radialGradient id="ay" cx="211.24586" cy="310.5031" r="79.87596" gradientTransform="matrix(0.2537, -0.96728, 0.15236, 0.03996, 110.34636, 502.43018)" xlink:href="#ax"/><radialGradient id="az" cx="347.37605" cy="294.79047" r="5.63016" gradientTransform="matrix(1, 0, 0, 1, 0, 0)" xlink:href="#ax"/><radialGradient id="ba" cx="329.26879" cy="185.13466" r="5.63016" gradientTransform="matrix(1, 0, 0, 1, 0, 0)" xlink:href="#ax"/><radialGradient id="bb" cx="215.99201" cy="284.83792" r="19.98648" gradientUnits="userSpaceOnUse"><stop offset="0.1"/><stop offset="0.11244" stop-color="#080602"/><stop offset="0.16172" stop-color="#231b08"/><stop offset="0.21838" stop-color="#392c0d"/><stop offset="0.28458" stop-color="#4a3910"/><stop offset="0.36644" stop-color="#554213"/><stop offset="0.48125" stop-color="#5c4815"/><stop offset="0.8" stop-color="#5e4915"/><stop offset="1"/></radialGradient><radialGradient id="bc" cx="193.9712" cy="354.70671" r="0.6662" gradientUnits="userSpaceOnUse"><stop offset="0" stop-color="#d4e194"/><stop offset="0.05952" stop-color="#afba7a"/><stop offset="0.13651" stop-color="#868f5e"/><stop offset="0.21955" stop-color="#626845"/><stop offset="0.30759" stop-color="#44482f"/><stop offset="0.40211" stop-color="#2b2e1e"/><stop offset="0.50556" stop-color="#181911"/><stop offset="0.62249" stop-color="#0a0b07"/><stop offset="0.76429" stop-color="#020302"/><stop offset="1"/></radialGradient><radialGradient id="bd" cx="192.26124" cy="360.13195" r="0.6662" xlink:href="#bc"/><radialGradient id="be" cx="193.21047" cy="357.12023" r="4.99665" gradientUnits="userSpaceOnUse"><stop offset="0.05"/><stop offset="0.09242" stop-color="#040a03"/><stop offset="0.29802" stop-color="#183411"/><stop offset="0.48337" stop-color="#25531c"/><stop offset="0.64031" stop-color="#2e6622"/><stop offset="0.75" stop-color="#316d24"/><stop offset="0.78593" stop-color="#4f6e16"/><stop offset="0.83397" stop-color="#716f06"/><stop offset="0.86" stop-color="#7e6f00"/><stop offset="0.88764" stop-color="#7a6c00"/><stop offset="0.91229" stop-color="#706200"/><stop offset="0.93581" stop-color="#5d5200"/><stop offset="0.95863" stop-color="#443c00"/><stop offset="0.98074" stop-color="#231f00"/><stop offset="1"/></radialGradient><radialGradient id="bf" cx="211.24586" cy="299.89669" r="13.32427" gradientUnits="userSpaceOnUse"><stop offset="0" stop-color="#200"/><stop offset="0.73" stop-color="#984023"/><stop offset="1" stop-color="#200"/></radialGradient><radialGradient id="bg" cx="211.24586" cy="299.89669" r="6.66221" gradientUnits="userSpaceOnUse"><stop offset="0.15" stop-color="#fff"/><stop offset="0.20939" stop-color="#e5d3d3"/><stop offset="0.29044" stop-color="#c49c9e"/><stop offset="0.36051" stop-color="#ad7477"/><stop offset="0.41599" stop-color="#9e5c5f"/><stop offset="0.45" stop-color="#995356"/><stop offset="0.57175" stop-color="#6b3335"/><stop offset="0.69355" stop-color="#431718"/><stop offset="0.79053" stop-color="#2b0606"/><stop offset="0.85" stop-color="#200"/><stop offset="0.85727" stop-color="#260201"/><stop offset="0.8648" stop-color="#330704"/><stop offset="0.87246" stop-color="#471009"/><stop offset="0.8802" stop-color="#641d0f"/><stop offset="0.88801" stop-color="#8a2e18"/><stop offset="0.89577" stop-color="#b74223"/><stop offset="0.9" stop-color="#d34e29"/><stop offset="0.90254" stop-color="#c84927"/><stop offset="0.91417" stop-color="#9c361c"/><stop offset="0.92635" stop-color="#772514"/><stop offset="0.93893" stop-color="#58180c"/><stop offset="0.95205" stop-color="#400d07"/><stop offset="0.96594" stop-color="#2f0603"/><stop offset="0.98111" stop-color="#250101"/><stop offset="1" stop-color="#200"/></radialGradient><radialGradient id="bh" cx="211.24586" cy="299.89669" r="5.55184" gradientUnits="userSpaceOnUse"><stop offset="0.15" stop-color="#fff"/><stop offset="0.28237" stop-color="#c2c2c2"/><stop offset="0.42528" stop-color="#888"/><stop offset="0.5636" stop-color="#575757"/><stop offset="0.69361" stop-color="#313131"/><stop offset="0.81336" stop-color="#161616"/><stop offset="0.91921" stop-color="#060606"/><stop offset="1"/></radialGradient><radialGradient id="bi" cx="192.26124" cy="360.13195" r="9.9933" gradientUnits="userSpaceOnUse"><stop offset="0.64"/><stop offset="0.71799" stop-color="#000200"/><stop offset="0.74608" stop-color="#020902"/><stop offset="0.76609" stop-color="#051405"/><stop offset="0.78228" stop-color="#082509"/><stop offset="0.79598" stop-color="#0d3b0e"/><stop offset="0.8" stop-color="#0f4310"/><stop offset="0.8131" stop-color="#1e2c0a"/><stop offset="0.82975" stop-color="#2d1605"/><stop offset="0.84569" stop-color="#360901"/><stop offset="0.86" stop-color="#390400"/><stop offset="0.8715" stop-color="#250300"/><stop offset="0.88602" stop-color="#140100"/><stop offset="0.90412" stop-color="#090100"/><stop offset="0.92951" stop-color="#020000"/><stop offset="1"/></radialGradient><radialGradient id="bj" cx="195.92743" cy="348.50015" r="2.8404" gradientUnits="userSpaceOnUse"><stop offset="0.1"/><stop offset="0.24639" stop-color="#1b1103"/><stop offset="0.42619" stop-color="#362207"/><stop offset="0.61009" stop-color="#492e09"/><stop offset="0.79889" stop-color="#54350b"/><stop offset="1" stop-color="#58370b"/></radialGradient><radialGradient id="bk" cx="205.8232" cy="317.10219" r="1.58647" gradientUnits="userSpaceOnUse"><stop offset="0.1" stop-color="#192f1b"/><stop offset="0.2285" stop-color="#122214"/><stop offset="0.47516" stop-color="#080f09"/><stop offset="0.72928" stop-color="#020402"/><stop offset="1"/></radialGradient><radialGradient id="bl" cx="199.78607" cy="336.25714" r="1.05071" xlink:href="#bj"/><radialGradient id="bm" cx="198.83076" cy="339.28802" r="1.47759" gradientUnits="userSpaceOnUse"><stop offset="0.1"/><stop offset="0.29001" stop-color="#14160e"/><stop offset="0.51699" stop-color="#25291a"/><stop offset="0.75084" stop-color="#303422"/><stop offset="1" stop-color="#333824"/></radialGradient><radialGradient id="bn" cx="196.11411" cy="347.90734" r="2.74344" xlink:href="#bk"/><radialGradient id="bo" cx="232.83886" cy="115.00363" r="10.30064" gradientUnits="userSpaceOnUse"><stop offset="0" stop-color="#fff"/><stop offset="1" stop-color="#b9cbf0" stop-opacity="0"/></radialGradient><radialGradient id="bp" cx="324.87032" cy="195.57318" r="19.49085" xlink:href="#bb"/><radialGradient id="bq" cx="336.12305" cy="278.31451" r="0.64971" xlink:href="#bc"/><radialGradient id="br" cx="337.04917" cy="285.12339" r="0.64971" xlink:href="#bc"/><radialGradient id="bs" cx="336.56209" cy="281.54135" r="4.87267" xlink:href="#be"/><radialGradient id="bt" cx="327.30603" cy="213.48322" r="12.99396" xlink:href="#bf"/><radialGradient id="bu" cx="327.30603" cy="213.48322" r="6.49689" xlink:href="#bg"/><radialGradient id="bv" cx="327.30603" cy="213.48322" r="5.41414" xlink:href="#bh"/><radialGradient id="bw" cx="337.04917" cy="285.12339" r="9.74535" xlink:href="#bi"/><radialGradient id="bx" cx="334.691" cy="267.7829" r="1.10156" gradientUnits="userSpaceOnUse"><stop offset="0.1"/><stop offset="0.2047" stop-color="#1c1713"/><stop offset="0.35581" stop-color="#3e3229"/><stop offset="0.51018" stop-color="#59473b"/><stop offset="0.66721" stop-color="#6c5647"/><stop offset="0.82838" stop-color="#775f4f"/><stop offset="1" stop-color="#7b6251"/></radialGradient><radialGradient id="by" cx="328.27259" cy="220.59052" r="2.14261" gradientUnits="userSpaceOnUse"><stop offset="0.1" stop-color="#393a2f"/><stop offset="0.30165" stop-color="#21221c"/><stop offset="0.52494" stop-color="#0f0f0c"/><stop offset="0.75495" stop-color="#040403"/><stop offset="1"/></radialGradient><radialGradient id="bz" cx="331.227" cy="242.31466" r="1.97926" gradientUnits="userSpaceOnUse"><stop offset="0.1"/><stop offset="0.11031" stop-color="#010100"/><stop offset="0.32262" stop-color="#1c0e05"/><stop offset="0.53968" stop-color="#2f1808"/><stop offset="0.76257" stop-color="#3a1e09"/><stop offset="1" stop-color="#3e200a"/></radialGradient><radialGradient id="ca" cx="329.79008" cy="231.74907" r="2.49165" gradientUnits="userSpaceOnUse"><stop offset="0.1" stop-color="#7e9c95"/><stop offset="0.15454" stop-color="#6e8983"/><stop offset="0.2879" stop-color="#4d5f5b"/><stop offset="0.42427" stop-color="#313d3a"/><stop offset="0.56231" stop-color="#1c2221"/><stop offset="0.70265" stop-color="#0c0f0e"/><stop offset="0.84664" stop-color="#030404"/><stop offset="1"/></radialGradient><radialGradient id="cb" cx="336.34713" cy="279.96084" r="0.70539" gradientUnits="userSpaceOnUse"><stop offset="0.1"/><stop offset="0.22259" stop-color="#1b1722"/><stop offset="0.37027" stop-color="#352e44"/><stop offset="0.52121" stop-color="#4a3f5f"/><stop offset="0.67469" stop-color="#584c72"/><stop offset="0.8322" stop-color="#61547d"/><stop offset="1" stop-color="#645681"/></radialGradient></defs><g class="c"><ellipse class="d" cx="267.00138" cy="422.39601" rx="144.19211" ry="23.28088"/><path class="e" d="M399.68853,403.28126,339.37035,176.14071l.00787-66.26991c-17.75085,8.70908-35.47443,8.70911-59.73241,8.70911-25.0409,0-46.6847-3.005-56.99033-7.36688l-2.97677-3.17144.60954,68.81454L159.60278,403.28126a14.43621,14.43621,0,0,0,13.887,18.37994H385.80155A14.43607,14.43607,0,0,0,399.68853,403.28126Z"/><path class="a" d="M408.2307,405.828,343.05485,176.33811V105.45638c0,7.24792-28.389,13.12353-63.409,13.12353s-63.409-5.87561-63.409-13.12353v70.88173L151.06062,405.828a16.974,16.974,0,0,0,16.37043,21.46046H391.86027A16.974,16.974,0,0,0,408.2307,405.828Z"/><g class="f"><path class="g" d="M401.22419,411.086c0-12.68913-54.23417-24.21532-121.13541-24.21532s-121.13542,12.00794-121.13542,24.69708,11.80991,10.1263,121.13542,11.13876C383.85421,423.66746,401.22419,423.7751,401.22419,411.086Z"/><path class="h" d="M303.621,192.667c-2.80175-.31817-5.59682-.69124-8.39593-1.03119a108.842,108.842,0,0,0-15.01056-1.03272c-2.193.03846-4.39639.36007-6.55272.20572a62.462,62.462,0,0,0-7.14072-.04067c-9.72284.4182-19.28128,2.38687-28.77975,4.37841q-4.31316.90434-8.64184,1.73241c-6.01064,1.14983-12.15181,2.21117-17.73607,4.82648-1.48031.69329-2.55342,1.04806-3.08164,2.5374-.1988.56054-.33629,1.15158-.503,1.72256l-4.59563,15.73722-6.853,23.46721L187.96683,273.809l-9.12657,31.253-9.14286,31.30872-8.41212,28.8064-6.93437,23.746-4.7096,16.12751-1.73781,5.95093,7.53771,20.20929H412.81344V388.55836l-61.93708-184.68c-5.8965-2.38476-11.9462-4.22669-17.94789-6.30536-5.53008-1.91533-11.61121-2.03905-17.25489-3.68935C311.96847,192.8002,307.467,193.10377,303.621,192.667Z"/></g><ellipse class="i" cx="279.64577" cy="105.45636" rx="63.4091" ry="13.12351"/><path class="b" d="M393.3735,399.71434l-55.61756-195.836h-.60171c0,6.98614-25.7402,12.64944-57.49231,12.64944s-57.49231-5.6633-57.49231-12.64944h-.63424L165.91811,399.71442a13.67653,13.67653,0,0,0,13.15637,17.41308H380.21714A13.67684,13.67684,0,0,0,393.3735,399.71434Z"/><g class="j"><path class="k" d="M257.37742,262.69531c-28.84181,4.469-58.13244,6.29623-86.57756,12.83056s-56.625,18.32338-76.76012,39.45151c-11.66189,12.237-20.57245,28.8161-17.95551,45.51626,2.05123,13.09,11.00468,24.3366,21.9331,31.82829s23.74412,11.69316,36.51423,15.22582c74.25136,20.54052,156.51867,20.7286,225.64542-13.28123,13.90016-6.83878,27.29-15.09294,38.188-26.10277s19.21421-24.981,21.62539-40.28357c2.48517-15.77217-1.48981-32.23248-9.715-45.91765A92.185,92.185,0,0,0,383.00219,253.735a89.44684,89.44684,0,0,0-16.5116-8.80486c-7.67978-3.18382-12.1877-7.99134-20.31776-4.91245-9.51759,3.60436-19.31018,6.61893-29.0811,9.451A476.87738,476.87738,0,0,1,257.37742,262.69531Z"/><path class="l" d="M279.4984,314.20073c-28.84181,4.469-58.13244,6.29623-86.57756,12.83056s-56.625,18.32338-76.76012,39.45151c-11.66189,12.237-20.57246,28.81609-17.95551,45.51626,2.05123,13.09,11.00468,24.3366,21.93309,31.82829s23.74413,11.69316,36.51424,15.22582c74.25136,20.54052,156.51867,20.7286,225.64542-13.28123,13.90016-6.83878,27.29-15.09294,38.188-26.10277s19.21421-24.981,21.62539-40.28357c2.48517-15.77217-1.48981-32.23248-9.715-45.91765a92.185,92.185,0,0,0-27.27321-28.22758,89.44715,89.44715,0,0,0-16.5116-8.80486c-7.67978-3.18382-12.1877-7.99134-20.31777-4.91245-9.51758,3.60436-19.31018,6.61893-29.08109,9.451A476.87777,476.87777,0,0,1,279.4984,314.20073Z"/></g><ellipse class="m" cx="279.66199" cy="203.87834" rx="57.49233" ry="12.64945"/><g class="n"><circle class="o" cx="250.30929" cy="219.9688" r="21.94151"/><ellipse class="p" cx="248.76569" cy="207.87501" rx="14.66347" ry="8.84042" transform="translate(-15.03672 19.44816) rotate(-4.34581)"/><circle class="q" cx="261.98213" cy="208.95219" r="1.79686"/><circle class="r" cx="264.78936" cy="211.31189" r="0.65147"/><circle class="s" cx="240.67801" cy="234.8241" r="0.65147"/><path class="t" d="M232.85151,221.57044c-.21529,4.23544,2.3335,10.34467,6.39729,12.13752"/><circle class="u" cx="260.18528" cy="231.90232" r="1.99438"/></g><g class="v"><circle class="w" cx="310.48681" cy="189.63196" r="12.40003"/><ellipse class="x" cx="309.61446" cy="182.79728" rx="8.28692" ry="4.99608" transform="translate(-12.96148 23.98694) rotate(-4.34581)"/><circle class="y" cx="317.0836" cy="183.40603" r="1.01548"/><circle class="z" cx="318.67008" cy="184.73959" r="0.36817"/><circle class="aa" cx="305.04379" cy="198.02729" r="0.36817"/><path class="ab" d="M300.62071,190.53711c-.12167,2.39362,1.31876,5.8462,3.61537,6.85941"/><circle class="ac" cx="316.06813" cy="196.37607" r="1.1271"/></g><g class="v"><circle class="ad" cx="284.21134" cy="161.71065" r="6.59679"/><ellipse class="ae" cx="283.74725" cy="158.07461" rx="4.40863" ry="2.6579" transform="translate(-11.16246 21.95574) rotate(-4.34581)"/><circle class="af" cx="287.72083" cy="158.39846" r="0.54023"/><circle class="ag" cx="288.56483" cy="159.10792" r="0.19587"/><circle class="ah" cx="281.31566" cy="166.17695" r="0.19587"/><path class="ai" d="M278.9626,162.19219a4.10837,4.10837,0,0,0,1.92337,3.64919"/><circle class="aj" cx="287.18059" cy="165.2985" r="0.59962"/></g><g class="v"><circle class="ak" cx="283.6067" cy="261.35486" r="14.48007"/><ellipse class="al" cx="282.58802" cy="253.37369" rx="9.67701" ry="5.83414" transform="translate(-18.38718 22.1419) rotate(-4.34581)"/><circle class="am" cx="291.31008" cy="254.08456" r="1.18582"/><circle class="an" cx="293.16268" cy="255.64182" r="0.42993"/><circle class="ao" cx="277.25064" cy="271.15846" r="0.42993"/><path class="ap" d="M272.08562,262.41185c-.14208,2.79513,1.54,6.82686,4.22183,8.01"/><circle class="aq" cx="290.12426" cy="269.23026" r="1.31617"/></g><g class="v"><circle class="ar" cx="255.8422" cy="300.99363" r="7.70337"/><ellipse class="as" cx="255.30026" cy="296.74766" rx="5.14815" ry="3.10376" transform="translate(-21.75235 20.19884) rotate(-4.34581)"/><circle class="at" cx="259.94038" cy="297.12584" r="0.63085"/><circle class="au" cx="260.92596" cy="297.9543" r="0.22872"/><circle class="av" cx="252.46079" cy="306.20913" r="0.22872"/><path class="aw" d="M249.713,301.55594c-.07559,1.487.81926,3.63188,2.246,4.26132"/><circle class="ax" cx="259.30953" cy="305.18333" r="0.7002"/></g><g class="ay"><path class="az" d="M343.04872,287.09344a6.22824,6.22824,0,0,1-6.087-4.945l-20.168-95.75738A6.22792,6.22792,0,0,1,316.66,185.108V127.45a6.22686,6.22686,0,0,1,12.45371,0v57.00979l20.03419,95.12253a6.23273,6.23273,0,0,1-6.09916,7.51115Z"/></g><g class="ba"><path class="bb" d="M191.12776,394.02481a6.85623,6.85623,0,0,1-6.63063-8.59051l40.24714-153.34059a6.84962,6.84962,0,0,1,13.25032,3.47828l-40.24714,153.3406A6.85073,6.85073,0,0,1,191.12776,394.02481Z"/></g><circle class="bc" cx="347.22415" cy="294.76357" r="6.23005"/><circle class="bd" cx="329.11689" cy="185.10777" r="6.23005"/><circle class="be" cx="215.99201" cy="284.83792" r="19.98648"/><circle class="bf" cx="193.9712" cy="354.70671" r="0.6662"/><circle class="bg" cx="192.26124" cy="360.13195" r="0.6662"/><circle class="bh" cx="193.21047" cy="357.12023" r="4.99665"/><line class="bi" x1="211.24586" y1="299.89669" x2="192.26124" y2="360.13195"/><circle class="bj" cx="211.24586" cy="299.89669" r="13.32427"/><circle class="bk" cx="211.24586" cy="299.89669" r="6.66221"/><circle class="bl" cx="211.24586" cy="299.89669" r="5.55184"/><polyline class="bm" points="211.246 299.897 207.661 321.485 211.246 299.897 214.831 278.308 211.246 299.897 189.657 296.311 211.246 299.897 232.834 303.482 211.246 299.897 214.19 328.035 211.246 299.897 208.301 271.758 211.246 299.897 183.108 302.841 211.246 299.897 239.384 296.952 211.246 299.897 225.108 322.983 211.246 299.897 197.384 276.81 211.246 299.897 188.159 313.759 211.246 299.897 234.333 286.035 211.246 299.897 206.955 318.207 211.246 299.897 215.537 281.587 211.246 299.897 192.936 295.606 211.246 299.897 229.556 304.188 211.246 299.897 211.08 302.116 211.246 299.897 211.412 297.678 211.246 299.897 209.027 299.731 211.246 299.897 213.465 300.062 211.246 299.897 197.021 324.473 211.246 299.897 225.471 275.32 211.246 299.897 186.669 285.672 211.246 299.897 235.822 314.122 211.246 299.897 205.156 307.661 211.246 299.897 217.336 292.132 211.246 299.897 203.481 293.806 211.246 299.897 219.01 305.987 211.246 299.897 214.39 306.58 211.246 299.897 208.102 293.214 211.246 299.897 204.563 303.041 211.246 299.897 217.929 296.753 211.246 299.897 236.243 321.814 211.246 299.897 186.249 277.979 211.246 299.897 189.329 324.894 211.246 299.897 233.163 274.9 211.246 299.897 216.776 327.018 211.246 299.897 205.716 272.775 211.246 299.897 184.124 305.427 211.246 299.897 238.368 294.366 211.246 299.897 216.264 331.657 211.246 299.897 206.228 268.137 211.246 299.897 179.486 304.915 211.246 299.897 243.006 294.879 211.246 299.897 213.859 305.687 211.246 299.897 208.633 294.106 211.246 299.897 205.455 302.509 211.246 299.897 217.036 297.284 211.246 299.897 228.371 315.264 211.246 299.897 194.12 284.529 211.246 299.897 195.878 317.022 211.246 299.897 226.614 282.771 211.246 299.897 202.777 323 211.246 299.897 219.714 276.793 211.246 299.897 188.142 291.428 211.246 299.897 234.349 308.365 211.246 299.897 212.51 319.986 211.246 299.897 209.982 279.808 211.246 299.897 191.157 301.161 211.246 299.897 231.335 298.633"/><circle class="bn" cx="192.26124" cy="360.13195" r="9.9933"/><circle class="bo" cx="195.92743" cy="348.50015" r="2.8404"/><circle class="bp" cx="205.8232" cy="317.10219" r="1.58647"/><circle class="bq" cx="199.78607" cy="336.25714" r="1.05071"/><circle class="br" cx="198.83076" cy="339.28802" r="1.47759"/><circle class="bs" cx="196.11411" cy="347.90734" r="2.74344"/><circle class="bt" cx="232.83886" cy="115.00363" r="10.30064"/><circle class="bu" cx="324.87032" cy="195.57318" r="19.49085"/><circle class="bv" cx="336.12305" cy="278.31451" r="0.64971"/><circle class="bw" cx="337.04917" cy="285.12339" r="0.64971"/><circle class="bx" cx="336.56209" cy="281.54135" r="4.87267"/><line class="bi" x1="327.30603" y1="213.48322" x2="337.04917" y2="285.12339"/><circle class="by" cx="327.30603" cy="213.48322" r="12.99396"/><circle class="bz" cx="327.30603" cy="213.48322" r="6.49689"/><circle class="ca" cx="327.30603" cy="213.48322" r="5.41414"/><polyline class="bm" points="327.306 213.483 332.153 213.657 327.306 213.483 322.459 213.31 327.306 213.483 327.132 218.33 327.306 213.483 327.48 208.637 327.306 213.483 335.4 236.516 327.306 213.483 319.212 190.45 327.306 213.483 304.273 221.577 327.306 213.483 350.339 205.389 327.306 213.483 336.701 225.862 327.306 213.483 317.911 201.105 327.306 213.483 314.928 222.878 327.306 213.483 339.684 204.088 327.306 213.483 330.004 226.388 327.306 213.483 324.608 200.579 327.306 213.483 314.402 216.182 327.306 213.483 340.21 210.785 327.306 213.483 332.495 216.988 327.306 213.483 322.117 209.979 327.306 213.483 323.802 218.672 327.306 213.483 330.81 208.294 327.306 213.483 341.361 223.275 327.306 213.483 313.251 203.692 327.306 213.483 317.515 227.538 327.306 213.483 337.098 199.428 327.306 213.483 341.969 214.897 327.306 213.483 312.643 212.069 327.306 213.483 325.892 228.146 327.306 213.483 328.72 198.82 327.306 213.483 332.925 231.204 327.306 213.483 321.687 195.762 327.306 213.483 309.585 219.102 327.306 213.483 345.027 207.864 327.306 213.483 328.834 214.214 327.306 213.483 325.779 212.753 327.306 213.483 326.575 215.011 327.306 213.483 328.037 211.956 327.306 213.483 348.926 230.032 327.306 213.483 305.686 196.935 327.306 213.483 310.757 235.103 327.306 213.483 343.855 191.863 327.306 213.483 329.074 230.6 327.306 213.483 325.538 196.367 327.306 213.483 310.189 215.251 327.306 213.483 344.423 211.715 327.306 213.483 351.611 217.014 327.306 213.483 303.001 209.953 327.306 213.483 323.775 237.789 327.306 213.483 330.837 189.178 327.306 213.483 327.513 244.515 327.306 213.483 327.099 182.452 327.306 213.483 296.274 213.69 327.306 213.483 358.338 213.276 327.306 213.483 335.391 232.662 327.306 213.483 319.221 194.304 327.306 213.483 308.127 221.568 327.306 213.483 346.485 205.398 327.306 213.483 333.327 232.684 327.306 213.483 321.285 194.282 327.306 213.483 308.105 219.505 327.306 213.483 346.507 207.462"/><circle class="cb" cx="337.04917" cy="285.12339" r="9.74535"/><circle class="cc" cx="334.691" cy="267.7829" r="1.10156"/><circle class="cd" cx="328.27259" cy="220.59052" r="2.14261"/><circle class="ce" cx="331.227" cy="242.31466" r="1.97926"/><circle class="cf" cx="329.79008" cy="231.74907" r="2.49165"/><circle class="cg" cx="336.34713" cy="279.96084" r="0.70539"/></g></svg>