<svg xmlns="http://www.w3.org/2000/svg" xmlns:xlink="http://www.w3.org/1999/xlink" viewBox="0 0 523.92572 512.20828"><defs><style>.a,.i{opacity:0.72;}.a{fill:url(#a);}.b,.ba,.k,.l,.m{opacity:0.8;}.b{fill:url(#b);}.c{isolation:isolate;}.d{fill:#683c11;fill-opacity:0.51;}.e,.g{mix-blend-mode:multiply;}.e{fill:url(#c);}.f{clip-path:url(#e);}.g{fill:url(#f);}.h{opacity:0.42;fill:url(#g);}.i{fill:url(#h);}.j{clip-path:url(#j);}.k{fill:url(#k);}.l{fill:url(#l);}.bm,.m{stroke-miterlimit:10;}.m,.t{stroke-width:1.24537px;}.m{fill:url(#m);stroke:url(#n);}.bc,.bd,.bk,.bn,.bz,.cb,.n{opacity:0.5;}.o{fill:url(#o);}.aa,.ab,.ae,.ah,.ai,.al,.ao,.ap,.as,.av,.aw,.p,.s,.t,.x{mix-blend-mode:soft-light;}.p{fill:url(#p);}.q{fill:url(#q);}.r{fill:url(#r);}.s{fill:url(#s);}.ab,.ai,.ap,.aw,.bi,.bm,.t{fill:none;}.ab,.ai,.ap,.aw,.t{stroke-linecap:round;stroke-linejoin:round;}.t{stroke:url(#t);}.u{fill:url(#u);}.v{opacity:0.3;}.w{fill:url(#v);}.x{fill:url(#w);}.y{fill:url(#x);}.z{fill:url(#y);}.aa{fill:url(#z);}.ab{stroke-width:0.70381px;stroke:url(#aa);}.ac{fill:url(#ab);}.ad{fill:url(#ac);}.ae{fill:url(#ad);}.af{fill:url(#ae);}.ag{fill:url(#af);}.ah{fill:url(#ag);}.ai{stroke-width:0.37443px;stroke:url(#ah);}.aj{fill:url(#ai);}.ak{fill:url(#aj);}.al{fill:url(#ak);}.am{fill:url(#al);}.an{fill:url(#am);}.ao{fill:url(#an);}.ap{stroke-width:0.82187px;stroke:url(#ao);}.aq{fill:url(#ap);}.ar{fill:url(#aq);}.as{fill:url(#ar);}.at{fill:url(#as);}.au{fill:url(#at);}.av{fill:url(#au);}.aw{stroke-width:0.43723px;stroke:url(#av);}.ax{fill:url(#aw);}.ay{opacity:0.54;}.az{fill:url(#ax);}.ba{mix-blend-mode:hard-light;}.bb{fill:url(#ay);}.bc{fill:url(#az);}.bd{fill:url(#ba);}.be,.bu{opacity:0.25;}.be,.bf,.bg,.bh,.bj,.bk,.bl,.bm,.bn,.bo,.bp,.bq,.br,.bs,.bu,.bv,.bw,.bx,.by,.bz,.ca,.cb,.cc,.cd,.ce,.cf,.cg{mix-blend-mode:screen;}.be{fill:url(#bb);}.bf{fill:url(#bc);}.bg{fill:url(#bd);}.bh,.bx{opacity:0.2;}.bh{fill:url(#be);}.bj,.by{opacity:0.15;}.bj{fill:url(#bf);}.bk{fill:url(#bg);}.bl{fill:url(#bh);}.bm{stroke:#fff;stroke-width:2.49074px;opacity:0.03;}.bn{fill:url(#bi);}.bo{fill:url(#bj);}.bp{fill:url(#bk);}.bq{fill:url(#bl);}.br{fill:url(#bm);}.bs{fill:url(#bn);}.bt{fill:url(#bo);}.bu{fill:url(#bp);}.bv{fill:url(#bq);}.bw{fill:url(#br);}.bx{fill:url(#bs);}.by{fill:url(#bt);}.bz{fill:url(#bu);}.ca{fill:url(#bv);}.cb{fill:url(#bw);}.cc{fill:url(#bx);}.cd{fill:url(#by);}.ce{fill:url(#bz);}.cf{fill:url(#ca);}.cg{fill:url(#cb);}</style><linearGradient id="a" x1="212.32944" y1="266.26531" x2="343.09068" y2="266.26531" gradientUnits="userSpaceOnUse"><stop offset="0" stop-color="#f5fbff"/><stop offset="0.62567" stop-color="#e9f1f5"/><stop offset="1" stop-color="#c5d9e0"/></linearGradient><linearGradient id="b" x1="350.51062" y1="436.92267" x2="195.81294" y2="231.89273" gradientUnits="userSpaceOnUse"><stop offset="0" stop-color="#07bb6c"/><stop offset="1" stop-color="#39f098"/></linearGradient><linearGradient id="c" x1="314.63664" y1="122.43892" x2="282.52443" y2="383.99056" gradientUnits="userSpaceOnUse"><stop offset="0" stop-color="#bfc4c7"/><stop offset="1" stop-color="#b1c3c9"/></linearGradient><clipPath id="e"><path class="a" d="M408.26689,405.7209,343.091,176.231V105.34926c0,7.24792-28.38906,13.12353-63.409,13.12353s-63.409-5.87561-63.409-13.12353V176.231L151.0968,405.7209a16.974,16.974,0,0,0,16.37043,21.46046H391.89646A16.974,16.974,0,0,0,408.26689,405.7209Z"/></clipPath><linearGradient id="f" x1="221.87963" y1="261.49145" x2="298.12117" y2="458.39351" gradientUnits="userSpaceOnUse"><stop offset="0" stop-color="#f5f5f5"/><stop offset="1" stop-color="#c3d1d6"/></linearGradient><linearGradient id="g" x1="494.25113" y1="310.79489" x2="264.75137" y2="310.79489" xlink:href="#b"/><linearGradient id="h" x1="279.68196" y1="79.10124" x2="279.68196" y2="118.20217" xlink:href="#a"/><clipPath id="j"><path class="b" d="M393.40969,399.60722l-55.61756-195.836h-.60171c0,6.98613-25.7402,12.64944-57.49231,12.64944s-57.49231-5.66331-57.49231-12.64944h-.63424L165.9543,399.6073a13.67654,13.67654,0,0,0,13.15637,17.41308H380.25333A13.67684,13.67684,0,0,0,393.40969,399.60722Z"/></clipPath><linearGradient id="k" x1="526.80217" y1="330.23787" x2="227.83206" y2="330.23787" xlink:href="#b"/><linearGradient id="l" x1="97.78208" y1="381.74329" x2="442.88115" y2="381.74329" xlink:href="#b"/><linearGradient id="m" x1="381.80373" y1="203.77122" x2="245.55707" y2="203.77122" xlink:href="#b"/><linearGradient id="n" x1="221.58316" y1="203.77122" x2="337.81319" y2="203.77122" gradientUnits="userSpaceOnUse"><stop offset="0" stop-color="#26ffa1"/><stop offset="1" stop-color="#39f098"/></linearGradient><radialGradient id="o" cx="250.34548" cy="219.86168" r="20.84617" gradientTransform="matrix(0.2537, -0.96728, 0.95587, 0.2507, -23.32638, 406.89643)" gradientUnits="userSpaceOnUse"><stop offset="0" stop-color="#35c77a" stop-opacity="0.8"/><stop offset="0.29921" stop-color="#39ca7d" stop-opacity="0.80046"/><stop offset="0.52418" stop-color="#44d287" stop-opacity="0.80193"/><stop offset="0.72493" stop-color="#58e097" stop-opacity="0.8044"/><stop offset="0.91041" stop-color="#74f3af" stop-opacity="0.80787"/><stop offset="1" stop-color="#85ffbd" stop-opacity="0.81"/></radialGradient><radialGradient id="p" cx="450.95108" cy="653.52174" r="13.50603" gradientTransform="translate(-312.24953 -296.14686) scale(1.24415 0.77108)" gradientUnits="userSpaceOnUse"><stop offset="0" stop-color="#52ebc1"/><stop offset="0.37881" stop-color="#52ebc1" stop-opacity="0.99203"/><stop offset="0.51527" stop-color="#53eac1" stop-opacity="0.96313"/><stop offset="0.61253" stop-color="#55eac0" stop-opacity="0.91281"/><stop offset="0.69121" stop-color="#57e9c0" stop-opacity="0.8409"/><stop offset="0.75863" stop-color="#5ae7bf" stop-opacity="0.74715"/><stop offset="0.81834" stop-color="#5ee5be" stop-opacity="0.63133"/><stop offset="0.87231" stop-color="#62e3bd" stop-opacity="0.49335"/><stop offset="0.92196" stop-color="#67e1bc" stop-opacity="0.33264"/><stop offset="0.96609" stop-color="#6ddeba" stop-opacity="0.15775"/><stop offset="1" stop-color="#72dcb9" stop-opacity="0"/></radialGradient><radialGradient id="q" cx="262.01832" cy="208.84506" r="1.70715" gradientTransform="matrix(0.2537, -0.96728, 0.95587, 0.2507, -4.08442, 409.93268)" gradientUnits="userSpaceOnUse"><stop offset="0" stop-color="#c1ebde"/><stop offset="0.37881" stop-color="#c0ebde" stop-opacity="0.99203"/><stop offset="0.51527" stop-color="#beeadd" stop-opacity="0.96313"/><stop offset="0.61253" stop-color="#baeadb" stop-opacity="0.91281"/><stop offset="0.69121" stop-color="#b4e9d8" stop-opacity="0.8409"/><stop offset="0.75863" stop-color="#ade7d5" stop-opacity="0.74715"/><stop offset="0.81834" stop-color="#a4e5d0" stop-opacity="0.63133"/><stop offset="0.87231" stop-color="#99e3cb" stop-opacity="0.49335"/><stop offset="0.92196" stop-color="#8ce1c5" stop-opacity="0.33264"/><stop offset="0.96609" stop-color="#7edebf" stop-opacity="0.15775"/><stop offset="1" stop-color="#72dcb9" stop-opacity="0"/></radialGradient><radialGradient id="r" cx="264.82555" cy="211.20476" r="0.61895" gradientTransform="matrix(0.2537, -0.96728, 0.95587, 0.2507, -4.24495, 414.41618)" gradientUnits="userSpaceOnUse"><stop offset="0" stop-color="#c1ebde"/><stop offset="0.22496" stop-color="#c0ebde" stop-opacity="0.98901"/><stop offset="0.3644" stop-color="#bdeadc" stop-opacity="0.95275"/><stop offset="0.48062" stop-color="#b8e9da" stop-opacity="0.89088"/><stop offset="0.58411" stop-color="#b1e8d7" stop-opacity="0.80322"/><stop offset="0.67914" stop-color="#a8e6d3" stop-opacity="0.68961"/><stop offset="0.7679" stop-color="#9de4cd" stop-opacity="0.55"/><stop offset="0.85188" stop-color="#90e2c7" stop-opacity="0.38414"/><stop offset="0.92991" stop-color="#82dfc0" stop-opacity="0.19725"/><stop offset="1" stop-color="#72dcb9" stop-opacity="0"/></radialGradient><radialGradient id="s" cx="240.7142" cy="234.71697" r="0.61895" gradientTransform="matrix(0.2537, -0.96728, 0.95587, 0.2507, -44.71401, 408.71126)" xlink:href="#r"/><radialGradient id="t" cx="236.08002" cy="227.53208" r="5.45098" gradientTransform="matrix(1, 0, 0, 1, 0, 0)" xlink:href="#q"/><radialGradient id="u" cx="260.22147" cy="231.79519" r="2.48527" gradientTransform="translate(0 33.67295) scale(1 0.85473)" gradientUnits="userSpaceOnUse"><stop offset="0" stop-color="#52ebc1"/><stop offset="0.09168" stop-color="#53ebc1" stop-opacity="0.96822"/><stop offset="0.22975" stop-color="#56e9c0" stop-opacity="0.88033"/><stop offset="0.39704" stop-color="#5ae7bf" stop-opacity="0.73641"/><stop offset="0.58721" stop-color="#61e4bd" stop-opacity="0.53628"/><stop offset="0.79369" stop-color="#69e0bb" stop-opacity="0.2836"/><stop offset="1" stop-color="#72dcb9" stop-opacity="0"/></radialGradient><radialGradient id="v" cx="310.523" cy="189.52484" r="11.78101" gradientTransform="matrix(0.2537, -0.96728, 0.95587, 0.2507, 50.58243, 442.3739)" xlink:href="#o"/><radialGradient id="w" cx="501.24569" cy="630.91436" r="7.6328" gradientTransform="translate(-313.97487 -303.79259) scale(1.24415 0.77108)" xlink:href="#p"/><radialGradient id="x" cx="317.11979" cy="183.29891" r="0.96478" gradientTransform="matrix(0.2537, -0.96728, 0.95587, 0.2507, 61.45684, 444.08981)" xlink:href="#q"/><radialGradient id="y" cx="318.70627" cy="184.63247" r="0.34979" gradientTransform="matrix(0.2537, -0.96728, 0.95587, 0.2507, 61.36611, 446.62362)" xlink:href="#r"/><radialGradient id="z" cx="305.07997" cy="197.92017" r="0.34979" gradientTransform="matrix(0.2537, -0.96728, 0.95587, 0.2507, 38.49542, 443.39954)" xlink:href="#r"/><radialGradient id="aa" cx="302.46101" cy="193.85969" r="3.08057" gradientTransform="matrix(1, 0, 0, 1, 0, 0)" xlink:href="#q"/><radialGradient id="ab" cx="316.10432" cy="196.26895" r="1.40453" gradientTransform="translate(0 28.51204) scale(1 0.85473)" xlink:href="#u"/><radialGradient id="ac" cx="284.24753" cy="161.60352" r="6.26748" gradientTransform="matrix(0.2537, -0.96728, 0.95587, 0.2507, 57.66221, 396.03676)" xlink:href="#o"/><radialGradient id="ad" cx="482.02018" cy="601.41555" r="4.06064" gradientTransform="translate(-315.92263 -305.76945) scale(1.24415 0.77108)" xlink:href="#p"/><radialGradient id="ae" cx="287.75701" cy="158.29134" r="0.51326" gradientTransform="matrix(0.2537, -0.96728, 0.95587, 0.2507, 63.44738, 396.94963)" xlink:href="#q"/><radialGradient id="af" cx="288.60102" cy="159.00079" r="0.18609" gradientTransform="matrix(0.2537, -0.96728, 0.95587, 0.2507, 63.39912, 398.29761)" xlink:href="#r"/><radialGradient id="ag" cx="281.35185" cy="166.06982" r="0.18609" gradientTransform="matrix(0.2537, -0.96728, 0.95587, 0.2507, 51.23195, 396.5824)" xlink:href="#r"/><radialGradient id="ah" cx="279.95857" cy="163.90966" r="1.63886" gradientTransform="matrix(1, 0, 0, 1, 0, 0)" xlink:href="#q"/><radialGradient id="ai" cx="287.21678" cy="165.19138" r="0.74721" gradientTransform="translate(0 23.9974) scale(1 0.85473)" xlink:href="#u"/><radialGradient id="aj" cx="283.64289" cy="261.24774" r="13.75721" gradientTransform="matrix(0.2537, -0.96728, 0.95587, 0.2507, -38.03626, 470.11485)" xlink:href="#o"/><radialGradient id="ak" cx="475.28685" cy="706.65254" r="8.91317" gradientTransform="translate(-308.70458 -291.61605) scale(1.24415 0.77108)" xlink:href="#p"/><radialGradient id="al" cx="291.34627" cy="253.97744" r="1.12662" gradientTransform="matrix(0.2537, -0.96728, 0.95587, 0.2507, -25.33773, 472.1186)" xlink:href="#q"/><radialGradient id="am" cx="293.19887" cy="255.5347" r="0.40847" gradientTransform="matrix(0.2537, -0.96728, 0.95587, 0.2507, -25.44367, 475.07744)" xlink:href="#r"/><radialGradient id="an" cx="277.28683" cy="271.05134" r="0.40847" gradientTransform="matrix(0.2537, -0.96728, 0.95587, 0.2507, -52.1508, 471.31253)" xlink:href="#r"/><radialGradient id="ao" cx="274.22855" cy="266.30974" r="3.59732" gradientTransform="matrix(1, 0, 0, 1, 0, 0)" xlink:href="#q"/><radialGradient id="ap" cx="290.16045" cy="269.12314" r="1.64013" gradientTransform="translate(0 39.09559) scale(1 0.85473)" xlink:href="#u"/><radialGradient id="aq" cx="255.87839" cy="300.8865" r="7.31881" gradientTransform="matrix(0.2537, -0.96728, 0.95587, 0.2507, -96.64662, 472.95985)" xlink:href="#o"/><radialGradient id="ar" cx="450.77535" cy="752.30182" r="4.74179" gradientTransform="translate(-305.49632 -283.44113) scale(1.24415 0.77108)" xlink:href="#p"/><radialGradient id="as" cx="259.97657" cy="297.01872" r="0.59936" gradientTransform="matrix(0.2537, -0.96728, 0.95587, 0.2507, -89.89102, 474.02584)" xlink:href="#q"/><radialGradient id="at" cx="260.96215" cy="297.84717" r="0.21731" gradientTransform="matrix(0.2537, -0.96728, 0.95587, 0.2507, -89.94738, 475.59994)" xlink:href="#r"/><radialGradient id="au" cx="252.49698" cy="306.102" r="0.21731" gradientTransform="matrix(0.2537, -0.96728, 0.95587, 0.2507, -104.15553, 473.59701)" xlink:href="#r"/><radialGradient id="av" cx="250.86998" cy="303.57948" r="1.91377" gradientTransform="matrix(1, 0, 0, 1, 0, 0)" xlink:href="#q"/><radialGradient id="aw" cx="259.34572" cy="305.0762" r="0.87255" gradientTransform="translate(0 44.3185) scale(1 0.85473)" xlink:href="#u"/><radialGradient id="ax" cx="329.14197" cy="187.62141" r="96.86305" gradientTransform="translate(304.82159 -141.34039) rotate(81.99169) scale(1 0.11591)" gradientUnits="userSpaceOnUse"><stop offset="0" stop-color="#e6f3ff"/><stop offset="1" stop-color="#b9cbf0" stop-opacity="0"/></radialGradient><radialGradient id="ay" cx="211.28205" cy="310.39597" r="79.87596" gradientTransform="matrix(0.2537, -0.96728, 0.15236, 0.03996, 110.38968, 502.36234)" xlink:href="#ax"/><radialGradient id="az" cx="347.41224" cy="294.68334" r="5.63016" gradientTransform="matrix(1, 0, 0, 1, 0, 0)" xlink:href="#ax"/><radialGradient id="ba" cx="329.30498" cy="185.02754" r="5.63016" gradientTransform="matrix(1, 0, 0, 1, 0, 0)" xlink:href="#ax"/><radialGradient id="bb" cx="216.0282" cy="284.73079" r="19.98648" gradientUnits="userSpaceOnUse"><stop offset="0.1"/><stop offset="0.11244" stop-color="#080602"/><stop offset="0.16172" stop-color="#231b08"/><stop offset="0.21838" stop-color="#392c0d"/><stop offset="0.28458" stop-color="#4a3910"/><stop offset="0.36644" stop-color="#554213"/><stop offset="0.48125" stop-color="#5c4815"/><stop offset="0.8" stop-color="#5e4915"/><stop offset="1"/></radialGradient><radialGradient id="bc" cx="194.00739" cy="354.59959" r="0.6662" gradientUnits="userSpaceOnUse"><stop offset="0" stop-color="#d4e194"/><stop offset="0.05952" stop-color="#afba7a"/><stop offset="0.13651" stop-color="#868f5e"/><stop offset="0.21955" stop-color="#626845"/><stop offset="0.30759" stop-color="#44482f"/><stop offset="0.40211" stop-color="#2b2e1e"/><stop offset="0.50556" stop-color="#181911"/><stop offset="0.62249" stop-color="#0a0b07"/><stop offset="0.76429" stop-color="#020302"/><stop offset="1"/></radialGradient><radialGradient id="bd" cx="192.29743" cy="360.02483" r="0.6662" xlink:href="#bc"/><radialGradient id="be" cx="193.24666" cy="357.0131" r="4.99665" gradientUnits="userSpaceOnUse"><stop offset="0.05"/><stop offset="0.09242" stop-color="#040a03"/><stop offset="0.29802" stop-color="#183411"/><stop offset="0.48337" stop-color="#25531c"/><stop offset="0.64031" stop-color="#2e6622"/><stop offset="0.75" stop-color="#316d24"/><stop offset="0.78593" stop-color="#4f6e16"/><stop offset="0.83397" stop-color="#716f06"/><stop offset="0.86" stop-color="#7e6f00"/><stop offset="0.88764" stop-color="#7a6c00"/><stop offset="0.91229" stop-color="#706200"/><stop offset="0.93581" stop-color="#5d5200"/><stop offset="0.95863" stop-color="#443c00"/><stop offset="0.98074" stop-color="#231f00"/><stop offset="1"/></radialGradient><radialGradient id="bf" cx="211.28205" cy="299.78957" r="13.32427" gradientUnits="userSpaceOnUse"><stop offset="0" stop-color="#200"/><stop offset="0.73" stop-color="#984023"/><stop offset="1" stop-color="#200"/></radialGradient><radialGradient id="bg" cx="211.28205" cy="299.78957" r="6.66221" gradientUnits="userSpaceOnUse"><stop offset="0.15" stop-color="#fff"/><stop offset="0.20939" stop-color="#e5d3d3"/><stop offset="0.29044" stop-color="#c49c9e"/><stop offset="0.36051" stop-color="#ad7477"/><stop offset="0.41599" stop-color="#9e5c5f"/><stop offset="0.45" stop-color="#995356"/><stop offset="0.57175" stop-color="#6b3335"/><stop offset="0.69355" stop-color="#431718"/><stop offset="0.79053" stop-color="#2b0606"/><stop offset="0.85" stop-color="#200"/><stop offset="0.85727" stop-color="#260201"/><stop offset="0.8648" stop-color="#330704"/><stop offset="0.87246" stop-color="#471009"/><stop offset="0.8802" stop-color="#641d0f"/><stop offset="0.88801" stop-color="#8a2e18"/><stop offset="0.89577" stop-color="#b74223"/><stop offset="0.9" stop-color="#d34e29"/><stop offset="0.90254" stop-color="#c84927"/><stop offset="0.91417" stop-color="#9c361c"/><stop offset="0.92635" stop-color="#772514"/><stop offset="0.93893" stop-color="#58180c"/><stop offset="0.95205" stop-color="#400d07"/><stop offset="0.96594" stop-color="#2f0603"/><stop offset="0.98111" stop-color="#250101"/><stop offset="1" stop-color="#200"/></radialGradient><radialGradient id="bh" cx="211.28205" cy="299.78957" r="5.55184" gradientUnits="userSpaceOnUse"><stop offset="0.15" stop-color="#fff"/><stop offset="0.28237" stop-color="#c2c2c2"/><stop offset="0.42528" stop-color="#888"/><stop offset="0.5636" stop-color="#575757"/><stop offset="0.69361" stop-color="#313131"/><stop offset="0.81336" stop-color="#161616"/><stop offset="0.91921" stop-color="#060606"/><stop offset="1"/></radialGradient><radialGradient id="bi" cx="192.29743" cy="360.02483" r="9.9933" gradientUnits="userSpaceOnUse"><stop offset="0.64"/><stop offset="0.71799" stop-color="#000200"/><stop offset="0.74608" stop-color="#020902"/><stop offset="0.76609" stop-color="#051405"/><stop offset="0.78228" stop-color="#082509"/><stop offset="0.79598" stop-color="#0d3b0e"/><stop offset="0.8" stop-color="#0f4310"/><stop offset="0.8131" stop-color="#1e2c0a"/><stop offset="0.82975" stop-color="#2d1605"/><stop offset="0.84569" stop-color="#360901"/><stop offset="0.86" stop-color="#390400"/><stop offset="0.8715" stop-color="#250300"/><stop offset="0.88602" stop-color="#140100"/><stop offset="0.90412" stop-color="#090100"/><stop offset="0.92951" stop-color="#020000"/><stop offset="1"/></radialGradient><radialGradient id="bj" cx="195.96362" cy="348.39303" r="2.8404" gradientUnits="userSpaceOnUse"><stop offset="0.1"/><stop offset="0.24639" stop-color="#1b1103"/><stop offset="0.42619" stop-color="#362207"/><stop offset="0.61009" stop-color="#492e09"/><stop offset="0.79889" stop-color="#54350b"/><stop offset="1" stop-color="#58370b"/></radialGradient><radialGradient id="bk" cx="205.85939" cy="316.99506" r="1.58647" gradientUnits="userSpaceOnUse"><stop offset="0.1" stop-color="#192f1b"/><stop offset="0.2285" stop-color="#122214"/><stop offset="0.47516" stop-color="#080f09"/><stop offset="0.72928" stop-color="#020402"/><stop offset="1"/></radialGradient><radialGradient id="bl" cx="199.82226" cy="336.15002" r="1.05071" xlink:href="#bj"/><radialGradient id="bm" cx="198.86695" cy="339.1809" r="1.47759" gradientUnits="userSpaceOnUse"><stop offset="0.1"/><stop offset="0.29001" stop-color="#14160e"/><stop offset="0.51699" stop-color="#25291a"/><stop offset="0.75084" stop-color="#303422"/><stop offset="1" stop-color="#333824"/></radialGradient><radialGradient id="bn" cx="196.1503" cy="347.80022" r="2.74344" xlink:href="#bk"/><radialGradient id="bo" cx="232.87505" cy="114.89651" r="10.30064" gradientUnits="userSpaceOnUse"><stop offset="0" stop-color="#fff"/><stop offset="1" stop-color="#b9cbf0" stop-opacity="0"/></radialGradient><radialGradient id="bp" cx="324.90651" cy="195.46606" r="19.49085" xlink:href="#bb"/><radialGradient id="bq" cx="336.15924" cy="278.20739" r="0.64971" xlink:href="#bc"/><radialGradient id="br" cx="337.08536" cy="285.01626" r="0.64971" xlink:href="#bc"/><radialGradient id="bs" cx="336.59828" cy="281.43423" r="4.87267" xlink:href="#be"/><radialGradient id="bt" cx="327.34222" cy="213.3761" r="12.99396" xlink:href="#bf"/><radialGradient id="bu" cx="327.34222" cy="213.3761" r="6.49689" xlink:href="#bg"/><radialGradient id="bv" cx="327.34222" cy="213.3761" r="5.41414" xlink:href="#bh"/><radialGradient id="bw" cx="337.08536" cy="285.01626" r="9.74535" xlink:href="#bi"/><radialGradient id="bx" cx="334.72718" cy="267.67578" r="1.10156" gradientUnits="userSpaceOnUse"><stop offset="0.1"/><stop offset="0.2047" stop-color="#1c1713"/><stop offset="0.35581" stop-color="#3e3229"/><stop offset="0.51018" stop-color="#59473b"/><stop offset="0.66721" stop-color="#6c5647"/><stop offset="0.82838" stop-color="#775f4f"/><stop offset="1" stop-color="#7b6251"/></radialGradient><radialGradient id="by" cx="328.30878" cy="220.4834" r="2.14261" gradientUnits="userSpaceOnUse"><stop offset="0.1" stop-color="#393a2f"/><stop offset="0.30165" stop-color="#21221c"/><stop offset="0.52494" stop-color="#0f0f0c"/><stop offset="0.75495" stop-color="#040403"/><stop offset="1"/></radialGradient><radialGradient id="bz" cx="331.26319" cy="242.20754" r="1.97926" gradientUnits="userSpaceOnUse"><stop offset="0.1"/><stop offset="0.11031" stop-color="#010100"/><stop offset="0.32262" stop-color="#1c0e05"/><stop offset="0.53968" stop-color="#2f1808"/><stop offset="0.76257" stop-color="#3a1e09"/><stop offset="1" stop-color="#3e200a"/></radialGradient><radialGradient id="ca" cx="329.82627" cy="231.64195" r="2.49165" gradientUnits="userSpaceOnUse"><stop offset="0.1" stop-color="#7e9c95"/><stop offset="0.15454" stop-color="#6e8983"/><stop offset="0.2879" stop-color="#4d5f5b"/><stop offset="0.42427" stop-color="#313d3a"/><stop offset="0.56231" stop-color="#1c2221"/><stop offset="0.70265" stop-color="#0c0f0e"/><stop offset="0.84664" stop-color="#030404"/><stop offset="1"/></radialGradient><radialGradient id="cb" cx="336.38332" cy="279.85372" r="0.70539" gradientUnits="userSpaceOnUse"><stop offset="0.1"/><stop offset="0.22259" stop-color="#1b1722"/><stop offset="0.37027" stop-color="#352e44"/><stop offset="0.52121" stop-color="#4a3f5f"/><stop offset="0.67469" stop-color="#584c72"/><stop offset="0.8322" stop-color="#61547d"/><stop offset="1" stop-color="#645681"/></radialGradient></defs><g class="c"><ellipse class="d" cx="269.12711" cy="422.28889" rx="144.19211" ry="23.28088"/><path class="e" d="M399.72472,403.17413,339.40654,176.03358l.00787-66.2699c-17.75085,8.70907-35.47443,8.70911-59.73241,8.70911-25.0409,0-46.6847-3.005-56.99033-7.36688l-2.97677-3.17144.60954,68.81453L159.639,403.17413a14.43621,14.43621,0,0,0,13.887,18.38H385.83774A14.43607,14.43607,0,0,0,399.72472,403.17413Z"/><path class="a" d="M408.26689,405.7209,343.091,176.231V105.34926c0,7.24792-28.38906,13.12353-63.409,13.12353s-63.409-5.87561-63.409-13.12353V176.231L151.0968,405.7209a16.974,16.974,0,0,0,16.37043,21.46046H391.89646A16.974,16.974,0,0,0,408.26689,405.7209Z"/><g class="f"><path class="g" d="M401.26038,410.97884c0-12.68914-54.23417-24.21532-121.13541-24.21532s-121.13542,12.00794-121.13542,24.69707,11.80991,10.1263,121.13542,11.13877C383.8904,423.56034,401.26038,423.668,401.26038,410.97884Z"/><path class="h" d="M303.65714,192.55989c-2.80175-.31816-5.59682-.69123-8.39593-1.03118a108.84042,108.84042,0,0,0-15.01056-1.03272c-2.193.03845-4.39639.36006-6.55272.20571a62.46431,62.46431,0,0,0-7.14072-.04066c-9.72284.41819-19.28128,2.38686-28.77975,4.37841q-4.31316.90434-8.64184,1.73241c-6.01064,1.14982-12.15181,2.21117-17.73607,4.82648-1.48031.69328-2.55342,1.04806-3.08164,2.53739-.19881.56055-.33629,1.15159-.503,1.72257l-4.59562,15.73721-6.853,23.46722L188.003,273.70185l-9.12657,31.253-9.14286,31.30872-8.41212,28.80639-6.93437,23.746-4.7096,16.12751-1.73781,5.95093,7.53771,20.20928H412.84963v-42.6524l-61.93708-184.68c-5.89651-2.38476-11.9462-4.22669-17.94789-6.30536-5.53008-1.91533-11.61122-2.03905-17.25489-3.68935C312.00466,192.69308,307.50321,192.99665,303.65714,192.55989Z"/></g><ellipse class="i" cx="279.68196" cy="105.34924" rx="63.4091" ry="13.12351"/><path class="b" d="M393.40969,399.60722l-55.61756-195.836h-.60171c0,6.98613-25.7402,12.64944-57.49231,12.64944s-57.49231-5.66331-57.49231-12.64944h-.63424L165.9543,399.6073a13.67654,13.67654,0,0,0,13.15637,17.41308H380.25333A13.67684,13.67684,0,0,0,393.40969,399.60722Z"/><g class="j"><path class="k" d="M257.41361,262.58819c-28.84181,4.469-58.13244,6.29623-86.57756,12.83056s-56.625,18.32337-76.76012,39.4515c-11.66189,12.237-20.57245,28.8161-17.95551,45.51627,2.05123,13.09,11.00468,24.3366,21.93309,31.82829s23.74413,11.69316,36.51424,15.22582c74.25136,20.54052,156.51867,20.7286,225.64542-13.28124,13.90016-6.83877,27.29-15.09294,38.188-26.10276s19.21421-24.981,21.62539-40.28357c2.48517-15.77218-1.48981-32.23249-9.715-45.91765a92.18483,92.18483,0,0,0-27.27321-28.22758,89.44715,89.44715,0,0,0-16.5116-8.80486c-7.67978-3.18382-12.1877-7.99135-20.31777-4.91245-9.51758,3.60435-19.31018,6.61892-29.08109,9.451A476.88132,476.88132,0,0,1,257.41361,262.58819Z"/><path class="l" d="M279.53459,314.09361c-28.84181,4.469-58.13244,6.29623-86.57756,12.83056s-56.625,18.32337-76.76012,39.4515c-11.66189,12.237-20.57246,28.8161-17.95551,45.51627,2.05122,13.09,11.00468,24.3366,21.93309,31.82828s23.74412,11.69317,36.51424,15.22583c74.25135,20.54052,156.51867,20.7286,225.64542-13.28124,13.90016-6.83877,27.29-15.09294,38.188-26.10276s19.21421-24.981,21.62539-40.28357c2.48517-15.77218-1.48981-32.23249-9.715-45.91765a92.18474,92.18474,0,0,0-27.27322-28.22758,89.44675,89.44675,0,0,0-16.51159-8.80486c-7.67978-3.18382-12.1877-7.99135-20.31777-4.91245-9.51759,3.60435-19.31018,6.61892-29.08109,9.451A476.88132,476.88132,0,0,1,279.53459,314.09361Z"/></g><ellipse class="m" cx="279.69818" cy="203.77122" rx="57.49233" ry="12.64945"/><g class="n"><circle class="o" cx="250.34548" cy="219.86168" r="21.94151"/><ellipse class="p" cx="248.80188" cy="207.76789" rx="14.66347" ry="8.84042" transform="translate(-15.02849 19.45059) rotate(-4.34581)"/><circle class="q" cx="262.01832" cy="208.84506" r="1.79686"/><circle class="r" cx="264.82555" cy="211.20476" r="0.65147"/><circle class="s" cx="240.7142" cy="234.71697" r="0.65147"/><path class="t" d="M232.8877,221.46332c-.2153,4.23544,2.3335,10.34467,6.39729,12.13752"/><circle class="u" cx="260.22147" cy="231.79519" r="1.99438"/></g><g class="v"><circle class="w" cx="310.523" cy="189.52484" r="12.40003"/><ellipse class="x" cx="309.65065" cy="182.69015" rx="8.28692" ry="4.99608" transform="translate(-12.95325 23.98937) rotate(-4.34581)"/><circle class="y" cx="317.11979" cy="183.29891" r="1.01548"/><circle class="z" cx="318.70627" cy="184.63247" r="0.36817"/><circle class="aa" cx="305.07997" cy="197.92017" r="0.36817"/><path class="ab" d="M300.6569,190.43c-.12167,2.39362,1.31876,5.84619,3.61537,6.8594"/><circle class="ac" cx="316.10432" cy="196.26895" r="1.1271"/></g><g class="v"><circle class="ad" cx="284.24753" cy="161.60352" r="6.59679"/><ellipse class="ae" cx="283.78344" cy="157.96748" rx="4.40863" ry="2.6579" transform="translate(-11.15424 21.95817) rotate(-4.34581)"/><circle class="af" cx="287.75701" cy="158.29134" r="0.54023"/><circle class="ag" cx="288.60102" cy="159.00079" r="0.19587"/><circle class="ah" cx="281.35185" cy="166.06982" r="0.19587"/><path class="ai" d="M278.99879,162.08506a4.10837,4.10837,0,0,0,1.92336,3.64919"/><circle class="aj" cx="287.21678" cy="165.19138" r="0.59962"/></g><g class="v"><circle class="ak" cx="283.64289" cy="261.24774" r="14.48007"/><ellipse class="al" cx="282.62421" cy="253.26657" rx="9.67701" ry="5.83414" transform="translate(-18.37896 22.14433) rotate(-4.34581)"/><circle class="am" cx="291.34627" cy="253.97744" r="1.18582"/><circle class="an" cx="293.19887" cy="255.5347" r="0.42993"/><circle class="ao" cx="277.28683" cy="271.05134" r="0.42993"/><path class="ap" d="M272.12181,262.30472c-.14208,2.79514,1.54,6.82686,4.22183,8.01"/><circle class="aq" cx="290.16045" cy="269.12314" r="1.31617"/></g><g class="v"><circle class="ar" cx="255.87839" cy="300.8865" r="7.70337"/><ellipse class="as" cx="255.33645" cy="296.64053" rx="5.14815" ry="3.10376" transform="translate(-21.74413 20.20128) rotate(-4.34581)"/><circle class="at" cx="259.97657" cy="297.01872" r="0.63085"/><circle class="au" cx="260.96215" cy="297.84717" r="0.22872"/><circle class="av" cx="252.49698" cy="306.102" r="0.22872"/><path class="aw" d="M249.74919,301.44882c-.07558,1.487.81927,3.63188,2.246,4.26132"/><circle class="ax" cx="259.34572" cy="305.0762" r="0.7002"/></g><g class="ay"><path class="az" d="M343.08491,286.98631a6.22823,6.22823,0,0,1-6.087-4.945L316.83,186.28394a6.228,6.228,0,0,1-.13378-1.28308v-57.658a6.22685,6.22685,0,1,1,12.45371,0v57.00979l20.03418,95.12253a6.23268,6.23268,0,0,1-6.09915,7.51114Z"/></g><g class="ba"><path class="bb" d="M191.164,393.91769a6.85622,6.85622,0,0,1-6.63063-8.59051l40.24714-153.34059a6.84962,6.84962,0,0,1,13.25031,3.47828L197.78363,388.80546A6.85072,6.85072,0,0,1,191.164,393.91769Z"/></g><circle class="bc" cx="347.26034" cy="294.65645" r="6.23005"/><circle class="bd" cx="329.15308" cy="185.00064" r="6.23005"/><circle class="be" cx="216.0282" cy="284.73079" r="19.98648"/><circle class="bf" cx="194.00739" cy="354.59959" r="0.6662"/><circle class="bg" cx="192.29743" cy="360.02483" r="0.6662"/><circle class="bh" cx="193.24666" cy="357.0131" r="4.99665"/><line class="bi" x1="211.28205" y1="299.78957" x2="192.29743" y2="360.02483"/><circle class="bj" cx="211.28205" cy="299.78957" r="13.32427"/><circle class="bk" cx="211.28205" cy="299.78957" r="6.66221"/><circle class="bl" cx="211.28205" cy="299.78957" r="5.55184"/><polyline class="bm" points="211.282 299.79 207.697 321.378 211.282 299.79 214.867 278.201 211.282 299.79 189.694 296.204 211.282 299.79 232.871 303.375 211.282 299.79 214.226 327.928 211.282 299.79 208.338 271.651 211.282 299.79 183.144 302.734 211.282 299.79 239.42 296.845 211.282 299.79 225.144 322.876 211.282 299.79 197.42 276.703 211.282 299.79 188.195 313.652 211.282 299.79 234.369 285.928 211.282 299.79 206.991 318.1 211.282 299.79 215.573 281.48 211.282 299.79 192.972 295.498 211.282 299.79 229.592 304.081 211.282 299.79 211.116 302.009 211.282 299.79 211.448 297.57 211.282 299.79 209.063 299.624 211.282 299.79 213.501 299.955 211.282 299.79 197.057 324.366 211.282 299.79 225.507 275.213 211.282 299.79 186.705 285.564 211.282 299.79 235.859 314.015 211.282 299.79 205.192 307.554 211.282 299.79 217.372 292.025 211.282 299.79 203.518 293.699 211.282 299.79 219.046 305.88 211.282 299.79 214.426 306.472 211.282 299.79 208.138 293.107 211.282 299.79 204.599 302.934 211.282 299.79 217.965 296.646 211.282 299.79 236.279 321.707 211.282 299.79 186.285 277.872 211.282 299.79 189.365 324.787 211.282 299.79 233.199 274.793 211.282 299.79 216.812 326.911 211.282 299.79 205.752 272.668 211.282 299.79 184.16 305.32 211.282 299.79 238.404 294.259 211.282 299.79 216.3 331.55 211.282 299.79 206.264 268.03 211.282 299.79 179.522 304.808 211.282 299.79 243.042 294.771 211.282 299.79 213.895 305.58 211.282 299.79 208.669 293.999 211.282 299.79 205.491 302.402 211.282 299.79 217.073 297.177 211.282 299.79 228.407 315.157 211.282 299.79 194.157 284.422 211.282 299.79 195.914 316.915 211.282 299.79 226.65 282.664 211.282 299.79 202.813 322.893 211.282 299.79 219.751 276.686 211.282 299.79 188.179 291.321 211.282 299.79 234.386 308.258 211.282 299.79 212.546 319.878 211.282 299.79 210.018 279.701 211.282 299.79 191.193 301.054 211.282 299.79 231.371 298.525"/><circle class="bn" cx="192.29743" cy="360.02483" r="9.9933"/><circle class="bo" cx="195.96362" cy="348.39303" r="2.8404"/><circle class="bp" cx="205.85939" cy="316.99506" r="1.58647"/><circle class="bq" cx="199.82226" cy="336.15002" r="1.05071"/><circle class="br" cx="198.86695" cy="339.1809" r="1.47759"/><circle class="bs" cx="196.1503" cy="347.80022" r="2.74344"/><circle class="bt" cx="232.87505" cy="114.89651" r="10.30064"/><circle class="bu" cx="324.90651" cy="195.46606" r="19.49085"/><circle class="bv" cx="336.15924" cy="278.20739" r="0.64971"/><circle class="bw" cx="337.08536" cy="285.01626" r="0.64971"/><circle class="bx" cx="336.59828" cy="281.43423" r="4.87267"/><line class="bi" x1="327.34222" y1="213.3761" x2="337.08536" y2="285.01626"/><circle class="by" cx="327.34222" cy="213.3761" r="12.99396"/><circle class="bz" cx="327.34222" cy="213.3761" r="6.49689"/><circle class="ca" cx="327.34222" cy="213.3761" r="5.41414"/><polyline class="bm" points="327.342 213.376 332.189 213.55 327.342 213.376 322.495 213.202 327.342 213.376 327.169 218.223 327.342 213.376 327.516 208.529 327.342 213.376 335.436 236.409 327.342 213.376 319.249 190.343 327.342 213.376 304.309 221.47 327.342 213.376 350.376 205.282 327.342 213.376 336.737 225.754 327.342 213.376 317.947 200.998 327.342 213.376 314.964 222.771 327.342 213.376 339.721 203.981 327.342 213.376 330.041 226.28 327.342 213.376 324.644 200.472 327.342 213.376 314.438 216.074 327.342 213.376 340.247 210.678 327.342 213.376 332.531 216.881 327.342 213.376 322.153 209.872 327.342 213.376 323.838 218.565 327.342 213.376 330.847 208.187 327.342 213.376 341.397 223.168 327.342 213.376 313.287 203.585 327.342 213.376 317.551 227.431 327.342 213.376 337.134 199.321 327.342 213.376 342.005 214.79 327.342 213.376 312.679 211.962 327.342 213.376 325.928 228.039 327.342 213.376 328.756 198.713 327.342 213.376 332.961 231.097 327.342 213.376 321.723 195.655 327.342 213.376 309.621 218.995 327.342 213.376 345.063 207.757 327.342 213.376 328.87 214.107 327.342 213.376 325.815 212.646 327.342 213.376 326.612 214.904 327.342 213.376 328.073 211.848 327.342 213.376 348.962 229.925 327.342 213.376 305.722 196.827 327.342 213.376 310.794 234.996 327.342 213.376 343.891 191.756 327.342 213.376 329.11 230.493 327.342 213.376 325.574 196.26 327.342 213.376 310.226 215.144 327.342 213.376 344.459 211.608 327.342 213.376 351.648 216.907 327.342 213.376 303.037 209.846 327.342 213.376 323.812 237.682 327.342 213.376 330.873 189.071 327.342 213.376 327.549 244.408 327.342 213.376 327.135 182.344 327.342 213.376 296.31 213.583 327.342 213.376 358.374 213.169 327.342 213.376 335.427 232.555 327.342 213.376 319.257 194.197 327.342 213.376 308.164 221.461 327.342 213.376 346.521 205.291 327.342 213.376 333.364 232.577 327.342 213.376 321.321 194.175 327.342 213.376 308.141 219.397 327.342 213.376 346.543 207.355"/><circle class="cb" cx="337.08536" cy="285.01626" r="9.74535"/><circle class="cc" cx="334.72718" cy="267.67578" r="1.10156"/><circle class="cd" cx="328.30878" cy="220.4834" r="2.14261"/><circle class="ce" cx="331.26319" cy="242.20754" r="1.97926"/><circle class="cf" cx="329.82627" cy="231.64195" r="2.49165"/><circle class="cg" cx="336.38332" cy="279.85372" r="0.70539"/></g></svg>