<svg xmlns="http://www.w3.org/2000/svg" xmlns:xlink="http://www.w3.org/1999/xlink" viewBox="0 0 523.92572 512.20828"><defs><style>.a,.g{opacity:0.72;}.a{fill:url(#a);}.b{isolation:isolate;}.c{fill:#683c11;fill-opacity:0.51;}.d,.f{mix-blend-mode:multiply;}.d{fill:url(#b);}.e{clip-path:url(#d);}.f{fill:url(#e);}.g{fill:url(#f);}.h{opacity:0.54;}.i{fill:url(#g);}.j{opacity:0.8;mix-blend-mode:hard-light;}.k{fill:url(#h);}.l,.m,.t,.w{opacity:0.5;}.l{fill:url(#i);}.m{fill:url(#j);}.n{opacity:0.25;fill:url(#k);}.aa,.ab,.n,.o,.p,.q,.s,.t,.u,.v,.w,.x,.y,.z{mix-blend-mode:screen;}.o{fill:url(#l);}.p{fill:url(#m);}.q{opacity:0.2;fill:url(#n);}.r,.v{fill:none;}.s{opacity:0.15;fill:url(#o);}.t{fill:url(#p);}.u{fill:url(#q);}.v{stroke:#fff;stroke-miterlimit:10;stroke-width:2.49074px;opacity:0.03;}.w{fill:url(#r);}.x{fill:url(#s);}.y{fill:url(#t);}.z{fill:url(#u);}.aa{fill:url(#v);}.ab{fill:url(#w);}.ac{fill:url(#x);}</style><linearGradient id="a" x1="212.29414" y1="266.33577" x2="343.05538" y2="266.33577" gradientUnits="userSpaceOnUse"><stop offset="0" stop-color="#f5fbff"/><stop offset="0.62567" stop-color="#e9f1f5"/><stop offset="1" stop-color="#c5d9e0"/></linearGradient><linearGradient id="b" x1="314.60134" y1="122.50937" x2="282.48913" y2="384.06102" gradientUnits="userSpaceOnUse"><stop offset="0" stop-color="#bfc4c7"/><stop offset="1" stop-color="#b1c3c9"/></linearGradient><clipPath id="d"><path class="a" d="M408.23159,405.79135,343.05574,176.30144V105.41972c0,7.24792-28.389,13.12352-63.409,13.12352s-63.409-5.8756-63.409-13.12352v70.88172L151.06151,405.79135a16.974,16.974,0,0,0,16.37043,21.46046H391.86116A16.974,16.974,0,0,0,408.23159,405.79135Z"/></clipPath><linearGradient id="e" x1="221.84433" y1="261.56191" x2="298.08587" y2="458.46397" gradientUnits="userSpaceOnUse"><stop offset="0" stop-color="#f5f5f5"/><stop offset="1" stop-color="#c3d1d6"/></linearGradient><linearGradient id="f" x1="279.64666" y1="79.1717" x2="279.64666" y2="118.27263" xlink:href="#a"/><radialGradient id="g" cx="329.10667" cy="187.69187" r="96.86305" gradientTransform="translate(304.79929 -141.23612) rotate(81.99169) scale(1 0.11591)" gradientUnits="userSpaceOnUse"><stop offset="0" stop-color="#e6f3ff"/><stop offset="1" stop-color="#b9cbf0" stop-opacity="0"/></radialGradient><radialGradient id="h" cx="211.24675" cy="310.46643" r="79.87596" gradientTransform="matrix(0.2537, -0.96728, 0.15236, 0.03996, 110.35261, 502.39584)" xlink:href="#g"/><radialGradient id="i" cx="347.37694" cy="294.7538" r="5.63016" gradientTransform="matrix(1, 0, 0, 1, 0, 0)" xlink:href="#g"/><radialGradient id="j" cx="329.26968" cy="185.09799" r="5.63016" gradientTransform="matrix(1, 0, 0, 1, 0, 0)" xlink:href="#g"/><radialGradient id="k" cx="215.9929" cy="284.80125" r="19.98648" gradientUnits="userSpaceOnUse"><stop offset="0.1"/><stop offset="0.11244" stop-color="#080602"/><stop offset="0.16172" stop-color="#231b08"/><stop offset="0.21838" stop-color="#392c0d"/><stop offset="0.28458" stop-color="#4a3910"/><stop offset="0.36644" stop-color="#554213"/><stop offset="0.48125" stop-color="#5c4815"/><stop offset="0.8" stop-color="#5e4915"/><stop offset="1"/></radialGradient><radialGradient id="l" cx="193.97209" cy="354.67005" r="0.6662" gradientUnits="userSpaceOnUse"><stop offset="0" stop-color="#d4e194"/><stop offset="0.05952" stop-color="#afba7a"/><stop offset="0.13651" stop-color="#868f5e"/><stop offset="0.21955" stop-color="#626845"/><stop offset="0.30759" stop-color="#44482f"/><stop offset="0.40211" stop-color="#2b2e1e"/><stop offset="0.50556" stop-color="#181911"/><stop offset="0.62249" stop-color="#0a0b07"/><stop offset="0.76429" stop-color="#020302"/><stop offset="1"/></radialGradient><radialGradient id="m" cx="192.26213" cy="360.09529" r="0.6662" xlink:href="#l"/><radialGradient id="n" cx="193.21137" cy="357.08356" r="4.99665" gradientUnits="userSpaceOnUse"><stop offset="0.05"/><stop offset="0.09242" stop-color="#040a03"/><stop offset="0.29802" stop-color="#183411"/><stop offset="0.48337" stop-color="#25531c"/><stop offset="0.64031" stop-color="#2e6622"/><stop offset="0.75" stop-color="#316d24"/><stop offset="0.78593" stop-color="#4f6e16"/><stop offset="0.83397" stop-color="#716f06"/><stop offset="0.86" stop-color="#7e6f00"/><stop offset="0.88764" stop-color="#7a6c00"/><stop offset="0.91229" stop-color="#706200"/><stop offset="0.93581" stop-color="#5d5200"/><stop offset="0.95863" stop-color="#443c00"/><stop offset="0.98074" stop-color="#231f00"/><stop offset="1"/></radialGradient><radialGradient id="o" cx="211.24675" cy="299.86003" r="13.32427" gradientUnits="userSpaceOnUse"><stop offset="0" stop-color="#200"/><stop offset="0.73" stop-color="#984023"/><stop offset="1" stop-color="#200"/></radialGradient><radialGradient id="p" cx="211.24675" cy="299.86003" r="6.66221" gradientUnits="userSpaceOnUse"><stop offset="0.15" stop-color="#fff"/><stop offset="0.20939" stop-color="#e5d3d3"/><stop offset="0.29044" stop-color="#c49c9e"/><stop offset="0.36051" stop-color="#ad7477"/><stop offset="0.41599" stop-color="#9e5c5f"/><stop offset="0.45" stop-color="#995356"/><stop offset="0.57175" stop-color="#6b3335"/><stop offset="0.69355" stop-color="#431718"/><stop offset="0.79053" stop-color="#2b0606"/><stop offset="0.85" stop-color="#200"/><stop offset="0.85727" stop-color="#260201"/><stop offset="0.8648" stop-color="#330704"/><stop offset="0.87246" stop-color="#471009"/><stop offset="0.8802" stop-color="#641d0f"/><stop offset="0.88801" stop-color="#8a2e18"/><stop offset="0.89577" stop-color="#b74223"/><stop offset="0.9" stop-color="#d34e29"/><stop offset="0.90254" stop-color="#c84927"/><stop offset="0.91417" stop-color="#9c361c"/><stop offset="0.92635" stop-color="#772514"/><stop offset="0.93893" stop-color="#58180c"/><stop offset="0.95205" stop-color="#400d07"/><stop offset="0.96594" stop-color="#2f0603"/><stop offset="0.98111" stop-color="#250101"/><stop offset="1" stop-color="#200"/></radialGradient><radialGradient id="q" cx="211.24675" cy="299.86003" r="5.55184" gradientUnits="userSpaceOnUse"><stop offset="0.15" stop-color="#fff"/><stop offset="0.28237" stop-color="#c2c2c2"/><stop offset="0.42528" stop-color="#888"/><stop offset="0.5636" stop-color="#575757"/><stop offset="0.69361" stop-color="#313131"/><stop offset="0.81336" stop-color="#161616"/><stop offset="0.91921" stop-color="#060606"/><stop offset="1"/></radialGradient><radialGradient id="r" cx="192.26213" cy="360.09529" r="9.9933" gradientUnits="userSpaceOnUse"><stop offset="0.64"/><stop offset="0.71799" stop-color="#000200"/><stop offset="0.74608" stop-color="#020902"/><stop offset="0.76609" stop-color="#051405"/><stop offset="0.78228" stop-color="#082509"/><stop offset="0.79598" stop-color="#0d3b0e"/><stop offset="0.8" stop-color="#0f4310"/><stop offset="0.8131" stop-color="#1e2c0a"/><stop offset="0.82975" stop-color="#2d1605"/><stop offset="0.84569" stop-color="#360901"/><stop offset="0.86" stop-color="#390400"/><stop offset="0.8715" stop-color="#250300"/><stop offset="0.88602" stop-color="#140100"/><stop offset="0.90412" stop-color="#090100"/><stop offset="0.92951" stop-color="#020000"/><stop offset="1"/></radialGradient><radialGradient id="s" cx="195.92832" cy="348.46349" r="2.8404" gradientUnits="userSpaceOnUse"><stop offset="0.1"/><stop offset="0.24639" stop-color="#1b1103"/><stop offset="0.42619" stop-color="#362207"/><stop offset="0.61009" stop-color="#492e09"/><stop offset="0.79889" stop-color="#54350b"/><stop offset="1" stop-color="#58370b"/></radialGradient><radialGradient id="t" cx="205.82409" cy="317.06552" r="1.58647" gradientUnits="userSpaceOnUse"><stop offset="0.1" stop-color="#192f1b"/><stop offset="0.2285" stop-color="#122214"/><stop offset="0.47516" stop-color="#080f09"/><stop offset="0.72928" stop-color="#020402"/><stop offset="1"/></radialGradient><radialGradient id="u" cx="199.78696" cy="336.22048" r="1.05071" xlink:href="#s"/><radialGradient id="v" cx="198.83165" cy="339.25136" r="1.47759" gradientUnits="userSpaceOnUse"><stop offset="0.1"/><stop offset="0.29001" stop-color="#14160e"/><stop offset="0.51699" stop-color="#25291a"/><stop offset="0.75084" stop-color="#303422"/><stop offset="1" stop-color="#333824"/></radialGradient><radialGradient id="w" cx="196.115" cy="347.87067" r="2.74344" xlink:href="#t"/><radialGradient id="x" cx="232.83975" cy="114.96696" r="10.30064" gradientUnits="userSpaceOnUse"><stop offset="0" stop-color="#fff"/><stop offset="1" stop-color="#b9cbf0" stop-opacity="0"/></radialGradient></defs><g class="b"><ellipse class="c" cx="267.00138" cy="422.46358" rx="144.19211" ry="23.28088"/><path class="d" d="M399.68942,403.24459,339.37125,176.104l.00786-66.2699c-17.75085,8.70907-35.47443,8.7091-59.73241,8.7091-25.0409,0-46.6847-3.005-56.99033-7.36687l-2.97676-3.17144.60953,68.81453L159.60367,403.24459a14.43621,14.43621,0,0,0,13.887,18.37994H385.80244A14.43607,14.43607,0,0,0,399.68942,403.24459Z"/><path class="a" d="M408.23159,405.79135,343.05574,176.30144V105.41972c0,7.24792-28.389,13.12352-63.409,13.12352s-63.409-5.8756-63.409-13.12352v70.88172L151.06151,405.79135a16.974,16.974,0,0,0,16.37043,21.46046H391.86116A16.974,16.974,0,0,0,408.23159,405.79135Z"/><g class="e"><path class="f" d="M401.22508,411.04929c0-12.68913-54.23417-24.21531-121.13541-24.21531s-121.13542,12.00794-121.13542,24.69707,11.80991,10.1263,121.13542,11.13877C383.8551,423.63079,401.22508,423.73843,401.22508,411.04929Z"/></g><ellipse class="g" cx="279.64666" cy="105.4197" rx="63.4091" ry="13.12351"/><g class="h"><path class="i" d="M343.04961,287.05677a6.22824,6.22824,0,0,1-6.087-4.945l-20.168-95.75738a6.22784,6.22784,0,0,1-.13378-1.28307v-57.658a6.22685,6.22685,0,1,1,12.45371,0V184.4231l20.03419,95.12252a6.23273,6.23273,0,0,1-6.09916,7.51115Z"/></g><g class="j"><path class="k" d="M191.12865,393.98815a6.85623,6.85623,0,0,1-6.63063-8.59051L224.74516,232.057a6.84963,6.84963,0,0,1,13.25032,3.47829L197.74834,388.87592A6.85073,6.85073,0,0,1,191.12865,393.98815Z"/></g><circle class="l" cx="347.22504" cy="294.72691" r="6.23005"/><circle class="m" cx="329.11778" cy="185.0711" r="6.23005"/><circle class="n" cx="215.9929" cy="284.80125" r="19.98648"/><circle class="o" cx="193.97209" cy="354.67005" r="0.6662"/><circle class="p" cx="192.26213" cy="360.09529" r="0.6662"/><circle class="q" cx="193.21137" cy="357.08356" r="4.99665"/><line class="r" x1="211.24675" y1="299.86003" x2="192.26213" y2="360.09529"/><circle class="s" cx="211.24675" cy="299.86003" r="13.32427"/><circle class="t" cx="211.24675" cy="299.86003" r="6.66221"/><circle class="u" cx="211.24675" cy="299.86003" r="5.55184"/><polyline class="v" points="211.247 299.86 207.661 321.449 211.247 299.86 214.832 278.271 211.247 299.86 189.658 296.275 211.247 299.86 232.835 303.445 211.247 299.86 214.191 327.998 211.247 299.86 208.302 271.722 211.247 299.86 183.109 302.804 211.247 299.86 239.385 296.916 211.247 299.86 225.109 322.947 211.247 299.86 197.385 276.773 211.247 299.86 188.16 313.722 211.247 299.86 234.334 285.998 211.247 299.86 206.956 318.17 211.247 299.86 215.538 281.55 211.247 299.86 192.937 295.569 211.247 299.86 229.557 304.151 211.247 299.86 211.081 302.079 211.247 299.86 211.412 297.641 211.247 299.86 209.028 299.694 211.247 299.86 213.466 300.026 211.247 299.86 197.022 324.437 211.247 299.86 225.472 275.283 211.247 299.86 186.67 285.635 211.247 299.86 235.823 314.085 211.247 299.86 205.156 307.625 211.247 299.86 217.337 292.096 211.247 299.86 203.482 293.77 211.247 299.86 219.011 305.95 211.247 299.86 214.391 306.543 211.247 299.86 208.103 293.177 211.247 299.86 204.564 303.004 211.247 299.86 217.93 296.716 211.247 299.86 236.244 321.777 211.247 299.86 186.25 277.943 211.247 299.86 189.33 324.857 211.247 299.86 233.164 274.863 211.247 299.86 216.777 326.982 211.247 299.86 205.716 272.738 211.247 299.86 184.125 305.39 211.247 299.86 238.369 294.33 211.247 299.86 216.265 331.62 211.247 299.86 206.228 268.1 211.247 299.86 179.487 304.878 211.247 299.86 243.007 294.842 211.247 299.86 213.859 305.651 211.247 299.86 208.634 294.069 211.247 299.86 205.456 302.473 211.247 299.86 217.037 297.248 211.247 299.86 228.372 315.228 211.247 299.86 194.121 284.492 211.247 299.86 195.879 316.985 211.247 299.86 226.614 282.735 211.247 299.86 202.778 322.964 211.247 299.86 219.715 276.757 211.247 299.86 188.143 291.391 211.247 299.86 234.35 308.329 211.247 299.86 212.511 319.949 211.247 299.86 209.983 279.771 211.247 299.86 191.158 301.124 211.247 299.86 231.336 298.596"/><circle class="w" cx="192.26213" cy="360.09529" r="9.9933"/><circle class="x" cx="195.92832" cy="348.46349" r="2.8404"/><circle class="y" cx="205.82409" cy="317.06552" r="1.58647"/><circle class="z" cx="199.78696" cy="336.22048" r="1.05071"/><circle class="aa" cx="198.83165" cy="339.25136" r="1.47759"/><circle class="ab" cx="196.115" cy="347.87067" r="2.74344"/><circle class="ac" cx="232.83975" cy="114.96696" r="10.30064"/></g></svg>