<svg xmlns="http://www.w3.org/2000/svg" xmlns:xlink="http://www.w3.org/1999/xlink" viewBox="0 0 523.92572 512.20828"><defs><style>.a,.ad,.b{opacity:0.72;}.a{fill:url(#a);}.b{fill:url(#b);}.c{isolation:isolate;}.d,.i{opacity:0.8;}.d{fill:url(#c);}.e{fill:#683c11;fill-opacity:0.51;}.aa,.ac,.f,.h{mix-blend-mode:multiply;}.f{fill:url(#d);}.g{clip-path:url(#f);}.h{fill:url(#g);}.i{mix-blend-mode:hard-light;}.j{fill:url(#h);}.ag,.k,.r,.u{opacity:0.5;}.k{fill:url(#i);}.l{opacity:0.25;fill:url(#j);}.l,.m,.n,.o,.q,.r,.s,.t,.u,.v,.w,.x,.y,.z{mix-blend-mode:screen;}.m{fill:url(#k);}.n{fill:url(#l);}.o{opacity:0.2;fill:url(#m);}.p,.t{fill:none;}.q{opacity:0.15;fill:url(#n);}.r{fill:url(#o);}.s{fill:url(#p);}.t{stroke:#fff;stroke-miterlimit:10;stroke-width:2.49074px;opacity:0.03;}.u{fill:url(#q);}.v{fill:url(#r);}.w{fill:url(#s);}.x{fill:url(#t);}.y{fill:url(#u);}.z{fill:url(#v);}.aa{fill:url(#w);}.ab{clip-path:url(#y);}.ac{fill:url(#z);}.ad{fill:url(#aa);}.ae{opacity:0.54;}.af{fill:url(#ab);}.ag{fill:url(#ac);}.ah{fill:url(#ad);}</style><linearGradient id="a" x1="212.26868" y1="335.58822" x2="343.02992" y2="335.58822" gradientUnits="userSpaceOnUse"><stop offset="0" stop-color="#f5fbff"/><stop offset="0.62567" stop-color="#e9f1f5"/><stop offset="1" stop-color="#c5d9e0"/></linearGradient><linearGradient id="b" x1="-7577.09595" y1="-6711.16599" x2="-7491.91035" y2="-6711.16599" gradientTransform="translate(4521.52025 -8706.36211) rotate(-105.82257)" xlink:href="#a"/><linearGradient id="c" x1="148.92912" y1="455.80981" x2="511.79186" y2="455.80981" gradientUnits="userSpaceOnUse"><stop offset="0" stop-color="#0b1119"/><stop offset="1" stop-color="#34404e"/></linearGradient><linearGradient id="d" x1="299.40642" y1="246.07352" x2="280.01695" y2="403.99938" gradientUnits="userSpaceOnUse"><stop offset="0" stop-color="#bfc4c7"/><stop offset="1" stop-color="#b1c3c9"/></linearGradient><clipPath id="f"><path class="a" d="M408.20613,405.80139l-16.52084-58.17133-15.42846-54.325c-2.65459-9.347-4.93917-18.90323-7.98-28.13024-1.51338-4.5922-8.65163-15.89945-7.99415-19.982a518.78253,518.78253,0,0,1-12.27554,56.176,16.17911,16.17911,0,0,1-8.69581-12.47852,169.47425,169.47425,0,0,1-32.75514,39.52491A96.32212,96.32212,0,0,1,260.676,292.49231l-18.82067,7.24682-30.80412-55.82455c-30.20816,21.60075-33.56209,68.74382-43.23838,102.81474L151.036,405.80139a16.974,16.974,0,0,0,16.37043,21.46046H391.8357A16.974,16.974,0,0,0,408.20613,405.80139Z"/></clipPath><linearGradient id="g" x1="221.81887" y1="261.57195" x2="298.06041" y2="458.47401" gradientUnits="userSpaceOnUse"><stop offset="0" stop-color="#f5f5f5"/><stop offset="1" stop-color="#c3d1d6"/></linearGradient><radialGradient id="h" cx="211.22129" cy="310.47647" r="79.87596" gradientTransform="matrix(0.2537, -0.96728, 0.15236, 0.03996, 110.33207, 502.38085)" gradientUnits="userSpaceOnUse"><stop offset="0" stop-color="#e6f3ff"/><stop offset="1" stop-color="#b9cbf0" stop-opacity="0"/></radialGradient><radialGradient id="i" cx="347.35148" cy="294.76384" r="5.63016" gradientTransform="matrix(1, 0, 0, 1, 0, 0)" xlink:href="#h"/><radialGradient id="j" cx="215.96744" cy="284.81129" r="19.98648" gradientUnits="userSpaceOnUse"><stop offset="0.1"/><stop offset="0.11244" stop-color="#080602"/><stop offset="0.16172" stop-color="#231b08"/><stop offset="0.21838" stop-color="#392c0d"/><stop offset="0.28458" stop-color="#4a3910"/><stop offset="0.36644" stop-color="#554213"/><stop offset="0.48125" stop-color="#5c4815"/><stop offset="0.8" stop-color="#5e4915"/><stop offset="1"/></radialGradient><radialGradient id="k" cx="193.94663" cy="354.68009" r="0.6662" gradientUnits="userSpaceOnUse"><stop offset="0" stop-color="#d4e194"/><stop offset="0.05952" stop-color="#afba7a"/><stop offset="0.13651" stop-color="#868f5e"/><stop offset="0.21955" stop-color="#626845"/><stop offset="0.30759" stop-color="#44482f"/><stop offset="0.40211" stop-color="#2b2e1e"/><stop offset="0.50556" stop-color="#181911"/><stop offset="0.62249" stop-color="#0a0b07"/><stop offset="0.76429" stop-color="#020302"/><stop offset="1"/></radialGradient><radialGradient id="l" cx="192.23667" cy="360.10533" r="0.6662" xlink:href="#k"/><radialGradient id="m" cx="193.1859" cy="357.0936" r="4.99665" gradientUnits="userSpaceOnUse"><stop offset="0.05"/><stop offset="0.09242" stop-color="#040a03"/><stop offset="0.29802" stop-color="#183411"/><stop offset="0.48337" stop-color="#25531c"/><stop offset="0.64031" stop-color="#2e6622"/><stop offset="0.75" stop-color="#316d24"/><stop offset="0.78593" stop-color="#4f6e16"/><stop offset="0.83397" stop-color="#716f06"/><stop offset="0.86" stop-color="#7e6f00"/><stop offset="0.88764" stop-color="#7a6c00"/><stop offset="0.91229" stop-color="#706200"/><stop offset="0.93581" stop-color="#5d5200"/><stop offset="0.95863" stop-color="#443c00"/><stop offset="0.98074" stop-color="#231f00"/><stop offset="1"/></radialGradient><radialGradient id="n" cx="211.22129" cy="299.87007" r="13.32427" gradientUnits="userSpaceOnUse"><stop offset="0" stop-color="#200"/><stop offset="0.73" stop-color="#984023"/><stop offset="1" stop-color="#200"/></radialGradient><radialGradient id="o" cx="211.22129" cy="299.87007" r="6.66221" gradientUnits="userSpaceOnUse"><stop offset="0.15" stop-color="#fff"/><stop offset="0.20939" stop-color="#e5d3d3"/><stop offset="0.29044" stop-color="#c49c9e"/><stop offset="0.36051" stop-color="#ad7477"/><stop offset="0.41599" stop-color="#9e5c5f"/><stop offset="0.45" stop-color="#995356"/><stop offset="0.57175" stop-color="#6b3335"/><stop offset="0.69355" stop-color="#431718"/><stop offset="0.79053" stop-color="#2b0606"/><stop offset="0.85" stop-color="#200"/><stop offset="0.85727" stop-color="#260201"/><stop offset="0.8648" stop-color="#330704"/><stop offset="0.87246" stop-color="#471009"/><stop offset="0.8802" stop-color="#641d0f"/><stop offset="0.88801" stop-color="#8a2e18"/><stop offset="0.89577" stop-color="#b74223"/><stop offset="0.9" stop-color="#d34e29"/><stop offset="0.90254" stop-color="#c84927"/><stop offset="0.91417" stop-color="#9c361c"/><stop offset="0.92635" stop-color="#772514"/><stop offset="0.93893" stop-color="#58180c"/><stop offset="0.95205" stop-color="#400d07"/><stop offset="0.96594" stop-color="#2f0603"/><stop offset="0.98111" stop-color="#250101"/><stop offset="1" stop-color="#200"/></radialGradient><radialGradient id="p" cx="211.22129" cy="299.87007" r="5.55184" gradientUnits="userSpaceOnUse"><stop offset="0.15" stop-color="#fff"/><stop offset="0.28237" stop-color="#c2c2c2"/><stop offset="0.42528" stop-color="#888"/><stop offset="0.5636" stop-color="#575757"/><stop offset="0.69361" stop-color="#313131"/><stop offset="0.81336" stop-color="#161616"/><stop offset="0.91921" stop-color="#060606"/><stop offset="1"/></radialGradient><radialGradient id="q" cx="192.23667" cy="360.10533" r="9.9933" gradientUnits="userSpaceOnUse"><stop offset="0.64"/><stop offset="0.71799" stop-color="#000200"/><stop offset="0.74608" stop-color="#020902"/><stop offset="0.76609" stop-color="#051405"/><stop offset="0.78228" stop-color="#082509"/><stop offset="0.79598" stop-color="#0d3b0e"/><stop offset="0.8" stop-color="#0f4310"/><stop offset="0.8131" stop-color="#1e2c0a"/><stop offset="0.82975" stop-color="#2d1605"/><stop offset="0.84569" stop-color="#360901"/><stop offset="0.86" stop-color="#390400"/><stop offset="0.8715" stop-color="#250300"/><stop offset="0.88602" stop-color="#140100"/><stop offset="0.90412" stop-color="#090100"/><stop offset="0.92951" stop-color="#020000"/><stop offset="1"/></radialGradient><radialGradient id="r" cx="195.90286" cy="348.47353" r="2.8404" gradientUnits="userSpaceOnUse"><stop offset="0.1"/><stop offset="0.24639" stop-color="#1b1103"/><stop offset="0.42619" stop-color="#362207"/><stop offset="0.61009" stop-color="#492e09"/><stop offset="0.79889" stop-color="#54350b"/><stop offset="1" stop-color="#58370b"/></radialGradient><radialGradient id="s" cx="205.79863" cy="317.07556" r="1.58647" gradientUnits="userSpaceOnUse"><stop offset="0.1" stop-color="#192f1b"/><stop offset="0.2285" stop-color="#122214"/><stop offset="0.47516" stop-color="#080f09"/><stop offset="0.72928" stop-color="#020402"/><stop offset="1"/></radialGradient><radialGradient id="t" cx="199.7615" cy="336.23052" r="1.05071" xlink:href="#r"/><radialGradient id="u" cx="198.80619" cy="339.2614" r="1.47759" gradientUnits="userSpaceOnUse"><stop offset="0.1"/><stop offset="0.29001" stop-color="#14160e"/><stop offset="0.51699" stop-color="#25291a"/><stop offset="0.75084" stop-color="#303422"/><stop offset="1" stop-color="#333824"/></radialGradient><radialGradient id="v" cx="196.08954" cy="347.88071" r="2.74344" xlink:href="#s"/><linearGradient id="w" x1="-7515.97809" y1="-6803.40159" x2="-7533.30643" y2="-6662.2635" gradientTransform="translate(4521.52025 -8706.36211) rotate(-105.82257)" xlink:href="#d"/><clipPath id="y"><path class="b" d="M169.10726,280.08287c-8.86492,3.099-18.55815.53683-27.92371-.16119-27.979-2.08491-44.29526,25.79712-68.6341,32.69467L4.35338,331.94291c6.9733-1.97621,20.36683,23.73516,29.91535,57.42826s11.63608,62.60856,4.66278,64.58477l68.19606-19.32656c8.25525-2.33951,20.59594.01158,29.07714.01635,21.72792.01221,43.39771.30019,65.10012.69813L189.8944,404.18425a301.19121,301.19121,0,0,0,28.34523-45.35693,167.39565,167.39565,0,0,0-28.25131-10.90986,75.43357,75.43357,0,0,0,7.41858-25.8481,234.086,234.086,0,0,1-38.60422,1.0417Z"/></clipPath><linearGradient id="z" x1="-7585.41367" y1="-6654.24977" x2="-7509.17213" y2="-6457.34771" gradientTransform="translate(4521.52025 -8706.36211) rotate(-105.82257)" xlink:href="#g"/><linearGradient id="aa" x1="-7527.61134" y1="-6836.63999" x2="-7527.61134" y2="-6797.53905" gradientTransform="translate(6832.03442 -7134.66187) rotate(-90)" xlink:href="#a"/><radialGradient id="ab" cx="-7478.15133" cy="-6728.11981" r="96.86305" gradientTransform="translate(7242.97555 -1985.17827) rotate(-23.83088) scale(1 0.11591)" xlink:href="#h"/><radialGradient id="ac" cx="-7477.98832" cy="-6730.71369" r="5.63016" gradientTransform="translate(4521.52025 -8706.36211) rotate(-105.82257)" xlink:href="#h"/><radialGradient id="ad" cx="-7574.41825" cy="-6800.84472" r="10.30064" gradientTransform="translate(4521.52025 -8706.36211) rotate(-105.82257)" gradientUnits="userSpaceOnUse"><stop offset="0" stop-color="#fff"/><stop offset="1" stop-color="#b9cbf0" stop-opacity="0"/></radialGradient></defs><g class="c"><path class="d" d="M149.54032,456.12363q.07089.294.16463.58928c2.15118,6.76587,11.50387,7.57155,18.35262,5.69737,10.46877-2.8648,22.20857-5.95966,28.80316,5.2109,2.84186,4.81383,6.08561,29.34229,17.85992,18.298,2.26841-2.12777,2.75412-5.47644,3.91066-8.36357a17.56482,17.56482,0,0,1,32.89952.77378c1.89395,5.4584,1.01207,11.53771,2.6037,17.09179s7.779,10.73671,12.80092,7.87987c3.14063-1.78663,4.12956-5.72954,5.68693-8.98993a21.75952,21.75952,0,0,1,40.00084,1.71765c1.29458,3.44152,1.73151,7.23924,3.64806,10.3772,3.48248,5.70187,11.952,7.59053,17.52914,3.90707,12.95379-8.55888,5.42753-34.56066,25.03246-35.16815,9.13215-.283,18.26817-.14274,27.40218-.06069,8.15871.07329,15.15046,2.09427,23.20023,3.04578,2.23393.26406,4.60359.584,6.33667,2.01813,2.98675,2.47146,2.83774,7.03585,4.47133,10.55156,3.3748,7.263,15.7293,7.41114,19.27731.2312,1.33715-2.70593,1.47075-5.83179,2.30532-8.73242,3.08937-10.73733,16.82227-13.2875,26.26672-14.713,5.33953-.80591,10.72052-1.28051,16.0966-1.76391,4.85706-.43673,9.43318-1.00476,14.22645.3474,2.541.71681,4.97934,2.0105,7.61941,2.033,2.51972.02146,5.89918-1.31194,5.75212-4.34854a8.07354,8.07354,0,0,0-1.04416-3.13656c-1.77558-3.5576-3.46744-6.63869-4.202-10.58121-.80722-4.33277-1.05041-10.41081-4.96972-13.32365-1.67112-1.242-3.76789-1.72336-5.69041-2.52279a17.966,17.966,0,0,1-7.98841-6.5677c-1.985-2.97328-6.41775-2.93033-9.6593-4.00163-4.02007-1.32859-8.2853-1.58246-12.44946-2.31144a111.3115,111.3115,0,0,1-25.3373-7.58611c-11.259-4.902-21.87582-12.989-34.43256-14.17689a50.57631,50.57631,0,0,0-12.43949.77533c-7.953,1.22787-15.21806,3.21513-21.475,8.49835-2.80256,2.36641-4.26449,6.02293-7.01132,8.21148-3.81275,3.03783-9.96319,2.65249-14.54749,2.61712-56.88-.439-114.01334-3.71186-170.4688,3.23895-4.65635.57329-9.36157,1.23071-13.708,2.99665C154.87933,430.54934,146.55507,443.72169,149.54032,456.12363Z"/><ellipse class="e" cx="266.97001" cy="422.46358" rx="144.19211" ry="23.28088"/><path class="f" d="M287.0985,253.1658a27.5173,27.5173,0,0,0-17.5724,14.57578,154.002,154.002,0,0,1-38.1193-39.507c-9.1161,7.47264-19.30444,14.47421-27.72024,22.71748-6.38259,6.25173-6.51614,11.63568-8.71675,20.25156-5.32669,20.85518-11.14852,41.597-16.72087,62.38814l-18.67073,69.66283a14.43621,14.43621,0,0,0,13.887,18.37994H385.777a14.43607,14.43607,0,0,0,13.887-18.37994l-13.90827-52.37448c-9-33.89138-14.09983-71.44051-33.29482-100.93138a86.07932,86.07932,0,0,1-19.64247,33.02629,49.12263,49.12263,0,0,0-11.53726-23.39547,197.85835,197.85835,0,0,1-21.121,26.26813C299.18587,286.86755,287.70384,255.60627,287.0985,253.1658Z"/><path class="a" d="M408.20613,405.80139l-16.52084-58.17133-15.42846-54.325c-2.65459-9.347-4.93917-18.90323-7.98-28.13024-1.51338-4.5922-8.65163-15.89945-7.99415-19.982a518.78253,518.78253,0,0,1-12.27554,56.176,16.17911,16.17911,0,0,1-8.69581-12.47852,169.47425,169.47425,0,0,1-32.75514,39.52491A96.32212,96.32212,0,0,1,260.676,292.49231l-18.82067,7.24682-30.80412-55.82455c-30.20816,21.60075-33.56209,68.74382-43.23838,102.81474L151.036,405.80139a16.974,16.974,0,0,0,16.37043,21.46046H391.8357A16.974,16.974,0,0,0,408.20613,405.80139Z"/><g class="g"><path class="h" d="M401.19962,411.05933c0-12.68913-54.23417-24.21531-121.13541-24.21531S158.92879,398.852,158.92879,411.54109s11.80991,10.1263,121.13542,11.13877C383.82964,423.64083,401.19962,423.74847,401.19962,411.05933Z"/></g><g class="i"><path class="j" d="M191.10319,393.99819a6.85622,6.85622,0,0,1-6.63063-8.59051l40.24714-153.3406A6.84962,6.84962,0,0,1,237.97,235.54537L197.72287,388.886A6.85072,6.85072,0,0,1,191.10319,393.99819Z"/></g><circle class="k" cx="347.19958" cy="294.73695" r="6.23005"/><circle class="l" cx="215.96744" cy="284.81129" r="19.98648"/><circle class="m" cx="193.94663" cy="354.68009" r="0.6662"/><circle class="n" cx="192.23667" cy="360.10533" r="0.6662"/><circle class="o" cx="193.1859" cy="357.0936" r="4.99665"/><line class="p" x1="211.22129" y1="299.87007" x2="192.23667" y2="360.10533"/><circle class="q" cx="211.22129" cy="299.87007" r="13.32427"/><circle class="r" cx="211.22129" cy="299.87007" r="6.66221"/><circle class="s" cx="211.22129" cy="299.87007" r="5.55184"/><polyline class="t" points="211.221 299.87 207.636 321.459 211.221 299.87 214.807 278.282 211.221 299.87 189.633 296.285 211.221 299.87 232.81 303.455 211.221 299.87 214.166 328.008 211.221 299.87 208.277 271.732 211.221 299.87 183.083 302.815 211.221 299.87 239.36 296.926 211.221 299.87 225.083 322.957 211.221 299.87 197.359 276.783 211.221 299.87 188.134 313.732 211.221 299.87 234.308 286.008 211.221 299.87 206.93 318.18 211.221 299.87 215.512 281.56 211.221 299.87 192.911 295.579 211.221 299.87 229.531 304.161 211.221 299.87 211.056 302.089 211.221 299.87 211.387 297.651 211.221 299.87 209.002 299.704 211.221 299.87 213.441 300.036 211.221 299.87 196.996 324.447 211.221 299.87 225.446 275.293 211.221 299.87 186.645 285.645 211.221 299.87 235.798 314.095 211.221 299.87 205.131 307.635 211.221 299.87 217.312 292.106 211.221 299.87 203.457 293.78 211.221 299.87 218.986 305.96 211.221 299.87 214.365 306.553 211.221 299.87 208.077 293.187 211.221 299.87 204.538 303.014 211.221 299.87 217.904 296.726 211.221 299.87 236.218 321.787 211.221 299.87 186.224 277.953 211.221 299.87 189.304 324.867 211.221 299.87 233.138 274.873 211.221 299.87 216.752 326.992 211.221 299.87 205.691 272.748 211.221 299.87 184.099 305.4 211.221 299.87 238.343 294.34 211.221 299.87 216.24 331.63 211.221 299.87 206.203 268.11 211.221 299.87 179.461 304.888 211.221 299.87 242.981 294.852 211.221 299.87 213.834 305.661 211.221 299.87 208.609 294.079 211.221 299.87 205.431 302.483 211.221 299.87 217.012 297.258 211.221 299.87 228.347 315.238 211.221 299.87 194.096 284.502 211.221 299.87 195.854 316.996 211.221 299.87 226.589 282.745 211.221 299.87 202.753 322.974 211.221 299.87 219.69 276.767 211.221 299.87 188.118 291.401 211.221 299.87 234.325 308.339 211.221 299.87 212.486 319.959 211.221 299.87 209.957 279.781 211.221 299.87 191.132 301.134 211.221 299.87 231.31 298.606"/><circle class="u" cx="192.23667" cy="360.10533" r="9.9933"/><circle class="v" cx="195.90286" cy="348.47353" r="2.8404"/><circle class="w" cx="205.79863" cy="317.07556" r="1.58647"/><circle class="x" cx="199.7615" cy="336.23052" r="1.05071"/><circle class="y" cx="198.80619" cy="339.2614" r="1.47759"/><circle class="z" cx="196.08954" cy="347.88071" r="2.74344"/><path class="aa" d="M186.93532,316.48935q-33.71608-6.84814-66.78235-16.494l5.36029-6.01936c-8.96987-.6117-18.51194-1.10474-26.3831,3.2401a47.16044,47.16044,0,0,0-6.98049,5.05226c-8.69539,7.14075-14.95932,12.98554-25.62131,15.88516-7.7151,2.09818-15.39018,4.35748-23.08286,6.53657-3.08805.87475-32.04389,11.58058-33.84249,9.58652,13.219,14.70368,18.05156,31.75571,24.66572,55.09457,6.82763,24.09212,9.83791,45.73518,8.45119,56.83966l-2.23963,3.7287,66.04089-19.34933c8.17059-2.3939,20.28632-.28993,28.70649-.41041,11.3935-.163,22.46605.553,33.9292.11472L145.7908,414.193a612.407,612.407,0,0,1,44.96882-43.03761L168.88,361.41212A331.07273,331.07273,0,0,0,186.93532,316.48935Z"/><path class="b" d="M169.10726,280.08287c-8.86492,3.099-18.55815.53683-27.92371-.16119-27.979-2.08491-44.29526,25.79712-68.6341,32.69467L4.35338,331.94291c6.9733-1.97621,20.36683,23.73516,29.91535,57.42826s11.63608,62.60856,4.66278,64.58477l68.19606-19.32656c8.25525-2.33951,20.59594.01158,29.07714.01635,21.72792.01221,43.39771.30019,65.10012.69813L189.8944,404.18425a301.19121,301.19121,0,0,0,28.34523-45.35693,167.39565,167.39565,0,0,0-28.25131-10.90986,75.43357,75.43357,0,0,0,7.41858-25.8481,234.086,234.086,0,0,1-38.60422,1.0417Z"/><g class="ab"><path class="ac" d="M282.54245,192.64484c-12.20835,3.45981-8.51037,58.7818,9.73088,123.1482s44.58166,113.27159,56.79,109.81178,6.52254-14.12346-22.312-119.58276C299.38333,205.92622,294.7508,189.185,282.54245,192.64484Z"/></g><ellipse class="ad" cx="21.64244" cy="392.94947" rx="13.12351" ry="63.4091" transform="translate(-106.32129 20.78961) rotate(-15.82257)"/><g class="ae"><path class="af" d="M179.11,282.42379a6.22824,6.22824,0,0,1-3.098,7.20466L89.38183,335.1414a6.22833,6.22833,0,0,1-1.198.47855l-55.47339,15.721a6.22686,6.22686,0,1,1-3.39562-11.98185l54.84972-15.54425,86.0559-45.21113a6.2327,6.2327,0,0,1,8.88954,3.82008Z"/></g><circle class="ag" cx="84.78714" cy="323.63508" r="6.23005"/><circle class="ah" cx="43.5903" cy="435.37975" r="10.30064"/></g></svg>