<svg xmlns="http://www.w3.org/2000/svg" viewBox="0 0 89.6822 89.6822"><defs><style>.a{fill:#fff;}.b{fill:#3c3c3b;}</style></defs><path class="a" d="M44.84106,0h.00009A44.84106,44.84106,0,0,1,89.6822,44.84106V89.6822a0,0,0,0,1,0,0H0a0,0,0,0,1,0,0V44.84106A44.84106,44.84106,0,0,1,44.84106,0Z"/><path class="b" d="M41.09924,35.27268a1.2589,1.2589,0,0,1-.41211-.95118V30.23361a1.328,1.328,0,0,1,.41211-1.00781,1.398,1.398,0,0,1,1.002-.39258h5.41993a1.47685,1.47685,0,0,1,1.06054.39258,1.33508,1.33508,0,0,1,.41211,1.00781V34.3215a1.22265,1.22265,0,0,1-.44238.95118,1.503,1.503,0,0,1-1.03027.39257H42.10119A1.398,1.398,0,0,1,41.09924,35.27268Zm.23535,33.88086a1.26238,1.26238,0,0,1-.41211-.95118V41.76877a1.23975,1.23975,0,0,1,.41211-.97852,1.46256,1.46256,0,0,1,1.002-.36523h5.00781a1.40884,1.40884,0,0,1,1.001.39258,1.26838,1.26838,0,0,1,.4121.95117V68.20236a1.26237,1.26237,0,0,1-.4121.95118,1.40062,1.40062,0,0,1-1.001.39257H42.33655A1.398,1.398,0,0,1,41.33459,69.15354Z"/></svg>