<svg xmlns="http://www.w3.org/2000/svg" viewBox="0 0 153.04905 53.25586"><defs><style>.a{fill:none;stroke:#fff;stroke-linecap:round;stroke-linejoin:round;stroke-width:5.88184px;}.b{fill:#fff;}</style></defs><line class="a" x1="113.5752" y1="23.02082" x2="146.53253" y2="23.02082"/><polyline class="a" points="130.054 3.069 150.108 23.123 130.199 43.032"/><path class="b" d="M16.543,39.27832a1.06956,1.06956,0,0,1-.36719-.83984v-13.791q0-5.31151-5.53906-5.31152H3.18652a1.20347,1.20347,0,0,1-.8584-.34961A1.093,1.093,0,0,1,1.96,18.1709V14.16406a1.07118,1.07118,0,0,1,.36816-.83886,1.25433,1.25433,0,0,1,.8584-.32618h7.74414q6.813,0,10.1709,2.65625,3.35742,2.6543,3.3584,8.71289V38.43848a1.1306,1.1306,0,0,1-.34375.8164,1.18588,1.18588,0,0,1-.88281.34961H17.4502A1.31963,1.31963,0,0,1,16.543,39.27832Z"/><path class="b" d="M30.36621,39.27832a1.06727,1.06727,0,0,1-.36816-.83984V14.16406a1.068,1.068,0,0,1,.36816-.83886,1.31716,1.31716,0,0,1,.90625-.32618h6.127a1.23379,1.23379,0,0,1,.88282.32618,1.10706,1.10706,0,0,1,.34277.83886V38.43848a1.12965,1.12965,0,0,1-.34277.8164,1.18743,1.18743,0,0,1-.88282.34961h-6.127A1.31715,1.31715,0,0,1,30.36621,39.27832Z"/><path class="b" d="M59.82422,13.3252a1.07115,1.07115,0,0,1,.36816.83886V18.1709a1.13,1.13,0,0,1-.34375.81543,1.24375,1.24375,0,0,1-.93164.34961h-2.2539a6.89722,6.89722,0,0,0-.90723,2.376,15.83406,15.83406,0,0,0-.31836,3.3086V38.5791a.87147.87147,0,0,1-.44141.72266,1.623,1.623,0,0,1-.93066.30273H48.33008a1.089,1.089,0,0,1-.78418-.28027.97959.97959,0,0,1-.29492-.74512V24.50781q0-3.7749.98047-5.17187H44.55566a1.20123,1.20123,0,0,1-.85742-.34961,1.0895,1.0895,0,0,1-.36816-.81543V14.16406a1.068,1.068,0,0,1,.36816-.83886,1.25192,1.25192,0,0,1,.85742-.32618H58.917A1.32136,1.32136,0,0,1,59.82422,13.3252Z"/><path class="b" d="M65.21582,39.27832a1.06956,1.06956,0,0,1-.36719-.83984V14.16406a1.07033,1.07033,0,0,1,.36719-.83886,1.31888,1.31888,0,0,1,.90625-.32618H77.69043q6.95947,0,10.26953,2.72559,3.30762,2.72607,3.30859,8.96973V38.43848a1.1306,1.1306,0,0,1-.34375.8164,1.18587,1.18587,0,0,1-.88281.34961h-5.7832a1.31714,1.31714,0,0,1-.90625-.32617,1.06727,1.06727,0,0,1-.36816-.83984v-13.791q0-5.31151-5.53907-5.31152H73.13184V38.43848a1.13064,1.13064,0,0,1-.34375.8164,1.18369,1.18369,0,0,1-.88184.34961H66.12207A1.31887,1.31887,0,0,1,65.21582,39.27832Z"/></svg>