<svg xmlns="http://www.w3.org/2000/svg" xmlns:xlink="http://www.w3.org/1999/xlink" viewBox="0 0 1080 269.37778"><defs><style>.a{fill:url(#a);}.b{fill:url(#b);}.c{fill:url(#c);}.d{clip-path:url(#e);}.e{opacity:0.5;fill:url(#f);}.f,.h,.i,.j,.k,.l,.m,.n,.o,.p,.q,.r,.s,.t,.u,.v{fill:none;stroke-miterlimit:10;}.f{stroke:#936037;stroke-width:0.66267px;}.g{clip-path:url(#h);}.h,.i,.j,.k,.l,.m,.n,.o,.p,.q,.r,.s,.t,.u,.v{stroke-width:1.3254px;}.h{stroke:url(#i);}.i{stroke:url(#j);}.j{stroke:url(#k);}.k{stroke:url(#l);}.l{stroke:url(#m);}.m{stroke:url(#n);}.n{stroke:url(#o);}.o{stroke:url(#p);}.p{stroke:url(#q);}.q{stroke:url(#r);}.r{stroke:url(#s);}.s{stroke:url(#t);}.t{stroke:url(#u);}.u{stroke:url(#v);}.v{stroke:url(#w);}.w{opacity:0.46;fill:url(#x);}</style><linearGradient id="a" x1="397.50677" y1="260.17426" x2="579.1922" y2="-20.7016" gradientUnits="userSpaceOnUse"><stop offset="0" stop-color="#845636"/><stop offset="1" stop-color="#734c32"/></linearGradient><linearGradient id="b" y1="89.85209" x2="1080" y2="89.85209" gradientUnits="userSpaceOnUse"><stop offset="0" stop-color="#b17f4a"/><stop offset="1" stop-color="#946644"/></linearGradient><linearGradient id="c" x1="540" y1="101.09102" x2="540" y2="261.61535" gradientUnits="userSpaceOnUse"><stop offset="0" stop-color="#4c575e" stop-opacity="0.6"/><stop offset="1" stop-color="#ccc" stop-opacity="0"/></linearGradient><clipPath id="e"><rect class="a" width="1080" height="79.77484"/></clipPath><linearGradient id="f" x1="538.33402" y1="-1.81703" x2="538.33402" y2="78.59785" gradientUnits="userSpaceOnUse"><stop offset="0" stop-color="#996b4d"/><stop offset="1" stop-color="#734c32"/></linearGradient><clipPath id="h"><rect class="b" y="79.77484" width="1080" height="20.15449"/></clipPath><linearGradient id="i" y1="84.77151" x2="154.65032" y2="84.77151" gradientUnits="userSpaceOnUse"><stop offset="0" stop-color="#bd874f"/><stop offset="1" stop-color="#bd8057"/></linearGradient><linearGradient id="j" x1="149.84877" y1="95.90141" x2="421.04822" y2="95.90141" xlink:href="#i"/><linearGradient id="k" x1="12.46824" y1="89.85209" x2="167.11856" y2="89.85209" xlink:href="#i"/><linearGradient id="l" x1="-8.28341" y1="95.90141" x2="146.36691" y2="95.90141" xlink:href="#i"/><linearGradient id="m" x1="159.04043" y1="85.54084" x2="391.30194" y2="85.54084" xlink:href="#i"/><linearGradient id="n" x1="393.00552" y1="87.29423" x2="629.54009" y2="87.29423" xlink:href="#i"/><linearGradient id="o" x1="423.86925" y1="96.67501" x2="657.7105" y2="96.67501" xlink:href="#i"/><linearGradient id="p" x1="631.30496" y1="87.29423" x2="872.27612" y2="87.29423" xlink:href="#i"/><linearGradient id="q" x1="659.42206" y1="96.67501" x2="910.44709" y2="96.67501" xlink:href="#i"/><linearGradient id="r" x1="912.56564" y1="96.98154" x2="1144.82715" y2="96.98154" xlink:href="#i"/><linearGradient id="s" x1="874.25391" y1="86.67415" x2="1106.51542" y2="86.67415" xlink:href="#i"/><linearGradient id="t" x1="930.9966" y1="89.85209" x2="1167.6071" y2="89.85209" xlink:href="#i"/><linearGradient id="u" x1="511.29133" y1="92.5646" x2="928.21848" y2="92.5646" xlink:href="#i"/><linearGradient id="v" x1="393.04029" y1="83.24557" x2="625.3018" y2="83.24557" xlink:href="#i"/><linearGradient id="w" x1="173.89425" y1="92.06416" x2="509.64613" y2="92.06416" xlink:href="#i"/><linearGradient id="x" x1="540" y1="79.26949" x2="540" y2="95.76536" xlink:href="#b"/></defs><rect class="c" y="99.91987" width="1080" height="169.45792"/><rect class="a" width="1080" height="79.77484"/><g class="d"><rect class="e" x="-13.32741" width="1103.32285" height="79.77484"/><line class="f" x1="2.08764" y1="20.499" x2="967.00682" y2="20.499"/><line class="f" x1="654.65875" y1="17.8284" x2="1089.79222" y2="17.8284"/><line class="f" x1="734.53049" y1="22.17005" x2="1086.97254" y2="22.17005"/><line class="f" x1="707.96682" y1="19.29933" x2="235.9264" y2="19.29933"/><line class="f" x1="2.08764" y1="18.37504" x2="645.2863" y2="17.92441"/><line class="f" x1="638.64935" y1="15.92531" x2="1070.99914" y2="15.92531"/><line class="f" x1="632.96009" y1="16.49108" x2="326.0679" y2="16.49108"/><line class="f" x1="323.9468" y1="17.06199" x2="-11.64333" y2="17.06199"/><line class="f" x1="-2.09172" y1="15.44402" x2="406.80234" y2="15.44402"/><line class="f" x1="412.13993" y1="15.02054" x2="1084.82332" y2="15.02054"/><line class="f" x1="2.08764" y1="7.79873" x2="967.00682" y2="7.79873"/><line class="f" x1="654.65875" y1="10.46933" x2="1089.79222" y2="10.46933"/><line class="f" x1="734.53049" y1="6.12768" x2="1086.97254" y2="6.12768"/><line class="f" x1="707.96682" y1="8.9984" x2="235.9264" y2="8.9984"/><line class="f" x1="2.08764" y1="9.92269" x2="645.2863" y2="10.37332"/><line class="f" x1="638.64935" y1="12.37242" x2="1070.99914" y2="12.37242"/><line class="f" x1="632.96009" y1="11.80664" x2="326.0679" y2="11.80664"/><line class="f" x1="323.9468" y1="11.23573" x2="-11.64333" y2="11.23573"/><line class="f" x1="-2.09172" y1="12.85371" x2="406.80234" y2="12.85371"/><line class="f" x1="412.13993" y1="13.27719" x2="1084.82332" y2="13.27719"/><line class="f" x1="654.65875" y1="1.81168" x2="1089.79222" y2="1.81168"/><line class="f" x1="707.96682" y1="0.34075" x2="235.9264" y2="0.34075"/><line class="f" x1="2.08764" y1="1.26504" x2="645.2863" y2="1.71566"/><line class="f" x1="638.64935" y1="3.71477" x2="1070.99914" y2="3.71477"/><line class="f" x1="632.96009" y1="3.14899" x2="326.0679" y2="3.14899"/><line class="f" x1="323.9468" y1="2.57808" x2="-11.64333" y2="2.57808"/><line class="f" x1="-2.09172" y1="4.19605" x2="406.80234" y2="4.19605"/><line class="f" x1="412.13993" y1="4.61954" x2="1084.82332" y2="4.61954"/><line class="f" x1="-0.21478" y1="6.43319" x2="473.67173" y2="6.43319"/><line class="f" x1="488.79014" y1="5.92436" x2="726.46619" y2="5.92436"/><line class="f" x1="594.60134" y1="6.88785" x2="694.84006" y2="6.88785"/><ellipse class="f" cx="598.9247" cy="6.79219" rx="8.4437" ry="1.60405"/><ellipse class="f" cx="480.72606" cy="5.55257" rx="8.4437" ry="1.60405"/><ellipse class="f" cx="480.72606" cy="5.55257" rx="6.83861" ry="1.10931"/><ellipse class="f" cx="480.72606" cy="5.55257" rx="15.10309" ry="2.44991"/><ellipse class="f" cx="408.59073" cy="14.22136" rx="8.4437" ry="1.60405"/><ellipse class="f" cx="408.59073" cy="14.22136" rx="6.83861" ry="1.10931"/><ellipse class="f" cx="408.59073" cy="14.22136" rx="15.10309" ry="2.44991"/><ellipse class="f" cx="736.51381" cy="14.22136" rx="8.4437" ry="1.60405"/><ellipse class="f" cx="736.51381" cy="14.22136" rx="6.83861" ry="1.10931"/><ellipse class="f" cx="736.51381" cy="14.22136" rx="15.10309" ry="2.44991"/><ellipse class="f" cx="944.97772" cy="7.97803" rx="8.4437" ry="1.60405"/><ellipse class="f" cx="944.97772" cy="7.97803" rx="6.83861" ry="1.10931"/><ellipse class="f" cx="944.97772" cy="7.97803" rx="15.10309" ry="2.44991"/><ellipse class="f" cx="109.81138" cy="11.77145" rx="8.4437" ry="1.60405"/><ellipse class="f" cx="109.81138" cy="11.77145" rx="6.83861" ry="1.10931"/><ellipse class="f" cx="109.81138" cy="11.77145" rx="15.10309" ry="2.44991"/><ellipse class="f" cx="27.25812" cy="6.79947" rx="5.80205" ry="1.10222"/><ellipse class="f" cx="27.25812" cy="6.79947" rx="4.69913" ry="0.76226"/><ellipse class="f" cx="27.25812" cy="6.79947" rx="10.37802" ry="1.68345"/><line class="f" x1="726.75298" y1="22.65401" x2="-89.78296" y2="22.65401"/><line class="f" x1="2.08764" y1="25.81652" x2="967.00682" y2="25.81652"/><line class="f" x1="654.65875" y1="28.48712" x2="1089.79222" y2="28.48712"/><line class="f" x1="734.53049" y1="24.14546" x2="1086.97254" y2="24.14546"/><line class="f" x1="707.96682" y1="27.01619" x2="235.9264" y2="27.01619"/><line class="f" x1="2.08764" y1="27.94048" x2="645.2863" y2="28.39111"/><line class="f" x1="638.64935" y1="30.39021" x2="1070.99914" y2="30.39021"/><line class="f" x1="632.96009" y1="29.82443" x2="326.0679" y2="29.82443"/><line class="f" x1="323.9468" y1="29.25352" x2="-11.64333" y2="29.25352"/><line class="f" x1="-2.09172" y1="30.8715" x2="406.80234" y2="30.8715"/><line class="f" x1="412.13993" y1="31.29498" x2="1084.82332" y2="31.29498"/><line class="f" x1="2.08764" y1="38.51679" x2="967.00682" y2="38.51679"/><line class="f" x1="654.65875" y1="35.84619" x2="1089.79222" y2="35.84619"/><line class="f" x1="734.53049" y1="40.18784" x2="1086.97254" y2="40.18784"/><line class="f" x1="707.96682" y1="37.31712" x2="235.9264" y2="37.31712"/><line class="f" x1="2.08764" y1="36.39283" x2="645.2863" y2="35.9422"/><line class="f" x1="638.64935" y1="33.9431" x2="1070.99914" y2="33.9431"/><line class="f" x1="632.96009" y1="34.50887" x2="326.0679" y2="34.50887"/><line class="f" x1="323.9468" y1="35.07978" x2="-11.64333" y2="35.07978"/><line class="f" x1="-2.09172" y1="33.46181" x2="406.80234" y2="33.46181"/><line class="f" x1="412.13993" y1="33.03832" x2="1084.82332" y2="33.03832"/><line class="f" x1="2.08764" y1="47.17444" x2="967.00682" y2="47.17444"/><line class="f" x1="654.65875" y1="44.50384" x2="1089.79222" y2="44.50384"/><line class="f" x1="734.53049" y1="48.8455" x2="1086.97254" y2="48.8455"/><line class="f" x1="707.96682" y1="45.97477" x2="235.9264" y2="45.97477"/><line class="f" x1="2.08764" y1="45.05048" x2="645.2863" y2="44.59985"/><line class="f" x1="638.64935" y1="42.60075" x2="1070.99914" y2="42.60075"/><line class="f" x1="632.96009" y1="43.16653" x2="326.0679" y2="43.16653"/><line class="f" x1="323.9468" y1="43.73744" x2="-11.64333" y2="43.73744"/><line class="f" x1="-2.09172" y1="42.11946" x2="406.80234" y2="42.11946"/><line class="f" x1="412.13993" y1="41.69598" x2="1084.82332" y2="41.69598"/><line class="f" x1="-0.21478" y1="39.88233" x2="473.67173" y2="39.88233"/><line class="f" x1="488.79014" y1="40.39116" x2="726.46619" y2="40.39116"/><line class="f" x1="594.60134" y1="39.42767" x2="694.84006" y2="39.42767"/><ellipse class="f" cx="598.9247" cy="39.52333" rx="8.4437" ry="1.60405"/><ellipse class="f" cx="480.72606" cy="40.76294" rx="8.4437" ry="1.60405"/><ellipse class="f" cx="480.72606" cy="40.76294" rx="6.83861" ry="1.10931"/><ellipse class="f" cx="480.72606" cy="40.76294" rx="15.10309" ry="2.44991"/><ellipse class="f" cx="408.59073" cy="32.09415" rx="8.4437" ry="1.60405"/><ellipse class="f" cx="408.59073" cy="32.09415" rx="6.83861" ry="1.10931"/><ellipse class="f" cx="408.59073" cy="32.09415" rx="15.10309" ry="2.44991"/><ellipse class="f" cx="736.51381" cy="32.09415" rx="8.4437" ry="1.60405"/><ellipse class="f" cx="736.51381" cy="32.09415" rx="6.83861" ry="1.10931"/><ellipse class="f" cx="736.51381" cy="32.09415" rx="15.10309" ry="2.44991"/><ellipse class="f" cx="944.97772" cy="38.33748" rx="8.4437" ry="1.60405"/><ellipse class="f" cx="944.97772" cy="38.33748" rx="6.83861" ry="1.10931"/><ellipse class="f" cx="944.97772" cy="38.33748" rx="15.10309" ry="2.44991"/><ellipse class="f" cx="109.81138" cy="34.54407" rx="8.4437" ry="1.60405"/><ellipse class="f" cx="109.81138" cy="34.54407" rx="6.83861" ry="1.10931"/><ellipse class="f" cx="109.81138" cy="34.54407" rx="15.10309" ry="2.44991"/><ellipse class="f" cx="27.25812" cy="39.51604" rx="5.80205" ry="1.10222"/><ellipse class="f" cx="27.25812" cy="39.51604" rx="4.69913" ry="0.76226"/><ellipse class="f" cx="27.25812" cy="39.51604" rx="10.37802" ry="1.68345"/><line class="f" x1="726.75298" y1="23.66151" x2="-89.78296" y2="23.66151"/><line class="f" x1="2.08764" y1="71.03858" x2="967.00682" y2="71.03858"/><line class="f" x1="654.65875" y1="68.36798" x2="1089.79222" y2="68.36798"/><line class="f" x1="734.53049" y1="72.70963" x2="1086.97254" y2="72.70963"/><line class="f" x1="707.96682" y1="69.83891" x2="235.9264" y2="69.83891"/><line class="f" x1="2.08764" y1="68.91462" x2="645.2863" y2="68.46399"/><line class="f" x1="638.64935" y1="66.46489" x2="1070.99914" y2="66.46489"/><line class="f" x1="632.96009" y1="67.03067" x2="326.0679" y2="67.03067"/><line class="f" x1="323.9468" y1="67.60157" x2="-11.64333" y2="67.60157"/><line class="f" x1="-2.09172" y1="65.9836" x2="406.80234" y2="65.9836"/><line class="f" x1="412.13993" y1="65.56012" x2="1084.82332" y2="65.56012"/><line class="f" x1="2.08764" y1="58.33831" x2="967.00682" y2="58.33831"/><line class="f" x1="654.65875" y1="61.00891" x2="1089.79222" y2="61.00891"/><line class="f" x1="734.53049" y1="56.66726" x2="1086.97254" y2="56.66726"/><line class="f" x1="707.96682" y1="59.53798" x2="235.9264" y2="59.53798"/><line class="f" x1="2.08764" y1="60.46227" x2="645.2863" y2="60.9129"/><line class="f" x1="638.64935" y1="62.912" x2="1070.99914" y2="62.912"/><line class="f" x1="632.96009" y1="62.34622" x2="326.0679" y2="62.34622"/><line class="f" x1="323.9468" y1="61.77531" x2="-11.64333" y2="61.77531"/><line class="f" x1="-2.09172" y1="63.39329" x2="406.80234" y2="63.39329"/><line class="f" x1="412.13993" y1="63.81677" x2="1084.82332" y2="63.81677"/><line class="f" x1="2.08764" y1="49.68065" x2="967.00682" y2="49.68065"/><line class="f" x1="654.65875" y1="52.35126" x2="1089.79222" y2="52.35126"/><line class="f" x1="734.53049" y1="48.0096" x2="1086.97254" y2="48.0096"/><line class="f" x1="707.96682" y1="50.88033" x2="235.9264" y2="50.88033"/><line class="f" x1="2.08764" y1="51.80462" x2="645.2863" y2="52.25524"/><line class="f" x1="638.64935" y1="54.25435" x2="1070.99914" y2="54.25435"/><line class="f" x1="632.96009" y1="53.68857" x2="326.0679" y2="53.68857"/><line class="f" x1="323.9468" y1="53.11766" x2="-11.64333" y2="53.11766"/><line class="f" x1="-2.09172" y1="54.73563" x2="406.80234" y2="54.73563"/><line class="f" x1="412.13993" y1="55.15912" x2="1084.82332" y2="55.15912"/><line class="f" x1="-0.21478" y1="56.97277" x2="473.67173" y2="56.97277"/><line class="f" x1="488.79014" y1="56.46394" x2="726.46619" y2="56.46394"/><line class="f" x1="594.60134" y1="57.42743" x2="694.84006" y2="57.42743"/><ellipse class="f" cx="598.9247" cy="57.33177" rx="8.4437" ry="1.60405"/><ellipse class="f" cx="480.72606" cy="56.09215" rx="8.4437" ry="1.60405"/><ellipse class="f" cx="480.72606" cy="56.09215" rx="6.83861" ry="1.10931"/><ellipse class="f" cx="480.72606" cy="56.09215" rx="15.10309" ry="2.44991"/><ellipse class="f" cx="408.59073" cy="64.76095" rx="8.4437" ry="1.60405"/><ellipse class="f" cx="408.59073" cy="64.76095" rx="6.83861" ry="1.10931"/><ellipse class="f" cx="408.59073" cy="64.76095" rx="15.10309" ry="2.44991"/><ellipse class="f" cx="736.51381" cy="64.76095" rx="8.4437" ry="1.60405"/><ellipse class="f" cx="736.51381" cy="64.76095" rx="6.83861" ry="1.10931"/><ellipse class="f" cx="736.51381" cy="64.76095" rx="15.10309" ry="2.44991"/><ellipse class="f" cx="944.97772" cy="58.51761" rx="8.4437" ry="1.60405"/><ellipse class="f" cx="944.97772" cy="58.51761" rx="6.83861" ry="1.10931"/><ellipse class="f" cx="944.97772" cy="58.51761" rx="15.10309" ry="2.44991"/><ellipse class="f" cx="109.81138" cy="62.31103" rx="8.4437" ry="1.60405"/><ellipse class="f" cx="109.81138" cy="62.31103" rx="6.83861" ry="1.10931"/><ellipse class="f" cx="109.81138" cy="62.31103" rx="15.10309" ry="2.44991"/><ellipse class="f" cx="27.25812" cy="57.33905" rx="5.80205" ry="1.10222"/><ellipse class="f" cx="27.25812" cy="57.33905" rx="4.69913" ry="0.76226"/><ellipse class="f" cx="27.25812" cy="57.33905" rx="10.37802" ry="1.68345"/><line class="f" x1="2.08764" y1="92.54578" x2="967.00682" y2="92.54578"/><line class="f" x1="654.65875" y1="89.87517" x2="1089.79222" y2="89.87517"/><line class="f" x1="707.96682" y1="91.3461" x2="235.9264" y2="91.3461"/><line class="f" x1="2.08764" y1="90.42181" x2="645.2863" y2="89.97118"/><line class="f" x1="638.64935" y1="87.97208" x2="1070.99914" y2="87.97208"/><line class="f" x1="632.96009" y1="88.53786" x2="326.0679" y2="88.53786"/><line class="f" x1="323.9468" y1="89.10877" x2="-11.64333" y2="89.10877"/><line class="f" x1="-2.09172" y1="87.4908" x2="406.80234" y2="87.4908"/><line class="f" x1="412.13993" y1="87.06731" x2="1084.82332" y2="87.06731"/><line class="f" x1="2.08764" y1="79.8455" x2="967.00682" y2="79.8455"/><line class="f" x1="654.65875" y1="82.5161" x2="1089.79222" y2="82.5161"/><line class="f" x1="734.53049" y1="78.17445" x2="1086.97254" y2="78.17445"/><line class="f" x1="707.96682" y1="81.04517" x2="235.9264" y2="81.04517"/><line class="f" x1="2.08764" y1="81.96946" x2="645.2863" y2="82.42009"/><line class="f" x1="638.64935" y1="84.41919" x2="1070.99914" y2="84.41919"/><line class="f" x1="632.96009" y1="83.85342" x2="326.0679" y2="83.85342"/><line class="f" x1="323.9468" y1="83.28251" x2="-11.64333" y2="83.28251"/><line class="f" x1="-2.09172" y1="84.90048" x2="406.80234" y2="84.90048"/><line class="f" x1="412.13993" y1="85.32397" x2="1084.82332" y2="85.32397"/><line class="f" x1="654.65875" y1="73.85845" x2="1089.79222" y2="73.85845"/><line class="f" x1="2.08764" y1="73.31181" x2="645.2863" y2="73.76244"/><line class="f" x1="638.64935" y1="75.76154" x2="1070.99914" y2="75.76154"/><line class="f" x1="632.96009" y1="75.19576" x2="326.0679" y2="75.19576"/><line class="f" x1="323.9468" y1="74.62486" x2="-11.64333" y2="74.62486"/><line class="f" x1="-2.09172" y1="76.24283" x2="406.80234" y2="76.24283"/><line class="f" x1="412.13993" y1="76.66631" x2="1084.82332" y2="76.66631"/><line class="f" x1="-0.21478" y1="78.47996" x2="473.67173" y2="78.47996"/><line class="f" x1="488.79014" y1="77.97113" x2="726.46619" y2="77.97113"/><line class="f" x1="594.60134" y1="78.93462" x2="694.84006" y2="78.93462"/><ellipse class="f" cx="598.9247" cy="78.83896" rx="8.4437" ry="1.60405"/><ellipse class="f" cx="480.72606" cy="77.59935" rx="8.4437" ry="1.60405"/><ellipse class="f" cx="480.72606" cy="77.59935" rx="6.83861" ry="1.10931"/><ellipse class="f" cx="480.72606" cy="77.59935" rx="15.10309" ry="2.44991"/><ellipse class="f" cx="408.59073" cy="86.26814" rx="8.4437" ry="1.60405"/><ellipse class="f" cx="408.59073" cy="86.26814" rx="6.83861" ry="1.10931"/><ellipse class="f" cx="408.59073" cy="86.26814" rx="15.10309" ry="2.44991"/><ellipse class="f" cx="736.51381" cy="86.26814" rx="8.4437" ry="1.60405"/><ellipse class="f" cx="736.51381" cy="86.26814" rx="6.83861" ry="1.10931"/><ellipse class="f" cx="736.51381" cy="86.26814" rx="15.10309" ry="2.44991"/><ellipse class="f" cx="944.97772" cy="80.02481" rx="8.4437" ry="1.60405"/><ellipse class="f" cx="944.97772" cy="80.02481" rx="6.83861" ry="1.10931"/><ellipse class="f" cx="944.97772" cy="80.02481" rx="15.10309" ry="2.44991"/><ellipse class="f" cx="109.81138" cy="83.81823" rx="8.4437" ry="1.60405"/><ellipse class="f" cx="109.81138" cy="83.81823" rx="6.83861" ry="1.10931"/><ellipse class="f" cx="109.81138" cy="83.81823" rx="15.10309" ry="2.44991"/><ellipse class="f" cx="27.25812" cy="78.84625" rx="5.80205" ry="1.10222"/><ellipse class="f" cx="27.25812" cy="78.84625" rx="4.69913" ry="0.76226"/><ellipse class="f" cx="27.25812" cy="78.84625" rx="10.37802" ry="1.68345"/><line class="f" x1="726.75298" y1="73.19359" x2="-89.78296" y2="73.19359"/></g><rect class="b" y="79.77484" width="1080" height="20.15449"/><g class="g"><line class="h" y1="84.77151" x2="154.65032" y2="84.77151"/><line class="i" x1="149.84877" y1="95.90141" x2="421.04822" y2="95.90141"/><line class="j" x1="12.46824" y1="89.85209" x2="167.11856" y2="89.85209"/><line class="k" x1="-8.28341" y1="95.90141" x2="146.36691" y2="95.90141"/><line class="l" x1="159.04043" y1="85.54084" x2="391.30194" y2="85.54084"/><line class="m" x1="393.00552" y1="87.29423" x2="629.54009" y2="87.29423"/><line class="n" x1="423.86925" y1="96.67501" x2="657.7105" y2="96.67501"/><line class="o" x1="631.30496" y1="87.29423" x2="872.27612" y2="87.29423"/><line class="p" x1="659.42206" y1="96.67501" x2="910.44709" y2="96.67501"/><line class="q" x1="912.56564" y1="96.98154" x2="1144.82715" y2="96.98154"/><line class="r" x1="874.25391" y1="86.67415" x2="1106.51542" y2="86.67415"/><line class="s" x1="930.9966" y1="89.85209" x2="1167.6071" y2="89.85209"/><line class="t" x1="511.29133" y1="92.5646" x2="928.21848" y2="92.5646"/><line class="u" x1="393.04029" y1="83.24557" x2="625.3018" y2="83.24557"/><line class="v" x1="173.89425" y1="92.06416" x2="509.64613" y2="92.06416"/><rect class="w" y="79.77484" width="1080" height="20.15449"/></g></svg>