<svg xmlns="http://www.w3.org/2000/svg" xmlns:xlink="http://www.w3.org/1999/xlink" viewBox="0 0 359.29714 237.83547"><defs><style>.a{fill:url(#a);}.b{fill:url(#b);}.c{fill:url(#c);}.d{fill:#683c11;fill-opacity:0.51;}.e{fill:url(#d);}.f{clip-path:url(#f);}.aa,.ab,.ac,.ad,.ae,.af,.ag,.ah,.ai,.aj,.ak,.al,.am,.an,.ao,.ar,.g,.i,.k,.o,.p,.q,.r,.s,.t,.u,.v,.w,.x,.y,.z{fill:none;stroke-miterlimit:10;}.g{stroke:#009fe3;stroke-width:0.93572px;opacity:0.1;}.h{fill:#3c3c3b;}.i{stroke:#1d71b8;stroke-width:0.51116px;}.as,.j{fill:#36a9e1;}.ar,.k{stroke:#3c3c3b;}.k{stroke-width:1.03413px;}.l{fill:url(#g);}.m{clip-path:url(#i);}.n{clip-path:url(#k);}.o,.q,.r{stroke-width:0.50641px;}.o{stroke:url(#l);}.aa,.ab,.ac,.ad,.ae,.af,.ag,.ah,.ai,.aj,.ak,.al,.am,.an,.ao,.p,.s,.t,.u,.v,.w,.x,.y,.z{stroke-width:0.42983px;}.p{stroke:url(#m);}.q{stroke:url(#n);}.r{stroke:url(#o);}.s{stroke:url(#p);}.t{stroke:url(#q);}.u{stroke:url(#r);}.v{stroke:url(#s);}.w{stroke:url(#t);}.x{stroke:url(#u);}.y{stroke:url(#v);}.z{stroke:url(#w);}.aa{stroke:url(#x);}.ab{stroke:url(#y);}.ac{stroke:url(#z);}.ad{stroke:url(#aa);}.ae{stroke:url(#ab);}.af{stroke:url(#ac);}.ag{stroke:url(#ad);}.ah{stroke:url(#ae);}.ai{stroke:url(#af);}.aj{stroke:url(#ag);}.ak{stroke:url(#ah);}.al{stroke:url(#ai);}.am{stroke:url(#aj);}.an{stroke:url(#ak);}.ao{stroke:url(#al);}.ap{opacity:0.46;fill:url(#am);}.aq{fill:url(#an);}.as{opacity:0.29;}</style><linearGradient id="a" x1="-41.42513" y1="33.23516" x2="165.29434" y2="291.63449" gradientTransform="matrix(1, 0, 0.0029, 0.98722, 18.98801, -83.6614)" gradientUnits="userSpaceOnUse"><stop offset="0" stop-color="#dadada"/><stop offset="1" stop-color="#f6f6f6"/></linearGradient><linearGradient id="b" x1="204.86803" y1="103.91093" x2="323.70115" y2="110.06809" gradientTransform="matrix(1, 0, 0, 1, 0, 0)" xlink:href="#a"/><linearGradient id="c" x1="3933.8718" y1="138.60904" x2="4328.59359" y2="138.60904" gradientTransform="translate(-1558.53747 74.81356) scale(0.42313 1)" gradientUnits="userSpaceOnUse"><stop offset="0" stop-color="#b17f4a"/><stop offset="1" stop-color="#946644"/></linearGradient><linearGradient id="d" x1="196.91306" y1="334.26461" x2="128.91957" y2="248.04098" gradientTransform="matrix(1, 0, 0.0029, 0.98722, 18.98801, -83.6614)" gradientUnits="userSpaceOnUse"><stop offset="0" stop-color="#dadada"/><stop offset="1" stop-color="#c6c6c6"/></linearGradient><clipPath id="f"><polygon class="a" points="192.713 0 18.153 0 13.684 207.016 188.244 207.016 192.713 0"/></clipPath><linearGradient id="g" x1="-5106.90704" y1="222.32251" x2="-5174.90053" y2="136.09887" gradientTransform="matrix(-0.99909, -0.04254, -0.0449, 0.9862, -4942.02122, -191.38771)" xlink:href="#d"/><clipPath id="i"><polygon class="b" points="184.896 0.059 359.297 7.486 354.955 214.505 180.553 207.078 184.896 0.059"/></clipPath><clipPath id="k"><rect class="c" x="106.00469" y="203.90958" width="167.01893" height="19.02605" transform="translate(6.08277 -5.25009) rotate(1.61304)"/></clipPath><linearGradient id="l" x1="3933.8718" y1="133.81293" x2="3990.39388" y2="133.81293" gradientTransform="matrix(0.42296, 0.01191, -0.02815, 0.9996, -1553.94304, 25.66228)" gradientUnits="userSpaceOnUse"><stop offset="0" stop-color="#bd874f"/><stop offset="1" stop-color="#bd8057"/></linearGradient><linearGradient id="m" x1="3566.05091" y1="3317.2917" x2="3665.16974" y2="3317.2917" gradientTransform="matrix(0.44914, 0.01265, -0.0191, 0.67817, -1432.37429, -2083.83346)" xlink:href="#l"/><linearGradient id="n" x1="3938.42873" y1="138.60904" x2="3994.95081" y2="138.60904" xlink:href="#l"/><linearGradient id="o" x1="3930.84435" y1="144.31967" x2="3987.36643" y2="144.31967" xlink:href="#l"/><linearGradient id="p" x1="3569.41031" y1="3307.51122" x2="3654.29798" y2="3307.51122" gradientTransform="matrix(0.44914, 0.01265, -0.0191, 0.67817, -1432.37429, -2083.83346)" xlink:href="#l"/><linearGradient id="q" x1="3654.92061" y1="3309.16644" x2="3741.37001" y2="3309.16644" gradientTransform="matrix(0.44914, 0.01265, -0.0191, 0.67817, -1432.37429, -2083.83346)" xlink:href="#l"/><linearGradient id="r" x1="3666.20078" y1="3318.02199" x2="3751.66582" y2="3318.02199" gradientTransform="matrix(0.44914, 0.01265, -0.0191, 0.67817, -1432.37429, -2083.83346)" xlink:href="#l"/><linearGradient id="s" x1="3742.01504" y1="3309.16644" x2="3830.08593" y2="3309.16644" gradientTransform="matrix(0.44914, 0.01265, -0.0191, 0.67817, -1432.37429, -2083.83346)" xlink:href="#l"/><linearGradient id="t" x1="3752.29136" y1="3318.02199" x2="3844.03678" y2="3318.02199" gradientTransform="matrix(0.44914, 0.01265, -0.0191, 0.67817, -1432.37429, -2083.83346)" xlink:href="#l"/><linearGradient id="u" x1="3844.81108" y1="3318.31136" x2="3929.69874" y2="3318.31136" gradientTransform="matrix(0.44914, 0.01265, -0.0191, 0.67817, -1432.37429, -2083.83346)" xlink:href="#l"/><linearGradient id="v" x1="3830.80878" y1="3308.58108" x2="3915.69645" y2="3308.58108" gradientTransform="matrix(0.44914, 0.01265, -0.0191, 0.67817, -1432.37429, -2083.83346)" xlink:href="#l"/><linearGradient id="w" x1="3851.54728" y1="3311.58108" x2="3938.02443" y2="3311.58108" gradientTransform="matrix(0.44914, 0.01265, -0.0191, 0.67817, -1432.37429, -2083.83346)" xlink:href="#l"/><linearGradient id="x" x1="3698.15208" y1="3314.14173" x2="3850.53193" y2="3314.14173" gradientTransform="matrix(0.44914, 0.01265, -0.0191, 0.67817, -1432.37429, -2083.83346)" xlink:href="#l"/><linearGradient id="y" x1="3654.93332" y1="3305.34446" x2="3739.82098" y2="3305.34446" gradientTransform="matrix(0.44914, 0.01265, -0.0191, 0.67817, -1432.37429, -2083.83346)" xlink:href="#l"/><linearGradient id="z" x1="3574.83913" y1="3313.6693" x2="3697.55079" y2="3313.6693" gradientTransform="matrix(0.44914, 0.01265, -0.0191, 0.67817, -1432.37429, -2083.83346)" xlink:href="#l"/><linearGradient id="aa" x1="3566.73575" y1="3333.39786" x2="3665.85458" y2="3333.39786" gradientTransform="matrix(0.44914, 0.01265, -0.0191, 0.67817, -1432.37429, -2083.83346)" xlink:href="#l"/><linearGradient id="ab" x1="3570.09515" y1="3323.61737" x2="3654.98282" y2="3323.61737" gradientTransform="matrix(0.44914, 0.01265, -0.0191, 0.67817, -1432.37429, -2083.83346)" xlink:href="#l"/><linearGradient id="ac" x1="3655.60545" y1="3325.2726" x2="3742.05485" y2="3325.2726" gradientTransform="matrix(0.44914, 0.01265, -0.0191, 0.67817, -1432.37429, -2083.83346)" xlink:href="#l"/><linearGradient id="ad" x1="3666.88562" y1="3334.12815" x2="3752.35066" y2="3334.12815" gradientTransform="matrix(0.44914, 0.01265, -0.0191, 0.67817, -1432.37429, -2083.83346)" xlink:href="#l"/><linearGradient id="ae" x1="3742.69988" y1="3325.2726" x2="3830.77077" y2="3325.2726" gradientTransform="matrix(0.44914, 0.01265, -0.0191, 0.67817, -1432.37429, -2083.83346)" xlink:href="#l"/><linearGradient id="af" x1="3752.97621" y1="3334.12815" x2="3844.72162" y2="3334.12815" gradientTransform="matrix(0.44914, 0.01265, -0.0191, 0.67817, -1432.37429, -2083.83346)" xlink:href="#l"/><linearGradient id="ag" x1="3845.49592" y1="3334.41751" x2="3930.38358" y2="3334.41751" gradientTransform="matrix(0.44914, 0.01265, -0.0191, 0.67817, -1432.37429, -2083.83346)" xlink:href="#l"/><linearGradient id="ah" x1="3831.49362" y1="3324.68723" x2="3916.38129" y2="3324.68723" gradientTransform="matrix(0.44914, 0.01265, -0.0191, 0.67817, -1432.37429, -2083.83346)" xlink:href="#l"/><linearGradient id="ai" x1="3852.23212" y1="3327.68723" x2="3938.70927" y2="3327.68723" gradientTransform="matrix(0.44914, 0.01265, -0.0191, 0.67817, -1432.37429, -2083.83346)" xlink:href="#l"/><linearGradient id="aj" x1="3698.83692" y1="3330.24788" x2="3851.21677" y2="3330.24788" gradientTransform="matrix(0.44914, 0.01265, -0.0191, 0.67817, -1432.37429, -2083.83346)" xlink:href="#l"/><linearGradient id="ak" x1="3655.61816" y1="3321.45062" x2="3740.50582" y2="3321.45062" gradientTransform="matrix(0.44914, 0.01265, -0.0191, 0.67817, -1432.37429, -2083.83346)" xlink:href="#l"/><linearGradient id="al" x1="3575.52397" y1="3329.77546" x2="3698.23563" y2="3329.77546" gradientTransform="matrix(0.44914, 0.01265, -0.0191, 0.67817, -1432.37429, -2083.83346)" xlink:href="#l"/><linearGradient id="am" x1="4131.2327" y1="128.61896" x2="4131.2327" y2="144.19123" xlink:href="#c"/><linearGradient id="an" x1="272.72274" y1="215.77332" x2="276.7225" y2="215.77332" gradientUnits="userSpaceOnUse"><stop offset="0" stop-color="#845636"/><stop offset="1" stop-color="#734c32"/></linearGradient></defs><polygon class="d" points="45.397 210.289 18.572 227.23 301.615 237.835 345.567 217.38 45.397 210.289"/><polygon class="e" points="194.505 3.273 19.945 3.273 15.476 210.289 190.035 210.289 194.505 3.273"/><polygon class="a" points="192.713 0 18.153 0 13.684 207.016 188.244 207.016 192.713 0"/><g class="f"><line class="g" x1="26.56614" y1="10.70947" x2="173.96818" y2="10.70947"/><line class="g" x1="26.37534" y1="19.54744" x2="173.77738" y2="19.54744"/><line class="g" x1="26.18454" y1="28.38541" x2="173.58658" y2="28.38541"/><line class="g" x1="25.99374" y1="37.22339" x2="173.39578" y2="37.22339"/><line class="g" x1="25.80294" y1="46.06136" x2="173.20498" y2="46.06136"/><line class="g" x1="25.61214" y1="54.89934" x2="173.01418" y2="54.89934"/><line class="g" x1="25.42134" y1="63.73731" x2="172.82338" y2="63.73731"/><line class="g" x1="25.23054" y1="72.57528" x2="172.63258" y2="72.57528"/><line class="g" x1="25.03975" y1="81.41326" x2="172.44179" y2="81.41326"/><line class="g" x1="24.84895" y1="90.25123" x2="172.25099" y2="90.25123"/><line class="g" x1="24.65815" y1="99.08921" x2="172.06019" y2="99.08921"/><line class="g" x1="24.46735" y1="107.92718" x2="171.86939" y2="107.92718"/><line class="g" x1="24.27655" y1="116.76516" x2="171.67859" y2="116.76516"/><line class="g" x1="24.08575" y1="125.60313" x2="171.48779" y2="125.60313"/><line class="g" x1="23.89495" y1="134.4411" x2="171.29699" y2="134.4411"/><line class="g" x1="23.70415" y1="143.27908" x2="171.10619" y2="143.27908"/><line class="g" x1="23.51336" y1="152.11705" x2="170.9154" y2="152.11705"/><line class="g" x1="23.32256" y1="160.95503" x2="170.7246" y2="160.95503"/><line class="g" x1="23.13176" y1="169.793" x2="170.5338" y2="169.793"/><line class="g" x1="22.94096" y1="178.63098" x2="170.343" y2="178.63098"/><line class="g" x1="22.75016" y1="187.46895" x2="170.1522" y2="187.46895"/><line class="g" x1="22.55936" y1="196.30692" x2="169.9614" y2="196.30692"/></g><ellipse class="h" cx="180.62368" cy="10.77595" rx="1.40656" ry="1.28723" transform="translate(-0.06794 20.34541) rotate(-6.44576)"/><path class="i" d="M195.46583,10.71236c.0307-1.42212-3.354-2.575-7.56-2.575s-7.64049,1.15286-7.67119,2.575,3.4358-1.21287,7.64179-1.21287S195.43513,12.13448,195.46583,10.71236Z"/><ellipse class="h" cx="180.43496" cy="19.51776" rx="1.40656" ry="1.28723" transform="matrix(0.99368, -0.11226, 0.11226, 0.99368, -1.05051, 20.37949)"/><path class="i" d="M195.27711,19.45417c.0307-1.42212-3.354-2.575-7.56-2.575s-7.6405,1.15285-7.6712,2.575,3.43581-1.21287,7.6418-1.21287S195.24641,20.87629,195.27711,19.45417Z"/><ellipse class="h" cx="180.24624" cy="28.25958" rx="1.40656" ry="1.28723" transform="translate(-2.03308 20.41356) rotate(-6.44576)"/><path class="i" d="M195.08839,28.196c.0307-1.42212-3.354-2.575-7.56-2.575s-7.6405,1.15286-7.6712,2.575,3.43581-1.21287,7.64179-1.21287S195.05769,29.61811,195.08839,28.196Z"/><ellipse class="h" cx="180.05752" cy="37.00139" rx="1.40656" ry="1.28723" transform="translate(-3.01565 20.44763) rotate(-6.44576)"/><path class="i" d="M194.89966,36.9378c.03071-1.42212-3.354-2.575-7.56-2.575s-7.6405,1.15285-7.6712,2.575,3.43581-1.21287,7.64179-1.21287S194.869,38.35992,194.89966,36.9378Z"/><ellipse class="h" cx="179.86879" cy="45.74321" rx="1.40656" ry="1.28723" transform="translate(-3.99823 20.48171) rotate(-6.44576)"/><path class="i" d="M194.71094,45.67962c.0307-1.42212-3.354-2.575-7.56-2.575s-7.64049,1.15286-7.6712,2.575,3.43581-1.21287,7.6418-1.21287S194.68024,47.10174,194.71094,45.67962Z"/><ellipse class="h" cx="179.68007" cy="54.48502" rx="1.40656" ry="1.28723" transform="translate(-4.9808 20.51578) rotate(-6.44576)"/><path class="i" d="M194.52222,54.42143c.0307-1.42212-3.354-2.575-7.56-2.575s-7.6405,1.15285-7.6712,2.575,3.43581-1.21287,7.64179-1.21287S194.49152,55.84355,194.52222,54.42143Z"/><ellipse class="h" cx="179.49135" cy="63.22684" rx="1.40656" ry="1.28723" transform="translate(-5.96337 20.54986) rotate(-6.44576)"/><path class="i" d="M194.3335,63.16325c.0307-1.42212-3.354-2.575-7.56-2.575s-7.6405,1.15286-7.6712,2.575,3.43581-1.21287,7.64179-1.21287S194.30279,64.58537,194.3335,63.16325Z"/><ellipse class="h" cx="179.30262" cy="71.96865" rx="1.40656" ry="1.28723" transform="translate(-6.94594 20.58393) rotate(-6.44576)"/><path class="i" d="M194.14477,71.90506c.0307-1.42212-3.354-2.575-7.56-2.575s-7.64049,1.15285-7.67119,2.575,3.4358-1.21287,7.64179-1.21287S194.11407,73.32718,194.14477,71.90506Z"/><ellipse class="h" cx="179.1139" cy="80.71047" rx="1.40656" ry="1.28723" transform="translate(-7.92851 20.61801) rotate(-6.44576)"/><path class="i" d="M193.95605,80.64688c.0307-1.42212-3.354-2.575-7.56-2.575s-7.64049,1.15286-7.6712,2.575,3.43581-1.21287,7.6418-1.21287S193.92535,82.069,193.95605,80.64688Z"/><ellipse class="h" cx="178.92518" cy="89.45228" rx="1.40656" ry="1.28723" transform="translate(-8.91109 20.65208) rotate(-6.44576)"/><path class="i" d="M193.76733,89.38869c.0307-1.42212-3.354-2.575-7.56-2.575s-7.6405,1.15285-7.6712,2.575,3.43581-1.21287,7.64179-1.21287S193.73663,90.81081,193.76733,89.38869Z"/><ellipse class="h" cx="178.73646" cy="98.1941" rx="1.40656" ry="1.28723" transform="translate(-9.89366 20.68615) rotate(-6.44576)"/><path class="i" d="M193.57861,98.13051c.0307-1.42212-3.354-2.575-7.56-2.575s-7.6405,1.15286-7.6712,2.575,3.43581-1.21287,7.64179-1.21287S193.5479,99.55263,193.57861,98.13051Z"/><ellipse class="h" cx="178.54773" cy="106.93591" rx="1.40656" ry="1.28723" transform="translate(-10.87623 20.72023) rotate(-6.44576)"/><path class="i" d="M193.38988,106.87232c.0307-1.42211-3.354-2.575-7.56-2.575s-7.64049,1.15286-7.67119,2.575,3.4358-1.21287,7.64179-1.21287S193.35918,108.29444,193.38988,106.87232Z"/><ellipse class="h" cx="178.35901" cy="115.67773" rx="1.40656" ry="1.28723" transform="translate(-11.8588 20.7543) rotate(-6.44576)"/><path class="i" d="M193.20116,115.61414c.0307-1.42212-3.354-2.575-7.56-2.575s-7.6405,1.15285-7.6712,2.575,3.43581-1.21287,7.6418-1.21287S193.17046,117.03626,193.20116,115.61414Z"/><ellipse class="h" cx="178.17029" cy="124.41954" rx="1.40656" ry="1.28723" transform="translate(-12.84138 20.78838) rotate(-6.44576)"/><path class="i" d="M193.01244,124.356c.0307-1.42212-3.354-2.575-7.56-2.575s-7.6405,1.15286-7.6712,2.575,3.43581-1.21288,7.64179-1.21288S192.98174,125.77807,193.01244,124.356Z"/><ellipse class="h" cx="177.98156" cy="133.16136" rx="1.40656" ry="1.28723" transform="translate(-13.82395 20.82245) rotate(-6.44576)"/><path class="i" d="M192.82371,133.09777c.03071-1.42212-3.354-2.575-7.56-2.575s-7.6405,1.15285-7.6712,2.575,3.43581-1.21287,7.64179-1.21287S192.793,134.51989,192.82371,133.09777Z"/><ellipse class="h" cx="177.79284" cy="141.90317" rx="1.40656" ry="1.28723" transform="translate(-14.80652 20.85653) rotate(-6.44576)"/><path class="i" d="M192.635,141.83959c.0307-1.42212-3.354-2.575-7.56-2.575s-7.64049,1.15286-7.6712,2.575,3.43581-1.21288,7.6418-1.21288S192.60429,143.26171,192.635,141.83959Z"/><ellipse class="h" cx="177.60412" cy="150.64499" rx="1.40656" ry="1.28723" transform="translate(-15.78909 20.8906) rotate(-6.44576)"/><path class="i" d="M192.44627,150.5814c.0307-1.42212-3.354-2.575-7.56-2.575s-7.6405,1.15285-7.6712,2.575,3.43581-1.21287,7.64179-1.21287S192.41557,152.00352,192.44627,150.5814Z"/><ellipse class="h" cx="177.4154" cy="159.38681" rx="1.40656" ry="1.28723" transform="translate(-16.77166 20.92467) rotate(-6.44576)"/><path class="i" d="M192.25755,159.32322c.0307-1.42212-3.354-2.575-7.56-2.575s-7.6405,1.15286-7.6712,2.575,3.43581-1.21288,7.64179-1.21288S192.22684,160.74534,192.25755,159.32322Z"/><ellipse class="h" cx="177.22667" cy="168.12862" rx="1.40656" ry="1.28723" transform="translate(-17.75424 20.95875) rotate(-6.44576)"/><path class="i" d="M192.06882,168.065c.0307-1.42212-3.354-2.575-7.56-2.575s-7.64049,1.15285-7.67119,2.575,3.4358-1.21287,7.64179-1.21287S192.03812,169.48715,192.06882,168.065Z"/><ellipse class="h" cx="177.03795" cy="176.87044" rx="1.40656" ry="1.28723" transform="translate(-18.73681 20.99282) rotate(-6.44576)"/><path class="i" d="M191.8801,176.80685c.0307-1.42212-3.354-2.575-7.56-2.575s-7.6405,1.15286-7.6712,2.575,3.43581-1.21287,7.6418-1.21287S191.8494,178.229,191.8801,176.80685Z"/><ellipse class="h" cx="176.84923" cy="185.61225" rx="1.40656" ry="1.28723" transform="translate(-19.71938 21.0269) rotate(-6.44576)"/><path class="i" d="M191.69138,185.54866c.0307-1.42212-3.354-2.575-7.56-2.575s-7.6405,1.15285-7.6712,2.575,3.43581-1.21287,7.64179-1.21287S191.66068,186.97078,191.69138,185.54866Z"/><ellipse class="h" cx="176.66051" cy="194.35407" rx="1.40656" ry="1.28723" transform="translate(-20.70195 21.06097) rotate(-6.44576)"/><path class="i" d="M191.50265,194.29048c.03071-1.42212-3.354-2.575-7.56-2.575s-7.6405,1.15286-7.6712,2.575,3.43581-1.21287,7.64179-1.21287S191.472,195.7126,191.50265,194.29048Z"/><path class="h" d="M35.87285,56.267A2.64716,2.64716,0,0,1,37.66,55.562H39.24A45.3626,45.3626,0,0,1,41.201,45.644a2.10419,2.10419,0,0,1-.74024-1.20508,1.95177,1.95177,0,0,1,.07813-1.41015,2.28993,2.28993,0,0,1,2.33007-1.52344h.88672a2.08285,2.08285,0,0,1,.791-.13672,2.65333,2.65333,0,0,1,.8125.13672l10.19726-.13672A2.34356,2.34356,0,0,1,57.59355,42.392a2.12947,2.12947,0,0,1,.2168,2.18359q-2.01562,4.6172-2.85156,13.41992a2.35571,2.35571,0,0,1-.918,1.52344,2.47071,2.47071,0,0,1-1.75977.61426,2.41715,2.41715,0,0,1-1.6582-.7959,2.1783,2.1783,0,0,1-.5625-1.72852,56.8831,56.8831,0,0,1,2.01953-11.50976l-5.9375.06836a45.54289,45.54289,0,0,0-2.08594,10.23535,2.0764,2.0764,0,0,1,.209,2.47949,2.56061,2.56061,0,0,1-2.30078,1.251h-.14258a2.14536,2.14536,0,0,1-.623,0q-.86133,0-1.293.0459-.88769.04541-2.34765.04492a2.53737,2.53737,0,0,1-1.75586-.70508,2.105,2.105,0,0,1-.68164-1.61523A2.15782,2.15782,0,0,1,35.87285,56.267Z"/><path class="h" d="M63.97441,42.84712a2.32643,2.32643,0,0,1,2.23242-1.47852,2.40529,2.40529,0,0,1,2.13477.97852,2.11155,2.11155,0,0,1,.18945,2.27343Q66.492,49.28462,65.656,58.04047a2.1998,2.1998,0,0,1-.87109,1.57032,2.38609,2.38609,0,0,1-1.78516.61328,2.28336,2.28336,0,0,1-1.70507-.8418,2.23451,2.23451,0,0,1-.58594-1.68262Q61.60821,48.21479,63.97441,42.84712Z"/><path class="h" d="M75.8416,48.53266a36.21354,36.21354,0,0,1-2.06836-3.957,1.9507,1.9507,0,0,1,.23828-2.13867A2.15121,2.15121,0,0,1,75.949,41.3686a2.10143,2.10143,0,0,1,2.22071,1.38672,30.05153,30.05153,0,0,0,4.01953,6.61914A13.35465,13.35465,0,0,0,86.0584,43.2104a2.55229,2.55229,0,0,1,.91211-1.3418,2.20085,2.20085,0,0,1,1.4707-.5,2.2608,2.2608,0,0,1,1.84961.81836,2.06337,2.06337,0,0,1,.4375,1.91016q-.97266,4.09569-5.37891,8.62109,1.73731,1.52343,3.81055,3.07031a2.19869,2.19869,0,0,1,.43359,3.18457,2.42275,2.42275,0,0,1-1.59765.8877,2.63131,2.63131,0,0,1-1.76172-.43262,39.96366,39.96366,0,0,1-7.53125-6.9834q-2.44042,3.18458-2.49024,5.55078a2.09906,2.09906,0,0,1-.75195,1.56934,2.50918,2.50918,0,0,1-1.68945.65918,2.48336,2.48336,0,0,1-1.709-.70508,2.12341,2.12341,0,0,1-.63476-1.56934Q71.56523,53.69721,75.8416,48.53266Z"/><path class="h" d="M95.60137,45.644a2.06643,2.06643,0,0,1-.76172-1.20508,2.1213,2.1213,0,0,1,.02929-1.41015,2.40123,2.40123,0,0,1,.957-1.11524,2.71374,2.71374,0,0,1,1.41992-.4082h.88672a1.949,1.949,0,0,1,.74414-.13672,3.02554,3.02554,0,0,1,.93164.13672l10.19726-.13672a2.39307,2.39307,0,0,1,2.27735,3.252q-2.06544,4.6172-2.89844,13.41992a2.12017,2.12017,0,0,1-.84961,1.57032,2.4459,2.4459,0,0,1-1.83008.61328,2.43625,2.43625,0,0,1-2.24414-2.52442,57.96068,57.96068,0,0,1,2.043-11.53222h-5.91016a52.0584,52.0584,0,0,0-2.26757,11.873,2.19984,2.19984,0,0,1-.8711,1.57032,2.38608,2.38608,0,0,1-1.78515.61328,2.28336,2.28336,0,0,1-1.70508-.8418,2.23451,2.23451,0,0,1-.58594-1.68262A58.09454,58.09454,0,0,1,95.60137,45.644Z"/><path class="h" d="M116.033,44.98481a2.19005,2.19005,0,0,1,.05078-2.36523,2.521,2.521,0,0,1,2.20312-1.16114l12.73438-.08984a2.24309,2.24309,0,0,1,2.33008,2.97949,1.27389,1.27389,0,0,1-.10743.501l-4.748,13.7373a2.29011,2.29011,0,0,1-.959,1.18262,2.58825,2.58825,0,0,1-1.46875.45508h-6.248a2.60932,2.60932,0,0,1-1.63868-.61328,2.1475,2.1475,0,0,1-.75781-1.4795L116.0291,45.18891C116.03105,45.11372,116.03105,45.04536,116.033,44.98481ZM122.14824,55.562h2.20117l3.33985-9.50781-6.53711.11328Z"/><path class="h" d="M139.41387,42.84712a2.329,2.329,0,0,1,2.23437-1.47852,2.40182,2.40182,0,0,1,2.13281.97852,2.11191,2.11191,0,0,1,.19141,2.27343q-2.042,4.66407-2.875,13.41992a2.20238,2.20238,0,0,1-.87305,1.57032,2.38176,2.38176,0,0,1-1.7832.61328,2.28336,2.28336,0,0,1-1.70508-.8418,2.22688,2.22688,0,0,1-.58594-1.68262Q137.04668,48.21479,139.41387,42.84712Z"/><path class="h" d="M147.57207,56.312a2.51452,2.51452,0,0,1,1.74023-.75q2.89746-.09082,4.02344-.13672h2.05859a42.288,42.288,0,0,1,3.02344-12.57812,2.272,2.272,0,0,1,2.23438-1.47852,2.358,2.358,0,0,1,2.08593.97852,2.03186,2.03186,0,0,1,.19141,2.22851q-1.99218,4.6172-2.82812,13.41992a2.1607,2.1607,0,0,1-.8711,1.52344,2.48139,2.48139,0,0,1-1.73633.61426h-.28711q-2.3203-.04542-7.85156.09082a2.277,2.277,0,0,1-1.68554-.65918,1.98454,1.98454,0,0,1-.75586-1.56934A2.128,2.128,0,0,1,147.57207,56.312Z"/><path class="h" d="M39.11113,73.12544a2.329,2.329,0,0,1,2.23438-1.47852,2.408,2.408,0,0,1,2.13281.97754,2.11521,2.11521,0,0,1,.18945,2.27539q-2.03905,4.6626-2.873,13.41992a2.19853,2.19853,0,0,1-.873,1.56836,2.37779,2.37779,0,0,1-1.78516.61524,2.28587,2.28587,0,0,1-1.70312-.8418,2.22145,2.22145,0,0,1-.58594-1.6836Q36.744,78.49311,39.11113,73.12544Z"/><path class="h" d="M50.98027,78.812A36.59218,36.59218,0,0,1,48.91,74.854a1.95256,1.95256,0,0,1,.23828-2.13769,2.15206,2.15206,0,0,1,1.9375-1.06934,2.10324,2.10324,0,0,1,2.2207,1.3877,30.08215,30.08215,0,0,0,4.02149,6.61914,13.35817,13.35817,0,0,0,3.86719-6.16407,2.56363,2.56363,0,0,1,.91406-1.34179,2.19839,2.19839,0,0,1,1.4707-.501,2.26954,2.26954,0,0,1,1.84961.81934,2.06739,2.06739,0,0,1,.4375,1.91015q-.97559,4.09423-5.38086,8.6211,1.74024,1.52343,3.81055,3.07031a2.19976,2.19976,0,0,1,.43555,3.18359,2.42317,2.42317,0,0,1-1.59961.8877,2.62587,2.62587,0,0,1-1.76172-.43262,40.01956,40.01956,0,0,1-7.53125-6.98242q-2.44044,3.18458-2.49024,5.5498a2.0908,2.0908,0,0,1-.752,1.56934,2.50666,2.50666,0,0,1-1.68945.66016,2.4797,2.4797,0,0,1-1.707-.70508,2.13356,2.13356,0,0,1-.63672-1.57032Q46.70195,83.97553,50.98027,78.812Z"/><path class="h" d="M69.21855,86.54536a2.64464,2.64464,0,0,1,1.78516-.70606q4.62012,0,8.832-.04492a46.606,46.606,0,0,1-8.20117-10.32617,2.15051,2.15051,0,0,1,.05078-2.34277,2.338,2.338,0,0,1,2.084-1.20606,2.36308,2.36308,0,0,1,2.17579,1.20606,37.23969,37.23969,0,0,0,5.13671,7.07324.76087.76087,0,0,1,.19532-.13574,9.12434,9.12434,0,0,0,4.10937-6.32325,2.47837,2.47837,0,0,1,.82227-1.501,2.40965,2.40965,0,0,1,1.61523-.5918,2.19663,2.19663,0,0,1,1.85156.72754,2.15166,2.15166,0,0,1,.5586,1.86523,13.77828,13.77828,0,0,1-5.80078,9.32618Q85.91,84.975,87.60332,86.31782a1.87386,1.87386,0,0,1,.76562,1.16015,1.911,1.911,0,0,1-.07812,1.38672,2.38747,2.38747,0,0,1-.91016,1.11524,2.45583,2.45583,0,0,1-1.42187.43164q-3.46875,0-7.39649.0459-3.876.04541-7.66015.0459a2.53372,2.53372,0,0,1-1.75391-.70508,2.10831,2.10831,0,0,1-.68359-1.61524A2.25053,2.25053,0,0,1,69.21855,86.54536Z"/><path class="h" d="M93.16191,87.15962a43.88345,43.88345,0,0,1,4.26758-7.00586A31.32554,31.32554,0,0,0,95.94121,74.854a2.03156,2.03156,0,0,1,.23828-2.18359,2.538,2.538,0,0,1,2.08008-1.02344,2.21479,2.21479,0,0,1,2.26562,1.47852,27.11269,27.11269,0,0,1,.877,2.70605,19.79032,19.79032,0,0,1,6.90429-3.91211c.12891-.0293.25586-.06055.38477-.08984a8.21471,8.21471,0,0,1,1.63086-.18262h.33594a7.74889,7.74889,0,0,1,1.16992.09082,4.0436,4.0436,0,0,1,2.7207,1.52344q1.18359,1.63916.46875,4.8457-1.72851,8.00684-1.52148,9.55274a2.30961,2.30961,0,0,1-.68555,1.82031,2.37249,2.37249,0,0,1-1.8125.79492H107.91c0,.03125-.04883.0459-.14453.0459l-.168.0459H103.576a2.18974,2.18974,0,0,1-1.68555-.66016,2.0714,2.0714,0,0,1,.07031-3.252,2.32393,2.32393,0,0,1,1.71484-.751h3.4961a.13743.13743,0,0,0,.0957-.0459h1.26953q.03808-.70312,1.71289-8.39258a3.79776,3.79776,0,0,0,.11524-.93261,6.32891,6.32891,0,0,0-.74219.0459q-6.99317,2.41113-11.97656,12.623a2.38462,2.38462,0,0,1-1.418,1.36524,2.47335,2.47335,0,0,1-1.91406-.0459,2.243,2.243,0,0,1-1.28516-1.36426A2.21913,2.21913,0,0,1,93.16191,87.15962Zm15.32617,2.97949c.03125-.03028.1543-.14356.36524-.34082a2.91537,2.91537,0,0,1-.50977.34082C108.47246,90.07856,108.52129,90.07856,108.48808,90.13911Z"/><path class="h" d="M118.785,86.59126a2.50834,2.50834,0,0,1,1.73828-.752q2.89746-.08935,4.02344-.13574h2.05859a42.36325,42.36325,0,0,1,3.02344-12.57812,2.272,2.272,0,0,1,2.23437-1.47852,2.35979,2.35979,0,0,1,2.08594.97754,2.03011,2.03011,0,0,1,.19141,2.22949q-1.9922,4.61865-2.82617,13.41992a2.16758,2.16758,0,0,1-.8711,1.52442,2.48359,2.48359,0,0,1-1.73828.61328h-.28711q-2.3203-.04395-7.85156.0918a2.27818,2.27818,0,0,1-1.68555-.66016,1.98238,1.98238,0,0,1-.7539-1.56934A2.113,2.113,0,0,1,118.785,86.59126Z"/><path class="h" d="M138.10918,71.6479a2.41162,2.41162,0,0,1,1.8789-.70606,2.22554,2.22554,0,0,1,1.60938.66016,1.9924,1.9924,0,0,1,.709,1.52344l.58985,12.624h2.37695q-.37793-4.708,2.18359-12.44141a2.23781,2.23781,0,0,1,.88672-1.16015,2.619,2.619,0,0,1,3.48633.36328,2.27181,2.27181,0,0,1,.28906,2.16211q-2.40526,7.11914-1.89062,11.03125h3.23047a41.93051,41.93051,0,0,1,3-12.5791,2.25341,2.25341,0,0,1,2.21094-1.47754,2.28978,2.28978,0,0,1,2.08593.97656,2.0263,2.0263,0,0,1,.18946,2.22949,40.6412,40.6412,0,0,0-2.64258,11.60059,2.03111,2.03111,0,0,1,.37695,2.501,2.40742,2.40742,0,0,1-2.32812,1.41016h-7.65821q-3.65917.09228-7.43945.09082h-.19141a2.42442,2.42442,0,0,1-2.04492-.47754,1.84956,1.84956,0,0,1-.89453-1.706l-.7207-14.875A2.22407,2.22407,0,0,1,138.10918,71.6479Z"/><path class="j" d="M63.86113,138.767q-.68555,2.14452-4.375,2.84179a32.67988,32.67988,0,0,1-5.74414.373,4.15609,4.15609,0,0,1-3.52539-1.35156,5.988,5.988,0,0,1-.9707-3.82031,47.866,47.866,0,0,1,.91406-5.96192,22.934,22.934,0,0,0,.46875-3.54q.05274-2.46972.01172-3.86621a31.4355,31.4355,0,0,0-.32617-3.40137q-.28711-2.001-.61328-4.28515a2.91206,2.91206,0,0,1,.168-1.02442.66437.66437,0,0,1,.69141-.373,4.40512,4.40512,0,0,1,1.60156.53613,4.824,4.824,0,0,0,2.08789.53516,26.86027,26.86027,0,0,0,4.166-.60547,14.39074,14.39074,0,0,1,2.49805-.32617,4.20376,4.20376,0,0,1,1.89648.34961,2.5262,2.5262,0,0,1,1.0957,1.32812L54.6248,117.851a2.14,2.14,0,0,0-1.6582,1.23535,5.38784,5.38784,0,0,0-.54492,2.30567q-.01466.74561.23047,3.91308.0996,1.25684.07422,2.46875a1.48345,1.48345,0,0,0,.36523,1.21094,2.14843,2.14843,0,0,0,1.36523.32617,15.89157,15.89157,0,0,0,3.63672-.46582,42.6176,42.6176,0,0,1,6.00586-1.16406q-.44238,2.23535-5.78125,3.25977-5.34081,1.02539-5.58789,2.2832-.24609,1.25683-.4414,2.25976a10.26561,10.26561,0,0,0-.207,1.65235,2.10687,2.10687,0,0,0,.98243,2.14355,6.24926,6.24926,0,0,0,2.58984.37207q.98145,0,5.11133-.60547A22.621,22.621,0,0,1,63.86113,138.767Z"/><path class="j" d="M75.92168,127.26118q-1.72266.27978-2.82813.41992a19.0763,19.0763,0,0,1-2.3789.13867,7.36681,7.36681,0,0,1-3.05469-.46484,2.65345,2.65345,0,0,1-1.31836-1.30469,8.15211,8.15211,0,0,1,2.31641-.62891,21.80513,21.80513,0,0,1,2.748-.16308,10.37094,10.37094,0,0,1,2.73828.28027Q75.79961,126.00435,75.92168,127.26118Zm-.08985,4.09961a3.47553,3.47553,0,0,1-.84375,1.65332,3.03477,3.03477,0,0,1-1.8457.39551h-2.5a12.3887,12.3887,0,0,1-3.1289-.418,2.22914,2.22914,0,0,1,1.166-1.74805,6.529,6.529,0,0,1,2.55664-.39551A20.12332,20.12332,0,0,1,75.83183,131.36079Z"/><path class="j" d="M98.992,137.0434a16.68391,16.68391,0,0,1-.42383,3.72657q-.69139,2.60888-2.21289,2.6084a2.06732,2.06732,0,0,1-1.21679-.37208,1.14866,1.14866,0,0,1-.51758-1.02441,14.12266,14.12266,0,0,1,.60547-3.07519,14.35222,14.35222,0,0,0,.61132-3.26075,11.45839,11.45839,0,0,0-.48632-3.65625,13.44222,13.44222,0,0,0-1.71485-3.4707,12.707,12.707,0,0,0-3.92383,4.6582q-3.21385,5.82423-3.90039,5.82227a.90208.90208,0,0,1-.89257-.60547,3.11556,3.11556,0,0,1-.24024-1.30371A27.21969,27.21969,0,0,1,85.406,132.851a14.6086,14.6086,0,0,0,.40039-2.6084,8.48231,8.48231,0,0,0-.80078-3.81933A15.807,15.807,0,0,0,81.49,132.66547q-.31348.93165-1.668,6.89356a2.21105,2.21105,0,0,1-.86133,1.32715,3.90711,3.90711,0,0,1-1.68359.72265,4.704,4.704,0,0,1-.17383-1.002q-.03808-.53321-.02344-1.23437a17.81556,17.81556,0,0,1,.40625-2.86524q.38086-1.88524.4707-2.49121.085-.605.39063-3.4248.30762-2.81689.61523-5.79883a3.58934,3.58934,0,0,1,1.4961,1.14062q.71777.86426,1.09961,1.28125,1.3623-1.86181,2.21875-2.91113a2.319,2.319,0,0,1,1.68945-1.04785q1.4707,0,2.33594,3.07422.49512,2.09765,1.03711,4.19238,1.86914-2.562,1.96875-2.65527a4.03014,4.03014,0,0,1,2.82812-1.584q2.94141,0,4.36914,4.23926A18.85231,18.85231,0,0,1,98.992,137.0434Z"/><path class="j" d="M117.0584,133.40962a8.40111,8.40111,0,0,1-2.75,5.93945,8.588,8.588,0,0,1-6.207,2.63281,6.85945,6.85945,0,0,1-6.33594-4.00586,14.8707,14.8707,0,0,1-1.69922-7.54687,13.51094,13.51094,0,0,1,2.11523-7.22071,7.44113,7.44113,0,0,1,6.502-3.72656,3.973,3.973,0,0,1,3.53515,2.04883,7.1766,7.1766,0,0,1,1.08789,4.05371,6.13112,6.13112,0,0,1-.33984,2.14355,2.85048,2.85048,0,0,1-1.55273,1.583,14.55166,14.55166,0,0,1-.40039-4.21582q-.07032-3.60937-3.0586-3.61035-1.86329,0-4.36719,4.79785-1.33593,2.74951-1.69531,3.49414a12.82811,12.82811,0,0,1,1.37695,4.37891q1.01075,5.40526,4.93165,5.40332a7.56392,7.56392,0,0,0,5.09179-2.00293Q113.79376,137.13715,117.0584,133.40962Z"/><path class="j" d="M127.73613,122.56587q-.82909,0-1.36719-.01856-2.12988-.0747-2.38281-.07519-.53905,0-1.36914.07519-1.8457.16847-2.32422.169-.95214,0-.94336-.48633,1.92481-2.22363,3.33008-3.998a6.30568,6.30568,0,0,0,1.60547-3.7168c.002-.09961.00391-.17968.00586-.24218a1.92849,1.92849,0,0,0-.14063-.916,1.1542,1.1542,0,0,0-1.10156-.48535,9.828,9.828,0,0,0-3.45312.97168q-.54786.24169-1.83008.82129a1.518,1.518,0,0,1-.19922-.36426.96139.96139,0,0,1-.07227-.36426q.01758-.69141,2.543-1.40136a13.95778,13.95778,0,0,1,3.60547-.63477,1.92262,1.92262,0,0,1,1.82617.80273,2.98811,2.98811,0,0,1,.25391,1.49512,7.10231,7.10231,0,0,1-1.97461,4.61426,12.75015,12.75015,0,0,0-1.90039,2.5957l.63477.01856c.29687,0,.61523-.0127.95507-.03614.8711-.0625,1.42188-.09375,1.65625-.09375a3.55576,3.55576,0,0,1,1.67578.33594A2.687,2.687,0,0,1,127.73613,122.56587Z"/><polygon class="k" points="88.997 159.08 90.225 168.403 85.947 185.1 111.28 175.866 98.278 167.29 94.494 158.277 88.997 159.08"/><line class="k" x1="88.75519" y1="174.13851" x2="101.53373" y2="169.43729"/><line class="k" x1="116.29441" y1="170.88571" x2="126.37007" y2="171.8744"/><line class="k" x1="122.83514" y1="167.18003" x2="120.37467" y2="175.11186"/><path class="k" d="M150.2057,176.14793c.702-5.08926,3.22806-9.31939-.49174-9.6844s-12.27685,3.27331-12.97884,8.36257-3.08163,9.03726.63817,9.40227S149.50372,181.23719,150.2057,176.14793Z"/><ellipse class="k" cx="143.55943" cy="176.23386" rx="3.11562" ry="2.8513" transform="translate(-18.87698 17.23041) rotate(-6.44576)"/><line class="k" x1="150.96266" y1="174.28759" x2="155.28598" y2="172.05074"/><line class="k" x1="151.4711" y1="170.60146" x2="155.79442" y2="168.36461"/><line class="k" x1="139.81596" y1="170.13546" x2="134.72625" y2="168.34686"/><line class="k" x1="137.16203" y1="173.31709" x2="132.07232" y2="171.52849"/><line class="k" x1="135.65323" y1="180.97043" x2="130.77879" y2="183.58128"/><line class="k" x1="135.67991" y1="184.06221" x2="131.45951" y2="186.78052"/><line class="k" x1="140.8855" y1="183.82552" x2="141.3372" y2="188.86461"/><line class="k" x1="143.89107" y1="183.28662" x2="145.93782" y2="186.10646"/><line class="k" x1="146.9336" y1="180.94923" x2="151.18072" y2="184.00193"/><line class="k" x1="149.10973" y1="178.76921" x2="153.15112" y2="179.72332"/><line class="k" x1="149.95702" y1="177.16647" x2="155.45184" y2="175.99307"/><line class="k" x1="151.92822" y1="167.28744" x2="154.8058" y2="164.19554"/><line class="k" x1="149.71396" y1="166.46353" x2="149.31034" y2="161.65635"/><line class="k" x1="144.95668" y1="167.30114" x2="145.32515" y2="162.23564"/><line class="k" x1="142.11699" y1="169.07209" x2="138.80846" y2="165.39341"/><line class="k" x1="136.15262" y1="175.8119" x2="131.09679" y2="175.31578"/><line class="k" x1="136.00037" y1="178.45378" x2="130.54161" y2="179.34074"/><line class="k" x1="137.37329" y1="184.22837" x2="136.21275" y2="189.38718"/><polygon class="l" points="182.966 3.252 357.368 10.679 353.025 217.698 178.624 210.271 182.966 3.252"/><polygon class="b" points="184.896 0.059 359.297 7.486 354.955 214.505 180.553 207.078 184.896 0.059"/><g class="m"><line class="g" x1="350.43641" y1="17.82737" x2="203.16783" y2="11.55619"/><line class="g" x1="350.25102" y1="26.66546" x2="202.98245" y2="20.39428"/><line class="g" x1="350.06564" y1="35.50355" x2="202.79706" y2="29.23237"/><line class="g" x1="349.88026" y1="44.34164" x2="202.61168" y2="38.07046"/><line class="g" x1="349.69487" y1="53.17973" x2="202.4263" y2="46.90855"/><line class="g" x1="349.50949" y1="62.01782" x2="202.24091" y2="55.74664"/><line class="g" x1="349.32411" y1="70.85591" x2="202.05553" y2="64.58473"/><line class="g" x1="349.13872" y1="79.694" x2="201.87015" y2="73.42282"/><line class="g" x1="348.95334" y1="88.53209" x2="201.68476" y2="82.2609"/><line class="g" x1="348.76796" y1="97.37018" x2="201.49938" y2="91.09899"/><line class="g" x1="348.58257" y1="106.20827" x2="201.314" y2="99.93708"/><line class="g" x1="348.39719" y1="115.04636" x2="201.12861" y2="108.77517"/><line class="g" x1="348.2118" y1="123.88445" x2="200.94323" y2="117.61326"/><line class="g" x1="348.02642" y1="132.72254" x2="200.75784" y2="126.45135"/><line class="g" x1="347.84104" y1="141.56063" x2="200.57246" y2="135.28944"/><line class="g" x1="347.65565" y1="150.39872" x2="200.38708" y2="144.12753"/><line class="g" x1="347.47027" y1="159.23681" x2="200.20169" y2="152.96562"/><line class="g" x1="347.28489" y1="168.0749" x2="200.01631" y2="161.80371"/><line class="g" x1="347.0995" y1="176.91298" x2="199.83093" y2="170.6418"/><line class="g" x1="346.91412" y1="185.75107" x2="199.64554" y2="179.47989"/><line class="g" x1="346.72874" y1="194.58916" x2="199.46016" y2="188.31798"/><line class="g" x1="346.54335" y1="203.42725" x2="199.27478" y2="197.15607"/></g><ellipse class="h" cx="196.51552" cy="11.33945" rx="1.28723" ry="1.40656" transform="matrix(0.15444, -0.988, 0.988, 0.15444, 154.96288, 203.74608)"/><path class="i" d="M181.68952,10.64447c.02983-1.42214,3.46054-2.42995,7.66272-2.251s7.58453,1.47688,7.5547,2.899-3.38109-1.358-7.58327-1.53689S181.65969,12.0666,181.68952,10.64447Z"/><ellipse class="h" cx="196.33215" cy="20.08138" rx="1.28723" ry="1.40656" transform="translate(146.17078 210.95677) rotate(-81.11586)"/><path class="i" d="M181.50615,19.38639c.02983-1.42213,3.46055-2.42994,7.66272-2.251s7.58454,1.47688,7.55471,2.899-3.3811-1.358-7.58328-1.53689S181.47632,20.80853,181.50615,19.38639Z"/><ellipse class="h" cx="196.14879" cy="28.82331" rx="1.28723" ry="1.40656" transform="translate(137.37868 218.16746) rotate(-81.11586)"/><path class="i" d="M181.32278,28.12832c.02983-1.42213,3.46055-2.42994,7.66273-2.251s7.58453,1.47687,7.5547,2.899-3.3811-1.358-7.58327-1.53689S181.293,29.55046,181.32278,28.12832Z"/><ellipse class="h" cx="195.96542" cy="37.56524" rx="1.28723" ry="1.40656" transform="translate(128.58659 225.37814) rotate(-81.11586)"/><path class="i" d="M181.13942,36.87025c.02983-1.42214,3.46055-2.42994,7.66272-2.251s7.58453,1.47687,7.5547,2.899-3.38109-1.35795-7.58327-1.53689S181.10959,38.29239,181.13942,36.87025Z"/><ellipse class="h" cx="195.78205" cy="46.30717" rx="1.28723" ry="1.40656" transform="translate(119.79449 232.58883) rotate(-81.11586)"/><path class="i" d="M180.95605,45.61218c.02983-1.42214,3.46055-2.42994,7.66272-2.251s7.58454,1.47687,7.55471,2.899-3.3811-1.358-7.58328-1.53689S180.92622,47.03432,180.95605,45.61218Z"/><ellipse class="h" cx="195.59869" cy="55.0491" rx="1.28723" ry="1.40656" transform="translate(111.00239 239.79952) rotate(-81.11586)"/><path class="i" d="M180.77268,54.35411c.02983-1.42214,3.46055-2.42995,7.66273-2.251s7.58453,1.47687,7.5547,2.899-3.3811-1.35795-7.58327-1.53689S180.74285,55.77625,180.77268,54.35411Z"/><ellipse class="h" cx="195.41532" cy="63.79103" rx="1.28723" ry="1.40656" transform="translate(102.21029 247.0102) rotate(-81.11586)"/><path class="i" d="M180.58932,63.096c.02983-1.42214,3.46055-2.43,7.66272-2.251s7.58453,1.47687,7.5547,2.899-3.38109-1.358-7.58327-1.53689S180.55949,64.51818,180.58932,63.096Z"/><ellipse class="h" cx="195.23195" cy="72.53296" rx="1.28723" ry="1.40656" transform="translate(93.4182 254.22089) rotate(-81.11586)"/><path class="i" d="M180.406,71.838c.02983-1.42214,3.46055-2.43,7.66272-2.251s7.58454,1.47687,7.55471,2.899-3.3811-1.358-7.58328-1.53689S180.37612,73.26011,180.406,71.838Z"/><ellipse class="h" cx="195.04859" cy="81.27489" rx="1.28723" ry="1.40656" transform="translate(84.6261 261.43158) rotate(-81.11586)"/><path class="i" d="M180.22258,80.5799c.02983-1.42214,3.46055-2.42995,7.66273-2.251s7.58453,1.47688,7.5547,2.899-3.3811-1.35795-7.58327-1.53689S180.19275,82.002,180.22258,80.5799Z"/><ellipse class="h" cx="194.86522" cy="90.01682" rx="1.28723" ry="1.40656" transform="translate(75.834 268.64226) rotate(-81.11586)"/><path class="i" d="M180.03922,89.32183c.02983-1.42214,3.46055-2.43,7.66272-2.251s7.58453,1.47688,7.5547,2.899-3.38109-1.358-7.58327-1.53689S180.00939,90.744,180.03922,89.32183Z"/><ellipse class="h" cx="194.68185" cy="98.75874" rx="1.28723" ry="1.40656" transform="translate(67.0419 275.85295) rotate(-81.11586)"/><path class="i" d="M179.85585,98.06376c.02983-1.42214,3.46055-2.43,7.66273-2.251s7.58453,1.47688,7.5547,2.899-3.3811-1.358-7.58328-1.5369S179.826,99.4859,179.85585,98.06376Z"/><ellipse class="h" cx="194.49849" cy="107.50067" rx="1.28723" ry="1.40656" transform="translate(58.24981 283.06364) rotate(-81.11586)"/><path class="i" d="M179.67248,106.80569c.02983-1.42214,3.46055-2.43,7.66273-2.251s7.58453,1.47688,7.5547,2.899-3.3811-1.358-7.58327-1.5369S179.64265,108.22782,179.67248,106.80569Z"/><ellipse class="h" cx="194.31512" cy="116.2426" rx="1.28723" ry="1.40656" transform="translate(49.45771 290.27432) rotate(-81.11586)"/><path class="i" d="M179.48912,115.54762c.02983-1.42214,3.46055-2.42995,7.66272-2.251s7.58453,1.47688,7.5547,2.899-3.38109-1.35794-7.58327-1.53689S179.45929,116.96975,179.48912,115.54762Z"/><ellipse class="h" cx="194.13176" cy="124.98453" rx="1.28723" ry="1.40656" transform="translate(40.66561 297.48501) rotate(-81.11586)"/><path class="i" d="M179.30575,124.28955c.02983-1.42214,3.46055-2.43,7.66273-2.251s7.58453,1.47688,7.5547,2.899-3.3811-1.358-7.58328-1.53689S179.27592,125.71168,179.30575,124.28955Z"/><ellipse class="h" cx="193.94839" cy="133.72646" rx="1.28723" ry="1.40656" transform="translate(31.87352 304.6957) rotate(-81.11586)"/><path class="i" d="M179.12238,133.03147c.02983-1.42213,3.46055-2.42994,7.66273-2.251s7.58453,1.47688,7.5547,2.899-3.3811-1.358-7.58327-1.53689S179.09255,134.45361,179.12238,133.03147Z"/><ellipse class="h" cx="193.76502" cy="142.46839" rx="1.28723" ry="1.40656" transform="translate(23.08142 311.90638) rotate(-81.11586)"/><path class="i" d="M178.939,141.7734c.02983-1.42213,3.46055-2.42994,7.66272-2.251s7.58453,1.47687,7.5547,2.899-3.38109-1.358-7.58327-1.53689S178.90919,143.19554,178.939,141.7734Z"/><ellipse class="h" cx="193.58166" cy="151.21032" rx="1.28723" ry="1.40656" transform="translate(14.28932 319.11707) rotate(-81.11586)"/><path class="i" d="M178.75565,150.51533c.02983-1.42213,3.46055-2.42994,7.66273-2.251s7.58453,1.47687,7.5547,2.899-3.3811-1.358-7.58328-1.53689S178.72582,151.93747,178.75565,150.51533Z"/><ellipse class="h" cx="193.39829" cy="159.95225" rx="1.28723" ry="1.40656" transform="translate(5.49722 326.32776) rotate(-81.11586)"/><path class="i" d="M178.57228,159.25726c.02983-1.42214,3.46055-2.42994,7.66273-2.251s7.58453,1.47687,7.5547,2.899-3.3811-1.35795-7.58327-1.53689S178.54245,160.6794,178.57228,159.25726Z"/><ellipse class="h" cx="193.21492" cy="168.69418" rx="1.28723" ry="1.40656" transform="translate(-3.29487 333.53844) rotate(-81.11586)"/><path class="i" d="M178.38892,167.99919c.02983-1.42214,3.46055-2.42995,7.66272-2.251s7.58453,1.47687,7.5547,2.899-3.38109-1.35795-7.58327-1.53689S178.35909,169.42133,178.38892,167.99919Z"/><ellipse class="h" cx="193.03156" cy="177.43611" rx="1.28723" ry="1.40656" transform="translate(-12.08697 340.74913) rotate(-81.11586)"/><path class="i" d="M178.20555,176.74112c.02983-1.42214,3.46055-2.42995,7.66273-2.251s7.58453,1.47687,7.5547,2.899-3.3811-1.35795-7.58328-1.53689S178.17572,178.16326,178.20555,176.74112Z"/><ellipse class="h" cx="192.84819" cy="186.17804" rx="1.28723" ry="1.40656" transform="translate(-20.87907 347.95982) rotate(-81.11586)"/><path class="i" d="M178.02218,185.48305c.02983-1.42214,3.46055-2.42995,7.66273-2.251s7.58453,1.47687,7.5547,2.899-3.3811-1.35795-7.58327-1.53689S177.99235,186.90519,178.02218,185.48305Z"/><ellipse class="h" cx="192.66482" cy="194.91997" rx="1.28723" ry="1.40656" transform="translate(-29.67117 355.1705) rotate(-81.11586)"/><path class="i" d="M177.83882,194.225c.02983-1.42214,3.46055-2.42995,7.66272-2.251s7.58453,1.47687,7.5547,2.899-3.38109-1.35795-7.58327-1.53689S177.809,195.64712,177.83882,194.225Z"/><rect class="c" x="106.00469" y="203.90958" width="167.01893" height="19.02605" transform="translate(6.08277 -5.25009) rotate(1.61304)"/><g class="n"><line class="o" x1="106.17279" y1="206.27766" x2="130.07954" y2="206.95088"/><line class="p" x1="105.92573" y1="210.96248" x2="150.44385" y2="212.21613"/><line class="q" x1="107.96519" y1="211.12616" x2="131.87195" y2="211.79938"/><line class="r" x1="104.59653" y1="216.74418" x2="128.50329" y2="217.4174"/><line class="s" x1="107.62135" y1="204.37212" x2="145.74771" y2="205.44577"/><line class="t" x1="145.99574" y1="206.57617" x2="184.82353" y2="207.66958"/><line class="u" x1="150.89299" y1="212.72443" x2="189.27866" y2="213.80538"/><line class="v" x1="185.11324" y1="207.67774" x2="224.66931" y2="208.79165"/><line class="w" x1="189.55962" y1="213.81329" x2="230.76606" y2="214.97368"/><line class="x" x1="231.1083" y1="215.17972" x2="269.23465" y2="216.25337"/><line class="y" x1="225.00515" y1="208.40382" x2="263.1315" y2="209.47747"/><line class="z" x1="234.26232" y1="210.70063" x2="273.10258" y2="211.79439"/><line class="aa" x1="165.31766" y1="210.49706" x2="233.75738" y2="212.42435"/><line class="ab" x1="146.07444" y1="203.98438" x2="184.2008" y2="205.05803"/><line class="ac" x1="109.94204" y1="208.61702" x2="165.05662" y2="210.16907"/><line class="ad" x1="105.92573" y1="221.89388" x2="150.44385" y2="223.14752"/><line class="ae" x1="107.62135" y1="215.30352" x2="145.74771" y2="216.37717"/><line class="af" x1="145.99574" y1="217.50757" x2="184.82353" y2="218.60098"/><line class="ag" x1="150.89299" y1="223.65583" x2="189.27866" y2="224.73678"/><line class="ah" x1="185.11324" y1="218.60914" x2="224.66931" y2="219.72305"/><line class="ai" x1="189.55962" y1="224.74469" x2="230.76606" y2="225.90508"/><line class="aj" x1="231.1083" y1="226.11112" x2="269.23465" y2="227.18477"/><line class="ak" x1="225.00515" y1="219.33521" x2="263.1315" y2="220.40887"/><line class="al" x1="234.26232" y1="221.63203" x2="273.10258" y2="222.72579"/><line class="am" x1="165.31766" y1="221.42846" x2="233.75738" y2="223.35574"/><line class="an" x1="146.07444" y1="214.91577" x2="184.2008" y2="215.98943"/><line class="ao" x1="109.94204" y1="219.54842" x2="165.05662" y2="221.10047"/><rect class="ap" x="106.00469" y="203.90958" width="167.01893" height="19.02605" transform="translate(6.08277 -5.25009) rotate(1.61304)"/></g><polygon class="aq" points="273.258 206.264 276.722 208.943 276.722 224.313 272.723 225.283 273.258 206.264"/><path class="ar" d="M224.3399,57.17821a35.27845,35.27845,0,0,0,11.66566-7.98931,9.36239,9.36239,0,0,0-9.0428,6.00715,1.978,1.978,0,0,0-.11868,1.32791c.30455.83169,1.4065.977,2.291.93021a22.42569,22.42569,0,0,0,10.35137-3.179,6.71724,6.71724,0,0,0-3.97269,3.44669l1.01542,1.67777A34.14642,34.14642,0,0,0,250.14249,53.115a3.0581,3.0581,0,0,0-1.619,1.83788.96945.96945,0,0,0,.97765.27483,8.06088,8.06088,0,0,1-6.35325,6.11348c-.34558-.63028.343-1.32288.97318-1.66858,5.64132-3.09446,13.38843-1.91718,17.94087-6.46421a2.56509,2.56509,0,0,0,.85533-1.46546,1.07736,1.07736,0,0,0-.92613-1.22352,8.35,8.35,0,0,1-2.95368,7.65826,7.64416,7.64416,0,0,1,8.42423-.47128"/><path class="ar" d="M274.21369,57.78842a16.56327,16.56327,0,0,0,16.16048-7.12276,32.59572,32.59572,0,0,1-11.56136,10.361L302.511,53.33052l-3.97337,2.07317c-.618.32247-1.34279.8808-1.13186,1.54522a1.41493,1.41493,0,0,0,.79994.73761,20.13837,20.13837,0,0,0,7.42529,1.54939l10.10934.80013"/><path class="ar" d="M229.59677,75.96859c2.61945,1.3847,5.79347,1.084,8.69228.47091a46.85885,46.85885,0,0,0,11.58993-4.102,6.62957,6.62957,0,0,0-7.6425,3.91554,20.64224,20.64224,0,0,0,16.58069-4.17587,4.93177,4.93177,0,0,0-4.034,2.86434,17.62063,17.62063,0,0,0,15.56526-1.7549,1.13447,1.13447,0,0,0-1.38023,1.36922,14.00781,14.00781,0,0,0,6.70981.53808c.33232-.05493.71716-.16637.83038-.48361s-.40783-.67216-.55034-.367a12.5962,12.5962,0,0,1,4.88081.59856"/><path class="ar" d="M233.96744,96.36781l10.47647-4.57739a23.17948,23.17948,0,0,0-7.81459,3.62527,2.925,2.925,0,0,0-1.42675,1.87135,2.05553,2.05553,0,0,0,1.30077,1.95062,5.131,5.131,0,0,0,2.465.27559,22.87065,22.87065,0,0,0,10.481-3.41749l-16.64489,9.994c2.02477-1.78458,4.87662-2.20023,7.55411-2.54008l13.12584-1.666a3.63515,3.63515,0,0,0,2.10459-.73473,1.25879,1.25879,0,0,0-.04072-1.94276"/><path class="ar" d="M258.27392,97.65444a11.83793,11.83793,0,0,0,8.06722-.99514"/><path class="ar" d="M263.23285,94.105a37.05336,37.05336,0,0,1-3.52651,8.38085l.53627-1.07137"/><path class="ar" d="M275.21317,92.497a8.52976,8.52976,0,0,1,7.92144,1.14641c-.74809,2.34059-3.42441,3.36357-5.775,4.07974l-4.911,1.49629c-.84894.25866-1.8858.78417-1.78392,1.66577a20.79392,20.79392,0,0,0,9.08453,1.29121,14.73821,14.73821,0,0,0-4.38009-.41185,37.055,37.055,0,0,0,5.80513-1.67906"/><path class="ar" d="M287.83158,94.428a14.95453,14.95453,0,0,0,4.83058,4.05313,27.98144,27.98144,0,0,0,16.77587,3.47388"/><path class="ar" d="M237.95043,156.15453c3.22624,1.25863,6.99433.09689,9.70466-2.05876s4.57814-5.16933,6.391-8.12a21.00627,21.00627,0,0,0-5.03245,7.29541,48.22885,48.22885,0,0,0,20.93292-9.169,18.771,18.771,0,0,0-6.40933,5.69107,3.294,3.294,0,0,0-.79,2.833c.37618,1.08072,1.65054,1.5235,2.77862,1.71564a18.24349,18.24349,0,0,0,11.21688-1.69655,1.57828,1.57828,0,0,0-2.61281.85995,13.56339,13.56339,0,0,0,11.80127-4.78364c5.37034,4.57444,13.27871,4.00979,20.28551,3.19083,5.05358-.59067,10.19552-1.20478,14.84868-3.26284a17.18879,17.18879,0,0,1,4.40638-1.6367,4.04662,4.04662,0,0,1,4.12409,1.64184"/><path class="as" d="M254.54632,149.06329c-.27849-1.67747-2.24277-3.129-3.69544-2.24509a6.05374,6.05374,0,0,0-1.16574,1.14668c-3.20233,3.42458-8.96225,1.62712-12.83886-1.01s-8.01214-6.07932-12.62494-5.23979c-3.99483.72705-6.65106,4.42593-8.85439,7.8366-.64083.992-1.3072,2.16615-.93873,3.28815a3.54054,3.54054,0,0,0,2.41353,1.93315,13.675,13.675,0,0,0,9.31116-.20016c-2.39259,5.25077-10.61093,5.27336-13.51049,10.26211.98093,1.75293,3.2621,2.40088,5.254,2.141a22.30617,22.30617,0,0,0,5.65662-2.01332c5.04277-2.13654,11.19937-2.8303,15.75951.20275a20.21208,20.21208,0,0,0,3.58681,2.34772,10.68387,10.68387,0,0,0,4.70134.35158c8.71639-.6493,17.51373-1.31314,25.88583-3.82414.84684-.254,1.84278-.711,1.90854-1.5927.06023-.80742-.71575-1.40412-1.42076-1.80226a25.44434,25.44434,0,0,0-5.66242-2.34859c1.35734-1.15888,3.27032-1.31955,4.96494-1.87955s3.45007-1.99958,3.15109-3.75911c-.3023-1.779-2.58614-2.55894-4.32561-2.07877s-3.11238,1.77389-4.61592,2.77173-3.45938,1.7227-5.08212.93335c-.90782-.44158-1.559-1.29312-2.45064-1.76886-1.93985-1.03424-4.42054.10323-6.19019.8454A9.59753,9.59753,0,0,0,254.54632,149.06329Z"/><path class="as" d="M305.366,34.08474a22.52757,22.52757,0,0,0,19.51872-5.9656,11.1417,11.1417,0,0,0-4.15863,3.60514c-.92316,1.6094-.81177,3.97485.73793,4.99506a5.03292,5.03292,0,0,0,2.701.61813,25.74471,25.74471,0,0,0,10.445-2.00011c-2.47415-.66068-5.09655,2.0069-4.56077,4.51107a4.41106,4.41106,0,0,0,6.058,2.76855,15.456,15.456,0,0,0-11.32757,2.56142,50.33808,50.33808,0,0,0,9.49386,7.104,11.93866,11.93866,0,0,0-7.87963-3.31537c-2.19884-.06151-4.71019.75615-5.517,2.80254-1.19656,3.03485,2.07874,6.4756.9379,9.53183a16.9316,16.9316,0,0,0-3.77315-6.96212,6.40806,6.40806,0,0,0-2.31717-1.77624c-2.861-1.12583-5.86219,1.32234-7.58994,3.86548s-3.26472,5.60918-6.17431,6.60261c2.46688-2.18176,5.084-4.624,5.63141-7.87144s-2.35672-7.119-5.5018-6.14227a7.30129,7.30129,0,0,0-2.43078,1.54986c1.79363-.29312,3.89806-1.33458,3.86053-3.15162-.0335-1.62121-1.81545-2.63879-3.4208-2.86754s-3.31968-.02956-4.77888-.7368c1.6171,1.32622,4.23-.46107,4.45266-2.54056s-1.03237-3.99788-2.231-5.71168l-2.31536-3.31043a13.78246,13.78246,0,0,0,8.6125,4.60462,1.51637,1.51637,0,0,0,1.27358-.24664,1.556,1.556,0,0,0,.34691-.92184,35.7167,35.7167,0,0,0,.00572-9.80671,8.31346,8.31346,0,0,0,6.77127,8.0281"/><path class="as" d="M308.41594,49.10788a19.07443,19.07443,0,0,0,11.02134-10.66415,1.04016,1.04016,0,0,0-1.49248-.13069,3.01375,3.01375,0,0,0-.83986,1.44753,7.51,7.51,0,0,0-.572,2.571,2.54832,2.54832,0,0,0,1.18381,2.2304,3.25447,3.25447,0,0,0,1.8656.23285,11.79042,11.79042,0,0,0,5.10529-1.7585,8.24609,8.24609,0,0,1-2.523,1.52956,3.13919,3.13919,0,0,0-1.89346,2.13386,2.50282,2.50282,0,0,0,1.61061,2.42708,7.329,7.329,0,0,0,3.0738.40025,3.15,3.15,0,0,0-2.84295.50421,18.74321,18.74321,0,0,0-3.06415,2.22,5.00343,5.00343,0,0,0-2.03361,3.5511,1.47164,1.47164,0,0,0,.87795,1.45036c1.00728.292,1.69121-1.1321,1.45667-2.15429a3.65038,3.65038,0,0,0-5.70921-2.13275,3.99924,3.99924,0,0,0-4.00419,3.62973,4.60094,4.60094,0,0,0,3.03129-4.14822c-.08339-1.82284-2.17927-3.418-3.81054-2.6003a4.98106,4.98106,0,0,0,2.91609-.7419,11.309,11.309,0,0,0-5.13464-6.37218,6.16233,6.16233,0,0,0,3.67422,3.18147,4.36687,4.36687,0,0,0,4.52888-1.32174c.07669-.0968.18483-.20983.30146-.16922s-.01357.272-.0695.16189"/></svg>