<svg xmlns="http://www.w3.org/2000/svg" xmlns:xlink="http://www.w3.org/1999/xlink" viewBox="0 0 1088.68242 1403.47956"><defs><style>.a{fill:url(#a);}.b{fill:url(#b);}.c{clip-path:url(#d);}.d,.f{fill:none;stroke-miterlimit:10;}.d{stroke:#009fe3;stroke-width:5.94322px;opacity:0.1;}.e{fill:#3c3c3b;}.f{stroke:#1d71b8;stroke-width:3.24662px;}</style><linearGradient id="a" x1="-275.88778" y1="-322.03268" x2="1063.20077" y2="1351.828" gradientUnits="userSpaceOnUse"><stop offset="0" stop-color="#dadada"/><stop offset="1" stop-color="#f6f6f6"/></linearGradient><linearGradient id="b" x1="1267.98739" y1="1628.48234" x2="827.47292" y2="1069.85892" gradientUnits="userSpaceOnUse"><stop offset="0" stop-color="#dadada"/><stop offset="1" stop-color="#c6c6c6"/></linearGradient><clipPath id="d"><rect class="a" width="1068.78731" height="1381.63823"/></clipPath></defs><rect class="b" x="11.40276" y="21.84133" width="1068.78731" height="1381.63823"/><rect class="a" width="1068.78731" height="1381.63823"/><g class="c"><line class="d" x1="52.9247" y1="71.47553" x2="955.43351" y2="71.47553"/><line class="d" x1="52.9247" y1="130.46064" x2="955.43351" y2="130.46064"/><line class="d" x1="52.9247" y1="189.44574" x2="955.43351" y2="189.44574"/><line class="d" x1="52.9247" y1="248.43084" x2="955.43351" y2="248.43084"/><line class="d" x1="52.9247" y1="307.41594" x2="955.43351" y2="307.41594"/><line class="d" x1="52.9247" y1="366.40105" x2="955.43351" y2="366.40105"/><line class="d" x1="52.9247" y1="425.38615" x2="955.43351" y2="425.38615"/><line class="d" x1="52.9247" y1="484.37125" x2="955.43351" y2="484.37125"/><line class="d" x1="52.9247" y1="543.35636" x2="955.43351" y2="543.35636"/><line class="d" x1="52.9247" y1="602.34146" x2="955.43351" y2="602.34146"/><line class="d" x1="52.9247" y1="661.32656" x2="955.43351" y2="661.32656"/><line class="d" x1="52.9247" y1="720.31166" x2="955.43351" y2="720.31166"/><line class="d" x1="52.9247" y1="779.29677" x2="955.43351" y2="779.29677"/><line class="d" x1="52.9247" y1="838.28187" x2="955.43351" y2="838.28187"/><line class="d" x1="52.9247" y1="897.26697" x2="955.43351" y2="897.26697"/><line class="d" x1="52.9247" y1="956.25208" x2="955.43351" y2="956.25208"/><line class="d" x1="52.9247" y1="1015.23718" x2="955.43351" y2="1015.23718"/><line class="d" x1="52.9247" y1="1074.22228" x2="955.43351" y2="1074.22228"/><line class="d" x1="52.9247" y1="1133.20738" x2="955.43351" y2="1133.20738"/><line class="d" x1="52.9247" y1="1192.19249" x2="955.43351" y2="1192.19249"/><line class="d" x1="52.9247" y1="1251.17759" x2="955.43351" y2="1251.17759"/><line class="d" x1="52.9247" y1="1310.16269" x2="955.43351" y2="1310.16269"/></g><circle class="e" cx="996.19245" cy="71.91923" r="8.60156"/><path class="f" d="M1087.05911,71.49483c0-9.4913-20.87634-17.18552-46.62862-17.18552s-46.62862,7.69422-46.62862,17.18552,20.87634-8.09477,46.62862-8.09477S1087.05911,80.98613,1087.05911,71.49483Z"/><circle class="e" cx="996.19245" cy="130.26256" r="8.60156"/><path class="f" d="M1087.05911,129.83816c0-9.4913-20.87634-17.18551-46.62862-17.18551s-46.62862,7.69421-46.62862,17.18551,20.87634-8.09476,46.62862-8.09476S1087.05911,139.32946,1087.05911,129.83816Z"/><circle class="e" cx="996.19245" cy="188.60589" r="8.60156"/><path class="f" d="M1087.05911,188.1815c0-9.4913-20.87634-17.18552-46.62862-17.18552s-46.62862,7.69422-46.62862,17.18552,20.87634-8.09477,46.62862-8.09477S1087.05911,197.6728,1087.05911,188.1815Z"/><circle class="e" cx="996.19245" cy="246.94923" r="8.60156"/><path class="f" d="M1087.05911,246.52483c0-9.4913-20.87634-17.18552-46.62862-17.18552s-46.62862,7.69422-46.62862,17.18552,20.87634-8.09477,46.62862-8.09477S1087.05911,256.01613,1087.05911,246.52483Z"/><circle class="e" cx="996.19245" cy="305.29256" r="8.60156"/><path class="f" d="M1087.05911,304.86816c0-9.4913-20.87634-17.18551-46.62862-17.18551s-46.62862,7.69421-46.62862,17.18551,20.87634-8.09477,46.62862-8.09477S1087.05911,314.35946,1087.05911,304.86816Z"/><circle class="e" cx="996.19245" cy="363.63589" r="8.60156"/><path class="f" d="M1087.05911,363.2115c0-9.4913-20.87634-17.18552-46.62862-17.18552s-46.62862,7.69422-46.62862,17.18552,20.87634-8.09477,46.62862-8.09477S1087.05911,372.7028,1087.05911,363.2115Z"/><circle class="e" cx="996.19245" cy="421.97923" r="8.60156"/><path class="f" d="M1087.05911,421.55483c0-9.4913-20.87634-17.18552-46.62862-17.18552s-46.62862,7.69422-46.62862,17.18552,20.87634-8.09477,46.62862-8.09477S1087.05911,431.04613,1087.05911,421.55483Z"/><circle class="e" cx="996.19245" cy="480.32256" r="8.60156"/><path class="f" d="M1087.05911,479.89816c0-9.4913-20.87634-17.18552-46.62862-17.18552s-46.62862,7.69422-46.62862,17.18552,20.87634-8.09477,46.62862-8.09477S1087.05911,489.38946,1087.05911,479.89816Z"/><circle class="e" cx="996.19245" cy="538.66589" r="8.60156"/><path class="f" d="M1087.05911,538.2415c0-9.4913-20.87634-17.18552-46.62862-17.18552s-46.62862,7.69422-46.62862,17.18552,20.87634-8.09477,46.62862-8.09477S1087.05911,547.7328,1087.05911,538.2415Z"/><circle class="e" cx="996.19245" cy="597.00922" r="8.60156"/><path class="f" d="M1087.05911,596.58483c0-9.4913-20.87634-17.18552-46.62862-17.18552s-46.62862,7.69422-46.62862,17.18552,20.87634-8.09477,46.62862-8.09477S1087.05911,606.07613,1087.05911,596.58483Z"/><circle class="e" cx="996.19245" cy="655.35256" r="8.60156"/><path class="f" d="M1087.05911,654.92816c0-9.4913-20.87634-17.18552-46.62862-17.18552s-46.62862,7.69422-46.62862,17.18552,20.87634-8.09477,46.62862-8.09477S1087.05911,664.41946,1087.05911,654.92816Z"/><circle class="e" cx="996.19245" cy="713.69589" r="8.60156"/><path class="f" d="M1087.05911,713.2715c0-9.4913-20.87634-17.18552-46.62862-17.18552s-46.62862,7.69422-46.62862,17.18552,20.87634-8.09477,46.62862-8.09477S1087.05911,722.76279,1087.05911,713.2715Z"/><circle class="e" cx="996.19245" cy="772.03922" r="8.60156"/><path class="f" d="M1087.05911,771.61483c0-9.4913-20.87634-17.18552-46.62862-17.18552s-46.62862,7.69422-46.62862,17.18552,20.87634-8.09477,46.62862-8.09477S1087.05911,781.10613,1087.05911,771.61483Z"/><circle class="e" cx="996.19245" cy="830.38256" r="8.60156"/><path class="f" d="M1087.05911,829.95816c0-9.4913-20.87634-17.18552-46.62862-17.18552s-46.62862,7.69422-46.62862,17.18552,20.87634-8.09477,46.62862-8.09477S1087.05911,839.44946,1087.05911,829.95816Z"/><circle class="e" cx="996.19245" cy="888.72589" r="8.60156"/><path class="f" d="M1087.05911,888.30149c0-9.4913-20.87634-17.18551-46.62862-17.18551s-46.62862,7.69421-46.62862,17.18551,20.87634-8.09476,46.62862-8.09476S1087.05911,897.79279,1087.05911,888.30149Z"/><circle class="e" cx="996.19245" cy="947.06922" r="8.60156"/><path class="f" d="M1087.05911,946.64483c0-9.4913-20.87634-17.18552-46.62862-17.18552s-46.62862,7.69422-46.62862,17.18552,20.87634-8.09477,46.62862-8.09477S1087.05911,956.13613,1087.05911,946.64483Z"/><circle class="e" cx="996.19245" cy="1005.41256" r="8.60156"/><path class="f" d="M1087.05911,1004.98816c0-9.4913-20.87634-17.18552-46.62862-17.18552s-46.62862,7.69422-46.62862,17.18552,20.87634-8.09477,46.62862-8.09477S1087.05911,1014.47946,1087.05911,1004.98816Z"/><circle class="e" cx="996.19245" cy="1063.75589" r="8.60156"/><path class="f" d="M1087.05911,1063.33149c0-9.4913-20.87634-17.18551-46.62862-17.18551s-46.62862,7.69421-46.62862,17.18551,20.87634-8.09477,46.62862-8.09477S1087.05911,1072.82279,1087.05911,1063.33149Z"/><circle class="e" cx="996.19245" cy="1122.09922" r="8.60156"/><path class="f" d="M1087.05911,1121.67483c0-9.4913-20.87634-17.18552-46.62862-17.18552s-46.62862,7.69422-46.62862,17.18552,20.87634-8.09477,46.62862-8.09477S1087.05911,1131.16613,1087.05911,1121.67483Z"/><circle class="e" cx="996.19245" cy="1180.44255" r="8.60156"/><path class="f" d="M1087.05911,1180.01816c0-9.4913-20.87634-17.18552-46.62862-17.18552s-46.62862,7.69422-46.62862,17.18552,20.87634-8.09477,46.62862-8.09477S1087.05911,1189.50946,1087.05911,1180.01816Z"/><circle class="e" cx="996.19245" cy="1238.78589" r="8.60156"/><path class="f" d="M1087.05911,1238.36149c0-9.4913-20.87634-17.18552-46.62862-17.18552s-46.62862,7.69422-46.62862,17.18552,20.87634-8.09477,46.62862-8.09477S1087.05911,1247.85279,1087.05911,1238.36149Z"/><circle class="e" cx="996.19245" cy="1297.12922" r="8.60156"/><path class="f" d="M1087.05911,1296.70483c0-9.4913-20.87634-17.18552-46.62862-17.18552s-46.62862,7.69422-46.62862,17.18552,20.87634-8.09477,46.62862-8.09477S1087.05911,1306.19613,1087.05911,1296.70483Z"/></svg>