<svg xmlns="http://www.w3.org/2000/svg" xmlns:xlink="http://www.w3.org/1999/xlink" viewBox="0 0 757.95945 664.34153"><defs><style>.a{fill:url(#a);}.ag,.an,.b,.c{stroke:#3c3c3b;stroke-miterlimit:10;}.an,.b,.c{stroke-width:7.54164px;}.aj,.b{fill:url(#b);}.ao,.c{fill:url(#c);}.d{fill:url(#d);}.e{isolation:isolate;}.f{fill:url(#e);}.g{fill:url(#f);}.h{fill:url(#g);}.i{fill:url(#h);}.j{clip-path:url(#j);}.k{fill:url(#k);}.l{fill:url(#l);}.m{fill:url(#m);}.n{fill:url(#n);}.o{fill:url(#o);}.p{fill:url(#p);}.q{fill:url(#q);}.r{fill:url(#r);}.s{fill:url(#s);}.t{fill:url(#t);}.u{fill:url(#u);}.v{fill:url(#v);}.w{fill:url(#w);}.x{fill:url(#x);}.y{fill:url(#y);}.z{fill:url(#z);}.aa{fill:url(#aa);}.ab{fill:url(#ab);}.ac{fill:url(#ac);}.ad{fill:url(#ad);}.ae{fill:url(#ae);}.af{fill:url(#af);}.ag,.an{fill:none;}.ag{stroke-width:18.85409px;}.ah{fill:url(#ag);}.ai{fill:url(#ah);}.ak{clip-path:url(#aj);}.al{fill:url(#ak);}.am{fill:url(#al);}.ap{clip-path:url(#an);}.aq{fill:url(#ao);}.ar{fill:url(#ap);}.as{fill:url(#aq);}.at{fill:url(#ar);}.au{fill:url(#as);}.av{fill:url(#at);}.aw{fill:url(#au);}.ax{mix-blend-mode:soft-light;}.ay{fill:url(#av);}.az{fill:url(#aw);}.ba{fill:url(#ax);}.bb{fill:url(#ay);}.bc{fill:url(#az);}.bd{fill:url(#ba);}.be{clip-path:url(#bc);}.bf{fill:url(#bd);}.bg{fill:url(#be);}.bh{fill:url(#bf);}</style><radialGradient id="a" cx="323.19408" cy="521.35357" r="81.01792" gradientUnits="userSpaceOnUse"><stop offset="0" stop-color="#380005"/><stop offset="1" stop-color="#6d1823"/></radialGradient><linearGradient id="b" x1="283.65796" y1="298.21763" x2="390.23415" y2="415.91481" gradientUnits="userSpaceOnUse"><stop offset="0" stop-color="#f5fbff"/><stop offset="0.70053" stop-color="#d2f0ff"/><stop offset="0.99465" stop-color="#bed8e0"/></linearGradient><linearGradient id="c" x1="91.5743" y1="243.42314" x2="198.15049" y2="361.12032" gradientTransform="translate(456.96958 106.67218) rotate(80.19974)" xlink:href="#b"/><linearGradient id="d" x1="507.79241" y1="401.68781" x2="572.47095" y2="403.21866" gradientUnits="userSpaceOnUse"><stop offset="0" stop-color="#cc9881"/><stop offset="1" stop-color="#e2cec3"/></linearGradient><linearGradient id="e" x1="114.22295" y1="207.93806" x2="223.05406" y2="287.42145" gradientUnits="userSpaceOnUse"><stop offset="0" stop-color="#ededed"/><stop offset="1" stop-color="#ccc9c7"/></linearGradient><linearGradient id="f" x1="272.56487" y1="286.71602" x2="126.96772" y2="232.32954" gradientUnits="userSpaceOnUse"><stop offset="0" stop-color="#d5d2d1"/><stop offset="1" stop-color="#f2f2f2"/></linearGradient><linearGradient id="g" x1="164.23691" y1="629.97772" x2="463.34221" y2="183.62057" gradientUnits="userSpaceOnUse"><stop offset="0" stop-color="#dbaf9c"/><stop offset="1" stop-color="#e2cec3"/></linearGradient><linearGradient id="h" x1="190.62034" y1="487.49663" x2="332.34694" y2="487.49663" gradientUnits="userSpaceOnUse"><stop offset="0" stop-color="#cc7c59"/><stop offset="1" stop-color="#d39b7c"/></linearGradient><clipPath id="j"><path class="a" d="M221.79793,616.27192c26.78229-3.55232,54.08068-20.22873,67.273-44.28746,3.22173-5.87549,4.59188-12.26672,7.786-18.25093,3.74136-7.00939,6.866-14.32874,10.49839-21.39391q11.37962-22.13359,20.51874-45.32654c4.09366-10.39288-6.27217-9.79073-13.88287-12.06734a129.29338,129.29338,0,0,1-25.72147-10.27263c-12.14075-6.71673-18.481-18.41617-30.05792-25.27349a54.54265,54.54265,0,0,0-49.72973-2.57,25.64113,25.64113,0,0,0-9.30607,6.60892c-8.50943,10.34772-2.87136,18.4045-.48788,29.53487,2.331,10.8854,3.37113,22.26642,4.196,33.76487,1.452,20.24009-10.88528,36.2016-24.96877,50.35992-7.22252,7.26089-15.97061,14.97721-15.99845,25.21852-.0157,5.77453,2.90741,11.19369,6.59123,15.64058C181.01854,613.05912,202.35762,618.85043,221.79793,616.27192Z"/></clipPath><linearGradient id="k" x1="191.99175" y1="568.38088" x2="187.83782" y2="555.32566" gradientUnits="userSpaceOnUse"><stop offset="0" stop-color="#bfa088"/><stop offset="0.2478" stop-color="#c3a88f"/><stop offset="0.62189" stop-color="#cfbca4"/><stop offset="1" stop-color="#ded8bf"/></linearGradient><linearGradient id="l" x1="177.53462" y1="586.36132" x2="172.85427" y2="571.65168" xlink:href="#k"/><linearGradient id="m" x1="210.19652" y1="554.73441" x2="205.85701" y2="541.09596" xlink:href="#k"/><linearGradient id="n" x1="230.88511" y1="543.75385" x2="226.56925" y2="530.18969" xlink:href="#k"/><linearGradient id="o" x1="252.05788" y1="537.00963" x2="247.71837" y2="523.37118" xlink:href="#k"/><linearGradient id="p" x1="275.54295" y1="529.53711" x2="271.20344" y2="515.89865" xlink:href="#k"/><linearGradient id="q" x1="299.48154" y1="528.91797" x2="295.14203" y2="515.27952" xlink:href="#k"/><linearGradient id="r" x1="333.548" y1="533.49054" x2="219.86744" y2="593.49787" gradientUnits="userSpaceOnUse"><stop offset="0" stop-color="#981a25"/><stop offset="1" stop-color="#cd4b5c"/></linearGradient><linearGradient id="s" x1="334.50462" y1="572.59349" x2="242.80933" y2="572.09515" xlink:href="#r"/><linearGradient id="t" x1="-2540.47746" y1="1064.31797" x2="-2523.3954" y2="1019.6842" gradientTransform="translate(2102.86755 2575.8123) rotate(68.31447)" gradientUnits="userSpaceOnUse"><stop offset="0" stop-color="#bfa088"/><stop offset="0.19176" stop-color="#c4a790"/><stop offset="0.48131" stop-color="#d2bca4"/><stop offset="0.83105" stop-color="#e8ddc6"/><stop offset="1" stop-color="#f4efd9"/></linearGradient><linearGradient id="u" x1="216.94882" y1="640.00942" x2="234.03088" y2="595.37565" gradientTransform="translate(814.55574 325.81238) rotate(84.57591)" xlink:href="#t"/><linearGradient id="v" x1="266.53627" y1="631.8374" x2="246.59216" y2="588.40696" gradientTransform="translate(83.81203 -28.73461) rotate(7.73695)" xlink:href="#t"/><linearGradient id="w" x1="287.65194" y1="618.74168" x2="269.84564" y2="574.39187" gradientTransform="translate(169.7015 -52.74352) rotate(15.59152)" xlink:href="#t"/><linearGradient id="x" x1="308.91351" y1="603.45993" x2="291.10721" y2="559.11011" gradientTransform="translate(166.37648 -59.02048) rotate(15.59152)" xlink:href="#t"/><linearGradient id="y" x1="-1327.08482" y1="838.74042" x2="-1347.96512" y2="875.69854" gradientTransform="translate(1711.86867 1163.26907) rotate(58.51421)" xlink:href="#t"/><linearGradient id="z" x1="-1705.11532" y1="801.52717" x2="-1725.99561" y2="838.48528" gradientTransform="translate(1906.17613 1506.84386) rotate(58.51421)" xlink:href="#t"/><linearGradient id="aa" x1="-1273.96152" y1="854.09005" x2="-1294.84181" y2="891.04817" gradientTransform="matrix(0.52229, 0.85277, -0.85277, 0.52229, 1752.35851, 1114.02989)" xlink:href="#t"/><linearGradient id="ab" x1="261.55891" y1="435.09793" x2="255.22202" y2="478.90515" gradientTransform="translate(604.39867 62.32985) rotate(70.39949)" xlink:href="#t"/><linearGradient id="ac" x1="232.84328" y1="429.48509" x2="226.50639" y2="473.29231" gradientTransform="translate(675.0865 208.9433) rotate(87.9367)" xlink:href="#t"/><linearGradient id="ad" x1="-52.33991" y1="513.84995" x2="-58.67681" y2="557.65717" gradientTransform="translate(313.28774 -75.74511) rotate(5.79127)" xlink:href="#t"/><linearGradient id="ae" x1="-2715.76607" y1="1042.11042" x2="-2698.68401" y2="997.47665" gradientTransform="matrix(0.44067, 0.89767, -0.89767, 0.44067, 2282.81244, 2576.00406)" xlink:href="#t"/><linearGradient id="af" x1="214.24334" y1="456.25228" x2="211.37515" y2="398.25118" gradientTransform="matrix(1.08509, -0.0072, -0.0072, 1.00061, 12.03405, -1.01843)" xlink:href="#e"/><linearGradient id="ag" x1="-2640.00062" y1="710.07422" x2="-2595.67614" y2="720.50351" gradientTransform="translate(2395.01893 -1325.22984) rotate(-20.85559)" xlink:href="#g"/><linearGradient id="ah" x1="263.98198" y1="281.33547" x2="328.98766" y2="301.19831" gradientUnits="userSpaceOnUse"><stop offset="0" stop-color="#e2cec3"/><stop offset="1" stop-color="#dbaf9c"/></linearGradient><clipPath id="aj"><circle class="b" cx="337.13266" cy="357.27231" r="83.29792"/></clipPath><linearGradient id="ak" x1="388.62575" y1="297.60574" x2="188.71311" y2="440.23174" gradientUnits="userSpaceOnUse"><stop offset="0.00535" stop-color="#bed8e0"/><stop offset="0.29947" stop-color="#d2f0ff"/><stop offset="1" stop-color="#f5fbff"/></linearGradient><linearGradient id="al" x1="405.20274" y1="320.84099" x2="205.2901" y2="463.46698" xlink:href="#ak"/><clipPath id="an"><ellipse class="c" cx="165.14586" cy="324.67173" rx="72.61717" ry="51.2319" transform="translate(-182.8981 432.14399) rotate(-80.19974)"/></clipPath><linearGradient id="ao" x1="205.24589" y1="269.87422" x2="96.13852" y2="367.10814" xlink:href="#b"/><linearGradient id="ap" x1="213.50433" y1="299.0972" x2="105.08545" y2="395.71756" xlink:href="#b"/><linearGradient id="aq" x1="1478.21607" y1="-7454.29368" x2="1459.57805" y2="-7392.16697" gradientTransform="matrix(0.9526, 0.30421, 0.30421, -0.9526, 1138.83668, -7276.29995)" gradientUnits="userSpaceOnUse"><stop offset="0" stop-color="#bfbbbb"/><stop offset="1" stop-color="#969595"/></linearGradient><linearGradient id="ar" x1="754.92837" y1="311.94629" x2="423.92945" y2="338.4262" gradientUnits="userSpaceOnUse"><stop offset="0" stop-color="#d5d2d1"/><stop offset="1" stop-color="#ededed"/></linearGradient><linearGradient id="as" x1="159.38341" y1="586.14021" x2="302.5879" y2="586.14021" xlink:href="#h"/><linearGradient id="at" x1="198.31428" y1="419.484" x2="181.09153" y2="375.27893" gradientUnits="userSpaceOnUse"><stop offset="0" stop-color="#db9b7f"/><stop offset="1" stop-color="#e2cec3"/></linearGradient><linearGradient id="au" x1="215.3926" y1="405.8354" x2="232.11267" y2="405.8354" gradientUnits="userSpaceOnUse"><stop offset="0" stop-color="#380005"/><stop offset="1" stop-color="#cf8768"/></linearGradient><radialGradient id="av" cx="242.34761" cy="313.83674" r="16.85834" gradientTransform="translate(35.05506 155.18588) rotate(15.61584) scale(1 0.30906)" gradientUnits="userSpaceOnUse"><stop offset="0" stop-color="#f6f6f6"/><stop offset="0.9893" stop-opacity="0"/></radialGradient><radialGradient id="aw" cx="203.72141" cy="268.59697" r="10.54834" gradientTransform="translate(191.34283 20.05242) rotate(52.09795) scale(1 0.53209)" xlink:href="#av"/><radialGradient id="ax" cx="253.39379" cy="320.43917" r="5.90218" gradientTransform="matrix(1, 0, 0, 1, 0, 0)" xlink:href="#av"/><radialGradient id="ay" cx="201.30451" cy="264.94299" r="6.94774" gradientTransform="matrix(1, 0, 0, 1, 0, 0)" xlink:href="#av"/><linearGradient id="az" x1="229.13336" y1="437.05263" x2="230.3993" y2="406.35348" xlink:href="#e"/><linearGradient id="ba" x1="342.7638" y1="368.46846" x2="660.51579" y2="310.23503" xlink:href="#ar"/><clipPath id="bc"><path class="d" d="M508.08125,341.45872c14.781-14.747,52.32733-34.893,70.04079-14.27061,4.39691,5.119,6.06466,12.02137,6.89432,18.71827,2.63034,21.23159-7.3624,32.10232-16.48848,49.535-8.61967,16.46529-12.75781,34.83232-21.102,51.42813-8.82367,17.5494-35.53055,44.55788-57.383,38.05429-11.55107-3.43784-12.08288-19.99011-11.67254-30.40738"/></clipPath><linearGradient id="bd" x1="552.1404" y1="397.24972" x2="496.17701" y2="436.23111" gradientUnits="userSpaceOnUse"><stop offset="0" stop-color="#cc9881"/><stop offset="0.99465" stop-color="#bd8b72"/></linearGradient><linearGradient id="be" x1="577.30935" y1="346.35971" x2="457.89555" y2="461.1008" xlink:href="#g"/><radialGradient id="bf" cx="2441.6998" cy="-949.23676" r="37.78384" gradientTransform="matrix(0.01098, 0.99994, -0.37424, 0.00411, 34.62866, -2263.19646)" gradientUnits="userSpaceOnUse"><stop offset="0" stop-color="#ffe8de"/><stop offset="1" stop-color="#e1ccc0"/></radialGradient></defs><g class="e"><path class="f" d="M191.43141,89.95759c-9.02019-9.89-10.46689-7.39773-24.17229-6.56637-12.312.74684-24.77754-.03232-36.64357-3.58447-17.45272-5.22455-33.53211-16.99-40.90352-33.65C76.20776,58.07593,72.19706,79.467,80.46635,95.46857a40.35219,40.35219,0,0,0,15.554,16.083c5.14086,3.0071,15.45428,2.54444,18.34163,6.95472C98.12638,134.0387,70.29671,136.9991,49.958,128.9878c2.983,8.14308,6.85479,16.41374,13.78306,21.62979,4.09519,3.08314,9.00694,4.892,13.95292,6.2387,12.53731,3.41368,26.29439,4.01048,38.22736-1.13163-5.00821,14.36127-17.22591,15.97482-29.77985,19.88583-16.37649,5.10188-37.98031-6.97136-51.55317-15.438-6.7734-4.2252-13.40733-9.52773-16.29431-16.96863,3.26425,8.41332-.73374,20.77462,1.59923,30.18257a79.65506,79.65506,0,0,0,27.2252,42.55743c8.29392,6.69318,19.21341,14.3941,29.5664,17.30773-4.67114,5.68825-12.82565,6.14447-19.67689,6.334-4.37365.121-8.86737.01067-13.17813.52755,8.53892,11.97868,20.64563,24.098,35.82019,26.41885-7.486-1.145-17.28645,2.8094-24.915,3.44062-4.8739.40329-19.11891-.72951-21.37016-6.271a62.35175,62.35175,0,0,0,8.67453,14.96657,19.85946,19.85946,0,0,0,6.15922,5.6442,8.52492,8.52492,0,0,0,8.06382.21057C47.89874,303.01237,13.78625,294.699,0,288.72971c.40537,21.096,14.44775,41.29953,34.07964,49.03222s43.68038,2.53254,58.36359-12.6203a107.78427,107.78427,0,0,1-63.46333,70.224,235.4068,235.4068,0,0,0,75.07859-1.27643c17.71724-3.17853,35.50692-8.624,49.71252-19.67865,25.22537-19.63008,34.66385-52.6997,46.86453-82.24293,11.61861-28.13371,26.86623-54.60135,43.54413-80.00981,8.35283-12.72539,17.94927-24.772,26.01105-37.65737,6.19281-9.89815,14.75969-18.46759,19.81985-29.05678-5.30393-3.95677-10.6796-7.98339-14.70812-13.233-10.28152-13.398-9.93536-31.86847-8.82452-48.72027a64.958,64.958,0,0,0-7.93121,34.67817c-9.05207-4.1418-14.89309-16.48767-21.082-24.042Q225.11,79.04614,213.52411,63.35733,190.91392,32.7393,171.38242,0C155.8342,24.65862,169.40335,70.86415,191.43141,89.95759Z"/><path class="g" d="M214.49394,111.00931c.58605,3.15371,1.92335,5.49471,2.82829,8.46949.33031,1.08584.5193,8.45293.87161,8.69193a33.14447,33.14447,0,0,1-8.9254-8.989A60.318,60.318,0,0,0,216.6526,135.48a51.40929,51.40929,0,0,1-21.34167-25.217,129.00694,129.00694,0,0,0,3.49135,12.6383,98.39067,98.39067,0,0,1-22.01856-18.47408,40.55141,40.55141,0,0,0,7.07583,19.58257l-9.84245-6.01721L181.857,131.4559A92.72979,92.72979,0,0,1,161.23209,101.601a34.05915,34.05915,0,0,0,6.73849,20.04,51.81152,51.81152,0,0,1-21.762-15.92971A39.274,39.274,0,0,0,156.67423,125.885c-3.86941,1.31528-6.24969.65648-9.67382-.974-1.19147-.56736-10.55487-5.2314-10.55487-6.1669A222.85746,222.85746,0,0,1,161.468,146.74827a83.01692,83.01692,0,0,0-25.92175,9.39132,298.91318,298.91318,0,0,0,28.08895,12.44064A318.30556,318.30556,0,0,1,88.15457,191.585a88.00629,88.00629,0,0,0,39.46232,4.31911l-26.49258,13.90064a92.34146,92.34146,0,0,1,18.13392.17366,33.37621,33.37621,0,0,1-14.11108,6.163l20.35583,3.99752a257.91094,257.91094,0,0,1-42.48954,10.76754,72.59764,72.59764,0,0,0,33.759,3.65013,170.20305,170.20305,0,0,1-31.74223,14.67122l32.003.33476a205.435,205.435,0,0,1-28.64839,19.4947l14.97714-.95584-7.11167,6.69162,11.12141-1.9695A130.92722,130.92722,0,0,1,50.53181,300.7877a66.09187,66.09187,0,0,0,36.03636-3.8982,72.72867,72.72867,0,0,1-11.65511,10.63433,60.42754,60.42754,0,0,1,14.54863-2.96589l-7.97838,9.58925a110.85131,110.85131,0,0,0,27.65089-9.32226,118.29113,118.29113,0,0,1-13.47491,45.93816l11.16347-7.1816L92.76647,368.46288l17.39581-6.33994L94.15166,374.08625c18.1121-3.75339,33.07732-16.12551,46.79922-28.529q28.834-26.06355,55.17424-54.72042c6.22312-6.77135,12.42226-13.77491,16.32388-22.10291,8.67752-18.52213,5.46424-42.30211,18.8715-57.74925,5.231-6.02694,12.418-9.9736,18.39015-15.26713,6.70558-5.94364,12.52231-13.35965,17.76532-20.57489a121.37372,121.37372,0,0,1,9.68313-11.70447c1.24024-1.32152,8.10821-9.66736,9.7758-9.317a40.12935,40.12935,0,0,1-20.11259-10.94766c.60092-.19744.75706.98711.1664,1.21339s-1.21726-.19061-1.70652-.59149a59.71536,59.71536,0,0,1-10.194-10.7258l3.67855,9.70747a66.76552,66.76552,0,0,1-15.559-19.79074,42.54577,42.54577,0,0,0,6.03393,19.85587c-3.70151-1.48969-6.81247-2.44765-9.51926-5.22406-2.77332-2.84464-5.09968-6.26084-7.6758-9.29166C226.71816,122.05754,221.08655,115.97663,214.49394,111.00931Z"/><path class="h" d="M184.08582,636.27616a30.26,30.26,0,0,0,8.41543,15.40748c22.784,21.567,59.387,10.79486,85.504,2.5631,4.00038-1.26087,7.98483-2.57166,11.97873-3.85327,42.15125-13.526,81.732-34.50331,117.99931-59.74872A260.50073,260.50073,0,0,0,461.77552,540.541c16.19557-20.17122,26.21562-42.65176,38.888-64.84616,7.92131-13.87334,18.98292-26.71714,22.176-42.77994,7.3876-36.97715,21.65554-72.57883,21.65553-110.89844,0-103.3115-83.7516-187.0621-187.06242-187.0621-103.31269,0-187.06242,83.75065-187.06242,187.0622,0,15.87288,3.4827,31.32841,7.34329,46.63667,1.72885,6.85531,3.06432,9.672.01994,15.80005-3.05724,6.15392-7.19831,10.62095-8.98048,17.61858-2.22142,8.72233-2.13413,17.88625-1.1187,26.82955a132.92593,132.92593,0,0,0,10.24061,38.07654c2.38865,5.4759,6.77652,10.93255,8.54474,16.54036,1.53987,4.8836,1.05219,11.39066,1.58558,16.53846,2.75941,26.63132,13.394,52.3699,13.09059,79.27671-.1538,13.63763-10.26424,24.36765-15.40735,36.49334A34.07979,34.07979,0,0,0,184.08582,636.27616Z"/><path class="i" d="M199.08643,489.27167c-2.671-10.16223-6.21687-20.11467-8.06931-30.45747a13.171,13.171,0,0,1-.08055-5.97269c.99119-3.40765,4.33141-5.53466,7.55529-7.01829,12.75263-5.86878,27.52024-6.4889,41.23572-3.4959,13.78629,3.00845,24.66555,11.024,37.59683,15.635,15.00775,5.35136,30.29335,10.02922,45.41981,15.03711,2.49977.82759,5.1016,1.71735,6.941,3.60159,2.44692,2.50653,3.05956,6.3691,2.43286,9.81546s-2.32273,6.59075-3.9948,9.66878L307.2972,534.423c3.01093-10.5178-.51529-21.91938-6.14031-31.30281-2.67914-4.46924-5.9152-8.733-10.23221-11.65112a47.35445,47.35445,0,0,0-8.567-4.23828c-15.052-6.22164-26.98815-15.66024-43.48835-18.05074-5.187-.75148-10.52125-1.16565-15.63342-.00983s-10.02525,4.07749-12.56039,8.66479c-2.44,4.41523-2.421,9.71144-2.65037,14.75083a123.20243,123.20243,0,0,1-1.43585,13.95629c-.23864,1.48395-1.16446,11.68892-3.84129,9.67169-1.29-.97209-.55748-10.90317-.82148-12.96522A110.11191,110.11191,0,0,0,199.08643,489.27167Z"/><path class="a" d="M221.79793,616.27192c26.78229-3.55232,54.08068-20.22873,67.273-44.28746,3.22173-5.87549,4.59188-12.26672,7.786-18.25093,3.74136-7.00939,6.866-14.32874,10.49839-21.39391q11.37962-22.13359,20.51874-45.32654c4.09366-10.39288-6.27217-9.79073-13.88287-12.06734a129.29338,129.29338,0,0,1-25.72147-10.27263c-12.14075-6.71673-18.481-18.41617-30.05792-25.27349a54.54265,54.54265,0,0,0-49.72973-2.57,25.64113,25.64113,0,0,0-9.30607,6.60892c-8.50943,10.34772-2.87136,18.4045-.48788,29.53487,2.331,10.8854,3.37113,22.26642,4.196,33.76487,1.452,20.24009-10.88528,36.2016-24.96877,50.35992-7.22252,7.26089-15.97061,14.97721-15.99845,25.21852-.0157,5.77453,2.90741,11.19369,6.59123,15.64058C181.01854,613.05912,202.35762,618.85043,221.79793,616.27192Z"/><g class="j"><path class="k" d="M192.84264,551.31012c2.9395-.57508,5.01093,4.26257,5.15183,6.67294a4.38609,4.38609,0,0,1-.28986,1.61955c-.84741,2.55358-2.53876,4.90454-3.89563,7.21008-2.03382,3.45568-4.82042,4.74568-8.53567,5.69037a1.484,1.484,0,0,1-1.50944-.22794,1.58146,1.58146,0,0,1-.28062-.74364c-.80963-4.19921-2.73878-8.50053-.71648-12.63413,1.378-2.81659,4.414-4.07026,6.89184-5.8126a9.94662,9.94662,0,0,1,3.01013-1.7345Q192.75618,551.327,192.84264,551.31012Z"/><path class="l" d="M177.98308,567.508a3.82108,3.82108,0,0,1,2.696,1.61886c1.02277,1.27319,2.4775,3.9,2.57656,5.59475a4.386,4.386,0,0,1-.28987,1.61955c-.8474,2.55358-2.53876,4.90454-3.89563,7.21008a19.51657,19.51657,0,0,1-8.0188,7.12217c-.54213.27964-1.31212.51357-1.6718.02093a1.30217,1.30217,0,0,1-.18481-.6513l-.80513-8.02054a18.53922,18.53922,0,0,1,.07125-6.16219c.8917-3.72272,4.111-5.9549,7.24506-7.74191A4.04243,4.04243,0,0,1,177.98308,567.508Z"/><path class="m" d="M212.96652,537.97872c2.33368.49034,3.03748,4.58663,3.4882,6.53185a4.61761,4.61761,0,0,1,.15631,1.71645,4.38606,4.38606,0,0,1-.61751,1.525c-1.35563,2.324-3.49531,4.27582-5.29833,6.25211-3.38419,3.70933-8.5171,5.80352-10.54578-.32169-1.33858-4.04166-1.46917-6.91447,1.696-10.1383a22.20561,22.20561,0,0,1,8.73747-5.33428A4.72053,4.72053,0,0,1,212.96652,537.97872Z"/><path class="n" d="M235.38214,528.802c2.22523.857,2.26563,5.01294,2.39981,7.00514a4.61771,4.61771,0,0,1-.11989,1.71937,4.386,4.386,0,0,1-.8532,1.40677c-1.70948,2.07764-4.13347,3.66255-6.229,5.32544-3.93328,3.12108-9.33482,4.3684-10.359-2.00217-.26043-1.62-1.19454-4.27041-.64492-5.81569a9.35391,9.35391,0,0,1,.61664-1.96439,3.55,3.55,0,0,1,1.02415-.903,39.78859,39.78859,0,0,1,7.48923-3.5597C230.83406,529.16068,232.9835,527.87836,235.38214,528.802Z"/><path class="o" d="M257.3935,522.27576c2.095,1.139,1.59461,5.265,1.46857,7.25782a4.61761,4.61761,0,0,1-.34248,1.68917,4.386,4.386,0,0,1-1.0289,1.28388c-1.96515,1.83767-4.57467,3.09388-6.86869,4.47012-2.13258,1.27938-5.391,2.62988-7.80145,1.29112-2.62394-1.45736-2.73195-6.3049-2.2899-8.89147.88174-5.15666,10.17032-7.47606,14.513-7.56277A4.72052,4.72052,0,0,1,257.3935,522.27576Z"/><path class="p" d="M283.50665,519.41311c1.61969,1.75015-.17629,5.49839-.93414,7.34574a4.61747,4.61747,0,0,1-.86561,1.49041,4.38582,4.38582,0,0,1-1.386.88655c-2.45032,1.11121-5.32476,1.46515-7.93895,2.03392-2.46994.53732-6.121.77367-7.925-1.41441-1.82328-2.21145-.6793-7.40869,1.36062-9.08014,2.4552-2.01163,5.77935-2.79344,8.88127-3.01473C277.30507,517.47453,281.54861,517.29738,283.50665,519.41311Z"/><path class="q" d="M307.46182,518.8051c1.61971,1.75014-.17628,5.49839-.93413,7.34575a4.61784,4.61784,0,0,1-.86561,1.49041,4.38582,4.38582,0,0,1-1.386.88655c-2.45032,1.11121-5.32476,1.46516-7.93879,2.03388-4.90631,1.06739-10.30443-.19429-8.41532-6.36383a13.957,13.957,0,0,1,1.43746-3.78142c1.2084-1.70947,4.83426-2.78668,6.81466-3.23316a17.876,17.876,0,0,1,9.20981.4312A4.72049,4.72049,0,0,1,307.46182,518.8051Z"/><path class="r" d="M307.84654,558.348c-1.84978,17.57319-2.47475,31.62038-15.36076,44.72392-11.68358,11.8808-27.30506,19.94568-43.54956,23.40386-18.83686,4.01-39.70043-1.44047-53.368-15.009-6.3159-6.27013-11.1111-14.25868-12.6993-23.01555-2.93227-16.16767,5.954-26.8857,18.32236-35.71247a155.93475,155.93475,0,0,1,71.77761-27.77192,104.84426,104.84426,0,0,1,20.3289-.13843,19.28323,19.28323,0,0,1,6.93911,1.46144,20.31919,20.31919,0,0,1,4.48634,3.27594,9.10718,9.10718,0,0,1,2.66455,3.21179c1.54747,3.84794.56237,7.93756.76063,11.92284A87.23376,87.23376,0,0,1,307.84654,558.348Z"/><path class="s" d="M296.51523,527.68879c-26.5188,1.35248-48.82535,17.13235-69.237,32.63814-12.246,9.30271-24.4866,20.142-29.12249,34.80528a17.062,17.062,0,0,0-.95008,7.51406,13.808,13.808,0,0,0,4.31931,7.78638c5.92283,5.67867,14.90311,6.95435,23.04969,5.97431,11.68609-1.40586,22.485-6.734,33.02114-11.981,6.08262-3.02919,12.23052-6.10937,17.6045-10.31527,2.532-1.98165,4.56194-4.70707,7.22-6.46228a57.24255,57.24255,0,0,0,7.00875-4.92614c9.85132-8.7774,17.11814-20.77062,18.8504-33.9739.74829-5.70347.79327-14.39126-3.53243-18.90509C302.96784,527.98667,299.89569,527.51653,296.51523,527.68879Z"/><ellipse class="t" cx="203.24141" cy="608.0489" rx="22.37115" ry="11.46196" transform="translate(-411.7307 789.26656) rotate(-87.9367)"/><ellipse class="u" cx="228.17066" cy="610.68783" rx="22.37115" ry="11.46196" transform="translate(-401.35097 780.11035) rotate(-84.57591)"/><ellipse class="v" cx="254.37591" cy="605.35691" rx="11.46196" ry="22.37115" transform="translate(-79.18065 39.75624) rotate(-7.73695)"/><ellipse class="w" cx="277.47528" cy="593.39486" rx="11.46196" ry="22.37115" transform="translate(-149.28062 96.41459) rotate(-15.59152)"/><ellipse class="x" cx="298.73685" cy="578.11311" rx="11.46196" ry="22.37115" transform="translate(-144.39086 101.56688) rotate(-15.59152)"/><ellipse class="y" cx="282.2291" cy="470.38494" rx="22.37115" ry="11.46196" transform="translate(-255.5757 578.46481) rotate(-70.39949)"/><ellipse class="z" cx="310.83045" cy="472.15076" rx="22.37115" ry="11.46196" transform="translate(-222.06636 660.73203) rotate(-76.12977)"/><ellipse class="aa" cx="337.37485" cy="474.46462" rx="22.37115" ry="11.46196" transform="translate(-222.77242 633.12621) rotate(-70.39949)"/><ellipse class="ab" cx="258.01981" cy="459.56385" rx="22.37115" ry="11.46196" transform="translate(-261.46968 548.46729) rotate(-70.39949)"/><ellipse class="ac" cx="229.24003" cy="454.39456" rx="22.37115" ry="11.46196" transform="translate(-233.11341 667.12609) rotate(-87.9367)"/><ellipse class="ad" cx="202.37338" cy="458.19693" rx="11.46196" ry="22.37115" transform="translate(-59.8426 31.41573) rotate(-7.73695)"/><ellipse class="ae" cx="179.28776" cy="594.74722" rx="22.37115" ry="11.46196" transform="translate(-429.74389 717.01253) rotate(-84.57591)"/></g><path class="af" d="M263.47291,415.05571l-4.28071-1.35086,1.2666,2.1491a40.7978,40.7978,0,0,1-8.88724-2.96851,6.217,6.217,0,0,1,.89583,2.55247,28.91009,28.91009,0,0,0-4.79223-2.32525c-1.23165-.3183-2.23687.00461-3.53577-.13359-1.12923-.1203-1.2148-1.21936-2.56269-.5069a35.23,35.23,0,0,1-6.57655,2.66291,11.88663,11.88663,0,0,0,2.14231-3.104l-7.78862,2.72617,1.64509-2.32027a32.14763,32.14763,0,0,1-11.35362,3.67707,4.24578,4.24578,0,0,0,1.51693-2.10308c-6.23855.69251-12.77654,1.97341-19.05783,1.81108-3.64654-.09423-7.70025-.80942-11.086.91168-2.98316,1.54445-5.80987,6.41781-7.70832,8.9782-2.84734,3.84012-7.38,5.79776-12.24578,6.7362a19.53464,19.53464,0,0,1,1.957.8614,7.139,7.139,0,0,0,2.70617.06553c-4.92527,4.80191-10.39467,9.45588-17.279,11.7414a5.57078,5.57078,0,0,0-2.40757,1.23086,12.16163,12.16163,0,0,0,6.75588,1.26805c-1.457.14686-2.00434,2.32281-2.75115,3.20235a8.12678,8.12678,0,0,1-4.52182,2.6025,5.05018,5.05018,0,0,0,3.08638.57952c-.556.81548-4.06447,7.71832-4.91838,7.329a10.135,10.135,0,0,0,4.74835.78889,6.71938,6.71938,0,0,1-.54274,2.76267,16.11184,16.11184,0,0,0,8.74769-1.40957c-.2948.92541-1.69154,2.71614-2.88546,2.83037,2.37458-.2272,4.33168-1.13675,6.57759-1.741a14.27535,14.27535,0,0,1-2.38309,2.27258c1.95825-.65522,3.69487-1.687,5.59619-2.41726a51.63363,51.63363,0,0,1,5.40337-1.3954,12.2028,12.2028,0,0,1-4.39242,2.88822,8.17218,8.17218,0,0,0,4.51853-.53362,31.30846,31.30846,0,0,0,6.48823-3.098,4.03032,4.03032,0,0,1-1.81045,2.32369,25.00885,25.00885,0,0,0,9.46216-4.55561,1.63006,1.63006,0,0,1-.67158,1.28994,17.858,17.858,0,0,1,2.93263-1.1004,26.02491,26.02491,0,0,0,3.004-1.57656,12.61516,12.61516,0,0,1,6.75371-2.06125,6.92606,6.92606,0,0,1-1.93905,2.13274c.80053-.57888,2.69118-.75419,3.67574-1.079q1.96852-.64953,3.88087-1.43723c3.33451-1.37362,7.94249-2.66741,11.58876-2.23885a7.4664,7.4664,0,0,1-2.36971,2.14182,35.12048,35.12048,0,0,0,7.28934-1.58552,24.0134,24.0134,0,0,1,2.31128-.83438c3.758-.9787,7.2644-.01573,10.92917.53683a8.78115,8.78115,0,0,1,1.2364.24738,12.98779,12.98779,0,0,1,1.31777.53507,12.58685,12.58685,0,0,0,3.5029.92065,13.83927,13.83927,0,0,1-1.35781-1.97047c1.37683.1456,3.62338-.13457,4.86715.36885,1.29624.52467,2.49049,2.08784,3.72875,2.83633a6.09857,6.09857,0,0,1-.63991-2.542,11.06144,11.06144,0,0,1,4.4153.96432,8.30617,8.30617,0,0,1,2.27867.97527,13.32276,13.32276,0,0,0,3.51791,2.3668,2.672,2.672,0,0,0,1.54522.19389,3.25445,3.25445,0,0,1-.98023-2.221c-.01355-.09671.005-.23228.11066-.24053a.202.202,0,0,1,.1351.06c1.11415.89569,2.47139,1.456,3.62665,2.3423a33.59754,33.59754,0,0,0,5.74771,3.55,4.83707,4.83707,0,0,0,2.19225.63174q-1.068-1.25769-2.136-2.51538c2.37348.31825,4.38356,2.31033,5.997,3.78809.85183.78018,1.66971,1.5964,2.601,2.29894.45769.34525,3.09206,1.47831,3.19929,1.80133a12.28352,12.28352,0,0,0-1.49279-3.01933c1.3239,1.95256,4.53,1.8027,6.317,3.23825a29.16658,29.16658,0,0,1,2.00118,2.33939,17.63109,17.63109,0,0,0,5.59779,3.76817,4.5952,4.5952,0,0,1-1.153-2.46108c1.33127,1.38607,3.80713,1.74708,5.58205,2.54513a77.45878,77.45878,0,0,1,10.27018,5.18077c.67448.43456,3.25795.7967,3.56536,1.16825-.71991-.87013-1.80236-2.35623-1.62743-3.46606,1.98991-.294,4.10527,1.24314,6.34662.90051a7.763,7.763,0,0,0,2.71459-.95946c.246-.14305,2.02422-1.76077,2.03155-1.75917-.57437-.12524-1.20224-.05815-1.79031-.13739a5.21005,5.21005,0,0,1-4.14619-2.93573,2.86821,2.86821,0,0,0-.26373-.701,2.89907,2.89907,0,0,0,2.01673.87122,5.8991,5.8991,0,0,0,2.76356-.30207,12.03174,12.03174,0,0,0,3.48719-2.09909,5.327,5.327,0,0,0,2.02747-2.51464,18.10966,18.10966,0,0,1-5.69337-.58306,9.85319,9.85319,0,0,1-4.625-2.86484,8.43561,8.43561,0,0,1-1.16349-2.24891c-.0762-.17013-.48438-1.42645-.69471-1.461a6.34855,6.34855,0,0,0,5.53512-1.8393c-3.62089-1.22662-6.34138-3.95559-8.91724-6.59213-3.88973-3.98136-7.5713-7.95317-11.16109-12.18209a96.30729,96.30729,0,0,0-19.28841-17.76523c-5.36464-3.61912-11.3924-6.24635-17.36033-8.91154l1.02363,2.46621Z"/><path class="ag" d="M195.33213,327.19881c5.76643-3.64938,11.5917-7.32789,18.01431-9.63432,7.97062-2.86233,21.60481-3.91471,29.475.04975,9.49021,4.78054,15.24273,14.73,24.19314,20.33631"/><path class="ah" d="M219.92878,300.45026a54.46477,54.46477,0,0,0,3.60472-51.72463c-2.11684-4.53227-5.52948-3.57527-11.27955-4.75661-13.292,2.5066-23.49127,14.2547-25.24821,27.34008a32.93234,32.93234,0,0,0,12.00907,29.82082C204.16636,303.8066,216.19674,306.19523,219.92878,300.45026Z"/><path class="ai" d="M259.11955,310.14648c-4.64364-12.55339,6.105-31.275,12.00228-40.85195,5.49373-8.9215,17.30748-10.62459,27.7117-11.86a28.06356,28.06356,0,0,1,10.69032.48608c4.48694,1.22632,8.36355,4.01605,12.0518,6.85035,3.77714,2.90261,7.51668,5.95389,10.35525,9.77939s4.72739,8.54509,4.335,13.29251c-.34382,4.16034-2.38362,7.99349-4.75392,11.42981a58.01545,58.01545,0,0,1-18.1384,16.9207A51.74524,51.74524,0,0,1,281.407,323.1541c-6.09875-.71229-13.20481-2.57936-17.93162-6.70927A15.292,15.292,0,0,1,259.11955,310.14648Z"/><circle class="aj" cx="337.13266" cy="357.27231" r="83.29792"/><g class="ak"><polygon class="al" points="396.179 276.484 257.986 379.56 262.444 403.361 403.729 289.72 396.179 276.484"/><polygon class="am" points="406.641 308.18 268.448 411.256 269.095 429.58 410.379 315.94 406.641 308.18"/></g><circle class="an" cx="337.13266" cy="357.27231" r="83.29792"/><ellipse class="ao" cx="165.14586" cy="324.67173" rx="72.61717" ry="51.2319" transform="translate(-182.8981 432.14399) rotate(-80.19974)"/><g class="ap"><polygon class="aq" points="201.192 265.326 113.274 337.951 117.732 361.751 208.742 278.562 201.192 265.326"/><polygon class="ar" points="211.655 297.022 123.736 369.646 124.383 387.97 215.393 304.781 211.655 297.022"/></g><ellipse class="an" cx="165.14586" cy="324.67173" rx="72.61717" ry="51.2319" transform="translate(-182.8981 432.14399) rotate(-80.19974)"/><path class="as" d="M393.31988,226.11444a8.44117,8.44117,0,0,1,6.8095-2.51376,18.59478,18.59478,0,0,0-12.84264-.65263l2.57356-2.95125c-5.4445,1.016-8.95438,4.90287-14.20114,6.09474-14.06251,3.19449-28.27951,5.66043-42.53087,7.84134-7.161,1.09586-14.333,2.11876-21.50769,3.12079-2.43738.34041-6.06453,1.81739-8.45857,1.58979-1.993-.18947-3.01154-2.99012-3.83877-2.534-.51589.28712-.86561.81118-1.376,1.108s-1.35056.19744-1.46193-.38237l-4.24423,1.45346a2.77464,2.77464,0,0,1-1.57449.21358c-.87366-.22973-1.47084-1.28842-2.36968-1.19824-.74271.07452-1.28464.94033-2.026.85324-1.13112-.13287-1.52009-2.31317-2.57542-1.88494a3.77136,3.77136,0,0,0-.5855,2.81893c-8.92777,2.0059-16.87442,6.089-26.37725,4.83252-1.555-.20561-9.68673-1.76864-9.81092-3.43006l.07042.94208-3.36062-1.78836c.32457-.00591.33561.55885.04286.69913a1.0765,1.0765,0,0,1-.92457-.15535,32.84056,32.84056,0,0,1-9.30548-7.18856l.19022,1.44855a25.48413,25.48413,0,0,1-8.03428-4.45044l.14622,1.87595a15.08215,15.08215,0,0,1-5.61873-2.33223,15.73025,15.73025,0,0,1,.59911,2.385c-2.59837-.26479-5.12745-3.22528-7.51724-4.3762-4.552-2.19225-10.059-3.99749-13.72048-7.32127-2.0214-1.83495-3.44429-4.2084-5.64875-5.95545-1.31255-1.04021-4.5142-2.13533-5.39593-3.38916A31.36134,31.36134,0,0,1,191.887,217.226c-4.70037-.69671-10.22509-4.86211-14.57721-6.96217-3.99633-1.92837-7.44988-4.94456-12.01487-5.56639a6.49294,6.49294,0,0,1,1.08793,3.41822,14.42387,14.42387,0,0,0-9.06645,2.92567c5.02944,2.0348-4.35727,9.77069-5.554,13.06956a24.44013,24.44013,0,0,0,.33621,17.34948,19.72407,19.72407,0,0,1,1.59538-7.3375c.62521-1.45356,2.35561-3.02936,3.5242-1.96254a8.84122,8.84122,0,0,0,1.29342,9.57757,6.44933,6.44933,0,0,1,1.17531-3.17748,2.22135,2.22135,0,0,1,3.03718-.45159,18.7366,18.7366,0,0,0-.47685,3.22749c10.52106-4.58022,25.27483,6.553,34.07267,11.34367A2.3915,2.3915,0,0,0,193,255.33033a5.52444,5.52444,0,0,1,6.11716.81736,3.06023,3.06023,0,0,0-.87823,3.45058,6.4622,6.4622,0,0,1,6.11179-1.868q-.10685.6079-.21346,1.21574c4.79708-1.55363,10.6168,2.82974,14.69552,4.7967a112.55483,112.55483,0,0,0,21.60581,7.92366c3.98547.99333,7.95652,1.01587,11.81678,1.56581,2.84317.405,6.123,3.26637,9.04036,2.57875.74-.1745,1.40869-.58134,2.1474-.76116a1.86724,1.86724,0,0,1,2.047.59285c.43913.71383.06389,1.72.50653,2.43171,2.15486-2.41548,5.65349-2.98233,8.863-3.40261a3.27451,3.27451,0,0,0,.64088,1.6331l3.86867-2.96833-.4316,2.417c2.19494-6.46224,10.90892-5.33684,16.57831-6.24671,2.46124-.395,22.16642-2.015,22.68562-3.6408,1.097-3.43529,14.61519.28158,16.40924,1.01768a2.49944,2.49944,0,0,0-2.04924-2.243,46.54644,46.54644,0,0,1,7.49047.67106,2.65642,2.65642,0,0,0-2.199-1.51872,29.93031,29.93031,0,0,1,6.74573.72717,4.23972,4.23972,0,0,0-.85266-2.44857c.38332-1.20033,9.64048-1.85244,10.79226-2.03728,9.09781-1.4601,19.1013-4.416,28.2871-4.69329,6.04388-.18248,12.86976,2.44909,18.11349,5.23691a8.76641,8.76641,0,0,0-2.14871-7.64909,13.06023,13.06023,0,0,1,8.39453,1.89441,14.35847,14.35847,0,0,0-3.90531-7.38517l6.18016,1.91454c-1.27791-.39588-4.75176-6.063-6.24332-7.2554a19.29983,19.29983,0,0,0,4.92269.432c.10491-.00687-6.35057-9.46523-6.9548-10.222C398.8,229.32082,397.31435,226.91346,393.31988,226.11444Z"/><path class="at" d="M702.51659,447.89452a47.83026,47.83026,0,0,1-24.194-6.50575c13.72189-.11407,31.1846-.84184,44.28535-4.80614a64.49856,64.49856,0,0,0,21.97342-11.61774c1.56563-1.27536,13.36694-15.29139,13.37809-15.28924-19.12561-3.68048-56.13763-7.66069-64.426-28.44548A46.05284,46.05284,0,0,0,726.599,351.47525a70.82189,70.82189,0,0,1-45.52367,7.84241c11.80692,1.96236,27.43657-27.87378,30.30887-36.64127,6.1694-18.83167,13.69493-37.37832,13.82267-57.56157-.0089,1.40655-6.26086,5.90709-7.41162,6.98232q-4.0362,3.77132-8.13093,7.47939-8.20176,7.38709-16.85742,14.21339c-9.7969,7.73366-19.99555,13.94577-32.52665,16.31184,5.38092-2.69172,10.817-5.4192,15.42763-9.28465a77.20278,77.20278,0,0,0,5.64656-5.42489c3.15214-3.24044,6.40715-6.64921,7.75672-10.96373-13.25665,7.74056-28.41686,13.7671-43.643,11.81287,9.87529-2.9579,18.82117-10.69972,26.51187-17.42664a104.99755,104.99755,0,0,0,20.69436-24.2055c8.74486-14.34678,13.38657-30.9196,15.29316-47.61255-20.63916,15.36728-49.65494,18.638-73.19678,8.25074a87.77223,87.77223,0,0,0,54.32519-51.8964,90.2663,90.2663,0,0,1-66.34928-8.48342,800.0848,800.0848,0,0,0,83.793-26.02748,235.98929,235.98929,0,0,0-80.26844-1.10236c-10.066,1.58941-20.69709,2.6924-30.63107,4.77434-4.44951.93252-24.6328,6.53333-26.11788,10.17707l7.0285-17.24493c-4.13888,4.93746-9.35112,8.84009-14.51292,12.69556C547.08868,149.30568,533.46007,161.051,516.0691,167.897c0,.45963-12.35039,6.31022-14.136,7.82823-5.82418,4.95129-12.752,11.51625-16.11509,18.42-4.60659,9.45641-9.36427,18.81088-14.57654,27.95148a14.46565,14.46565,0,0,0,3.01275-.92473c-3.61527,2.86719-7.58129,5.16546-11.25255,8.03426-.69981.54685-7.74823,7.15549-8.27912,6.91211,6.4839,2.97243,15.20862,1.58282,19.104,8.96654A85.41872,85.41872,0,0,0,463.53535,255.4c3.11955-.30468,6.47318-.19448,9.0894,1.53175s4.046,5.53957,2.2818,8.13031l4.18131,2.67759-4.57161,6.28446a5.1495,5.1495,0,0,1,3.55382,1.94806l-5.05427,9.96488c.99665-1.965,4.11516,3.45611,4.37565,4.13926,1.46343,3.83791-.81451,5.47505-5.08409,6.20088.83444-.142,7.12347,2.39527,8.22576,2.71546-.43074,2.91007-4.14551,3.92876-5.9054,6.28605a1.65228,1.65228,0,0,0-.38645,1.5617,1.92984,1.92984,0,0,0,1.06567.8542l6.6394,3.05819-8.29276,7.2088a21.61591,21.61591,0,0,1,6.01861,2.906l-4.52779,5.30991a8.53891,8.53891,0,0,1,3.32716,1.83209q-3.01184,3.03148-6.02364,6.063a5.33779,5.33779,0,0,1,3.45835.54959,26.34546,26.34546,0,0,1-4.32007,3.98685c3.54856-2.87754,11.441-.21681,13.79668-2.76181a5.86079,5.86079,0,0,0-1.50063,3.69621,12.29,12.29,0,0,1,4.5614-3.068,2.49656,2.49656,0,0,0-.05524,2.58011l8.33694-6.69683a21.11227,21.11227,0,0,1-1.65927,3.95753l11.15231-9.04086-1.8814,4.4319c3.70819-3.93325,7.57782-9.47254,12.32959-12.14234,3.82428-2.14868,7.7686-3.39917,11.5013-5.99656l-4.2924,5.07024c2.86046-3.37881,12.49734-6.54642,16.63988-7.79547,4.22175,19.60812-10.97953,47.0516-18.10025,64.47919-9.72706,23.80652-20.38937,47.25535-28.76582,71.59225-2.402,6.97875-4.6336,14.13694-4.84608,21.51458-.13014,4.51936.73882,20.18027,8.07768,14.4339,2.55281,5.15377,6.835,7.55617,10.97369,11.39987,5.247,4.873,10.55031,9.12924,17.21261,11.9517,12.86184,5.44886,28.62268,5.70364,40.06862-2.30406a51.33619,51.33619,0,0,1-9.26041-28.68759c9.68205,11.90556,19.54731,23.9812,32.18544,32.68488a80.78387,80.78387,0,0,0,111.61659-19.66722c-24.8224.58873-49.42294-13.73044-61.16992-35.60482C657.67737,465.42109,685.4402,463.36468,702.51659,447.89452Z"/><path class="au" d="M184.24789,550.82726c-12.28093,8.232-24.86448,20.87-24.86448,36.66137.02827,6.63062,1.54433,14.42491,4.94725,20.17319,4.05669,6.85252,11.08753,10.83793,18.23127,13.78918,3.66858,1.51559,7.41849,2.75438,10.90515,3.89819a77.88973,77.88973,0,0,0,22.07584,3.91588c19.43862.52691,36.31387-9.01794,49.64233-22.51139q1.50641-1.525,2.94722-3.14219A149.98085,149.98085,0,0,0,283.0366,583.323c3.771-6.03386,7.52378-12.15484,10.94421-18.35131,3.69893-6.701,5.83528-14.83636,8.60709-21.97712-2.84666,5.70194-6.70727,10.8577-9.60119,16.455a100.73542,100.73542,0,0,1-9.315,15.09138c-7.10417,9.32991-15.35063,17.91956-25.0746,24.54234-7.3872,5.03124-15.54042,9.46913-24.47555,10.86638-7.28686,1.13951-14.2033-1.12743-21.26046-2.46162-7.33774-1.38723-15.0239-1.08707-22.12411-3.61572-8.53492-3.03961-16.0033-9.44943-22.81034-15.25818-3.82418-3.26335-4.28537-8.28275-3.26629-13.18939,1.06614-5.13321,5.12286-8.71122,8.52532-12.374,1.40967-1.51783,2.63388-3.19229,3.91014-4.82034a42.18572,42.18572,0,0,1,3.47541-3.81906c.636-.63166,1.28134-1.25373,1.92358-1.879A13.49967,13.49967,0,0,1,184.24789,550.82726Z"/><path class="av" d="M236.30947,409.06325c3.30205-1.33133,6.10272-3.7122,6.89932-7.20184a39.51108,39.51108,0,0,0,.50869-11.98262,74.94022,74.94022,0,0,0-6.94775-26.11513c-3.457-7.16118-9.93668-17.68243-19.37948-15.60606-7.18966,1.581-12.13046,9.56538-16.92326,14.56025A158.0691,158.0691,0,0,1,181.83493,379.61q-1.15925.87522-2.33925,1.7186c-8.706,6.21884-18.37655,10.26856-27.54672,15.64317-6.76534,3.96523-22.3274,12.0132-13.55894,21.47542,8.25817,8.91132,24.45818,10.392,35.76281,9.28409,14.31924-1.4034,27.72549-8.00936,39.27278-16.59311a15.06827,15.06827,0,0,1,2.23955-1.7832,9.3185,9.3185,0,0,1,2.97362-.29548q1.64073-.082,3.28434-.02026c2.27244.08493,4.387,1.10508,6.65408,1.2672A17.87668,17.87668,0,0,0,236.30947,409.06325Z"/><path class="aw" d="M230.49128,405.75738a24.92828,24.92828,0,0,1-6.15969,2.32535,58.75068,58.75068,0,0,1-6.73483.95222q-.1386.01578-.27715.032a10.18716,10.18716,0,0,0-1.01161.149c-.22253.049-.76308.12261-.9154.3049a11.46859,11.46859,0,0,1,2.65168-2.26149c3.53755-2.23966,6.52969-4.84472,10.91379-5.09512a3.62386,3.62386,0,0,1,2.62361.62274,1.50985,1.50985,0,0,1,.50394.8037C232.28543,404.53474,231.34073,405.29951,230.49128,405.75738Z"/><g class="ax"><path class="ay" d="M252.78022,322.27085a1.89151,1.89151,0,0,1-1.30358-.52107,31.0557,31.0557,0,0,0-18.902-8.37755,1.88482,1.88482,0,1,1,.2725-3.75977,34.43058,34.43058,0,0,1,21.23663,9.40863,1.88721,1.88721,0,0,1-1.30359,3.24976Z"/></g><g class="ax"><path class="az" d="M206.24892,273.75286a1.88645,1.88645,0,0,1-1.56136-.82671,65.46333,65.46333,0,0,0-4.91237-6.35773,1.88536,1.88536,0,1,1,2.83547-2.48565,68.96258,68.96258,0,0,1,5.19961,6.726,1.88559,1.88559,0,0,1-1.56135,2.94411Z"/></g><path class="ba" d="M252.78022,321.77372a1.87519,1.87519,0,0,1-1.24834-.4732,19.16332,19.16332,0,0,0-1.90014-1.4785,1.88389,1.88389,0,1,1,2.11372-3.119,22.39664,22.39664,0,0,1,2.28311,1.77309,1.88453,1.88453,0,0,1-1.24835,3.29763Z"/><path class="bb" d="M202.55543,268.51275a1.88267,1.88267,0,0,1-1.2999-.51922l-1.624-1.554a1.88567,1.88567,0,0,1,2.60717-2.725l1.61659,1.54662a1.88543,1.88543,0,0,1-1.2999,3.2516Z"/><path class="bc" d="M187.09162,447.27885,201.656,432.19756l-4.12477,7.62584,6.80386-7.41186-2.5612,12.15139A80.07417,80.07417,0,0,1,215.539,424.99529a36.668,36.668,0,0,0-4.82187,13.39948,37.446,37.446,0,0,1,10.25969-11.73587,113.02439,113.02439,0,0,1-2.97337,13.92812l7.86929-9.55814.85242,9.59805,4.28817-8.21464,4.35461,9.42629a13.68,13.68,0,0,1,2.2781-8.64764,54.89362,54.89362,0,0,1,5.40969,11.59545,15.03877,15.03877,0,0,1,3.91639-11.50249,27.2096,27.2096,0,0,0,7.55236,13.29764,16.27848,16.27848,0,0,0-.49868-13.27065,18.83694,18.83694,0,0,0,8.766,13.71566,64.83427,64.83427,0,0,0-4.03784-14.84157,43.26883,43.26883,0,0,0,10.605,13.43913c-1.99315-3.75965-4.06262-7.45654-5.77545-11.34751l1.40121,1.35838c.12172.118.32466.23674.43914.11169.154-.16824-.14193-.37807-.3671-.41448a25.58661,25.58661,0,0,0,3.42245,2.847l-2.77608-6.03121a31.54736,31.54736,0,0,0,3.45221,5.44646,10.58608,10.58608,0,0,0,5.26212,3.56913,16.0946,16.0946,0,0,0-3.81557-4.43123,24.37521,24.37521,0,0,1,6.93809,2.4513l-4.42555-3.82215,7.87249,2.77714c-3.52378-3.21714-7.77352-5.5209-11.55493-8.43088a89.146,89.146,0,0,1-9.823-9.28317,18.24885,18.24885,0,0,0,4.14169,5.86623c-3.09941-1.234-5.5157-3.70062-7.83362-6.09985l1.53059,3.76136c-1.62874-1.95583-1.95005-4.47479-3.12-6.6817l-5.7604,6.07138a9.60412,9.60412,0,0,0-1.87382-3.05674A10.69786,10.69786,0,0,1,242.495,424.539l-1.86367-4.63191a8.05325,8.05325,0,0,0-4.70958,4.11328l-2.94026-5.449a33.48269,33.48269,0,0,0-4.8233,7.26432l-2.27538-7.07236-4.6179,4.05284-1.99857-4.223-3.12234,4.59556a10.71757,10.71757,0,0,0-1.90159-4.79734,15.28163,15.28163,0,0,1-3.849,4.28329l-.31553-4.33864a15.3075,15.3075,0,0,1-2.81573,4.379,8.50331,8.50331,0,0,0-.01977-5.65629c.15151.41-3.878,2.69406-4.22113,2.88932a46.11282,46.11282,0,0,1-5.42037,2.59961,114.99236,114.99236,0,0,1-11.77672,3.84074,29.1806,29.1806,0,0,0,8.06177-.55169l-6.99284,3.5807,4.12625-.44223q-6.77371,2.42419-13.64,4.57848c5.70686.1163,11.292-1.49021,16.77348-3.08229l-5.70212,5.19582,5.96024-2.64571a24.31641,24.31641,0,0,0-3.347,3.38739,21.86739,21.86739,0,0,0,7.25844-4.85966,16.60789,16.60789,0,0,0-1.83662,3.53019,36.80168,36.80168,0,0,1-2.52309,4.25451A36.01761,36.01761,0,0,1,187.09162,447.27885Z"/><path class="bd" d="M579.73831,182.65977a158.13724,158.13724,0,0,0-36.99937,32.22264L582.15,200.1369l-21.12588,16.66936a262.71045,262.71045,0,0,1,68.45771-8.71966,675.117,675.117,0,0,0-81.07392,36.66184,162.64143,162.64143,0,0,1,86.11079,17.96345l-36.14183,5.59539c-4.03014.62394-9.10374,2.37336-9.14493,6.4513a112.9759,112.9759,0,0,1,43.724,19.22214l-33.60182,4.34668a337.1455,337.1455,0,0,1,72.26007,40.41911l-66.80392-6.88713c16.30484,13.14771,42.21215,14.12533,52.92269,32.12518a103.41419,103.41419,0,0,0-29.14866-3.99536c-3.13026.02115-7.25944,1.16195-7.22149,4.29205.027,2.22628,2.29526,3.66318,4.288,4.65611,19.64767,9.78981,40.63108,18.50278,55.5593,34.59686a413.7358,413.7358,0,0,0-71.10694-9.97867c19.71827,8.87485,39.86073,18.03162,55.43516,33.032a166.9644,166.9644,0,0,0-75.75179,4.02136l37.56984,21.54682c4.39016,2.51781,9.437,6.33274,8.573,11.31935-8.33924-.51484-17.34376-.1288-25.565-1.56884-6.54709-1.1468-12.18129-4.18991-19.00947-2.04417a116.122,116.122,0,0,0,19.26127,13.54813c-5.40529-3.04048-13.71376-1.48472-19.89315-5.40133,7.20439,5.98427,15.3601,11.14134,22.53942,17.577-10.65337.07738-19.76188-7.66471-26.30043-16.07588s-11.76335-18.07191-20.07-24.74274a29.52586,29.52586,0,0,1,3.21994,26.53526A166.736,166.736,0,0,1,558.19465,451.018L551.22,468.79735l-5.67864-7.38824a73.37586,73.37586,0,0,1-14.45625,30.02806L523.85257,441.355c-.69247-4.79512-1.38678-9.63593-1.02878-14.46755,1.15413-15.57643,12.68489-28.0455,20.44016-41.60326a92.92067,92.92067,0,0,0,8.90823-69.65045c4.42588-.62161,5.63154-7.19307,2.83665-10.68067s-7.63107-4.47632-12.07863-4.9167a94.98334,94.98334,0,0,0-24.81446.80839l5.79745.67136-33.33753,23.05165a61.2243,61.2243,0,0,0,14.96778-20.74034L495.53467,307.107l8.83668-9.90455-13.08458-3.309q2.61281-3.85888,5.22558-7.71779c-4.42254-2.06141-8.961-4.00319-13.17992-6.38282,4.22577-7.89711,5.86105-16.70864-.93567-23.88478a15.51363,15.51363,0,0,0,6.232-6.95015l-3.79932,1.52546a24.02688,24.02688,0,0,0,2.83718-8.99021,15.69613,15.69613,0,0,1-5.3854,1.79514,14.67553,14.67553,0,0,0,3.22256-7.77575l-5.50431,2.77857a92.24962,92.24962,0,0,0,4.95213-10.16864,37.763,37.763,0,0,0-6.77851,5.387,147.69644,147.69644,0,0,0,18.09207-36.46275l-2.6962,16.55731a103.1009,103.1009,0,0,0,15.68817-25.37356L504.47085,202.429a130.17832,130.17832,0,0,0,17.78772-25.17648,38.46185,38.46185,0,0,1-2.50155,12.22975l21.35729-24.05575q-6.07587,12.97485-13.10571,25.47379a214.27228,214.27228,0,0,0,19.73851-14.79488,62.56573,62.56573,0,0,0-8.5559,11.72342,46.55024,46.55024,0,0,0,10.3301-5.8814l-4.89752,5.85939,22.25747-15.62805a78.94678,78.94678,0,0,1-23.25768,24.14732C554.65553,188.94952,568.68658,189.59522,579.73831,182.65977Z"/><path class="d" d="M508.08125,341.45872c14.781-14.747,52.32733-34.893,70.04079-14.27061,4.39691,5.119,6.06466,12.02137,6.89432,18.71827,2.63034,21.23159-7.3624,32.10232-16.48848,49.535-8.61967,16.46529-12.75781,34.83232-21.102,51.42813-8.82367,17.5494-35.53055,44.55788-57.383,38.05429-11.55107-3.43784-12.08288-19.99011-11.67254-30.40738"/><g class="be"><path class="bf" d="M545.77992,402.97445q1.53593-9.89848,2.74642-19.84382a16.17248,16.17248,0,0,0,.08814-4.90916,8.32556,8.32556,0,0,0-4.9381-6.06385c-5.6728-2.32188-10.22487,1.01947-12.93509,5.60315-6.29807,10.65172-12.311,22.31426-16.30541,34.02044-3.65965,10.72513,2.67745,21.86342,1.91479,32.783-.18364,2.62922-1.04362,14.829,5.19032,10.15989,1.58589-1.1878,2.30062-3.17215,3.20116-4.93725,3.79077-7.43,11.75407-12.0055,15.71277-19.34744,2.53629-4.7039,3.0831-9.98141,3.29377-15.22917C543.91668,411.02552,545.13234,407.14787,545.77992,402.97445Z"/><path class="bg" d="M472.28324,452.855c-3.73931,8.642-6.54536,17.51643-5.57908,27.46561,1.056,10.87219,8.68405,21.941,19.54609,23.09682,5.92615.63058,11.77434-1.70854,16.9658-4.63539A84.32525,84.32525,0,0,0,524.822,480.96061c3.14742-3.5652,5.79381-7.43031,8.65037-11.21377,2.20331-2.91824,5.10906-4.581,7.06979-7.76235,6.67375-10.82833,13.43678-21.86183,16.6504-34.1689-1.85581,7.10358-14.83045,15.32059-20.66726,18.86534-2.60107,1.57965-4.84432,4.63634-7.39415,5.82324a3.90326,3.90326,0,0,1-4.077-.369,4.40749,4.40749,0,0,1-1.11689-4.39168,16.41536,16.41536,0,0,1,2.06756-4.28216,41.01276,41.01276,0,0,0,4.96437-13.63223c.41146-2.38327.58325-4.95738-.529-7.105a8.32868,8.32868,0,0,0-5.79733-4.03206,17.613,17.613,0,0,0-7.24038.32714c-4.63094,1.00464-10.01347,5.82275-14.22923,5.906-1.67151-11.5216,5.04963-24.20856,7.55711-35.26527a74.93069,74.93069,0,0,1,12.13834-27.533c4.79611-6.51378,14.23321-10.29924,21.98627-12.16371,3.67319-.88333,7.80246-1.2751,11.00243.73309,2.88255,1.809,4.39942,5.26552,4.70037,8.65535s-.44212,6.77584-1.18055,10.09792c-2.8695,12.90945-9.44432,24.79108-8.54809,37.98521.22121,3.25665,1.40125,7.28724,4.63566,7.727,2.43658.33127,4.503-1.6757,6.10695-3.53961,13.38456-15.55417,24.54148-33.29408,30.71326-52.86416,2.12476-6.7374,3.66028-13.85529,2.62846-20.844-1.589-10.76253-9.36767-20.05859-19.10855-24.90341s-21.18039-5.57092-31.86937-3.54537c-18.29041,3.466-34.69567,14.80653-45.57471,29.91277s-16.39448,33.74639-16.94141,52.3542c-.12926,4.39755-.07791,9.1418,1.49308,13.31651,1.76106,4.67979,1.59343,7.6347.89391,12.78094-.962,7.07736-2.19257,14.72832-5.25331,21.44177C476.4807,443.81677,474.25255,448.30363,472.28324,452.855Z"/></g><ellipse class="bh" cx="416.67298" cy="174.45618" rx="14.32775" ry="38.34743" transform="translate(128.49026 522.30966) rotate(-73.07811)"/></g></svg>