<svg xmlns="http://www.w3.org/2000/svg" xmlns:xlink="http://www.w3.org/1999/xlink" viewBox="0 0 1080 109.60693"><defs><style>.a{fill:url(#a);}.b{fill:url(#b);}.c{fill:url(#c);}.d{fill:url(#d);}.e{clip-path:url(#f);}.aa,.ab,.ac,.ad,.ae,.af,.ag,.ah,.ai,.aj,.ak,.an,.ar,.as,.at,.au,.av,.aw,.ax,.ay,.az,.ba,.bb,.bc,.bd,.be,.bf,.f,.g,.h,.i,.j,.k,.l,.m,.n,.o,.p,.q,.r,.s,.t,.w,.x,.y,.z{fill:none;stroke-miterlimit:10;}.f{stroke:url(#g);}.g{stroke:url(#h);}.h{stroke:url(#i);}.i{stroke:url(#j);}.j{stroke:url(#k);}.k{stroke:url(#l);}.l{stroke:url(#m);}.m{stroke:url(#n);}.n{stroke:url(#o);}.o{stroke:url(#p);}.p{stroke:url(#q);}.q{stroke:url(#r);}.r{stroke:url(#s);}.s{stroke:url(#t);}.t{stroke:url(#u);}.al,.u{opacity:0.8;}.u{fill:url(#v);}.v{clip-path:url(#x);}.w{stroke:url(#y);}.x{stroke:url(#z);}.y{stroke:url(#aa);}.z{stroke:url(#ab);}.aa{stroke:url(#ac);}.ab{stroke:url(#ad);}.ac{stroke:url(#ae);}.ad{stroke:url(#af);}.ae{stroke:url(#ag);}.af{stroke:url(#ah);}.ag{stroke:url(#ai);}.ah{stroke:url(#aj);}.ai{stroke:url(#ak);}.aj{stroke:url(#al);}.ak{stroke:url(#am);}.al{fill:url(#an);}.am{clip-path:url(#ap);}.an{stroke:#936037;stroke-width:0.63488px;}.ao{opacity:0.5;fill:url(#aq);}.ap{fill:#494c82;opacity:0.2;}.aq{clip-path:url(#as);}.ar{stroke:url(#at);}.as{stroke:url(#au);}.at{stroke:url(#av);}.au{stroke:url(#aw);}.av{stroke:url(#ax);}.aw{stroke:url(#ay);}.ax{stroke:url(#az);}.ay{stroke:url(#ba);}.az{stroke:url(#bb);}.ba{stroke:url(#bc);}.bb{stroke:url(#bd);}.bc{stroke:url(#be);}.bd{stroke:url(#bf);}.be{stroke:url(#bg);}.bf{stroke:url(#bh);}.bg{opacity:0.46;fill:url(#bi);}</style><linearGradient id="a" x1="1022.33905" y1="23.44093" x2="1022.33905" y2="97.99368" gradientUnits="userSpaceOnUse"><stop offset="0" stop-color="#734c32"/><stop offset="1" stop-color="#845636"/></linearGradient><linearGradient id="b" x1="56.76297" y1="23.44093" x2="56.76297" y2="97.99368" xlink:href="#a"/><linearGradient id="c" x1="408.25548" y1="214.19964" x2="576.2358" y2="-45.48886" gradientUnits="userSpaceOnUse"><stop offset="0" stop-color="#845636"/><stop offset="1" stop-color="#734c32"/></linearGradient><linearGradient id="d" y1="26.84678" x2="1080" y2="26.84678" gradientUnits="userSpaceOnUse"><stop offset="0" stop-color="#b17f4a"/><stop offset="1" stop-color="#946644"/></linearGradient><clipPath id="f"><polygon class="a" points="1032.787 109.607 1011.891 109.607 1006.779 25.313 1037.899 25.313 1032.787 109.607"/></clipPath><linearGradient id="g" x1="1130.84037" y1="8.69903" x2="1134.89731" y2="8.69903" gradientTransform="translate(-120.4543 50.83968) rotate(0.94037)" xlink:href="#d"/><linearGradient id="h" x1="1133.16846" y1="3.13439" x2="1136.68628" y2="3.13439" gradientTransform="translate(-120.4543 50.83968) rotate(0.94037)" xlink:href="#d"/><linearGradient id="i" x1="1137.07838" y1="31.07885" x2="1140.5962" y2="31.07885" gradientTransform="translate(-120.4543 50.83968) rotate(0.94037)" xlink:href="#d"/><linearGradient id="j" x1="1138.7868" y1="-2.96731" x2="1142.30462" y2="-2.96731" gradientTransform="translate(-120.4543 50.83968) rotate(0.94037)" xlink:href="#d"/><linearGradient id="k" x1="1142.84281" y1="25.33701" x2="1146.36063" y2="25.33701" gradientTransform="translate(-120.4543 50.83968) rotate(0.94037)" xlink:href="#d"/><linearGradient id="l" x1="1144.79529" y1="2.15145" x2="1148.3131" y2="2.15145" gradientTransform="translate(-120.4543 50.83968) rotate(0.94037)" xlink:href="#d"/><linearGradient id="m" x1="1148.68272" y1="-4.80336" x2="1152.20053" y2="-4.80336" gradientTransform="translate(-120.4543 50.83968) rotate(0.94037)" xlink:href="#d"/><linearGradient id="n" x1="1153.28683" y1="-0.4028" x2="1156.80465" y2="-0.4028" gradientTransform="translate(-120.4543 50.83968) rotate(0.94037)" xlink:href="#d"/><linearGradient id="o" x1="1150.75467" y1="52.91658" x2="1154.27249" y2="52.91658" gradientTransform="translate(-120.4543 50.83968) rotate(0.94037)" xlink:href="#d"/><linearGradient id="p" x1="1015.66099" y1="55.46655" x2="1017.85591" y2="55.46655" xlink:href="#d"/><linearGradient id="q" x1="1021.83936" y1="49.9126" x2="1024.03428" y2="49.9126" xlink:href="#d"/><linearGradient id="r" x1="1020.05196" y1="113.10306" x2="1022.24687" y2="113.10306" xlink:href="#d"/><linearGradient id="s" x1="1015.14923" y1="118.99356" x2="1017.34415" y2="118.99356" xlink:href="#d"/><linearGradient id="t" x1="1025.65284" y1="117.28566" x2="1027.84775" y2="117.28566" xlink:href="#d"/><linearGradient id="u" x1="1032.31356" y1="89.8708" x2="1034.50847" y2="89.8708" xlink:href="#d"/><linearGradient id="v" x1="1022.33905" y1="47.11536" x2="1022.33905" y2="107.92192" gradientUnits="userSpaceOnUse"><stop offset="0" stop-color="#57331b"/><stop offset="1" stop-color="#845636"/></linearGradient><clipPath id="x"><polygon class="b" points="67.211 109.607 46.315 109.607 41.203 25.313 72.323 25.313 67.211 109.607"/></clipPath><linearGradient id="y" x1="165.39433" y1="24.54588" x2="169.45128" y2="24.54588" gradientTransform="translate(-120.4543 50.83968) rotate(0.94037)" xlink:href="#d"/><linearGradient id="z" x1="167.72242" y1="18.98124" x2="171.24024" y2="18.98124" gradientTransform="translate(-120.4543 50.83968) rotate(0.94037)" xlink:href="#d"/><linearGradient id="aa" x1="171.63234" y1="46.92569" x2="175.15016" y2="46.92569" gradientTransform="translate(-120.4543 50.83968) rotate(0.94037)" xlink:href="#d"/><linearGradient id="ab" x1="173.34076" y1="12.87954" x2="176.85858" y2="12.87954" gradientTransform="translate(-120.4543 50.83968) rotate(0.94037)" xlink:href="#d"/><linearGradient id="ac" x1="177.39677" y1="41.18385" x2="180.91459" y2="41.18385" gradientTransform="translate(-120.4543 50.83968) rotate(0.94037)" xlink:href="#d"/><linearGradient id="ad" x1="179.34925" y1="17.9983" x2="182.86706" y2="17.9983" gradientTransform="translate(-120.4543 50.83968) rotate(0.94037)" xlink:href="#d"/><linearGradient id="ae" x1="183.23668" y1="11.04348" x2="186.7545" y2="11.04348" gradientTransform="translate(-120.4543 50.83968) rotate(0.94037)" xlink:href="#d"/><linearGradient id="af" x1="187.8408" y1="15.44405" x2="191.35861" y2="15.44405" gradientTransform="translate(-120.4543 50.83968) rotate(0.94037)" xlink:href="#d"/><linearGradient id="ag" x1="185.30863" y1="68.76343" x2="188.82645" y2="68.76343" gradientTransform="translate(-120.4543 50.83968) rotate(0.94037)" xlink:href="#d"/><linearGradient id="ah" x1="50.08491" y1="55.46655" x2="52.27982" y2="55.46655" xlink:href="#d"/><linearGradient id="ai" x1="56.26328" y1="49.9126" x2="58.45819" y2="49.9126" xlink:href="#d"/><linearGradient id="aj" x1="54.47587" y1="113.10306" x2="56.67079" y2="113.10306" xlink:href="#d"/><linearGradient id="ak" x1="49.57315" y1="118.99356" x2="51.76806" y2="118.99356" xlink:href="#d"/><linearGradient id="al" x1="60.07676" y1="117.28566" x2="62.27167" y2="117.28566" xlink:href="#d"/><linearGradient id="am" x1="66.73748" y1="89.8708" x2="68.93239" y2="89.8708" xlink:href="#d"/><linearGradient id="an" x1="56.76297" y1="47.11536" x2="56.76297" y2="107.92192" xlink:href="#v"/><clipPath id="ap"><rect class="c" width="1080" height="21.05946"/></clipPath><linearGradient id="aq" x1="533.46687" y1="-0.47967" x2="533.46687" y2="20.74875" gradientUnits="userSpaceOnUse"><stop offset="0" stop-color="#996b4d"/><stop offset="1" stop-color="#734c32"/></linearGradient><clipPath id="as"><rect class="d" y="21.11023" width="1080" height="11.4731"/></clipPath><linearGradient id="at" y1="23.95462" x2="154.65032" y2="23.95462" gradientUnits="userSpaceOnUse"><stop offset="0" stop-color="#bd874f"/><stop offset="1" stop-color="#bd8057"/></linearGradient><linearGradient id="au" x1="149.84877" y1="30.2904" x2="421.04822" y2="30.2904" xlink:href="#at"/><linearGradient id="av" x1="12.46824" y1="26.84678" x2="167.11856" y2="26.84678" xlink:href="#at"/><linearGradient id="aw" x1="-8.28341" y1="30.2904" x2="146.36691" y2="30.2904" xlink:href="#at"/><linearGradient id="ax" x1="159.04043" y1="24.39257" x2="391.30194" y2="24.39257" xlink:href="#at"/><linearGradient id="ay" x1="393.00552" y1="25.3907" x2="629.54009" y2="25.3907" xlink:href="#at"/><linearGradient id="az" x1="423.86925" y1="30.73078" x2="657.7105" y2="30.73078" xlink:href="#at"/><linearGradient id="ba" x1="631.30496" y1="25.3907" x2="872.27612" y2="25.3907" xlink:href="#at"/><linearGradient id="bb" x1="659.42206" y1="30.73078" x2="910.44709" y2="30.73078" xlink:href="#at"/><linearGradient id="bc" x1="912.56564" y1="30.90528" x2="1144.82715" y2="30.90528" xlink:href="#at"/><linearGradient id="bd" x1="874.25391" y1="25.03771" x2="1106.51542" y2="25.03771" xlink:href="#at"/><linearGradient id="be" x1="930.9966" y1="26.84678" x2="1167.6071" y2="26.84678" xlink:href="#at"/><linearGradient id="bf" x1="511.29133" y1="28.3909" x2="928.21848" y2="28.3909" xlink:href="#at"/><linearGradient id="bg" x1="393.04029" y1="23.08597" x2="625.3018" y2="23.08597" xlink:href="#at"/><linearGradient id="bh" x1="173.89425" y1="28.10602" x2="509.64613" y2="28.10602" xlink:href="#at"/><linearGradient id="bi" x1="540" y1="20.82255" x2="540" y2="30.21295" xlink:href="#d"/></defs><polygon class="a" points="1032.787 109.607 1011.891 109.607 1006.779 25.313 1037.899 25.313 1032.787 109.607"/><g class="e"><line class="f" x1="1011.10837" y1="46.54477" x2="1013.13002" y2="109.71516"/><line class="g" x1="1013.43615" y1="46.58298" x2="1015.1014" y2="98.61674"/><line class="h" x1="1016.88692" y1="74.58784" x2="1018.55217" y2="126.6216"/><line class="i" x1="1019.15387" y1="40.5743" x2="1020.81912" y2="92.60807"/><line class="j" x1="1022.74481" y1="68.94137" x2="1024.41006" y2="120.97513"/><line class="k" x1="1025.07754" y1="45.79099" x2="1026.74279" y2="97.82475"/><line class="l" x1="1029.07859" y1="38.90091" x2="1030.74384" y2="90.93467"/><line class="m" x1="1033.60987" y1="43.37644" x2="1035.27511" y2="95.4102"/><line class="n" x1="1030.20298" y1="96.64708" x2="1031.86822" y2="148.68085"/><line class="o" x1="1016.16068" y1="38.47291" x2="1017.35622" y2="72.4602"/><line class="p" x1="1022.33905" y1="32.91895" x2="1023.53458" y2="66.90624"/><line class="q" x1="1020.55165" y1="96.10942" x2="1021.74718" y2="130.09671"/><line class="r" x1="1015.64892" y1="101.99992" x2="1016.84446" y2="135.98721"/><line class="s" x1="1026.15253" y1="100.29202" x2="1027.34806" y2="134.2793"/><line class="t" x1="1032.81325" y1="72.87716" x2="1034.00878" y2="106.86445"/><polygon class="u" points="1032.787 109.607 1011.891 109.607 1006.779 25.313 1037.899 25.313 1032.787 109.607"/></g><polygon class="b" points="67.211 109.607 46.315 109.607 41.203 25.313 72.323 25.313 67.211 109.607"/><g class="v"><line class="w" x1="45.53229" y1="46.54477" x2="47.55394" y2="109.71516"/><line class="x" x1="47.86007" y1="46.58298" x2="49.52531" y2="98.61674"/><line class="y" x1="51.31084" y1="74.58784" x2="52.97608" y2="126.6216"/><line class="z" x1="53.57779" y1="40.5743" x2="55.24303" y2="92.60807"/><line class="aa" x1="57.16873" y1="68.94137" x2="58.83397" y2="120.97513"/><line class="ab" x1="59.50146" y1="45.79099" x2="61.1667" y2="97.82475"/><line class="ac" x1="63.50251" y1="38.90091" x2="65.16775" y2="90.93467"/><line class="ad" x1="68.03378" y1="43.37644" x2="69.69903" y2="95.4102"/><line class="ae" x1="64.62689" y1="96.64708" x2="66.29214" y2="148.68085"/><line class="af" x1="50.5846" y1="38.47291" x2="51.78013" y2="72.4602"/><line class="ag" x1="56.76297" y1="32.91895" x2="57.9585" y2="66.90624"/><line class="ah" x1="54.97556" y1="96.10942" x2="56.1711" y2="130.09671"/><line class="ai" x1="50.07284" y1="101.99992" x2="51.26837" y2="135.98721"/><line class="aj" x1="60.57645" y1="100.29202" x2="61.77198" y2="134.2793"/><line class="ak" x1="67.23717" y1="72.87716" x2="68.4327" y2="106.86445"/><polygon class="al" points="67.211 109.607 46.315 109.607 41.203 25.313 72.323 25.313 67.211 109.607"/></g><rect class="c" width="1080" height="21.05946"/><g class="am"><line class="an" x1="2.75152" y1="18.33665" x2="992.88068" y2="18.33665"/><line class="an" x1="672.37204" y1="15.94776" x2="1118.87403" y2="15.94776"/><line class="an" x1="754.33055" y1="19.83143" x2="1115.98069" y2="19.83143"/><line class="an" x1="727.07287" y1="17.26353" x2="242.69968" y2="17.26353"/><line class="an" x1="2.75152" y1="16.43674" x2="662.75472" y2="16.03364"/><line class="an" x1="655.94438" y1="14.24542" x2="1099.58995" y2="14.24542"/><line class="an" x1="650.10647" y1="14.75151" x2="335.19626" y2="14.75151"/><line class="an" x1="333.01974" y1="15.2622" x2="-11.33819" y2="15.2622"/><line class="an" x1="-1.53703" y1="13.8149" x2="418.04001" y2="13.8149"/><line class="an" x1="423.51706" y1="13.43608" x2="1113.77532" y2="13.43608"/><line class="an" x1="2.75152" y1="6.97607" x2="992.88068" y2="6.97607"/><line class="an" x1="672.37204" y1="9.36497" x2="1118.87403" y2="9.36497"/><line class="an" x1="754.33055" y1="5.48129" x2="1115.98069" y2="5.48129"/><line class="an" x1="727.07287" y1="8.0492" x2="242.69968" y2="8.0492"/><line class="an" x1="2.75152" y1="8.87599" x2="662.75472" y2="9.27908"/><line class="an" x1="655.94438" y1="11.06731" x2="1099.58995" y2="11.06731"/><line class="an" x1="650.10647" y1="10.56121" x2="335.19626" y2="10.56121"/><line class="an" x1="333.01974" y1="10.05053" x2="-11.33819" y2="10.05053"/><line class="an" x1="-1.53703" y1="11.49782" x2="418.04001" y2="11.49782"/><line class="an" x1="423.51706" y1="11.87664" x2="1113.77532" y2="11.87664"/><line class="an" x1="672.37204" y1="1.62057" x2="1118.87403" y2="1.62057"/><line class="an" x1="727.07287" y1="0.3048" x2="242.69968" y2="0.3048"/><line class="an" x1="2.75152" y1="1.13159" x2="662.75472" y2="1.53469"/><line class="an" x1="655.94438" y1="3.32291" x2="1099.58995" y2="3.32291"/><line class="an" x1="650.10647" y1="2.81682" x2="335.19626" y2="2.81682"/><line class="an" x1="333.01974" y1="2.30613" x2="-11.33819" y2="2.30613"/><line class="an" x1="-1.53703" y1="3.75343" x2="418.04001" y2="3.75343"/><line class="an" x1="423.51706" y1="4.13224" x2="1113.77532" y2="4.13224"/><line class="an" x1="0.38895" y1="5.75458" x2="486.65646" y2="5.75458"/><line class="an" x1="502.16987" y1="5.29942" x2="746.05556" y2="5.29942"/><line class="an" x1="610.74554" y1="6.16128" x2="713.60315" y2="6.16128"/><ellipse class="an" cx="615.18186" cy="6.07571" rx="8.6643" ry="1.43484"/><ellipse class="an" cx="493.8951" cy="4.96686" rx="8.6643" ry="1.43484"/><ellipse class="an" cx="493.8951" cy="4.96686" rx="7.01728" ry="0.99229"/><ellipse class="an" cx="493.8951" cy="4.96686" rx="15.49768" ry="2.19148"/><ellipse class="an" cx="419.87512" cy="12.72121" rx="8.6643" ry="1.43484"/><ellipse class="an" cx="419.87512" cy="12.72121" rx="7.01728" ry="0.99229"/><ellipse class="an" cx="419.87512" cy="12.72121" rx="15.49768" ry="2.19148"/><ellipse class="an" cx="756.36569" cy="12.72121" rx="8.6643" ry="1.43484"/><ellipse class="an" cx="756.36569" cy="12.72121" rx="7.01728" ry="0.99229"/><ellipse class="an" cx="756.36569" cy="12.72121" rx="15.49768" ry="2.19148"/><ellipse class="an" cx="970.27603" cy="7.13647" rx="8.6643" ry="1.43484"/><ellipse class="an" cx="970.27603" cy="7.13647" rx="7.01728" ry="0.99229"/><ellipse class="an" cx="970.27603" cy="7.13647" rx="15.49768" ry="2.19148"/><ellipse class="an" cx="113.28971" cy="10.52973" rx="8.6643" ry="1.43484"/><ellipse class="an" cx="113.28971" cy="10.52973" rx="7.01728" ry="0.99229"/><ellipse class="an" cx="113.28971" cy="10.52973" rx="15.49768" ry="2.19148"/><ellipse class="an" cx="28.57963" cy="6.08223" rx="5.95364" ry="0.98595"/><ellipse class="an" cx="28.57963" cy="6.08223" rx="4.8219" ry="0.68185"/><ellipse class="an" cx="28.57963" cy="6.08223" rx="10.64917" ry="1.50587"/><line class="an" x1="746.34984" y1="20.26433" x2="-91.51933" y2="20.26433"/><rect class="ao" x="-13.06626" width="1093.06626" height="21.05946"/></g><polygon class="ap" points="0 66.822 1080 78.182 1080 32.583 0 32.583 0 66.822"/><rect class="d" y="21.11023" width="1080" height="11.4731"/><g class="aq"><line class="ar" y1="23.95462" x2="154.65032" y2="23.95462"/><line class="as" x1="149.84877" y1="30.2904" x2="421.04822" y2="30.2904"/><line class="at" x1="12.46824" y1="26.84678" x2="167.11856" y2="26.84678"/><line class="au" x1="-8.28341" y1="30.2904" x2="146.36691" y2="30.2904"/><line class="av" x1="159.04043" y1="24.39257" x2="391.30194" y2="24.39257"/><line class="aw" x1="393.00552" y1="25.3907" x2="629.54009" y2="25.3907"/><line class="ax" x1="423.86925" y1="30.73078" x2="657.7105" y2="30.73078"/><line class="ay" x1="631.30496" y1="25.3907" x2="872.27612" y2="25.3907"/><line class="az" x1="659.42206" y1="30.73078" x2="910.44709" y2="30.73078"/><line class="ba" x1="912.56564" y1="30.90528" x2="1144.82715" y2="30.90528"/><line class="bb" x1="874.25391" y1="25.03771" x2="1106.51542" y2="25.03771"/><line class="bc" x1="930.9966" y1="26.84678" x2="1167.6071" y2="26.84678"/><line class="bd" x1="511.29133" y1="28.3909" x2="928.21848" y2="28.3909"/><line class="be" x1="393.04029" y1="23.08597" x2="625.3018" y2="23.08597"/><line class="bf" x1="173.89425" y1="28.10602" x2="509.64613" y2="28.10602"/><rect class="bg" y="21.11023" width="1080" height="11.4731"/></g></svg>